G04 #@! TF.GenerationSoftware,KiCad,Pcbnew,9.0.7-9.0.7~ubuntu24.04.1*
G04 #@! TF.CreationDate,2026-03-17T19:45:28-06:00*
G04 #@! TF.ProjectId,ckt-xing-adv,636b742d-7869-46e6-972d-6164762e6b69,rev?*
G04 #@! TF.SameCoordinates,Original*
G04 #@! TF.FileFunction,Soldermask,Top*
G04 #@! TF.FilePolarity,Negative*
%FSLAX46Y46*%
G04 Gerber Fmt 4.6, Leading zero omitted, Abs format (unit mm)*
G04 Created by KiCad (PCBNEW 9.0.7-9.0.7~ubuntu24.04.1) date 2026-03-17 19:45:28*
%MOMM*%
%LPD*%
G01*
G04 APERTURE LIST*
%ADD10C,6.552400*%
%ADD11C,2.652400*%
%ADD12R,2.400000X3.100000*%
%ADD13C,0.770000*%
%ADD14C,2.527300*%
%ADD15C,1.143000*%
%ADD16C,0.939800*%
G04 APERTURE END LIST*
G36*
G01*
X54102000Y-65138300D02*
X54102000Y-59575700D01*
G75*
G02*
X54178200Y-59499500I76200J0D01*
G01*
X56286400Y-59499500D01*
G75*
G02*
X56362600Y-59575700I0J-76200D01*
G01*
X56362600Y-65138300D01*
G75*
G02*
X56286400Y-65214500I-76200J0D01*
G01*
X54178200Y-65214500D01*
G75*
G02*
X54102000Y-65138300I0J76200D01*
G01*
G37*
G36*
G01*
X58699400Y-65138300D02*
X58699400Y-59575700D01*
G75*
G02*
X58775600Y-59499500I76200J0D01*
G01*
X60883800Y-59499500D01*
G75*
G02*
X60960000Y-59575700I0J-76200D01*
G01*
X60960000Y-65138300D01*
G75*
G02*
X60883800Y-65214500I-76200J0D01*
G01*
X58775600Y-65214500D01*
G75*
G02*
X58699400Y-65138300I0J76200D01*
G01*
G37*
G36*
G01*
X69186200Y-24577900D02*
X69186200Y-25904100D01*
G75*
G02*
X68998100Y-26092200I-188100J0D01*
G01*
X68621900Y-26092200D01*
G75*
G02*
X68433800Y-25904100I0J188100D01*
G01*
X68433800Y-24577900D01*
G75*
G02*
X68621900Y-24389800I188100J0D01*
G01*
X68998100Y-24389800D01*
G75*
G02*
X69186200Y-24577900I0J-188100D01*
G01*
G37*
G36*
G01*
X68186200Y-24577900D02*
X68186200Y-25904100D01*
G75*
G02*
X67998100Y-26092200I-188100J0D01*
G01*
X67621900Y-26092200D01*
G75*
G02*
X67433800Y-25904100I0J188100D01*
G01*
X67433800Y-24577900D01*
G75*
G02*
X67621900Y-24389800I188100J0D01*
G01*
X67998100Y-24389800D01*
G75*
G02*
X68186200Y-24577900I0J-188100D01*
G01*
G37*
G36*
G01*
X67186200Y-24577900D02*
X67186200Y-25904100D01*
G75*
G02*
X66998100Y-26092200I-188100J0D01*
G01*
X66621900Y-26092200D01*
G75*
G02*
X66433800Y-25904100I0J188100D01*
G01*
X66433800Y-24577900D01*
G75*
G02*
X66621900Y-24389800I188100J0D01*
G01*
X66998100Y-24389800D01*
G75*
G02*
X67186200Y-24577900I0J-188100D01*
G01*
G37*
G36*
G01*
X66186200Y-24577900D02*
X66186200Y-25904100D01*
G75*
G02*
X65998100Y-26092200I-188100J0D01*
G01*
X65621900Y-26092200D01*
G75*
G02*
X65433800Y-25904100I0J188100D01*
G01*
X65433800Y-24577900D01*
G75*
G02*
X65621900Y-24389800I188100J0D01*
G01*
X65998100Y-24389800D01*
G75*
G02*
X66186200Y-24577900I0J-188100D01*
G01*
G37*
G36*
G01*
X70786200Y-20671550D02*
X70786200Y-22060450D01*
G75*
G02*
X70504450Y-22342200I-281750J0D01*
G01*
X69715550Y-22342200D01*
G75*
G02*
X69433800Y-22060450I0J281750D01*
G01*
X69433800Y-20671550D01*
G75*
G02*
X69715550Y-20389800I281750J0D01*
G01*
X70504450Y-20389800D01*
G75*
G02*
X70786200Y-20671550I0J-281750D01*
G01*
G37*
G36*
G01*
X65186200Y-20671550D02*
X65186200Y-22060450D01*
G75*
G02*
X64904450Y-22342200I-281750J0D01*
G01*
X64115550Y-22342200D01*
G75*
G02*
X63833800Y-22060450I0J281750D01*
G01*
X63833800Y-20671550D01*
G75*
G02*
X64115550Y-20389800I281750J0D01*
G01*
X64904450Y-20389800D01*
G75*
G02*
X65186200Y-20671550I0J-281750D01*
G01*
G37*
G36*
G01*
X138579800Y-35546350D02*
X138579800Y-34557650D01*
G75*
G02*
X138861650Y-34275800I281850J0D01*
G01*
X139425350Y-34275800D01*
G75*
G02*
X139707200Y-34557650I0J-281850D01*
G01*
X139707200Y-35546350D01*
G75*
G02*
X139425350Y-35828200I-281850J0D01*
G01*
X138861650Y-35828200D01*
G75*
G02*
X138579800Y-35546350I0J281850D01*
G01*
G37*
G36*
G01*
X140454800Y-35546350D02*
X140454800Y-34557650D01*
G75*
G02*
X140736650Y-34275800I281850J0D01*
G01*
X141300350Y-34275800D01*
G75*
G02*
X141582200Y-34557650I0J-281850D01*
G01*
X141582200Y-35546350D01*
G75*
G02*
X141300350Y-35828200I-281850J0D01*
G01*
X140736650Y-35828200D01*
G75*
G02*
X140454800Y-35546350I0J281850D01*
G01*
G37*
D10*
X29718000Y-23368000D03*
G36*
G01*
X71142800Y-65772350D02*
X71142800Y-64783650D01*
G75*
G02*
X71424650Y-64501800I281850J0D01*
G01*
X71988350Y-64501800D01*
G75*
G02*
X72270200Y-64783650I0J-281850D01*
G01*
X72270200Y-65772350D01*
G75*
G02*
X71988350Y-66054200I-281850J0D01*
G01*
X71424650Y-66054200D01*
G75*
G02*
X71142800Y-65772350I0J281850D01*
G01*
G37*
G36*
G01*
X73017800Y-65772350D02*
X73017800Y-64783650D01*
G75*
G02*
X73299650Y-64501800I281850J0D01*
G01*
X73863350Y-64501800D01*
G75*
G02*
X74145200Y-64783650I0J-281850D01*
G01*
X74145200Y-65772350D01*
G75*
G02*
X73863350Y-66054200I-281850J0D01*
G01*
X73299650Y-66054200D01*
G75*
G02*
X73017800Y-65772350I0J281850D01*
G01*
G37*
G36*
G01*
X49452400Y-48894900D02*
X49452400Y-49271100D01*
G75*
G02*
X49264300Y-49459200I-188100J0D01*
G01*
X48013100Y-49459200D01*
G75*
G02*
X47825000Y-49271100I0J188100D01*
G01*
X47825000Y-48894900D01*
G75*
G02*
X48013100Y-48706800I188100J0D01*
G01*
X49264300Y-48706800D01*
G75*
G02*
X49452400Y-48894900I0J-188100D01*
G01*
G37*
G36*
G01*
X49452400Y-46994900D02*
X49452400Y-47371100D01*
G75*
G02*
X49264300Y-47559200I-188100J0D01*
G01*
X48013100Y-47559200D01*
G75*
G02*
X47825000Y-47371100I0J188100D01*
G01*
X47825000Y-46994900D01*
G75*
G02*
X48013100Y-46806800I188100J0D01*
G01*
X49264300Y-46806800D01*
G75*
G02*
X49452400Y-46994900I0J-188100D01*
G01*
G37*
G36*
G01*
X47577400Y-47944900D02*
X47577400Y-48321100D01*
G75*
G02*
X47389300Y-48509200I-188100J0D01*
G01*
X46138100Y-48509200D01*
G75*
G02*
X45950000Y-48321100I0J188100D01*
G01*
X45950000Y-47944900D01*
G75*
G02*
X46138100Y-47756800I188100J0D01*
G01*
X47389300Y-47756800D01*
G75*
G02*
X47577400Y-47944900I0J-188100D01*
G01*
G37*
G36*
G01*
X105391030Y-79987200D02*
X104412970Y-79987200D01*
G75*
G02*
X104125800Y-79700030I0J287170D01*
G01*
X104125800Y-79096970D01*
G75*
G02*
X104412970Y-78809800I287170J0D01*
G01*
X105391030Y-78809800D01*
G75*
G02*
X105678200Y-79096970I0J-287170D01*
G01*
X105678200Y-79700030D01*
G75*
G02*
X105391030Y-79987200I-287170J0D01*
G01*
G37*
G36*
G01*
X105391030Y-78162200D02*
X104412970Y-78162200D01*
G75*
G02*
X104125800Y-77875030I0J287170D01*
G01*
X104125800Y-77271970D01*
G75*
G02*
X104412970Y-76984800I287170J0D01*
G01*
X105391030Y-76984800D01*
G75*
G02*
X105678200Y-77271970I0J-287170D01*
G01*
X105678200Y-77875030D01*
G75*
G02*
X105391030Y-78162200I-287170J0D01*
G01*
G37*
G36*
G01*
X126129970Y-62379800D02*
X127108030Y-62379800D01*
G75*
G02*
X127395200Y-62666970I0J-287170D01*
G01*
X127395200Y-63270030D01*
G75*
G02*
X127108030Y-63557200I-287170J0D01*
G01*
X126129970Y-63557200D01*
G75*
G02*
X125842800Y-63270030I0J287170D01*
G01*
X125842800Y-62666970D01*
G75*
G02*
X126129970Y-62379800I287170J0D01*
G01*
G37*
G36*
G01*
X126129970Y-64204800D02*
X127108030Y-64204800D01*
G75*
G02*
X127395200Y-64491970I0J-287170D01*
G01*
X127395200Y-65095030D01*
G75*
G02*
X127108030Y-65382200I-287170J0D01*
G01*
X126129970Y-65382200D01*
G75*
G02*
X125842800Y-65095030I0J287170D01*
G01*
X125842800Y-64491970D01*
G75*
G02*
X126129970Y-64204800I287170J0D01*
G01*
G37*
G36*
G01*
X42516200Y-24577900D02*
X42516200Y-25904100D01*
G75*
G02*
X42328100Y-26092200I-188100J0D01*
G01*
X41951900Y-26092200D01*
G75*
G02*
X41763800Y-25904100I0J188100D01*
G01*
X41763800Y-24577900D01*
G75*
G02*
X41951900Y-24389800I188100J0D01*
G01*
X42328100Y-24389800D01*
G75*
G02*
X42516200Y-24577900I0J-188100D01*
G01*
G37*
G36*
G01*
X41516200Y-24577900D02*
X41516200Y-25904100D01*
G75*
G02*
X41328100Y-26092200I-188100J0D01*
G01*
X40951900Y-26092200D01*
G75*
G02*
X40763800Y-25904100I0J188100D01*
G01*
X40763800Y-24577900D01*
G75*
G02*
X40951900Y-24389800I188100J0D01*
G01*
X41328100Y-24389800D01*
G75*
G02*
X41516200Y-24577900I0J-188100D01*
G01*
G37*
G36*
G01*
X40516200Y-24577900D02*
X40516200Y-25904100D01*
G75*
G02*
X40328100Y-26092200I-188100J0D01*
G01*
X39951900Y-26092200D01*
G75*
G02*
X39763800Y-25904100I0J188100D01*
G01*
X39763800Y-24577900D01*
G75*
G02*
X39951900Y-24389800I188100J0D01*
G01*
X40328100Y-24389800D01*
G75*
G02*
X40516200Y-24577900I0J-188100D01*
G01*
G37*
G36*
G01*
X39516200Y-24577900D02*
X39516200Y-25904100D01*
G75*
G02*
X39328100Y-26092200I-188100J0D01*
G01*
X38951900Y-26092200D01*
G75*
G02*
X38763800Y-25904100I0J188100D01*
G01*
X38763800Y-24577900D01*
G75*
G02*
X38951900Y-24389800I188100J0D01*
G01*
X39328100Y-24389800D01*
G75*
G02*
X39516200Y-24577900I0J-188100D01*
G01*
G37*
G36*
G01*
X44116200Y-20671550D02*
X44116200Y-22060450D01*
G75*
G02*
X43834450Y-22342200I-281750J0D01*
G01*
X43045550Y-22342200D01*
G75*
G02*
X42763800Y-22060450I0J281750D01*
G01*
X42763800Y-20671550D01*
G75*
G02*
X43045550Y-20389800I281750J0D01*
G01*
X43834450Y-20389800D01*
G75*
G02*
X44116200Y-20671550I0J-281750D01*
G01*
G37*
G36*
G01*
X38516200Y-20671550D02*
X38516200Y-22060450D01*
G75*
G02*
X38234450Y-22342200I-281750J0D01*
G01*
X37445550Y-22342200D01*
G75*
G02*
X37163800Y-22060450I0J281750D01*
G01*
X37163800Y-20671550D01*
G75*
G02*
X37445550Y-20389800I281750J0D01*
G01*
X38234450Y-20389800D01*
G75*
G02*
X38516200Y-20671550I0J-281750D01*
G01*
G37*
G36*
G01*
X87607200Y-64534970D02*
X87607200Y-65513030D01*
G75*
G02*
X87320030Y-65800200I-287170J0D01*
G01*
X86716970Y-65800200D01*
G75*
G02*
X86429800Y-65513030I0J287170D01*
G01*
X86429800Y-64534970D01*
G75*
G02*
X86716970Y-64247800I287170J0D01*
G01*
X87320030Y-64247800D01*
G75*
G02*
X87607200Y-64534970I0J-287170D01*
G01*
G37*
G36*
G01*
X85782200Y-64534970D02*
X85782200Y-65513030D01*
G75*
G02*
X85495030Y-65800200I-287170J0D01*
G01*
X84891970Y-65800200D01*
G75*
G02*
X84604800Y-65513030I0J287170D01*
G01*
X84604800Y-64534970D01*
G75*
G02*
X84891970Y-64247800I287170J0D01*
G01*
X85495030Y-64247800D01*
G75*
G02*
X85782200Y-64534970I0J-287170D01*
G01*
G37*
G36*
G01*
X117954200Y-24577900D02*
X117954200Y-25904100D01*
G75*
G02*
X117766100Y-26092200I-188100J0D01*
G01*
X117389900Y-26092200D01*
G75*
G02*
X117201800Y-25904100I0J188100D01*
G01*
X117201800Y-24577900D01*
G75*
G02*
X117389900Y-24389800I188100J0D01*
G01*
X117766100Y-24389800D01*
G75*
G02*
X117954200Y-24577900I0J-188100D01*
G01*
G37*
G36*
G01*
X116954200Y-24577900D02*
X116954200Y-25904100D01*
G75*
G02*
X116766100Y-26092200I-188100J0D01*
G01*
X116389900Y-26092200D01*
G75*
G02*
X116201800Y-25904100I0J188100D01*
G01*
X116201800Y-24577900D01*
G75*
G02*
X116389900Y-24389800I188100J0D01*
G01*
X116766100Y-24389800D01*
G75*
G02*
X116954200Y-24577900I0J-188100D01*
G01*
G37*
G36*
G01*
X115954200Y-24577900D02*
X115954200Y-25904100D01*
G75*
G02*
X115766100Y-26092200I-188100J0D01*
G01*
X115389900Y-26092200D01*
G75*
G02*
X115201800Y-25904100I0J188100D01*
G01*
X115201800Y-24577900D01*
G75*
G02*
X115389900Y-24389800I188100J0D01*
G01*
X115766100Y-24389800D01*
G75*
G02*
X115954200Y-24577900I0J-188100D01*
G01*
G37*
G36*
G01*
X114954200Y-24577900D02*
X114954200Y-25904100D01*
G75*
G02*
X114766100Y-26092200I-188100J0D01*
G01*
X114389900Y-26092200D01*
G75*
G02*
X114201800Y-25904100I0J188100D01*
G01*
X114201800Y-24577900D01*
G75*
G02*
X114389900Y-24389800I188100J0D01*
G01*
X114766100Y-24389800D01*
G75*
G02*
X114954200Y-24577900I0J-188100D01*
G01*
G37*
G36*
G01*
X119554200Y-20671550D02*
X119554200Y-22060450D01*
G75*
G02*
X119272450Y-22342200I-281750J0D01*
G01*
X118483550Y-22342200D01*
G75*
G02*
X118201800Y-22060450I0J281750D01*
G01*
X118201800Y-20671550D01*
G75*
G02*
X118483550Y-20389800I281750J0D01*
G01*
X119272450Y-20389800D01*
G75*
G02*
X119554200Y-20671550I0J-281750D01*
G01*
G37*
G36*
G01*
X113954200Y-20671550D02*
X113954200Y-22060450D01*
G75*
G02*
X113672450Y-22342200I-281750J0D01*
G01*
X112883550Y-22342200D01*
G75*
G02*
X112601800Y-22060450I0J281750D01*
G01*
X112601800Y-20671550D01*
G75*
G02*
X112883550Y-20389800I281750J0D01*
G01*
X113672450Y-20389800D01*
G75*
G02*
X113954200Y-20671550I0J-281750D01*
G01*
G37*
G36*
G01*
X49452400Y-53212900D02*
X49452400Y-53589100D01*
G75*
G02*
X49264300Y-53777200I-188100J0D01*
G01*
X48013100Y-53777200D01*
G75*
G02*
X47825000Y-53589100I0J188100D01*
G01*
X47825000Y-53212900D01*
G75*
G02*
X48013100Y-53024800I188100J0D01*
G01*
X49264300Y-53024800D01*
G75*
G02*
X49452400Y-53212900I0J-188100D01*
G01*
G37*
G36*
G01*
X49452400Y-51312900D02*
X49452400Y-51689100D01*
G75*
G02*
X49264300Y-51877200I-188100J0D01*
G01*
X48013100Y-51877200D01*
G75*
G02*
X47825000Y-51689100I0J188100D01*
G01*
X47825000Y-51312900D01*
G75*
G02*
X48013100Y-51124800I188100J0D01*
G01*
X49264300Y-51124800D01*
G75*
G02*
X49452400Y-51312900I0J-188100D01*
G01*
G37*
G36*
G01*
X47577400Y-52262900D02*
X47577400Y-52639100D01*
G75*
G02*
X47389300Y-52827200I-188100J0D01*
G01*
X46138100Y-52827200D01*
G75*
G02*
X45950000Y-52639100I0J188100D01*
G01*
X45950000Y-52262900D01*
G75*
G02*
X46138100Y-52074800I188100J0D01*
G01*
X47389300Y-52074800D01*
G75*
G02*
X47577400Y-52262900I0J-188100D01*
G01*
G37*
G36*
G01*
X90776200Y-24577900D02*
X90776200Y-25904100D01*
G75*
G02*
X90588100Y-26092200I-188100J0D01*
G01*
X90211900Y-26092200D01*
G75*
G02*
X90023800Y-25904100I0J188100D01*
G01*
X90023800Y-24577900D01*
G75*
G02*
X90211900Y-24389800I188100J0D01*
G01*
X90588100Y-24389800D01*
G75*
G02*
X90776200Y-24577900I0J-188100D01*
G01*
G37*
G36*
G01*
X89776200Y-24577900D02*
X89776200Y-25904100D01*
G75*
G02*
X89588100Y-26092200I-188100J0D01*
G01*
X89211900Y-26092200D01*
G75*
G02*
X89023800Y-25904100I0J188100D01*
G01*
X89023800Y-24577900D01*
G75*
G02*
X89211900Y-24389800I188100J0D01*
G01*
X89588100Y-24389800D01*
G75*
G02*
X89776200Y-24577900I0J-188100D01*
G01*
G37*
G36*
G01*
X88776200Y-24577900D02*
X88776200Y-25904100D01*
G75*
G02*
X88588100Y-26092200I-188100J0D01*
G01*
X88211900Y-26092200D01*
G75*
G02*
X88023800Y-25904100I0J188100D01*
G01*
X88023800Y-24577900D01*
G75*
G02*
X88211900Y-24389800I188100J0D01*
G01*
X88588100Y-24389800D01*
G75*
G02*
X88776200Y-24577900I0J-188100D01*
G01*
G37*
G36*
G01*
X87776200Y-24577900D02*
X87776200Y-25904100D01*
G75*
G02*
X87588100Y-26092200I-188100J0D01*
G01*
X87211900Y-26092200D01*
G75*
G02*
X87023800Y-25904100I0J188100D01*
G01*
X87023800Y-24577900D01*
G75*
G02*
X87211900Y-24389800I188100J0D01*
G01*
X87588100Y-24389800D01*
G75*
G02*
X87776200Y-24577900I0J-188100D01*
G01*
G37*
G36*
G01*
X92376200Y-20671550D02*
X92376200Y-22060450D01*
G75*
G02*
X92094450Y-22342200I-281750J0D01*
G01*
X91305550Y-22342200D01*
G75*
G02*
X91023800Y-22060450I0J281750D01*
G01*
X91023800Y-20671550D01*
G75*
G02*
X91305550Y-20389800I281750J0D01*
G01*
X92094450Y-20389800D01*
G75*
G02*
X92376200Y-20671550I0J-281750D01*
G01*
G37*
G36*
G01*
X86776200Y-20671550D02*
X86776200Y-22060450D01*
G75*
G02*
X86494450Y-22342200I-281750J0D01*
G01*
X85705550Y-22342200D01*
G75*
G02*
X85423800Y-22060450I0J281750D01*
G01*
X85423800Y-20671550D01*
G75*
G02*
X85705550Y-20389800I281750J0D01*
G01*
X86494450Y-20389800D01*
G75*
G02*
X86776200Y-20671550I0J-281750D01*
G01*
G37*
G36*
G01*
X32208440Y-57017600D02*
X34330360Y-57017600D01*
G75*
G02*
X34595600Y-57282840I0J-265240D01*
G01*
X34595600Y-59404760D01*
G75*
G02*
X34330360Y-59670000I-265240J0D01*
G01*
X32208440Y-59670000D01*
G75*
G02*
X31943200Y-59404760I0J265240D01*
G01*
X31943200Y-57282840D01*
G75*
G02*
X32208440Y-57017600I265240J0D01*
G01*
G37*
D11*
X33269400Y-63343800D03*
G36*
G01*
X62735800Y-71633100D02*
X62735800Y-70606900D01*
G75*
G02*
X63023900Y-70318800I288100J0D01*
G01*
X63600100Y-70318800D01*
G75*
G02*
X63888200Y-70606900I0J-288100D01*
G01*
X63888200Y-71633100D01*
G75*
G02*
X63600100Y-71921200I-288100J0D01*
G01*
X63023900Y-71921200D01*
G75*
G02*
X62735800Y-71633100I0J288100D01*
G01*
G37*
G36*
G01*
X64635800Y-71633100D02*
X64635800Y-70606900D01*
G75*
G02*
X64923900Y-70318800I288100J0D01*
G01*
X65500100Y-70318800D01*
G75*
G02*
X65788200Y-70606900I0J-288100D01*
G01*
X65788200Y-71633100D01*
G75*
G02*
X65500100Y-71921200I-288100J0D01*
G01*
X64923900Y-71921200D01*
G75*
G02*
X64635800Y-71633100I0J288100D01*
G01*
G37*
G36*
G01*
X140485850Y-41761700D02*
X139459650Y-41761700D01*
G75*
G02*
X139171550Y-41473600I0J288100D01*
G01*
X139171550Y-40897400D01*
G75*
G02*
X139459650Y-40609300I288100J0D01*
G01*
X140485850Y-40609300D01*
G75*
G02*
X140773950Y-40897400I0J-288100D01*
G01*
X140773950Y-41473600D01*
G75*
G02*
X140485850Y-41761700I-288100J0D01*
G01*
G37*
G36*
G01*
X140485850Y-39861700D02*
X139459650Y-39861700D01*
G75*
G02*
X139171550Y-39573600I0J288100D01*
G01*
X139171550Y-38997400D01*
G75*
G02*
X139459650Y-38709300I288100J0D01*
G01*
X140485850Y-38709300D01*
G75*
G02*
X140773950Y-38997400I0J-288100D01*
G01*
X140773950Y-39573600D01*
G75*
G02*
X140485850Y-39861700I-288100J0D01*
G01*
G37*
G36*
G01*
X115039200Y-55009970D02*
X115039200Y-55988030D01*
G75*
G02*
X114752030Y-56275200I-287170J0D01*
G01*
X114148970Y-56275200D01*
G75*
G02*
X113861800Y-55988030I0J287170D01*
G01*
X113861800Y-55009970D01*
G75*
G02*
X114148970Y-54722800I287170J0D01*
G01*
X114752030Y-54722800D01*
G75*
G02*
X115039200Y-55009970I0J-287170D01*
G01*
G37*
G36*
G01*
X113214200Y-55009970D02*
X113214200Y-55988030D01*
G75*
G02*
X112927030Y-56275200I-287170J0D01*
G01*
X112323970Y-56275200D01*
G75*
G02*
X112036800Y-55988030I0J287170D01*
G01*
X112036800Y-55009970D01*
G75*
G02*
X112323970Y-54722800I287170J0D01*
G01*
X112927030Y-54722800D01*
G75*
G02*
X113214200Y-55009970I0J-287170D01*
G01*
G37*
G36*
G01*
X73678970Y-39707800D02*
X74657030Y-39707800D01*
G75*
G02*
X74944200Y-39994970I0J-287170D01*
G01*
X74944200Y-40598030D01*
G75*
G02*
X74657030Y-40885200I-287170J0D01*
G01*
X73678970Y-40885200D01*
G75*
G02*
X73391800Y-40598030I0J287170D01*
G01*
X73391800Y-39994970D01*
G75*
G02*
X73678970Y-39707800I287170J0D01*
G01*
G37*
G36*
G01*
X73678970Y-41532800D02*
X74657030Y-41532800D01*
G75*
G02*
X74944200Y-41819970I0J-287170D01*
G01*
X74944200Y-42423030D01*
G75*
G02*
X74657030Y-42710200I-287170J0D01*
G01*
X73678970Y-42710200D01*
G75*
G02*
X73391800Y-42423030I0J287170D01*
G01*
X73391800Y-41819970D01*
G75*
G02*
X73678970Y-41532800I287170J0D01*
G01*
G37*
G36*
G01*
X59438200Y-66415900D02*
X59438200Y-67442100D01*
G75*
G02*
X59150100Y-67730200I-288100J0D01*
G01*
X58573900Y-67730200D01*
G75*
G02*
X58285800Y-67442100I0J288100D01*
G01*
X58285800Y-66415900D01*
G75*
G02*
X58573900Y-66127800I288100J0D01*
G01*
X59150100Y-66127800D01*
G75*
G02*
X59438200Y-66415900I0J-288100D01*
G01*
G37*
G36*
G01*
X57538200Y-66415900D02*
X57538200Y-67442100D01*
G75*
G02*
X57250100Y-67730200I-288100J0D01*
G01*
X56673900Y-67730200D01*
G75*
G02*
X56385800Y-67442100I0J288100D01*
G01*
X56385800Y-66415900D01*
G75*
G02*
X56673900Y-66127800I288100J0D01*
G01*
X57250100Y-66127800D01*
G75*
G02*
X57538200Y-66415900I0J-288100D01*
G01*
G37*
D10*
X29718000Y-90932000D03*
G36*
G01*
X45479200Y-68900000D02*
X45479200Y-70800000D01*
G75*
G02*
X45403000Y-70876200I-76200J0D01*
G01*
X44003000Y-70876200D01*
G75*
G02*
X43926800Y-70800000I0J76200D01*
G01*
X43926800Y-68900000D01*
G75*
G02*
X44003000Y-68823800I76200J0D01*
G01*
X45403000Y-68823800D01*
G75*
G02*
X45479200Y-68900000I0J-76200D01*
G01*
G37*
G36*
G01*
X42179200Y-68900000D02*
X42179200Y-70800000D01*
G75*
G02*
X42103000Y-70876200I-76200J0D01*
G01*
X40703000Y-70876200D01*
G75*
G02*
X40626800Y-70800000I0J76200D01*
G01*
X40626800Y-68900000D01*
G75*
G02*
X40703000Y-68823800I76200J0D01*
G01*
X42103000Y-68823800D01*
G75*
G02*
X42179200Y-68900000I0J-76200D01*
G01*
G37*
G36*
G01*
X107159200Y-24577900D02*
X107159200Y-25904100D01*
G75*
G02*
X106971100Y-26092200I-188100J0D01*
G01*
X106594900Y-26092200D01*
G75*
G02*
X106406800Y-25904100I0J188100D01*
G01*
X106406800Y-24577900D01*
G75*
G02*
X106594900Y-24389800I188100J0D01*
G01*
X106971100Y-24389800D01*
G75*
G02*
X107159200Y-24577900I0J-188100D01*
G01*
G37*
G36*
G01*
X106159200Y-24577900D02*
X106159200Y-25904100D01*
G75*
G02*
X105971100Y-26092200I-188100J0D01*
G01*
X105594900Y-26092200D01*
G75*
G02*
X105406800Y-25904100I0J188100D01*
G01*
X105406800Y-24577900D01*
G75*
G02*
X105594900Y-24389800I188100J0D01*
G01*
X105971100Y-24389800D01*
G75*
G02*
X106159200Y-24577900I0J-188100D01*
G01*
G37*
G36*
G01*
X105159200Y-24577900D02*
X105159200Y-25904100D01*
G75*
G02*
X104971100Y-26092200I-188100J0D01*
G01*
X104594900Y-26092200D01*
G75*
G02*
X104406800Y-25904100I0J188100D01*
G01*
X104406800Y-24577900D01*
G75*
G02*
X104594900Y-24389800I188100J0D01*
G01*
X104971100Y-24389800D01*
G75*
G02*
X105159200Y-24577900I0J-188100D01*
G01*
G37*
G36*
G01*
X104159200Y-24577900D02*
X104159200Y-25904100D01*
G75*
G02*
X103971100Y-26092200I-188100J0D01*
G01*
X103594900Y-26092200D01*
G75*
G02*
X103406800Y-25904100I0J188100D01*
G01*
X103406800Y-24577900D01*
G75*
G02*
X103594900Y-24389800I188100J0D01*
G01*
X103971100Y-24389800D01*
G75*
G02*
X104159200Y-24577900I0J-188100D01*
G01*
G37*
G36*
G01*
X108759200Y-20671550D02*
X108759200Y-22060450D01*
G75*
G02*
X108477450Y-22342200I-281750J0D01*
G01*
X107688550Y-22342200D01*
G75*
G02*
X107406800Y-22060450I0J281750D01*
G01*
X107406800Y-20671550D01*
G75*
G02*
X107688550Y-20389800I281750J0D01*
G01*
X108477450Y-20389800D01*
G75*
G02*
X108759200Y-20671550I0J-281750D01*
G01*
G37*
G36*
G01*
X103159200Y-20671550D02*
X103159200Y-22060450D01*
G75*
G02*
X102877450Y-22342200I-281750J0D01*
G01*
X102088550Y-22342200D01*
G75*
G02*
X101806800Y-22060450I0J281750D01*
G01*
X101806800Y-20671550D01*
G75*
G02*
X102088550Y-20389800I281750J0D01*
G01*
X102877450Y-20389800D01*
G75*
G02*
X103159200Y-20671550I0J-281750D01*
G01*
G37*
G36*
G01*
X53215200Y-59811900D02*
X53215200Y-60838100D01*
G75*
G02*
X52927100Y-61126200I-288100J0D01*
G01*
X52350900Y-61126200D01*
G75*
G02*
X52062800Y-60838100I0J288100D01*
G01*
X52062800Y-59811900D01*
G75*
G02*
X52350900Y-59523800I288100J0D01*
G01*
X52927100Y-59523800D01*
G75*
G02*
X53215200Y-59811900I0J-288100D01*
G01*
G37*
G36*
G01*
X51315200Y-59811900D02*
X51315200Y-60838100D01*
G75*
G02*
X51027100Y-61126200I-288100J0D01*
G01*
X50450900Y-61126200D01*
G75*
G02*
X50162800Y-60838100I0J288100D01*
G01*
X50162800Y-59811900D01*
G75*
G02*
X50450900Y-59523800I288100J0D01*
G01*
X51027100Y-59523800D01*
G75*
G02*
X51315200Y-59811900I0J-288100D01*
G01*
G37*
G36*
G01*
X49558800Y-62992100D02*
X49558800Y-62615900D01*
G75*
G02*
X49746900Y-62427800I188100J0D01*
G01*
X50848100Y-62427800D01*
G75*
G02*
X51036200Y-62615900I0J-188100D01*
G01*
X51036200Y-62992100D01*
G75*
G02*
X50848100Y-63180200I-188100J0D01*
G01*
X49746900Y-63180200D01*
G75*
G02*
X49558800Y-62992100I0J188100D01*
G01*
G37*
G36*
G01*
X49558800Y-63942100D02*
X49558800Y-63565900D01*
G75*
G02*
X49746900Y-63377800I188100J0D01*
G01*
X50848100Y-63377800D01*
G75*
G02*
X51036200Y-63565900I0J-188100D01*
G01*
X51036200Y-63942100D01*
G75*
G02*
X50848100Y-64130200I-188100J0D01*
G01*
X49746900Y-64130200D01*
G75*
G02*
X49558800Y-63942100I0J188100D01*
G01*
G37*
G36*
G01*
X49558800Y-64892100D02*
X49558800Y-64515900D01*
G75*
G02*
X49746900Y-64327800I188100J0D01*
G01*
X50848100Y-64327800D01*
G75*
G02*
X51036200Y-64515900I0J-188100D01*
G01*
X51036200Y-64892100D01*
G75*
G02*
X50848100Y-65080200I-188100J0D01*
G01*
X49746900Y-65080200D01*
G75*
G02*
X49558800Y-64892100I0J188100D01*
G01*
G37*
G36*
G01*
X51833800Y-64892100D02*
X51833800Y-64515900D01*
G75*
G02*
X52021900Y-64327800I188100J0D01*
G01*
X53123100Y-64327800D01*
G75*
G02*
X53311200Y-64515900I0J-188100D01*
G01*
X53311200Y-64892100D01*
G75*
G02*
X53123100Y-65080200I-188100J0D01*
G01*
X52021900Y-65080200D01*
G75*
G02*
X51833800Y-64892100I0J188100D01*
G01*
G37*
G36*
G01*
X51833800Y-63942100D02*
X51833800Y-63565900D01*
G75*
G02*
X52021900Y-63377800I188100J0D01*
G01*
X53123100Y-63377800D01*
G75*
G02*
X53311200Y-63565900I0J-188100D01*
G01*
X53311200Y-63942100D01*
G75*
G02*
X53123100Y-64130200I-188100J0D01*
G01*
X52021900Y-64130200D01*
G75*
G02*
X51833800Y-63942100I0J188100D01*
G01*
G37*
G36*
G01*
X51833800Y-62992100D02*
X51833800Y-62615900D01*
G75*
G02*
X52021900Y-62427800I188100J0D01*
G01*
X53123100Y-62427800D01*
G75*
G02*
X53311200Y-62615900I0J-188100D01*
G01*
X53311200Y-62992100D01*
G75*
G02*
X53123100Y-63180200I-188100J0D01*
G01*
X52021900Y-63180200D01*
G75*
G02*
X51833800Y-62992100I0J188100D01*
G01*
G37*
G36*
G01*
X85846900Y-66672800D02*
X86873100Y-66672800D01*
G75*
G02*
X87161200Y-66960900I0J-288100D01*
G01*
X87161200Y-67537100D01*
G75*
G02*
X86873100Y-67825200I-288100J0D01*
G01*
X85846900Y-67825200D01*
G75*
G02*
X85558800Y-67537100I0J288100D01*
G01*
X85558800Y-66960900D01*
G75*
G02*
X85846900Y-66672800I288100J0D01*
G01*
G37*
G36*
G01*
X85846900Y-68572800D02*
X86873100Y-68572800D01*
G75*
G02*
X87161200Y-68860900I0J-288100D01*
G01*
X87161200Y-69437100D01*
G75*
G02*
X86873100Y-69725200I-288100J0D01*
G01*
X85846900Y-69725200D01*
G75*
G02*
X85558800Y-69437100I0J288100D01*
G01*
X85558800Y-68860900D01*
G75*
G02*
X85846900Y-68572800I288100J0D01*
G01*
G37*
G36*
G01*
X61473100Y-42772700D02*
X60446900Y-42772700D01*
G75*
G02*
X60158800Y-42484600I0J288100D01*
G01*
X60158800Y-41908400D01*
G75*
G02*
X60446900Y-41620300I288100J0D01*
G01*
X61473100Y-41620300D01*
G75*
G02*
X61761200Y-41908400I0J-288100D01*
G01*
X61761200Y-42484600D01*
G75*
G02*
X61473100Y-42772700I-288100J0D01*
G01*
G37*
G36*
G01*
X61473100Y-40872700D02*
X60446900Y-40872700D01*
G75*
G02*
X60158800Y-40584600I0J288100D01*
G01*
X60158800Y-40008400D01*
G75*
G02*
X60446900Y-39720300I288100J0D01*
G01*
X61473100Y-39720300D01*
G75*
G02*
X61761200Y-40008400I0J-288100D01*
G01*
X61761200Y-40584600D01*
G75*
G02*
X61473100Y-40872700I-288100J0D01*
G01*
G37*
G36*
G01*
X55013800Y-81388030D02*
X55013800Y-80409970D01*
G75*
G02*
X55300970Y-80122800I287170J0D01*
G01*
X55904030Y-80122800D01*
G75*
G02*
X56191200Y-80409970I0J-287170D01*
G01*
X56191200Y-81388030D01*
G75*
G02*
X55904030Y-81675200I-287170J0D01*
G01*
X55300970Y-81675200D01*
G75*
G02*
X55013800Y-81388030I0J287170D01*
G01*
G37*
G36*
G01*
X56838800Y-81388030D02*
X56838800Y-80409970D01*
G75*
G02*
X57125970Y-80122800I287170J0D01*
G01*
X57729030Y-80122800D01*
G75*
G02*
X58016200Y-80409970I0J-287170D01*
G01*
X58016200Y-81388030D01*
G75*
G02*
X57729030Y-81675200I-287170J0D01*
G01*
X57125970Y-81675200D01*
G75*
G02*
X56838800Y-81388030I0J287170D01*
G01*
G37*
G36*
G01*
X105184800Y-89976100D02*
X105184800Y-88649900D01*
G75*
G02*
X105372900Y-88461800I188100J0D01*
G01*
X105749100Y-88461800D01*
G75*
G02*
X105937200Y-88649900I0J-188100D01*
G01*
X105937200Y-89976100D01*
G75*
G02*
X105749100Y-90164200I-188100J0D01*
G01*
X105372900Y-90164200D01*
G75*
G02*
X105184800Y-89976100I0J188100D01*
G01*
G37*
G36*
G01*
X106184800Y-89976100D02*
X106184800Y-88649900D01*
G75*
G02*
X106372900Y-88461800I188100J0D01*
G01*
X106749100Y-88461800D01*
G75*
G02*
X106937200Y-88649900I0J-188100D01*
G01*
X106937200Y-89976100D01*
G75*
G02*
X106749100Y-90164200I-188100J0D01*
G01*
X106372900Y-90164200D01*
G75*
G02*
X106184800Y-89976100I0J188100D01*
G01*
G37*
G36*
G01*
X107184800Y-89976100D02*
X107184800Y-88649900D01*
G75*
G02*
X107372900Y-88461800I188100J0D01*
G01*
X107749100Y-88461800D01*
G75*
G02*
X107937200Y-88649900I0J-188100D01*
G01*
X107937200Y-89976100D01*
G75*
G02*
X107749100Y-90164200I-188100J0D01*
G01*
X107372900Y-90164200D01*
G75*
G02*
X107184800Y-89976100I0J188100D01*
G01*
G37*
G36*
G01*
X108184800Y-89976100D02*
X108184800Y-88649900D01*
G75*
G02*
X108372900Y-88461800I188100J0D01*
G01*
X108749100Y-88461800D01*
G75*
G02*
X108937200Y-88649900I0J-188100D01*
G01*
X108937200Y-89976100D01*
G75*
G02*
X108749100Y-90164200I-188100J0D01*
G01*
X108372900Y-90164200D01*
G75*
G02*
X108184800Y-89976100I0J188100D01*
G01*
G37*
G36*
G01*
X103584800Y-93882450D02*
X103584800Y-92493550D01*
G75*
G02*
X103866550Y-92211800I281750J0D01*
G01*
X104655450Y-92211800D01*
G75*
G02*
X104937200Y-92493550I0J-281750D01*
G01*
X104937200Y-93882450D01*
G75*
G02*
X104655450Y-94164200I-281750J0D01*
G01*
X103866550Y-94164200D01*
G75*
G02*
X103584800Y-93882450I0J281750D01*
G01*
G37*
G36*
G01*
X109184800Y-93882450D02*
X109184800Y-92493550D01*
G75*
G02*
X109466550Y-92211800I281750J0D01*
G01*
X110255450Y-92211800D01*
G75*
G02*
X110537200Y-92493550I0J-281750D01*
G01*
X110537200Y-93882450D01*
G75*
G02*
X110255450Y-94164200I-281750J0D01*
G01*
X109466550Y-94164200D01*
G75*
G02*
X109184800Y-93882450I0J281750D01*
G01*
G37*
G36*
G01*
X111765100Y-48389200D02*
X110738900Y-48389200D01*
G75*
G02*
X110450800Y-48101100I0J288100D01*
G01*
X110450800Y-47524900D01*
G75*
G02*
X110738900Y-47236800I288100J0D01*
G01*
X111765100Y-47236800D01*
G75*
G02*
X112053200Y-47524900I0J-288100D01*
G01*
X112053200Y-48101100D01*
G75*
G02*
X111765100Y-48389200I-288100J0D01*
G01*
G37*
G36*
G01*
X111765100Y-46489200D02*
X110738900Y-46489200D01*
G75*
G02*
X110450800Y-46201100I0J288100D01*
G01*
X110450800Y-45624900D01*
G75*
G02*
X110738900Y-45336800I288100J0D01*
G01*
X111765100Y-45336800D01*
G75*
G02*
X112053200Y-45624900I0J-288100D01*
G01*
X112053200Y-46201100D01*
G75*
G02*
X111765100Y-46489200I-288100J0D01*
G01*
G37*
G36*
G01*
X124243720Y-38734300D02*
X125221780Y-38734300D01*
G75*
G02*
X125508950Y-39021470I0J-287170D01*
G01*
X125508950Y-39624530D01*
G75*
G02*
X125221780Y-39911700I-287170J0D01*
G01*
X124243720Y-39911700D01*
G75*
G02*
X123956550Y-39624530I0J287170D01*
G01*
X123956550Y-39021470D01*
G75*
G02*
X124243720Y-38734300I287170J0D01*
G01*
G37*
G36*
G01*
X124243720Y-40559300D02*
X125221780Y-40559300D01*
G75*
G02*
X125508950Y-40846470I0J-287170D01*
G01*
X125508950Y-41449530D01*
G75*
G02*
X125221780Y-41736700I-287170J0D01*
G01*
X124243720Y-41736700D01*
G75*
G02*
X123956550Y-41449530I0J287170D01*
G01*
X123956550Y-40846470D01*
G75*
G02*
X124243720Y-40559300I287170J0D01*
G01*
G37*
G36*
G01*
X116731970Y-69745800D02*
X117710030Y-69745800D01*
G75*
G02*
X117997200Y-70032970I0J-287170D01*
G01*
X117997200Y-70636030D01*
G75*
G02*
X117710030Y-70923200I-287170J0D01*
G01*
X116731970Y-70923200D01*
G75*
G02*
X116444800Y-70636030I0J287170D01*
G01*
X116444800Y-70032970D01*
G75*
G02*
X116731970Y-69745800I287170J0D01*
G01*
G37*
G36*
G01*
X116731970Y-71570800D02*
X117710030Y-71570800D01*
G75*
G02*
X117997200Y-71857970I0J-287170D01*
G01*
X117997200Y-72461030D01*
G75*
G02*
X117710030Y-72748200I-287170J0D01*
G01*
X116731970Y-72748200D01*
G75*
G02*
X116444800Y-72461030I0J287170D01*
G01*
X116444800Y-71857970D01*
G75*
G02*
X116731970Y-71570800I287170J0D01*
G01*
G37*
G36*
G01*
X63137970Y-39745300D02*
X64116030Y-39745300D01*
G75*
G02*
X64403200Y-40032470I0J-287170D01*
G01*
X64403200Y-40635530D01*
G75*
G02*
X64116030Y-40922700I-287170J0D01*
G01*
X63137970Y-40922700D01*
G75*
G02*
X62850800Y-40635530I0J287170D01*
G01*
X62850800Y-40032470D01*
G75*
G02*
X63137970Y-39745300I287170J0D01*
G01*
G37*
G36*
G01*
X63137970Y-41570300D02*
X64116030Y-41570300D01*
G75*
G02*
X64403200Y-41857470I0J-287170D01*
G01*
X64403200Y-42460530D01*
G75*
G02*
X64116030Y-42747700I-287170J0D01*
G01*
X63137970Y-42747700D01*
G75*
G02*
X62850800Y-42460530I0J287170D01*
G01*
X62850800Y-41857470D01*
G75*
G02*
X63137970Y-41570300I287170J0D01*
G01*
G37*
X148082000Y-90932000D03*
G36*
G01*
X131086800Y-63105350D02*
X131086800Y-62116650D01*
G75*
G02*
X131368650Y-61834800I281850J0D01*
G01*
X131932350Y-61834800D01*
G75*
G02*
X132214200Y-62116650I0J-281850D01*
G01*
X132214200Y-63105350D01*
G75*
G02*
X131932350Y-63387200I-281850J0D01*
G01*
X131368650Y-63387200D01*
G75*
G02*
X131086800Y-63105350I0J281850D01*
G01*
G37*
G36*
G01*
X132961800Y-63105350D02*
X132961800Y-62116650D01*
G75*
G02*
X133243650Y-61834800I281850J0D01*
G01*
X133807350Y-61834800D01*
G75*
G02*
X134089200Y-62116650I0J-281850D01*
G01*
X134089200Y-63105350D01*
G75*
G02*
X133807350Y-63387200I-281850J0D01*
G01*
X133243650Y-63387200D01*
G75*
G02*
X132961800Y-63105350I0J281850D01*
G01*
G37*
G36*
G01*
X96919970Y-32638300D02*
X97898030Y-32638300D01*
G75*
G02*
X98185200Y-32925470I0J-287170D01*
G01*
X98185200Y-33528530D01*
G75*
G02*
X97898030Y-33815700I-287170J0D01*
G01*
X96919970Y-33815700D01*
G75*
G02*
X96632800Y-33528530I0J287170D01*
G01*
X96632800Y-32925470D01*
G75*
G02*
X96919970Y-32638300I287170J0D01*
G01*
G37*
G36*
G01*
X96919970Y-34463300D02*
X97898030Y-34463300D01*
G75*
G02*
X98185200Y-34750470I0J-287170D01*
G01*
X98185200Y-35353530D01*
G75*
G02*
X97898030Y-35640700I-287170J0D01*
G01*
X96919970Y-35640700D01*
G75*
G02*
X96632800Y-35353530I0J287170D01*
G01*
X96632800Y-34750470D01*
G75*
G02*
X96919970Y-34463300I287170J0D01*
G01*
G37*
G36*
G01*
X89625800Y-53274100D02*
X89625800Y-52897900D01*
G75*
G02*
X89813900Y-52709800I188100J0D01*
G01*
X91640100Y-52709800D01*
G75*
G02*
X91828200Y-52897900I0J-188100D01*
G01*
X91828200Y-53274100D01*
G75*
G02*
X91640100Y-53462200I-188100J0D01*
G01*
X89813900Y-53462200D01*
G75*
G02*
X89625800Y-53274100I0J188100D01*
G01*
G37*
G36*
G01*
X89625800Y-54544100D02*
X89625800Y-54167900D01*
G75*
G02*
X89813900Y-53979800I188100J0D01*
G01*
X91640100Y-53979800D01*
G75*
G02*
X91828200Y-54167900I0J-188100D01*
G01*
X91828200Y-54544100D01*
G75*
G02*
X91640100Y-54732200I-188100J0D01*
G01*
X89813900Y-54732200D01*
G75*
G02*
X89625800Y-54544100I0J188100D01*
G01*
G37*
G36*
G01*
X89625800Y-55814100D02*
X89625800Y-55437900D01*
G75*
G02*
X89813900Y-55249800I188100J0D01*
G01*
X91640100Y-55249800D01*
G75*
G02*
X91828200Y-55437900I0J-188100D01*
G01*
X91828200Y-55814100D01*
G75*
G02*
X91640100Y-56002200I-188100J0D01*
G01*
X89813900Y-56002200D01*
G75*
G02*
X89625800Y-55814100I0J188100D01*
G01*
G37*
G36*
G01*
X89625800Y-57084100D02*
X89625800Y-56707900D01*
G75*
G02*
X89813900Y-56519800I188100J0D01*
G01*
X91640100Y-56519800D01*
G75*
G02*
X91828200Y-56707900I0J-188100D01*
G01*
X91828200Y-57084100D01*
G75*
G02*
X91640100Y-57272200I-188100J0D01*
G01*
X89813900Y-57272200D01*
G75*
G02*
X89625800Y-57084100I0J188100D01*
G01*
G37*
G36*
G01*
X89625800Y-58354100D02*
X89625800Y-57977900D01*
G75*
G02*
X89813900Y-57789800I188100J0D01*
G01*
X91640100Y-57789800D01*
G75*
G02*
X91828200Y-57977900I0J-188100D01*
G01*
X91828200Y-58354100D01*
G75*
G02*
X91640100Y-58542200I-188100J0D01*
G01*
X89813900Y-58542200D01*
G75*
G02*
X89625800Y-58354100I0J188100D01*
G01*
G37*
G36*
G01*
X89625800Y-59624100D02*
X89625800Y-59247900D01*
G75*
G02*
X89813900Y-59059800I188100J0D01*
G01*
X91640100Y-59059800D01*
G75*
G02*
X91828200Y-59247900I0J-188100D01*
G01*
X91828200Y-59624100D01*
G75*
G02*
X91640100Y-59812200I-188100J0D01*
G01*
X89813900Y-59812200D01*
G75*
G02*
X89625800Y-59624100I0J188100D01*
G01*
G37*
G36*
G01*
X89625800Y-60894100D02*
X89625800Y-60517900D01*
G75*
G02*
X89813900Y-60329800I188100J0D01*
G01*
X91640100Y-60329800D01*
G75*
G02*
X91828200Y-60517900I0J-188100D01*
G01*
X91828200Y-60894100D01*
G75*
G02*
X91640100Y-61082200I-188100J0D01*
G01*
X89813900Y-61082200D01*
G75*
G02*
X89625800Y-60894100I0J188100D01*
G01*
G37*
G36*
G01*
X89625800Y-62164100D02*
X89625800Y-61787900D01*
G75*
G02*
X89813900Y-61599800I188100J0D01*
G01*
X91640100Y-61599800D01*
G75*
G02*
X91828200Y-61787900I0J-188100D01*
G01*
X91828200Y-62164100D01*
G75*
G02*
X91640100Y-62352200I-188100J0D01*
G01*
X89813900Y-62352200D01*
G75*
G02*
X89625800Y-62164100I0J188100D01*
G01*
G37*
G36*
G01*
X89625800Y-63434100D02*
X89625800Y-63057900D01*
G75*
G02*
X89813900Y-62869800I188100J0D01*
G01*
X91640100Y-62869800D01*
G75*
G02*
X91828200Y-63057900I0J-188100D01*
G01*
X91828200Y-63434100D01*
G75*
G02*
X91640100Y-63622200I-188100J0D01*
G01*
X89813900Y-63622200D01*
G75*
G02*
X89625800Y-63434100I0J188100D01*
G01*
G37*
G36*
G01*
X89625800Y-64704100D02*
X89625800Y-64327900D01*
G75*
G02*
X89813900Y-64139800I188100J0D01*
G01*
X91640100Y-64139800D01*
G75*
G02*
X91828200Y-64327900I0J-188100D01*
G01*
X91828200Y-64704100D01*
G75*
G02*
X91640100Y-64892200I-188100J0D01*
G01*
X89813900Y-64892200D01*
G75*
G02*
X89625800Y-64704100I0J188100D01*
G01*
G37*
G36*
G01*
X98925800Y-64704100D02*
X98925800Y-64327900D01*
G75*
G02*
X99113900Y-64139800I188100J0D01*
G01*
X100940100Y-64139800D01*
G75*
G02*
X101128200Y-64327900I0J-188100D01*
G01*
X101128200Y-64704100D01*
G75*
G02*
X100940100Y-64892200I-188100J0D01*
G01*
X99113900Y-64892200D01*
G75*
G02*
X98925800Y-64704100I0J188100D01*
G01*
G37*
G36*
G01*
X98925800Y-63434100D02*
X98925800Y-63057900D01*
G75*
G02*
X99113900Y-62869800I188100J0D01*
G01*
X100940100Y-62869800D01*
G75*
G02*
X101128200Y-63057900I0J-188100D01*
G01*
X101128200Y-63434100D01*
G75*
G02*
X100940100Y-63622200I-188100J0D01*
G01*
X99113900Y-63622200D01*
G75*
G02*
X98925800Y-63434100I0J188100D01*
G01*
G37*
G36*
G01*
X98925800Y-62164100D02*
X98925800Y-61787900D01*
G75*
G02*
X99113900Y-61599800I188100J0D01*
G01*
X100940100Y-61599800D01*
G75*
G02*
X101128200Y-61787900I0J-188100D01*
G01*
X101128200Y-62164100D01*
G75*
G02*
X100940100Y-62352200I-188100J0D01*
G01*
X99113900Y-62352200D01*
G75*
G02*
X98925800Y-62164100I0J188100D01*
G01*
G37*
G36*
G01*
X98925800Y-60894100D02*
X98925800Y-60517900D01*
G75*
G02*
X99113900Y-60329800I188100J0D01*
G01*
X100940100Y-60329800D01*
G75*
G02*
X101128200Y-60517900I0J-188100D01*
G01*
X101128200Y-60894100D01*
G75*
G02*
X100940100Y-61082200I-188100J0D01*
G01*
X99113900Y-61082200D01*
G75*
G02*
X98925800Y-60894100I0J188100D01*
G01*
G37*
G36*
G01*
X98925800Y-59624100D02*
X98925800Y-59247900D01*
G75*
G02*
X99113900Y-59059800I188100J0D01*
G01*
X100940100Y-59059800D01*
G75*
G02*
X101128200Y-59247900I0J-188100D01*
G01*
X101128200Y-59624100D01*
G75*
G02*
X100940100Y-59812200I-188100J0D01*
G01*
X99113900Y-59812200D01*
G75*
G02*
X98925800Y-59624100I0J188100D01*
G01*
G37*
G36*
G01*
X98925800Y-58354100D02*
X98925800Y-57977900D01*
G75*
G02*
X99113900Y-57789800I188100J0D01*
G01*
X100940100Y-57789800D01*
G75*
G02*
X101128200Y-57977900I0J-188100D01*
G01*
X101128200Y-58354100D01*
G75*
G02*
X100940100Y-58542200I-188100J0D01*
G01*
X99113900Y-58542200D01*
G75*
G02*
X98925800Y-58354100I0J188100D01*
G01*
G37*
G36*
G01*
X98925800Y-57084100D02*
X98925800Y-56707900D01*
G75*
G02*
X99113900Y-56519800I188100J0D01*
G01*
X100940100Y-56519800D01*
G75*
G02*
X101128200Y-56707900I0J-188100D01*
G01*
X101128200Y-57084100D01*
G75*
G02*
X100940100Y-57272200I-188100J0D01*
G01*
X99113900Y-57272200D01*
G75*
G02*
X98925800Y-57084100I0J188100D01*
G01*
G37*
G36*
G01*
X98925800Y-55814100D02*
X98925800Y-55437900D01*
G75*
G02*
X99113900Y-55249800I188100J0D01*
G01*
X100940100Y-55249800D01*
G75*
G02*
X101128200Y-55437900I0J-188100D01*
G01*
X101128200Y-55814100D01*
G75*
G02*
X100940100Y-56002200I-188100J0D01*
G01*
X99113900Y-56002200D01*
G75*
G02*
X98925800Y-55814100I0J188100D01*
G01*
G37*
G36*
G01*
X98925800Y-54544100D02*
X98925800Y-54167900D01*
G75*
G02*
X99113900Y-53979800I188100J0D01*
G01*
X100940100Y-53979800D01*
G75*
G02*
X101128200Y-54167900I0J-188100D01*
G01*
X101128200Y-54544100D01*
G75*
G02*
X100940100Y-54732200I-188100J0D01*
G01*
X99113900Y-54732200D01*
G75*
G02*
X98925800Y-54544100I0J188100D01*
G01*
G37*
G36*
G01*
X98925800Y-53274100D02*
X98925800Y-52897900D01*
G75*
G02*
X99113900Y-52709800I188100J0D01*
G01*
X100940100Y-52709800D01*
G75*
G02*
X101128200Y-52897900I0J-188100D01*
G01*
X101128200Y-53274100D01*
G75*
G02*
X100940100Y-53462200I-188100J0D01*
G01*
X99113900Y-53462200D01*
G75*
G02*
X98925800Y-53274100I0J188100D01*
G01*
G37*
G36*
G01*
X107634900Y-45384800D02*
X108011100Y-45384800D01*
G75*
G02*
X108199200Y-45572900I0J-188100D01*
G01*
X108199200Y-47249100D01*
G75*
G02*
X108011100Y-47437200I-188100J0D01*
G01*
X107634900Y-47437200D01*
G75*
G02*
X107446800Y-47249100I0J188100D01*
G01*
X107446800Y-45572900D01*
G75*
G02*
X107634900Y-45384800I188100J0D01*
G01*
G37*
G36*
G01*
X106364900Y-45384800D02*
X106741100Y-45384800D01*
G75*
G02*
X106929200Y-45572900I0J-188100D01*
G01*
X106929200Y-47249100D01*
G75*
G02*
X106741100Y-47437200I-188100J0D01*
G01*
X106364900Y-47437200D01*
G75*
G02*
X106176800Y-47249100I0J188100D01*
G01*
X106176800Y-45572900D01*
G75*
G02*
X106364900Y-45384800I188100J0D01*
G01*
G37*
G36*
G01*
X105094900Y-45384800D02*
X105471100Y-45384800D01*
G75*
G02*
X105659200Y-45572900I0J-188100D01*
G01*
X105659200Y-47249100D01*
G75*
G02*
X105471100Y-47437200I-188100J0D01*
G01*
X105094900Y-47437200D01*
G75*
G02*
X104906800Y-47249100I0J188100D01*
G01*
X104906800Y-45572900D01*
G75*
G02*
X105094900Y-45384800I188100J0D01*
G01*
G37*
G36*
G01*
X103824900Y-45384800D02*
X104201100Y-45384800D01*
G75*
G02*
X104389200Y-45572900I0J-188100D01*
G01*
X104389200Y-47249100D01*
G75*
G02*
X104201100Y-47437200I-188100J0D01*
G01*
X103824900Y-47437200D01*
G75*
G02*
X103636800Y-47249100I0J188100D01*
G01*
X103636800Y-45572900D01*
G75*
G02*
X103824900Y-45384800I188100J0D01*
G01*
G37*
G36*
G01*
X103824900Y-52384800D02*
X104201100Y-52384800D01*
G75*
G02*
X104389200Y-52572900I0J-188100D01*
G01*
X104389200Y-54249100D01*
G75*
G02*
X104201100Y-54437200I-188100J0D01*
G01*
X103824900Y-54437200D01*
G75*
G02*
X103636800Y-54249100I0J188100D01*
G01*
X103636800Y-52572900D01*
G75*
G02*
X103824900Y-52384800I188100J0D01*
G01*
G37*
G36*
G01*
X105094900Y-52384800D02*
X105471100Y-52384800D01*
G75*
G02*
X105659200Y-52572900I0J-188100D01*
G01*
X105659200Y-54249100D01*
G75*
G02*
X105471100Y-54437200I-188100J0D01*
G01*
X105094900Y-54437200D01*
G75*
G02*
X104906800Y-54249100I0J188100D01*
G01*
X104906800Y-52572900D01*
G75*
G02*
X105094900Y-52384800I188100J0D01*
G01*
G37*
G36*
G01*
X106364900Y-52384800D02*
X106741100Y-52384800D01*
G75*
G02*
X106929200Y-52572900I0J-188100D01*
G01*
X106929200Y-54249100D01*
G75*
G02*
X106741100Y-54437200I-188100J0D01*
G01*
X106364900Y-54437200D01*
G75*
G02*
X106176800Y-54249100I0J188100D01*
G01*
X106176800Y-52572900D01*
G75*
G02*
X106364900Y-52384800I188100J0D01*
G01*
G37*
G36*
G01*
X107634900Y-52384800D02*
X108011100Y-52384800D01*
G75*
G02*
X108199200Y-52572900I0J-188100D01*
G01*
X108199200Y-54249100D01*
G75*
G02*
X108011100Y-54437200I-188100J0D01*
G01*
X107634900Y-54437200D01*
G75*
G02*
X107446800Y-54249100I0J188100D01*
G01*
X107446800Y-52572900D01*
G75*
G02*
X107634900Y-52384800I188100J0D01*
G01*
G37*
G36*
G01*
X146834800Y-80504350D02*
X146834800Y-79515650D01*
G75*
G02*
X147116650Y-79233800I281850J0D01*
G01*
X147680350Y-79233800D01*
G75*
G02*
X147962200Y-79515650I0J-281850D01*
G01*
X147962200Y-80504350D01*
G75*
G02*
X147680350Y-80786200I-281850J0D01*
G01*
X147116650Y-80786200D01*
G75*
G02*
X146834800Y-80504350I0J281850D01*
G01*
G37*
G36*
G01*
X148709800Y-80504350D02*
X148709800Y-79515650D01*
G75*
G02*
X148991650Y-79233800I281850J0D01*
G01*
X149555350Y-79233800D01*
G75*
G02*
X149837200Y-79515650I0J-281850D01*
G01*
X149837200Y-80504350D01*
G75*
G02*
X149555350Y-80786200I-281850J0D01*
G01*
X148991650Y-80786200D01*
G75*
G02*
X148709800Y-80504350I0J281850D01*
G01*
G37*
G36*
G01*
X127785850Y-41761700D02*
X126759650Y-41761700D01*
G75*
G02*
X126471550Y-41473600I0J288100D01*
G01*
X126471550Y-40897400D01*
G75*
G02*
X126759650Y-40609300I288100J0D01*
G01*
X127785850Y-40609300D01*
G75*
G02*
X128073950Y-40897400I0J-288100D01*
G01*
X128073950Y-41473600D01*
G75*
G02*
X127785850Y-41761700I-288100J0D01*
G01*
G37*
G36*
G01*
X127785850Y-39861700D02*
X126759650Y-39861700D01*
G75*
G02*
X126471550Y-39573600I0J288100D01*
G01*
X126471550Y-38997400D01*
G75*
G02*
X126759650Y-38709300I288100J0D01*
G01*
X127785850Y-38709300D01*
G75*
G02*
X128073950Y-38997400I0J-288100D01*
G01*
X128073950Y-39573600D01*
G75*
G02*
X127785850Y-39861700I-288100J0D01*
G01*
G37*
G36*
G01*
X39773800Y-46336030D02*
X39773800Y-45357970D01*
G75*
G02*
X40060970Y-45070800I287170J0D01*
G01*
X40664030Y-45070800D01*
G75*
G02*
X40951200Y-45357970I0J-287170D01*
G01*
X40951200Y-46336030D01*
G75*
G02*
X40664030Y-46623200I-287170J0D01*
G01*
X40060970Y-46623200D01*
G75*
G02*
X39773800Y-46336030I0J287170D01*
G01*
G37*
G36*
G01*
X41598800Y-46336030D02*
X41598800Y-45357970D01*
G75*
G02*
X41885970Y-45070800I287170J0D01*
G01*
X42489030Y-45070800D01*
G75*
G02*
X42776200Y-45357970I0J-287170D01*
G01*
X42776200Y-46336030D01*
G75*
G02*
X42489030Y-46623200I-287170J0D01*
G01*
X41885970Y-46623200D01*
G75*
G02*
X41598800Y-46336030I0J287170D01*
G01*
G37*
G36*
G01*
X50264400Y-71658500D02*
X50264400Y-70632300D01*
G75*
G02*
X50552500Y-70344200I288100J0D01*
G01*
X51128700Y-70344200D01*
G75*
G02*
X51416800Y-70632300I0J-288100D01*
G01*
X51416800Y-71658500D01*
G75*
G02*
X51128700Y-71946600I-288100J0D01*
G01*
X50552500Y-71946600D01*
G75*
G02*
X50264400Y-71658500I0J288100D01*
G01*
G37*
G36*
G01*
X52164400Y-71658500D02*
X52164400Y-70632300D01*
G75*
G02*
X52452500Y-70344200I288100J0D01*
G01*
X53028700Y-70344200D01*
G75*
G02*
X53316800Y-70632300I0J-288100D01*
G01*
X53316800Y-71658500D01*
G75*
G02*
X53028700Y-71946600I-288100J0D01*
G01*
X52452500Y-71946600D01*
G75*
G02*
X52164400Y-71658500I0J288100D01*
G01*
G37*
G36*
G01*
X94620313Y-86918800D02*
X90937313Y-86918800D01*
G75*
G02*
X90861113Y-86842600I0J76200D01*
G01*
X90861113Y-85572600D01*
G75*
G02*
X90937313Y-85496400I76200J0D01*
G01*
X94620313Y-85496400D01*
G75*
G02*
X94696513Y-85572600I0J-76200D01*
G01*
X94696513Y-86842600D01*
G75*
G02*
X94620313Y-86918800I-76200J0D01*
G01*
G37*
G36*
G01*
X94620313Y-84378800D02*
X90937313Y-84378800D01*
G75*
G02*
X90861113Y-84302600I0J76200D01*
G01*
X90861113Y-83032600D01*
G75*
G02*
X90937313Y-82956400I76200J0D01*
G01*
X94620313Y-82956400D01*
G75*
G02*
X94696513Y-83032600I0J-76200D01*
G01*
X94696513Y-84302600D01*
G75*
G02*
X94620313Y-84378800I-76200J0D01*
G01*
G37*
G36*
G01*
X94620313Y-81838800D02*
X90937313Y-81838800D01*
G75*
G02*
X90861113Y-81762600I0J76200D01*
G01*
X90861113Y-80492600D01*
G75*
G02*
X90937313Y-80416400I76200J0D01*
G01*
X94620313Y-80416400D01*
G75*
G02*
X94696513Y-80492600I0J-76200D01*
G01*
X94696513Y-81762600D01*
G75*
G02*
X94620313Y-81838800I-76200J0D01*
G01*
G37*
G36*
G01*
X99060315Y-86918800D02*
X95377315Y-86918800D01*
G75*
G02*
X95301115Y-86842600I0J76200D01*
G01*
X95301115Y-85572600D01*
G75*
G02*
X95377315Y-85496400I76200J0D01*
G01*
X99060315Y-85496400D01*
G75*
G02*
X99136515Y-85572600I0J-76200D01*
G01*
X99136515Y-86842600D01*
G75*
G02*
X99060315Y-86918800I-76200J0D01*
G01*
G37*
G36*
G01*
X99060315Y-84378800D02*
X95377315Y-84378800D01*
G75*
G02*
X95301115Y-84302600I0J76200D01*
G01*
X95301115Y-83032600D01*
G75*
G02*
X95377315Y-82956400I76200J0D01*
G01*
X99060315Y-82956400D01*
G75*
G02*
X99136515Y-83032600I0J-76200D01*
G01*
X99136515Y-84302600D01*
G75*
G02*
X99060315Y-84378800I-76200J0D01*
G01*
G37*
G36*
G01*
X99060315Y-81838800D02*
X95377315Y-81838800D01*
G75*
G02*
X95301115Y-81762600I0J76200D01*
G01*
X95301115Y-80492600D01*
G75*
G02*
X95377315Y-80416400I76200J0D01*
G01*
X99060315Y-80416400D01*
G75*
G02*
X99136515Y-80492600I0J-76200D01*
G01*
X99136515Y-81762600D01*
G75*
G02*
X99060315Y-81838800I-76200J0D01*
G01*
G37*
G36*
G01*
X131086800Y-73265350D02*
X131086800Y-72276650D01*
G75*
G02*
X131368650Y-71994800I281850J0D01*
G01*
X131932350Y-71994800D01*
G75*
G02*
X132214200Y-72276650I0J-281850D01*
G01*
X132214200Y-73265350D01*
G75*
G02*
X131932350Y-73547200I-281850J0D01*
G01*
X131368650Y-73547200D01*
G75*
G02*
X131086800Y-73265350I0J281850D01*
G01*
G37*
G36*
G01*
X132961800Y-73265350D02*
X132961800Y-72276650D01*
G75*
G02*
X133243650Y-71994800I281850J0D01*
G01*
X133807350Y-71994800D01*
G75*
G02*
X134089200Y-72276650I0J-281850D01*
G01*
X134089200Y-73265350D01*
G75*
G02*
X133807350Y-73547200I-281850J0D01*
G01*
X133243650Y-73547200D01*
G75*
G02*
X132961800Y-73265350I0J281850D01*
G01*
G37*
G36*
G01*
X78229800Y-73665100D02*
X78229800Y-72638900D01*
G75*
G02*
X78517900Y-72350800I288100J0D01*
G01*
X79094100Y-72350800D01*
G75*
G02*
X79382200Y-72638900I0J-288100D01*
G01*
X79382200Y-73665100D01*
G75*
G02*
X79094100Y-73953200I-288100J0D01*
G01*
X78517900Y-73953200D01*
G75*
G02*
X78229800Y-73665100I0J288100D01*
G01*
G37*
G36*
G01*
X80129800Y-73665100D02*
X80129800Y-72638900D01*
G75*
G02*
X80417900Y-72350800I288100J0D01*
G01*
X80994100Y-72350800D01*
G75*
G02*
X81282200Y-72638900I0J-288100D01*
G01*
X81282200Y-73665100D01*
G75*
G02*
X80994100Y-73953200I-288100J0D01*
G01*
X80417900Y-73953200D01*
G75*
G02*
X80129800Y-73665100I0J288100D01*
G01*
G37*
G36*
G01*
X138325800Y-80504350D02*
X138325800Y-79515650D01*
G75*
G02*
X138607650Y-79233800I281850J0D01*
G01*
X139171350Y-79233800D01*
G75*
G02*
X139453200Y-79515650I0J-281850D01*
G01*
X139453200Y-80504350D01*
G75*
G02*
X139171350Y-80786200I-281850J0D01*
G01*
X138607650Y-80786200D01*
G75*
G02*
X138325800Y-80504350I0J281850D01*
G01*
G37*
G36*
G01*
X140200800Y-80504350D02*
X140200800Y-79515650D01*
G75*
G02*
X140482650Y-79233800I281850J0D01*
G01*
X141046350Y-79233800D01*
G75*
G02*
X141328200Y-79515650I0J-281850D01*
G01*
X141328200Y-80504350D01*
G75*
G02*
X141046350Y-80786200I-281850J0D01*
G01*
X140482650Y-80786200D01*
G75*
G02*
X140200800Y-80504350I0J281850D01*
G01*
G37*
G36*
G01*
X119017970Y-69745800D02*
X119996030Y-69745800D01*
G75*
G02*
X120283200Y-70032970I0J-287170D01*
G01*
X120283200Y-70636030D01*
G75*
G02*
X119996030Y-70923200I-287170J0D01*
G01*
X119017970Y-70923200D01*
G75*
G02*
X118730800Y-70636030I0J287170D01*
G01*
X118730800Y-70032970D01*
G75*
G02*
X119017970Y-69745800I287170J0D01*
G01*
G37*
G36*
G01*
X119017970Y-71570800D02*
X119996030Y-71570800D01*
G75*
G02*
X120283200Y-71857970I0J-287170D01*
G01*
X120283200Y-72461030D01*
G75*
G02*
X119996030Y-72748200I-287170J0D01*
G01*
X119017970Y-72748200D01*
G75*
G02*
X118730800Y-72461030I0J287170D01*
G01*
X118730800Y-71857970D01*
G75*
G02*
X119017970Y-71570800I287170J0D01*
G01*
G37*
G36*
G01*
X120541900Y-43128300D02*
X120818100Y-43128300D01*
G75*
G02*
X120956200Y-43266400I0J-138100D01*
G01*
X120956200Y-44617600D01*
G75*
G02*
X120818100Y-44755700I-138100J0D01*
G01*
X120541900Y-44755700D01*
G75*
G02*
X120403800Y-44617600I0J138100D01*
G01*
X120403800Y-43266400D01*
G75*
G02*
X120541900Y-43128300I138100J0D01*
G01*
G37*
G36*
G01*
X119891900Y-43128300D02*
X120168100Y-43128300D01*
G75*
G02*
X120306200Y-43266400I0J-138100D01*
G01*
X120306200Y-44617600D01*
G75*
G02*
X120168100Y-44755700I-138100J0D01*
G01*
X119891900Y-44755700D01*
G75*
G02*
X119753800Y-44617600I0J138100D01*
G01*
X119753800Y-43266400D01*
G75*
G02*
X119891900Y-43128300I138100J0D01*
G01*
G37*
G36*
G01*
X119241900Y-43128300D02*
X119518100Y-43128300D01*
G75*
G02*
X119656200Y-43266400I0J-138100D01*
G01*
X119656200Y-44617600D01*
G75*
G02*
X119518100Y-44755700I-138100J0D01*
G01*
X119241900Y-44755700D01*
G75*
G02*
X119103800Y-44617600I0J138100D01*
G01*
X119103800Y-43266400D01*
G75*
G02*
X119241900Y-43128300I138100J0D01*
G01*
G37*
G36*
G01*
X118591900Y-43128300D02*
X118868100Y-43128300D01*
G75*
G02*
X119006200Y-43266400I0J-138100D01*
G01*
X119006200Y-44617600D01*
G75*
G02*
X118868100Y-44755700I-138100J0D01*
G01*
X118591900Y-44755700D01*
G75*
G02*
X118453800Y-44617600I0J138100D01*
G01*
X118453800Y-43266400D01*
G75*
G02*
X118591900Y-43128300I138100J0D01*
G01*
G37*
G36*
G01*
X117941900Y-43128300D02*
X118218100Y-43128300D01*
G75*
G02*
X118356200Y-43266400I0J-138100D01*
G01*
X118356200Y-44617600D01*
G75*
G02*
X118218100Y-44755700I-138100J0D01*
G01*
X117941900Y-44755700D01*
G75*
G02*
X117803800Y-44617600I0J138100D01*
G01*
X117803800Y-43266400D01*
G75*
G02*
X117941900Y-43128300I138100J0D01*
G01*
G37*
G36*
G01*
X117291900Y-43128300D02*
X117568100Y-43128300D01*
G75*
G02*
X117706200Y-43266400I0J-138100D01*
G01*
X117706200Y-44617600D01*
G75*
G02*
X117568100Y-44755700I-138100J0D01*
G01*
X117291900Y-44755700D01*
G75*
G02*
X117153800Y-44617600I0J138100D01*
G01*
X117153800Y-43266400D01*
G75*
G02*
X117291900Y-43128300I138100J0D01*
G01*
G37*
G36*
G01*
X116641900Y-43128300D02*
X116918100Y-43128300D01*
G75*
G02*
X117056200Y-43266400I0J-138100D01*
G01*
X117056200Y-44617600D01*
G75*
G02*
X116918100Y-44755700I-138100J0D01*
G01*
X116641900Y-44755700D01*
G75*
G02*
X116503800Y-44617600I0J138100D01*
G01*
X116503800Y-43266400D01*
G75*
G02*
X116641900Y-43128300I138100J0D01*
G01*
G37*
G36*
G01*
X115991900Y-43128300D02*
X116268100Y-43128300D01*
G75*
G02*
X116406200Y-43266400I0J-138100D01*
G01*
X116406200Y-44617600D01*
G75*
G02*
X116268100Y-44755700I-138100J0D01*
G01*
X115991900Y-44755700D01*
G75*
G02*
X115853800Y-44617600I0J138100D01*
G01*
X115853800Y-43266400D01*
G75*
G02*
X115991900Y-43128300I138100J0D01*
G01*
G37*
G36*
G01*
X115341900Y-43128300D02*
X115618100Y-43128300D01*
G75*
G02*
X115756200Y-43266400I0J-138100D01*
G01*
X115756200Y-44617600D01*
G75*
G02*
X115618100Y-44755700I-138100J0D01*
G01*
X115341900Y-44755700D01*
G75*
G02*
X115203800Y-44617600I0J138100D01*
G01*
X115203800Y-43266400D01*
G75*
G02*
X115341900Y-43128300I138100J0D01*
G01*
G37*
G36*
G01*
X114691900Y-43128300D02*
X114968100Y-43128300D01*
G75*
G02*
X115106200Y-43266400I0J-138100D01*
G01*
X115106200Y-44617600D01*
G75*
G02*
X114968100Y-44755700I-138100J0D01*
G01*
X114691900Y-44755700D01*
G75*
G02*
X114553800Y-44617600I0J138100D01*
G01*
X114553800Y-43266400D01*
G75*
G02*
X114691900Y-43128300I138100J0D01*
G01*
G37*
G36*
G01*
X114041900Y-43128300D02*
X114318100Y-43128300D01*
G75*
G02*
X114456200Y-43266400I0J-138100D01*
G01*
X114456200Y-44617600D01*
G75*
G02*
X114318100Y-44755700I-138100J0D01*
G01*
X114041900Y-44755700D01*
G75*
G02*
X113903800Y-44617600I0J138100D01*
G01*
X113903800Y-43266400D01*
G75*
G02*
X114041900Y-43128300I138100J0D01*
G01*
G37*
G36*
G01*
X113391900Y-43128300D02*
X113668100Y-43128300D01*
G75*
G02*
X113806200Y-43266400I0J-138100D01*
G01*
X113806200Y-44617600D01*
G75*
G02*
X113668100Y-44755700I-138100J0D01*
G01*
X113391900Y-44755700D01*
G75*
G02*
X113253800Y-44617600I0J138100D01*
G01*
X113253800Y-43266400D01*
G75*
G02*
X113391900Y-43128300I138100J0D01*
G01*
G37*
G36*
G01*
X113391900Y-48853300D02*
X113668100Y-48853300D01*
G75*
G02*
X113806200Y-48991400I0J-138100D01*
G01*
X113806200Y-50342600D01*
G75*
G02*
X113668100Y-50480700I-138100J0D01*
G01*
X113391900Y-50480700D01*
G75*
G02*
X113253800Y-50342600I0J138100D01*
G01*
X113253800Y-48991400D01*
G75*
G02*
X113391900Y-48853300I138100J0D01*
G01*
G37*
G36*
G01*
X114041900Y-48853300D02*
X114318100Y-48853300D01*
G75*
G02*
X114456200Y-48991400I0J-138100D01*
G01*
X114456200Y-50342600D01*
G75*
G02*
X114318100Y-50480700I-138100J0D01*
G01*
X114041900Y-50480700D01*
G75*
G02*
X113903800Y-50342600I0J138100D01*
G01*
X113903800Y-48991400D01*
G75*
G02*
X114041900Y-48853300I138100J0D01*
G01*
G37*
G36*
G01*
X114691900Y-48853300D02*
X114968100Y-48853300D01*
G75*
G02*
X115106200Y-48991400I0J-138100D01*
G01*
X115106200Y-50342600D01*
G75*
G02*
X114968100Y-50480700I-138100J0D01*
G01*
X114691900Y-50480700D01*
G75*
G02*
X114553800Y-50342600I0J138100D01*
G01*
X114553800Y-48991400D01*
G75*
G02*
X114691900Y-48853300I138100J0D01*
G01*
G37*
G36*
G01*
X115341900Y-48853300D02*
X115618100Y-48853300D01*
G75*
G02*
X115756200Y-48991400I0J-138100D01*
G01*
X115756200Y-50342600D01*
G75*
G02*
X115618100Y-50480700I-138100J0D01*
G01*
X115341900Y-50480700D01*
G75*
G02*
X115203800Y-50342600I0J138100D01*
G01*
X115203800Y-48991400D01*
G75*
G02*
X115341900Y-48853300I138100J0D01*
G01*
G37*
G36*
G01*
X115991900Y-48853300D02*
X116268100Y-48853300D01*
G75*
G02*
X116406200Y-48991400I0J-138100D01*
G01*
X116406200Y-50342600D01*
G75*
G02*
X116268100Y-50480700I-138100J0D01*
G01*
X115991900Y-50480700D01*
G75*
G02*
X115853800Y-50342600I0J138100D01*
G01*
X115853800Y-48991400D01*
G75*
G02*
X115991900Y-48853300I138100J0D01*
G01*
G37*
G36*
G01*
X116641900Y-48853300D02*
X116918100Y-48853300D01*
G75*
G02*
X117056200Y-48991400I0J-138100D01*
G01*
X117056200Y-50342600D01*
G75*
G02*
X116918100Y-50480700I-138100J0D01*
G01*
X116641900Y-50480700D01*
G75*
G02*
X116503800Y-50342600I0J138100D01*
G01*
X116503800Y-48991400D01*
G75*
G02*
X116641900Y-48853300I138100J0D01*
G01*
G37*
G36*
G01*
X117291900Y-48853300D02*
X117568100Y-48853300D01*
G75*
G02*
X117706200Y-48991400I0J-138100D01*
G01*
X117706200Y-50342600D01*
G75*
G02*
X117568100Y-50480700I-138100J0D01*
G01*
X117291900Y-50480700D01*
G75*
G02*
X117153800Y-50342600I0J138100D01*
G01*
X117153800Y-48991400D01*
G75*
G02*
X117291900Y-48853300I138100J0D01*
G01*
G37*
G36*
G01*
X117941900Y-48853300D02*
X118218100Y-48853300D01*
G75*
G02*
X118356200Y-48991400I0J-138100D01*
G01*
X118356200Y-50342600D01*
G75*
G02*
X118218100Y-50480700I-138100J0D01*
G01*
X117941900Y-50480700D01*
G75*
G02*
X117803800Y-50342600I0J138100D01*
G01*
X117803800Y-48991400D01*
G75*
G02*
X117941900Y-48853300I138100J0D01*
G01*
G37*
G36*
G01*
X118591900Y-48853300D02*
X118868100Y-48853300D01*
G75*
G02*
X119006200Y-48991400I0J-138100D01*
G01*
X119006200Y-50342600D01*
G75*
G02*
X118868100Y-50480700I-138100J0D01*
G01*
X118591900Y-50480700D01*
G75*
G02*
X118453800Y-50342600I0J138100D01*
G01*
X118453800Y-48991400D01*
G75*
G02*
X118591900Y-48853300I138100J0D01*
G01*
G37*
G36*
G01*
X119241900Y-48853300D02*
X119518100Y-48853300D01*
G75*
G02*
X119656200Y-48991400I0J-138100D01*
G01*
X119656200Y-50342600D01*
G75*
G02*
X119518100Y-50480700I-138100J0D01*
G01*
X119241900Y-50480700D01*
G75*
G02*
X119103800Y-50342600I0J138100D01*
G01*
X119103800Y-48991400D01*
G75*
G02*
X119241900Y-48853300I138100J0D01*
G01*
G37*
G36*
G01*
X119891900Y-48853300D02*
X120168100Y-48853300D01*
G75*
G02*
X120306200Y-48991400I0J-138100D01*
G01*
X120306200Y-50342600D01*
G75*
G02*
X120168100Y-50480700I-138100J0D01*
G01*
X119891900Y-50480700D01*
G75*
G02*
X119753800Y-50342600I0J138100D01*
G01*
X119753800Y-48991400D01*
G75*
G02*
X119891900Y-48853300I138100J0D01*
G01*
G37*
G36*
G01*
X120541900Y-48853300D02*
X120818100Y-48853300D01*
G75*
G02*
X120956200Y-48991400I0J-138100D01*
G01*
X120956200Y-50342600D01*
G75*
G02*
X120818100Y-50480700I-138100J0D01*
G01*
X120541900Y-50480700D01*
G75*
G02*
X120403800Y-50342600I0J138100D01*
G01*
X120403800Y-48991400D01*
G75*
G02*
X120541900Y-48853300I138100J0D01*
G01*
G37*
G36*
G01*
X131086800Y-60565350D02*
X131086800Y-59576650D01*
G75*
G02*
X131368650Y-59294800I281850J0D01*
G01*
X131932350Y-59294800D01*
G75*
G02*
X132214200Y-59576650I0J-281850D01*
G01*
X132214200Y-60565350D01*
G75*
G02*
X131932350Y-60847200I-281850J0D01*
G01*
X131368650Y-60847200D01*
G75*
G02*
X131086800Y-60565350I0J281850D01*
G01*
G37*
G36*
G01*
X132961800Y-60565350D02*
X132961800Y-59576650D01*
G75*
G02*
X133243650Y-59294800I281850J0D01*
G01*
X133807350Y-59294800D01*
G75*
G02*
X134089200Y-59576650I0J-281850D01*
G01*
X134089200Y-60565350D01*
G75*
G02*
X133807350Y-60847200I-281850J0D01*
G01*
X133243650Y-60847200D01*
G75*
G02*
X132961800Y-60565350I0J281850D01*
G01*
G37*
D12*
X53695600Y-75463400D03*
G36*
G01*
X57740600Y-77118400D02*
X57740600Y-77618400D01*
G75*
G02*
X57670600Y-77688400I-70000J0D01*
G01*
X55470600Y-77688400D01*
G75*
G02*
X55400600Y-77618400I0J70000D01*
G01*
X55400600Y-77118400D01*
G75*
G02*
X55470600Y-77048400I70000J0D01*
G01*
X57670600Y-77048400D01*
G75*
G02*
X57740600Y-77118400I0J-70000D01*
G01*
G37*
G36*
G01*
X57740600Y-75848400D02*
X57740600Y-76348400D01*
G75*
G02*
X57670600Y-76418400I-70000J0D01*
G01*
X55470600Y-76418400D01*
G75*
G02*
X55400600Y-76348400I0J70000D01*
G01*
X55400600Y-75848400D01*
G75*
G02*
X55470600Y-75778400I70000J0D01*
G01*
X57670600Y-75778400D01*
G75*
G02*
X57740600Y-75848400I0J-70000D01*
G01*
G37*
G36*
G01*
X57740600Y-74578400D02*
X57740600Y-75078400D01*
G75*
G02*
X57670600Y-75148400I-70000J0D01*
G01*
X55470600Y-75148400D01*
G75*
G02*
X55400600Y-75078400I0J70000D01*
G01*
X55400600Y-74578400D01*
G75*
G02*
X55470600Y-74508400I70000J0D01*
G01*
X57670600Y-74508400D01*
G75*
G02*
X57740600Y-74578400I0J-70000D01*
G01*
G37*
G36*
G01*
X57740600Y-73308400D02*
X57740600Y-73808400D01*
G75*
G02*
X57670600Y-73878400I-70000J0D01*
G01*
X55470600Y-73878400D01*
G75*
G02*
X55400600Y-73808400I0J70000D01*
G01*
X55400600Y-73308400D01*
G75*
G02*
X55470600Y-73238400I70000J0D01*
G01*
X57670600Y-73238400D01*
G75*
G02*
X57740600Y-73308400I0J-70000D01*
G01*
G37*
G36*
G01*
X51990600Y-73308400D02*
X51990600Y-73808400D01*
G75*
G02*
X51920600Y-73878400I-70000J0D01*
G01*
X49720600Y-73878400D01*
G75*
G02*
X49650600Y-73808400I0J70000D01*
G01*
X49650600Y-73308400D01*
G75*
G02*
X49720600Y-73238400I70000J0D01*
G01*
X51920600Y-73238400D01*
G75*
G02*
X51990600Y-73308400I0J-70000D01*
G01*
G37*
G36*
G01*
X51990600Y-74578400D02*
X51990600Y-75078400D01*
G75*
G02*
X51920600Y-75148400I-70000J0D01*
G01*
X49720600Y-75148400D01*
G75*
G02*
X49650600Y-75078400I0J70000D01*
G01*
X49650600Y-74578400D01*
G75*
G02*
X49720600Y-74508400I70000J0D01*
G01*
X51920600Y-74508400D01*
G75*
G02*
X51990600Y-74578400I0J-70000D01*
G01*
G37*
G36*
G01*
X51990600Y-75848400D02*
X51990600Y-76348400D01*
G75*
G02*
X51920600Y-76418400I-70000J0D01*
G01*
X49720600Y-76418400D01*
G75*
G02*
X49650600Y-76348400I0J70000D01*
G01*
X49650600Y-75848400D01*
G75*
G02*
X49720600Y-75778400I70000J0D01*
G01*
X51920600Y-75778400D01*
G75*
G02*
X51990600Y-75848400I0J-70000D01*
G01*
G37*
G36*
G01*
X51990600Y-77118400D02*
X51990600Y-77618400D01*
G75*
G02*
X51920600Y-77688400I-70000J0D01*
G01*
X49720600Y-77688400D01*
G75*
G02*
X49650600Y-77618400I0J70000D01*
G01*
X49650600Y-77118400D01*
G75*
G02*
X49720600Y-77048400I70000J0D01*
G01*
X51920600Y-77048400D01*
G75*
G02*
X51990600Y-77118400I0J-70000D01*
G01*
G37*
D13*
X54345600Y-76763400D03*
X54345600Y-75463400D03*
X54345600Y-74163400D03*
X53045600Y-76763400D03*
X53045600Y-75463400D03*
X53045600Y-74163400D03*
G36*
G01*
X62152200Y-88284560D02*
X62152200Y-86162640D01*
G75*
G02*
X62417440Y-85897400I265240J0D01*
G01*
X64539360Y-85897400D01*
G75*
G02*
X64804600Y-86162640I0J-265240D01*
G01*
X64804600Y-88284560D01*
G75*
G02*
X64539360Y-88549800I-265240J0D01*
G01*
X62417440Y-88549800D01*
G75*
G02*
X62152200Y-88284560I0J265240D01*
G01*
G37*
D11*
X68478400Y-87223600D03*
G36*
G01*
X119535186Y-75104400D02*
X119535186Y-76371600D01*
G75*
G02*
X119376786Y-76530000I-158400J0D01*
G01*
X117389586Y-76530000D01*
G75*
G02*
X117231186Y-76371600I0J158400D01*
G01*
X117231186Y-75104400D01*
G75*
G02*
X117389586Y-74946000I158400J0D01*
G01*
X119376786Y-74946000D01*
G75*
G02*
X119535186Y-75104400I0J-158400D01*
G01*
G37*
G36*
G01*
X128635186Y-75104400D02*
X128635186Y-76371600D01*
G75*
G02*
X128476786Y-76530000I-158400J0D01*
G01*
X126489586Y-76530000D01*
G75*
G02*
X126331186Y-76371600I0J158400D01*
G01*
X126331186Y-75104400D01*
G75*
G02*
X126489586Y-74946000I158400J0D01*
G01*
X128476786Y-74946000D01*
G75*
G02*
X128635186Y-75104400I0J-158400D01*
G01*
G37*
G36*
G01*
X119535186Y-79584400D02*
X119535186Y-80851600D01*
G75*
G02*
X119376786Y-81010000I-158400J0D01*
G01*
X117389586Y-81010000D01*
G75*
G02*
X117231186Y-80851600I0J158400D01*
G01*
X117231186Y-79584400D01*
G75*
G02*
X117389586Y-79426000I158400J0D01*
G01*
X119376786Y-79426000D01*
G75*
G02*
X119535186Y-79584400I0J-158400D01*
G01*
G37*
G36*
G01*
X128635186Y-79584400D02*
X128635186Y-80851600D01*
G75*
G02*
X128476786Y-81010000I-158400J0D01*
G01*
X126489586Y-81010000D01*
G75*
G02*
X126331186Y-80851600I0J158400D01*
G01*
X126331186Y-79584400D01*
G75*
G02*
X126489586Y-79426000I158400J0D01*
G01*
X128476786Y-79426000D01*
G75*
G02*
X128635186Y-79584400I0J-158400D01*
G01*
G37*
G36*
G01*
X131086800Y-68185350D02*
X131086800Y-67196650D01*
G75*
G02*
X131368650Y-66914800I281850J0D01*
G01*
X131932350Y-66914800D01*
G75*
G02*
X132214200Y-67196650I0J-281850D01*
G01*
X132214200Y-68185350D01*
G75*
G02*
X131932350Y-68467200I-281850J0D01*
G01*
X131368650Y-68467200D01*
G75*
G02*
X131086800Y-68185350I0J281850D01*
G01*
G37*
G36*
G01*
X132961800Y-68185350D02*
X132961800Y-67196650D01*
G75*
G02*
X133243650Y-66914800I281850J0D01*
G01*
X133807350Y-66914800D01*
G75*
G02*
X134089200Y-67196650I0J-281850D01*
G01*
X134089200Y-68185350D01*
G75*
G02*
X133807350Y-68467200I-281850J0D01*
G01*
X133243650Y-68467200D01*
G75*
G02*
X132961800Y-68185350I0J281850D01*
G01*
G37*
G36*
G01*
X135277800Y-47733030D02*
X135277800Y-46754970D01*
G75*
G02*
X135564970Y-46467800I287170J0D01*
G01*
X136168030Y-46467800D01*
G75*
G02*
X136455200Y-46754970I0J-287170D01*
G01*
X136455200Y-47733030D01*
G75*
G02*
X136168030Y-48020200I-287170J0D01*
G01*
X135564970Y-48020200D01*
G75*
G02*
X135277800Y-47733030I0J287170D01*
G01*
G37*
G36*
G01*
X137102800Y-47733030D02*
X137102800Y-46754970D01*
G75*
G02*
X137389970Y-46467800I287170J0D01*
G01*
X137993030Y-46467800D01*
G75*
G02*
X138280200Y-46754970I0J-287170D01*
G01*
X138280200Y-47733030D01*
G75*
G02*
X137993030Y-48020200I-287170J0D01*
G01*
X137389970Y-48020200D01*
G75*
G02*
X137102800Y-47733030I0J287170D01*
G01*
G37*
G36*
G01*
X79761100Y-42735200D02*
X78734900Y-42735200D01*
G75*
G02*
X78446800Y-42447100I0J288100D01*
G01*
X78446800Y-41870900D01*
G75*
G02*
X78734900Y-41582800I288100J0D01*
G01*
X79761100Y-41582800D01*
G75*
G02*
X80049200Y-41870900I0J-288100D01*
G01*
X80049200Y-42447100D01*
G75*
G02*
X79761100Y-42735200I-288100J0D01*
G01*
G37*
G36*
G01*
X79761100Y-40835200D02*
X78734900Y-40835200D01*
G75*
G02*
X78446800Y-40547100I0J288100D01*
G01*
X78446800Y-39970900D01*
G75*
G02*
X78734900Y-39682800I288100J0D01*
G01*
X79761100Y-39682800D01*
G75*
G02*
X80049200Y-39970900I0J-288100D01*
G01*
X80049200Y-40547100D01*
G75*
G02*
X79761100Y-40835200I-288100J0D01*
G01*
G37*
G36*
G01*
X129534900Y-86484800D02*
X130561100Y-86484800D01*
G75*
G02*
X130849200Y-86772900I0J-288100D01*
G01*
X130849200Y-87349100D01*
G75*
G02*
X130561100Y-87637200I-288100J0D01*
G01*
X129534900Y-87637200D01*
G75*
G02*
X129246800Y-87349100I0J288100D01*
G01*
X129246800Y-86772900D01*
G75*
G02*
X129534900Y-86484800I288100J0D01*
G01*
G37*
G36*
G01*
X129534900Y-88384800D02*
X130561100Y-88384800D01*
G75*
G02*
X130849200Y-88672900I0J-288100D01*
G01*
X130849200Y-89249100D01*
G75*
G02*
X130561100Y-89537200I-288100J0D01*
G01*
X129534900Y-89537200D01*
G75*
G02*
X129246800Y-89249100I0J288100D01*
G01*
X129246800Y-88672900D01*
G75*
G02*
X129534900Y-88384800I288100J0D01*
G01*
G37*
G36*
G01*
X65677970Y-39707800D02*
X66656030Y-39707800D01*
G75*
G02*
X66943200Y-39994970I0J-287170D01*
G01*
X66943200Y-40598030D01*
G75*
G02*
X66656030Y-40885200I-287170J0D01*
G01*
X65677970Y-40885200D01*
G75*
G02*
X65390800Y-40598030I0J287170D01*
G01*
X65390800Y-39994970D01*
G75*
G02*
X65677970Y-39707800I287170J0D01*
G01*
G37*
G36*
G01*
X65677970Y-41532800D02*
X66656030Y-41532800D01*
G75*
G02*
X66943200Y-41819970I0J-287170D01*
G01*
X66943200Y-42423030D01*
G75*
G02*
X66656030Y-42710200I-287170J0D01*
G01*
X65677970Y-42710200D01*
G75*
G02*
X65390800Y-42423030I0J287170D01*
G01*
X65390800Y-41819970D01*
G75*
G02*
X65677970Y-41532800I287170J0D01*
G01*
G37*
G36*
G01*
X125752800Y-46844030D02*
X125752800Y-45865970D01*
G75*
G02*
X126039970Y-45578800I287170J0D01*
G01*
X126643030Y-45578800D01*
G75*
G02*
X126930200Y-45865970I0J-287170D01*
G01*
X126930200Y-46844030D01*
G75*
G02*
X126643030Y-47131200I-287170J0D01*
G01*
X126039970Y-47131200D01*
G75*
G02*
X125752800Y-46844030I0J287170D01*
G01*
G37*
G36*
G01*
X127577800Y-46844030D02*
X127577800Y-45865970D01*
G75*
G02*
X127864970Y-45578800I287170J0D01*
G01*
X128468030Y-45578800D01*
G75*
G02*
X128755200Y-45865970I0J-287170D01*
G01*
X128755200Y-46844030D01*
G75*
G02*
X128468030Y-47131200I-287170J0D01*
G01*
X127864970Y-47131200D01*
G75*
G02*
X127577800Y-46844030I0J287170D01*
G01*
G37*
G36*
G01*
X131086800Y-58025350D02*
X131086800Y-57036650D01*
G75*
G02*
X131368650Y-56754800I281850J0D01*
G01*
X131932350Y-56754800D01*
G75*
G02*
X132214200Y-57036650I0J-281850D01*
G01*
X132214200Y-58025350D01*
G75*
G02*
X131932350Y-58307200I-281850J0D01*
G01*
X131368650Y-58307200D01*
G75*
G02*
X131086800Y-58025350I0J281850D01*
G01*
G37*
G36*
G01*
X132961800Y-58025350D02*
X132961800Y-57036650D01*
G75*
G02*
X133243650Y-56754800I281850J0D01*
G01*
X133807350Y-56754800D01*
G75*
G02*
X134089200Y-57036650I0J-281850D01*
G01*
X134089200Y-58025350D01*
G75*
G02*
X133807350Y-58307200I-281850J0D01*
G01*
X133243650Y-58307200D01*
G75*
G02*
X132961800Y-58025350I0J281850D01*
G01*
G37*
G36*
G01*
X83545000Y-66583800D02*
X84095000Y-66583800D01*
G75*
G02*
X84171200Y-66660000I0J-76200D01*
G01*
X84171200Y-67960000D01*
G75*
G02*
X84095000Y-68036200I-76200J0D01*
G01*
X83545000Y-68036200D01*
G75*
G02*
X83468800Y-67960000I0J76200D01*
G01*
X83468800Y-66660000D01*
G75*
G02*
X83545000Y-66583800I76200J0D01*
G01*
G37*
G36*
X83303373Y-71308980D02*
G01*
X83258232Y-71335042D01*
X83245000Y-71336200D01*
X81395000Y-71336200D01*
X81346020Y-71318373D01*
X81319958Y-71273232D01*
X81318800Y-71260000D01*
X81318800Y-68660000D01*
X81336627Y-68611020D01*
X81341118Y-68606118D01*
X81843800Y-68103436D01*
X81843800Y-66660000D01*
X81861627Y-66611020D01*
X81906768Y-66584958D01*
X81920000Y-66583800D01*
X82720000Y-66583800D01*
X82768980Y-66601627D01*
X82795042Y-66646768D01*
X82796200Y-66660000D01*
X82796200Y-68103436D01*
X83298882Y-68606118D01*
X83320910Y-68653359D01*
X83321200Y-68660000D01*
X83321200Y-71260000D01*
X83303373Y-71308980D01*
G37*
G36*
G01*
X80545000Y-66583800D02*
X81095000Y-66583800D01*
G75*
G02*
X81171200Y-66660000I0J-76200D01*
G01*
X81171200Y-67960000D01*
G75*
G02*
X81095000Y-68036200I-76200J0D01*
G01*
X80545000Y-68036200D01*
G75*
G02*
X80468800Y-67960000I0J76200D01*
G01*
X80468800Y-66660000D01*
G75*
G02*
X80545000Y-66583800I76200J0D01*
G01*
G37*
G36*
G01*
X137945850Y-41761700D02*
X136919650Y-41761700D01*
G75*
G02*
X136631550Y-41473600I0J288100D01*
G01*
X136631550Y-40897400D01*
G75*
G02*
X136919650Y-40609300I288100J0D01*
G01*
X137945850Y-40609300D01*
G75*
G02*
X138233950Y-40897400I0J-288100D01*
G01*
X138233950Y-41473600D01*
G75*
G02*
X137945850Y-41761700I-288100J0D01*
G01*
G37*
G36*
G01*
X137945850Y-39861700D02*
X136919650Y-39861700D01*
G75*
G02*
X136631550Y-39573600I0J288100D01*
G01*
X136631550Y-38997400D01*
G75*
G02*
X136919650Y-38709300I288100J0D01*
G01*
X137945850Y-38709300D01*
G75*
G02*
X138233950Y-38997400I0J-288100D01*
G01*
X138233950Y-39573600D01*
G75*
G02*
X137945850Y-39861700I-288100J0D01*
G01*
G37*
G36*
G01*
X83825313Y-86944200D02*
X80142313Y-86944200D01*
G75*
G02*
X80066113Y-86868000I0J76200D01*
G01*
X80066113Y-85598000D01*
G75*
G02*
X80142313Y-85521800I76200J0D01*
G01*
X83825313Y-85521800D01*
G75*
G02*
X83901513Y-85598000I0J-76200D01*
G01*
X83901513Y-86868000D01*
G75*
G02*
X83825313Y-86944200I-76200J0D01*
G01*
G37*
G36*
G01*
X83825313Y-84404200D02*
X80142313Y-84404200D01*
G75*
G02*
X80066113Y-84328000I0J76200D01*
G01*
X80066113Y-83058000D01*
G75*
G02*
X80142313Y-82981800I76200J0D01*
G01*
X83825313Y-82981800D01*
G75*
G02*
X83901513Y-83058000I0J-76200D01*
G01*
X83901513Y-84328000D01*
G75*
G02*
X83825313Y-84404200I-76200J0D01*
G01*
G37*
G36*
G01*
X83825313Y-81864200D02*
X80142313Y-81864200D01*
G75*
G02*
X80066113Y-81788000I0J76200D01*
G01*
X80066113Y-80518000D01*
G75*
G02*
X80142313Y-80441800I76200J0D01*
G01*
X83825313Y-80441800D01*
G75*
G02*
X83901513Y-80518000I0J-76200D01*
G01*
X83901513Y-81788000D01*
G75*
G02*
X83825313Y-81864200I-76200J0D01*
G01*
G37*
G36*
G01*
X88265315Y-86944200D02*
X84582315Y-86944200D01*
G75*
G02*
X84506115Y-86868000I0J76200D01*
G01*
X84506115Y-85598000D01*
G75*
G02*
X84582315Y-85521800I76200J0D01*
G01*
X88265315Y-85521800D01*
G75*
G02*
X88341515Y-85598000I0J-76200D01*
G01*
X88341515Y-86868000D01*
G75*
G02*
X88265315Y-86944200I-76200J0D01*
G01*
G37*
G36*
G01*
X88265315Y-84404200D02*
X84582315Y-84404200D01*
G75*
G02*
X84506115Y-84328000I0J76200D01*
G01*
X84506115Y-83058000D01*
G75*
G02*
X84582315Y-82981800I76200J0D01*
G01*
X88265315Y-82981800D01*
G75*
G02*
X88341515Y-83058000I0J-76200D01*
G01*
X88341515Y-84328000D01*
G75*
G02*
X88265315Y-84404200I-76200J0D01*
G01*
G37*
G36*
G01*
X88265315Y-81864200D02*
X84582315Y-81864200D01*
G75*
G02*
X84506115Y-81788000I0J76200D01*
G01*
X84506115Y-80518000D01*
G75*
G02*
X84582315Y-80441800I76200J0D01*
G01*
X88265315Y-80441800D01*
G75*
G02*
X88341515Y-80518000I0J-76200D01*
G01*
X88341515Y-81788000D01*
G75*
G02*
X88265315Y-81864200I-76200J0D01*
G01*
G37*
G36*
G01*
X37959350Y-34902200D02*
X36970650Y-34902200D01*
G75*
G02*
X36688800Y-34620350I0J281850D01*
G01*
X36688800Y-34056650D01*
G75*
G02*
X36970650Y-33774800I281850J0D01*
G01*
X37959350Y-33774800D01*
G75*
G02*
X38241200Y-34056650I0J-281850D01*
G01*
X38241200Y-34620350D01*
G75*
G02*
X37959350Y-34902200I-281850J0D01*
G01*
G37*
G36*
G01*
X37959350Y-33027200D02*
X36970650Y-33027200D01*
G75*
G02*
X36688800Y-32745350I0J281850D01*
G01*
X36688800Y-32181650D01*
G75*
G02*
X36970650Y-31899800I281850J0D01*
G01*
X37959350Y-31899800D01*
G75*
G02*
X38241200Y-32181650I0J-281850D01*
G01*
X38241200Y-32745350D01*
G75*
G02*
X37959350Y-33027200I-281850J0D01*
G01*
G37*
G36*
G01*
X131086800Y-55231350D02*
X131086800Y-54242650D01*
G75*
G02*
X131368650Y-53960800I281850J0D01*
G01*
X131932350Y-53960800D01*
G75*
G02*
X132214200Y-54242650I0J-281850D01*
G01*
X132214200Y-55231350D01*
G75*
G02*
X131932350Y-55513200I-281850J0D01*
G01*
X131368650Y-55513200D01*
G75*
G02*
X131086800Y-55231350I0J281850D01*
G01*
G37*
G36*
G01*
X132961800Y-55231350D02*
X132961800Y-54242650D01*
G75*
G02*
X133243650Y-53960800I281850J0D01*
G01*
X133807350Y-53960800D01*
G75*
G02*
X134089200Y-54242650I0J-281850D01*
G01*
X134089200Y-55231350D01*
G75*
G02*
X133807350Y-55513200I-281850J0D01*
G01*
X133243650Y-55513200D01*
G75*
G02*
X132961800Y-55231350I0J281850D01*
G01*
G37*
G36*
G01*
X86354900Y-57655800D02*
X87381100Y-57655800D01*
G75*
G02*
X87669200Y-57943900I0J-288100D01*
G01*
X87669200Y-58520100D01*
G75*
G02*
X87381100Y-58808200I-288100J0D01*
G01*
X86354900Y-58808200D01*
G75*
G02*
X86066800Y-58520100I0J288100D01*
G01*
X86066800Y-57943900D01*
G75*
G02*
X86354900Y-57655800I288100J0D01*
G01*
G37*
G36*
G01*
X86354900Y-59555800D02*
X87381100Y-59555800D01*
G75*
G02*
X87669200Y-59843900I0J-288100D01*
G01*
X87669200Y-60420100D01*
G75*
G02*
X87381100Y-60708200I-288100J0D01*
G01*
X86354900Y-60708200D01*
G75*
G02*
X86066800Y-60420100I0J288100D01*
G01*
X86066800Y-59843900D01*
G75*
G02*
X86354900Y-59555800I288100J0D01*
G01*
G37*
G36*
G01*
X71142800Y-81388030D02*
X71142800Y-80409970D01*
G75*
G02*
X71429970Y-80122800I287170J0D01*
G01*
X72033030Y-80122800D01*
G75*
G02*
X72320200Y-80409970I0J-287170D01*
G01*
X72320200Y-81388030D01*
G75*
G02*
X72033030Y-81675200I-287170J0D01*
G01*
X71429970Y-81675200D01*
G75*
G02*
X71142800Y-81388030I0J287170D01*
G01*
G37*
G36*
G01*
X72967800Y-81388030D02*
X72967800Y-80409970D01*
G75*
G02*
X73254970Y-80122800I287170J0D01*
G01*
X73858030Y-80122800D01*
G75*
G02*
X74145200Y-80409970I0J-287170D01*
G01*
X74145200Y-81388030D01*
G75*
G02*
X73858030Y-81675200I-287170J0D01*
G01*
X73254970Y-81675200D01*
G75*
G02*
X72967800Y-81388030I0J287170D01*
G01*
G37*
G36*
G01*
X144798970Y-32661800D02*
X145777030Y-32661800D01*
G75*
G02*
X146064200Y-32948970I0J-287170D01*
G01*
X146064200Y-33552030D01*
G75*
G02*
X145777030Y-33839200I-287170J0D01*
G01*
X144798970Y-33839200D01*
G75*
G02*
X144511800Y-33552030I0J287170D01*
G01*
X144511800Y-32948970D01*
G75*
G02*
X144798970Y-32661800I287170J0D01*
G01*
G37*
G36*
G01*
X144798970Y-34486800D02*
X145777030Y-34486800D01*
G75*
G02*
X146064200Y-34773970I0J-287170D01*
G01*
X146064200Y-35377030D01*
G75*
G02*
X145777030Y-35664200I-287170J0D01*
G01*
X144798970Y-35664200D01*
G75*
G02*
X144511800Y-35377030I0J287170D01*
G01*
X144511800Y-34773970D01*
G75*
G02*
X144798970Y-34486800I287170J0D01*
G01*
G37*
G36*
G01*
X142516800Y-80504350D02*
X142516800Y-79515650D01*
G75*
G02*
X142798650Y-79233800I281850J0D01*
G01*
X143362350Y-79233800D01*
G75*
G02*
X143644200Y-79515650I0J-281850D01*
G01*
X143644200Y-80504350D01*
G75*
G02*
X143362350Y-80786200I-281850J0D01*
G01*
X142798650Y-80786200D01*
G75*
G02*
X142516800Y-80504350I0J281850D01*
G01*
G37*
G36*
G01*
X144391800Y-80504350D02*
X144391800Y-79515650D01*
G75*
G02*
X144673650Y-79233800I281850J0D01*
G01*
X145237350Y-79233800D01*
G75*
G02*
X145519200Y-79515650I0J-281850D01*
G01*
X145519200Y-80504350D01*
G75*
G02*
X145237350Y-80786200I-281850J0D01*
G01*
X144673650Y-80786200D01*
G75*
G02*
X144391800Y-80504350I0J281850D01*
G01*
G37*
G36*
G01*
X90065800Y-35546350D02*
X90065800Y-34557650D01*
G75*
G02*
X90347650Y-34275800I281850J0D01*
G01*
X90911350Y-34275800D01*
G75*
G02*
X91193200Y-34557650I0J-281850D01*
G01*
X91193200Y-35546350D01*
G75*
G02*
X90911350Y-35828200I-281850J0D01*
G01*
X90347650Y-35828200D01*
G75*
G02*
X90065800Y-35546350I0J281850D01*
G01*
G37*
G36*
G01*
X91940800Y-35546350D02*
X91940800Y-34557650D01*
G75*
G02*
X92222650Y-34275800I281850J0D01*
G01*
X92786350Y-34275800D01*
G75*
G02*
X93068200Y-34557650I0J-281850D01*
G01*
X93068200Y-35546350D01*
G75*
G02*
X92786350Y-35828200I-281850J0D01*
G01*
X92222650Y-35828200D01*
G75*
G02*
X91940800Y-35546350I0J281850D01*
G01*
G37*
G36*
G01*
X79981200Y-24577900D02*
X79981200Y-25904100D01*
G75*
G02*
X79793100Y-26092200I-188100J0D01*
G01*
X79416900Y-26092200D01*
G75*
G02*
X79228800Y-25904100I0J188100D01*
G01*
X79228800Y-24577900D01*
G75*
G02*
X79416900Y-24389800I188100J0D01*
G01*
X79793100Y-24389800D01*
G75*
G02*
X79981200Y-24577900I0J-188100D01*
G01*
G37*
G36*
G01*
X78981200Y-24577900D02*
X78981200Y-25904100D01*
G75*
G02*
X78793100Y-26092200I-188100J0D01*
G01*
X78416900Y-26092200D01*
G75*
G02*
X78228800Y-25904100I0J188100D01*
G01*
X78228800Y-24577900D01*
G75*
G02*
X78416900Y-24389800I188100J0D01*
G01*
X78793100Y-24389800D01*
G75*
G02*
X78981200Y-24577900I0J-188100D01*
G01*
G37*
G36*
G01*
X77981200Y-24577900D02*
X77981200Y-25904100D01*
G75*
G02*
X77793100Y-26092200I-188100J0D01*
G01*
X77416900Y-26092200D01*
G75*
G02*
X77228800Y-25904100I0J188100D01*
G01*
X77228800Y-24577900D01*
G75*
G02*
X77416900Y-24389800I188100J0D01*
G01*
X77793100Y-24389800D01*
G75*
G02*
X77981200Y-24577900I0J-188100D01*
G01*
G37*
G36*
G01*
X76981200Y-24577900D02*
X76981200Y-25904100D01*
G75*
G02*
X76793100Y-26092200I-188100J0D01*
G01*
X76416900Y-26092200D01*
G75*
G02*
X76228800Y-25904100I0J188100D01*
G01*
X76228800Y-24577900D01*
G75*
G02*
X76416900Y-24389800I188100J0D01*
G01*
X76793100Y-24389800D01*
G75*
G02*
X76981200Y-24577900I0J-188100D01*
G01*
G37*
G36*
G01*
X81581200Y-20671550D02*
X81581200Y-22060450D01*
G75*
G02*
X81299450Y-22342200I-281750J0D01*
G01*
X80510550Y-22342200D01*
G75*
G02*
X80228800Y-22060450I0J281750D01*
G01*
X80228800Y-20671550D01*
G75*
G02*
X80510550Y-20389800I281750J0D01*
G01*
X81299450Y-20389800D01*
G75*
G02*
X81581200Y-20671550I0J-281750D01*
G01*
G37*
G36*
G01*
X75981200Y-20671550D02*
X75981200Y-22060450D01*
G75*
G02*
X75699450Y-22342200I-281750J0D01*
G01*
X74910550Y-22342200D01*
G75*
G02*
X74628800Y-22060450I0J281750D01*
G01*
X74628800Y-20671550D01*
G75*
G02*
X74910550Y-20389800I281750J0D01*
G01*
X75699450Y-20389800D01*
G75*
G02*
X75981200Y-20671550I0J-281750D01*
G01*
G37*
G36*
G01*
X112389900Y-63243800D02*
X113416100Y-63243800D01*
G75*
G02*
X113704200Y-63531900I0J-288100D01*
G01*
X113704200Y-64108100D01*
G75*
G02*
X113416100Y-64396200I-288100J0D01*
G01*
X112389900Y-64396200D01*
G75*
G02*
X112101800Y-64108100I0J288100D01*
G01*
X112101800Y-63531900D01*
G75*
G02*
X112389900Y-63243800I288100J0D01*
G01*
G37*
G36*
G01*
X112389900Y-65143800D02*
X113416100Y-65143800D01*
G75*
G02*
X113704200Y-65431900I0J-288100D01*
G01*
X113704200Y-66008100D01*
G75*
G02*
X113416100Y-66296200I-288100J0D01*
G01*
X112389900Y-66296200D01*
G75*
G02*
X112101800Y-66008100I0J288100D01*
G01*
X112101800Y-65431900D01*
G75*
G02*
X112389900Y-65143800I288100J0D01*
G01*
G37*
G36*
G01*
X62887800Y-81393350D02*
X62887800Y-80404650D01*
G75*
G02*
X63169650Y-80122800I281850J0D01*
G01*
X63733350Y-80122800D01*
G75*
G02*
X64015200Y-80404650I0J-281850D01*
G01*
X64015200Y-81393350D01*
G75*
G02*
X63733350Y-81675200I-281850J0D01*
G01*
X63169650Y-81675200D01*
G75*
G02*
X62887800Y-81393350I0J281850D01*
G01*
G37*
G36*
G01*
X64762800Y-81393350D02*
X64762800Y-80404650D01*
G75*
G02*
X65044650Y-80122800I281850J0D01*
G01*
X65608350Y-80122800D01*
G75*
G02*
X65890200Y-80404650I0J-281850D01*
G01*
X65890200Y-81393350D01*
G75*
G02*
X65608350Y-81675200I-281850J0D01*
G01*
X65044650Y-81675200D01*
G75*
G02*
X64762800Y-81393350I0J281850D01*
G01*
G37*
G36*
G01*
X139976800Y-48241030D02*
X139976800Y-47262970D01*
G75*
G02*
X140263970Y-46975800I287170J0D01*
G01*
X140867030Y-46975800D01*
G75*
G02*
X141154200Y-47262970I0J-287170D01*
G01*
X141154200Y-48241030D01*
G75*
G02*
X140867030Y-48528200I-287170J0D01*
G01*
X140263970Y-48528200D01*
G75*
G02*
X139976800Y-48241030I0J287170D01*
G01*
G37*
G36*
G01*
X141801800Y-48241030D02*
X141801800Y-47262970D01*
G75*
G02*
X142088970Y-46975800I287170J0D01*
G01*
X142692030Y-46975800D01*
G75*
G02*
X142979200Y-47262970I0J-287170D01*
G01*
X142979200Y-48241030D01*
G75*
G02*
X142692030Y-48528200I-287170J0D01*
G01*
X142088970Y-48528200D01*
G75*
G02*
X141801800Y-48241030I0J287170D01*
G01*
G37*
G36*
G01*
X115039200Y-57295970D02*
X115039200Y-58274030D01*
G75*
G02*
X114752030Y-58561200I-287170J0D01*
G01*
X114148970Y-58561200D01*
G75*
G02*
X113861800Y-58274030I0J287170D01*
G01*
X113861800Y-57295970D01*
G75*
G02*
X114148970Y-57008800I287170J0D01*
G01*
X114752030Y-57008800D01*
G75*
G02*
X115039200Y-57295970I0J-287170D01*
G01*
G37*
G36*
G01*
X113214200Y-57295970D02*
X113214200Y-58274030D01*
G75*
G02*
X112927030Y-58561200I-287170J0D01*
G01*
X112323970Y-58561200D01*
G75*
G02*
X112036800Y-58274030I0J287170D01*
G01*
X112036800Y-57295970D01*
G75*
G02*
X112323970Y-57008800I287170J0D01*
G01*
X112927030Y-57008800D01*
G75*
G02*
X113214200Y-57295970I0J-287170D01*
G01*
G37*
G36*
G01*
X115181086Y-86484800D02*
X116207286Y-86484800D01*
G75*
G02*
X116495386Y-86772900I0J-288100D01*
G01*
X116495386Y-87349100D01*
G75*
G02*
X116207286Y-87637200I-288100J0D01*
G01*
X115181086Y-87637200D01*
G75*
G02*
X114892986Y-87349100I0J288100D01*
G01*
X114892986Y-86772900D01*
G75*
G02*
X115181086Y-86484800I288100J0D01*
G01*
G37*
G36*
G01*
X115181086Y-88384800D02*
X116207286Y-88384800D01*
G75*
G02*
X116495386Y-88672900I0J-288100D01*
G01*
X116495386Y-89249100D01*
G75*
G02*
X116207286Y-89537200I-288100J0D01*
G01*
X115181086Y-89537200D01*
G75*
G02*
X114892986Y-89249100I0J288100D01*
G01*
X114892986Y-88672900D01*
G75*
G02*
X115181086Y-88384800I288100J0D01*
G01*
G37*
G36*
G01*
X142023720Y-38734300D02*
X143001780Y-38734300D01*
G75*
G02*
X143288950Y-39021470I0J-287170D01*
G01*
X143288950Y-39624530D01*
G75*
G02*
X143001780Y-39911700I-287170J0D01*
G01*
X142023720Y-39911700D01*
G75*
G02*
X141736550Y-39624530I0J287170D01*
G01*
X141736550Y-39021470D01*
G75*
G02*
X142023720Y-38734300I287170J0D01*
G01*
G37*
G36*
G01*
X142023720Y-40559300D02*
X143001780Y-40559300D01*
G75*
G02*
X143288950Y-40846470I0J-287170D01*
G01*
X143288950Y-41449530D01*
G75*
G02*
X143001780Y-41736700I-287170J0D01*
G01*
X142023720Y-41736700D01*
G75*
G02*
X141736550Y-41449530I0J287170D01*
G01*
X141736550Y-40846470D01*
G75*
G02*
X142023720Y-40559300I287170J0D01*
G01*
G37*
G36*
G01*
X131086800Y-70725350D02*
X131086800Y-69736650D01*
G75*
G02*
X131368650Y-69454800I281850J0D01*
G01*
X131932350Y-69454800D01*
G75*
G02*
X132214200Y-69736650I0J-281850D01*
G01*
X132214200Y-70725350D01*
G75*
G02*
X131932350Y-71007200I-281850J0D01*
G01*
X131368650Y-71007200D01*
G75*
G02*
X131086800Y-70725350I0J281850D01*
G01*
G37*
G36*
G01*
X132961800Y-70725350D02*
X132961800Y-69736650D01*
G75*
G02*
X133243650Y-69454800I281850J0D01*
G01*
X133807350Y-69454800D01*
G75*
G02*
X134089200Y-69736650I0J-281850D01*
G01*
X134089200Y-70725350D01*
G75*
G02*
X133807350Y-71007200I-281850J0D01*
G01*
X133243650Y-71007200D01*
G75*
G02*
X132961800Y-70725350I0J281850D01*
G01*
G37*
G36*
G01*
X131086800Y-65645350D02*
X131086800Y-64656650D01*
G75*
G02*
X131368650Y-64374800I281850J0D01*
G01*
X131932350Y-64374800D01*
G75*
G02*
X132214200Y-64656650I0J-281850D01*
G01*
X132214200Y-65645350D01*
G75*
G02*
X131932350Y-65927200I-281850J0D01*
G01*
X131368650Y-65927200D01*
G75*
G02*
X131086800Y-65645350I0J281850D01*
G01*
G37*
G36*
G01*
X132961800Y-65645350D02*
X132961800Y-64656650D01*
G75*
G02*
X133243650Y-64374800I281850J0D01*
G01*
X133807350Y-64374800D01*
G75*
G02*
X134089200Y-64656650I0J-281850D01*
G01*
X134089200Y-65645350D01*
G75*
G02*
X133807350Y-65927200I-281850J0D01*
G01*
X133243650Y-65927200D01*
G75*
G02*
X132961800Y-65645350I0J281850D01*
G01*
G37*
G36*
G01*
X83965970Y-39707800D02*
X84944030Y-39707800D01*
G75*
G02*
X85231200Y-39994970I0J-287170D01*
G01*
X85231200Y-40598030D01*
G75*
G02*
X84944030Y-40885200I-287170J0D01*
G01*
X83965970Y-40885200D01*
G75*
G02*
X83678800Y-40598030I0J287170D01*
G01*
X83678800Y-39994970D01*
G75*
G02*
X83965970Y-39707800I287170J0D01*
G01*
G37*
G36*
G01*
X83965970Y-41532800D02*
X84944030Y-41532800D01*
G75*
G02*
X85231200Y-41819970I0J-287170D01*
G01*
X85231200Y-42423030D01*
G75*
G02*
X84944030Y-42710200I-287170J0D01*
G01*
X83965970Y-42710200D01*
G75*
G02*
X83678800Y-42423030I0J287170D01*
G01*
X83678800Y-41819970D01*
G75*
G02*
X83965970Y-41532800I287170J0D01*
G01*
G37*
G36*
G01*
X32208440Y-46779200D02*
X34330360Y-46779200D01*
G75*
G02*
X34595600Y-47044440I0J-265240D01*
G01*
X34595600Y-49166360D01*
G75*
G02*
X34330360Y-49431600I-265240J0D01*
G01*
X32208440Y-49431600D01*
G75*
G02*
X31943200Y-49166360I0J265240D01*
G01*
X31943200Y-47044440D01*
G75*
G02*
X32208440Y-46779200I265240J0D01*
G01*
G37*
X33269400Y-53105400D03*
G36*
G01*
X58391200Y-24577900D02*
X58391200Y-25904100D01*
G75*
G02*
X58203100Y-26092200I-188100J0D01*
G01*
X57826900Y-26092200D01*
G75*
G02*
X57638800Y-25904100I0J188100D01*
G01*
X57638800Y-24577900D01*
G75*
G02*
X57826900Y-24389800I188100J0D01*
G01*
X58203100Y-24389800D01*
G75*
G02*
X58391200Y-24577900I0J-188100D01*
G01*
G37*
G36*
G01*
X57391200Y-24577900D02*
X57391200Y-25904100D01*
G75*
G02*
X57203100Y-26092200I-188100J0D01*
G01*
X56826900Y-26092200D01*
G75*
G02*
X56638800Y-25904100I0J188100D01*
G01*
X56638800Y-24577900D01*
G75*
G02*
X56826900Y-24389800I188100J0D01*
G01*
X57203100Y-24389800D01*
G75*
G02*
X57391200Y-24577900I0J-188100D01*
G01*
G37*
G36*
G01*
X56391200Y-24577900D02*
X56391200Y-25904100D01*
G75*
G02*
X56203100Y-26092200I-188100J0D01*
G01*
X55826900Y-26092200D01*
G75*
G02*
X55638800Y-25904100I0J188100D01*
G01*
X55638800Y-24577900D01*
G75*
G02*
X55826900Y-24389800I188100J0D01*
G01*
X56203100Y-24389800D01*
G75*
G02*
X56391200Y-24577900I0J-188100D01*
G01*
G37*
G36*
G01*
X55391200Y-24577900D02*
X55391200Y-25904100D01*
G75*
G02*
X55203100Y-26092200I-188100J0D01*
G01*
X54826900Y-26092200D01*
G75*
G02*
X54638800Y-25904100I0J188100D01*
G01*
X54638800Y-24577900D01*
G75*
G02*
X54826900Y-24389800I188100J0D01*
G01*
X55203100Y-24389800D01*
G75*
G02*
X55391200Y-24577900I0J-188100D01*
G01*
G37*
G36*
G01*
X59991200Y-20671550D02*
X59991200Y-22060450D01*
G75*
G02*
X59709450Y-22342200I-281750J0D01*
G01*
X58920550Y-22342200D01*
G75*
G02*
X58638800Y-22060450I0J281750D01*
G01*
X58638800Y-20671550D01*
G75*
G02*
X58920550Y-20389800I281750J0D01*
G01*
X59709450Y-20389800D01*
G75*
G02*
X59991200Y-20671550I0J-281750D01*
G01*
G37*
G36*
G01*
X54391200Y-20671550D02*
X54391200Y-22060450D01*
G75*
G02*
X54109450Y-22342200I-281750J0D01*
G01*
X53320550Y-22342200D01*
G75*
G02*
X53038800Y-22060450I0J281750D01*
G01*
X53038800Y-20671550D01*
G75*
G02*
X53320550Y-20389800I281750J0D01*
G01*
X54109450Y-20389800D01*
G75*
G02*
X54391200Y-20671550I0J-281750D01*
G01*
G37*
G36*
G01*
X69954200Y-80404650D02*
X69954200Y-81393350D01*
G75*
G02*
X69672350Y-81675200I-281850J0D01*
G01*
X69108650Y-81675200D01*
G75*
G02*
X68826800Y-81393350I0J281850D01*
G01*
X68826800Y-80404650D01*
G75*
G02*
X69108650Y-80122800I281850J0D01*
G01*
X69672350Y-80122800D01*
G75*
G02*
X69954200Y-80404650I0J-281850D01*
G01*
G37*
G36*
G01*
X68079200Y-80404650D02*
X68079200Y-81393350D01*
G75*
G02*
X67797350Y-81675200I-281850J0D01*
G01*
X67233650Y-81675200D01*
G75*
G02*
X66951800Y-81393350I0J281850D01*
G01*
X66951800Y-80404650D01*
G75*
G02*
X67233650Y-80122800I281850J0D01*
G01*
X67797350Y-80122800D01*
G75*
G02*
X68079200Y-80404650I0J-281850D01*
G01*
G37*
G36*
G01*
X46211800Y-88350460D02*
X46211800Y-86228540D01*
G75*
G02*
X46477040Y-85963300I265240J0D01*
G01*
X48598960Y-85963300D01*
G75*
G02*
X48864200Y-86228540I0J-265240D01*
G01*
X48864200Y-88350460D01*
G75*
G02*
X48598960Y-88615700I-265240J0D01*
G01*
X46477040Y-88615700D01*
G75*
G02*
X46211800Y-88350460I0J265240D01*
G01*
G37*
X52538000Y-87289500D03*
D14*
X91821000Y-43307000D03*
D15*
X91821000Y-45847000D03*
D14*
X91821000Y-48387000D03*
X97536000Y-43307000D03*
X97536000Y-48387000D03*
D15*
X99441000Y-44831000D03*
X99441000Y-46863000D03*
D16*
X93091000Y-46482000D03*
X94361000Y-46482000D03*
X95631000Y-46482000D03*
X96901000Y-46482000D03*
X98171000Y-46482000D03*
X98171000Y-45212000D03*
X96901000Y-45212000D03*
X95631000Y-45212000D03*
X94361000Y-45212000D03*
X93091000Y-45212000D03*
G36*
G01*
X40626800Y-81087000D02*
X40626800Y-79187000D01*
G75*
G02*
X40703000Y-79110800I76200J0D01*
G01*
X42103000Y-79110800D01*
G75*
G02*
X42179200Y-79187000I0J-76200D01*
G01*
X42179200Y-81087000D01*
G75*
G02*
X42103000Y-81163200I-76200J0D01*
G01*
X40703000Y-81163200D01*
G75*
G02*
X40626800Y-81087000I0J76200D01*
G01*
G37*
G36*
G01*
X43926800Y-81087000D02*
X43926800Y-79187000D01*
G75*
G02*
X44003000Y-79110800I76200J0D01*
G01*
X45403000Y-79110800D01*
G75*
G02*
X45479200Y-79187000I0J-76200D01*
G01*
X45479200Y-81087000D01*
G75*
G02*
X45403000Y-81163200I-76200J0D01*
G01*
X44003000Y-81163200D01*
G75*
G02*
X43926800Y-81087000I0J76200D01*
G01*
G37*
G36*
G01*
X134403720Y-38734300D02*
X135381780Y-38734300D01*
G75*
G02*
X135668950Y-39021470I0J-287170D01*
G01*
X135668950Y-39624530D01*
G75*
G02*
X135381780Y-39911700I-287170J0D01*
G01*
X134403720Y-39911700D01*
G75*
G02*
X134116550Y-39624530I0J287170D01*
G01*
X134116550Y-39021470D01*
G75*
G02*
X134403720Y-38734300I287170J0D01*
G01*
G37*
G36*
G01*
X134403720Y-40559300D02*
X135381780Y-40559300D01*
G75*
G02*
X135668950Y-40846470I0J-287170D01*
G01*
X135668950Y-41449530D01*
G75*
G02*
X135381780Y-41736700I-287170J0D01*
G01*
X134403720Y-41736700D01*
G75*
G02*
X134116550Y-41449530I0J287170D01*
G01*
X134116550Y-40846470D01*
G75*
G02*
X134403720Y-40559300I287170J0D01*
G01*
G37*
G36*
G01*
X110852030Y-58524200D02*
X109873970Y-58524200D01*
G75*
G02*
X109586800Y-58237030I0J287170D01*
G01*
X109586800Y-57633970D01*
G75*
G02*
X109873970Y-57346800I287170J0D01*
G01*
X110852030Y-57346800D01*
G75*
G02*
X111139200Y-57633970I0J-287170D01*
G01*
X111139200Y-58237030D01*
G75*
G02*
X110852030Y-58524200I-287170J0D01*
G01*
G37*
G36*
G01*
X110852030Y-56699200D02*
X109873970Y-56699200D01*
G75*
G02*
X109586800Y-56412030I0J287170D01*
G01*
X109586800Y-55808970D01*
G75*
G02*
X109873970Y-55521800I287170J0D01*
G01*
X110852030Y-55521800D01*
G75*
G02*
X111139200Y-55808970I0J-287170D01*
G01*
X111139200Y-56412030D01*
G75*
G02*
X110852030Y-56699200I-287170J0D01*
G01*
G37*
G36*
G01*
X45479200Y-75758000D02*
X45479200Y-77658000D01*
G75*
G02*
X45403000Y-77734200I-76200J0D01*
G01*
X44003000Y-77734200D01*
G75*
G02*
X43926800Y-77658000I0J76200D01*
G01*
X43926800Y-75758000D01*
G75*
G02*
X44003000Y-75681800I76200J0D01*
G01*
X45403000Y-75681800D01*
G75*
G02*
X45479200Y-75758000I0J-76200D01*
G01*
G37*
G36*
G01*
X42179200Y-75758000D02*
X42179200Y-77658000D01*
G75*
G02*
X42103000Y-77734200I-76200J0D01*
G01*
X40703000Y-77734200D01*
G75*
G02*
X40626800Y-77658000I0J76200D01*
G01*
X40626800Y-75758000D01*
G75*
G02*
X40703000Y-75681800I76200J0D01*
G01*
X42103000Y-75681800D01*
G75*
G02*
X42179200Y-75758000I0J-76200D01*
G01*
G37*
G36*
G01*
X47833200Y-62897613D02*
X47833200Y-64102387D01*
G75*
G02*
X47559387Y-64376200I-273813J0D01*
G01*
X44454613Y-64376200D01*
G75*
G02*
X44180800Y-64102387I0J273813D01*
G01*
X44180800Y-62897613D01*
G75*
G02*
X44454613Y-62623800I273813J0D01*
G01*
X47559387Y-62623800D01*
G75*
G02*
X47833200Y-62897613I0J-273813D01*
G01*
G37*
G36*
G01*
X42433200Y-62897613D02*
X42433200Y-64102387D01*
G75*
G02*
X42159387Y-64376200I-273813J0D01*
G01*
X39054613Y-64376200D01*
G75*
G02*
X38780800Y-64102387I0J273813D01*
G01*
X38780800Y-62897613D01*
G75*
G02*
X39054613Y-62623800I273813J0D01*
G01*
X42159387Y-62623800D01*
G75*
G02*
X42433200Y-62897613I0J-273813D01*
G01*
G37*
G36*
G01*
X131863720Y-38734300D02*
X132841780Y-38734300D01*
G75*
G02*
X133128950Y-39021470I0J-287170D01*
G01*
X133128950Y-39624530D01*
G75*
G02*
X132841780Y-39911700I-287170J0D01*
G01*
X131863720Y-39911700D01*
G75*
G02*
X131576550Y-39624530I0J287170D01*
G01*
X131576550Y-39021470D01*
G75*
G02*
X131863720Y-38734300I287170J0D01*
G01*
G37*
G36*
G01*
X131863720Y-40559300D02*
X132841780Y-40559300D01*
G75*
G02*
X133128950Y-40846470I0J-287170D01*
G01*
X133128950Y-41449530D01*
G75*
G02*
X132841780Y-41736700I-287170J0D01*
G01*
X131863720Y-41736700D01*
G75*
G02*
X131576550Y-41449530I0J287170D01*
G01*
X131576550Y-40846470D01*
G75*
G02*
X131863720Y-40559300I287170J0D01*
G01*
G37*
G36*
G01*
X108460200Y-56255900D02*
X108460200Y-57282100D01*
G75*
G02*
X108172100Y-57570200I-288100J0D01*
G01*
X107595900Y-57570200D01*
G75*
G02*
X107307800Y-57282100I0J288100D01*
G01*
X107307800Y-56255900D01*
G75*
G02*
X107595900Y-55967800I288100J0D01*
G01*
X108172100Y-55967800D01*
G75*
G02*
X108460200Y-56255900I0J-288100D01*
G01*
G37*
G36*
G01*
X106560200Y-56255900D02*
X106560200Y-57282100D01*
G75*
G02*
X106272100Y-57570200I-288100J0D01*
G01*
X105695900Y-57570200D01*
G75*
G02*
X105407800Y-57282100I0J288100D01*
G01*
X105407800Y-56255900D01*
G75*
G02*
X105695900Y-55967800I288100J0D01*
G01*
X106272100Y-55967800D01*
G75*
G02*
X106560200Y-56255900I0J-288100D01*
G01*
G37*
G36*
G01*
X49452400Y-57530900D02*
X49452400Y-57907100D01*
G75*
G02*
X49264300Y-58095200I-188100J0D01*
G01*
X48013100Y-58095200D01*
G75*
G02*
X47825000Y-57907100I0J188100D01*
G01*
X47825000Y-57530900D01*
G75*
G02*
X48013100Y-57342800I188100J0D01*
G01*
X49264300Y-57342800D01*
G75*
G02*
X49452400Y-57530900I0J-188100D01*
G01*
G37*
G36*
G01*
X49452400Y-55630900D02*
X49452400Y-56007100D01*
G75*
G02*
X49264300Y-56195200I-188100J0D01*
G01*
X48013100Y-56195200D01*
G75*
G02*
X47825000Y-56007100I0J188100D01*
G01*
X47825000Y-55630900D01*
G75*
G02*
X48013100Y-55442800I188100J0D01*
G01*
X49264300Y-55442800D01*
G75*
G02*
X49452400Y-55630900I0J-188100D01*
G01*
G37*
G36*
G01*
X47577400Y-56580900D02*
X47577400Y-56957100D01*
G75*
G02*
X47389300Y-57145200I-188100J0D01*
G01*
X46138100Y-57145200D01*
G75*
G02*
X45950000Y-56957100I0J188100D01*
G01*
X45950000Y-56580900D01*
G75*
G02*
X46138100Y-56392800I188100J0D01*
G01*
X47389300Y-56392800D01*
G75*
G02*
X47577400Y-56580900I0J-188100D01*
G01*
G37*
G36*
G01*
X115181086Y-76324800D02*
X116207286Y-76324800D01*
G75*
G02*
X116495386Y-76612900I0J-288100D01*
G01*
X116495386Y-77189100D01*
G75*
G02*
X116207286Y-77477200I-288100J0D01*
G01*
X115181086Y-77477200D01*
G75*
G02*
X114892986Y-77189100I0J288100D01*
G01*
X114892986Y-76612900D01*
G75*
G02*
X115181086Y-76324800I288100J0D01*
G01*
G37*
G36*
G01*
X115181086Y-78224800D02*
X116207286Y-78224800D01*
G75*
G02*
X116495386Y-78512900I0J-288100D01*
G01*
X116495386Y-79089100D01*
G75*
G02*
X116207286Y-79377200I-288100J0D01*
G01*
X115181086Y-79377200D01*
G75*
G02*
X114892986Y-79089100I0J288100D01*
G01*
X114892986Y-78512900D01*
G75*
G02*
X115181086Y-78224800I288100J0D01*
G01*
G37*
G36*
G01*
X46758800Y-81418750D02*
X46758800Y-80430050D01*
G75*
G02*
X47040650Y-80148200I281850J0D01*
G01*
X47604350Y-80148200D01*
G75*
G02*
X47886200Y-80430050I0J-281850D01*
G01*
X47886200Y-81418750D01*
G75*
G02*
X47604350Y-81700600I-281850J0D01*
G01*
X47040650Y-81700600D01*
G75*
G02*
X46758800Y-81418750I0J281850D01*
G01*
G37*
G36*
G01*
X48633800Y-81418750D02*
X48633800Y-80430050D01*
G75*
G02*
X48915650Y-80148200I281850J0D01*
G01*
X49479350Y-80148200D01*
G75*
G02*
X49761200Y-80430050I0J-281850D01*
G01*
X49761200Y-81418750D01*
G75*
G02*
X49479350Y-81700600I-281850J0D01*
G01*
X48915650Y-81700600D01*
G75*
G02*
X48633800Y-81418750I0J281850D01*
G01*
G37*
G36*
G01*
X82428100Y-42735200D02*
X81401900Y-42735200D01*
G75*
G02*
X81113800Y-42447100I0J288100D01*
G01*
X81113800Y-41870900D01*
G75*
G02*
X81401900Y-41582800I288100J0D01*
G01*
X82428100Y-41582800D01*
G75*
G02*
X82716200Y-41870900I0J-288100D01*
G01*
X82716200Y-42447100D01*
G75*
G02*
X82428100Y-42735200I-288100J0D01*
G01*
G37*
G36*
G01*
X82428100Y-40835200D02*
X81401900Y-40835200D01*
G75*
G02*
X81113800Y-40547100I0J288100D01*
G01*
X81113800Y-39970900D01*
G75*
G02*
X81401900Y-39682800I288100J0D01*
G01*
X82428100Y-39682800D01*
G75*
G02*
X82716200Y-39970900I0J-288100D01*
G01*
X82716200Y-40547100D01*
G75*
G02*
X82428100Y-40835200I-288100J0D01*
G01*
G37*
D10*
X148082000Y-23368000D03*
G36*
G01*
X75206800Y-65767030D02*
X75206800Y-64788970D01*
G75*
G02*
X75493970Y-64501800I287170J0D01*
G01*
X76097030Y-64501800D01*
G75*
G02*
X76384200Y-64788970I0J-287170D01*
G01*
X76384200Y-65767030D01*
G75*
G02*
X76097030Y-66054200I-287170J0D01*
G01*
X75493970Y-66054200D01*
G75*
G02*
X75206800Y-65767030I0J287170D01*
G01*
G37*
G36*
G01*
X77031800Y-65767030D02*
X77031800Y-64788970D01*
G75*
G02*
X77318970Y-64501800I287170J0D01*
G01*
X77922030Y-64501800D01*
G75*
G02*
X78209200Y-64788970I0J-287170D01*
G01*
X78209200Y-65767030D01*
G75*
G02*
X77922030Y-66054200I-287170J0D01*
G01*
X77318970Y-66054200D01*
G75*
G02*
X77031800Y-65767030I0J287170D01*
G01*
G37*
G36*
G01*
X133626800Y-80504350D02*
X133626800Y-79515650D01*
G75*
G02*
X133908650Y-79233800I281850J0D01*
G01*
X134472350Y-79233800D01*
G75*
G02*
X134754200Y-79515650I0J-281850D01*
G01*
X134754200Y-80504350D01*
G75*
G02*
X134472350Y-80786200I-281850J0D01*
G01*
X133908650Y-80786200D01*
G75*
G02*
X133626800Y-80504350I0J281850D01*
G01*
G37*
G36*
G01*
X135501800Y-80504350D02*
X135501800Y-79515650D01*
G75*
G02*
X135783650Y-79233800I281850J0D01*
G01*
X136347350Y-79233800D01*
G75*
G02*
X136629200Y-79515650I0J-281850D01*
G01*
X136629200Y-80504350D01*
G75*
G02*
X136347350Y-80786200I-281850J0D01*
G01*
X135783650Y-80786200D01*
G75*
G02*
X135501800Y-80504350I0J281850D01*
G01*
G37*
G36*
G01*
X104492200Y-84073900D02*
X104492200Y-84450100D01*
G75*
G02*
X104304100Y-84638200I-188100J0D01*
G01*
X103202900Y-84638200D01*
G75*
G02*
X103014800Y-84450100I0J188100D01*
G01*
X103014800Y-84073900D01*
G75*
G02*
X103202900Y-83885800I188100J0D01*
G01*
X104304100Y-83885800D01*
G75*
G02*
X104492200Y-84073900I0J-188100D01*
G01*
G37*
G36*
G01*
X104492200Y-83123900D02*
X104492200Y-83500100D01*
G75*
G02*
X104304100Y-83688200I-188100J0D01*
G01*
X103202900Y-83688200D01*
G75*
G02*
X103014800Y-83500100I0J188100D01*
G01*
X103014800Y-83123900D01*
G75*
G02*
X103202900Y-82935800I188100J0D01*
G01*
X104304100Y-82935800D01*
G75*
G02*
X104492200Y-83123900I0J-188100D01*
G01*
G37*
G36*
G01*
X104492200Y-82173900D02*
X104492200Y-82550100D01*
G75*
G02*
X104304100Y-82738200I-188100J0D01*
G01*
X103202900Y-82738200D01*
G75*
G02*
X103014800Y-82550100I0J188100D01*
G01*
X103014800Y-82173900D01*
G75*
G02*
X103202900Y-81985800I188100J0D01*
G01*
X104304100Y-81985800D01*
G75*
G02*
X104492200Y-82173900I0J-188100D01*
G01*
G37*
G36*
G01*
X102217200Y-82173900D02*
X102217200Y-82550100D01*
G75*
G02*
X102029100Y-82738200I-188100J0D01*
G01*
X100927900Y-82738200D01*
G75*
G02*
X100739800Y-82550100I0J188100D01*
G01*
X100739800Y-82173900D01*
G75*
G02*
X100927900Y-81985800I188100J0D01*
G01*
X102029100Y-81985800D01*
G75*
G02*
X102217200Y-82173900I0J-188100D01*
G01*
G37*
G36*
G01*
X102217200Y-83123900D02*
X102217200Y-83500100D01*
G75*
G02*
X102029100Y-83688200I-188100J0D01*
G01*
X100927900Y-83688200D01*
G75*
G02*
X100739800Y-83500100I0J188100D01*
G01*
X100739800Y-83123900D01*
G75*
G02*
X100927900Y-82935800I188100J0D01*
G01*
X102029100Y-82935800D01*
G75*
G02*
X102217200Y-83123900I0J-188100D01*
G01*
G37*
G36*
G01*
X102217200Y-84073900D02*
X102217200Y-84450100D01*
G75*
G02*
X102029100Y-84638200I-188100J0D01*
G01*
X100927900Y-84638200D01*
G75*
G02*
X100739800Y-84450100I0J188100D01*
G01*
X100739800Y-84073900D01*
G75*
G02*
X100927900Y-83885800I188100J0D01*
G01*
X102029100Y-83885800D01*
G75*
G02*
X102217200Y-84073900I0J-188100D01*
G01*
G37*
G36*
G01*
X133718186Y-85010400D02*
X133718186Y-86277600D01*
G75*
G02*
X133559786Y-86436000I-158400J0D01*
G01*
X131572586Y-86436000D01*
G75*
G02*
X131414186Y-86277600I0J158400D01*
G01*
X131414186Y-85010400D01*
G75*
G02*
X131572586Y-84852000I158400J0D01*
G01*
X133559786Y-84852000D01*
G75*
G02*
X133718186Y-85010400I0J-158400D01*
G01*
G37*
G36*
G01*
X142818186Y-85010400D02*
X142818186Y-86277600D01*
G75*
G02*
X142659786Y-86436000I-158400J0D01*
G01*
X140672586Y-86436000D01*
G75*
G02*
X140514186Y-86277600I0J158400D01*
G01*
X140514186Y-85010400D01*
G75*
G02*
X140672586Y-84852000I158400J0D01*
G01*
X142659786Y-84852000D01*
G75*
G02*
X142818186Y-85010400I0J-158400D01*
G01*
G37*
G36*
G01*
X133718186Y-89490400D02*
X133718186Y-90757600D01*
G75*
G02*
X133559786Y-90916000I-158400J0D01*
G01*
X131572586Y-90916000D01*
G75*
G02*
X131414186Y-90757600I0J158400D01*
G01*
X131414186Y-89490400D01*
G75*
G02*
X131572586Y-89332000I158400J0D01*
G01*
X133559786Y-89332000D01*
G75*
G02*
X133718186Y-89490400I0J-158400D01*
G01*
G37*
G36*
G01*
X142818186Y-89490400D02*
X142818186Y-90757600D01*
G75*
G02*
X142659786Y-90916000I-158400J0D01*
G01*
X140672586Y-90916000D01*
G75*
G02*
X140514186Y-90757600I0J158400D01*
G01*
X140514186Y-89490400D01*
G75*
G02*
X140672586Y-89332000I158400J0D01*
G01*
X142659786Y-89332000D01*
G75*
G02*
X142818186Y-89490400I0J-158400D01*
G01*
G37*
G36*
G01*
X102831900Y-76009500D02*
X102831900Y-72580500D01*
G75*
G02*
X102908100Y-72504300I76200J0D01*
G01*
X104101900Y-72504300D01*
G75*
G02*
X104178100Y-72580500I0J-76200D01*
G01*
X104178100Y-76009500D01*
G75*
G02*
X104101900Y-76085700I-76200J0D01*
G01*
X102908100Y-76085700D01*
G75*
G02*
X102831900Y-76009500I0J76200D01*
G01*
G37*
G36*
G01*
X105371900Y-69862700D02*
X105371900Y-66408300D01*
G75*
G02*
X105448100Y-66332100I76200J0D01*
G01*
X106641900Y-66332100D01*
G75*
G02*
X106718100Y-66408300I0J-76200D01*
G01*
X106718100Y-69862700D01*
G75*
G02*
X106641900Y-69938900I-76200J0D01*
G01*
X105448100Y-69938900D01*
G75*
G02*
X105371900Y-69862700I0J76200D01*
G01*
G37*
G36*
G01*
X107911900Y-76009500D02*
X107911900Y-72580500D01*
G75*
G02*
X107988100Y-72504300I76200J0D01*
G01*
X109181900Y-72504300D01*
G75*
G02*
X109258100Y-72580500I0J-76200D01*
G01*
X109258100Y-76009500D01*
G75*
G02*
X109181900Y-76085700I-76200J0D01*
G01*
X107988100Y-76085700D01*
G75*
G02*
X107911900Y-76009500I0J76200D01*
G01*
G37*
G36*
G01*
X69347100Y-42735200D02*
X68320900Y-42735200D01*
G75*
G02*
X68032800Y-42447100I0J288100D01*
G01*
X68032800Y-41870900D01*
G75*
G02*
X68320900Y-41582800I288100J0D01*
G01*
X69347100Y-41582800D01*
G75*
G02*
X69635200Y-41870900I0J-288100D01*
G01*
X69635200Y-42447100D01*
G75*
G02*
X69347100Y-42735200I-288100J0D01*
G01*
G37*
G36*
G01*
X69347100Y-40835200D02*
X68320900Y-40835200D01*
G75*
G02*
X68032800Y-40547100I0J288100D01*
G01*
X68032800Y-39970900D01*
G75*
G02*
X68320900Y-39682800I288100J0D01*
G01*
X69347100Y-39682800D01*
G75*
G02*
X69635200Y-39970900I0J-288100D01*
G01*
X69635200Y-40547100D01*
G75*
G02*
X69347100Y-40835200I-288100J0D01*
G01*
G37*
G36*
G01*
X76218970Y-39707800D02*
X77197030Y-39707800D01*
G75*
G02*
X77484200Y-39994970I0J-287170D01*
G01*
X77484200Y-40598030D01*
G75*
G02*
X77197030Y-40885200I-287170J0D01*
G01*
X76218970Y-40885200D01*
G75*
G02*
X75931800Y-40598030I0J287170D01*
G01*
X75931800Y-39994970D01*
G75*
G02*
X76218970Y-39707800I287170J0D01*
G01*
G37*
G36*
G01*
X76218970Y-41532800D02*
X77197030Y-41532800D01*
G75*
G02*
X77484200Y-41819970I0J-287170D01*
G01*
X77484200Y-42423030D01*
G75*
G02*
X77197030Y-42710200I-287170J0D01*
G01*
X76218970Y-42710200D01*
G75*
G02*
X75931800Y-42423030I0J287170D01*
G01*
X75931800Y-41819970D01*
G75*
G02*
X76218970Y-41532800I287170J0D01*
G01*
G37*
G36*
G01*
X139544200Y-24577900D02*
X139544200Y-25904100D01*
G75*
G02*
X139356100Y-26092200I-188100J0D01*
G01*
X138979900Y-26092200D01*
G75*
G02*
X138791800Y-25904100I0J188100D01*
G01*
X138791800Y-24577900D01*
G75*
G02*
X138979900Y-24389800I188100J0D01*
G01*
X139356100Y-24389800D01*
G75*
G02*
X139544200Y-24577900I0J-188100D01*
G01*
G37*
G36*
G01*
X138544200Y-24577900D02*
X138544200Y-25904100D01*
G75*
G02*
X138356100Y-26092200I-188100J0D01*
G01*
X137979900Y-26092200D01*
G75*
G02*
X137791800Y-25904100I0J188100D01*
G01*
X137791800Y-24577900D01*
G75*
G02*
X137979900Y-24389800I188100J0D01*
G01*
X138356100Y-24389800D01*
G75*
G02*
X138544200Y-24577900I0J-188100D01*
G01*
G37*
G36*
G01*
X137544200Y-24577900D02*
X137544200Y-25904100D01*
G75*
G02*
X137356100Y-26092200I-188100J0D01*
G01*
X136979900Y-26092200D01*
G75*
G02*
X136791800Y-25904100I0J188100D01*
G01*
X136791800Y-24577900D01*
G75*
G02*
X136979900Y-24389800I188100J0D01*
G01*
X137356100Y-24389800D01*
G75*
G02*
X137544200Y-24577900I0J-188100D01*
G01*
G37*
G36*
G01*
X136544200Y-24577900D02*
X136544200Y-25904100D01*
G75*
G02*
X136356100Y-26092200I-188100J0D01*
G01*
X135979900Y-26092200D01*
G75*
G02*
X135791800Y-25904100I0J188100D01*
G01*
X135791800Y-24577900D01*
G75*
G02*
X135979900Y-24389800I188100J0D01*
G01*
X136356100Y-24389800D01*
G75*
G02*
X136544200Y-24577900I0J-188100D01*
G01*
G37*
G36*
G01*
X141144200Y-20671550D02*
X141144200Y-22060450D01*
G75*
G02*
X140862450Y-22342200I-281750J0D01*
G01*
X140073550Y-22342200D01*
G75*
G02*
X139791800Y-22060450I0J281750D01*
G01*
X139791800Y-20671550D01*
G75*
G02*
X140073550Y-20389800I281750J0D01*
G01*
X140862450Y-20389800D01*
G75*
G02*
X141144200Y-20671550I0J-281750D01*
G01*
G37*
G36*
G01*
X135544200Y-20671550D02*
X135544200Y-22060450D01*
G75*
G02*
X135262450Y-22342200I-281750J0D01*
G01*
X134473550Y-22342200D01*
G75*
G02*
X134191800Y-22060450I0J281750D01*
G01*
X134191800Y-20671550D01*
G75*
G02*
X134473550Y-20389800I281750J0D01*
G01*
X135262450Y-20389800D01*
G75*
G02*
X135544200Y-20671550I0J-281750D01*
G01*
G37*
G36*
G01*
X119408186Y-85010400D02*
X119408186Y-86277600D01*
G75*
G02*
X119249786Y-86436000I-158400J0D01*
G01*
X117262586Y-86436000D01*
G75*
G02*
X117104186Y-86277600I0J158400D01*
G01*
X117104186Y-85010400D01*
G75*
G02*
X117262586Y-84852000I158400J0D01*
G01*
X119249786Y-84852000D01*
G75*
G02*
X119408186Y-85010400I0J-158400D01*
G01*
G37*
G36*
G01*
X128508186Y-85010400D02*
X128508186Y-86277600D01*
G75*
G02*
X128349786Y-86436000I-158400J0D01*
G01*
X126362586Y-86436000D01*
G75*
G02*
X126204186Y-86277600I0J158400D01*
G01*
X126204186Y-85010400D01*
G75*
G02*
X126362586Y-84852000I158400J0D01*
G01*
X128349786Y-84852000D01*
G75*
G02*
X128508186Y-85010400I0J-158400D01*
G01*
G37*
G36*
G01*
X119408186Y-89490400D02*
X119408186Y-90757600D01*
G75*
G02*
X119249786Y-90916000I-158400J0D01*
G01*
X117262586Y-90916000D01*
G75*
G02*
X117104186Y-90757600I0J158400D01*
G01*
X117104186Y-89490400D01*
G75*
G02*
X117262586Y-89332000I158400J0D01*
G01*
X119249786Y-89332000D01*
G75*
G02*
X119408186Y-89490400I0J-158400D01*
G01*
G37*
G36*
G01*
X128508186Y-89490400D02*
X128508186Y-90757600D01*
G75*
G02*
X128349786Y-90916000I-158400J0D01*
G01*
X126362586Y-90916000D01*
G75*
G02*
X126204186Y-90757600I0J158400D01*
G01*
X126204186Y-89490400D01*
G75*
G02*
X126362586Y-89332000I158400J0D01*
G01*
X128349786Y-89332000D01*
G75*
G02*
X128508186Y-89490400I0J-158400D01*
G01*
G37*
G36*
G01*
X115674100Y-68446200D02*
X115397900Y-68446200D01*
G75*
G02*
X115259800Y-68308100I0J138100D01*
G01*
X115259800Y-66956900D01*
G75*
G02*
X115397900Y-66818800I138100J0D01*
G01*
X115674100Y-66818800D01*
G75*
G02*
X115812200Y-66956900I0J-138100D01*
G01*
X115812200Y-68308100D01*
G75*
G02*
X115674100Y-68446200I-138100J0D01*
G01*
G37*
G36*
G01*
X116324100Y-68446200D02*
X116047900Y-68446200D01*
G75*
G02*
X115909800Y-68308100I0J138100D01*
G01*
X115909800Y-66956900D01*
G75*
G02*
X116047900Y-66818800I138100J0D01*
G01*
X116324100Y-66818800D01*
G75*
G02*
X116462200Y-66956900I0J-138100D01*
G01*
X116462200Y-68308100D01*
G75*
G02*
X116324100Y-68446200I-138100J0D01*
G01*
G37*
G36*
G01*
X116974100Y-68446200D02*
X116697900Y-68446200D01*
G75*
G02*
X116559800Y-68308100I0J138100D01*
G01*
X116559800Y-66956900D01*
G75*
G02*
X116697900Y-66818800I138100J0D01*
G01*
X116974100Y-66818800D01*
G75*
G02*
X117112200Y-66956900I0J-138100D01*
G01*
X117112200Y-68308100D01*
G75*
G02*
X116974100Y-68446200I-138100J0D01*
G01*
G37*
G36*
G01*
X117624100Y-68446200D02*
X117347900Y-68446200D01*
G75*
G02*
X117209800Y-68308100I0J138100D01*
G01*
X117209800Y-66956900D01*
G75*
G02*
X117347900Y-66818800I138100J0D01*
G01*
X117624100Y-66818800D01*
G75*
G02*
X117762200Y-66956900I0J-138100D01*
G01*
X117762200Y-68308100D01*
G75*
G02*
X117624100Y-68446200I-138100J0D01*
G01*
G37*
G36*
G01*
X118274100Y-68446200D02*
X117997900Y-68446200D01*
G75*
G02*
X117859800Y-68308100I0J138100D01*
G01*
X117859800Y-66956900D01*
G75*
G02*
X117997900Y-66818800I138100J0D01*
G01*
X118274100Y-66818800D01*
G75*
G02*
X118412200Y-66956900I0J-138100D01*
G01*
X118412200Y-68308100D01*
G75*
G02*
X118274100Y-68446200I-138100J0D01*
G01*
G37*
G36*
G01*
X118924100Y-68446200D02*
X118647900Y-68446200D01*
G75*
G02*
X118509800Y-68308100I0J138100D01*
G01*
X118509800Y-66956900D01*
G75*
G02*
X118647900Y-66818800I138100J0D01*
G01*
X118924100Y-66818800D01*
G75*
G02*
X119062200Y-66956900I0J-138100D01*
G01*
X119062200Y-68308100D01*
G75*
G02*
X118924100Y-68446200I-138100J0D01*
G01*
G37*
G36*
G01*
X119574100Y-68446200D02*
X119297900Y-68446200D01*
G75*
G02*
X119159800Y-68308100I0J138100D01*
G01*
X119159800Y-66956900D01*
G75*
G02*
X119297900Y-66818800I138100J0D01*
G01*
X119574100Y-66818800D01*
G75*
G02*
X119712200Y-66956900I0J-138100D01*
G01*
X119712200Y-68308100D01*
G75*
G02*
X119574100Y-68446200I-138100J0D01*
G01*
G37*
G36*
G01*
X120224100Y-68446200D02*
X119947900Y-68446200D01*
G75*
G02*
X119809800Y-68308100I0J138100D01*
G01*
X119809800Y-66956900D01*
G75*
G02*
X119947900Y-66818800I138100J0D01*
G01*
X120224100Y-66818800D01*
G75*
G02*
X120362200Y-66956900I0J-138100D01*
G01*
X120362200Y-68308100D01*
G75*
G02*
X120224100Y-68446200I-138100J0D01*
G01*
G37*
G36*
G01*
X120874100Y-68446200D02*
X120597900Y-68446200D01*
G75*
G02*
X120459800Y-68308100I0J138100D01*
G01*
X120459800Y-66956900D01*
G75*
G02*
X120597900Y-66818800I138100J0D01*
G01*
X120874100Y-66818800D01*
G75*
G02*
X121012200Y-66956900I0J-138100D01*
G01*
X121012200Y-68308100D01*
G75*
G02*
X120874100Y-68446200I-138100J0D01*
G01*
G37*
G36*
G01*
X121524100Y-68446200D02*
X121247900Y-68446200D01*
G75*
G02*
X121109800Y-68308100I0J138100D01*
G01*
X121109800Y-66956900D01*
G75*
G02*
X121247900Y-66818800I138100J0D01*
G01*
X121524100Y-66818800D01*
G75*
G02*
X121662200Y-66956900I0J-138100D01*
G01*
X121662200Y-68308100D01*
G75*
G02*
X121524100Y-68446200I-138100J0D01*
G01*
G37*
G36*
G01*
X122174100Y-68446200D02*
X121897900Y-68446200D01*
G75*
G02*
X121759800Y-68308100I0J138100D01*
G01*
X121759800Y-66956900D01*
G75*
G02*
X121897900Y-66818800I138100J0D01*
G01*
X122174100Y-66818800D01*
G75*
G02*
X122312200Y-66956900I0J-138100D01*
G01*
X122312200Y-68308100D01*
G75*
G02*
X122174100Y-68446200I-138100J0D01*
G01*
G37*
G36*
G01*
X122824100Y-68446200D02*
X122547900Y-68446200D01*
G75*
G02*
X122409800Y-68308100I0J138100D01*
G01*
X122409800Y-66956900D01*
G75*
G02*
X122547900Y-66818800I138100J0D01*
G01*
X122824100Y-66818800D01*
G75*
G02*
X122962200Y-66956900I0J-138100D01*
G01*
X122962200Y-68308100D01*
G75*
G02*
X122824100Y-68446200I-138100J0D01*
G01*
G37*
G36*
G01*
X123474100Y-68446200D02*
X123197900Y-68446200D01*
G75*
G02*
X123059800Y-68308100I0J138100D01*
G01*
X123059800Y-66956900D01*
G75*
G02*
X123197900Y-66818800I138100J0D01*
G01*
X123474100Y-66818800D01*
G75*
G02*
X123612200Y-66956900I0J-138100D01*
G01*
X123612200Y-68308100D01*
G75*
G02*
X123474100Y-68446200I-138100J0D01*
G01*
G37*
G36*
G01*
X124124100Y-68446200D02*
X123847900Y-68446200D01*
G75*
G02*
X123709800Y-68308100I0J138100D01*
G01*
X123709800Y-66956900D01*
G75*
G02*
X123847900Y-66818800I138100J0D01*
G01*
X124124100Y-66818800D01*
G75*
G02*
X124262200Y-66956900I0J-138100D01*
G01*
X124262200Y-68308100D01*
G75*
G02*
X124124100Y-68446200I-138100J0D01*
G01*
G37*
G36*
G01*
X124124100Y-62721200D02*
X123847900Y-62721200D01*
G75*
G02*
X123709800Y-62583100I0J138100D01*
G01*
X123709800Y-61231900D01*
G75*
G02*
X123847900Y-61093800I138100J0D01*
G01*
X124124100Y-61093800D01*
G75*
G02*
X124262200Y-61231900I0J-138100D01*
G01*
X124262200Y-62583100D01*
G75*
G02*
X124124100Y-62721200I-138100J0D01*
G01*
G37*
G36*
G01*
X123474100Y-62721200D02*
X123197900Y-62721200D01*
G75*
G02*
X123059800Y-62583100I0J138100D01*
G01*
X123059800Y-61231900D01*
G75*
G02*
X123197900Y-61093800I138100J0D01*
G01*
X123474100Y-61093800D01*
G75*
G02*
X123612200Y-61231900I0J-138100D01*
G01*
X123612200Y-62583100D01*
G75*
G02*
X123474100Y-62721200I-138100J0D01*
G01*
G37*
G36*
G01*
X122824100Y-62721200D02*
X122547900Y-62721200D01*
G75*
G02*
X122409800Y-62583100I0J138100D01*
G01*
X122409800Y-61231900D01*
G75*
G02*
X122547900Y-61093800I138100J0D01*
G01*
X122824100Y-61093800D01*
G75*
G02*
X122962200Y-61231900I0J-138100D01*
G01*
X122962200Y-62583100D01*
G75*
G02*
X122824100Y-62721200I-138100J0D01*
G01*
G37*
G36*
G01*
X122174100Y-62721200D02*
X121897900Y-62721200D01*
G75*
G02*
X121759800Y-62583100I0J138100D01*
G01*
X121759800Y-61231900D01*
G75*
G02*
X121897900Y-61093800I138100J0D01*
G01*
X122174100Y-61093800D01*
G75*
G02*
X122312200Y-61231900I0J-138100D01*
G01*
X122312200Y-62583100D01*
G75*
G02*
X122174100Y-62721200I-138100J0D01*
G01*
G37*
G36*
G01*
X121524100Y-62721200D02*
X121247900Y-62721200D01*
G75*
G02*
X121109800Y-62583100I0J138100D01*
G01*
X121109800Y-61231900D01*
G75*
G02*
X121247900Y-61093800I138100J0D01*
G01*
X121524100Y-61093800D01*
G75*
G02*
X121662200Y-61231900I0J-138100D01*
G01*
X121662200Y-62583100D01*
G75*
G02*
X121524100Y-62721200I-138100J0D01*
G01*
G37*
G36*
G01*
X120874100Y-62721200D02*
X120597900Y-62721200D01*
G75*
G02*
X120459800Y-62583100I0J138100D01*
G01*
X120459800Y-61231900D01*
G75*
G02*
X120597900Y-61093800I138100J0D01*
G01*
X120874100Y-61093800D01*
G75*
G02*
X121012200Y-61231900I0J-138100D01*
G01*
X121012200Y-62583100D01*
G75*
G02*
X120874100Y-62721200I-138100J0D01*
G01*
G37*
G36*
G01*
X120224100Y-62721200D02*
X119947900Y-62721200D01*
G75*
G02*
X119809800Y-62583100I0J138100D01*
G01*
X119809800Y-61231900D01*
G75*
G02*
X119947900Y-61093800I138100J0D01*
G01*
X120224100Y-61093800D01*
G75*
G02*
X120362200Y-61231900I0J-138100D01*
G01*
X120362200Y-62583100D01*
G75*
G02*
X120224100Y-62721200I-138100J0D01*
G01*
G37*
G36*
G01*
X119574100Y-62721200D02*
X119297900Y-62721200D01*
G75*
G02*
X119159800Y-62583100I0J138100D01*
G01*
X119159800Y-61231900D01*
G75*
G02*
X119297900Y-61093800I138100J0D01*
G01*
X119574100Y-61093800D01*
G75*
G02*
X119712200Y-61231900I0J-138100D01*
G01*
X119712200Y-62583100D01*
G75*
G02*
X119574100Y-62721200I-138100J0D01*
G01*
G37*
G36*
G01*
X118924100Y-62721200D02*
X118647900Y-62721200D01*
G75*
G02*
X118509800Y-62583100I0J138100D01*
G01*
X118509800Y-61231900D01*
G75*
G02*
X118647900Y-61093800I138100J0D01*
G01*
X118924100Y-61093800D01*
G75*
G02*
X119062200Y-61231900I0J-138100D01*
G01*
X119062200Y-62583100D01*
G75*
G02*
X118924100Y-62721200I-138100J0D01*
G01*
G37*
G36*
G01*
X118274100Y-62721200D02*
X117997900Y-62721200D01*
G75*
G02*
X117859800Y-62583100I0J138100D01*
G01*
X117859800Y-61231900D01*
G75*
G02*
X117997900Y-61093800I138100J0D01*
G01*
X118274100Y-61093800D01*
G75*
G02*
X118412200Y-61231900I0J-138100D01*
G01*
X118412200Y-62583100D01*
G75*
G02*
X118274100Y-62721200I-138100J0D01*
G01*
G37*
G36*
G01*
X117624100Y-62721200D02*
X117347900Y-62721200D01*
G75*
G02*
X117209800Y-62583100I0J138100D01*
G01*
X117209800Y-61231900D01*
G75*
G02*
X117347900Y-61093800I138100J0D01*
G01*
X117624100Y-61093800D01*
G75*
G02*
X117762200Y-61231900I0J-138100D01*
G01*
X117762200Y-62583100D01*
G75*
G02*
X117624100Y-62721200I-138100J0D01*
G01*
G37*
G36*
G01*
X116974100Y-62721200D02*
X116697900Y-62721200D01*
G75*
G02*
X116559800Y-62583100I0J138100D01*
G01*
X116559800Y-61231900D01*
G75*
G02*
X116697900Y-61093800I138100J0D01*
G01*
X116974100Y-61093800D01*
G75*
G02*
X117112200Y-61231900I0J-138100D01*
G01*
X117112200Y-62583100D01*
G75*
G02*
X116974100Y-62721200I-138100J0D01*
G01*
G37*
G36*
G01*
X116324100Y-62721200D02*
X116047900Y-62721200D01*
G75*
G02*
X115909800Y-62583100I0J138100D01*
G01*
X115909800Y-61231900D01*
G75*
G02*
X116047900Y-61093800I138100J0D01*
G01*
X116324100Y-61093800D01*
G75*
G02*
X116462200Y-61231900I0J-138100D01*
G01*
X116462200Y-62583100D01*
G75*
G02*
X116324100Y-62721200I-138100J0D01*
G01*
G37*
G36*
G01*
X115674100Y-62721200D02*
X115397900Y-62721200D01*
G75*
G02*
X115259800Y-62583100I0J138100D01*
G01*
X115259800Y-61231900D01*
G75*
G02*
X115397900Y-61093800I138100J0D01*
G01*
X115674100Y-61093800D01*
G75*
G02*
X115812200Y-61231900I0J-138100D01*
G01*
X115812200Y-62583100D01*
G75*
G02*
X115674100Y-62721200I-138100J0D01*
G01*
G37*
G36*
G01*
X84579800Y-62997100D02*
X84579800Y-61970900D01*
G75*
G02*
X84867900Y-61682800I288100J0D01*
G01*
X85444100Y-61682800D01*
G75*
G02*
X85732200Y-61970900I0J-288100D01*
G01*
X85732200Y-62997100D01*
G75*
G02*
X85444100Y-63285200I-288100J0D01*
G01*
X84867900Y-63285200D01*
G75*
G02*
X84579800Y-62997100I0J288100D01*
G01*
G37*
G36*
G01*
X86479800Y-62997100D02*
X86479800Y-61970900D01*
G75*
G02*
X86767900Y-61682800I288100J0D01*
G01*
X87344100Y-61682800D01*
G75*
G02*
X87632200Y-61970900I0J-288100D01*
G01*
X87632200Y-62997100D01*
G75*
G02*
X87344100Y-63285200I-288100J0D01*
G01*
X86767900Y-63285200D01*
G75*
G02*
X86479800Y-62997100I0J288100D01*
G01*
G37*
G36*
G01*
X109578200Y-78885970D02*
X109578200Y-79864030D01*
G75*
G02*
X109291030Y-80151200I-287170J0D01*
G01*
X108687970Y-80151200D01*
G75*
G02*
X108400800Y-79864030I0J287170D01*
G01*
X108400800Y-78885970D01*
G75*
G02*
X108687970Y-78598800I287170J0D01*
G01*
X109291030Y-78598800D01*
G75*
G02*
X109578200Y-78885970I0J-287170D01*
G01*
G37*
G36*
G01*
X107753200Y-78885970D02*
X107753200Y-79864030D01*
G75*
G02*
X107466030Y-80151200I-287170J0D01*
G01*
X106862970Y-80151200D01*
G75*
G02*
X106575800Y-79864030I0J287170D01*
G01*
X106575800Y-78885970D01*
G75*
G02*
X106862970Y-78598800I287170J0D01*
G01*
X107466030Y-78598800D01*
G75*
G02*
X107753200Y-78885970I0J-287170D01*
G01*
G37*
G36*
G01*
X72014100Y-42735200D02*
X70987900Y-42735200D01*
G75*
G02*
X70699800Y-42447100I0J288100D01*
G01*
X70699800Y-41870900D01*
G75*
G02*
X70987900Y-41582800I288100J0D01*
G01*
X72014100Y-41582800D01*
G75*
G02*
X72302200Y-41870900I0J-288100D01*
G01*
X72302200Y-42447100D01*
G75*
G02*
X72014100Y-42735200I-288100J0D01*
G01*
G37*
G36*
G01*
X72014100Y-40835200D02*
X70987900Y-40835200D01*
G75*
G02*
X70699800Y-40547100I0J288100D01*
G01*
X70699800Y-39970900D01*
G75*
G02*
X70987900Y-39682800I288100J0D01*
G01*
X72014100Y-39682800D01*
G75*
G02*
X72302200Y-39970900I0J-288100D01*
G01*
X72302200Y-40547100D01*
G75*
G02*
X72014100Y-40835200I-288100J0D01*
G01*
G37*
G36*
G01*
X109542200Y-83687900D02*
X109542200Y-84714100D01*
G75*
G02*
X109254100Y-85002200I-288100J0D01*
G01*
X108677900Y-85002200D01*
G75*
G02*
X108389800Y-84714100I0J288100D01*
G01*
X108389800Y-83687900D01*
G75*
G02*
X108677900Y-83399800I288100J0D01*
G01*
X109254100Y-83399800D01*
G75*
G02*
X109542200Y-83687900I0J-288100D01*
G01*
G37*
G36*
G01*
X107642200Y-83687900D02*
X107642200Y-84714100D01*
G75*
G02*
X107354100Y-85002200I-288100J0D01*
G01*
X106777900Y-85002200D01*
G75*
G02*
X106489800Y-84714100I0J288100D01*
G01*
X106489800Y-83687900D01*
G75*
G02*
X106777900Y-83399800I288100J0D01*
G01*
X107354100Y-83399800D01*
G75*
G02*
X107642200Y-83687900I0J-288100D01*
G01*
G37*
G36*
G01*
X121303970Y-69745800D02*
X122282030Y-69745800D01*
G75*
G02*
X122569200Y-70032970I0J-287170D01*
G01*
X122569200Y-70636030D01*
G75*
G02*
X122282030Y-70923200I-287170J0D01*
G01*
X121303970Y-70923200D01*
G75*
G02*
X121016800Y-70636030I0J287170D01*
G01*
X121016800Y-70032970D01*
G75*
G02*
X121303970Y-69745800I287170J0D01*
G01*
G37*
G36*
G01*
X121303970Y-71570800D02*
X122282030Y-71570800D01*
G75*
G02*
X122569200Y-71857970I0J-287170D01*
G01*
X122569200Y-72461030D01*
G75*
G02*
X122282030Y-72748200I-287170J0D01*
G01*
X121303970Y-72748200D01*
G75*
G02*
X121016800Y-72461030I0J287170D01*
G01*
X121016800Y-71857970D01*
G75*
G02*
X121303970Y-71570800I287170J0D01*
G01*
G37*
G36*
G01*
X106550800Y-82301100D02*
X106550800Y-81274900D01*
G75*
G02*
X106838900Y-80986800I288100J0D01*
G01*
X107415100Y-80986800D01*
G75*
G02*
X107703200Y-81274900I0J-288100D01*
G01*
X107703200Y-82301100D01*
G75*
G02*
X107415100Y-82589200I-288100J0D01*
G01*
X106838900Y-82589200D01*
G75*
G02*
X106550800Y-82301100I0J288100D01*
G01*
G37*
G36*
G01*
X108450800Y-82301100D02*
X108450800Y-81274900D01*
G75*
G02*
X108738900Y-80986800I288100J0D01*
G01*
X109315100Y-80986800D01*
G75*
G02*
X109603200Y-81274900I0J-288100D01*
G01*
X109603200Y-82301100D01*
G75*
G02*
X109315100Y-82589200I-288100J0D01*
G01*
X108738900Y-82589200D01*
G75*
G02*
X108450800Y-82301100I0J288100D01*
G01*
G37*
G36*
G01*
X128749200Y-24577900D02*
X128749200Y-25904100D01*
G75*
G02*
X128561100Y-26092200I-188100J0D01*
G01*
X128184900Y-26092200D01*
G75*
G02*
X127996800Y-25904100I0J188100D01*
G01*
X127996800Y-24577900D01*
G75*
G02*
X128184900Y-24389800I188100J0D01*
G01*
X128561100Y-24389800D01*
G75*
G02*
X128749200Y-24577900I0J-188100D01*
G01*
G37*
G36*
G01*
X127749200Y-24577900D02*
X127749200Y-25904100D01*
G75*
G02*
X127561100Y-26092200I-188100J0D01*
G01*
X127184900Y-26092200D01*
G75*
G02*
X126996800Y-25904100I0J188100D01*
G01*
X126996800Y-24577900D01*
G75*
G02*
X127184900Y-24389800I188100J0D01*
G01*
X127561100Y-24389800D01*
G75*
G02*
X127749200Y-24577900I0J-188100D01*
G01*
G37*
G36*
G01*
X126749200Y-24577900D02*
X126749200Y-25904100D01*
G75*
G02*
X126561100Y-26092200I-188100J0D01*
G01*
X126184900Y-26092200D01*
G75*
G02*
X125996800Y-25904100I0J188100D01*
G01*
X125996800Y-24577900D01*
G75*
G02*
X126184900Y-24389800I188100J0D01*
G01*
X126561100Y-24389800D01*
G75*
G02*
X126749200Y-24577900I0J-188100D01*
G01*
G37*
G36*
G01*
X125749200Y-24577900D02*
X125749200Y-25904100D01*
G75*
G02*
X125561100Y-26092200I-188100J0D01*
G01*
X125184900Y-26092200D01*
G75*
G02*
X124996800Y-25904100I0J188100D01*
G01*
X124996800Y-24577900D01*
G75*
G02*
X125184900Y-24389800I188100J0D01*
G01*
X125561100Y-24389800D01*
G75*
G02*
X125749200Y-24577900I0J-188100D01*
G01*
G37*
G36*
G01*
X130349200Y-20671550D02*
X130349200Y-22060450D01*
G75*
G02*
X130067450Y-22342200I-281750J0D01*
G01*
X129278550Y-22342200D01*
G75*
G02*
X128996800Y-22060450I0J281750D01*
G01*
X128996800Y-20671550D01*
G75*
G02*
X129278550Y-20389800I281750J0D01*
G01*
X130067450Y-20389800D01*
G75*
G02*
X130349200Y-20671550I0J-281750D01*
G01*
G37*
G36*
G01*
X124749200Y-20671550D02*
X124749200Y-22060450D01*
G75*
G02*
X124467450Y-22342200I-281750J0D01*
G01*
X123678550Y-22342200D01*
G75*
G02*
X123396800Y-22060450I0J281750D01*
G01*
X123396800Y-20671550D01*
G75*
G02*
X123678550Y-20389800I281750J0D01*
G01*
X124467450Y-20389800D01*
G75*
G02*
X124749200Y-20671550I0J-281750D01*
G01*
G37*
G36*
G01*
X36970650Y-39265800D02*
X37959350Y-39265800D01*
G75*
G02*
X38241200Y-39547650I0J-281850D01*
G01*
X38241200Y-40111350D01*
G75*
G02*
X37959350Y-40393200I-281850J0D01*
G01*
X36970650Y-40393200D01*
G75*
G02*
X36688800Y-40111350I0J281850D01*
G01*
X36688800Y-39547650D01*
G75*
G02*
X36970650Y-39265800I281850J0D01*
G01*
G37*
G36*
G01*
X36970650Y-41140800D02*
X37959350Y-41140800D01*
G75*
G02*
X38241200Y-41422650I0J-281850D01*
G01*
X38241200Y-41986350D01*
G75*
G02*
X37959350Y-42268200I-281850J0D01*
G01*
X36970650Y-42268200D01*
G75*
G02*
X36688800Y-41986350I0J281850D01*
G01*
X36688800Y-41422650D01*
G75*
G02*
X36970650Y-41140800I281850J0D01*
G01*
G37*
G36*
G01*
X130325850Y-41761700D02*
X129299650Y-41761700D01*
G75*
G02*
X129011550Y-41473600I0J288100D01*
G01*
X129011550Y-40897400D01*
G75*
G02*
X129299650Y-40609300I288100J0D01*
G01*
X130325850Y-40609300D01*
G75*
G02*
X130613950Y-40897400I0J-288100D01*
G01*
X130613950Y-41473600D01*
G75*
G02*
X130325850Y-41761700I-288100J0D01*
G01*
G37*
G36*
G01*
X130325850Y-39861700D02*
X129299650Y-39861700D01*
G75*
G02*
X129011550Y-39573600I0J288100D01*
G01*
X129011550Y-38997400D01*
G75*
G02*
X129299650Y-38709300I288100J0D01*
G01*
X130325850Y-38709300D01*
G75*
G02*
X130613950Y-38997400I0J-288100D01*
G01*
X130613950Y-39573600D01*
G75*
G02*
X130325850Y-39861700I-288100J0D01*
G01*
G37*
G36*
G01*
X100139800Y-80269100D02*
X100139800Y-79242900D01*
G75*
G02*
X100427900Y-78954800I288100J0D01*
G01*
X101004100Y-78954800D01*
G75*
G02*
X101292200Y-79242900I0J-288100D01*
G01*
X101292200Y-80269100D01*
G75*
G02*
X101004100Y-80557200I-288100J0D01*
G01*
X100427900Y-80557200D01*
G75*
G02*
X100139800Y-80269100I0J288100D01*
G01*
G37*
G36*
G01*
X102039800Y-80269100D02*
X102039800Y-79242900D01*
G75*
G02*
X102327900Y-78954800I288100J0D01*
G01*
X102904100Y-78954800D01*
G75*
G02*
X103192200Y-79242900I0J-288100D01*
G01*
X103192200Y-80269100D01*
G75*
G02*
X102904100Y-80557200I-288100J0D01*
G01*
X102327900Y-80557200D01*
G75*
G02*
X102039800Y-80269100I0J288100D01*
G01*
G37*
G36*
G01*
X32299540Y-71992800D02*
X34421460Y-71992800D01*
G75*
G02*
X34686700Y-72258040I0J-265240D01*
G01*
X34686700Y-74379960D01*
G75*
G02*
X34421460Y-74645200I-265240J0D01*
G01*
X32299540Y-74645200D01*
G75*
G02*
X32034300Y-74379960I0J265240D01*
G01*
X32034300Y-72258040D01*
G75*
G02*
X32299540Y-71992800I265240J0D01*
G01*
G37*
D11*
X33360500Y-78319000D03*
D12*
X66167000Y-75438000D03*
G36*
G01*
X70212000Y-77093000D02*
X70212000Y-77593000D01*
G75*
G02*
X70142000Y-77663000I-70000J0D01*
G01*
X67942000Y-77663000D01*
G75*
G02*
X67872000Y-77593000I0J70000D01*
G01*
X67872000Y-77093000D01*
G75*
G02*
X67942000Y-77023000I70000J0D01*
G01*
X70142000Y-77023000D01*
G75*
G02*
X70212000Y-77093000I0J-70000D01*
G01*
G37*
G36*
G01*
X70212000Y-75823000D02*
X70212000Y-76323000D01*
G75*
G02*
X70142000Y-76393000I-70000J0D01*
G01*
X67942000Y-76393000D01*
G75*
G02*
X67872000Y-76323000I0J70000D01*
G01*
X67872000Y-75823000D01*
G75*
G02*
X67942000Y-75753000I70000J0D01*
G01*
X70142000Y-75753000D01*
G75*
G02*
X70212000Y-75823000I0J-70000D01*
G01*
G37*
G36*
G01*
X70212000Y-74553000D02*
X70212000Y-75053000D01*
G75*
G02*
X70142000Y-75123000I-70000J0D01*
G01*
X67942000Y-75123000D01*
G75*
G02*
X67872000Y-75053000I0J70000D01*
G01*
X67872000Y-74553000D01*
G75*
G02*
X67942000Y-74483000I70000J0D01*
G01*
X70142000Y-74483000D01*
G75*
G02*
X70212000Y-74553000I0J-70000D01*
G01*
G37*
G36*
G01*
X70212000Y-73283000D02*
X70212000Y-73783000D01*
G75*
G02*
X70142000Y-73853000I-70000J0D01*
G01*
X67942000Y-73853000D01*
G75*
G02*
X67872000Y-73783000I0J70000D01*
G01*
X67872000Y-73283000D01*
G75*
G02*
X67942000Y-73213000I70000J0D01*
G01*
X70142000Y-73213000D01*
G75*
G02*
X70212000Y-73283000I0J-70000D01*
G01*
G37*
G36*
G01*
X64462000Y-73283000D02*
X64462000Y-73783000D01*
G75*
G02*
X64392000Y-73853000I-70000J0D01*
G01*
X62192000Y-73853000D01*
G75*
G02*
X62122000Y-73783000I0J70000D01*
G01*
X62122000Y-73283000D01*
G75*
G02*
X62192000Y-73213000I70000J0D01*
G01*
X64392000Y-73213000D01*
G75*
G02*
X64462000Y-73283000I0J-70000D01*
G01*
G37*
G36*
G01*
X64462000Y-74553000D02*
X64462000Y-75053000D01*
G75*
G02*
X64392000Y-75123000I-70000J0D01*
G01*
X62192000Y-75123000D01*
G75*
G02*
X62122000Y-75053000I0J70000D01*
G01*
X62122000Y-74553000D01*
G75*
G02*
X62192000Y-74483000I70000J0D01*
G01*
X64392000Y-74483000D01*
G75*
G02*
X64462000Y-74553000I0J-70000D01*
G01*
G37*
G36*
G01*
X64462000Y-75823000D02*
X64462000Y-76323000D01*
G75*
G02*
X64392000Y-76393000I-70000J0D01*
G01*
X62192000Y-76393000D01*
G75*
G02*
X62122000Y-76323000I0J70000D01*
G01*
X62122000Y-75823000D01*
G75*
G02*
X62192000Y-75753000I70000J0D01*
G01*
X64392000Y-75753000D01*
G75*
G02*
X64462000Y-75823000I0J-70000D01*
G01*
G37*
G36*
G01*
X64462000Y-77093000D02*
X64462000Y-77593000D01*
G75*
G02*
X64392000Y-77663000I-70000J0D01*
G01*
X62192000Y-77663000D01*
G75*
G02*
X62122000Y-77593000I0J70000D01*
G01*
X62122000Y-77093000D01*
G75*
G02*
X62192000Y-77023000I70000J0D01*
G01*
X64392000Y-77023000D01*
G75*
G02*
X64462000Y-77093000I0J-70000D01*
G01*
G37*
D13*
X66817000Y-76738000D03*
X66817000Y-75438000D03*
X66817000Y-74138000D03*
X65517000Y-76738000D03*
X65517000Y-75438000D03*
X65517000Y-74138000D03*
G36*
G01*
X53825200Y-80430050D02*
X53825200Y-81418750D01*
G75*
G02*
X53543350Y-81700600I-281850J0D01*
G01*
X52979650Y-81700600D01*
G75*
G02*
X52697800Y-81418750I0J281850D01*
G01*
X52697800Y-80430050D01*
G75*
G02*
X52979650Y-80148200I281850J0D01*
G01*
X53543350Y-80148200D01*
G75*
G02*
X53825200Y-80430050I0J-281850D01*
G01*
G37*
G36*
G01*
X51950200Y-80430050D02*
X51950200Y-81418750D01*
G75*
G02*
X51668350Y-81700600I-281850J0D01*
G01*
X51104650Y-81700600D01*
G75*
G02*
X50822800Y-81418750I0J281850D01*
G01*
X50822800Y-80430050D01*
G75*
G02*
X51104650Y-80148200I281850J0D01*
G01*
X51668350Y-80148200D01*
G75*
G02*
X51950200Y-80430050I0J-281850D01*
G01*
G37*
G36*
G01*
X40601050Y-74254400D02*
X40601050Y-72354400D01*
G75*
G02*
X40677250Y-72278200I76200J0D01*
G01*
X42077250Y-72278200D01*
G75*
G02*
X42153450Y-72354400I0J-76200D01*
G01*
X42153450Y-74254400D01*
G75*
G02*
X42077250Y-74330600I-76200J0D01*
G01*
X40677250Y-74330600D01*
G75*
G02*
X40601050Y-74254400I0J76200D01*
G01*
G37*
G36*
G01*
X43901050Y-74254400D02*
X43901050Y-72354400D01*
G75*
G02*
X43977250Y-72278200I76200J0D01*
G01*
X45377250Y-72278200D01*
G75*
G02*
X45453450Y-72354400I0J-76200D01*
G01*
X45453450Y-74254400D01*
G75*
G02*
X45377250Y-74330600I-76200J0D01*
G01*
X43977250Y-74330600D01*
G75*
G02*
X43901050Y-74254400I0J76200D01*
G01*
G37*
G36*
G01*
X71142800Y-63105350D02*
X71142800Y-62116650D01*
G75*
G02*
X71424650Y-61834800I281850J0D01*
G01*
X71988350Y-61834800D01*
G75*
G02*
X72270200Y-62116650I0J-281850D01*
G01*
X72270200Y-63105350D01*
G75*
G02*
X71988350Y-63387200I-281850J0D01*
G01*
X71424650Y-63387200D01*
G75*
G02*
X71142800Y-63105350I0J281850D01*
G01*
G37*
G36*
G01*
X73017800Y-63105350D02*
X73017800Y-62116650D01*
G75*
G02*
X73299650Y-61834800I281850J0D01*
G01*
X73863350Y-61834800D01*
G75*
G02*
X74145200Y-62116650I0J-281850D01*
G01*
X74145200Y-63105350D01*
G75*
G02*
X73863350Y-63387200I-281850J0D01*
G01*
X73299650Y-63387200D01*
G75*
G02*
X73017800Y-63105350I0J281850D01*
G01*
G37*
G36*
G01*
X114445970Y-69745800D02*
X115424030Y-69745800D01*
G75*
G02*
X115711200Y-70032970I0J-287170D01*
G01*
X115711200Y-70636030D01*
G75*
G02*
X115424030Y-70923200I-287170J0D01*
G01*
X114445970Y-70923200D01*
G75*
G02*
X114158800Y-70636030I0J287170D01*
G01*
X114158800Y-70032970D01*
G75*
G02*
X114445970Y-69745800I287170J0D01*
G01*
G37*
G36*
G01*
X114445970Y-71570800D02*
X115424030Y-71570800D01*
G75*
G02*
X115711200Y-71857970I0J-287170D01*
G01*
X115711200Y-72461030D01*
G75*
G02*
X115424030Y-72748200I-287170J0D01*
G01*
X114445970Y-72748200D01*
G75*
G02*
X114158800Y-72461030I0J287170D01*
G01*
X114158800Y-71857970D01*
G75*
G02*
X114445970Y-71570800I287170J0D01*
G01*
G37*
G36*
G01*
X44853800Y-44431030D02*
X44853800Y-43452970D01*
G75*
G02*
X45140970Y-43165800I287170J0D01*
G01*
X45744030Y-43165800D01*
G75*
G02*
X46031200Y-43452970I0J-287170D01*
G01*
X46031200Y-44431030D01*
G75*
G02*
X45744030Y-44718200I-287170J0D01*
G01*
X45140970Y-44718200D01*
G75*
G02*
X44853800Y-44431030I0J287170D01*
G01*
G37*
G36*
G01*
X46678800Y-44431030D02*
X46678800Y-43452970D01*
G75*
G02*
X46965970Y-43165800I287170J0D01*
G01*
X47569030Y-43165800D01*
G75*
G02*
X47856200Y-43452970I0J-287170D01*
G01*
X47856200Y-44431030D01*
G75*
G02*
X47569030Y-44718200I-287170J0D01*
G01*
X46965970Y-44718200D01*
G75*
G02*
X46678800Y-44431030I0J287170D01*
G01*
G37*
G36*
G01*
X49908800Y-67442100D02*
X49908800Y-66415900D01*
G75*
G02*
X50196900Y-66127800I288100J0D01*
G01*
X50773100Y-66127800D01*
G75*
G02*
X51061200Y-66415900I0J-288100D01*
G01*
X51061200Y-67442100D01*
G75*
G02*
X50773100Y-67730200I-288100J0D01*
G01*
X50196900Y-67730200D01*
G75*
G02*
X49908800Y-67442100I0J288100D01*
G01*
G37*
G36*
G01*
X51808800Y-67442100D02*
X51808800Y-66415900D01*
G75*
G02*
X52096900Y-66127800I288100J0D01*
G01*
X52673100Y-66127800D01*
G75*
G02*
X52961200Y-66415900I0J-288100D01*
G01*
X52961200Y-67442100D01*
G75*
G02*
X52673100Y-67730200I-288100J0D01*
G01*
X52096900Y-67730200D01*
G75*
G02*
X51808800Y-67442100I0J288100D01*
G01*
G37*
G36*
G01*
X75183300Y-63100030D02*
X75183300Y-62121970D01*
G75*
G02*
X75470470Y-61834800I287170J0D01*
G01*
X76073530Y-61834800D01*
G75*
G02*
X76360700Y-62121970I0J-287170D01*
G01*
X76360700Y-63100030D01*
G75*
G02*
X76073530Y-63387200I-287170J0D01*
G01*
X75470470Y-63387200D01*
G75*
G02*
X75183300Y-63100030I0J287170D01*
G01*
G37*
G36*
G01*
X77008300Y-63100030D02*
X77008300Y-62121970D01*
G75*
G02*
X77295470Y-61834800I287170J0D01*
G01*
X77898530Y-61834800D01*
G75*
G02*
X78185700Y-62121970I0J-287170D01*
G01*
X78185700Y-63100030D01*
G75*
G02*
X77898530Y-63387200I-287170J0D01*
G01*
X77295470Y-63387200D01*
G75*
G02*
X77008300Y-63100030I0J287170D01*
G01*
G37*
G36*
G01*
X130578800Y-47352030D02*
X130578800Y-46373970D01*
G75*
G02*
X130865970Y-46086800I287170J0D01*
G01*
X131469030Y-46086800D01*
G75*
G02*
X131756200Y-46373970I0J-287170D01*
G01*
X131756200Y-47352030D01*
G75*
G02*
X131469030Y-47639200I-287170J0D01*
G01*
X130865970Y-47639200D01*
G75*
G02*
X130578800Y-47352030I0J287170D01*
G01*
G37*
G36*
G01*
X132403800Y-47352030D02*
X132403800Y-46373970D01*
G75*
G02*
X132690970Y-46086800I287170J0D01*
G01*
X133294030Y-46086800D01*
G75*
G02*
X133581200Y-46373970I0J-287170D01*
G01*
X133581200Y-47352030D01*
G75*
G02*
X133294030Y-47639200I-287170J0D01*
G01*
X132690970Y-47639200D01*
G75*
G02*
X132403800Y-47352030I0J287170D01*
G01*
G37*
M02*
