G04 #@! TF.GenerationSoftware,KiCad,Pcbnew,9.0.7-9.0.7~ubuntu24.04.1*
G04 #@! TF.CreationDate,2026-03-17T19:45:28-06:00*
G04 #@! TF.ProjectId,ckt-xing-adv,636b742d-7869-46e6-972d-6164762e6b69,rev?*
G04 #@! TF.SameCoordinates,Original*
G04 #@! TF.FileFunction,Copper,L2,Bot*
G04 #@! TF.FilePolarity,Positive*
%FSLAX46Y46*%
G04 Gerber Fmt 4.6, Leading zero omitted, Abs format (unit mm)*
G04 Created by KiCad (PCBNEW 9.0.7-9.0.7~ubuntu24.04.1) date 2026-03-17 19:45:28*
%MOMM*%
%LPD*%
G01*
G04 APERTURE LIST*
G04 #@! TA.AperFunction,ComponentPad*
%ADD10C,6.400000*%
G04 #@! TD*
G04 #@! TA.AperFunction,ComponentPad*
%ADD11C,2.500000*%
G04 #@! TD*
G04 #@! TA.AperFunction,ComponentPad*
%ADD12C,0.630000*%
G04 #@! TD*
G04 #@! TA.AperFunction,SMDPad,CuDef*
%ADD13R,2.600000X3.300000*%
G04 #@! TD*
G04 #@! TA.AperFunction,SMDPad,CuDef*
%ADD14C,2.000000*%
G04 #@! TD*
G04 #@! TA.AperFunction,ViaPad*
%ADD15C,0.800000*%
G04 #@! TD*
G04 #@! TA.AperFunction,Conductor*
%ADD16C,1.016000*%
G04 #@! TD*
G04 #@! TA.AperFunction,Conductor*
%ADD17C,0.508000*%
G04 #@! TD*
G04 #@! TA.AperFunction,Conductor*
%ADD18C,0.254000*%
G04 #@! TD*
G04 #@! TA.AperFunction,Conductor*
%ADD19C,0.250000*%
G04 #@! TD*
G04 APERTURE END LIST*
D10*
X29718000Y-23368000D03*
G04 #@! TA.AperFunction,ComponentPad*
G36*
G01*
X32269400Y-57093800D02*
X34269400Y-57093800D01*
G75*
G02*
X34519400Y-57343800I0J-250000D01*
G01*
X34519400Y-59343800D01*
G75*
G02*
X34269400Y-59593800I-250000J0D01*
G01*
X32269400Y-59593800D01*
G75*
G02*
X32019400Y-59343800I0J250000D01*
G01*
X32019400Y-57343800D01*
G75*
G02*
X32269400Y-57093800I250000J0D01*
G01*
G37*
G04 #@! TD.AperFunction*
D11*
X33269400Y-63343800D03*
D10*
X29718000Y-90932000D03*
X148082000Y-90932000D03*
D12*
X54345600Y-76763400D03*
X54345600Y-75463400D03*
X54345600Y-74163400D03*
D13*
X53695600Y-75463400D03*
D12*
X53045600Y-76763400D03*
X53045600Y-75463400D03*
X53045600Y-74163400D03*
G04 #@! TA.AperFunction,ComponentPad*
G36*
G01*
X62228400Y-88223600D02*
X62228400Y-86223600D01*
G75*
G02*
X62478400Y-85973600I250000J0D01*
G01*
X64478400Y-85973600D01*
G75*
G02*
X64728400Y-86223600I0J-250000D01*
G01*
X64728400Y-88223600D01*
G75*
G02*
X64478400Y-88473600I-250000J0D01*
G01*
X62478400Y-88473600D01*
G75*
G02*
X62228400Y-88223600I0J250000D01*
G01*
G37*
G04 #@! TD.AperFunction*
D11*
X68478400Y-87223600D03*
G04 #@! TA.AperFunction,ComponentPad*
G36*
G01*
X32269400Y-46855400D02*
X34269400Y-46855400D01*
G75*
G02*
X34519400Y-47105400I0J-250000D01*
G01*
X34519400Y-49105400D01*
G75*
G02*
X34269400Y-49355400I-250000J0D01*
G01*
X32269400Y-49355400D01*
G75*
G02*
X32019400Y-49105400I0J250000D01*
G01*
X32019400Y-47105400D01*
G75*
G02*
X32269400Y-46855400I250000J0D01*
G01*
G37*
G04 #@! TD.AperFunction*
X33269400Y-53105400D03*
G04 #@! TA.AperFunction,ComponentPad*
G36*
G01*
X46288000Y-88289500D02*
X46288000Y-86289500D01*
G75*
G02*
X46538000Y-86039500I250000J0D01*
G01*
X48538000Y-86039500D01*
G75*
G02*
X48788000Y-86289500I0J-250000D01*
G01*
X48788000Y-88289500D01*
G75*
G02*
X48538000Y-88539500I-250000J0D01*
G01*
X46538000Y-88539500D01*
G75*
G02*
X46288000Y-88289500I0J250000D01*
G01*
G37*
G04 #@! TD.AperFunction*
X52538000Y-87289500D03*
D10*
X148082000Y-23368000D03*
G04 #@! TA.AperFunction,ComponentPad*
G36*
G01*
X32360500Y-72069000D02*
X34360500Y-72069000D01*
G75*
G02*
X34610500Y-72319000I0J-250000D01*
G01*
X34610500Y-74319000D01*
G75*
G02*
X34360500Y-74569000I-250000J0D01*
G01*
X32360500Y-74569000D01*
G75*
G02*
X32110500Y-74319000I0J250000D01*
G01*
X32110500Y-72319000D01*
G75*
G02*
X32360500Y-72069000I250000J0D01*
G01*
G37*
G04 #@! TD.AperFunction*
D11*
X33360500Y-78319000D03*
D12*
X66817000Y-76738000D03*
X66817000Y-75438000D03*
X66817000Y-74138000D03*
D13*
X66167000Y-75438000D03*
D12*
X65517000Y-76738000D03*
X65517000Y-75438000D03*
X65517000Y-74138000D03*
D14*
X82931000Y-88646000D03*
X93980000Y-88646000D03*
X39243000Y-48133000D03*
X39243000Y-53086000D03*
X39243000Y-58293000D03*
X99060000Y-88646000D03*
X88138000Y-88646000D03*
X39243000Y-78359000D03*
X39243000Y-73406000D03*
D15*
X118491000Y-24257000D03*
X91313000Y-24257000D03*
X60960000Y-37500000D03*
X50495200Y-50292000D03*
X70485000Y-25146000D03*
X120904000Y-45466000D03*
X112395000Y-66929000D03*
X118491000Y-26035000D03*
X107696000Y-26035000D03*
X119380000Y-51308000D03*
X58928000Y-26035000D03*
X83947000Y-69215000D03*
X105156000Y-83312000D03*
X58928000Y-24257000D03*
X140081000Y-24257000D03*
X100330000Y-45847000D03*
X137287000Y-81915000D03*
X50495200Y-46043750D03*
X141605000Y-81915000D03*
X138702750Y-38053000D03*
X145923000Y-81915000D03*
X88773000Y-59944000D03*
X140843000Y-25146000D03*
X84584814Y-79502000D03*
X81915000Y-72136000D03*
X103886000Y-58166000D03*
X125346186Y-80137000D03*
X92966814Y-79502000D03*
X59690000Y-25146000D03*
X86362814Y-79502000D03*
X69723000Y-24257000D03*
X40607000Y-64897000D03*
X50495200Y-54610000D03*
X82931000Y-72136000D03*
X138702750Y-39323000D03*
X80901814Y-79502000D03*
X123060186Y-80137000D03*
X71706500Y-64008000D03*
X116456186Y-80137000D03*
X37465000Y-36322000D03*
X109601000Y-45974000D03*
X49479200Y-50292000D03*
X125222000Y-89789000D03*
X70104000Y-40254000D03*
X80899000Y-63881000D03*
X81915000Y-73406000D03*
X140081000Y-26035000D03*
X98554814Y-79502000D03*
X37465000Y-38100000D03*
X101346000Y-45847000D03*
X83947000Y-71501000D03*
X81915000Y-74676000D03*
X125095000Y-67310000D03*
X107696000Y-24257000D03*
X139065000Y-89789000D03*
X122936000Y-89789000D03*
X42926000Y-24257000D03*
X79375000Y-63881000D03*
X83947000Y-70358000D03*
X108458000Y-25146000D03*
X88267814Y-79502000D03*
X42418000Y-67310000D03*
X96649814Y-79502000D03*
X129286000Y-26035000D03*
X98298000Y-58166000D03*
X80645000Y-71501000D03*
X136906000Y-89789000D03*
X80645000Y-40259000D03*
X43053000Y-71755000D03*
X120647186Y-80137000D03*
X112649000Y-45974000D03*
X60960000Y-38643000D03*
X42926000Y-26035000D03*
X80645000Y-39111000D03*
X49479200Y-46043750D03*
X94871814Y-79502000D03*
X91188814Y-79502000D03*
X102616000Y-81280000D03*
X118110000Y-60325000D03*
X43053000Y-76200000D03*
X41148000Y-66040000D03*
X44450000Y-26035000D03*
X104013000Y-48260000D03*
X70104000Y-39111000D03*
X80518000Y-24257000D03*
X43053000Y-74041000D03*
X102616000Y-78105000D03*
X43053000Y-78359000D03*
X120523000Y-89789000D03*
X92456000Y-59436000D03*
X81280000Y-25146000D03*
X101727000Y-58166000D03*
X43053000Y-69469000D03*
X130048000Y-25146000D03*
X44450000Y-24257000D03*
X80645000Y-70358000D03*
X43688000Y-25146000D03*
X128542750Y-39285500D03*
X80645000Y-69215000D03*
X54229000Y-66929000D03*
X80645000Y-74676000D03*
X55626000Y-66929000D03*
X69723000Y-26035000D03*
X82679814Y-79502000D03*
X49479200Y-54610000D03*
X80518000Y-26035000D03*
X91313000Y-26035000D03*
X53213000Y-65659000D03*
X45085000Y-25146000D03*
X113411000Y-66929000D03*
X102743000Y-48260000D03*
X119253000Y-25146000D03*
X92075000Y-25146000D03*
X125095000Y-68326000D03*
X129286000Y-24257000D03*
X128542750Y-38053000D03*
X77089000Y-67310000D03*
X78105000Y-67310000D03*
X59055000Y-72517000D03*
X79121000Y-67310000D03*
X89154000Y-67310000D03*
X59055000Y-69342000D03*
X90170000Y-67310000D03*
X88138000Y-67310000D03*
X102905000Y-67285983D03*
X98044000Y-64516000D03*
X107823000Y-66167000D03*
X103759000Y-62357000D03*
X98044000Y-65659000D03*
X102108000Y-68707000D03*
X85979000Y-51054000D03*
X86106000Y-61341000D03*
X87884000Y-49403000D03*
X85090000Y-60071000D03*
X146558000Y-43053000D03*
X146558000Y-47752000D03*
X145161000Y-43053000D03*
X145161000Y-47752000D03*
X136144000Y-23749000D03*
X103783000Y-23773000D03*
X40132000Y-23749000D03*
X53086000Y-26162000D03*
X54991000Y-23749000D03*
X87376000Y-23749000D03*
X88138000Y-91313000D03*
X134493000Y-83439000D03*
X135382000Y-84201000D03*
X82931000Y-91313000D03*
X132842000Y-81534000D03*
X99060000Y-90678000D03*
X133731000Y-82423000D03*
X93980000Y-91059000D03*
X88138000Y-50800000D03*
X60452000Y-49911000D03*
X88265000Y-55626000D03*
X51816000Y-51054000D03*
X52857400Y-50038000D03*
X89027000Y-54356000D03*
X61214000Y-49022000D03*
X88265000Y-52197000D03*
X51816000Y-49022000D03*
X60452000Y-48133000D03*
X113474500Y-59372500D03*
X115443000Y-60198000D03*
X95123000Y-56896000D03*
X104521000Y-70739000D03*
X102016000Y-64431025D03*
X103632000Y-69977000D03*
X75184000Y-93726000D03*
X150749000Y-72517000D03*
X149860000Y-71755000D03*
X75911000Y-92945129D03*
X148971000Y-72517000D03*
X58801000Y-93726000D03*
X59563000Y-92964000D03*
X147955000Y-71755000D03*
D16*
X90170000Y-67310000D02*
X79248000Y-67310000D01*
D17*
X59055000Y-69342000D02*
X59055000Y-72517000D01*
D16*
X77089000Y-67310000D02*
X79121000Y-67310000D01*
D18*
X102905000Y-67285983D02*
X102870000Y-67250983D01*
X100965000Y-64516000D02*
X98044000Y-64516000D01*
X102870000Y-66421000D02*
X100965000Y-64516000D01*
X102870000Y-67250983D02*
X102870000Y-66421000D01*
X105791000Y-66167000D02*
X103759000Y-64135000D01*
X103759000Y-64135000D02*
X103759000Y-62357000D01*
X107823000Y-66167000D02*
X105791000Y-66167000D01*
X102108000Y-66421000D02*
X102108000Y-68707000D01*
X98044000Y-65659000D02*
X101346000Y-65659000D01*
X101346000Y-65659000D02*
X102108000Y-66421000D01*
X86360000Y-51435000D02*
X85979000Y-51054000D01*
X86360000Y-55880000D02*
X86360000Y-51435000D01*
X84362000Y-57878000D02*
X86360000Y-55880000D01*
X85330452Y-61341000D02*
X84362000Y-60372548D01*
X86106000Y-61341000D02*
X85330452Y-61341000D01*
X84362000Y-60372548D02*
X84362000Y-57878000D01*
X85090000Y-60071000D02*
X85090000Y-58039000D01*
X86995000Y-50292000D02*
X87884000Y-49403000D01*
X86995000Y-56134000D02*
X86995000Y-50292000D01*
X85090000Y-58039000D02*
X86995000Y-56134000D01*
D16*
X39243000Y-73406000D02*
X33447500Y-73406000D01*
X33447500Y-73406000D02*
X33360500Y-73319000D01*
X33400500Y-78359000D02*
X33360500Y-78319000D01*
X39243000Y-78359000D02*
X33400500Y-78359000D01*
D18*
X146558000Y-47752000D02*
X146558000Y-43053000D01*
X145161000Y-47752000D02*
X145161000Y-43053000D01*
D16*
X33288800Y-53086000D02*
X33269400Y-53105400D01*
X39243000Y-53086000D02*
X33288800Y-53086000D01*
X33273500Y-58293000D02*
X33233500Y-58333000D01*
X39243000Y-58293000D02*
X33273500Y-58293000D01*
X33297000Y-48133000D02*
X33269400Y-48105400D01*
X39243000Y-48133000D02*
X33297000Y-48133000D01*
D18*
X135255000Y-22860000D02*
X104696000Y-22860000D01*
X136144000Y-23749000D02*
X135255000Y-22860000D01*
X104696000Y-22860000D02*
X103783000Y-23773000D01*
X53086000Y-23749000D02*
X53086000Y-26162000D01*
X40132000Y-23749000D02*
X41021000Y-22860000D01*
X41021000Y-22860000D02*
X52197000Y-22860000D01*
X52197000Y-22860000D02*
X53086000Y-23749000D01*
X87376000Y-23749000D02*
X86487000Y-22860000D01*
X86487000Y-22860000D02*
X55880000Y-22860000D01*
X55880000Y-22860000D02*
X54991000Y-23749000D01*
X132236467Y-91927000D02*
X88752000Y-91927000D01*
X134493000Y-83439000D02*
X134493000Y-89670468D01*
X134493000Y-89670468D02*
X132236467Y-91927000D01*
D19*
X88138000Y-91313000D02*
X88138000Y-88646000D01*
D18*
X88752000Y-91927000D02*
X88138000Y-91313000D01*
X135382000Y-84201000D02*
X135382000Y-89424936D01*
X84000000Y-92382000D02*
X82931000Y-91313000D01*
D19*
X82931000Y-91313000D02*
X82931000Y-88646000D01*
D18*
X132424934Y-92382000D02*
X84000000Y-92382000D01*
X135382000Y-89424936D02*
X132424934Y-92382000D01*
X99060000Y-90678000D02*
X99399000Y-91017000D01*
X99399000Y-91017000D02*
X131741000Y-91017000D01*
X132842000Y-89916000D02*
X132842000Y-81534000D01*
X131741000Y-91017000D02*
X132842000Y-89916000D01*
D19*
X99060000Y-88646000D02*
X99060000Y-90678000D01*
D18*
X132048000Y-91472000D02*
X94393000Y-91472000D01*
X94393000Y-91472000D02*
X93980000Y-91059000D01*
D19*
X93980000Y-91059000D02*
X93980000Y-88646000D01*
D18*
X133731000Y-89789000D02*
X132048000Y-91472000D01*
X133731000Y-82423000D02*
X133731000Y-89789000D01*
X88138000Y-50800000D02*
X87503000Y-51435000D01*
X53975000Y-49932000D02*
X53975000Y-49949948D01*
X52870948Y-51054000D02*
X51816000Y-51054000D01*
X87503000Y-54864000D02*
X88265000Y-55626000D01*
X59711000Y-49932000D02*
X53975000Y-49932000D01*
X53975000Y-49949948D02*
X52870948Y-51054000D01*
X59732000Y-49911000D02*
X59711000Y-49932000D01*
X87503000Y-51435000D02*
X87503000Y-54864000D01*
X60452000Y-49911000D02*
X59732000Y-49911000D01*
X61214000Y-49022000D02*
X59952467Y-49022000D01*
X59497467Y-49477000D02*
X53393000Y-49477000D01*
X59952467Y-49022000D02*
X59497467Y-49477000D01*
X88265000Y-53594000D02*
X88265000Y-52197000D01*
X89027000Y-54356000D02*
X88265000Y-53594000D01*
X53393000Y-49477000D02*
X52857400Y-50012600D01*
X52857400Y-50012600D02*
X52857400Y-50038000D01*
X59309000Y-49022000D02*
X51816000Y-49022000D01*
X60452000Y-48133000D02*
X60198000Y-48133000D01*
X60198000Y-48133000D02*
X59309000Y-49022000D01*
X113474500Y-59372500D02*
X114617500Y-59372500D01*
X114617500Y-59372500D02*
X115443000Y-60198000D01*
X102870000Y-64389000D02*
X102870000Y-57658000D01*
X104521000Y-70739000D02*
X104521000Y-66040000D01*
X102870000Y-57658000D02*
X102108000Y-56896000D01*
X102108000Y-56896000D02*
X95123000Y-56896000D01*
X104521000Y-66040000D02*
X102870000Y-64389000D01*
X103632000Y-66167000D02*
X101981000Y-64516000D01*
X101981000Y-64466025D02*
X102016000Y-64431025D01*
X101981000Y-64516000D02*
X101981000Y-64466025D01*
X103632000Y-69977000D02*
X103632000Y-66167000D01*
X150749000Y-81788000D02*
X150749000Y-72517000D01*
X75184000Y-93726000D02*
X77199066Y-93726000D01*
X77728067Y-94255000D02*
X138282000Y-94255000D01*
X77199066Y-93726000D02*
X77728067Y-94255000D01*
X138282000Y-94255000D02*
X150749000Y-81788000D01*
X150294000Y-73091548D02*
X149860000Y-72657548D01*
X77061661Y-92945129D02*
X77916534Y-93800000D01*
X149860000Y-72657548D02*
X149860000Y-71755000D01*
X138093532Y-93800000D02*
X150294000Y-81599532D01*
X75911000Y-92945129D02*
X77061661Y-92945129D01*
X150294000Y-81599532D02*
X150294000Y-73091548D01*
X77916534Y-93800000D02*
X138093532Y-93800000D01*
X73025000Y-93726000D02*
X58801000Y-93726000D01*
X76708000Y-91948000D02*
X74803000Y-91948000D01*
X149839000Y-73385000D02*
X149839000Y-81411064D01*
X137905064Y-93345000D02*
X78105000Y-93345000D01*
X74803000Y-91948000D02*
X73025000Y-93726000D01*
X149839000Y-81411064D02*
X137905064Y-93345000D01*
X78105000Y-93345000D02*
X76708000Y-91948000D01*
X148971000Y-72517000D02*
X149839000Y-73385000D01*
X149384000Y-73959548D02*
X147955000Y-72530548D01*
X74369000Y-91493000D02*
X76896468Y-91493000D01*
X147955000Y-72530548D02*
X147955000Y-71755000D01*
X72898000Y-92964000D02*
X74369000Y-91493000D01*
X59563000Y-92964000D02*
X72898000Y-92964000D01*
X149384000Y-81222596D02*
X149384000Y-73959548D01*
X137769596Y-92837000D02*
X149384000Y-81222596D01*
X78240468Y-92837000D02*
X137769596Y-92837000D01*
X76896468Y-91493000D02*
X78240468Y-92837000D01*
G04 #@! TA.AperFunction,Conductor*
G36*
X147775251Y-19704685D02*
G01*
X147821006Y-19757489D01*
X147830950Y-19826647D01*
X147801925Y-19890203D01*
X147743147Y-19927977D01*
X147720366Y-19932403D01*
X147574518Y-19946767D01*
X147574501Y-19946770D01*
X147241633Y-20012980D01*
X147241622Y-20012983D01*
X146916809Y-20111514D01*
X146603236Y-20241400D01*
X146603222Y-20241407D01*
X146303901Y-20401396D01*
X146303883Y-20401407D01*
X146021683Y-20589967D01*
X146021669Y-20589977D01*
X145759296Y-20805302D01*
X145519302Y-21045296D01*
X145303977Y-21307669D01*
X145303967Y-21307683D01*
X145115407Y-21589883D01*
X145115396Y-21589901D01*
X144955407Y-21889222D01*
X144955400Y-21889236D01*
X144825514Y-22202809D01*
X144726983Y-22527622D01*
X144726980Y-22527633D01*
X144660770Y-22860501D01*
X144660767Y-22860518D01*
X144636897Y-23102880D01*
X144627500Y-23198291D01*
X144627500Y-23537709D01*
X144631871Y-23582087D01*
X144660767Y-23875481D01*
X144660770Y-23875498D01*
X144726980Y-24208366D01*
X144726983Y-24208377D01*
X144825514Y-24533190D01*
X144955400Y-24846763D01*
X144955407Y-24846777D01*
X145115396Y-25146098D01*
X145115407Y-25146116D01*
X145303967Y-25428316D01*
X145303977Y-25428330D01*
X145519302Y-25690703D01*
X145759296Y-25930697D01*
X145759301Y-25930701D01*
X145759302Y-25930702D01*
X146021675Y-26146027D01*
X146303890Y-26334597D01*
X146603230Y-26494597D01*
X146916811Y-26624486D01*
X147241613Y-26723014D01*
X147241619Y-26723015D01*
X147241622Y-26723016D01*
X147241633Y-26723019D01*
X147450369Y-26764538D01*
X147574508Y-26789231D01*
X147912291Y-26822500D01*
X147912294Y-26822500D01*
X148251706Y-26822500D01*
X148251709Y-26822500D01*
X148589492Y-26789231D01*
X148754265Y-26756455D01*
X148922366Y-26723019D01*
X148922377Y-26723016D01*
X148922377Y-26723015D01*
X148922387Y-26723014D01*
X149247189Y-26624486D01*
X149560770Y-26494597D01*
X149860110Y-26334597D01*
X150142325Y-26146027D01*
X150404698Y-25930702D01*
X150644702Y-25690698D01*
X150860027Y-25428325D01*
X151048597Y-25146110D01*
X151208597Y-24846770D01*
X151338486Y-24533189D01*
X151437014Y-24208387D01*
X151437016Y-24208377D01*
X151437019Y-24208366D01*
X151485645Y-23963903D01*
X151503231Y-23875492D01*
X151517597Y-23729633D01*
X151543758Y-23664846D01*
X151600792Y-23624487D01*
X151670592Y-23621370D01*
X151730997Y-23656484D01*
X151762828Y-23718682D01*
X151765000Y-23741787D01*
X151765000Y-90558212D01*
X151745315Y-90625251D01*
X151692511Y-90671006D01*
X151623353Y-90680950D01*
X151559797Y-90651925D01*
X151522023Y-90593147D01*
X151517597Y-90570366D01*
X151503232Y-90424518D01*
X151503231Y-90424517D01*
X151503231Y-90424508D01*
X151478538Y-90300369D01*
X151437019Y-90091633D01*
X151437016Y-90091622D01*
X151437015Y-90091619D01*
X151437014Y-90091613D01*
X151338486Y-89766811D01*
X151208597Y-89453230D01*
X151048597Y-89153890D01*
X150860027Y-88871675D01*
X150644702Y-88609302D01*
X150644701Y-88609301D01*
X150644697Y-88609296D01*
X150404703Y-88369302D01*
X150142330Y-88153977D01*
X150142329Y-88153976D01*
X150142325Y-88153973D01*
X149860110Y-87965403D01*
X149860105Y-87965400D01*
X149860098Y-87965396D01*
X149604455Y-87828753D01*
X149560770Y-87805403D01*
X149550440Y-87801124D01*
X149247190Y-87675514D01*
X148922377Y-87576983D01*
X148922366Y-87576980D01*
X148589498Y-87510770D01*
X148589481Y-87510767D01*
X148334048Y-87485609D01*
X148251709Y-87477500D01*
X147912291Y-87477500D01*
X147836139Y-87485000D01*
X147574518Y-87510767D01*
X147574501Y-87510770D01*
X147241633Y-87576980D01*
X147241622Y-87576983D01*
X146916809Y-87675514D01*
X146603236Y-87805400D01*
X146603222Y-87805407D01*
X146303901Y-87965396D01*
X146303883Y-87965407D01*
X146021683Y-88153967D01*
X146021669Y-88153977D01*
X145759296Y-88369302D01*
X145519302Y-88609296D01*
X145303977Y-88871669D01*
X145303967Y-88871683D01*
X145115407Y-89153883D01*
X145115396Y-89153901D01*
X144955407Y-89453222D01*
X144955400Y-89453236D01*
X144825514Y-89766809D01*
X144726983Y-90091622D01*
X144726980Y-90091633D01*
X144660770Y-90424501D01*
X144660767Y-90424518D01*
X144640997Y-90625251D01*
X144627500Y-90762291D01*
X144627500Y-91101709D01*
X144635840Y-91186381D01*
X144660767Y-91439481D01*
X144660770Y-91439498D01*
X144726980Y-91772366D01*
X144726983Y-91772377D01*
X144825514Y-92097190D01*
X144913456Y-92309500D01*
X144955403Y-92410770D01*
X144977797Y-92452666D01*
X145115396Y-92710098D01*
X145115407Y-92710116D01*
X145303967Y-92992316D01*
X145303977Y-92992330D01*
X145519302Y-93254703D01*
X145759296Y-93494697D01*
X145759301Y-93494701D01*
X145759302Y-93494702D01*
X146021675Y-93710027D01*
X146303890Y-93898597D01*
X146603230Y-94058597D01*
X146916811Y-94188486D01*
X147241613Y-94287014D01*
X147241619Y-94287015D01*
X147241622Y-94287016D01*
X147241633Y-94287019D01*
X147450369Y-94328538D01*
X147574508Y-94353231D01*
X147574517Y-94353231D01*
X147574518Y-94353232D01*
X147720366Y-94367597D01*
X147785153Y-94393758D01*
X147825512Y-94450792D01*
X147828629Y-94520592D01*
X147793515Y-94580997D01*
X147731317Y-94612828D01*
X147708212Y-94615000D01*
X138760884Y-94615000D01*
X138693845Y-94595315D01*
X138648090Y-94542511D01*
X138638146Y-94473353D01*
X138667171Y-94409797D01*
X138673203Y-94403319D01*
X141707500Y-91369022D01*
X150973037Y-82103483D01*
X150973042Y-82103480D01*
X150983245Y-82093276D01*
X150983247Y-82093276D01*
X151054276Y-82022247D01*
X151104501Y-81935254D01*
X151130500Y-81838225D01*
X151130500Y-73112466D01*
X151150185Y-73045427D01*
X151166819Y-73024785D01*
X151257380Y-72934223D01*
X151257383Y-72934220D01*
X151329011Y-72827022D01*
X151378348Y-72707911D01*
X151403500Y-72581463D01*
X151403500Y-72452537D01*
X151383197Y-72350466D01*
X151378350Y-72326096D01*
X151378347Y-72326087D01*
X151329013Y-72206982D01*
X151329012Y-72206980D01*
X151312581Y-72182390D01*
X151257383Y-72099780D01*
X151257380Y-72099776D01*
X151166223Y-72008619D01*
X151166219Y-72008616D01*
X151059019Y-71936987D01*
X151059017Y-71936986D01*
X150939912Y-71887652D01*
X150939903Y-71887649D01*
X150813467Y-71862500D01*
X150813463Y-71862500D01*
X150684537Y-71862500D01*
X150684533Y-71862500D01*
X150662687Y-71866845D01*
X150593096Y-71860615D01*
X150537920Y-71817751D01*
X150514678Y-71751860D01*
X150514500Y-71745227D01*
X150514500Y-71690536D01*
X150514499Y-71690532D01*
X150489350Y-71564096D01*
X150489347Y-71564087D01*
X150440013Y-71444982D01*
X150440012Y-71444980D01*
X150405613Y-71393499D01*
X150368383Y-71337780D01*
X150368380Y-71337776D01*
X150277223Y-71246619D01*
X150277219Y-71246616D01*
X150170019Y-71174987D01*
X150170017Y-71174986D01*
X150050912Y-71125652D01*
X150050903Y-71125649D01*
X149924467Y-71100500D01*
X149924463Y-71100500D01*
X149795537Y-71100500D01*
X149795532Y-71100500D01*
X149669096Y-71125649D01*
X149669087Y-71125652D01*
X149549982Y-71174986D01*
X149549980Y-71174987D01*
X149442780Y-71246616D01*
X149442776Y-71246619D01*
X149351619Y-71337776D01*
X149351616Y-71337780D01*
X149279987Y-71444980D01*
X149279986Y-71444982D01*
X149230652Y-71564087D01*
X149230649Y-71564096D01*
X149205500Y-71690532D01*
X149205500Y-71745227D01*
X149185815Y-71812266D01*
X149133011Y-71858021D01*
X149063853Y-71867965D01*
X149057313Y-71866845D01*
X149035466Y-71862500D01*
X149035463Y-71862500D01*
X148906537Y-71862500D01*
X148906532Y-71862500D01*
X148780096Y-71887649D01*
X148774266Y-71889419D01*
X148773853Y-71888060D01*
X148711467Y-71894760D01*
X148648992Y-71863477D01*
X148613348Y-71803383D01*
X148609500Y-71772733D01*
X148609500Y-71690536D01*
X148609499Y-71690532D01*
X148584350Y-71564096D01*
X148584347Y-71564087D01*
X148535013Y-71444982D01*
X148535012Y-71444980D01*
X148500613Y-71393499D01*
X148463383Y-71337780D01*
X148463380Y-71337776D01*
X148372223Y-71246619D01*
X148372219Y-71246616D01*
X148265019Y-71174987D01*
X148265017Y-71174986D01*
X148145912Y-71125652D01*
X148145903Y-71125649D01*
X148019467Y-71100500D01*
X148019463Y-71100500D01*
X147890537Y-71100500D01*
X147890532Y-71100500D01*
X147764096Y-71125649D01*
X147764087Y-71125652D01*
X147644982Y-71174986D01*
X147644980Y-71174987D01*
X147537780Y-71246616D01*
X147537776Y-71246619D01*
X147446619Y-71337776D01*
X147446616Y-71337780D01*
X147374987Y-71444980D01*
X147374986Y-71444982D01*
X147325652Y-71564087D01*
X147325649Y-71564096D01*
X147300500Y-71690532D01*
X147300500Y-71819467D01*
X147325649Y-71945903D01*
X147325652Y-71945912D01*
X147374986Y-72065017D01*
X147374987Y-72065019D01*
X147446616Y-72172219D01*
X147446619Y-72172223D01*
X147537181Y-72262785D01*
X147570666Y-72324108D01*
X147573500Y-72350466D01*
X147573500Y-72580773D01*
X147585033Y-72623815D01*
X147599499Y-72677803D01*
X147599500Y-72677804D01*
X147636803Y-72742415D01*
X147636804Y-72742416D01*
X147649723Y-72764794D01*
X148966181Y-74081252D01*
X148999666Y-74142575D01*
X149002500Y-74168933D01*
X149002500Y-81013211D01*
X148982815Y-81080250D01*
X148966181Y-81100892D01*
X137647892Y-92419181D01*
X137586569Y-92452666D01*
X137560211Y-92455500D01*
X133190319Y-92455500D01*
X133123280Y-92435815D01*
X133077525Y-92383011D01*
X133067581Y-92313853D01*
X133096606Y-92250297D01*
X133102638Y-92243819D01*
X134351925Y-90994532D01*
X135606037Y-89740420D01*
X135606042Y-89740416D01*
X135616245Y-89730212D01*
X135616247Y-89730212D01*
X135687276Y-89659183D01*
X135737501Y-89572190D01*
X135763500Y-89475161D01*
X135763500Y-84796466D01*
X135783185Y-84729427D01*
X135799819Y-84708785D01*
X135890380Y-84618223D01*
X135890383Y-84618220D01*
X135962011Y-84511022D01*
X136011348Y-84391911D01*
X136036500Y-84265463D01*
X136036500Y-84136537D01*
X136036275Y-84135409D01*
X136011350Y-84010096D01*
X136011347Y-84010087D01*
X135962013Y-83890982D01*
X135962012Y-83890980D01*
X135890383Y-83783780D01*
X135890380Y-83783776D01*
X135799223Y-83692619D01*
X135799219Y-83692616D01*
X135692019Y-83620987D01*
X135692017Y-83620986D01*
X135572912Y-83571652D01*
X135572903Y-83571649D01*
X135446467Y-83546500D01*
X135446463Y-83546500D01*
X135317537Y-83546500D01*
X135317533Y-83546500D01*
X135295687Y-83550845D01*
X135226096Y-83544615D01*
X135170920Y-83501751D01*
X135147678Y-83435860D01*
X135147500Y-83429227D01*
X135147500Y-83374536D01*
X135147499Y-83374532D01*
X135122350Y-83248096D01*
X135122347Y-83248087D01*
X135073013Y-83128982D01*
X135073012Y-83128980D01*
X135001383Y-83021780D01*
X135001380Y-83021776D01*
X134910223Y-82930619D01*
X134910219Y-82930616D01*
X134803019Y-82858987D01*
X134803017Y-82858986D01*
X134683912Y-82809652D01*
X134683903Y-82809649D01*
X134557467Y-82784500D01*
X134557463Y-82784500D01*
X134475266Y-82784500D01*
X134408227Y-82764815D01*
X134362472Y-82712011D01*
X134352528Y-82642853D01*
X134358848Y-82619815D01*
X134358581Y-82619734D01*
X134360350Y-82613903D01*
X134385499Y-82487467D01*
X134385500Y-82487464D01*
X134385500Y-82358536D01*
X134385499Y-82358532D01*
X134360350Y-82232096D01*
X134360347Y-82232087D01*
X134311013Y-82112982D01*
X134311012Y-82112980D01*
X134304664Y-82103480D01*
X134239383Y-82005780D01*
X134239380Y-82005776D01*
X134148223Y-81914619D01*
X134148219Y-81914616D01*
X134041019Y-81842987D01*
X134041017Y-81842986D01*
X133921912Y-81793652D01*
X133921903Y-81793649D01*
X133795467Y-81768500D01*
X133795463Y-81768500D01*
X133666537Y-81768500D01*
X133636290Y-81774516D01*
X133566699Y-81768287D01*
X133511522Y-81725423D01*
X133488279Y-81659533D01*
X133490483Y-81628708D01*
X133496500Y-81598463D01*
X133496500Y-81469537D01*
X133496275Y-81468409D01*
X133471350Y-81343096D01*
X133471347Y-81343087D01*
X133422013Y-81223982D01*
X133422012Y-81223980D01*
X133350383Y-81116780D01*
X133350380Y-81116776D01*
X133259223Y-81025619D01*
X133259219Y-81025616D01*
X133152019Y-80953987D01*
X133152017Y-80953986D01*
X133032912Y-80904652D01*
X133032903Y-80904649D01*
X132906467Y-80879500D01*
X132906463Y-80879500D01*
X132777537Y-80879500D01*
X132777532Y-80879500D01*
X132651096Y-80904649D01*
X132651087Y-80904652D01*
X132531982Y-80953986D01*
X132531980Y-80953987D01*
X132424780Y-81025616D01*
X132424776Y-81025619D01*
X132333619Y-81116776D01*
X132333616Y-81116780D01*
X132261987Y-81223980D01*
X132261986Y-81223982D01*
X132212652Y-81343087D01*
X132212649Y-81343096D01*
X132187500Y-81469532D01*
X132187500Y-81598467D01*
X132212649Y-81724903D01*
X132212652Y-81724912D01*
X132261986Y-81844017D01*
X132261987Y-81844019D01*
X132333616Y-81951219D01*
X132333619Y-81951223D01*
X132424181Y-82041785D01*
X132457666Y-82103108D01*
X132460500Y-82129466D01*
X132460500Y-89706615D01*
X132440815Y-89773654D01*
X132424181Y-89794296D01*
X131619296Y-90599181D01*
X131557973Y-90632666D01*
X131531615Y-90635500D01*
X99820633Y-90635500D01*
X99753594Y-90615815D01*
X99707839Y-90563011D01*
X99699016Y-90535691D01*
X99689350Y-90487096D01*
X99689347Y-90487087D01*
X99640013Y-90367982D01*
X99640012Y-90367980D01*
X99568383Y-90260780D01*
X99568380Y-90260776D01*
X99475819Y-90168215D01*
X99461115Y-90141287D01*
X99444523Y-90115469D01*
X99443631Y-90109268D01*
X99442334Y-90106892D01*
X99439500Y-90080534D01*
X99439500Y-89931843D01*
X99459185Y-89864804D01*
X99511989Y-89819049D01*
X99525175Y-89813914D01*
X99541561Y-89808591D01*
X99717501Y-89718944D01*
X99802382Y-89657274D01*
X99877246Y-89602884D01*
X99877248Y-89602881D01*
X99877252Y-89602879D01*
X100016879Y-89463252D01*
X100016881Y-89463248D01*
X100016884Y-89463246D01*
X100067983Y-89392913D01*
X100132944Y-89303501D01*
X100222591Y-89127561D01*
X100283610Y-88939763D01*
X100307720Y-88787540D01*
X100314500Y-88744736D01*
X100314500Y-88547263D01*
X100283610Y-88352236D01*
X100257491Y-88271851D01*
X100222591Y-88164439D01*
X100132944Y-87988499D01*
X100116159Y-87965396D01*
X100016884Y-87828753D01*
X99877246Y-87689115D01*
X99717504Y-87573058D01*
X99717503Y-87573057D01*
X99717501Y-87573056D01*
X99541561Y-87483409D01*
X99523375Y-87477500D01*
X99353763Y-87422389D01*
X99158736Y-87391500D01*
X99158731Y-87391500D01*
X98961269Y-87391500D01*
X98961264Y-87391500D01*
X98766236Y-87422389D01*
X98578441Y-87483408D01*
X98402495Y-87573058D01*
X98242753Y-87689115D01*
X98103115Y-87828753D01*
X97987058Y-87988495D01*
X97897408Y-88164441D01*
X97836389Y-88352236D01*
X97805500Y-88547263D01*
X97805500Y-88744736D01*
X97836389Y-88939763D01*
X97897408Y-89127558D01*
X97897409Y-89127561D01*
X97987056Y-89303501D01*
X97987058Y-89303504D01*
X98103115Y-89463246D01*
X98242753Y-89602884D01*
X98402499Y-89718944D01*
X98402500Y-89718945D01*
X98578428Y-89808586D01*
X98578433Y-89808588D01*
X98578439Y-89808591D01*
X98594814Y-89813911D01*
X98615217Y-89827861D01*
X98637703Y-89838130D01*
X98643554Y-89847235D01*
X98652489Y-89853344D01*
X98662112Y-89876111D01*
X98675477Y-89896908D01*
X98677835Y-89913312D01*
X98679691Y-89917702D01*
X98680500Y-89931843D01*
X98680500Y-90080534D01*
X98660815Y-90147573D01*
X98644181Y-90168215D01*
X98551619Y-90260776D01*
X98551616Y-90260780D01*
X98479987Y-90367980D01*
X98479986Y-90367982D01*
X98430652Y-90487087D01*
X98430649Y-90487096D01*
X98405500Y-90613532D01*
X98405500Y-90742467D01*
X98430649Y-90868903D01*
X98430651Y-90868909D01*
X98430652Y-90868911D01*
X98451420Y-90919050D01*
X98458888Y-90988518D01*
X98427612Y-91050997D01*
X98367523Y-91086649D01*
X98336858Y-91090500D01*
X94755352Y-91090500D01*
X94688313Y-91070815D01*
X94642558Y-91018011D01*
X94633735Y-90990691D01*
X94614855Y-90895776D01*
X94609348Y-90868089D01*
X94582477Y-90803215D01*
X94560013Y-90748982D01*
X94560012Y-90748980D01*
X94555657Y-90742463D01*
X94488383Y-90641780D01*
X94488380Y-90641776D01*
X94395819Y-90549215D01*
X94362334Y-90487892D01*
X94359500Y-90461534D01*
X94359500Y-89931843D01*
X94379185Y-89864804D01*
X94431989Y-89819049D01*
X94445175Y-89813914D01*
X94461561Y-89808591D01*
X94637501Y-89718944D01*
X94722382Y-89657274D01*
X94797246Y-89602884D01*
X94797248Y-89602881D01*
X94797252Y-89602879D01*
X94936879Y-89463252D01*
X94936881Y-89463248D01*
X94936884Y-89463246D01*
X94987983Y-89392913D01*
X95052944Y-89303501D01*
X95142591Y-89127561D01*
X95203610Y-88939763D01*
X95227720Y-88787540D01*
X95234500Y-88744736D01*
X95234500Y-88547263D01*
X95203610Y-88352236D01*
X95177491Y-88271851D01*
X95142591Y-88164439D01*
X95052944Y-87988499D01*
X95036159Y-87965396D01*
X94936884Y-87828753D01*
X94797246Y-87689115D01*
X94637504Y-87573058D01*
X94637503Y-87573057D01*
X94637501Y-87573056D01*
X94461561Y-87483409D01*
X94443375Y-87477500D01*
X94273763Y-87422389D01*
X94078736Y-87391500D01*
X94078731Y-87391500D01*
X93881269Y-87391500D01*
X93881264Y-87391500D01*
X93686236Y-87422389D01*
X93498441Y-87483408D01*
X93322495Y-87573058D01*
X93162753Y-87689115D01*
X93023115Y-87828753D01*
X92907058Y-87988495D01*
X92817408Y-88164441D01*
X92756389Y-88352236D01*
X92725500Y-88547263D01*
X92725500Y-88744736D01*
X92756389Y-88939763D01*
X92817408Y-89127558D01*
X92817409Y-89127561D01*
X92907056Y-89303501D01*
X92907058Y-89303504D01*
X93023115Y-89463246D01*
X93162753Y-89602884D01*
X93322499Y-89718944D01*
X93322500Y-89718945D01*
X93498428Y-89808586D01*
X93498433Y-89808588D01*
X93498439Y-89808591D01*
X93514814Y-89813911D01*
X93572489Y-89853344D01*
X93599691Y-89917702D01*
X93600500Y-89931843D01*
X93600500Y-90461534D01*
X93580815Y-90528573D01*
X93564181Y-90549215D01*
X93471619Y-90641776D01*
X93471616Y-90641780D01*
X93399987Y-90748980D01*
X93399986Y-90748982D01*
X93350652Y-90868087D01*
X93350649Y-90868096D01*
X93325500Y-90994532D01*
X93325500Y-91123467D01*
X93350649Y-91249903D01*
X93350651Y-91249909D01*
X93350652Y-91249911D01*
X93399989Y-91369022D01*
X93402071Y-91374048D01*
X93409539Y-91443518D01*
X93378263Y-91505997D01*
X93318174Y-91541649D01*
X93287509Y-91545500D01*
X88961385Y-91545500D01*
X88931944Y-91536855D01*
X88901958Y-91530332D01*
X88896942Y-91526577D01*
X88894346Y-91525815D01*
X88873704Y-91509181D01*
X88828819Y-91464296D01*
X88795334Y-91402973D01*
X88792500Y-91376615D01*
X88792500Y-91248536D01*
X88792499Y-91248532D01*
X88767350Y-91122096D01*
X88767347Y-91122087D01*
X88754263Y-91090500D01*
X88718011Y-91002978D01*
X88646383Y-90895780D01*
X88646380Y-90895776D01*
X88553819Y-90803215D01*
X88520334Y-90741892D01*
X88517500Y-90715534D01*
X88517500Y-89931843D01*
X88537185Y-89864804D01*
X88589989Y-89819049D01*
X88603175Y-89813914D01*
X88619561Y-89808591D01*
X88795501Y-89718944D01*
X88880382Y-89657274D01*
X88955246Y-89602884D01*
X88955248Y-89602881D01*
X88955252Y-89602879D01*
X89094879Y-89463252D01*
X89094881Y-89463248D01*
X89094884Y-89463246D01*
X89145983Y-89392913D01*
X89210944Y-89303501D01*
X89300591Y-89127561D01*
X89361610Y-88939763D01*
X89385720Y-88787540D01*
X89392500Y-88744736D01*
X89392500Y-88547263D01*
X89361610Y-88352236D01*
X89335491Y-88271851D01*
X89300591Y-88164439D01*
X89210944Y-87988499D01*
X89194159Y-87965396D01*
X89094884Y-87828753D01*
X88955246Y-87689115D01*
X88795504Y-87573058D01*
X88795503Y-87573057D01*
X88795501Y-87573056D01*
X88619561Y-87483409D01*
X88601375Y-87477500D01*
X88431763Y-87422389D01*
X88236736Y-87391500D01*
X88236731Y-87391500D01*
X88039269Y-87391500D01*
X88039264Y-87391500D01*
X87844236Y-87422389D01*
X87656441Y-87483408D01*
X87480495Y-87573058D01*
X87320753Y-87689115D01*
X87181115Y-87828753D01*
X87065058Y-87988495D01*
X86975408Y-88164441D01*
X86914389Y-88352236D01*
X86883500Y-88547263D01*
X86883500Y-88744736D01*
X86914389Y-88939763D01*
X86975408Y-89127558D01*
X86975409Y-89127561D01*
X87065056Y-89303501D01*
X87065058Y-89303504D01*
X87181115Y-89463246D01*
X87320753Y-89602884D01*
X87480499Y-89718944D01*
X87480500Y-89718945D01*
X87656428Y-89808586D01*
X87656433Y-89808588D01*
X87656439Y-89808591D01*
X87672814Y-89813911D01*
X87730489Y-89853344D01*
X87757691Y-89917702D01*
X87758500Y-89931843D01*
X87758500Y-90715534D01*
X87738815Y-90782573D01*
X87722181Y-90803215D01*
X87629619Y-90895776D01*
X87629616Y-90895780D01*
X87557987Y-91002980D01*
X87557986Y-91002982D01*
X87508652Y-91122087D01*
X87508649Y-91122096D01*
X87483500Y-91248532D01*
X87483500Y-91377467D01*
X87508649Y-91503903D01*
X87508652Y-91503912D01*
X87557986Y-91623017D01*
X87557987Y-91623019D01*
X87629616Y-91730219D01*
X87629619Y-91730223D01*
X87688215Y-91788819D01*
X87721700Y-91850142D01*
X87716716Y-91919834D01*
X87674844Y-91975767D01*
X87609380Y-92000184D01*
X87600534Y-92000500D01*
X84209384Y-92000500D01*
X84142345Y-91980815D01*
X84121703Y-91964181D01*
X83621819Y-91464296D01*
X83588334Y-91402973D01*
X83585500Y-91376615D01*
X83585500Y-91248536D01*
X83585499Y-91248532D01*
X83560350Y-91122096D01*
X83560347Y-91122087D01*
X83547263Y-91090500D01*
X83511011Y-91002978D01*
X83439383Y-90895780D01*
X83439380Y-90895776D01*
X83346819Y-90803215D01*
X83313334Y-90741892D01*
X83310500Y-90715534D01*
X83310500Y-89931843D01*
X83330185Y-89864804D01*
X83382989Y-89819049D01*
X83396175Y-89813914D01*
X83412561Y-89808591D01*
X83588501Y-89718944D01*
X83673382Y-89657274D01*
X83748246Y-89602884D01*
X83748248Y-89602881D01*
X83748252Y-89602879D01*
X83887879Y-89463252D01*
X83887881Y-89463248D01*
X83887884Y-89463246D01*
X83938983Y-89392913D01*
X84003944Y-89303501D01*
X84093591Y-89127561D01*
X84154610Y-88939763D01*
X84178720Y-88787540D01*
X84185500Y-88744736D01*
X84185500Y-88547263D01*
X84154610Y-88352236D01*
X84128491Y-88271851D01*
X84093591Y-88164439D01*
X84003944Y-87988499D01*
X83987159Y-87965396D01*
X83887884Y-87828753D01*
X83748246Y-87689115D01*
X83588504Y-87573058D01*
X83588503Y-87573057D01*
X83588501Y-87573056D01*
X83412561Y-87483409D01*
X83394375Y-87477500D01*
X83224763Y-87422389D01*
X83029736Y-87391500D01*
X83029731Y-87391500D01*
X82832269Y-87391500D01*
X82832264Y-87391500D01*
X82637236Y-87422389D01*
X82449441Y-87483408D01*
X82273495Y-87573058D01*
X82113753Y-87689115D01*
X81974115Y-87828753D01*
X81858058Y-87988495D01*
X81768408Y-88164441D01*
X81707389Y-88352236D01*
X81676500Y-88547263D01*
X81676500Y-88744736D01*
X81707389Y-88939763D01*
X81768408Y-89127558D01*
X81768409Y-89127561D01*
X81858056Y-89303501D01*
X81858058Y-89303504D01*
X81974115Y-89463246D01*
X82113753Y-89602884D01*
X82273499Y-89718944D01*
X82273500Y-89718945D01*
X82449428Y-89808586D01*
X82449433Y-89808588D01*
X82449439Y-89808591D01*
X82465814Y-89813911D01*
X82523489Y-89853344D01*
X82550691Y-89917702D01*
X82551500Y-89931843D01*
X82551500Y-90715534D01*
X82531815Y-90782573D01*
X82515181Y-90803215D01*
X82422619Y-90895776D01*
X82422616Y-90895780D01*
X82350987Y-91002980D01*
X82350986Y-91002982D01*
X82301652Y-91122087D01*
X82301649Y-91122096D01*
X82276500Y-91248532D01*
X82276500Y-91377467D01*
X82301649Y-91503903D01*
X82301652Y-91503912D01*
X82350986Y-91623017D01*
X82350987Y-91623019D01*
X82422616Y-91730219D01*
X82422619Y-91730223D01*
X82513776Y-91821380D01*
X82513780Y-91821383D01*
X82620978Y-91893011D01*
X82620979Y-91893011D01*
X82620980Y-91893012D01*
X82620982Y-91893013D01*
X82685735Y-91919834D01*
X82740089Y-91942348D01*
X82740091Y-91942348D01*
X82740096Y-91942350D01*
X82866532Y-91967499D01*
X82866536Y-91967500D01*
X82994615Y-91967500D01*
X83061654Y-91987185D01*
X83082296Y-92003819D01*
X83322297Y-92243819D01*
X83355782Y-92305142D01*
X83350798Y-92374833D01*
X83308927Y-92430767D01*
X83243462Y-92455184D01*
X83234616Y-92455500D01*
X78449853Y-92455500D01*
X78382814Y-92435815D01*
X78362172Y-92419181D01*
X77130716Y-91187725D01*
X77130712Y-91187722D01*
X77128392Y-91186383D01*
X77128393Y-91186381D01*
X77128385Y-91186379D01*
X77043724Y-91137500D01*
X77043723Y-91137499D01*
X77019464Y-91130999D01*
X76946693Y-91111500D01*
X74318775Y-91111500D01*
X74246003Y-91130999D01*
X74221745Y-91137499D01*
X74137081Y-91186380D01*
X74137076Y-91186383D01*
X74134755Y-91187722D01*
X74134751Y-91187725D01*
X72776296Y-92546181D01*
X72714973Y-92579666D01*
X72688615Y-92582500D01*
X60158465Y-92582500D01*
X60091426Y-92562815D01*
X60070788Y-92546185D01*
X59980220Y-92455617D01*
X59980219Y-92455616D01*
X59980218Y-92455615D01*
X59873019Y-92383987D01*
X59873017Y-92383986D01*
X59753912Y-92334652D01*
X59753903Y-92334649D01*
X59627467Y-92309500D01*
X59627463Y-92309500D01*
X59498537Y-92309500D01*
X59498532Y-92309500D01*
X59372096Y-92334649D01*
X59372087Y-92334652D01*
X59252982Y-92383986D01*
X59252980Y-92383987D01*
X59145780Y-92455616D01*
X59145776Y-92455619D01*
X59054619Y-92546776D01*
X59054616Y-92546780D01*
X58982987Y-92653980D01*
X58982986Y-92653982D01*
X58933652Y-92773087D01*
X58933649Y-92773096D01*
X58908500Y-92899532D01*
X58908500Y-92947500D01*
X58888815Y-93014539D01*
X58836011Y-93060294D01*
X58784500Y-93071500D01*
X58736532Y-93071500D01*
X58610096Y-93096649D01*
X58610087Y-93096652D01*
X58490982Y-93145986D01*
X58490980Y-93145987D01*
X58383780Y-93217616D01*
X58383776Y-93217619D01*
X58292619Y-93308776D01*
X58292616Y-93308780D01*
X58220987Y-93415980D01*
X58220986Y-93415982D01*
X58171652Y-93535087D01*
X58171649Y-93535096D01*
X58146500Y-93661532D01*
X58146500Y-93790467D01*
X58171649Y-93916903D01*
X58171652Y-93916912D01*
X58220986Y-94036017D01*
X58220987Y-94036019D01*
X58292616Y-94143219D01*
X58292619Y-94143223D01*
X58383776Y-94234380D01*
X58383780Y-94234383D01*
X58490978Y-94306011D01*
X58490979Y-94306011D01*
X58490980Y-94306012D01*
X58490982Y-94306013D01*
X58570385Y-94338902D01*
X58610089Y-94355348D01*
X58610091Y-94355348D01*
X58610096Y-94355350D01*
X58680645Y-94369383D01*
X58742556Y-94401768D01*
X58777130Y-94462483D01*
X58773391Y-94532253D01*
X58732524Y-94588925D01*
X58667506Y-94614506D01*
X58656454Y-94615000D01*
X30091788Y-94615000D01*
X30024749Y-94595315D01*
X29978994Y-94542511D01*
X29969050Y-94473353D01*
X29998075Y-94409797D01*
X30056853Y-94372023D01*
X30079634Y-94367597D01*
X30165883Y-94359102D01*
X30225492Y-94353231D01*
X30390265Y-94320455D01*
X30558366Y-94287019D01*
X30558377Y-94287016D01*
X30558377Y-94287015D01*
X30558387Y-94287014D01*
X30883189Y-94188486D01*
X31196770Y-94058597D01*
X31496110Y-93898597D01*
X31778325Y-93710027D01*
X32040698Y-93494702D01*
X32280702Y-93254698D01*
X32496027Y-92992325D01*
X32684597Y-92710110D01*
X32844597Y-92410770D01*
X32974486Y-92097189D01*
X33073014Y-91772387D01*
X33073016Y-91772377D01*
X33073019Y-91772366D01*
X33106455Y-91604265D01*
X33139231Y-91439492D01*
X33172500Y-91101709D01*
X33172500Y-90762291D01*
X33139231Y-90424508D01*
X33114538Y-90300369D01*
X33073019Y-90091633D01*
X33073016Y-90091622D01*
X33073015Y-90091619D01*
X33073014Y-90091613D01*
X32974486Y-89766811D01*
X32844597Y-89453230D01*
X32684597Y-89153890D01*
X32496027Y-88871675D01*
X32280702Y-88609302D01*
X32280701Y-88609301D01*
X32280697Y-88609296D01*
X32040703Y-88369302D01*
X31778330Y-88153977D01*
X31778329Y-88153976D01*
X31778325Y-88153973D01*
X31496110Y-87965403D01*
X31496105Y-87965400D01*
X31496098Y-87965396D01*
X31240455Y-87828753D01*
X31196770Y-87805403D01*
X31186440Y-87801124D01*
X30883190Y-87675514D01*
X30558377Y-87576983D01*
X30558366Y-87576980D01*
X30225498Y-87510770D01*
X30225481Y-87510767D01*
X29970048Y-87485609D01*
X29887709Y-87477500D01*
X29548291Y-87477500D01*
X29472139Y-87485000D01*
X29210518Y-87510767D01*
X29210501Y-87510770D01*
X28877633Y-87576980D01*
X28877622Y-87576983D01*
X28552809Y-87675514D01*
X28239236Y-87805400D01*
X28239222Y-87805407D01*
X27939901Y-87965396D01*
X27939883Y-87965407D01*
X27657683Y-88153967D01*
X27657669Y-88153977D01*
X27395296Y-88369302D01*
X27155302Y-88609296D01*
X26939977Y-88871669D01*
X26939967Y-88871683D01*
X26751407Y-89153883D01*
X26751396Y-89153901D01*
X26591407Y-89453222D01*
X26591400Y-89453236D01*
X26461514Y-89766809D01*
X26362983Y-90091622D01*
X26362980Y-90091633D01*
X26296770Y-90424501D01*
X26296767Y-90424518D01*
X26276997Y-90625251D01*
X26263500Y-90762291D01*
X26263500Y-91101709D01*
X26271840Y-91186381D01*
X26296767Y-91439481D01*
X26296770Y-91439498D01*
X26362980Y-91772366D01*
X26362983Y-91772377D01*
X26461514Y-92097190D01*
X26549456Y-92309500D01*
X26591403Y-92410770D01*
X26613797Y-92452666D01*
X26751396Y-92710098D01*
X26751407Y-92710116D01*
X26939967Y-92992316D01*
X26939977Y-92992330D01*
X27155302Y-93254703D01*
X27395296Y-93494697D01*
X27395301Y-93494701D01*
X27395302Y-93494702D01*
X27657675Y-93710027D01*
X27939890Y-93898597D01*
X28239230Y-94058597D01*
X28552811Y-94188486D01*
X28877613Y-94287014D01*
X28877619Y-94287015D01*
X28877622Y-94287016D01*
X28877633Y-94287019D01*
X29086369Y-94328538D01*
X29210508Y-94353231D01*
X29210517Y-94353231D01*
X29210518Y-94353232D01*
X29356366Y-94367597D01*
X29421153Y-94393758D01*
X29461512Y-94450792D01*
X29464629Y-94520592D01*
X29429515Y-94580997D01*
X29367317Y-94612828D01*
X29344212Y-94615000D01*
X26032211Y-94615000D01*
X25965172Y-94595315D01*
X25919417Y-94542511D01*
X25908211Y-94490790D01*
X25922193Y-86241228D01*
X46033500Y-86241228D01*
X46033500Y-88337751D01*
X46033501Y-88337757D01*
X46039960Y-88397844D01*
X46090655Y-88533761D01*
X46090656Y-88533764D01*
X46090658Y-88533767D01*
X46119747Y-88572626D01*
X46177595Y-88649904D01*
X46205702Y-88670944D01*
X46293733Y-88736842D01*
X46429658Y-88787540D01*
X46489745Y-88794000D01*
X48586254Y-88793999D01*
X48646342Y-88787540D01*
X48782267Y-88736842D01*
X48898404Y-88649904D01*
X48985342Y-88533767D01*
X49036040Y-88397842D01*
X49040943Y-88352237D01*
X49042499Y-88337771D01*
X49042499Y-88337764D01*
X49042500Y-88337755D01*
X49042499Y-87171093D01*
X51033500Y-87171093D01*
X51033500Y-87407906D01*
X51070546Y-87641806D01*
X51070546Y-87641809D01*
X51143723Y-87867024D01*
X51143725Y-87867027D01*
X51251236Y-88078030D01*
X51390432Y-88269616D01*
X51557884Y-88437068D01*
X51749470Y-88576264D01*
X51935281Y-88670939D01*
X51960475Y-88683776D01*
X52185691Y-88756953D01*
X52185692Y-88756953D01*
X52185695Y-88756954D01*
X52419593Y-88794000D01*
X52419594Y-88794000D01*
X52656406Y-88794000D01*
X52656407Y-88794000D01*
X52890305Y-88756954D01*
X52890308Y-88756953D01*
X52890309Y-88756953D01*
X53115524Y-88683776D01*
X53115524Y-88683775D01*
X53115527Y-88683775D01*
X53326530Y-88576264D01*
X53518116Y-88437068D01*
X53685568Y-88269616D01*
X53824764Y-88078030D01*
X53932275Y-87867027D01*
X53990082Y-87689115D01*
X54005453Y-87641809D01*
X54005453Y-87641808D01*
X54005454Y-87641805D01*
X54042500Y-87407907D01*
X54042500Y-87171093D01*
X54005454Y-86937195D01*
X54005453Y-86937191D01*
X54005453Y-86937190D01*
X53932276Y-86711975D01*
X53824763Y-86500969D01*
X53685568Y-86309384D01*
X53551512Y-86175328D01*
X61973900Y-86175328D01*
X61973900Y-88271851D01*
X61973901Y-88271857D01*
X61980360Y-88331944D01*
X62031055Y-88467861D01*
X62031056Y-88467864D01*
X62031058Y-88467867D01*
X62060147Y-88506726D01*
X62117995Y-88584004D01*
X62163243Y-88617875D01*
X62234133Y-88670942D01*
X62370058Y-88721640D01*
X62430145Y-88728100D01*
X64526654Y-88728099D01*
X64586742Y-88721640D01*
X64722667Y-88670942D01*
X64838804Y-88584004D01*
X64925742Y-88467867D01*
X64976440Y-88331942D01*
X64979200Y-88306264D01*
X64982899Y-88271871D01*
X64982899Y-88271864D01*
X64982900Y-88271855D01*
X64982899Y-87105193D01*
X66973900Y-87105193D01*
X66973900Y-87342007D01*
X66992423Y-87458956D01*
X67010946Y-87575906D01*
X67010946Y-87575909D01*
X67084123Y-87801124D01*
X67179593Y-87988495D01*
X67191636Y-88012130D01*
X67330832Y-88203716D01*
X67498284Y-88371168D01*
X67689870Y-88510364D01*
X67900873Y-88617875D01*
X67900875Y-88617876D01*
X68126091Y-88691053D01*
X68126092Y-88691053D01*
X68126095Y-88691054D01*
X68359993Y-88728100D01*
X68359994Y-88728100D01*
X68596806Y-88728100D01*
X68596807Y-88728100D01*
X68830705Y-88691054D01*
X68830708Y-88691053D01*
X68830709Y-88691053D01*
X69055924Y-88617876D01*
X69055924Y-88617875D01*
X69055927Y-88617875D01*
X69266930Y-88510364D01*
X69458516Y-88371168D01*
X69625968Y-88203716D01*
X69765164Y-88012130D01*
X69872675Y-87801127D01*
X69924441Y-87641809D01*
X69945853Y-87575909D01*
X69945853Y-87575908D01*
X69945854Y-87575905D01*
X69982900Y-87342007D01*
X69982900Y-87105193D01*
X69945854Y-86871295D01*
X69945853Y-86871291D01*
X69945853Y-86871290D01*
X69872676Y-86646075D01*
X69872675Y-86646073D01*
X69765164Y-86435070D01*
X69625968Y-86243484D01*
X69458516Y-86076032D01*
X69266930Y-85936836D01*
X69122401Y-85863195D01*
X69055924Y-85829323D01*
X68830708Y-85756146D01*
X68655281Y-85728361D01*
X68596807Y-85719100D01*
X68359993Y-85719100D01*
X68282027Y-85731448D01*
X68126093Y-85756146D01*
X68126090Y-85756146D01*
X67900875Y-85829323D01*
X67689869Y-85936836D01*
X67631378Y-85979333D01*
X67498284Y-86076032D01*
X67498282Y-86076034D01*
X67498281Y-86076034D01*
X67330834Y-86243481D01*
X67330834Y-86243482D01*
X67330832Y-86243484D01*
X67282955Y-86309381D01*
X67191636Y-86435069D01*
X67084123Y-86646075D01*
X67010946Y-86871290D01*
X67010946Y-86871293D01*
X67000508Y-86937195D01*
X66973900Y-87105193D01*
X64982899Y-87105193D01*
X64982899Y-86175346D01*
X64976440Y-86115258D01*
X64925742Y-85979333D01*
X64882107Y-85921043D01*
X64838804Y-85863195D01*
X64761526Y-85805347D01*
X64722667Y-85776258D01*
X64586742Y-85725560D01*
X64586738Y-85725559D01*
X64526662Y-85719100D01*
X62430148Y-85719100D01*
X62430142Y-85719101D01*
X62370055Y-85725560D01*
X62234138Y-85776255D01*
X62234130Y-85776260D01*
X62117995Y-85863195D01*
X62068664Y-85929096D01*
X62031058Y-85979333D01*
X61980360Y-86115258D01*
X61980359Y-86115262D01*
X61973900Y-86175328D01*
X53551512Y-86175328D01*
X53518116Y-86141932D01*
X53326530Y-86002736D01*
X53280593Y-85979330D01*
X53115524Y-85895223D01*
X52890308Y-85822046D01*
X52714881Y-85794261D01*
X52656407Y-85785000D01*
X52419593Y-85785000D01*
X52341627Y-85797348D01*
X52185693Y-85822046D01*
X52185690Y-85822046D01*
X51960475Y-85895223D01*
X51749469Y-86002736D01*
X51690978Y-86045233D01*
X51557884Y-86141932D01*
X51557882Y-86141934D01*
X51557881Y-86141934D01*
X51390434Y-86309381D01*
X51390434Y-86309382D01*
X51390432Y-86309384D01*
X51330652Y-86391662D01*
X51251236Y-86500969D01*
X51143723Y-86711975D01*
X51070546Y-86937190D01*
X51070546Y-86937193D01*
X51033500Y-87171093D01*
X49042499Y-87171093D01*
X49042499Y-86241246D01*
X49036040Y-86181158D01*
X49033871Y-86175342D01*
X48985344Y-86045238D01*
X48985343Y-86045237D01*
X48985342Y-86045233D01*
X48936014Y-85979338D01*
X48898404Y-85929095D01*
X48810369Y-85863195D01*
X48782267Y-85842158D01*
X48646342Y-85791460D01*
X48646338Y-85791459D01*
X48586262Y-85785000D01*
X46489748Y-85785000D01*
X46489742Y-85785001D01*
X46429655Y-85791460D01*
X46293738Y-85842155D01*
X46293730Y-85842160D01*
X46177595Y-85929095D01*
X46122470Y-86002736D01*
X46090658Y-86045233D01*
X46039960Y-86181158D01*
X46039959Y-86181162D01*
X46033500Y-86241228D01*
X25922193Y-86241228D01*
X25922199Y-86237714D01*
X25935821Y-78200593D01*
X31856000Y-78200593D01*
X31856000Y-78437406D01*
X31893046Y-78671306D01*
X31893046Y-78671309D01*
X31966223Y-78896524D01*
X32027356Y-79016504D01*
X32073736Y-79107530D01*
X32212932Y-79299116D01*
X32380384Y-79466568D01*
X32571970Y-79605764D01*
X32782973Y-79713275D01*
X32782975Y-79713276D01*
X33008191Y-79786453D01*
X33008192Y-79786453D01*
X33008195Y-79786454D01*
X33242093Y-79823500D01*
X33242094Y-79823500D01*
X33478906Y-79823500D01*
X33478907Y-79823500D01*
X33712805Y-79786454D01*
X33712808Y-79786453D01*
X33712809Y-79786453D01*
X33938024Y-79713276D01*
X33938024Y-79713275D01*
X33938027Y-79713275D01*
X34149030Y-79605764D01*
X34340616Y-79466568D01*
X34508068Y-79299116D01*
X34599977Y-79172613D01*
X34655307Y-79129949D01*
X34700295Y-79121500D01*
X38183160Y-79121500D01*
X38250199Y-79141185D01*
X38283476Y-79172612D01*
X38286118Y-79176248D01*
X38286122Y-79176253D01*
X38425753Y-79315884D01*
X38575234Y-79424486D01*
X38585499Y-79431944D01*
X38761439Y-79521591D01*
X38886637Y-79562270D01*
X38949236Y-79582610D01*
X39144264Y-79613500D01*
X39144269Y-79613500D01*
X39341736Y-79613500D01*
X39536763Y-79582610D01*
X39724561Y-79521591D01*
X39900501Y-79431944D01*
X39990192Y-79366779D01*
X40060246Y-79315884D01*
X40060248Y-79315881D01*
X40060252Y-79315879D01*
X40199879Y-79176252D01*
X40199881Y-79176248D01*
X40199884Y-79176246D01*
X40250779Y-79106192D01*
X40315944Y-79016501D01*
X40405591Y-78840561D01*
X40466610Y-78652763D01*
X40497500Y-78457736D01*
X40497500Y-78260263D01*
X40466610Y-78065236D01*
X40434590Y-77966690D01*
X40405591Y-77877439D01*
X40315944Y-77701499D01*
X40308486Y-77691234D01*
X40199884Y-77541753D01*
X40060246Y-77402115D01*
X39900504Y-77286058D01*
X39900503Y-77286057D01*
X39900501Y-77286056D01*
X39724561Y-77196409D01*
X39724558Y-77196408D01*
X39536763Y-77135389D01*
X39341736Y-77104500D01*
X39341731Y-77104500D01*
X39144269Y-77104500D01*
X39144264Y-77104500D01*
X38949236Y-77135389D01*
X38761441Y-77196408D01*
X38585495Y-77286058D01*
X38425753Y-77402115D01*
X38286122Y-77541746D01*
X38286118Y-77541751D01*
X38283476Y-77545388D01*
X38228146Y-77588052D01*
X38183160Y-77596500D01*
X34756895Y-77596500D01*
X34689856Y-77576815D01*
X34651017Y-77533881D01*
X34649809Y-77534622D01*
X34647268Y-77530476D01*
X34647263Y-77530469D01*
X34508068Y-77338884D01*
X34340616Y-77171432D01*
X34149030Y-77032236D01*
X33938024Y-76924723D01*
X33712808Y-76851546D01*
X33537381Y-76823761D01*
X33478907Y-76814500D01*
X33242093Y-76814500D01*
X33164127Y-76826848D01*
X33008193Y-76851546D01*
X33008190Y-76851546D01*
X32782975Y-76924723D01*
X32571969Y-77032236D01*
X32462662Y-77111652D01*
X32380384Y-77171432D01*
X32380382Y-77171434D01*
X32380381Y-77171434D01*
X32212934Y-77338881D01*
X32212934Y-77338882D01*
X32212932Y-77338884D01*
X32153152Y-77421162D01*
X32073736Y-77530469D01*
X31966223Y-77741475D01*
X31893046Y-77966690D01*
X31893046Y-77966693D01*
X31856000Y-78200593D01*
X25935821Y-78200593D01*
X25935830Y-78195511D01*
X25945872Y-72270728D01*
X31856000Y-72270728D01*
X31856000Y-74367251D01*
X31856001Y-74367257D01*
X31862460Y-74427344D01*
X31913155Y-74563261D01*
X31913156Y-74563264D01*
X31913158Y-74563267D01*
X31942247Y-74602126D01*
X32000095Y-74679404D01*
X32057943Y-74722707D01*
X32116233Y-74766342D01*
X32252158Y-74817040D01*
X32312245Y-74823500D01*
X34408754Y-74823499D01*
X34468842Y-74817040D01*
X34604767Y-74766342D01*
X34720904Y-74679404D01*
X34807842Y-74563267D01*
X34858540Y-74427342D01*
X34861300Y-74401664D01*
X34864999Y-74367271D01*
X34865000Y-74367254D01*
X34865000Y-74292500D01*
X34884685Y-74225461D01*
X34937489Y-74179706D01*
X34989000Y-74168500D01*
X38183160Y-74168500D01*
X38250199Y-74188185D01*
X38283476Y-74219612D01*
X38286118Y-74223248D01*
X38286122Y-74223253D01*
X38425753Y-74362884D01*
X38575234Y-74471486D01*
X38585499Y-74478944D01*
X38761439Y-74568591D01*
X38886637Y-74609270D01*
X38949236Y-74629610D01*
X39144264Y-74660500D01*
X39144269Y-74660500D01*
X39341736Y-74660500D01*
X39536763Y-74629610D01*
X39724561Y-74568591D01*
X39900501Y-74478944D01*
X39990192Y-74413779D01*
X40060246Y-74362884D01*
X40060248Y-74362881D01*
X40060252Y-74362879D01*
X40199879Y-74223252D01*
X40199881Y-74223248D01*
X40199884Y-74223246D01*
X40303047Y-74081252D01*
X40315944Y-74063501D01*
X40405591Y-73887561D01*
X40466610Y-73699763D01*
X40497500Y-73504736D01*
X40497500Y-73307263D01*
X40466610Y-73112236D01*
X40444902Y-73045427D01*
X40405591Y-72924439D01*
X40315944Y-72748499D01*
X40286456Y-72707912D01*
X40199884Y-72588753D01*
X40060246Y-72449115D01*
X39900504Y-72333058D01*
X39900503Y-72333057D01*
X39900501Y-72333056D01*
X39724561Y-72243409D01*
X39724558Y-72243408D01*
X39536763Y-72182389D01*
X39341736Y-72151500D01*
X39341731Y-72151500D01*
X39144269Y-72151500D01*
X39144264Y-72151500D01*
X38949236Y-72182389D01*
X38761441Y-72243408D01*
X38585495Y-72333058D01*
X38425753Y-72449115D01*
X38286122Y-72588746D01*
X38286118Y-72588751D01*
X38283476Y-72592388D01*
X38228146Y-72635052D01*
X38183160Y-72643500D01*
X34988999Y-72643500D01*
X34921960Y-72623815D01*
X34876205Y-72571011D01*
X34864999Y-72519500D01*
X34864999Y-72270748D01*
X34864999Y-72270745D01*
X34858540Y-72210658D01*
X34857168Y-72206980D01*
X34807844Y-72074738D01*
X34807843Y-72074737D01*
X34807842Y-72074733D01*
X34755171Y-72004372D01*
X34720904Y-71958595D01*
X34628493Y-71889419D01*
X34604767Y-71871658D01*
X34468842Y-71820960D01*
X34468838Y-71820959D01*
X34408762Y-71814500D01*
X32312248Y-71814500D01*
X32312242Y-71814501D01*
X32252155Y-71820960D01*
X32116238Y-71871655D01*
X32116230Y-71871660D01*
X32000095Y-71958595D01*
X31920427Y-72065022D01*
X31913158Y-72074733D01*
X31862460Y-72210658D01*
X31862459Y-72210662D01*
X31856000Y-72270728D01*
X25945872Y-72270728D01*
X25945878Y-72267214D01*
X25950945Y-69277532D01*
X58400500Y-69277532D01*
X58400500Y-69406467D01*
X58425649Y-69532903D01*
X58425652Y-69532912D01*
X58474986Y-69652017D01*
X58474987Y-69652018D01*
X58474989Y-69652022D01*
X58525602Y-69727768D01*
X58546480Y-69794445D01*
X58546500Y-69796659D01*
X58546500Y-72062339D01*
X58526815Y-72129378D01*
X58525602Y-72131230D01*
X58474992Y-72206971D01*
X58474985Y-72206983D01*
X58425652Y-72326087D01*
X58425649Y-72326096D01*
X58400500Y-72452532D01*
X58400500Y-72581467D01*
X58425649Y-72707903D01*
X58425652Y-72707912D01*
X58474986Y-72827017D01*
X58474987Y-72827019D01*
X58546616Y-72934219D01*
X58546619Y-72934223D01*
X58637776Y-73025380D01*
X58637780Y-73025383D01*
X58744978Y-73097011D01*
X58744979Y-73097011D01*
X58744980Y-73097012D01*
X58744982Y-73097013D01*
X58781737Y-73112237D01*
X58864089Y-73146348D01*
X58864091Y-73146348D01*
X58864096Y-73146350D01*
X58990532Y-73171499D01*
X58990536Y-73171500D01*
X58990537Y-73171500D01*
X59119464Y-73171500D01*
X59119465Y-73171499D01*
X59161612Y-73163116D01*
X59245903Y-73146350D01*
X59245906Y-73146348D01*
X59245911Y-73146348D01*
X59365022Y-73097011D01*
X59472220Y-73025383D01*
X59563383Y-72934220D01*
X59635011Y-72827022D01*
X59684348Y-72707911D01*
X59709500Y-72581463D01*
X59709500Y-72452537D01*
X59689197Y-72350466D01*
X59684350Y-72326096D01*
X59684347Y-72326087D01*
X59635014Y-72206983D01*
X59635007Y-72206971D01*
X59584398Y-72131230D01*
X59563520Y-72064553D01*
X59563500Y-72062339D01*
X59563500Y-69796659D01*
X59583185Y-69729620D01*
X59584398Y-69727768D01*
X59635011Y-69652022D01*
X59684348Y-69532911D01*
X59709500Y-69406463D01*
X59709500Y-69277537D01*
X59697137Y-69215383D01*
X59684350Y-69151096D01*
X59684347Y-69151087D01*
X59635013Y-69031982D01*
X59635012Y-69031980D01*
X59625017Y-69017022D01*
X59563383Y-68924780D01*
X59563380Y-68924776D01*
X59472223Y-68833619D01*
X59472219Y-68833616D01*
X59365019Y-68761987D01*
X59365017Y-68761986D01*
X59245912Y-68712652D01*
X59245903Y-68712649D01*
X59119467Y-68687500D01*
X59119463Y-68687500D01*
X58990537Y-68687500D01*
X58990532Y-68687500D01*
X58864096Y-68712649D01*
X58864087Y-68712652D01*
X58744982Y-68761986D01*
X58744980Y-68761987D01*
X58637780Y-68833616D01*
X58637776Y-68833619D01*
X58546619Y-68924776D01*
X58546616Y-68924780D01*
X58474987Y-69031980D01*
X58474986Y-69031982D01*
X58425652Y-69151087D01*
X58425649Y-69151096D01*
X58400500Y-69277532D01*
X25950945Y-69277532D01*
X25950956Y-69271235D01*
X25954153Y-67385102D01*
X76326499Y-67385102D01*
X76355801Y-67532407D01*
X76355803Y-67532413D01*
X76413280Y-67671176D01*
X76413285Y-67671185D01*
X76496727Y-67796064D01*
X76496730Y-67796068D01*
X76602931Y-67902269D01*
X76602935Y-67902272D01*
X76727814Y-67985714D01*
X76727820Y-67985717D01*
X76727821Y-67985718D01*
X76866587Y-68043197D01*
X76866591Y-68043197D01*
X76866592Y-68043198D01*
X77013897Y-68072500D01*
X77013900Y-68072500D01*
X90245102Y-68072500D01*
X90344204Y-68052786D01*
X90392413Y-68043197D01*
X90531179Y-67985718D01*
X90656065Y-67902272D01*
X90762272Y-67796065D01*
X90845718Y-67671179D01*
X90903197Y-67532413D01*
X90932500Y-67385100D01*
X90932500Y-67234900D01*
X90932500Y-67234897D01*
X90903198Y-67087592D01*
X90903197Y-67087591D01*
X90903197Y-67087587D01*
X90845718Y-66948821D01*
X90845717Y-66948820D01*
X90845714Y-66948814D01*
X90762272Y-66823935D01*
X90762269Y-66823931D01*
X90656068Y-66717730D01*
X90656064Y-66717727D01*
X90531185Y-66634285D01*
X90531176Y-66634280D01*
X90392413Y-66576803D01*
X90392407Y-66576801D01*
X90245102Y-66547500D01*
X90245100Y-66547500D01*
X79196100Y-66547500D01*
X77013900Y-66547500D01*
X77013898Y-66547500D01*
X76866592Y-66576801D01*
X76866586Y-66576803D01*
X76727823Y-66634280D01*
X76727814Y-66634285D01*
X76602935Y-66717727D01*
X76602931Y-66717730D01*
X76496730Y-66823931D01*
X76496727Y-66823935D01*
X76413285Y-66948814D01*
X76413280Y-66948823D01*
X76355803Y-67087586D01*
X76355801Y-67087592D01*
X76326500Y-67234897D01*
X76326500Y-67234900D01*
X76326500Y-67385100D01*
X76326500Y-67385102D01*
X76326499Y-67385102D01*
X25954153Y-67385102D01*
X25954418Y-67228598D01*
X25959057Y-64491365D01*
X25961203Y-63225393D01*
X31764900Y-63225393D01*
X31764900Y-63462206D01*
X31801946Y-63696106D01*
X31801946Y-63696109D01*
X31875123Y-63921324D01*
X31965236Y-64098181D01*
X31982636Y-64132330D01*
X32121832Y-64323916D01*
X32289284Y-64491368D01*
X32480870Y-64630564D01*
X32630710Y-64706911D01*
X32691875Y-64738076D01*
X32917091Y-64811253D01*
X32917092Y-64811253D01*
X32917095Y-64811254D01*
X33150993Y-64848300D01*
X33150994Y-64848300D01*
X33387806Y-64848300D01*
X33387807Y-64848300D01*
X33621705Y-64811254D01*
X33621708Y-64811253D01*
X33621709Y-64811253D01*
X33846924Y-64738076D01*
X33846924Y-64738075D01*
X33846927Y-64738075D01*
X34057930Y-64630564D01*
X34249516Y-64491368D01*
X34416968Y-64323916D01*
X34556164Y-64132330D01*
X34663675Y-63921327D01*
X34736854Y-63696105D01*
X34773900Y-63462207D01*
X34773900Y-63225393D01*
X34736854Y-62991495D01*
X34736853Y-62991491D01*
X34736853Y-62991490D01*
X34663676Y-62766275D01*
X34613103Y-62667019D01*
X34556164Y-62555270D01*
X34416968Y-62363684D01*
X34249516Y-62196232D01*
X34057930Y-62057036D01*
X34038190Y-62046978D01*
X33846924Y-61949523D01*
X33621708Y-61876346D01*
X33446281Y-61848561D01*
X33387807Y-61839300D01*
X33150993Y-61839300D01*
X33073027Y-61851648D01*
X32917093Y-61876346D01*
X32917090Y-61876346D01*
X32691875Y-61949523D01*
X32480869Y-62057036D01*
X32371562Y-62136452D01*
X32289284Y-62196232D01*
X32289282Y-62196234D01*
X32289281Y-62196234D01*
X32121834Y-62363681D01*
X32121834Y-62363682D01*
X32121832Y-62363684D01*
X32079853Y-62421463D01*
X31982636Y-62555269D01*
X31875123Y-62766275D01*
X31801946Y-62991490D01*
X31801946Y-62991493D01*
X31764900Y-63225393D01*
X25961203Y-63225393D01*
X25971253Y-57295528D01*
X31764900Y-57295528D01*
X31764900Y-59392051D01*
X31764901Y-59392057D01*
X31771360Y-59452144D01*
X31822055Y-59588061D01*
X31822056Y-59588064D01*
X31822058Y-59588067D01*
X31844455Y-59617986D01*
X31908995Y-59704204D01*
X31966843Y-59747507D01*
X32025133Y-59791142D01*
X32161058Y-59841840D01*
X32221145Y-59848300D01*
X34317654Y-59848299D01*
X34377742Y-59841840D01*
X34513667Y-59791142D01*
X34629804Y-59704204D01*
X34716742Y-59588067D01*
X34767440Y-59452142D01*
X34770200Y-59426464D01*
X34773899Y-59392071D01*
X34773900Y-59392054D01*
X34773900Y-59179500D01*
X34793585Y-59112461D01*
X34846389Y-59066706D01*
X34897900Y-59055500D01*
X38183160Y-59055500D01*
X38250199Y-59075185D01*
X38283476Y-59106612D01*
X38286118Y-59110248D01*
X38286122Y-59110253D01*
X38425753Y-59249884D01*
X38575234Y-59358486D01*
X38585499Y-59365944D01*
X38761439Y-59455591D01*
X38886637Y-59496270D01*
X38949236Y-59516610D01*
X39144264Y-59547500D01*
X39144269Y-59547500D01*
X39341736Y-59547500D01*
X39536763Y-59516610D01*
X39724561Y-59455591D01*
X39900501Y-59365944D01*
X39990192Y-59300779D01*
X40060246Y-59249884D01*
X40060248Y-59249881D01*
X40060252Y-59249879D01*
X40199879Y-59110252D01*
X40199881Y-59110248D01*
X40199884Y-59110246D01*
X40286520Y-58991000D01*
X40315944Y-58950501D01*
X40405591Y-58774561D01*
X40466610Y-58586763D01*
X40497500Y-58391736D01*
X40497500Y-58194263D01*
X40466610Y-57999238D01*
X40466610Y-57999237D01*
X40410899Y-57827775D01*
X83980500Y-57827775D01*
X83980500Y-60422773D01*
X84006499Y-60519802D01*
X84056724Y-60606795D01*
X85096205Y-61646276D01*
X85183199Y-61696502D01*
X85280227Y-61722500D01*
X85510535Y-61722500D01*
X85577574Y-61742185D01*
X85598211Y-61758814D01*
X85688780Y-61849383D01*
X85795978Y-61921011D01*
X85795979Y-61921011D01*
X85795980Y-61921012D01*
X85795982Y-61921013D01*
X85864817Y-61949525D01*
X85915089Y-61970348D01*
X85915091Y-61970348D01*
X85915096Y-61970350D01*
X86041532Y-61995499D01*
X86041536Y-61995500D01*
X86041537Y-61995500D01*
X86170464Y-61995500D01*
X86170465Y-61995499D01*
X86212612Y-61987116D01*
X86296903Y-61970350D01*
X86296906Y-61970348D01*
X86296911Y-61970348D01*
X86416022Y-61921011D01*
X86523220Y-61849383D01*
X86614383Y-61758220D01*
X86686011Y-61651022D01*
X86735348Y-61531911D01*
X86760500Y-61405463D01*
X86760500Y-61276537D01*
X86760275Y-61275409D01*
X86735350Y-61150096D01*
X86735347Y-61150087D01*
X86686013Y-61030982D01*
X86686012Y-61030980D01*
X86638250Y-60959500D01*
X86614383Y-60923780D01*
X86614380Y-60923776D01*
X86523223Y-60832619D01*
X86523219Y-60832616D01*
X86416019Y-60760987D01*
X86416017Y-60760986D01*
X86296912Y-60711652D01*
X86296903Y-60711649D01*
X86170467Y-60686500D01*
X86170463Y-60686500D01*
X86041537Y-60686500D01*
X86041532Y-60686500D01*
X85915096Y-60711649D01*
X85915087Y-60711652D01*
X85795982Y-60760986D01*
X85795980Y-60760987D01*
X85688780Y-60832616D01*
X85612866Y-60908530D01*
X85604919Y-60912868D01*
X85599495Y-60920115D01*
X85574735Y-60929349D01*
X85551542Y-60942014D01*
X85542513Y-60941368D01*
X85534031Y-60944532D01*
X85508206Y-60938914D01*
X85481851Y-60937029D01*
X85472799Y-60931211D01*
X85465758Y-60929680D01*
X85437504Y-60908529D01*
X85374854Y-60845879D01*
X85341369Y-60784556D01*
X85346353Y-60714864D01*
X85388225Y-60658931D01*
X85395076Y-60654573D01*
X85394957Y-60654395D01*
X85400020Y-60651011D01*
X85400022Y-60651011D01*
X85507220Y-60579383D01*
X85598383Y-60488220D01*
X85670011Y-60381022D01*
X85719348Y-60261911D01*
X85744500Y-60135463D01*
X85744500Y-60006537D01*
X85733754Y-59952511D01*
X85719350Y-59880096D01*
X85719347Y-59880087D01*
X85670013Y-59760982D01*
X85670012Y-59760980D01*
X85632075Y-59704204D01*
X85598383Y-59653780D01*
X85598380Y-59653776D01*
X85507819Y-59563215D01*
X85474334Y-59501892D01*
X85471500Y-59475534D01*
X85471500Y-58248385D01*
X85491185Y-58181346D01*
X85507819Y-58160704D01*
X86836991Y-56831532D01*
X94468500Y-56831532D01*
X94468500Y-56960467D01*
X94493649Y-57086903D01*
X94493652Y-57086912D01*
X94542986Y-57206017D01*
X94542987Y-57206019D01*
X94614616Y-57313219D01*
X94614619Y-57313223D01*
X94705776Y-57404380D01*
X94705780Y-57404383D01*
X94812978Y-57476011D01*
X94812979Y-57476011D01*
X94812980Y-57476012D01*
X94812982Y-57476013D01*
X94892385Y-57508902D01*
X94932089Y-57525348D01*
X94932091Y-57525348D01*
X94932096Y-57525350D01*
X95058532Y-57550499D01*
X95058536Y-57550500D01*
X95058537Y-57550500D01*
X95187464Y-57550500D01*
X95187465Y-57550499D01*
X95229612Y-57542116D01*
X95313903Y-57525350D01*
X95313906Y-57525348D01*
X95313911Y-57525348D01*
X95433022Y-57476011D01*
X95540220Y-57404383D01*
X95630785Y-57313817D01*
X95692106Y-57280334D01*
X95718465Y-57277500D01*
X101898615Y-57277500D01*
X101965654Y-57297185D01*
X101986296Y-57313819D01*
X102452181Y-57779704D01*
X102485666Y-57841027D01*
X102488500Y-57867385D01*
X102488500Y-63732735D01*
X102468815Y-63799774D01*
X102416011Y-63845529D01*
X102346853Y-63855473D01*
X102317048Y-63847297D01*
X102312780Y-63845529D01*
X102206911Y-63801677D01*
X102206904Y-63801675D01*
X102206903Y-63801675D01*
X102206903Y-63801674D01*
X102080467Y-63776525D01*
X102080463Y-63776525D01*
X101951537Y-63776525D01*
X101951532Y-63776525D01*
X101825096Y-63801674D01*
X101825087Y-63801677D01*
X101705982Y-63851011D01*
X101705980Y-63851012D01*
X101598780Y-63922641D01*
X101598776Y-63922644D01*
X101507619Y-64013801D01*
X101507616Y-64013805D01*
X101435987Y-64121005D01*
X101435986Y-64121007D01*
X101411388Y-64180394D01*
X101367547Y-64234798D01*
X101301253Y-64256863D01*
X101233554Y-64239584D01*
X101226336Y-64234957D01*
X101217093Y-64228570D01*
X101199247Y-64210724D01*
X101155081Y-64185225D01*
X101112256Y-64160500D01*
X101112255Y-64160499D01*
X101087996Y-64153999D01*
X101015225Y-64134500D01*
X101015222Y-64134500D01*
X98639465Y-64134500D01*
X98572426Y-64114815D01*
X98551788Y-64098185D01*
X98461220Y-64007617D01*
X98461219Y-64007616D01*
X98461218Y-64007615D01*
X98354019Y-63935987D01*
X98354017Y-63935986D01*
X98234912Y-63886652D01*
X98234903Y-63886649D01*
X98108467Y-63861500D01*
X98108463Y-63861500D01*
X97979537Y-63861500D01*
X97979532Y-63861500D01*
X97853096Y-63886649D01*
X97853087Y-63886652D01*
X97733982Y-63935986D01*
X97733980Y-63935987D01*
X97626780Y-64007616D01*
X97626776Y-64007619D01*
X97535619Y-64098776D01*
X97535616Y-64098780D01*
X97463987Y-64205980D01*
X97463986Y-64205982D01*
X97414652Y-64325087D01*
X97414649Y-64325096D01*
X97389500Y-64451532D01*
X97389500Y-64580467D01*
X97414649Y-64706903D01*
X97414652Y-64706912D01*
X97463986Y-64826017D01*
X97463987Y-64826019D01*
X97535616Y-64933219D01*
X97535619Y-64933223D01*
X97602215Y-64999819D01*
X97635700Y-65061142D01*
X97630716Y-65130834D01*
X97602215Y-65175181D01*
X97535619Y-65241776D01*
X97535616Y-65241780D01*
X97463987Y-65348980D01*
X97463986Y-65348982D01*
X97414652Y-65468087D01*
X97414649Y-65468096D01*
X97389500Y-65594532D01*
X97389500Y-65723467D01*
X97414649Y-65849903D01*
X97414652Y-65849912D01*
X97463986Y-65969017D01*
X97463987Y-65969019D01*
X97535616Y-66076219D01*
X97535619Y-66076223D01*
X97626776Y-66167380D01*
X97626780Y-66167383D01*
X97733978Y-66239011D01*
X97733979Y-66239011D01*
X97733980Y-66239012D01*
X97733982Y-66239013D01*
X97813385Y-66271902D01*
X97853089Y-66288348D01*
X97853091Y-66288348D01*
X97853096Y-66288350D01*
X97979532Y-66313499D01*
X97979536Y-66313500D01*
X97979537Y-66313500D01*
X98108464Y-66313500D01*
X98108465Y-66313499D01*
X98150612Y-66305116D01*
X98234903Y-66288350D01*
X98234906Y-66288348D01*
X98234911Y-66288348D01*
X98354022Y-66239011D01*
X98461220Y-66167383D01*
X98551785Y-66076817D01*
X98613106Y-66043334D01*
X98639465Y-66040500D01*
X101136615Y-66040500D01*
X101203654Y-66060185D01*
X101224296Y-66076819D01*
X101690181Y-66542704D01*
X101723666Y-66604027D01*
X101726500Y-66630385D01*
X101726500Y-68111534D01*
X101706815Y-68178573D01*
X101690181Y-68199215D01*
X101599619Y-68289776D01*
X101599616Y-68289780D01*
X101527987Y-68396980D01*
X101527986Y-68396982D01*
X101478652Y-68516087D01*
X101478649Y-68516096D01*
X101453500Y-68642532D01*
X101453500Y-68771467D01*
X101478649Y-68897903D01*
X101478652Y-68897912D01*
X101527986Y-69017017D01*
X101527987Y-69017019D01*
X101599616Y-69124219D01*
X101599619Y-69124223D01*
X101690776Y-69215380D01*
X101690780Y-69215383D01*
X101797978Y-69287011D01*
X101797979Y-69287011D01*
X101797980Y-69287012D01*
X101797982Y-69287013D01*
X101877385Y-69319902D01*
X101917089Y-69336348D01*
X101917091Y-69336348D01*
X101917096Y-69336350D01*
X102043532Y-69361499D01*
X102043536Y-69361500D01*
X102043537Y-69361500D01*
X102172464Y-69361500D01*
X102172465Y-69361499D01*
X102214612Y-69353116D01*
X102298903Y-69336350D01*
X102298906Y-69336348D01*
X102298911Y-69336348D01*
X102418022Y-69287011D01*
X102525220Y-69215383D01*
X102616383Y-69124220D01*
X102688011Y-69017022D01*
X102737348Y-68897911D01*
X102750137Y-68833619D01*
X102762499Y-68771467D01*
X102762500Y-68771464D01*
X102762500Y-68642536D01*
X102762499Y-68642532D01*
X102737350Y-68516096D01*
X102737347Y-68516087D01*
X102688013Y-68396982D01*
X102688012Y-68396980D01*
X102616383Y-68289780D01*
X102616380Y-68289776D01*
X102525819Y-68199215D01*
X102511115Y-68172287D01*
X102494523Y-68146469D01*
X102493631Y-68140268D01*
X102492334Y-68137892D01*
X102489500Y-68111534D01*
X102489500Y-68007882D01*
X102509185Y-67940843D01*
X102561989Y-67895088D01*
X102631147Y-67885144D01*
X102660951Y-67893320D01*
X102714089Y-67915331D01*
X102714091Y-67915331D01*
X102714096Y-67915333D01*
X102840532Y-67940482D01*
X102840536Y-67940483D01*
X102840537Y-67940483D01*
X102969464Y-67940483D01*
X102969465Y-67940482D01*
X103007992Y-67932818D01*
X103101886Y-67914143D01*
X103102434Y-67916898D01*
X103160195Y-67916297D01*
X103219363Y-67953458D01*
X103249048Y-68016708D01*
X103250500Y-68035631D01*
X103250500Y-69381534D01*
X103230815Y-69448573D01*
X103214181Y-69469215D01*
X103123619Y-69559776D01*
X103123616Y-69559780D01*
X103051987Y-69666980D01*
X103051986Y-69666982D01*
X103002652Y-69786087D01*
X103002649Y-69786096D01*
X102977500Y-69912532D01*
X102977500Y-70041467D01*
X103002649Y-70167903D01*
X103002652Y-70167912D01*
X103051986Y-70287017D01*
X103051987Y-70287019D01*
X103123616Y-70394219D01*
X103123619Y-70394223D01*
X103214776Y-70485380D01*
X103214780Y-70485383D01*
X103321978Y-70557011D01*
X103321979Y-70557011D01*
X103321980Y-70557012D01*
X103321982Y-70557013D01*
X103378804Y-70580549D01*
X103441089Y-70606348D01*
X103441091Y-70606348D01*
X103441096Y-70606350D01*
X103567532Y-70631499D01*
X103567536Y-70631500D01*
X103567537Y-70631500D01*
X103696464Y-70631500D01*
X103696464Y-70631499D01*
X103707071Y-70629389D01*
X103718309Y-70627155D01*
X103787900Y-70633382D01*
X103843078Y-70676245D01*
X103866322Y-70742135D01*
X103866500Y-70748772D01*
X103866500Y-70803467D01*
X103891649Y-70929903D01*
X103891652Y-70929912D01*
X103940986Y-71049017D01*
X103940987Y-71049019D01*
X104012616Y-71156219D01*
X104012619Y-71156223D01*
X104103776Y-71247380D01*
X104103780Y-71247383D01*
X104210978Y-71319011D01*
X104210979Y-71319011D01*
X104210980Y-71319012D01*
X104210982Y-71319013D01*
X104290385Y-71351902D01*
X104330089Y-71368348D01*
X104330091Y-71368348D01*
X104330096Y-71368350D01*
X104456532Y-71393499D01*
X104456536Y-71393500D01*
X104456537Y-71393500D01*
X104585464Y-71393500D01*
X104585465Y-71393499D01*
X104627612Y-71385116D01*
X104711903Y-71368350D01*
X104711906Y-71368348D01*
X104711911Y-71368348D01*
X104831022Y-71319011D01*
X104938220Y-71247383D01*
X105029383Y-71156220D01*
X105101011Y-71049022D01*
X105150348Y-70929911D01*
X105175500Y-70803463D01*
X105175500Y-70674537D01*
X105167314Y-70633382D01*
X105150350Y-70548096D01*
X105150347Y-70548087D01*
X105101013Y-70428982D01*
X105101012Y-70428980D01*
X105077785Y-70394219D01*
X105029383Y-70321780D01*
X105029380Y-70321776D01*
X104938819Y-70231215D01*
X104905334Y-70169892D01*
X104902500Y-70143534D01*
X104902500Y-66117385D01*
X104922185Y-66050346D01*
X104974989Y-66004591D01*
X105044147Y-65994647D01*
X105107703Y-66023672D01*
X105114181Y-66029704D01*
X105485724Y-66401247D01*
X105556753Y-66472276D01*
X105643746Y-66522501D01*
X105740775Y-66548500D01*
X107227535Y-66548500D01*
X107294574Y-66568185D01*
X107315211Y-66584814D01*
X107405780Y-66675383D01*
X107512978Y-66747011D01*
X107512979Y-66747011D01*
X107512980Y-66747012D01*
X107512982Y-66747013D01*
X107592385Y-66779902D01*
X107632089Y-66796348D01*
X107632091Y-66796348D01*
X107632096Y-66796350D01*
X107758532Y-66821499D01*
X107758536Y-66821500D01*
X107758537Y-66821500D01*
X107887464Y-66821500D01*
X107887465Y-66821499D01*
X107929612Y-66813116D01*
X108013903Y-66796350D01*
X108013906Y-66796348D01*
X108013911Y-66796348D01*
X108133022Y-66747011D01*
X108240220Y-66675383D01*
X108331383Y-66584220D01*
X108403011Y-66477022D01*
X108452348Y-66357911D01*
X108477500Y-66231463D01*
X108477500Y-66102537D01*
X108475051Y-66090225D01*
X108452350Y-65976096D01*
X108452347Y-65976087D01*
X108449419Y-65969019D01*
X108403011Y-65856978D01*
X108331383Y-65749780D01*
X108331380Y-65749776D01*
X108240223Y-65658619D01*
X108240219Y-65658616D01*
X108133019Y-65586987D01*
X108133017Y-65586986D01*
X108013912Y-65537652D01*
X108013903Y-65537649D01*
X107887467Y-65512500D01*
X107887463Y-65512500D01*
X107758537Y-65512500D01*
X107758532Y-65512500D01*
X107632096Y-65537649D01*
X107632087Y-65537652D01*
X107512982Y-65586986D01*
X107512980Y-65586987D01*
X107405781Y-65658615D01*
X107360499Y-65703898D01*
X107315214Y-65749182D01*
X107253894Y-65782666D01*
X107227535Y-65785500D01*
X106000385Y-65785500D01*
X105933346Y-65765815D01*
X105912704Y-65749181D01*
X104176819Y-64013296D01*
X104143334Y-63951973D01*
X104140500Y-63925615D01*
X104140500Y-62952466D01*
X104160185Y-62885427D01*
X104176819Y-62864785D01*
X104267380Y-62774223D01*
X104267383Y-62774220D01*
X104339011Y-62667022D01*
X104388348Y-62547911D01*
X104413500Y-62421463D01*
X104413500Y-62292537D01*
X104413275Y-62291409D01*
X104388350Y-62166096D01*
X104388347Y-62166087D01*
X104339013Y-62046982D01*
X104339012Y-62046980D01*
X104304613Y-61995499D01*
X104267383Y-61939780D01*
X104267380Y-61939776D01*
X104176223Y-61848619D01*
X104176219Y-61848616D01*
X104069019Y-61776987D01*
X104069017Y-61776986D01*
X103949912Y-61727652D01*
X103949903Y-61727649D01*
X103823467Y-61702500D01*
X103823463Y-61702500D01*
X103694537Y-61702500D01*
X103694532Y-61702500D01*
X103568096Y-61727649D01*
X103568087Y-61727652D01*
X103448983Y-61776986D01*
X103448979Y-61776988D01*
X103448978Y-61776989D01*
X103444387Y-61780056D01*
X103377711Y-61800932D01*
X103310331Y-61782446D01*
X103263642Y-61730466D01*
X103251500Y-61676952D01*
X103251500Y-59308032D01*
X112820000Y-59308032D01*
X112820000Y-59436967D01*
X112845149Y-59563403D01*
X112845152Y-59563412D01*
X112894486Y-59682517D01*
X112894487Y-59682519D01*
X112966116Y-59789719D01*
X112966119Y-59789723D01*
X113057276Y-59880880D01*
X113057280Y-59880883D01*
X113164478Y-59952511D01*
X113164479Y-59952511D01*
X113164480Y-59952512D01*
X113164482Y-59952513D01*
X113243885Y-59985402D01*
X113283589Y-60001848D01*
X113283591Y-60001848D01*
X113283596Y-60001850D01*
X113410032Y-60026999D01*
X113410036Y-60027000D01*
X113410037Y-60027000D01*
X113538964Y-60027000D01*
X113538965Y-60026999D01*
X113581112Y-60018616D01*
X113665403Y-60001850D01*
X113665406Y-60001848D01*
X113665411Y-60001848D01*
X113784522Y-59952511D01*
X113891720Y-59880883D01*
X113982285Y-59790317D01*
X114043606Y-59756834D01*
X114069965Y-59754000D01*
X114408115Y-59754000D01*
X114475154Y-59773685D01*
X114495796Y-59790319D01*
X114752181Y-60046704D01*
X114785666Y-60108027D01*
X114788500Y-60134385D01*
X114788500Y-60262467D01*
X114813649Y-60388903D01*
X114813652Y-60388912D01*
X114862986Y-60508017D01*
X114862987Y-60508019D01*
X114934616Y-60615219D01*
X114934619Y-60615223D01*
X115025776Y-60706380D01*
X115025780Y-60706383D01*
X115132978Y-60778011D01*
X115132979Y-60778011D01*
X115132980Y-60778012D01*
X115132982Y-60778013D01*
X115212385Y-60810902D01*
X115252089Y-60827348D01*
X115252091Y-60827348D01*
X115252096Y-60827350D01*
X115378532Y-60852499D01*
X115378536Y-60852500D01*
X115378537Y-60852500D01*
X115507464Y-60852500D01*
X115507465Y-60852499D01*
X115549612Y-60844116D01*
X115633903Y-60827350D01*
X115633906Y-60827348D01*
X115633911Y-60827348D01*
X115753022Y-60778011D01*
X115860220Y-60706383D01*
X115951383Y-60615220D01*
X116023011Y-60508022D01*
X116072348Y-60388911D01*
X116073918Y-60381022D01*
X116097499Y-60262467D01*
X116097500Y-60262464D01*
X116097500Y-60133536D01*
X116097499Y-60133532D01*
X116072350Y-60007096D01*
X116072347Y-60007087D01*
X116023013Y-59887982D01*
X116023012Y-59887980D01*
X116017739Y-59880089D01*
X115951383Y-59780780D01*
X115951380Y-59780776D01*
X115860223Y-59689619D01*
X115860219Y-59689616D01*
X115753019Y-59617987D01*
X115753017Y-59617986D01*
X115633912Y-59568652D01*
X115633903Y-59568649D01*
X115507467Y-59543500D01*
X115507463Y-59543500D01*
X115379385Y-59543500D01*
X115312346Y-59523815D01*
X115291704Y-59507181D01*
X114851748Y-59067225D01*
X114851740Y-59067219D01*
X114815629Y-59046371D01*
X114815626Y-59046370D01*
X114764756Y-59017000D01*
X114764755Y-59016999D01*
X114740496Y-59010499D01*
X114667725Y-58991000D01*
X114667722Y-58991000D01*
X114069965Y-58991000D01*
X114002926Y-58971315D01*
X113982288Y-58954685D01*
X113891720Y-58864117D01*
X113891719Y-58864116D01*
X113891718Y-58864115D01*
X113784519Y-58792487D01*
X113784517Y-58792486D01*
X113665412Y-58743152D01*
X113665403Y-58743149D01*
X113538967Y-58718000D01*
X113538963Y-58718000D01*
X113410037Y-58718000D01*
X113410032Y-58718000D01*
X113283596Y-58743149D01*
X113283587Y-58743152D01*
X113164482Y-58792486D01*
X113164480Y-58792487D01*
X113057280Y-58864116D01*
X113057276Y-58864119D01*
X112966119Y-58955276D01*
X112966116Y-58955280D01*
X112894487Y-59062480D01*
X112894486Y-59062482D01*
X112845152Y-59181587D01*
X112845149Y-59181596D01*
X112820000Y-59308032D01*
X103251500Y-59308032D01*
X103251500Y-57718227D01*
X103251501Y-57718214D01*
X103251501Y-57607777D01*
X103251501Y-57607775D01*
X103225502Y-57510747D01*
X103175276Y-57423753D01*
X102790023Y-57038500D01*
X102342250Y-56590726D01*
X102342247Y-56590724D01*
X102334027Y-56585978D01*
X102334027Y-56585977D01*
X102255254Y-56540499D01*
X102255255Y-56540499D01*
X102230996Y-56533999D01*
X102158225Y-56514500D01*
X102158222Y-56514500D01*
X95718465Y-56514500D01*
X95651426Y-56494815D01*
X95630788Y-56478185D01*
X95540220Y-56387617D01*
X95540219Y-56387616D01*
X95540218Y-56387615D01*
X95433019Y-56315987D01*
X95433017Y-56315986D01*
X95313912Y-56266652D01*
X95313903Y-56266649D01*
X95187467Y-56241500D01*
X95187463Y-56241500D01*
X95058537Y-56241500D01*
X95058532Y-56241500D01*
X94932096Y-56266649D01*
X94932087Y-56266652D01*
X94812982Y-56315986D01*
X94812980Y-56315987D01*
X94705780Y-56387616D01*
X94705776Y-56387619D01*
X94614619Y-56478776D01*
X94614616Y-56478780D01*
X94542987Y-56585981D01*
X94493652Y-56705087D01*
X94493649Y-56705096D01*
X94468500Y-56831532D01*
X86836991Y-56831532D01*
X86930759Y-56737764D01*
X87082546Y-56585977D01*
X87300276Y-56368247D01*
X87350502Y-56281253D01*
X87376500Y-56184225D01*
X87376500Y-56083775D01*
X87376500Y-55773059D01*
X87396185Y-55706020D01*
X87448989Y-55660265D01*
X87518147Y-55650321D01*
X87581703Y-55679346D01*
X87619477Y-55738124D01*
X87622117Y-55748868D01*
X87635649Y-55816903D01*
X87635652Y-55816912D01*
X87684986Y-55936017D01*
X87684987Y-55936019D01*
X87756616Y-56043219D01*
X87756619Y-56043223D01*
X87847776Y-56134380D01*
X87847780Y-56134383D01*
X87954978Y-56206011D01*
X87954979Y-56206011D01*
X87954980Y-56206012D01*
X87954982Y-56206013D01*
X88034385Y-56238902D01*
X88074089Y-56255348D01*
X88074091Y-56255348D01*
X88074096Y-56255350D01*
X88200532Y-56280499D01*
X88200536Y-56280500D01*
X88200537Y-56280500D01*
X88329464Y-56280500D01*
X88329465Y-56280499D01*
X88399082Y-56266652D01*
X88455903Y-56255350D01*
X88455906Y-56255348D01*
X88455911Y-56255348D01*
X88575022Y-56206011D01*
X88682220Y-56134383D01*
X88773383Y-56043220D01*
X88845011Y-55936022D01*
X88894348Y-55816911D01*
X88919500Y-55690463D01*
X88919500Y-55561537D01*
X88911119Y-55519403D01*
X88894350Y-55435096D01*
X88894347Y-55435087D01*
X88845013Y-55315982D01*
X88845012Y-55315980D01*
X88773383Y-55208780D01*
X88773380Y-55208776D01*
X88767949Y-55203345D01*
X88734464Y-55142022D01*
X88739448Y-55072330D01*
X88781320Y-55016397D01*
X88846784Y-54991980D01*
X88879821Y-54994046D01*
X88962535Y-55010499D01*
X88962536Y-55010500D01*
X88962537Y-55010500D01*
X89091464Y-55010500D01*
X89091465Y-55010499D01*
X89161082Y-54996652D01*
X89217903Y-54985350D01*
X89217906Y-54985348D01*
X89217911Y-54985348D01*
X89337022Y-54936011D01*
X89444220Y-54864383D01*
X89535383Y-54773220D01*
X89607011Y-54666022D01*
X89656348Y-54546911D01*
X89681500Y-54420463D01*
X89681500Y-54291537D01*
X89664228Y-54204704D01*
X89656350Y-54165096D01*
X89656347Y-54165087D01*
X89607013Y-54045982D01*
X89607012Y-54045980D01*
X89604943Y-54042884D01*
X89535383Y-53938780D01*
X89535380Y-53938776D01*
X89444223Y-53847619D01*
X89444219Y-53847616D01*
X89337019Y-53775987D01*
X89337017Y-53775986D01*
X89217912Y-53726652D01*
X89217903Y-53726649D01*
X89091467Y-53701500D01*
X89091463Y-53701500D01*
X88963385Y-53701500D01*
X88896346Y-53681815D01*
X88875704Y-53665181D01*
X88682819Y-53472296D01*
X88649334Y-53410973D01*
X88646500Y-53384615D01*
X88646500Y-52792466D01*
X88666185Y-52725427D01*
X88682819Y-52704785D01*
X88773380Y-52614223D01*
X88773383Y-52614220D01*
X88845011Y-52507022D01*
X88894348Y-52387911D01*
X88919500Y-52261463D01*
X88919500Y-52132537D01*
X88918057Y-52125281D01*
X88894350Y-52006096D01*
X88894347Y-52006087D01*
X88845013Y-51886982D01*
X88845012Y-51886980D01*
X88828581Y-51862390D01*
X88773383Y-51779780D01*
X88773380Y-51779776D01*
X88682223Y-51688619D01*
X88682219Y-51688616D01*
X88575019Y-51616987D01*
X88575017Y-51616986D01*
X88492012Y-51582605D01*
X88437608Y-51538764D01*
X88415543Y-51472470D01*
X88432822Y-51404771D01*
X88470571Y-51364944D01*
X88555220Y-51308383D01*
X88646383Y-51217220D01*
X88718011Y-51110022D01*
X88767348Y-50990911D01*
X88767622Y-50989537D01*
X88792499Y-50864467D01*
X88792500Y-50864464D01*
X88792500Y-50735536D01*
X88792499Y-50735532D01*
X88767350Y-50609096D01*
X88767347Y-50609087D01*
X88718013Y-50489982D01*
X88718012Y-50489980D01*
X88700848Y-50464293D01*
X88646383Y-50382780D01*
X88646380Y-50382776D01*
X88555223Y-50291619D01*
X88555219Y-50291616D01*
X88448019Y-50219987D01*
X88448017Y-50219986D01*
X88328912Y-50170652D01*
X88328903Y-50170649D01*
X88302173Y-50165333D01*
X88240262Y-50132948D01*
X88205688Y-50072233D01*
X88209427Y-50002463D01*
X88250294Y-49945791D01*
X88257473Y-49940614D01*
X88301220Y-49911383D01*
X88392380Y-49820223D01*
X88392383Y-49820220D01*
X88464011Y-49713022D01*
X88513348Y-49593911D01*
X88521538Y-49552740D01*
X88538499Y-49467467D01*
X88538500Y-49467464D01*
X88538500Y-49338536D01*
X88538499Y-49338532D01*
X88513350Y-49212096D01*
X88513347Y-49212087D01*
X88464013Y-49092982D01*
X88464012Y-49092980D01*
X88461943Y-49089884D01*
X88392383Y-48985780D01*
X88392380Y-48985776D01*
X88301223Y-48894619D01*
X88301219Y-48894616D01*
X88194019Y-48822987D01*
X88194017Y-48822986D01*
X88074912Y-48773652D01*
X88074903Y-48773649D01*
X87948467Y-48748500D01*
X87948463Y-48748500D01*
X87819537Y-48748500D01*
X87819532Y-48748500D01*
X87693096Y-48773649D01*
X87693087Y-48773652D01*
X87573982Y-48822986D01*
X87573980Y-48822987D01*
X87466780Y-48894616D01*
X87466776Y-48894619D01*
X87375619Y-48985776D01*
X87375616Y-48985780D01*
X87303987Y-49092980D01*
X87303986Y-49092982D01*
X87254652Y-49212087D01*
X87254649Y-49212096D01*
X87229500Y-49338532D01*
X87229500Y-49466614D01*
X87209815Y-49533653D01*
X87193181Y-49554295D01*
X86760753Y-49986724D01*
X86689725Y-50057751D01*
X86689723Y-50057754D01*
X86639499Y-50144745D01*
X86639499Y-50144746D01*
X86613500Y-50241775D01*
X86613500Y-50241777D01*
X86613500Y-50463534D01*
X86593815Y-50530573D01*
X86541011Y-50576328D01*
X86471853Y-50586272D01*
X86408297Y-50557247D01*
X86401819Y-50551215D01*
X86396223Y-50545619D01*
X86396219Y-50545616D01*
X86289019Y-50473987D01*
X86289017Y-50473986D01*
X86169912Y-50424652D01*
X86169903Y-50424649D01*
X86043467Y-50399500D01*
X86043463Y-50399500D01*
X85914537Y-50399500D01*
X85914532Y-50399500D01*
X85788096Y-50424649D01*
X85788087Y-50424652D01*
X85668982Y-50473986D01*
X85668980Y-50473987D01*
X85561780Y-50545616D01*
X85561776Y-50545619D01*
X85470619Y-50636776D01*
X85470616Y-50636780D01*
X85398987Y-50743980D01*
X85398986Y-50743982D01*
X85349652Y-50863087D01*
X85349649Y-50863096D01*
X85324500Y-50989532D01*
X85324500Y-51118467D01*
X85349649Y-51244903D01*
X85349652Y-51244912D01*
X85398986Y-51364017D01*
X85398987Y-51364019D01*
X85470616Y-51471219D01*
X85470619Y-51471223D01*
X85561776Y-51562380D01*
X85561780Y-51562383D01*
X85668978Y-51634011D01*
X85668979Y-51634011D01*
X85668980Y-51634012D01*
X85668982Y-51634013D01*
X85741574Y-51664081D01*
X85788089Y-51683348D01*
X85788091Y-51683348D01*
X85788096Y-51683350D01*
X85878691Y-51701370D01*
X85940602Y-51733754D01*
X85975176Y-51794470D01*
X85978500Y-51822987D01*
X85978500Y-55670615D01*
X85958815Y-55737654D01*
X85942181Y-55758296D01*
X84056725Y-57643751D01*
X84056723Y-57643754D01*
X84006499Y-57730745D01*
X84006499Y-57730746D01*
X83980500Y-57827775D01*
X40410899Y-57827775D01*
X40405591Y-57811439D01*
X40315944Y-57635499D01*
X40295803Y-57607777D01*
X40199884Y-57475753D01*
X40060246Y-57336115D01*
X39900504Y-57220058D01*
X39900503Y-57220057D01*
X39900501Y-57220056D01*
X39724561Y-57130409D01*
X39724558Y-57130408D01*
X39536763Y-57069389D01*
X39341736Y-57038500D01*
X39341731Y-57038500D01*
X39144269Y-57038500D01*
X39144264Y-57038500D01*
X38949236Y-57069389D01*
X38761441Y-57130408D01*
X38585495Y-57220058D01*
X38425753Y-57336115D01*
X38286122Y-57475746D01*
X38286118Y-57475751D01*
X38283476Y-57479388D01*
X38228146Y-57522052D01*
X38183160Y-57530500D01*
X34897899Y-57530500D01*
X34830860Y-57510815D01*
X34785105Y-57458011D01*
X34773899Y-57406500D01*
X34773899Y-57295548D01*
X34773899Y-57295545D01*
X34767440Y-57235458D01*
X34716742Y-57099533D01*
X34671054Y-57038500D01*
X34629804Y-56983395D01*
X34552526Y-56925547D01*
X34513667Y-56896458D01*
X34377742Y-56845760D01*
X34377738Y-56845759D01*
X34317662Y-56839300D01*
X32221148Y-56839300D01*
X32221142Y-56839301D01*
X32161055Y-56845760D01*
X32025138Y-56896455D01*
X32025130Y-56896460D01*
X31908995Y-56983395D01*
X31822060Y-57099530D01*
X31822058Y-57099533D01*
X31771360Y-57235458D01*
X31771359Y-57235462D01*
X31764900Y-57295528D01*
X25971253Y-57295528D01*
X25978556Y-52986993D01*
X31764900Y-52986993D01*
X31764900Y-53223806D01*
X31801946Y-53457706D01*
X31801946Y-53457709D01*
X31875123Y-53682924D01*
X31922541Y-53775987D01*
X31982636Y-53893930D01*
X32121832Y-54085516D01*
X32289284Y-54252968D01*
X32480870Y-54392164D01*
X32691873Y-54499675D01*
X32691875Y-54499676D01*
X32917091Y-54572853D01*
X32917092Y-54572853D01*
X32917095Y-54572854D01*
X33150993Y-54609900D01*
X33150994Y-54609900D01*
X33387806Y-54609900D01*
X33387807Y-54609900D01*
X33621705Y-54572854D01*
X33621708Y-54572853D01*
X33621709Y-54572853D01*
X33846924Y-54499676D01*
X33846924Y-54499675D01*
X33846927Y-54499675D01*
X34057930Y-54392164D01*
X34249516Y-54252968D01*
X34416968Y-54085516D01*
X34552034Y-53899613D01*
X34607364Y-53856949D01*
X34652352Y-53848500D01*
X38183160Y-53848500D01*
X38250199Y-53868185D01*
X38283476Y-53899612D01*
X38286118Y-53903248D01*
X38286122Y-53903253D01*
X38425753Y-54042884D01*
X38575234Y-54151486D01*
X38585499Y-54158944D01*
X38761439Y-54248591D01*
X38886637Y-54289270D01*
X38949236Y-54309610D01*
X39144264Y-54340500D01*
X39144269Y-54340500D01*
X39341736Y-54340500D01*
X39536763Y-54309610D01*
X39724561Y-54248591D01*
X39900501Y-54158944D01*
X40001564Y-54085518D01*
X40060246Y-54042884D01*
X40060248Y-54042881D01*
X40060252Y-54042879D01*
X40199879Y-53903252D01*
X40199881Y-53903248D01*
X40199884Y-53903246D01*
X40292340Y-53775989D01*
X40315944Y-53743501D01*
X40405591Y-53567561D01*
X40466610Y-53379763D01*
X40497500Y-53184736D01*
X40497500Y-52987263D01*
X40466610Y-52792236D01*
X40444902Y-52725427D01*
X40405591Y-52604439D01*
X40315944Y-52428499D01*
X40286456Y-52387912D01*
X40199884Y-52268753D01*
X40060246Y-52129115D01*
X39900504Y-52013058D01*
X39900503Y-52013057D01*
X39900501Y-52013056D01*
X39724561Y-51923409D01*
X39724558Y-51923408D01*
X39536763Y-51862389D01*
X39341736Y-51831500D01*
X39341731Y-51831500D01*
X39144269Y-51831500D01*
X39144264Y-51831500D01*
X38949236Y-51862389D01*
X38761441Y-51923408D01*
X38585495Y-52013058D01*
X38425753Y-52129115D01*
X38286122Y-52268746D01*
X38286118Y-52268751D01*
X38283476Y-52272388D01*
X38228146Y-52315052D01*
X38183160Y-52323500D01*
X34624162Y-52323500D01*
X34557123Y-52303815D01*
X34523844Y-52272386D01*
X34416968Y-52125284D01*
X34249516Y-51957832D01*
X34057930Y-51818636D01*
X33846924Y-51711123D01*
X33621708Y-51637946D01*
X33446281Y-51610161D01*
X33387807Y-51600900D01*
X33150993Y-51600900D01*
X33073027Y-51613248D01*
X32917093Y-51637946D01*
X32917090Y-51637946D01*
X32691875Y-51711123D01*
X32480869Y-51818636D01*
X32420649Y-51862389D01*
X32289284Y-51957832D01*
X32289282Y-51957834D01*
X32289281Y-51957834D01*
X32121834Y-52125281D01*
X32121834Y-52125282D01*
X32121832Y-52125284D01*
X32062052Y-52207562D01*
X31982636Y-52316869D01*
X31875123Y-52527875D01*
X31801946Y-52753090D01*
X31801946Y-52753093D01*
X31764900Y-52986993D01*
X25978556Y-52986993D01*
X25988606Y-47057128D01*
X31764900Y-47057128D01*
X31764900Y-49153651D01*
X31764901Y-49153657D01*
X31771360Y-49213744D01*
X31822055Y-49349661D01*
X31822056Y-49349664D01*
X31822058Y-49349667D01*
X31850379Y-49387500D01*
X31908995Y-49465804D01*
X31966843Y-49509107D01*
X32025133Y-49552742D01*
X32161058Y-49603440D01*
X32221145Y-49609900D01*
X34317654Y-49609899D01*
X34377742Y-49603440D01*
X34513667Y-49552742D01*
X34629804Y-49465804D01*
X34716742Y-49349667D01*
X34767440Y-49213742D01*
X34770200Y-49188064D01*
X34773899Y-49153671D01*
X34773900Y-49153654D01*
X34773900Y-49019500D01*
X34793585Y-48952461D01*
X34846389Y-48906706D01*
X34897900Y-48895500D01*
X38183160Y-48895500D01*
X38250199Y-48915185D01*
X38283476Y-48946612D01*
X38286118Y-48950248D01*
X38286122Y-48950253D01*
X38425753Y-49089884D01*
X38575234Y-49198486D01*
X38585499Y-49205944D01*
X38761439Y-49295591D01*
X38873563Y-49332022D01*
X38949236Y-49356610D01*
X39144264Y-49387500D01*
X39144269Y-49387500D01*
X39341736Y-49387500D01*
X39536763Y-49356610D01*
X39558150Y-49349661D01*
X39724561Y-49295591D01*
X39900501Y-49205944D01*
X39990192Y-49140779D01*
X40060246Y-49089884D01*
X40060248Y-49089881D01*
X40060252Y-49089879D01*
X40192599Y-48957532D01*
X51161500Y-48957532D01*
X51161500Y-49086467D01*
X51186649Y-49212903D01*
X51186652Y-49212912D01*
X51235986Y-49332017D01*
X51235987Y-49332019D01*
X51307616Y-49439219D01*
X51307619Y-49439223D01*
X51398776Y-49530380D01*
X51398780Y-49530383D01*
X51505978Y-49602011D01*
X51505979Y-49602011D01*
X51505980Y-49602012D01*
X51505982Y-49602013D01*
X51585385Y-49634902D01*
X51625089Y-49651348D01*
X51625091Y-49651348D01*
X51625096Y-49651350D01*
X51751532Y-49676499D01*
X51751536Y-49676500D01*
X51751537Y-49676500D01*
X51880464Y-49676500D01*
X51880465Y-49676499D01*
X51922612Y-49668116D01*
X52006903Y-49651350D01*
X52006905Y-49651349D01*
X52006911Y-49651348D01*
X52095149Y-49614798D01*
X52164615Y-49607330D01*
X52227095Y-49638605D01*
X52262747Y-49698694D01*
X52260254Y-49768519D01*
X52257161Y-49776810D01*
X52228052Y-49847088D01*
X52228049Y-49847096D01*
X52202900Y-49973532D01*
X52202900Y-50102467D01*
X52228049Y-50228903D01*
X52228051Y-50228907D01*
X52228052Y-50228911D01*
X52245241Y-50270409D01*
X52257161Y-50299188D01*
X52264628Y-50368658D01*
X52233353Y-50431136D01*
X52173263Y-50466788D01*
X52103438Y-50464293D01*
X52095147Y-50461200D01*
X52006912Y-50424652D01*
X52006903Y-50424649D01*
X51880467Y-50399500D01*
X51880463Y-50399500D01*
X51751537Y-50399500D01*
X51751532Y-50399500D01*
X51625096Y-50424649D01*
X51625087Y-50424652D01*
X51505982Y-50473986D01*
X51505980Y-50473987D01*
X51398780Y-50545616D01*
X51398776Y-50545619D01*
X51307619Y-50636776D01*
X51307616Y-50636780D01*
X51235987Y-50743980D01*
X51235986Y-50743982D01*
X51186652Y-50863087D01*
X51186649Y-50863096D01*
X51161500Y-50989532D01*
X51161500Y-51118467D01*
X51186649Y-51244903D01*
X51186652Y-51244912D01*
X51235986Y-51364017D01*
X51235987Y-51364019D01*
X51307616Y-51471219D01*
X51307619Y-51471223D01*
X51398776Y-51562380D01*
X51398780Y-51562383D01*
X51505978Y-51634011D01*
X51505979Y-51634011D01*
X51505980Y-51634012D01*
X51505982Y-51634013D01*
X51578574Y-51664081D01*
X51625089Y-51683348D01*
X51625091Y-51683348D01*
X51625096Y-51683350D01*
X51751532Y-51708499D01*
X51751536Y-51708500D01*
X51751537Y-51708500D01*
X51880464Y-51708500D01*
X51880465Y-51708499D01*
X51922612Y-51700116D01*
X52006903Y-51683350D01*
X52006906Y-51683348D01*
X52006911Y-51683348D01*
X52126022Y-51634011D01*
X52233220Y-51562383D01*
X52323785Y-51471817D01*
X52385106Y-51438334D01*
X52411465Y-51435500D01*
X52921170Y-51435500D01*
X52921173Y-51435500D01*
X53018202Y-51409501D01*
X53105195Y-51359276D01*
X53176224Y-51288247D01*
X53176224Y-51288246D01*
X54114651Y-50349819D01*
X54175974Y-50316334D01*
X54202332Y-50313500D01*
X59761223Y-50313500D01*
X59761225Y-50313500D01*
X59814638Y-50299188D01*
X59823831Y-50296725D01*
X59855924Y-50292500D01*
X59856535Y-50292500D01*
X59923574Y-50312185D01*
X59944211Y-50328814D01*
X59998173Y-50382776D01*
X60034781Y-50419384D01*
X60052369Y-50431136D01*
X60141978Y-50491011D01*
X60141979Y-50491011D01*
X60141980Y-50491012D01*
X60141982Y-50491013D01*
X60221385Y-50523902D01*
X60261089Y-50540348D01*
X60261091Y-50540348D01*
X60261096Y-50540350D01*
X60387532Y-50565499D01*
X60387536Y-50565500D01*
X60387537Y-50565500D01*
X60516464Y-50565500D01*
X60516465Y-50565499D01*
X60588279Y-50551215D01*
X60642903Y-50540350D01*
X60642906Y-50540348D01*
X60642911Y-50540348D01*
X60762022Y-50491011D01*
X60869220Y-50419383D01*
X60960383Y-50328220D01*
X61032011Y-50221022D01*
X61081348Y-50101911D01*
X61087252Y-50072233D01*
X61104260Y-49986724D01*
X61106500Y-49975463D01*
X61106500Y-49846537D01*
X61102155Y-49824691D01*
X61108382Y-49755100D01*
X61151245Y-49699922D01*
X61217135Y-49676678D01*
X61223772Y-49676500D01*
X61278464Y-49676500D01*
X61278465Y-49676499D01*
X61320612Y-49668116D01*
X61404903Y-49651350D01*
X61404906Y-49651348D01*
X61404911Y-49651348D01*
X61524022Y-49602011D01*
X61631220Y-49530383D01*
X61722383Y-49439220D01*
X61794011Y-49332022D01*
X61843348Y-49212911D01*
X61843511Y-49212096D01*
X61867204Y-49092978D01*
X61868500Y-49086463D01*
X61868500Y-48957537D01*
X61855985Y-48894619D01*
X61843350Y-48831096D01*
X61843347Y-48831087D01*
X61794013Y-48711982D01*
X61794012Y-48711980D01*
X61746250Y-48640500D01*
X61722383Y-48604780D01*
X61722380Y-48604776D01*
X61631223Y-48513619D01*
X61631219Y-48513616D01*
X61524019Y-48441987D01*
X61524017Y-48441986D01*
X61404912Y-48392652D01*
X61404903Y-48392649D01*
X61396972Y-48391072D01*
X61396959Y-48391070D01*
X61278463Y-48367500D01*
X61215743Y-48367500D01*
X61207778Y-48366464D01*
X61182858Y-48355486D01*
X61156733Y-48347815D01*
X61151354Y-48341608D01*
X61143838Y-48338297D01*
X61128807Y-48315587D01*
X61110978Y-48295011D01*
X61109809Y-48286882D01*
X61105276Y-48280033D01*
X61105188Y-48273510D01*
X90379050Y-48273510D01*
X90379050Y-48500489D01*
X90414555Y-48724657D01*
X90484692Y-48940517D01*
X90562377Y-49092982D01*
X90587736Y-49142750D01*
X90721136Y-49326361D01*
X90721140Y-49326366D01*
X90881633Y-49486859D01*
X90881638Y-49486863D01*
X90974451Y-49554295D01*
X91065253Y-49620266D01*
X91267483Y-49723308D01*
X91483343Y-49793445D01*
X91598837Y-49811737D01*
X91707511Y-49828950D01*
X91707516Y-49828950D01*
X91934489Y-49828950D01*
X92033557Y-49813258D01*
X92158657Y-49793445D01*
X92374517Y-49723308D01*
X92576747Y-49620266D01*
X92760368Y-49486858D01*
X92920858Y-49326368D01*
X93054266Y-49142747D01*
X93157308Y-48940517D01*
X93227445Y-48724657D01*
X93260870Y-48513619D01*
X93262950Y-48500489D01*
X93262950Y-48273510D01*
X96094050Y-48273510D01*
X96094050Y-48500489D01*
X96129555Y-48724657D01*
X96199692Y-48940517D01*
X96277377Y-49092982D01*
X96302736Y-49142750D01*
X96436136Y-49326361D01*
X96436140Y-49326366D01*
X96596633Y-49486859D01*
X96596638Y-49486863D01*
X96689451Y-49554295D01*
X96780253Y-49620266D01*
X96982483Y-49723308D01*
X97198343Y-49793445D01*
X97313837Y-49811737D01*
X97422511Y-49828950D01*
X97422516Y-49828950D01*
X97649489Y-49828950D01*
X97748557Y-49813258D01*
X97873657Y-49793445D01*
X98089517Y-49723308D01*
X98291747Y-49620266D01*
X98475368Y-49486858D01*
X98635858Y-49326368D01*
X98769266Y-49142747D01*
X98872308Y-48940517D01*
X98942445Y-48724657D01*
X98975870Y-48513619D01*
X98977950Y-48500489D01*
X98977950Y-48273510D01*
X98959120Y-48154628D01*
X98942445Y-48049343D01*
X98872308Y-47833483D01*
X98769266Y-47631253D01*
X98712402Y-47552986D01*
X98687596Y-47518843D01*
X98687587Y-47518832D01*
X98635858Y-47447632D01*
X98475368Y-47287142D01*
X98475366Y-47287140D01*
X98475361Y-47287136D01*
X98291750Y-47153736D01*
X98291749Y-47153735D01*
X98291747Y-47153734D01*
X98089517Y-47050692D01*
X97873657Y-46980555D01*
X97649489Y-46945050D01*
X97649484Y-46945050D01*
X97422516Y-46945050D01*
X97422511Y-46945050D01*
X97198342Y-46980555D01*
X96982480Y-47050693D01*
X96780249Y-47153736D01*
X96596638Y-47287136D01*
X96596633Y-47287140D01*
X96436140Y-47447633D01*
X96436136Y-47447638D01*
X96302736Y-47631249D01*
X96199693Y-47833480D01*
X96129555Y-48049342D01*
X96094050Y-48273510D01*
X93262950Y-48273510D01*
X93244120Y-48154628D01*
X93227445Y-48049343D01*
X93157308Y-47833483D01*
X93054266Y-47631253D01*
X92997402Y-47552986D01*
X92920863Y-47447638D01*
X92920859Y-47447633D01*
X92760366Y-47287140D01*
X92760361Y-47287136D01*
X92576750Y-47153736D01*
X92576749Y-47153735D01*
X92576747Y-47153734D01*
X92374517Y-47050692D01*
X92158657Y-46980555D01*
X91934489Y-46945050D01*
X91934484Y-46945050D01*
X91707516Y-46945050D01*
X91707511Y-46945050D01*
X91483342Y-46980555D01*
X91267480Y-47050693D01*
X91065249Y-47153736D01*
X90881638Y-47287136D01*
X90881633Y-47287140D01*
X90721140Y-47447633D01*
X90721136Y-47447638D01*
X90587736Y-47631249D01*
X90484693Y-47833480D01*
X90414555Y-48049342D01*
X90379050Y-48273510D01*
X61105188Y-48273510D01*
X61104909Y-48252807D01*
X61101034Y-48225853D01*
X61102155Y-48219309D01*
X61106499Y-48197466D01*
X61106500Y-48197464D01*
X61106500Y-48068536D01*
X61106499Y-48068532D01*
X61081350Y-47942096D01*
X61081347Y-47942087D01*
X61032013Y-47822982D01*
X61032012Y-47822980D01*
X61027657Y-47816463D01*
X60960383Y-47715780D01*
X60960380Y-47715776D01*
X60869223Y-47624619D01*
X60869219Y-47624616D01*
X60762019Y-47552987D01*
X60762017Y-47552986D01*
X60642912Y-47503652D01*
X60642903Y-47503649D01*
X60516467Y-47478500D01*
X60516463Y-47478500D01*
X60387537Y-47478500D01*
X60387532Y-47478500D01*
X60261096Y-47503649D01*
X60261087Y-47503652D01*
X60141982Y-47552986D01*
X60141980Y-47552987D01*
X60034780Y-47624616D01*
X60034776Y-47624619D01*
X59943619Y-47715776D01*
X59943616Y-47715780D01*
X59871987Y-47822980D01*
X59871986Y-47822982D01*
X59822652Y-47942086D01*
X59820882Y-47947923D01*
X59818793Y-47947289D01*
X59790957Y-48000491D01*
X59789415Y-48002060D01*
X59187296Y-48604181D01*
X59125973Y-48637666D01*
X59099615Y-48640500D01*
X52411465Y-48640500D01*
X52344426Y-48620815D01*
X52323788Y-48604185D01*
X52233220Y-48513617D01*
X52233219Y-48513616D01*
X52233218Y-48513615D01*
X52126019Y-48441987D01*
X52126017Y-48441986D01*
X52006912Y-48392652D01*
X52006903Y-48392649D01*
X51880467Y-48367500D01*
X51880463Y-48367500D01*
X51751537Y-48367500D01*
X51751532Y-48367500D01*
X51625096Y-48392649D01*
X51625087Y-48392652D01*
X51505982Y-48441986D01*
X51505980Y-48441987D01*
X51398780Y-48513616D01*
X51398776Y-48513619D01*
X51307619Y-48604776D01*
X51307616Y-48604780D01*
X51235987Y-48711980D01*
X51235986Y-48711982D01*
X51186652Y-48831087D01*
X51186649Y-48831096D01*
X51161500Y-48957532D01*
X40192599Y-48957532D01*
X40199879Y-48950252D01*
X40211628Y-48934079D01*
X40251964Y-48878563D01*
X40251966Y-48878560D01*
X40286455Y-48831089D01*
X40315944Y-48790501D01*
X40405591Y-48614561D01*
X40466610Y-48426763D01*
X40469819Y-48406500D01*
X40497500Y-48231736D01*
X40497500Y-48034263D01*
X40466610Y-47839236D01*
X40446270Y-47776637D01*
X40405591Y-47651439D01*
X40315944Y-47475499D01*
X40288325Y-47437484D01*
X40199884Y-47315753D01*
X40060246Y-47176115D01*
X39900504Y-47060058D01*
X39900503Y-47060057D01*
X39900501Y-47060056D01*
X39724561Y-46970409D01*
X39724558Y-46970408D01*
X39536763Y-46909389D01*
X39341736Y-46878500D01*
X39341731Y-46878500D01*
X39144269Y-46878500D01*
X39144264Y-46878500D01*
X38949236Y-46909389D01*
X38761441Y-46970408D01*
X38585495Y-47060058D01*
X38425753Y-47176115D01*
X38286122Y-47315746D01*
X38286118Y-47315751D01*
X38283476Y-47319388D01*
X38228146Y-47362052D01*
X38183160Y-47370500D01*
X34897899Y-47370500D01*
X34830860Y-47350815D01*
X34785105Y-47298011D01*
X34773899Y-47246500D01*
X34773899Y-47057148D01*
X34773899Y-47057145D01*
X34767440Y-46997058D01*
X34748042Y-46945050D01*
X34716744Y-46861138D01*
X34716743Y-46861137D01*
X34716742Y-46861133D01*
X34662854Y-46789146D01*
X98691200Y-46789146D01*
X98691200Y-46936853D01*
X98720012Y-47081701D01*
X98720014Y-47081709D01*
X98776534Y-47218160D01*
X98776539Y-47218170D01*
X98820318Y-47283690D01*
X98820325Y-47283699D01*
X98858592Y-47340970D01*
X98880720Y-47363098D01*
X98880724Y-47363103D01*
X98963026Y-47445405D01*
X98963030Y-47445408D01*
X99085829Y-47527460D01*
X99085833Y-47527462D01*
X99085836Y-47527464D01*
X99222291Y-47583986D01*
X99367146Y-47612799D01*
X99367150Y-47612800D01*
X99367151Y-47612800D01*
X99514850Y-47612800D01*
X99514851Y-47612799D01*
X99659709Y-47583986D01*
X99796164Y-47527464D01*
X99918970Y-47445408D01*
X100023408Y-47340970D01*
X100105464Y-47218164D01*
X100161986Y-47081709D01*
X100190800Y-46936849D01*
X100190800Y-46789151D01*
X100161986Y-46644291D01*
X100105464Y-46507836D01*
X100105462Y-46507833D01*
X100105460Y-46507829D01*
X100023408Y-46385030D01*
X100023405Y-46385026D01*
X99918973Y-46280594D01*
X99918969Y-46280591D01*
X99796170Y-46198539D01*
X99796160Y-46198534D01*
X99659709Y-46142014D01*
X99659701Y-46142012D01*
X99514853Y-46113200D01*
X99514849Y-46113200D01*
X99367151Y-46113200D01*
X99367146Y-46113200D01*
X99222298Y-46142012D01*
X99222290Y-46142014D01*
X99085839Y-46198534D01*
X99085829Y-46198539D01*
X98963030Y-46280591D01*
X98963026Y-46280594D01*
X98858594Y-46385026D01*
X98858591Y-46385030D01*
X98776539Y-46507829D01*
X98776534Y-46507839D01*
X98720014Y-46644290D01*
X98720012Y-46644298D01*
X98691200Y-46789146D01*
X34662854Y-46789146D01*
X34629804Y-46744995D01*
X34552526Y-46687147D01*
X34513667Y-46658058D01*
X34377742Y-46607360D01*
X34377738Y-46607359D01*
X34317662Y-46600900D01*
X32221148Y-46600900D01*
X32221142Y-46600901D01*
X32161055Y-46607360D01*
X32025138Y-46658055D01*
X32025130Y-46658060D01*
X31908995Y-46744995D01*
X31822060Y-46861130D01*
X31822058Y-46861133D01*
X31771360Y-46997058D01*
X31771359Y-46997062D01*
X31764900Y-47057128D01*
X25988606Y-47057128D01*
X25990782Y-45773146D01*
X91071200Y-45773146D01*
X91071200Y-45920853D01*
X91100012Y-46065701D01*
X91100014Y-46065709D01*
X91156534Y-46202160D01*
X91156539Y-46202170D01*
X91238591Y-46324969D01*
X91238594Y-46324973D01*
X91343026Y-46429405D01*
X91343030Y-46429408D01*
X91465829Y-46511460D01*
X91465833Y-46511462D01*
X91465836Y-46511464D01*
X91602291Y-46567986D01*
X91747146Y-46596799D01*
X91747150Y-46596800D01*
X91747151Y-46596800D01*
X91894850Y-46596800D01*
X91894851Y-46596799D01*
X92039709Y-46567986D01*
X92176164Y-46511464D01*
X92298970Y-46429408D01*
X92403408Y-46324970D01*
X92485464Y-46202164D01*
X92541986Y-46065709D01*
X92570800Y-45920849D01*
X92570800Y-45773151D01*
X92541986Y-45628291D01*
X92485464Y-45491836D01*
X92485462Y-45491833D01*
X92485460Y-45491829D01*
X92403408Y-45369030D01*
X92403405Y-45369026D01*
X92298973Y-45264594D01*
X92298969Y-45264591D01*
X92176170Y-45182539D01*
X92176160Y-45182534D01*
X92039709Y-45126014D01*
X92039701Y-45126012D01*
X91894853Y-45097200D01*
X91894849Y-45097200D01*
X91747151Y-45097200D01*
X91747146Y-45097200D01*
X91602298Y-45126012D01*
X91602290Y-45126014D01*
X91465839Y-45182534D01*
X91465829Y-45182539D01*
X91343030Y-45264591D01*
X91343026Y-45264594D01*
X91238594Y-45369026D01*
X91238591Y-45369030D01*
X91156539Y-45491829D01*
X91156534Y-45491839D01*
X91100014Y-45628290D01*
X91100012Y-45628298D01*
X91071200Y-45773146D01*
X25990782Y-45773146D01*
X25992504Y-44757146D01*
X98691200Y-44757146D01*
X98691200Y-44904853D01*
X98720012Y-45049701D01*
X98720014Y-45049709D01*
X98776534Y-45186160D01*
X98776539Y-45186170D01*
X98858591Y-45308969D01*
X98858594Y-45308973D01*
X98963026Y-45413405D01*
X98963030Y-45413408D01*
X99085829Y-45495460D01*
X99085833Y-45495462D01*
X99085836Y-45495464D01*
X99222291Y-45551986D01*
X99367146Y-45580799D01*
X99367150Y-45580800D01*
X99367151Y-45580800D01*
X99514850Y-45580800D01*
X99514851Y-45580799D01*
X99659709Y-45551986D01*
X99796164Y-45495464D01*
X99918970Y-45413408D01*
X100023408Y-45308970D01*
X100105464Y-45186164D01*
X100161986Y-45049709D01*
X100190800Y-44904849D01*
X100190800Y-44757151D01*
X100161986Y-44612291D01*
X100105464Y-44475836D01*
X100105461Y-44475831D01*
X100105460Y-44475829D01*
X100023408Y-44353030D01*
X100023405Y-44353026D01*
X99918973Y-44248594D01*
X99918969Y-44248591D01*
X99796170Y-44166539D01*
X99796160Y-44166534D01*
X99659709Y-44110014D01*
X99659701Y-44110012D01*
X99514853Y-44081200D01*
X99514849Y-44081200D01*
X99367151Y-44081200D01*
X99367146Y-44081200D01*
X99222298Y-44110012D01*
X99222290Y-44110014D01*
X99085839Y-44166534D01*
X99085829Y-44166539D01*
X98963030Y-44248591D01*
X98880721Y-44330899D01*
X98880714Y-44330907D01*
X98858592Y-44353030D01*
X98820327Y-44410296D01*
X98820323Y-44410303D01*
X98776538Y-44475831D01*
X98776534Y-44475839D01*
X98720014Y-44612290D01*
X98720012Y-44612298D01*
X98691200Y-44757146D01*
X25992504Y-44757146D01*
X25995154Y-43193510D01*
X90379050Y-43193510D01*
X90379050Y-43420489D01*
X90414555Y-43644657D01*
X90484693Y-43860519D01*
X90587736Y-44062750D01*
X90721136Y-44246361D01*
X90721140Y-44246366D01*
X90881633Y-44406859D01*
X90881638Y-44406863D01*
X91041793Y-44523222D01*
X91065253Y-44540266D01*
X91267483Y-44643308D01*
X91483343Y-44713445D01*
X91598837Y-44731737D01*
X91707511Y-44748950D01*
X91707516Y-44748950D01*
X91934489Y-44748950D01*
X92033557Y-44733258D01*
X92158657Y-44713445D01*
X92374517Y-44643308D01*
X92576747Y-44540266D01*
X92760368Y-44406858D01*
X92920858Y-44246368D01*
X93054266Y-44062747D01*
X93157308Y-43860517D01*
X93227445Y-43644657D01*
X93247258Y-43519557D01*
X93262950Y-43420489D01*
X93262950Y-43193510D01*
X96094050Y-43193510D01*
X96094050Y-43420489D01*
X96129555Y-43644657D01*
X96199693Y-43860519D01*
X96302736Y-44062750D01*
X96436136Y-44246361D01*
X96436140Y-44246366D01*
X96596633Y-44406859D01*
X96596638Y-44406863D01*
X96756793Y-44523222D01*
X96780253Y-44540266D01*
X96982483Y-44643308D01*
X97198343Y-44713445D01*
X97313837Y-44731737D01*
X97422511Y-44748950D01*
X97422516Y-44748950D01*
X97649489Y-44748950D01*
X97748557Y-44733258D01*
X97873657Y-44713445D01*
X98089517Y-44643308D01*
X98291747Y-44540266D01*
X98441175Y-44431700D01*
X98475360Y-44406864D01*
X98475360Y-44406863D01*
X98475368Y-44406858D01*
X98635858Y-44246368D01*
X98769266Y-44062747D01*
X98872308Y-43860517D01*
X98942445Y-43644657D01*
X98962258Y-43519557D01*
X98977950Y-43420489D01*
X98977950Y-43193510D01*
X98947593Y-43001843D01*
X98945484Y-42988532D01*
X144506500Y-42988532D01*
X144506500Y-43117467D01*
X144531649Y-43243903D01*
X144531652Y-43243912D01*
X144580986Y-43363017D01*
X144580987Y-43363019D01*
X144652616Y-43470219D01*
X144652619Y-43470223D01*
X144743181Y-43560785D01*
X144776666Y-43622108D01*
X144779500Y-43648466D01*
X144779500Y-47156534D01*
X144759815Y-47223573D01*
X144743181Y-47244215D01*
X144652619Y-47334776D01*
X144652616Y-47334780D01*
X144580987Y-47441980D01*
X144580986Y-47441982D01*
X144531652Y-47561087D01*
X144531649Y-47561096D01*
X144506500Y-47687532D01*
X144506500Y-47816467D01*
X144531649Y-47942903D01*
X144531652Y-47942912D01*
X144580986Y-48062017D01*
X144580987Y-48062019D01*
X144652616Y-48169219D01*
X144652619Y-48169223D01*
X144743776Y-48260380D01*
X144743780Y-48260383D01*
X144850978Y-48332011D01*
X144850979Y-48332011D01*
X144850980Y-48332012D01*
X144850982Y-48332013D01*
X144907652Y-48355486D01*
X144970089Y-48381348D01*
X144970091Y-48381348D01*
X144970096Y-48381350D01*
X145096532Y-48406499D01*
X145096536Y-48406500D01*
X145096537Y-48406500D01*
X145225464Y-48406500D01*
X145225465Y-48406499D01*
X145295082Y-48392652D01*
X145351903Y-48381350D01*
X145351906Y-48381348D01*
X145351911Y-48381348D01*
X145471022Y-48332011D01*
X145578220Y-48260383D01*
X145669383Y-48169220D01*
X145741011Y-48062022D01*
X145744939Y-48052538D01*
X145788779Y-47998137D01*
X145855073Y-47976071D01*
X145922772Y-47993350D01*
X145970383Y-48044486D01*
X145974056Y-48052527D01*
X145977987Y-48062017D01*
X145977989Y-48062022D01*
X146049616Y-48169219D01*
X146049619Y-48169223D01*
X146140776Y-48260380D01*
X146140780Y-48260383D01*
X146247978Y-48332011D01*
X146247979Y-48332011D01*
X146247980Y-48332012D01*
X146247982Y-48332013D01*
X146304652Y-48355486D01*
X146367089Y-48381348D01*
X146367091Y-48381348D01*
X146367096Y-48381350D01*
X146493532Y-48406499D01*
X146493536Y-48406500D01*
X146493537Y-48406500D01*
X146622464Y-48406500D01*
X146622465Y-48406499D01*
X146692082Y-48392652D01*
X146748903Y-48381350D01*
X146748906Y-48381348D01*
X146748911Y-48381348D01*
X146868022Y-48332011D01*
X146975220Y-48260383D01*
X147066383Y-48169220D01*
X147138011Y-48062022D01*
X147187348Y-47942911D01*
X147187511Y-47942096D01*
X147207970Y-47839236D01*
X147212500Y-47816463D01*
X147212500Y-47687537D01*
X147205320Y-47651439D01*
X147187350Y-47561096D01*
X147187347Y-47561087D01*
X147173418Y-47527460D01*
X147141939Y-47451461D01*
X147138013Y-47441982D01*
X147138012Y-47441980D01*
X147090250Y-47370500D01*
X147066383Y-47334780D01*
X147066380Y-47334776D01*
X146975819Y-47244215D01*
X146942334Y-47182892D01*
X146939500Y-47156534D01*
X146939500Y-43648466D01*
X146959185Y-43581427D01*
X146975819Y-43560785D01*
X147066380Y-43470223D01*
X147066383Y-43470220D01*
X147138011Y-43363022D01*
X147187348Y-43243911D01*
X147197374Y-43193510D01*
X147212499Y-43117467D01*
X147212500Y-43117464D01*
X147212500Y-42988536D01*
X147212499Y-42988532D01*
X147187350Y-42862096D01*
X147187347Y-42862087D01*
X147138013Y-42742982D01*
X147138012Y-42742980D01*
X147066383Y-42635780D01*
X147066380Y-42635776D01*
X146975223Y-42544619D01*
X146975219Y-42544616D01*
X146868019Y-42472987D01*
X146868017Y-42472986D01*
X146748912Y-42423652D01*
X146748903Y-42423649D01*
X146622467Y-42398500D01*
X146622463Y-42398500D01*
X146493537Y-42398500D01*
X146493532Y-42398500D01*
X146367096Y-42423649D01*
X146367087Y-42423652D01*
X146247982Y-42472986D01*
X146247980Y-42472987D01*
X146140780Y-42544616D01*
X146140776Y-42544619D01*
X146049619Y-42635776D01*
X146049616Y-42635780D01*
X145977987Y-42742980D01*
X145977985Y-42742984D01*
X145974060Y-42752461D01*
X145930219Y-42806864D01*
X145863924Y-42828928D01*
X145796225Y-42811648D01*
X145748615Y-42760510D01*
X145744940Y-42752461D01*
X145741014Y-42742984D01*
X145741012Y-42742980D01*
X145669383Y-42635780D01*
X145669380Y-42635776D01*
X145578223Y-42544619D01*
X145578219Y-42544616D01*
X145471019Y-42472987D01*
X145471017Y-42472986D01*
X145351912Y-42423652D01*
X145351903Y-42423649D01*
X145225467Y-42398500D01*
X145225463Y-42398500D01*
X145096537Y-42398500D01*
X145096532Y-42398500D01*
X144970096Y-42423649D01*
X144970087Y-42423652D01*
X144850982Y-42472986D01*
X144850980Y-42472987D01*
X144743780Y-42544616D01*
X144743776Y-42544619D01*
X144652619Y-42635776D01*
X144652616Y-42635780D01*
X144580987Y-42742980D01*
X144580986Y-42742982D01*
X144531652Y-42862087D01*
X144531649Y-42862096D01*
X144506500Y-42988532D01*
X98945484Y-42988532D01*
X98945228Y-42986914D01*
X98942445Y-42969343D01*
X98872308Y-42753483D01*
X98769266Y-42551253D01*
X98658285Y-42398500D01*
X98635863Y-42367638D01*
X98635859Y-42367633D01*
X98475366Y-42207140D01*
X98475361Y-42207136D01*
X98291750Y-42073736D01*
X98291749Y-42073735D01*
X98291747Y-42073734D01*
X98089517Y-41970692D01*
X97873657Y-41900555D01*
X97649489Y-41865050D01*
X97649484Y-41865050D01*
X97422516Y-41865050D01*
X97422511Y-41865050D01*
X97198342Y-41900555D01*
X96982480Y-41970693D01*
X96780249Y-42073736D01*
X96596638Y-42207136D01*
X96596633Y-42207140D01*
X96436140Y-42367633D01*
X96436136Y-42367638D01*
X96302736Y-42551249D01*
X96199693Y-42753480D01*
X96129555Y-42969342D01*
X96094050Y-43193510D01*
X93262950Y-43193510D01*
X93232592Y-43001843D01*
X93227445Y-42969343D01*
X93157308Y-42753483D01*
X93054266Y-42551253D01*
X92943285Y-42398500D01*
X92920863Y-42367638D01*
X92920859Y-42367633D01*
X92760366Y-42207140D01*
X92760361Y-42207136D01*
X92576750Y-42073736D01*
X92576749Y-42073735D01*
X92576747Y-42073734D01*
X92374517Y-41970692D01*
X92158657Y-41900555D01*
X91934489Y-41865050D01*
X91934484Y-41865050D01*
X91707516Y-41865050D01*
X91707511Y-41865050D01*
X91483342Y-41900555D01*
X91267480Y-41970693D01*
X91065249Y-42073736D01*
X90881638Y-42207136D01*
X90881633Y-42207140D01*
X90721140Y-42367633D01*
X90721136Y-42367638D01*
X90587736Y-42551249D01*
X90484693Y-42753480D01*
X90414555Y-42969342D01*
X90379050Y-43193510D01*
X25995154Y-43193510D01*
X26028240Y-23672946D01*
X26048038Y-23605943D01*
X26100920Y-23560277D01*
X26170095Y-23550451D01*
X26233601Y-23579584D01*
X26271276Y-23638426D01*
X26275643Y-23661005D01*
X26296767Y-23875481D01*
X26296770Y-23875498D01*
X26362980Y-24208366D01*
X26362983Y-24208377D01*
X26461514Y-24533190D01*
X26591400Y-24846763D01*
X26591407Y-24846777D01*
X26751396Y-25146098D01*
X26751407Y-25146116D01*
X26939967Y-25428316D01*
X26939977Y-25428330D01*
X27155302Y-25690703D01*
X27395296Y-25930697D01*
X27395301Y-25930701D01*
X27395302Y-25930702D01*
X27657675Y-26146027D01*
X27939890Y-26334597D01*
X28239230Y-26494597D01*
X28552811Y-26624486D01*
X28877613Y-26723014D01*
X28877619Y-26723015D01*
X28877622Y-26723016D01*
X28877633Y-26723019D01*
X29086369Y-26764538D01*
X29210508Y-26789231D01*
X29548291Y-26822500D01*
X29548294Y-26822500D01*
X29887706Y-26822500D01*
X29887709Y-26822500D01*
X30225492Y-26789231D01*
X30390265Y-26756455D01*
X30558366Y-26723019D01*
X30558377Y-26723016D01*
X30558377Y-26723015D01*
X30558387Y-26723014D01*
X30883189Y-26624486D01*
X31196770Y-26494597D01*
X31496110Y-26334597D01*
X31778325Y-26146027D01*
X32040698Y-25930702D01*
X32280702Y-25690698D01*
X32496027Y-25428325D01*
X32684597Y-25146110D01*
X32844597Y-24846770D01*
X32974486Y-24533189D01*
X33073014Y-24208387D01*
X33073016Y-24208377D01*
X33073019Y-24208366D01*
X33121645Y-23963903D01*
X33139231Y-23875492D01*
X33154676Y-23718682D01*
X33158039Y-23684532D01*
X39477500Y-23684532D01*
X39477500Y-23813467D01*
X39502649Y-23939903D01*
X39502652Y-23939912D01*
X39551986Y-24059017D01*
X39551987Y-24059019D01*
X39623616Y-24166219D01*
X39623619Y-24166223D01*
X39714776Y-24257380D01*
X39714780Y-24257383D01*
X39821978Y-24329011D01*
X39821979Y-24329011D01*
X39821980Y-24329012D01*
X39821982Y-24329013D01*
X39879922Y-24353012D01*
X39941089Y-24378348D01*
X39941091Y-24378348D01*
X39941096Y-24378350D01*
X40067532Y-24403499D01*
X40067536Y-24403500D01*
X40067537Y-24403500D01*
X40196464Y-24403500D01*
X40196465Y-24403499D01*
X40238612Y-24395116D01*
X40322903Y-24378350D01*
X40322906Y-24378348D01*
X40322911Y-24378348D01*
X40442022Y-24329011D01*
X40549220Y-24257383D01*
X40640383Y-24166220D01*
X40712011Y-24059022D01*
X40761348Y-23939911D01*
X40762917Y-23932027D01*
X40786499Y-23813467D01*
X40786500Y-23813464D01*
X40786500Y-23685384D01*
X40806185Y-23618345D01*
X40822819Y-23597703D01*
X40981541Y-23438982D01*
X41142704Y-23277819D01*
X41204027Y-23244334D01*
X41230385Y-23241500D01*
X51987615Y-23241500D01*
X52054654Y-23261185D01*
X52075296Y-23277819D01*
X52668181Y-23870704D01*
X52701666Y-23932027D01*
X52704500Y-23958385D01*
X52704500Y-25566534D01*
X52684815Y-25633573D01*
X52668181Y-25654215D01*
X52577619Y-25744776D01*
X52577616Y-25744780D01*
X52505987Y-25851980D01*
X52505986Y-25851982D01*
X52456652Y-25971087D01*
X52456649Y-25971096D01*
X52431500Y-26097532D01*
X52431500Y-26226467D01*
X52456649Y-26352903D01*
X52456652Y-26352912D01*
X52505986Y-26472017D01*
X52505987Y-26472019D01*
X52577616Y-26579219D01*
X52577619Y-26579223D01*
X52668776Y-26670380D01*
X52668780Y-26670383D01*
X52775978Y-26742011D01*
X52775979Y-26742011D01*
X52775980Y-26742012D01*
X52775982Y-26742013D01*
X52855385Y-26774902D01*
X52895089Y-26791348D01*
X52895091Y-26791348D01*
X52895096Y-26791350D01*
X53021532Y-26816499D01*
X53021536Y-26816500D01*
X53021537Y-26816500D01*
X53150464Y-26816500D01*
X53150465Y-26816499D01*
X53192612Y-26808116D01*
X53276903Y-26791350D01*
X53276906Y-26791348D01*
X53276911Y-26791348D01*
X53396022Y-26742011D01*
X53503220Y-26670383D01*
X53594383Y-26579220D01*
X53666011Y-26472022D01*
X53715348Y-26352911D01*
X53740500Y-26226463D01*
X53740500Y-26097537D01*
X53740275Y-26096409D01*
X53715350Y-25971096D01*
X53715347Y-25971087D01*
X53666013Y-25851982D01*
X53666012Y-25851980D01*
X53594383Y-25744780D01*
X53594380Y-25744776D01*
X53503819Y-25654215D01*
X53470334Y-25592892D01*
X53467500Y-25566534D01*
X53467500Y-23698781D01*
X53467500Y-23698775D01*
X53463685Y-23684537D01*
X53463684Y-23684532D01*
X54336500Y-23684532D01*
X54336500Y-23813467D01*
X54361649Y-23939903D01*
X54361652Y-23939912D01*
X54410986Y-24059017D01*
X54410987Y-24059019D01*
X54482616Y-24166219D01*
X54482619Y-24166223D01*
X54573776Y-24257380D01*
X54573780Y-24257383D01*
X54680978Y-24329011D01*
X54680979Y-24329011D01*
X54680980Y-24329012D01*
X54680982Y-24329013D01*
X54738922Y-24353012D01*
X54800089Y-24378348D01*
X54800091Y-24378348D01*
X54800096Y-24378350D01*
X54926532Y-24403499D01*
X54926536Y-24403500D01*
X54926537Y-24403500D01*
X55055464Y-24403500D01*
X55055465Y-24403499D01*
X55097612Y-24395116D01*
X55181903Y-24378350D01*
X55181906Y-24378348D01*
X55181911Y-24378348D01*
X55301022Y-24329011D01*
X55408220Y-24257383D01*
X55499383Y-24166220D01*
X55571011Y-24059022D01*
X55620348Y-23939911D01*
X55621917Y-23932027D01*
X55645499Y-23813467D01*
X55645500Y-23813464D01*
X55645500Y-23685384D01*
X55665185Y-23618345D01*
X55681819Y-23597703D01*
X55840541Y-23438982D01*
X56001704Y-23277819D01*
X56063027Y-23244334D01*
X56089385Y-23241500D01*
X86277615Y-23241500D01*
X86344654Y-23261185D01*
X86365296Y-23277819D01*
X86685181Y-23597704D01*
X86718666Y-23659027D01*
X86721500Y-23685385D01*
X86721500Y-23813467D01*
X86746649Y-23939903D01*
X86746652Y-23939912D01*
X86795986Y-24059017D01*
X86795987Y-24059019D01*
X86867616Y-24166219D01*
X86867619Y-24166223D01*
X86958776Y-24257380D01*
X86958780Y-24257383D01*
X87065978Y-24329011D01*
X87065979Y-24329011D01*
X87065980Y-24329012D01*
X87065982Y-24329013D01*
X87123922Y-24353012D01*
X87185089Y-24378348D01*
X87185091Y-24378348D01*
X87185096Y-24378350D01*
X87311532Y-24403499D01*
X87311536Y-24403500D01*
X87311537Y-24403500D01*
X87440464Y-24403500D01*
X87440465Y-24403499D01*
X87482612Y-24395116D01*
X87566903Y-24378350D01*
X87566906Y-24378348D01*
X87566911Y-24378348D01*
X87686022Y-24329011D01*
X87793220Y-24257383D01*
X87884383Y-24166220D01*
X87956011Y-24059022D01*
X88005348Y-23939911D01*
X88006917Y-23932027D01*
X88030499Y-23813467D01*
X88030500Y-23813464D01*
X88030500Y-23708532D01*
X103128500Y-23708532D01*
X103128500Y-23837467D01*
X103153649Y-23963903D01*
X103153652Y-23963912D01*
X103202986Y-24083017D01*
X103202987Y-24083019D01*
X103274616Y-24190219D01*
X103274619Y-24190223D01*
X103365776Y-24281380D01*
X103365780Y-24281383D01*
X103472978Y-24353011D01*
X103472979Y-24353011D01*
X103472980Y-24353012D01*
X103472982Y-24353013D01*
X103534145Y-24378347D01*
X103592089Y-24402348D01*
X103592091Y-24402348D01*
X103592096Y-24402350D01*
X103718532Y-24427499D01*
X103718536Y-24427500D01*
X103718537Y-24427500D01*
X103847464Y-24427500D01*
X103847465Y-24427499D01*
X103889612Y-24419116D01*
X103973903Y-24402350D01*
X103973906Y-24402348D01*
X103973911Y-24402348D01*
X104093022Y-24353011D01*
X104200220Y-24281383D01*
X104291383Y-24190220D01*
X104363011Y-24083022D01*
X104412348Y-23963911D01*
X104413448Y-23958385D01*
X104437499Y-23837467D01*
X104437500Y-23837464D01*
X104437500Y-23709384D01*
X104457185Y-23642345D01*
X104473819Y-23621703D01*
X104817704Y-23277819D01*
X104879027Y-23244334D01*
X104905385Y-23241500D01*
X135045615Y-23241500D01*
X135112654Y-23261185D01*
X135133296Y-23277819D01*
X135453181Y-23597704D01*
X135486666Y-23659027D01*
X135489500Y-23685385D01*
X135489500Y-23813467D01*
X135514649Y-23939903D01*
X135514652Y-23939912D01*
X135563986Y-24059017D01*
X135563987Y-24059019D01*
X135635616Y-24166219D01*
X135635619Y-24166223D01*
X135726776Y-24257380D01*
X135726780Y-24257383D01*
X135833978Y-24329011D01*
X135833979Y-24329011D01*
X135833980Y-24329012D01*
X135833982Y-24329013D01*
X135891922Y-24353012D01*
X135953089Y-24378348D01*
X135953091Y-24378348D01*
X135953096Y-24378350D01*
X136079532Y-24403499D01*
X136079536Y-24403500D01*
X136079537Y-24403500D01*
X136208464Y-24403500D01*
X136208465Y-24403499D01*
X136250612Y-24395116D01*
X136334903Y-24378350D01*
X136334906Y-24378348D01*
X136334911Y-24378348D01*
X136454022Y-24329011D01*
X136561220Y-24257383D01*
X136652383Y-24166220D01*
X136724011Y-24059022D01*
X136773348Y-23939911D01*
X136774917Y-23932027D01*
X136798499Y-23813467D01*
X136798500Y-23813464D01*
X136798500Y-23684535D01*
X136798499Y-23684532D01*
X136773350Y-23558096D01*
X136773347Y-23558087D01*
X136724013Y-23438982D01*
X136724012Y-23438980D01*
X136652383Y-23331780D01*
X136652380Y-23331776D01*
X136561223Y-23240619D01*
X136561219Y-23240616D01*
X136454019Y-23168987D01*
X136454017Y-23168986D01*
X136334912Y-23119652D01*
X136334903Y-23119649D01*
X136208467Y-23094500D01*
X136208463Y-23094500D01*
X136080385Y-23094500D01*
X136013346Y-23074815D01*
X135992704Y-23058181D01*
X135489248Y-22554725D01*
X135489240Y-22554719D01*
X135474165Y-22546016D01*
X135474162Y-22546015D01*
X135442323Y-22527633D01*
X135402256Y-22504500D01*
X135402255Y-22504499D01*
X135377996Y-22497999D01*
X135305225Y-22478500D01*
X104645775Y-22478500D01*
X104573003Y-22497999D01*
X104548745Y-22504499D01*
X104476836Y-22546016D01*
X104476835Y-22546015D01*
X104461759Y-22554719D01*
X104461751Y-22554725D01*
X103934295Y-23082181D01*
X103872972Y-23115666D01*
X103846614Y-23118500D01*
X103718532Y-23118500D01*
X103592096Y-23143649D01*
X103592087Y-23143652D01*
X103472982Y-23192986D01*
X103472980Y-23192987D01*
X103365780Y-23264616D01*
X103365776Y-23264619D01*
X103274619Y-23355776D01*
X103274616Y-23355780D01*
X103202987Y-23462980D01*
X103202986Y-23462982D01*
X103153652Y-23582087D01*
X103153649Y-23582096D01*
X103128500Y-23708532D01*
X88030500Y-23708532D01*
X88030500Y-23684535D01*
X88030499Y-23684532D01*
X88005350Y-23558096D01*
X88005347Y-23558087D01*
X87956013Y-23438982D01*
X87956012Y-23438980D01*
X87884383Y-23331780D01*
X87884380Y-23331776D01*
X87793223Y-23240619D01*
X87793219Y-23240616D01*
X87686019Y-23168987D01*
X87686017Y-23168986D01*
X87566912Y-23119652D01*
X87566903Y-23119649D01*
X87440467Y-23094500D01*
X87440463Y-23094500D01*
X87312385Y-23094500D01*
X87245346Y-23074815D01*
X87224704Y-23058181D01*
X86721248Y-22554725D01*
X86721240Y-22554719D01*
X86706165Y-22546016D01*
X86706162Y-22546015D01*
X86674323Y-22527633D01*
X86634256Y-22504500D01*
X86634255Y-22504499D01*
X86609996Y-22497999D01*
X86537225Y-22478500D01*
X55930225Y-22478500D01*
X55829775Y-22478500D01*
X55732747Y-22504498D01*
X55660838Y-22546015D01*
X55645750Y-22554726D01*
X55142295Y-23058181D01*
X55080972Y-23091666D01*
X55054614Y-23094500D01*
X54926532Y-23094500D01*
X54800096Y-23119649D01*
X54800087Y-23119652D01*
X54680982Y-23168986D01*
X54680980Y-23168987D01*
X54573780Y-23240616D01*
X54573776Y-23240619D01*
X54482619Y-23331776D01*
X54482616Y-23331780D01*
X54410987Y-23438980D01*
X54410986Y-23438982D01*
X54361652Y-23558087D01*
X54361649Y-23558096D01*
X54336500Y-23684532D01*
X53463684Y-23684532D01*
X53441502Y-23601747D01*
X53391276Y-23514753D01*
X52431247Y-22554724D01*
X52431245Y-22554723D01*
X52431240Y-22554719D01*
X52416165Y-22546016D01*
X52416162Y-22546015D01*
X52384323Y-22527633D01*
X52344256Y-22504500D01*
X52344255Y-22504499D01*
X52319996Y-22497999D01*
X52247225Y-22478500D01*
X41071225Y-22478500D01*
X40970775Y-22478500D01*
X40873747Y-22504498D01*
X40801838Y-22546015D01*
X40786750Y-22554726D01*
X40283295Y-23058181D01*
X40221972Y-23091666D01*
X40195614Y-23094500D01*
X40067532Y-23094500D01*
X39941096Y-23119649D01*
X39941087Y-23119652D01*
X39821982Y-23168986D01*
X39821980Y-23168987D01*
X39714780Y-23240616D01*
X39714776Y-23240619D01*
X39623619Y-23331776D01*
X39623616Y-23331780D01*
X39551987Y-23438980D01*
X39551986Y-23438982D01*
X39502652Y-23558087D01*
X39502649Y-23558096D01*
X39477500Y-23684532D01*
X33158039Y-23684532D01*
X33159836Y-23666291D01*
X33168129Y-23582087D01*
X33172500Y-23537709D01*
X33172500Y-23198291D01*
X33139231Y-22860508D01*
X33114538Y-22736369D01*
X33073019Y-22527633D01*
X33073016Y-22527622D01*
X33073015Y-22527619D01*
X33073014Y-22527613D01*
X32974486Y-22202811D01*
X32844597Y-21889230D01*
X32684597Y-21589890D01*
X32496027Y-21307675D01*
X32280702Y-21045302D01*
X32280701Y-21045301D01*
X32280697Y-21045296D01*
X32040703Y-20805302D01*
X31778330Y-20589977D01*
X31778329Y-20589976D01*
X31778325Y-20589973D01*
X31496110Y-20401403D01*
X31496105Y-20401400D01*
X31496098Y-20401396D01*
X31196777Y-20241407D01*
X31196770Y-20241403D01*
X31196763Y-20241400D01*
X30883190Y-20111514D01*
X30558377Y-20012983D01*
X30558366Y-20012980D01*
X30225498Y-19946770D01*
X30225481Y-19946767D01*
X30079634Y-19932403D01*
X30014847Y-19906242D01*
X29974488Y-19849208D01*
X29971371Y-19779408D01*
X30006485Y-19719003D01*
X30068683Y-19687172D01*
X30091788Y-19685000D01*
X147708212Y-19685000D01*
X147775251Y-19704685D01*
G37*
G04 #@! TD.AperFunction*
M02*
