G04 #@! TF.GenerationSoftware,KiCad,Pcbnew,9.0.7-9.0.7~ubuntu24.04.1*
G04 #@! TF.CreationDate,2026-03-17T19:45:28-06:00*
G04 #@! TF.ProjectId,ckt-xing-adv,636b742d-7869-46e6-972d-6164762e6b69,rev?*
G04 #@! TF.SameCoordinates,Original*
G04 #@! TF.FileFunction,Paste,Top*
G04 #@! TF.FilePolarity,Positive*
%FSLAX46Y46*%
G04 Gerber Fmt 4.6, Leading zero omitted, Abs format (unit mm)*
G04 Created by KiCad (PCBNEW 9.0.7-9.0.7~ubuntu24.04.1) date 2026-03-17 19:45:28*
%MOMM*%
%LPD*%
G01*
G04 APERTURE LIST*
%ADD10R,2.108200X5.562600*%
%ADD11R,1.400000X1.900000*%
%ADD12R,3.683000X1.270000*%
%ADD13R,2.400000X3.100000*%
%ADD14R,2.200000X0.500000*%
%ADD15R,0.550000X1.300000*%
%ADD16R,1.193800X3.429000*%
%ADD17R,1.193800X3.454400*%
G04 APERTURE END LIST*
D10*
X55232300Y-62357000D03*
X59829700Y-62357000D03*
G36*
G01*
X69110000Y-24616000D02*
X69110000Y-25866000D01*
G75*
G02*
X68960000Y-26016000I-150000J0D01*
G01*
X68660000Y-26016000D01*
G75*
G02*
X68510000Y-25866000I0J150000D01*
G01*
X68510000Y-24616000D01*
G75*
G02*
X68660000Y-24466000I150000J0D01*
G01*
X68960000Y-24466000D01*
G75*
G02*
X69110000Y-24616000I0J-150000D01*
G01*
G37*
G36*
G01*
X68110000Y-24616000D02*
X68110000Y-25866000D01*
G75*
G02*
X67960000Y-26016000I-150000J0D01*
G01*
X67660000Y-26016000D01*
G75*
G02*
X67510000Y-25866000I0J150000D01*
G01*
X67510000Y-24616000D01*
G75*
G02*
X67660000Y-24466000I150000J0D01*
G01*
X67960000Y-24466000D01*
G75*
G02*
X68110000Y-24616000I0J-150000D01*
G01*
G37*
G36*
G01*
X67110000Y-24616000D02*
X67110000Y-25866000D01*
G75*
G02*
X66960000Y-26016000I-150000J0D01*
G01*
X66660000Y-26016000D01*
G75*
G02*
X66510000Y-25866000I0J150000D01*
G01*
X66510000Y-24616000D01*
G75*
G02*
X66660000Y-24466000I150000J0D01*
G01*
X66960000Y-24466000D01*
G75*
G02*
X67110000Y-24616000I0J-150000D01*
G01*
G37*
G36*
G01*
X66110000Y-24616000D02*
X66110000Y-25866000D01*
G75*
G02*
X65960000Y-26016000I-150000J0D01*
G01*
X65660000Y-26016000D01*
G75*
G02*
X65510000Y-25866000I0J150000D01*
G01*
X65510000Y-24616000D01*
G75*
G02*
X65660000Y-24466000I150000J0D01*
G01*
X65960000Y-24466000D01*
G75*
G02*
X66110000Y-24616000I0J-150000D01*
G01*
G37*
G36*
G01*
X70710000Y-20716000D02*
X70710000Y-22016000D01*
G75*
G02*
X70460000Y-22266000I-250000J0D01*
G01*
X69760000Y-22266000D01*
G75*
G02*
X69510000Y-22016000I0J250000D01*
G01*
X69510000Y-20716000D01*
G75*
G02*
X69760000Y-20466000I250000J0D01*
G01*
X70460000Y-20466000D01*
G75*
G02*
X70710000Y-20716000I0J-250000D01*
G01*
G37*
G36*
G01*
X65110000Y-20716000D02*
X65110000Y-22016000D01*
G75*
G02*
X64860000Y-22266000I-250000J0D01*
G01*
X64160000Y-22266000D01*
G75*
G02*
X63910000Y-22016000I0J250000D01*
G01*
X63910000Y-20716000D01*
G75*
G02*
X64160000Y-20466000I250000J0D01*
G01*
X64860000Y-20466000D01*
G75*
G02*
X65110000Y-20716000I0J-250000D01*
G01*
G37*
G36*
G01*
X138656000Y-35508250D02*
X138656000Y-34595750D01*
G75*
G02*
X138899750Y-34352000I243750J0D01*
G01*
X139387250Y-34352000D01*
G75*
G02*
X139631000Y-34595750I0J-243750D01*
G01*
X139631000Y-35508250D01*
G75*
G02*
X139387250Y-35752000I-243750J0D01*
G01*
X138899750Y-35752000D01*
G75*
G02*
X138656000Y-35508250I0J243750D01*
G01*
G37*
G36*
G01*
X140531000Y-35508250D02*
X140531000Y-34595750D01*
G75*
G02*
X140774750Y-34352000I243750J0D01*
G01*
X141262250Y-34352000D01*
G75*
G02*
X141506000Y-34595750I0J-243750D01*
G01*
X141506000Y-35508250D01*
G75*
G02*
X141262250Y-35752000I-243750J0D01*
G01*
X140774750Y-35752000D01*
G75*
G02*
X140531000Y-35508250I0J243750D01*
G01*
G37*
G36*
G01*
X71219000Y-65734250D02*
X71219000Y-64821750D01*
G75*
G02*
X71462750Y-64578000I243750J0D01*
G01*
X71950250Y-64578000D01*
G75*
G02*
X72194000Y-64821750I0J-243750D01*
G01*
X72194000Y-65734250D01*
G75*
G02*
X71950250Y-65978000I-243750J0D01*
G01*
X71462750Y-65978000D01*
G75*
G02*
X71219000Y-65734250I0J243750D01*
G01*
G37*
G36*
G01*
X73094000Y-65734250D02*
X73094000Y-64821750D01*
G75*
G02*
X73337750Y-64578000I243750J0D01*
G01*
X73825250Y-64578000D01*
G75*
G02*
X74069000Y-64821750I0J-243750D01*
G01*
X74069000Y-65734250D01*
G75*
G02*
X73825250Y-65978000I-243750J0D01*
G01*
X73337750Y-65978000D01*
G75*
G02*
X73094000Y-65734250I0J243750D01*
G01*
G37*
G36*
G01*
X49376200Y-48933000D02*
X49376200Y-49233000D01*
G75*
G02*
X49226200Y-49383000I-150000J0D01*
G01*
X48051200Y-49383000D01*
G75*
G02*
X47901200Y-49233000I0J150000D01*
G01*
X47901200Y-48933000D01*
G75*
G02*
X48051200Y-48783000I150000J0D01*
G01*
X49226200Y-48783000D01*
G75*
G02*
X49376200Y-48933000I0J-150000D01*
G01*
G37*
G36*
G01*
X49376200Y-47033000D02*
X49376200Y-47333000D01*
G75*
G02*
X49226200Y-47483000I-150000J0D01*
G01*
X48051200Y-47483000D01*
G75*
G02*
X47901200Y-47333000I0J150000D01*
G01*
X47901200Y-47033000D01*
G75*
G02*
X48051200Y-46883000I150000J0D01*
G01*
X49226200Y-46883000D01*
G75*
G02*
X49376200Y-47033000I0J-150000D01*
G01*
G37*
G36*
G01*
X47501200Y-47983000D02*
X47501200Y-48283000D01*
G75*
G02*
X47351200Y-48433000I-150000J0D01*
G01*
X46176200Y-48433000D01*
G75*
G02*
X46026200Y-48283000I0J150000D01*
G01*
X46026200Y-47983000D01*
G75*
G02*
X46176200Y-47833000I150000J0D01*
G01*
X47351200Y-47833000D01*
G75*
G02*
X47501200Y-47983000I0J-150000D01*
G01*
G37*
G36*
G01*
X105352000Y-79911000D02*
X104452000Y-79911000D01*
G75*
G02*
X104202000Y-79661000I0J250000D01*
G01*
X104202000Y-79136000D01*
G75*
G02*
X104452000Y-78886000I250000J0D01*
G01*
X105352000Y-78886000D01*
G75*
G02*
X105602000Y-79136000I0J-250000D01*
G01*
X105602000Y-79661000D01*
G75*
G02*
X105352000Y-79911000I-250000J0D01*
G01*
G37*
G36*
G01*
X105352000Y-78086000D02*
X104452000Y-78086000D01*
G75*
G02*
X104202000Y-77836000I0J250000D01*
G01*
X104202000Y-77311000D01*
G75*
G02*
X104452000Y-77061000I250000J0D01*
G01*
X105352000Y-77061000D01*
G75*
G02*
X105602000Y-77311000I0J-250000D01*
G01*
X105602000Y-77836000D01*
G75*
G02*
X105352000Y-78086000I-250000J0D01*
G01*
G37*
G36*
G01*
X126169000Y-62456000D02*
X127069000Y-62456000D01*
G75*
G02*
X127319000Y-62706000I0J-250000D01*
G01*
X127319000Y-63231000D01*
G75*
G02*
X127069000Y-63481000I-250000J0D01*
G01*
X126169000Y-63481000D01*
G75*
G02*
X125919000Y-63231000I0J250000D01*
G01*
X125919000Y-62706000D01*
G75*
G02*
X126169000Y-62456000I250000J0D01*
G01*
G37*
G36*
G01*
X126169000Y-64281000D02*
X127069000Y-64281000D01*
G75*
G02*
X127319000Y-64531000I0J-250000D01*
G01*
X127319000Y-65056000D01*
G75*
G02*
X127069000Y-65306000I-250000J0D01*
G01*
X126169000Y-65306000D01*
G75*
G02*
X125919000Y-65056000I0J250000D01*
G01*
X125919000Y-64531000D01*
G75*
G02*
X126169000Y-64281000I250000J0D01*
G01*
G37*
G36*
G01*
X42440000Y-24616000D02*
X42440000Y-25866000D01*
G75*
G02*
X42290000Y-26016000I-150000J0D01*
G01*
X41990000Y-26016000D01*
G75*
G02*
X41840000Y-25866000I0J150000D01*
G01*
X41840000Y-24616000D01*
G75*
G02*
X41990000Y-24466000I150000J0D01*
G01*
X42290000Y-24466000D01*
G75*
G02*
X42440000Y-24616000I0J-150000D01*
G01*
G37*
G36*
G01*
X41440000Y-24616000D02*
X41440000Y-25866000D01*
G75*
G02*
X41290000Y-26016000I-150000J0D01*
G01*
X40990000Y-26016000D01*
G75*
G02*
X40840000Y-25866000I0J150000D01*
G01*
X40840000Y-24616000D01*
G75*
G02*
X40990000Y-24466000I150000J0D01*
G01*
X41290000Y-24466000D01*
G75*
G02*
X41440000Y-24616000I0J-150000D01*
G01*
G37*
G36*
G01*
X40440000Y-24616000D02*
X40440000Y-25866000D01*
G75*
G02*
X40290000Y-26016000I-150000J0D01*
G01*
X39990000Y-26016000D01*
G75*
G02*
X39840000Y-25866000I0J150000D01*
G01*
X39840000Y-24616000D01*
G75*
G02*
X39990000Y-24466000I150000J0D01*
G01*
X40290000Y-24466000D01*
G75*
G02*
X40440000Y-24616000I0J-150000D01*
G01*
G37*
G36*
G01*
X39440000Y-24616000D02*
X39440000Y-25866000D01*
G75*
G02*
X39290000Y-26016000I-150000J0D01*
G01*
X38990000Y-26016000D01*
G75*
G02*
X38840000Y-25866000I0J150000D01*
G01*
X38840000Y-24616000D01*
G75*
G02*
X38990000Y-24466000I150000J0D01*
G01*
X39290000Y-24466000D01*
G75*
G02*
X39440000Y-24616000I0J-150000D01*
G01*
G37*
G36*
G01*
X44040000Y-20716000D02*
X44040000Y-22016000D01*
G75*
G02*
X43790000Y-22266000I-250000J0D01*
G01*
X43090000Y-22266000D01*
G75*
G02*
X42840000Y-22016000I0J250000D01*
G01*
X42840000Y-20716000D01*
G75*
G02*
X43090000Y-20466000I250000J0D01*
G01*
X43790000Y-20466000D01*
G75*
G02*
X44040000Y-20716000I0J-250000D01*
G01*
G37*
G36*
G01*
X38440000Y-20716000D02*
X38440000Y-22016000D01*
G75*
G02*
X38190000Y-22266000I-250000J0D01*
G01*
X37490000Y-22266000D01*
G75*
G02*
X37240000Y-22016000I0J250000D01*
G01*
X37240000Y-20716000D01*
G75*
G02*
X37490000Y-20466000I250000J0D01*
G01*
X38190000Y-20466000D01*
G75*
G02*
X38440000Y-20716000I0J-250000D01*
G01*
G37*
G36*
G01*
X87531000Y-64574000D02*
X87531000Y-65474000D01*
G75*
G02*
X87281000Y-65724000I-250000J0D01*
G01*
X86756000Y-65724000D01*
G75*
G02*
X86506000Y-65474000I0J250000D01*
G01*
X86506000Y-64574000D01*
G75*
G02*
X86756000Y-64324000I250000J0D01*
G01*
X87281000Y-64324000D01*
G75*
G02*
X87531000Y-64574000I0J-250000D01*
G01*
G37*
G36*
G01*
X85706000Y-64574000D02*
X85706000Y-65474000D01*
G75*
G02*
X85456000Y-65724000I-250000J0D01*
G01*
X84931000Y-65724000D01*
G75*
G02*
X84681000Y-65474000I0J250000D01*
G01*
X84681000Y-64574000D01*
G75*
G02*
X84931000Y-64324000I250000J0D01*
G01*
X85456000Y-64324000D01*
G75*
G02*
X85706000Y-64574000I0J-250000D01*
G01*
G37*
G36*
G01*
X117878000Y-24616000D02*
X117878000Y-25866000D01*
G75*
G02*
X117728000Y-26016000I-150000J0D01*
G01*
X117428000Y-26016000D01*
G75*
G02*
X117278000Y-25866000I0J150000D01*
G01*
X117278000Y-24616000D01*
G75*
G02*
X117428000Y-24466000I150000J0D01*
G01*
X117728000Y-24466000D01*
G75*
G02*
X117878000Y-24616000I0J-150000D01*
G01*
G37*
G36*
G01*
X116878000Y-24616000D02*
X116878000Y-25866000D01*
G75*
G02*
X116728000Y-26016000I-150000J0D01*
G01*
X116428000Y-26016000D01*
G75*
G02*
X116278000Y-25866000I0J150000D01*
G01*
X116278000Y-24616000D01*
G75*
G02*
X116428000Y-24466000I150000J0D01*
G01*
X116728000Y-24466000D01*
G75*
G02*
X116878000Y-24616000I0J-150000D01*
G01*
G37*
G36*
G01*
X115878000Y-24616000D02*
X115878000Y-25866000D01*
G75*
G02*
X115728000Y-26016000I-150000J0D01*
G01*
X115428000Y-26016000D01*
G75*
G02*
X115278000Y-25866000I0J150000D01*
G01*
X115278000Y-24616000D01*
G75*
G02*
X115428000Y-24466000I150000J0D01*
G01*
X115728000Y-24466000D01*
G75*
G02*
X115878000Y-24616000I0J-150000D01*
G01*
G37*
G36*
G01*
X114878000Y-24616000D02*
X114878000Y-25866000D01*
G75*
G02*
X114728000Y-26016000I-150000J0D01*
G01*
X114428000Y-26016000D01*
G75*
G02*
X114278000Y-25866000I0J150000D01*
G01*
X114278000Y-24616000D01*
G75*
G02*
X114428000Y-24466000I150000J0D01*
G01*
X114728000Y-24466000D01*
G75*
G02*
X114878000Y-24616000I0J-150000D01*
G01*
G37*
G36*
G01*
X119478000Y-20716000D02*
X119478000Y-22016000D01*
G75*
G02*
X119228000Y-22266000I-250000J0D01*
G01*
X118528000Y-22266000D01*
G75*
G02*
X118278000Y-22016000I0J250000D01*
G01*
X118278000Y-20716000D01*
G75*
G02*
X118528000Y-20466000I250000J0D01*
G01*
X119228000Y-20466000D01*
G75*
G02*
X119478000Y-20716000I0J-250000D01*
G01*
G37*
G36*
G01*
X113878000Y-20716000D02*
X113878000Y-22016000D01*
G75*
G02*
X113628000Y-22266000I-250000J0D01*
G01*
X112928000Y-22266000D01*
G75*
G02*
X112678000Y-22016000I0J250000D01*
G01*
X112678000Y-20716000D01*
G75*
G02*
X112928000Y-20466000I250000J0D01*
G01*
X113628000Y-20466000D01*
G75*
G02*
X113878000Y-20716000I0J-250000D01*
G01*
G37*
G36*
G01*
X49376200Y-53251000D02*
X49376200Y-53551000D01*
G75*
G02*
X49226200Y-53701000I-150000J0D01*
G01*
X48051200Y-53701000D01*
G75*
G02*
X47901200Y-53551000I0J150000D01*
G01*
X47901200Y-53251000D01*
G75*
G02*
X48051200Y-53101000I150000J0D01*
G01*
X49226200Y-53101000D01*
G75*
G02*
X49376200Y-53251000I0J-150000D01*
G01*
G37*
G36*
G01*
X49376200Y-51351000D02*
X49376200Y-51651000D01*
G75*
G02*
X49226200Y-51801000I-150000J0D01*
G01*
X48051200Y-51801000D01*
G75*
G02*
X47901200Y-51651000I0J150000D01*
G01*
X47901200Y-51351000D01*
G75*
G02*
X48051200Y-51201000I150000J0D01*
G01*
X49226200Y-51201000D01*
G75*
G02*
X49376200Y-51351000I0J-150000D01*
G01*
G37*
G36*
G01*
X47501200Y-52301000D02*
X47501200Y-52601000D01*
G75*
G02*
X47351200Y-52751000I-150000J0D01*
G01*
X46176200Y-52751000D01*
G75*
G02*
X46026200Y-52601000I0J150000D01*
G01*
X46026200Y-52301000D01*
G75*
G02*
X46176200Y-52151000I150000J0D01*
G01*
X47351200Y-52151000D01*
G75*
G02*
X47501200Y-52301000I0J-150000D01*
G01*
G37*
G36*
G01*
X90700000Y-24616000D02*
X90700000Y-25866000D01*
G75*
G02*
X90550000Y-26016000I-150000J0D01*
G01*
X90250000Y-26016000D01*
G75*
G02*
X90100000Y-25866000I0J150000D01*
G01*
X90100000Y-24616000D01*
G75*
G02*
X90250000Y-24466000I150000J0D01*
G01*
X90550000Y-24466000D01*
G75*
G02*
X90700000Y-24616000I0J-150000D01*
G01*
G37*
G36*
G01*
X89700000Y-24616000D02*
X89700000Y-25866000D01*
G75*
G02*
X89550000Y-26016000I-150000J0D01*
G01*
X89250000Y-26016000D01*
G75*
G02*
X89100000Y-25866000I0J150000D01*
G01*
X89100000Y-24616000D01*
G75*
G02*
X89250000Y-24466000I150000J0D01*
G01*
X89550000Y-24466000D01*
G75*
G02*
X89700000Y-24616000I0J-150000D01*
G01*
G37*
G36*
G01*
X88700000Y-24616000D02*
X88700000Y-25866000D01*
G75*
G02*
X88550000Y-26016000I-150000J0D01*
G01*
X88250000Y-26016000D01*
G75*
G02*
X88100000Y-25866000I0J150000D01*
G01*
X88100000Y-24616000D01*
G75*
G02*
X88250000Y-24466000I150000J0D01*
G01*
X88550000Y-24466000D01*
G75*
G02*
X88700000Y-24616000I0J-150000D01*
G01*
G37*
G36*
G01*
X87700000Y-24616000D02*
X87700000Y-25866000D01*
G75*
G02*
X87550000Y-26016000I-150000J0D01*
G01*
X87250000Y-26016000D01*
G75*
G02*
X87100000Y-25866000I0J150000D01*
G01*
X87100000Y-24616000D01*
G75*
G02*
X87250000Y-24466000I150000J0D01*
G01*
X87550000Y-24466000D01*
G75*
G02*
X87700000Y-24616000I0J-150000D01*
G01*
G37*
G36*
G01*
X92300000Y-20716000D02*
X92300000Y-22016000D01*
G75*
G02*
X92050000Y-22266000I-250000J0D01*
G01*
X91350000Y-22266000D01*
G75*
G02*
X91100000Y-22016000I0J250000D01*
G01*
X91100000Y-20716000D01*
G75*
G02*
X91350000Y-20466000I250000J0D01*
G01*
X92050000Y-20466000D01*
G75*
G02*
X92300000Y-20716000I0J-250000D01*
G01*
G37*
G36*
G01*
X86700000Y-20716000D02*
X86700000Y-22016000D01*
G75*
G02*
X86450000Y-22266000I-250000J0D01*
G01*
X85750000Y-22266000D01*
G75*
G02*
X85500000Y-22016000I0J250000D01*
G01*
X85500000Y-20716000D01*
G75*
G02*
X85750000Y-20466000I250000J0D01*
G01*
X86450000Y-20466000D01*
G75*
G02*
X86700000Y-20716000I0J-250000D01*
G01*
G37*
G36*
G01*
X62812000Y-71595000D02*
X62812000Y-70645000D01*
G75*
G02*
X63062000Y-70395000I250000J0D01*
G01*
X63562000Y-70395000D01*
G75*
G02*
X63812000Y-70645000I0J-250000D01*
G01*
X63812000Y-71595000D01*
G75*
G02*
X63562000Y-71845000I-250000J0D01*
G01*
X63062000Y-71845000D01*
G75*
G02*
X62812000Y-71595000I0J250000D01*
G01*
G37*
G36*
G01*
X64712000Y-71595000D02*
X64712000Y-70645000D01*
G75*
G02*
X64962000Y-70395000I250000J0D01*
G01*
X65462000Y-70395000D01*
G75*
G02*
X65712000Y-70645000I0J-250000D01*
G01*
X65712000Y-71595000D01*
G75*
G02*
X65462000Y-71845000I-250000J0D01*
G01*
X64962000Y-71845000D01*
G75*
G02*
X64712000Y-71595000I0J250000D01*
G01*
G37*
G36*
G01*
X140447750Y-41685500D02*
X139497750Y-41685500D01*
G75*
G02*
X139247750Y-41435500I0J250000D01*
G01*
X139247750Y-40935500D01*
G75*
G02*
X139497750Y-40685500I250000J0D01*
G01*
X140447750Y-40685500D01*
G75*
G02*
X140697750Y-40935500I0J-250000D01*
G01*
X140697750Y-41435500D01*
G75*
G02*
X140447750Y-41685500I-250000J0D01*
G01*
G37*
G36*
G01*
X140447750Y-39785500D02*
X139497750Y-39785500D01*
G75*
G02*
X139247750Y-39535500I0J250000D01*
G01*
X139247750Y-39035500D01*
G75*
G02*
X139497750Y-38785500I250000J0D01*
G01*
X140447750Y-38785500D01*
G75*
G02*
X140697750Y-39035500I0J-250000D01*
G01*
X140697750Y-39535500D01*
G75*
G02*
X140447750Y-39785500I-250000J0D01*
G01*
G37*
G36*
G01*
X114963000Y-55049000D02*
X114963000Y-55949000D01*
G75*
G02*
X114713000Y-56199000I-250000J0D01*
G01*
X114188000Y-56199000D01*
G75*
G02*
X113938000Y-55949000I0J250000D01*
G01*
X113938000Y-55049000D01*
G75*
G02*
X114188000Y-54799000I250000J0D01*
G01*
X114713000Y-54799000D01*
G75*
G02*
X114963000Y-55049000I0J-250000D01*
G01*
G37*
G36*
G01*
X113138000Y-55049000D02*
X113138000Y-55949000D01*
G75*
G02*
X112888000Y-56199000I-250000J0D01*
G01*
X112363000Y-56199000D01*
G75*
G02*
X112113000Y-55949000I0J250000D01*
G01*
X112113000Y-55049000D01*
G75*
G02*
X112363000Y-54799000I250000J0D01*
G01*
X112888000Y-54799000D01*
G75*
G02*
X113138000Y-55049000I0J-250000D01*
G01*
G37*
G36*
G01*
X73718000Y-39784000D02*
X74618000Y-39784000D01*
G75*
G02*
X74868000Y-40034000I0J-250000D01*
G01*
X74868000Y-40559000D01*
G75*
G02*
X74618000Y-40809000I-250000J0D01*
G01*
X73718000Y-40809000D01*
G75*
G02*
X73468000Y-40559000I0J250000D01*
G01*
X73468000Y-40034000D01*
G75*
G02*
X73718000Y-39784000I250000J0D01*
G01*
G37*
G36*
G01*
X73718000Y-41609000D02*
X74618000Y-41609000D01*
G75*
G02*
X74868000Y-41859000I0J-250000D01*
G01*
X74868000Y-42384000D01*
G75*
G02*
X74618000Y-42634000I-250000J0D01*
G01*
X73718000Y-42634000D01*
G75*
G02*
X73468000Y-42384000I0J250000D01*
G01*
X73468000Y-41859000D01*
G75*
G02*
X73718000Y-41609000I250000J0D01*
G01*
G37*
G36*
G01*
X59362000Y-66454000D02*
X59362000Y-67404000D01*
G75*
G02*
X59112000Y-67654000I-250000J0D01*
G01*
X58612000Y-67654000D01*
G75*
G02*
X58362000Y-67404000I0J250000D01*
G01*
X58362000Y-66454000D01*
G75*
G02*
X58612000Y-66204000I250000J0D01*
G01*
X59112000Y-66204000D01*
G75*
G02*
X59362000Y-66454000I0J-250000D01*
G01*
G37*
G36*
G01*
X57462000Y-66454000D02*
X57462000Y-67404000D01*
G75*
G02*
X57212000Y-67654000I-250000J0D01*
G01*
X56712000Y-67654000D01*
G75*
G02*
X56462000Y-67404000I0J250000D01*
G01*
X56462000Y-66454000D01*
G75*
G02*
X56712000Y-66204000I250000J0D01*
G01*
X57212000Y-66204000D01*
G75*
G02*
X57462000Y-66454000I0J-250000D01*
G01*
G37*
D11*
X44703000Y-69850000D03*
X41403000Y-69850000D03*
G36*
G01*
X107083000Y-24616000D02*
X107083000Y-25866000D01*
G75*
G02*
X106933000Y-26016000I-150000J0D01*
G01*
X106633000Y-26016000D01*
G75*
G02*
X106483000Y-25866000I0J150000D01*
G01*
X106483000Y-24616000D01*
G75*
G02*
X106633000Y-24466000I150000J0D01*
G01*
X106933000Y-24466000D01*
G75*
G02*
X107083000Y-24616000I0J-150000D01*
G01*
G37*
G36*
G01*
X106083000Y-24616000D02*
X106083000Y-25866000D01*
G75*
G02*
X105933000Y-26016000I-150000J0D01*
G01*
X105633000Y-26016000D01*
G75*
G02*
X105483000Y-25866000I0J150000D01*
G01*
X105483000Y-24616000D01*
G75*
G02*
X105633000Y-24466000I150000J0D01*
G01*
X105933000Y-24466000D01*
G75*
G02*
X106083000Y-24616000I0J-150000D01*
G01*
G37*
G36*
G01*
X105083000Y-24616000D02*
X105083000Y-25866000D01*
G75*
G02*
X104933000Y-26016000I-150000J0D01*
G01*
X104633000Y-26016000D01*
G75*
G02*
X104483000Y-25866000I0J150000D01*
G01*
X104483000Y-24616000D01*
G75*
G02*
X104633000Y-24466000I150000J0D01*
G01*
X104933000Y-24466000D01*
G75*
G02*
X105083000Y-24616000I0J-150000D01*
G01*
G37*
G36*
G01*
X104083000Y-24616000D02*
X104083000Y-25866000D01*
G75*
G02*
X103933000Y-26016000I-150000J0D01*
G01*
X103633000Y-26016000D01*
G75*
G02*
X103483000Y-25866000I0J150000D01*
G01*
X103483000Y-24616000D01*
G75*
G02*
X103633000Y-24466000I150000J0D01*
G01*
X103933000Y-24466000D01*
G75*
G02*
X104083000Y-24616000I0J-150000D01*
G01*
G37*
G36*
G01*
X108683000Y-20716000D02*
X108683000Y-22016000D01*
G75*
G02*
X108433000Y-22266000I-250000J0D01*
G01*
X107733000Y-22266000D01*
G75*
G02*
X107483000Y-22016000I0J250000D01*
G01*
X107483000Y-20716000D01*
G75*
G02*
X107733000Y-20466000I250000J0D01*
G01*
X108433000Y-20466000D01*
G75*
G02*
X108683000Y-20716000I0J-250000D01*
G01*
G37*
G36*
G01*
X103083000Y-20716000D02*
X103083000Y-22016000D01*
G75*
G02*
X102833000Y-22266000I-250000J0D01*
G01*
X102133000Y-22266000D01*
G75*
G02*
X101883000Y-22016000I0J250000D01*
G01*
X101883000Y-20716000D01*
G75*
G02*
X102133000Y-20466000I250000J0D01*
G01*
X102833000Y-20466000D01*
G75*
G02*
X103083000Y-20716000I0J-250000D01*
G01*
G37*
G36*
G01*
X53139000Y-59850000D02*
X53139000Y-60800000D01*
G75*
G02*
X52889000Y-61050000I-250000J0D01*
G01*
X52389000Y-61050000D01*
G75*
G02*
X52139000Y-60800000I0J250000D01*
G01*
X52139000Y-59850000D01*
G75*
G02*
X52389000Y-59600000I250000J0D01*
G01*
X52889000Y-59600000D01*
G75*
G02*
X53139000Y-59850000I0J-250000D01*
G01*
G37*
G36*
G01*
X51239000Y-59850000D02*
X51239000Y-60800000D01*
G75*
G02*
X50989000Y-61050000I-250000J0D01*
G01*
X50489000Y-61050000D01*
G75*
G02*
X50239000Y-60800000I0J250000D01*
G01*
X50239000Y-59850000D01*
G75*
G02*
X50489000Y-59600000I250000J0D01*
G01*
X50989000Y-59600000D01*
G75*
G02*
X51239000Y-59850000I0J-250000D01*
G01*
G37*
G36*
G01*
X49635000Y-62954000D02*
X49635000Y-62654000D01*
G75*
G02*
X49785000Y-62504000I150000J0D01*
G01*
X50810000Y-62504000D01*
G75*
G02*
X50960000Y-62654000I0J-150000D01*
G01*
X50960000Y-62954000D01*
G75*
G02*
X50810000Y-63104000I-150000J0D01*
G01*
X49785000Y-63104000D01*
G75*
G02*
X49635000Y-62954000I0J150000D01*
G01*
G37*
G36*
G01*
X49635000Y-63904000D02*
X49635000Y-63604000D01*
G75*
G02*
X49785000Y-63454000I150000J0D01*
G01*
X50810000Y-63454000D01*
G75*
G02*
X50960000Y-63604000I0J-150000D01*
G01*
X50960000Y-63904000D01*
G75*
G02*
X50810000Y-64054000I-150000J0D01*
G01*
X49785000Y-64054000D01*
G75*
G02*
X49635000Y-63904000I0J150000D01*
G01*
G37*
G36*
G01*
X49635000Y-64854000D02*
X49635000Y-64554000D01*
G75*
G02*
X49785000Y-64404000I150000J0D01*
G01*
X50810000Y-64404000D01*
G75*
G02*
X50960000Y-64554000I0J-150000D01*
G01*
X50960000Y-64854000D01*
G75*
G02*
X50810000Y-65004000I-150000J0D01*
G01*
X49785000Y-65004000D01*
G75*
G02*
X49635000Y-64854000I0J150000D01*
G01*
G37*
G36*
G01*
X51910000Y-64854000D02*
X51910000Y-64554000D01*
G75*
G02*
X52060000Y-64404000I150000J0D01*
G01*
X53085000Y-64404000D01*
G75*
G02*
X53235000Y-64554000I0J-150000D01*
G01*
X53235000Y-64854000D01*
G75*
G02*
X53085000Y-65004000I-150000J0D01*
G01*
X52060000Y-65004000D01*
G75*
G02*
X51910000Y-64854000I0J150000D01*
G01*
G37*
G36*
G01*
X51910000Y-63904000D02*
X51910000Y-63604000D01*
G75*
G02*
X52060000Y-63454000I150000J0D01*
G01*
X53085000Y-63454000D01*
G75*
G02*
X53235000Y-63604000I0J-150000D01*
G01*
X53235000Y-63904000D01*
G75*
G02*
X53085000Y-64054000I-150000J0D01*
G01*
X52060000Y-64054000D01*
G75*
G02*
X51910000Y-63904000I0J150000D01*
G01*
G37*
G36*
G01*
X51910000Y-62954000D02*
X51910000Y-62654000D01*
G75*
G02*
X52060000Y-62504000I150000J0D01*
G01*
X53085000Y-62504000D01*
G75*
G02*
X53235000Y-62654000I0J-150000D01*
G01*
X53235000Y-62954000D01*
G75*
G02*
X53085000Y-63104000I-150000J0D01*
G01*
X52060000Y-63104000D01*
G75*
G02*
X51910000Y-62954000I0J150000D01*
G01*
G37*
G36*
G01*
X85885000Y-66749000D02*
X86835000Y-66749000D01*
G75*
G02*
X87085000Y-66999000I0J-250000D01*
G01*
X87085000Y-67499000D01*
G75*
G02*
X86835000Y-67749000I-250000J0D01*
G01*
X85885000Y-67749000D01*
G75*
G02*
X85635000Y-67499000I0J250000D01*
G01*
X85635000Y-66999000D01*
G75*
G02*
X85885000Y-66749000I250000J0D01*
G01*
G37*
G36*
G01*
X85885000Y-68649000D02*
X86835000Y-68649000D01*
G75*
G02*
X87085000Y-68899000I0J-250000D01*
G01*
X87085000Y-69399000D01*
G75*
G02*
X86835000Y-69649000I-250000J0D01*
G01*
X85885000Y-69649000D01*
G75*
G02*
X85635000Y-69399000I0J250000D01*
G01*
X85635000Y-68899000D01*
G75*
G02*
X85885000Y-68649000I250000J0D01*
G01*
G37*
G36*
G01*
X61435000Y-42696500D02*
X60485000Y-42696500D01*
G75*
G02*
X60235000Y-42446500I0J250000D01*
G01*
X60235000Y-41946500D01*
G75*
G02*
X60485000Y-41696500I250000J0D01*
G01*
X61435000Y-41696500D01*
G75*
G02*
X61685000Y-41946500I0J-250000D01*
G01*
X61685000Y-42446500D01*
G75*
G02*
X61435000Y-42696500I-250000J0D01*
G01*
G37*
G36*
G01*
X61435000Y-40796500D02*
X60485000Y-40796500D01*
G75*
G02*
X60235000Y-40546500I0J250000D01*
G01*
X60235000Y-40046500D01*
G75*
G02*
X60485000Y-39796500I250000J0D01*
G01*
X61435000Y-39796500D01*
G75*
G02*
X61685000Y-40046500I0J-250000D01*
G01*
X61685000Y-40546500D01*
G75*
G02*
X61435000Y-40796500I-250000J0D01*
G01*
G37*
G36*
G01*
X55090000Y-81349000D02*
X55090000Y-80449000D01*
G75*
G02*
X55340000Y-80199000I250000J0D01*
G01*
X55865000Y-80199000D01*
G75*
G02*
X56115000Y-80449000I0J-250000D01*
G01*
X56115000Y-81349000D01*
G75*
G02*
X55865000Y-81599000I-250000J0D01*
G01*
X55340000Y-81599000D01*
G75*
G02*
X55090000Y-81349000I0J250000D01*
G01*
G37*
G36*
G01*
X56915000Y-81349000D02*
X56915000Y-80449000D01*
G75*
G02*
X57165000Y-80199000I250000J0D01*
G01*
X57690000Y-80199000D01*
G75*
G02*
X57940000Y-80449000I0J-250000D01*
G01*
X57940000Y-81349000D01*
G75*
G02*
X57690000Y-81599000I-250000J0D01*
G01*
X57165000Y-81599000D01*
G75*
G02*
X56915000Y-81349000I0J250000D01*
G01*
G37*
G36*
G01*
X105261000Y-89938000D02*
X105261000Y-88688000D01*
G75*
G02*
X105411000Y-88538000I150000J0D01*
G01*
X105711000Y-88538000D01*
G75*
G02*
X105861000Y-88688000I0J-150000D01*
G01*
X105861000Y-89938000D01*
G75*
G02*
X105711000Y-90088000I-150000J0D01*
G01*
X105411000Y-90088000D01*
G75*
G02*
X105261000Y-89938000I0J150000D01*
G01*
G37*
G36*
G01*
X106261000Y-89938000D02*
X106261000Y-88688000D01*
G75*
G02*
X106411000Y-88538000I150000J0D01*
G01*
X106711000Y-88538000D01*
G75*
G02*
X106861000Y-88688000I0J-150000D01*
G01*
X106861000Y-89938000D01*
G75*
G02*
X106711000Y-90088000I-150000J0D01*
G01*
X106411000Y-90088000D01*
G75*
G02*
X106261000Y-89938000I0J150000D01*
G01*
G37*
G36*
G01*
X107261000Y-89938000D02*
X107261000Y-88688000D01*
G75*
G02*
X107411000Y-88538000I150000J0D01*
G01*
X107711000Y-88538000D01*
G75*
G02*
X107861000Y-88688000I0J-150000D01*
G01*
X107861000Y-89938000D01*
G75*
G02*
X107711000Y-90088000I-150000J0D01*
G01*
X107411000Y-90088000D01*
G75*
G02*
X107261000Y-89938000I0J150000D01*
G01*
G37*
G36*
G01*
X108261000Y-89938000D02*
X108261000Y-88688000D01*
G75*
G02*
X108411000Y-88538000I150000J0D01*
G01*
X108711000Y-88538000D01*
G75*
G02*
X108861000Y-88688000I0J-150000D01*
G01*
X108861000Y-89938000D01*
G75*
G02*
X108711000Y-90088000I-150000J0D01*
G01*
X108411000Y-90088000D01*
G75*
G02*
X108261000Y-89938000I0J150000D01*
G01*
G37*
G36*
G01*
X103661000Y-93838000D02*
X103661000Y-92538000D01*
G75*
G02*
X103911000Y-92288000I250000J0D01*
G01*
X104611000Y-92288000D01*
G75*
G02*
X104861000Y-92538000I0J-250000D01*
G01*
X104861000Y-93838000D01*
G75*
G02*
X104611000Y-94088000I-250000J0D01*
G01*
X103911000Y-94088000D01*
G75*
G02*
X103661000Y-93838000I0J250000D01*
G01*
G37*
G36*
G01*
X109261000Y-93838000D02*
X109261000Y-92538000D01*
G75*
G02*
X109511000Y-92288000I250000J0D01*
G01*
X110211000Y-92288000D01*
G75*
G02*
X110461000Y-92538000I0J-250000D01*
G01*
X110461000Y-93838000D01*
G75*
G02*
X110211000Y-94088000I-250000J0D01*
G01*
X109511000Y-94088000D01*
G75*
G02*
X109261000Y-93838000I0J250000D01*
G01*
G37*
G36*
G01*
X111727000Y-48313000D02*
X110777000Y-48313000D01*
G75*
G02*
X110527000Y-48063000I0J250000D01*
G01*
X110527000Y-47563000D01*
G75*
G02*
X110777000Y-47313000I250000J0D01*
G01*
X111727000Y-47313000D01*
G75*
G02*
X111977000Y-47563000I0J-250000D01*
G01*
X111977000Y-48063000D01*
G75*
G02*
X111727000Y-48313000I-250000J0D01*
G01*
G37*
G36*
G01*
X111727000Y-46413000D02*
X110777000Y-46413000D01*
G75*
G02*
X110527000Y-46163000I0J250000D01*
G01*
X110527000Y-45663000D01*
G75*
G02*
X110777000Y-45413000I250000J0D01*
G01*
X111727000Y-45413000D01*
G75*
G02*
X111977000Y-45663000I0J-250000D01*
G01*
X111977000Y-46163000D01*
G75*
G02*
X111727000Y-46413000I-250000J0D01*
G01*
G37*
G36*
G01*
X124282750Y-38810500D02*
X125182750Y-38810500D01*
G75*
G02*
X125432750Y-39060500I0J-250000D01*
G01*
X125432750Y-39585500D01*
G75*
G02*
X125182750Y-39835500I-250000J0D01*
G01*
X124282750Y-39835500D01*
G75*
G02*
X124032750Y-39585500I0J250000D01*
G01*
X124032750Y-39060500D01*
G75*
G02*
X124282750Y-38810500I250000J0D01*
G01*
G37*
G36*
G01*
X124282750Y-40635500D02*
X125182750Y-40635500D01*
G75*
G02*
X125432750Y-40885500I0J-250000D01*
G01*
X125432750Y-41410500D01*
G75*
G02*
X125182750Y-41660500I-250000J0D01*
G01*
X124282750Y-41660500D01*
G75*
G02*
X124032750Y-41410500I0J250000D01*
G01*
X124032750Y-40885500D01*
G75*
G02*
X124282750Y-40635500I250000J0D01*
G01*
G37*
G36*
G01*
X116771000Y-69822000D02*
X117671000Y-69822000D01*
G75*
G02*
X117921000Y-70072000I0J-250000D01*
G01*
X117921000Y-70597000D01*
G75*
G02*
X117671000Y-70847000I-250000J0D01*
G01*
X116771000Y-70847000D01*
G75*
G02*
X116521000Y-70597000I0J250000D01*
G01*
X116521000Y-70072000D01*
G75*
G02*
X116771000Y-69822000I250000J0D01*
G01*
G37*
G36*
G01*
X116771000Y-71647000D02*
X117671000Y-71647000D01*
G75*
G02*
X117921000Y-71897000I0J-250000D01*
G01*
X117921000Y-72422000D01*
G75*
G02*
X117671000Y-72672000I-250000J0D01*
G01*
X116771000Y-72672000D01*
G75*
G02*
X116521000Y-72422000I0J250000D01*
G01*
X116521000Y-71897000D01*
G75*
G02*
X116771000Y-71647000I250000J0D01*
G01*
G37*
G36*
G01*
X63177000Y-39821500D02*
X64077000Y-39821500D01*
G75*
G02*
X64327000Y-40071500I0J-250000D01*
G01*
X64327000Y-40596500D01*
G75*
G02*
X64077000Y-40846500I-250000J0D01*
G01*
X63177000Y-40846500D01*
G75*
G02*
X62927000Y-40596500I0J250000D01*
G01*
X62927000Y-40071500D01*
G75*
G02*
X63177000Y-39821500I250000J0D01*
G01*
G37*
G36*
G01*
X63177000Y-41646500D02*
X64077000Y-41646500D01*
G75*
G02*
X64327000Y-41896500I0J-250000D01*
G01*
X64327000Y-42421500D01*
G75*
G02*
X64077000Y-42671500I-250000J0D01*
G01*
X63177000Y-42671500D01*
G75*
G02*
X62927000Y-42421500I0J250000D01*
G01*
X62927000Y-41896500D01*
G75*
G02*
X63177000Y-41646500I250000J0D01*
G01*
G37*
G36*
G01*
X131163000Y-63067250D02*
X131163000Y-62154750D01*
G75*
G02*
X131406750Y-61911000I243750J0D01*
G01*
X131894250Y-61911000D01*
G75*
G02*
X132138000Y-62154750I0J-243750D01*
G01*
X132138000Y-63067250D01*
G75*
G02*
X131894250Y-63311000I-243750J0D01*
G01*
X131406750Y-63311000D01*
G75*
G02*
X131163000Y-63067250I0J243750D01*
G01*
G37*
G36*
G01*
X133038000Y-63067250D02*
X133038000Y-62154750D01*
G75*
G02*
X133281750Y-61911000I243750J0D01*
G01*
X133769250Y-61911000D01*
G75*
G02*
X134013000Y-62154750I0J-243750D01*
G01*
X134013000Y-63067250D01*
G75*
G02*
X133769250Y-63311000I-243750J0D01*
G01*
X133281750Y-63311000D01*
G75*
G02*
X133038000Y-63067250I0J243750D01*
G01*
G37*
G36*
G01*
X96959000Y-32714500D02*
X97859000Y-32714500D01*
G75*
G02*
X98109000Y-32964500I0J-250000D01*
G01*
X98109000Y-33489500D01*
G75*
G02*
X97859000Y-33739500I-250000J0D01*
G01*
X96959000Y-33739500D01*
G75*
G02*
X96709000Y-33489500I0J250000D01*
G01*
X96709000Y-32964500D01*
G75*
G02*
X96959000Y-32714500I250000J0D01*
G01*
G37*
G36*
G01*
X96959000Y-34539500D02*
X97859000Y-34539500D01*
G75*
G02*
X98109000Y-34789500I0J-250000D01*
G01*
X98109000Y-35314500D01*
G75*
G02*
X97859000Y-35564500I-250000J0D01*
G01*
X96959000Y-35564500D01*
G75*
G02*
X96709000Y-35314500I0J250000D01*
G01*
X96709000Y-34789500D01*
G75*
G02*
X96959000Y-34539500I250000J0D01*
G01*
G37*
G36*
G01*
X89702000Y-53236000D02*
X89702000Y-52936000D01*
G75*
G02*
X89852000Y-52786000I150000J0D01*
G01*
X91602000Y-52786000D01*
G75*
G02*
X91752000Y-52936000I0J-150000D01*
G01*
X91752000Y-53236000D01*
G75*
G02*
X91602000Y-53386000I-150000J0D01*
G01*
X89852000Y-53386000D01*
G75*
G02*
X89702000Y-53236000I0J150000D01*
G01*
G37*
G36*
G01*
X89702000Y-54506000D02*
X89702000Y-54206000D01*
G75*
G02*
X89852000Y-54056000I150000J0D01*
G01*
X91602000Y-54056000D01*
G75*
G02*
X91752000Y-54206000I0J-150000D01*
G01*
X91752000Y-54506000D01*
G75*
G02*
X91602000Y-54656000I-150000J0D01*
G01*
X89852000Y-54656000D01*
G75*
G02*
X89702000Y-54506000I0J150000D01*
G01*
G37*
G36*
G01*
X89702000Y-55776000D02*
X89702000Y-55476000D01*
G75*
G02*
X89852000Y-55326000I150000J0D01*
G01*
X91602000Y-55326000D01*
G75*
G02*
X91752000Y-55476000I0J-150000D01*
G01*
X91752000Y-55776000D01*
G75*
G02*
X91602000Y-55926000I-150000J0D01*
G01*
X89852000Y-55926000D01*
G75*
G02*
X89702000Y-55776000I0J150000D01*
G01*
G37*
G36*
G01*
X89702000Y-57046000D02*
X89702000Y-56746000D01*
G75*
G02*
X89852000Y-56596000I150000J0D01*
G01*
X91602000Y-56596000D01*
G75*
G02*
X91752000Y-56746000I0J-150000D01*
G01*
X91752000Y-57046000D01*
G75*
G02*
X91602000Y-57196000I-150000J0D01*
G01*
X89852000Y-57196000D01*
G75*
G02*
X89702000Y-57046000I0J150000D01*
G01*
G37*
G36*
G01*
X89702000Y-58316000D02*
X89702000Y-58016000D01*
G75*
G02*
X89852000Y-57866000I150000J0D01*
G01*
X91602000Y-57866000D01*
G75*
G02*
X91752000Y-58016000I0J-150000D01*
G01*
X91752000Y-58316000D01*
G75*
G02*
X91602000Y-58466000I-150000J0D01*
G01*
X89852000Y-58466000D01*
G75*
G02*
X89702000Y-58316000I0J150000D01*
G01*
G37*
G36*
G01*
X89702000Y-59586000D02*
X89702000Y-59286000D01*
G75*
G02*
X89852000Y-59136000I150000J0D01*
G01*
X91602000Y-59136000D01*
G75*
G02*
X91752000Y-59286000I0J-150000D01*
G01*
X91752000Y-59586000D01*
G75*
G02*
X91602000Y-59736000I-150000J0D01*
G01*
X89852000Y-59736000D01*
G75*
G02*
X89702000Y-59586000I0J150000D01*
G01*
G37*
G36*
G01*
X89702000Y-60856000D02*
X89702000Y-60556000D01*
G75*
G02*
X89852000Y-60406000I150000J0D01*
G01*
X91602000Y-60406000D01*
G75*
G02*
X91752000Y-60556000I0J-150000D01*
G01*
X91752000Y-60856000D01*
G75*
G02*
X91602000Y-61006000I-150000J0D01*
G01*
X89852000Y-61006000D01*
G75*
G02*
X89702000Y-60856000I0J150000D01*
G01*
G37*
G36*
G01*
X89702000Y-62126000D02*
X89702000Y-61826000D01*
G75*
G02*
X89852000Y-61676000I150000J0D01*
G01*
X91602000Y-61676000D01*
G75*
G02*
X91752000Y-61826000I0J-150000D01*
G01*
X91752000Y-62126000D01*
G75*
G02*
X91602000Y-62276000I-150000J0D01*
G01*
X89852000Y-62276000D01*
G75*
G02*
X89702000Y-62126000I0J150000D01*
G01*
G37*
G36*
G01*
X89702000Y-63396000D02*
X89702000Y-63096000D01*
G75*
G02*
X89852000Y-62946000I150000J0D01*
G01*
X91602000Y-62946000D01*
G75*
G02*
X91752000Y-63096000I0J-150000D01*
G01*
X91752000Y-63396000D01*
G75*
G02*
X91602000Y-63546000I-150000J0D01*
G01*
X89852000Y-63546000D01*
G75*
G02*
X89702000Y-63396000I0J150000D01*
G01*
G37*
G36*
G01*
X89702000Y-64666000D02*
X89702000Y-64366000D01*
G75*
G02*
X89852000Y-64216000I150000J0D01*
G01*
X91602000Y-64216000D01*
G75*
G02*
X91752000Y-64366000I0J-150000D01*
G01*
X91752000Y-64666000D01*
G75*
G02*
X91602000Y-64816000I-150000J0D01*
G01*
X89852000Y-64816000D01*
G75*
G02*
X89702000Y-64666000I0J150000D01*
G01*
G37*
G36*
G01*
X99002000Y-64666000D02*
X99002000Y-64366000D01*
G75*
G02*
X99152000Y-64216000I150000J0D01*
G01*
X100902000Y-64216000D01*
G75*
G02*
X101052000Y-64366000I0J-150000D01*
G01*
X101052000Y-64666000D01*
G75*
G02*
X100902000Y-64816000I-150000J0D01*
G01*
X99152000Y-64816000D01*
G75*
G02*
X99002000Y-64666000I0J150000D01*
G01*
G37*
G36*
G01*
X99002000Y-63396000D02*
X99002000Y-63096000D01*
G75*
G02*
X99152000Y-62946000I150000J0D01*
G01*
X100902000Y-62946000D01*
G75*
G02*
X101052000Y-63096000I0J-150000D01*
G01*
X101052000Y-63396000D01*
G75*
G02*
X100902000Y-63546000I-150000J0D01*
G01*
X99152000Y-63546000D01*
G75*
G02*
X99002000Y-63396000I0J150000D01*
G01*
G37*
G36*
G01*
X99002000Y-62126000D02*
X99002000Y-61826000D01*
G75*
G02*
X99152000Y-61676000I150000J0D01*
G01*
X100902000Y-61676000D01*
G75*
G02*
X101052000Y-61826000I0J-150000D01*
G01*
X101052000Y-62126000D01*
G75*
G02*
X100902000Y-62276000I-150000J0D01*
G01*
X99152000Y-62276000D01*
G75*
G02*
X99002000Y-62126000I0J150000D01*
G01*
G37*
G36*
G01*
X99002000Y-60856000D02*
X99002000Y-60556000D01*
G75*
G02*
X99152000Y-60406000I150000J0D01*
G01*
X100902000Y-60406000D01*
G75*
G02*
X101052000Y-60556000I0J-150000D01*
G01*
X101052000Y-60856000D01*
G75*
G02*
X100902000Y-61006000I-150000J0D01*
G01*
X99152000Y-61006000D01*
G75*
G02*
X99002000Y-60856000I0J150000D01*
G01*
G37*
G36*
G01*
X99002000Y-59586000D02*
X99002000Y-59286000D01*
G75*
G02*
X99152000Y-59136000I150000J0D01*
G01*
X100902000Y-59136000D01*
G75*
G02*
X101052000Y-59286000I0J-150000D01*
G01*
X101052000Y-59586000D01*
G75*
G02*
X100902000Y-59736000I-150000J0D01*
G01*
X99152000Y-59736000D01*
G75*
G02*
X99002000Y-59586000I0J150000D01*
G01*
G37*
G36*
G01*
X99002000Y-58316000D02*
X99002000Y-58016000D01*
G75*
G02*
X99152000Y-57866000I150000J0D01*
G01*
X100902000Y-57866000D01*
G75*
G02*
X101052000Y-58016000I0J-150000D01*
G01*
X101052000Y-58316000D01*
G75*
G02*
X100902000Y-58466000I-150000J0D01*
G01*
X99152000Y-58466000D01*
G75*
G02*
X99002000Y-58316000I0J150000D01*
G01*
G37*
G36*
G01*
X99002000Y-57046000D02*
X99002000Y-56746000D01*
G75*
G02*
X99152000Y-56596000I150000J0D01*
G01*
X100902000Y-56596000D01*
G75*
G02*
X101052000Y-56746000I0J-150000D01*
G01*
X101052000Y-57046000D01*
G75*
G02*
X100902000Y-57196000I-150000J0D01*
G01*
X99152000Y-57196000D01*
G75*
G02*
X99002000Y-57046000I0J150000D01*
G01*
G37*
G36*
G01*
X99002000Y-55776000D02*
X99002000Y-55476000D01*
G75*
G02*
X99152000Y-55326000I150000J0D01*
G01*
X100902000Y-55326000D01*
G75*
G02*
X101052000Y-55476000I0J-150000D01*
G01*
X101052000Y-55776000D01*
G75*
G02*
X100902000Y-55926000I-150000J0D01*
G01*
X99152000Y-55926000D01*
G75*
G02*
X99002000Y-55776000I0J150000D01*
G01*
G37*
G36*
G01*
X99002000Y-54506000D02*
X99002000Y-54206000D01*
G75*
G02*
X99152000Y-54056000I150000J0D01*
G01*
X100902000Y-54056000D01*
G75*
G02*
X101052000Y-54206000I0J-150000D01*
G01*
X101052000Y-54506000D01*
G75*
G02*
X100902000Y-54656000I-150000J0D01*
G01*
X99152000Y-54656000D01*
G75*
G02*
X99002000Y-54506000I0J150000D01*
G01*
G37*
G36*
G01*
X99002000Y-53236000D02*
X99002000Y-52936000D01*
G75*
G02*
X99152000Y-52786000I150000J0D01*
G01*
X100902000Y-52786000D01*
G75*
G02*
X101052000Y-52936000I0J-150000D01*
G01*
X101052000Y-53236000D01*
G75*
G02*
X100902000Y-53386000I-150000J0D01*
G01*
X99152000Y-53386000D01*
G75*
G02*
X99002000Y-53236000I0J150000D01*
G01*
G37*
G36*
G01*
X107673000Y-45461000D02*
X107973000Y-45461000D01*
G75*
G02*
X108123000Y-45611000I0J-150000D01*
G01*
X108123000Y-47211000D01*
G75*
G02*
X107973000Y-47361000I-150000J0D01*
G01*
X107673000Y-47361000D01*
G75*
G02*
X107523000Y-47211000I0J150000D01*
G01*
X107523000Y-45611000D01*
G75*
G02*
X107673000Y-45461000I150000J0D01*
G01*
G37*
G36*
G01*
X106403000Y-45461000D02*
X106703000Y-45461000D01*
G75*
G02*
X106853000Y-45611000I0J-150000D01*
G01*
X106853000Y-47211000D01*
G75*
G02*
X106703000Y-47361000I-150000J0D01*
G01*
X106403000Y-47361000D01*
G75*
G02*
X106253000Y-47211000I0J150000D01*
G01*
X106253000Y-45611000D01*
G75*
G02*
X106403000Y-45461000I150000J0D01*
G01*
G37*
G36*
G01*
X105133000Y-45461000D02*
X105433000Y-45461000D01*
G75*
G02*
X105583000Y-45611000I0J-150000D01*
G01*
X105583000Y-47211000D01*
G75*
G02*
X105433000Y-47361000I-150000J0D01*
G01*
X105133000Y-47361000D01*
G75*
G02*
X104983000Y-47211000I0J150000D01*
G01*
X104983000Y-45611000D01*
G75*
G02*
X105133000Y-45461000I150000J0D01*
G01*
G37*
G36*
G01*
X103863000Y-45461000D02*
X104163000Y-45461000D01*
G75*
G02*
X104313000Y-45611000I0J-150000D01*
G01*
X104313000Y-47211000D01*
G75*
G02*
X104163000Y-47361000I-150000J0D01*
G01*
X103863000Y-47361000D01*
G75*
G02*
X103713000Y-47211000I0J150000D01*
G01*
X103713000Y-45611000D01*
G75*
G02*
X103863000Y-45461000I150000J0D01*
G01*
G37*
G36*
G01*
X103863000Y-52461000D02*
X104163000Y-52461000D01*
G75*
G02*
X104313000Y-52611000I0J-150000D01*
G01*
X104313000Y-54211000D01*
G75*
G02*
X104163000Y-54361000I-150000J0D01*
G01*
X103863000Y-54361000D01*
G75*
G02*
X103713000Y-54211000I0J150000D01*
G01*
X103713000Y-52611000D01*
G75*
G02*
X103863000Y-52461000I150000J0D01*
G01*
G37*
G36*
G01*
X105133000Y-52461000D02*
X105433000Y-52461000D01*
G75*
G02*
X105583000Y-52611000I0J-150000D01*
G01*
X105583000Y-54211000D01*
G75*
G02*
X105433000Y-54361000I-150000J0D01*
G01*
X105133000Y-54361000D01*
G75*
G02*
X104983000Y-54211000I0J150000D01*
G01*
X104983000Y-52611000D01*
G75*
G02*
X105133000Y-52461000I150000J0D01*
G01*
G37*
G36*
G01*
X106403000Y-52461000D02*
X106703000Y-52461000D01*
G75*
G02*
X106853000Y-52611000I0J-150000D01*
G01*
X106853000Y-54211000D01*
G75*
G02*
X106703000Y-54361000I-150000J0D01*
G01*
X106403000Y-54361000D01*
G75*
G02*
X106253000Y-54211000I0J150000D01*
G01*
X106253000Y-52611000D01*
G75*
G02*
X106403000Y-52461000I150000J0D01*
G01*
G37*
G36*
G01*
X107673000Y-52461000D02*
X107973000Y-52461000D01*
G75*
G02*
X108123000Y-52611000I0J-150000D01*
G01*
X108123000Y-54211000D01*
G75*
G02*
X107973000Y-54361000I-150000J0D01*
G01*
X107673000Y-54361000D01*
G75*
G02*
X107523000Y-54211000I0J150000D01*
G01*
X107523000Y-52611000D01*
G75*
G02*
X107673000Y-52461000I150000J0D01*
G01*
G37*
G36*
G01*
X146911000Y-80466250D02*
X146911000Y-79553750D01*
G75*
G02*
X147154750Y-79310000I243750J0D01*
G01*
X147642250Y-79310000D01*
G75*
G02*
X147886000Y-79553750I0J-243750D01*
G01*
X147886000Y-80466250D01*
G75*
G02*
X147642250Y-80710000I-243750J0D01*
G01*
X147154750Y-80710000D01*
G75*
G02*
X146911000Y-80466250I0J243750D01*
G01*
G37*
G36*
G01*
X148786000Y-80466250D02*
X148786000Y-79553750D01*
G75*
G02*
X149029750Y-79310000I243750J0D01*
G01*
X149517250Y-79310000D01*
G75*
G02*
X149761000Y-79553750I0J-243750D01*
G01*
X149761000Y-80466250D01*
G75*
G02*
X149517250Y-80710000I-243750J0D01*
G01*
X149029750Y-80710000D01*
G75*
G02*
X148786000Y-80466250I0J243750D01*
G01*
G37*
G36*
G01*
X127747750Y-41685500D02*
X126797750Y-41685500D01*
G75*
G02*
X126547750Y-41435500I0J250000D01*
G01*
X126547750Y-40935500D01*
G75*
G02*
X126797750Y-40685500I250000J0D01*
G01*
X127747750Y-40685500D01*
G75*
G02*
X127997750Y-40935500I0J-250000D01*
G01*
X127997750Y-41435500D01*
G75*
G02*
X127747750Y-41685500I-250000J0D01*
G01*
G37*
G36*
G01*
X127747750Y-39785500D02*
X126797750Y-39785500D01*
G75*
G02*
X126547750Y-39535500I0J250000D01*
G01*
X126547750Y-39035500D01*
G75*
G02*
X126797750Y-38785500I250000J0D01*
G01*
X127747750Y-38785500D01*
G75*
G02*
X127997750Y-39035500I0J-250000D01*
G01*
X127997750Y-39535500D01*
G75*
G02*
X127747750Y-39785500I-250000J0D01*
G01*
G37*
G36*
G01*
X39850000Y-46297000D02*
X39850000Y-45397000D01*
G75*
G02*
X40100000Y-45147000I250000J0D01*
G01*
X40625000Y-45147000D01*
G75*
G02*
X40875000Y-45397000I0J-250000D01*
G01*
X40875000Y-46297000D01*
G75*
G02*
X40625000Y-46547000I-250000J0D01*
G01*
X40100000Y-46547000D01*
G75*
G02*
X39850000Y-46297000I0J250000D01*
G01*
G37*
G36*
G01*
X41675000Y-46297000D02*
X41675000Y-45397000D01*
G75*
G02*
X41925000Y-45147000I250000J0D01*
G01*
X42450000Y-45147000D01*
G75*
G02*
X42700000Y-45397000I0J-250000D01*
G01*
X42700000Y-46297000D01*
G75*
G02*
X42450000Y-46547000I-250000J0D01*
G01*
X41925000Y-46547000D01*
G75*
G02*
X41675000Y-46297000I0J250000D01*
G01*
G37*
G36*
G01*
X50340600Y-71620400D02*
X50340600Y-70670400D01*
G75*
G02*
X50590600Y-70420400I250000J0D01*
G01*
X51090600Y-70420400D01*
G75*
G02*
X51340600Y-70670400I0J-250000D01*
G01*
X51340600Y-71620400D01*
G75*
G02*
X51090600Y-71870400I-250000J0D01*
G01*
X50590600Y-71870400D01*
G75*
G02*
X50340600Y-71620400I0J250000D01*
G01*
G37*
G36*
G01*
X52240600Y-71620400D02*
X52240600Y-70670400D01*
G75*
G02*
X52490600Y-70420400I250000J0D01*
G01*
X52990600Y-70420400D01*
G75*
G02*
X53240600Y-70670400I0J-250000D01*
G01*
X53240600Y-71620400D01*
G75*
G02*
X52990600Y-71870400I-250000J0D01*
G01*
X52490600Y-71870400D01*
G75*
G02*
X52240600Y-71620400I0J250000D01*
G01*
G37*
D12*
X92778813Y-86207600D03*
X92778813Y-83667600D03*
X92778813Y-81127600D03*
X97218815Y-86207600D03*
X97218815Y-83667600D03*
X97218815Y-81127600D03*
G36*
G01*
X131163000Y-73227250D02*
X131163000Y-72314750D01*
G75*
G02*
X131406750Y-72071000I243750J0D01*
G01*
X131894250Y-72071000D01*
G75*
G02*
X132138000Y-72314750I0J-243750D01*
G01*
X132138000Y-73227250D01*
G75*
G02*
X131894250Y-73471000I-243750J0D01*
G01*
X131406750Y-73471000D01*
G75*
G02*
X131163000Y-73227250I0J243750D01*
G01*
G37*
G36*
G01*
X133038000Y-73227250D02*
X133038000Y-72314750D01*
G75*
G02*
X133281750Y-72071000I243750J0D01*
G01*
X133769250Y-72071000D01*
G75*
G02*
X134013000Y-72314750I0J-243750D01*
G01*
X134013000Y-73227250D01*
G75*
G02*
X133769250Y-73471000I-243750J0D01*
G01*
X133281750Y-73471000D01*
G75*
G02*
X133038000Y-73227250I0J243750D01*
G01*
G37*
G36*
G01*
X78306000Y-73627000D02*
X78306000Y-72677000D01*
G75*
G02*
X78556000Y-72427000I250000J0D01*
G01*
X79056000Y-72427000D01*
G75*
G02*
X79306000Y-72677000I0J-250000D01*
G01*
X79306000Y-73627000D01*
G75*
G02*
X79056000Y-73877000I-250000J0D01*
G01*
X78556000Y-73877000D01*
G75*
G02*
X78306000Y-73627000I0J250000D01*
G01*
G37*
G36*
G01*
X80206000Y-73627000D02*
X80206000Y-72677000D01*
G75*
G02*
X80456000Y-72427000I250000J0D01*
G01*
X80956000Y-72427000D01*
G75*
G02*
X81206000Y-72677000I0J-250000D01*
G01*
X81206000Y-73627000D01*
G75*
G02*
X80956000Y-73877000I-250000J0D01*
G01*
X80456000Y-73877000D01*
G75*
G02*
X80206000Y-73627000I0J250000D01*
G01*
G37*
G36*
G01*
X138402000Y-80466250D02*
X138402000Y-79553750D01*
G75*
G02*
X138645750Y-79310000I243750J0D01*
G01*
X139133250Y-79310000D01*
G75*
G02*
X139377000Y-79553750I0J-243750D01*
G01*
X139377000Y-80466250D01*
G75*
G02*
X139133250Y-80710000I-243750J0D01*
G01*
X138645750Y-80710000D01*
G75*
G02*
X138402000Y-80466250I0J243750D01*
G01*
G37*
G36*
G01*
X140277000Y-80466250D02*
X140277000Y-79553750D01*
G75*
G02*
X140520750Y-79310000I243750J0D01*
G01*
X141008250Y-79310000D01*
G75*
G02*
X141252000Y-79553750I0J-243750D01*
G01*
X141252000Y-80466250D01*
G75*
G02*
X141008250Y-80710000I-243750J0D01*
G01*
X140520750Y-80710000D01*
G75*
G02*
X140277000Y-80466250I0J243750D01*
G01*
G37*
G36*
G01*
X119057000Y-69822000D02*
X119957000Y-69822000D01*
G75*
G02*
X120207000Y-70072000I0J-250000D01*
G01*
X120207000Y-70597000D01*
G75*
G02*
X119957000Y-70847000I-250000J0D01*
G01*
X119057000Y-70847000D01*
G75*
G02*
X118807000Y-70597000I0J250000D01*
G01*
X118807000Y-70072000D01*
G75*
G02*
X119057000Y-69822000I250000J0D01*
G01*
G37*
G36*
G01*
X119057000Y-71647000D02*
X119957000Y-71647000D01*
G75*
G02*
X120207000Y-71897000I0J-250000D01*
G01*
X120207000Y-72422000D01*
G75*
G02*
X119957000Y-72672000I-250000J0D01*
G01*
X119057000Y-72672000D01*
G75*
G02*
X118807000Y-72422000I0J250000D01*
G01*
X118807000Y-71897000D01*
G75*
G02*
X119057000Y-71647000I250000J0D01*
G01*
G37*
G36*
G01*
X120580000Y-43204500D02*
X120780000Y-43204500D01*
G75*
G02*
X120880000Y-43304500I0J-100000D01*
G01*
X120880000Y-44579500D01*
G75*
G02*
X120780000Y-44679500I-100000J0D01*
G01*
X120580000Y-44679500D01*
G75*
G02*
X120480000Y-44579500I0J100000D01*
G01*
X120480000Y-43304500D01*
G75*
G02*
X120580000Y-43204500I100000J0D01*
G01*
G37*
G36*
G01*
X119930000Y-43204500D02*
X120130000Y-43204500D01*
G75*
G02*
X120230000Y-43304500I0J-100000D01*
G01*
X120230000Y-44579500D01*
G75*
G02*
X120130000Y-44679500I-100000J0D01*
G01*
X119930000Y-44679500D01*
G75*
G02*
X119830000Y-44579500I0J100000D01*
G01*
X119830000Y-43304500D01*
G75*
G02*
X119930000Y-43204500I100000J0D01*
G01*
G37*
G36*
G01*
X119280000Y-43204500D02*
X119480000Y-43204500D01*
G75*
G02*
X119580000Y-43304500I0J-100000D01*
G01*
X119580000Y-44579500D01*
G75*
G02*
X119480000Y-44679500I-100000J0D01*
G01*
X119280000Y-44679500D01*
G75*
G02*
X119180000Y-44579500I0J100000D01*
G01*
X119180000Y-43304500D01*
G75*
G02*
X119280000Y-43204500I100000J0D01*
G01*
G37*
G36*
G01*
X118630000Y-43204500D02*
X118830000Y-43204500D01*
G75*
G02*
X118930000Y-43304500I0J-100000D01*
G01*
X118930000Y-44579500D01*
G75*
G02*
X118830000Y-44679500I-100000J0D01*
G01*
X118630000Y-44679500D01*
G75*
G02*
X118530000Y-44579500I0J100000D01*
G01*
X118530000Y-43304500D01*
G75*
G02*
X118630000Y-43204500I100000J0D01*
G01*
G37*
G36*
G01*
X117980000Y-43204500D02*
X118180000Y-43204500D01*
G75*
G02*
X118280000Y-43304500I0J-100000D01*
G01*
X118280000Y-44579500D01*
G75*
G02*
X118180000Y-44679500I-100000J0D01*
G01*
X117980000Y-44679500D01*
G75*
G02*
X117880000Y-44579500I0J100000D01*
G01*
X117880000Y-43304500D01*
G75*
G02*
X117980000Y-43204500I100000J0D01*
G01*
G37*
G36*
G01*
X117330000Y-43204500D02*
X117530000Y-43204500D01*
G75*
G02*
X117630000Y-43304500I0J-100000D01*
G01*
X117630000Y-44579500D01*
G75*
G02*
X117530000Y-44679500I-100000J0D01*
G01*
X117330000Y-44679500D01*
G75*
G02*
X117230000Y-44579500I0J100000D01*
G01*
X117230000Y-43304500D01*
G75*
G02*
X117330000Y-43204500I100000J0D01*
G01*
G37*
G36*
G01*
X116680000Y-43204500D02*
X116880000Y-43204500D01*
G75*
G02*
X116980000Y-43304500I0J-100000D01*
G01*
X116980000Y-44579500D01*
G75*
G02*
X116880000Y-44679500I-100000J0D01*
G01*
X116680000Y-44679500D01*
G75*
G02*
X116580000Y-44579500I0J100000D01*
G01*
X116580000Y-43304500D01*
G75*
G02*
X116680000Y-43204500I100000J0D01*
G01*
G37*
G36*
G01*
X116030000Y-43204500D02*
X116230000Y-43204500D01*
G75*
G02*
X116330000Y-43304500I0J-100000D01*
G01*
X116330000Y-44579500D01*
G75*
G02*
X116230000Y-44679500I-100000J0D01*
G01*
X116030000Y-44679500D01*
G75*
G02*
X115930000Y-44579500I0J100000D01*
G01*
X115930000Y-43304500D01*
G75*
G02*
X116030000Y-43204500I100000J0D01*
G01*
G37*
G36*
G01*
X115380000Y-43204500D02*
X115580000Y-43204500D01*
G75*
G02*
X115680000Y-43304500I0J-100000D01*
G01*
X115680000Y-44579500D01*
G75*
G02*
X115580000Y-44679500I-100000J0D01*
G01*
X115380000Y-44679500D01*
G75*
G02*
X115280000Y-44579500I0J100000D01*
G01*
X115280000Y-43304500D01*
G75*
G02*
X115380000Y-43204500I100000J0D01*
G01*
G37*
G36*
G01*
X114730000Y-43204500D02*
X114930000Y-43204500D01*
G75*
G02*
X115030000Y-43304500I0J-100000D01*
G01*
X115030000Y-44579500D01*
G75*
G02*
X114930000Y-44679500I-100000J0D01*
G01*
X114730000Y-44679500D01*
G75*
G02*
X114630000Y-44579500I0J100000D01*
G01*
X114630000Y-43304500D01*
G75*
G02*
X114730000Y-43204500I100000J0D01*
G01*
G37*
G36*
G01*
X114080000Y-43204500D02*
X114280000Y-43204500D01*
G75*
G02*
X114380000Y-43304500I0J-100000D01*
G01*
X114380000Y-44579500D01*
G75*
G02*
X114280000Y-44679500I-100000J0D01*
G01*
X114080000Y-44679500D01*
G75*
G02*
X113980000Y-44579500I0J100000D01*
G01*
X113980000Y-43304500D01*
G75*
G02*
X114080000Y-43204500I100000J0D01*
G01*
G37*
G36*
G01*
X113430000Y-43204500D02*
X113630000Y-43204500D01*
G75*
G02*
X113730000Y-43304500I0J-100000D01*
G01*
X113730000Y-44579500D01*
G75*
G02*
X113630000Y-44679500I-100000J0D01*
G01*
X113430000Y-44679500D01*
G75*
G02*
X113330000Y-44579500I0J100000D01*
G01*
X113330000Y-43304500D01*
G75*
G02*
X113430000Y-43204500I100000J0D01*
G01*
G37*
G36*
G01*
X113430000Y-48929500D02*
X113630000Y-48929500D01*
G75*
G02*
X113730000Y-49029500I0J-100000D01*
G01*
X113730000Y-50304500D01*
G75*
G02*
X113630000Y-50404500I-100000J0D01*
G01*
X113430000Y-50404500D01*
G75*
G02*
X113330000Y-50304500I0J100000D01*
G01*
X113330000Y-49029500D01*
G75*
G02*
X113430000Y-48929500I100000J0D01*
G01*
G37*
G36*
G01*
X114080000Y-48929500D02*
X114280000Y-48929500D01*
G75*
G02*
X114380000Y-49029500I0J-100000D01*
G01*
X114380000Y-50304500D01*
G75*
G02*
X114280000Y-50404500I-100000J0D01*
G01*
X114080000Y-50404500D01*
G75*
G02*
X113980000Y-50304500I0J100000D01*
G01*
X113980000Y-49029500D01*
G75*
G02*
X114080000Y-48929500I100000J0D01*
G01*
G37*
G36*
G01*
X114730000Y-48929500D02*
X114930000Y-48929500D01*
G75*
G02*
X115030000Y-49029500I0J-100000D01*
G01*
X115030000Y-50304500D01*
G75*
G02*
X114930000Y-50404500I-100000J0D01*
G01*
X114730000Y-50404500D01*
G75*
G02*
X114630000Y-50304500I0J100000D01*
G01*
X114630000Y-49029500D01*
G75*
G02*
X114730000Y-48929500I100000J0D01*
G01*
G37*
G36*
G01*
X115380000Y-48929500D02*
X115580000Y-48929500D01*
G75*
G02*
X115680000Y-49029500I0J-100000D01*
G01*
X115680000Y-50304500D01*
G75*
G02*
X115580000Y-50404500I-100000J0D01*
G01*
X115380000Y-50404500D01*
G75*
G02*
X115280000Y-50304500I0J100000D01*
G01*
X115280000Y-49029500D01*
G75*
G02*
X115380000Y-48929500I100000J0D01*
G01*
G37*
G36*
G01*
X116030000Y-48929500D02*
X116230000Y-48929500D01*
G75*
G02*
X116330000Y-49029500I0J-100000D01*
G01*
X116330000Y-50304500D01*
G75*
G02*
X116230000Y-50404500I-100000J0D01*
G01*
X116030000Y-50404500D01*
G75*
G02*
X115930000Y-50304500I0J100000D01*
G01*
X115930000Y-49029500D01*
G75*
G02*
X116030000Y-48929500I100000J0D01*
G01*
G37*
G36*
G01*
X116680000Y-48929500D02*
X116880000Y-48929500D01*
G75*
G02*
X116980000Y-49029500I0J-100000D01*
G01*
X116980000Y-50304500D01*
G75*
G02*
X116880000Y-50404500I-100000J0D01*
G01*
X116680000Y-50404500D01*
G75*
G02*
X116580000Y-50304500I0J100000D01*
G01*
X116580000Y-49029500D01*
G75*
G02*
X116680000Y-48929500I100000J0D01*
G01*
G37*
G36*
G01*
X117330000Y-48929500D02*
X117530000Y-48929500D01*
G75*
G02*
X117630000Y-49029500I0J-100000D01*
G01*
X117630000Y-50304500D01*
G75*
G02*
X117530000Y-50404500I-100000J0D01*
G01*
X117330000Y-50404500D01*
G75*
G02*
X117230000Y-50304500I0J100000D01*
G01*
X117230000Y-49029500D01*
G75*
G02*
X117330000Y-48929500I100000J0D01*
G01*
G37*
G36*
G01*
X117980000Y-48929500D02*
X118180000Y-48929500D01*
G75*
G02*
X118280000Y-49029500I0J-100000D01*
G01*
X118280000Y-50304500D01*
G75*
G02*
X118180000Y-50404500I-100000J0D01*
G01*
X117980000Y-50404500D01*
G75*
G02*
X117880000Y-50304500I0J100000D01*
G01*
X117880000Y-49029500D01*
G75*
G02*
X117980000Y-48929500I100000J0D01*
G01*
G37*
G36*
G01*
X118630000Y-48929500D02*
X118830000Y-48929500D01*
G75*
G02*
X118930000Y-49029500I0J-100000D01*
G01*
X118930000Y-50304500D01*
G75*
G02*
X118830000Y-50404500I-100000J0D01*
G01*
X118630000Y-50404500D01*
G75*
G02*
X118530000Y-50304500I0J100000D01*
G01*
X118530000Y-49029500D01*
G75*
G02*
X118630000Y-48929500I100000J0D01*
G01*
G37*
G36*
G01*
X119280000Y-48929500D02*
X119480000Y-48929500D01*
G75*
G02*
X119580000Y-49029500I0J-100000D01*
G01*
X119580000Y-50304500D01*
G75*
G02*
X119480000Y-50404500I-100000J0D01*
G01*
X119280000Y-50404500D01*
G75*
G02*
X119180000Y-50304500I0J100000D01*
G01*
X119180000Y-49029500D01*
G75*
G02*
X119280000Y-48929500I100000J0D01*
G01*
G37*
G36*
G01*
X119930000Y-48929500D02*
X120130000Y-48929500D01*
G75*
G02*
X120230000Y-49029500I0J-100000D01*
G01*
X120230000Y-50304500D01*
G75*
G02*
X120130000Y-50404500I-100000J0D01*
G01*
X119930000Y-50404500D01*
G75*
G02*
X119830000Y-50304500I0J100000D01*
G01*
X119830000Y-49029500D01*
G75*
G02*
X119930000Y-48929500I100000J0D01*
G01*
G37*
G36*
G01*
X120580000Y-48929500D02*
X120780000Y-48929500D01*
G75*
G02*
X120880000Y-49029500I0J-100000D01*
G01*
X120880000Y-50304500D01*
G75*
G02*
X120780000Y-50404500I-100000J0D01*
G01*
X120580000Y-50404500D01*
G75*
G02*
X120480000Y-50304500I0J100000D01*
G01*
X120480000Y-49029500D01*
G75*
G02*
X120580000Y-48929500I100000J0D01*
G01*
G37*
G36*
G01*
X131163000Y-60527250D02*
X131163000Y-59614750D01*
G75*
G02*
X131406750Y-59371000I243750J0D01*
G01*
X131894250Y-59371000D01*
G75*
G02*
X132138000Y-59614750I0J-243750D01*
G01*
X132138000Y-60527250D01*
G75*
G02*
X131894250Y-60771000I-243750J0D01*
G01*
X131406750Y-60771000D01*
G75*
G02*
X131163000Y-60527250I0J243750D01*
G01*
G37*
G36*
G01*
X133038000Y-60527250D02*
X133038000Y-59614750D01*
G75*
G02*
X133281750Y-59371000I243750J0D01*
G01*
X133769250Y-59371000D01*
G75*
G02*
X134013000Y-59614750I0J-243750D01*
G01*
X134013000Y-60527250D01*
G75*
G02*
X133769250Y-60771000I-243750J0D01*
G01*
X133281750Y-60771000D01*
G75*
G02*
X133038000Y-60527250I0J243750D01*
G01*
G37*
D13*
X53695600Y-75463400D03*
D14*
X56570600Y-77368400D03*
X56570600Y-76098400D03*
X56570600Y-74828400D03*
X56570600Y-73558400D03*
X50820600Y-73558400D03*
X50820600Y-74828400D03*
X50820600Y-76098400D03*
X50820600Y-77368400D03*
G36*
G01*
X119433186Y-75186000D02*
X119433186Y-76290000D01*
G75*
G02*
X119295186Y-76428000I-138000J0D01*
G01*
X117471186Y-76428000D01*
G75*
G02*
X117333186Y-76290000I0J138000D01*
G01*
X117333186Y-75186000D01*
G75*
G02*
X117471186Y-75048000I138000J0D01*
G01*
X119295186Y-75048000D01*
G75*
G02*
X119433186Y-75186000I0J-138000D01*
G01*
G37*
G36*
G01*
X128533186Y-75186000D02*
X128533186Y-76290000D01*
G75*
G02*
X128395186Y-76428000I-138000J0D01*
G01*
X126571186Y-76428000D01*
G75*
G02*
X126433186Y-76290000I0J138000D01*
G01*
X126433186Y-75186000D01*
G75*
G02*
X126571186Y-75048000I138000J0D01*
G01*
X128395186Y-75048000D01*
G75*
G02*
X128533186Y-75186000I0J-138000D01*
G01*
G37*
G36*
G01*
X119433186Y-79666000D02*
X119433186Y-80770000D01*
G75*
G02*
X119295186Y-80908000I-138000J0D01*
G01*
X117471186Y-80908000D01*
G75*
G02*
X117333186Y-80770000I0J138000D01*
G01*
X117333186Y-79666000D01*
G75*
G02*
X117471186Y-79528000I138000J0D01*
G01*
X119295186Y-79528000D01*
G75*
G02*
X119433186Y-79666000I0J-138000D01*
G01*
G37*
G36*
G01*
X128533186Y-79666000D02*
X128533186Y-80770000D01*
G75*
G02*
X128395186Y-80908000I-138000J0D01*
G01*
X126571186Y-80908000D01*
G75*
G02*
X126433186Y-80770000I0J138000D01*
G01*
X126433186Y-79666000D01*
G75*
G02*
X126571186Y-79528000I138000J0D01*
G01*
X128395186Y-79528000D01*
G75*
G02*
X128533186Y-79666000I0J-138000D01*
G01*
G37*
G36*
G01*
X131163000Y-68147250D02*
X131163000Y-67234750D01*
G75*
G02*
X131406750Y-66991000I243750J0D01*
G01*
X131894250Y-66991000D01*
G75*
G02*
X132138000Y-67234750I0J-243750D01*
G01*
X132138000Y-68147250D01*
G75*
G02*
X131894250Y-68391000I-243750J0D01*
G01*
X131406750Y-68391000D01*
G75*
G02*
X131163000Y-68147250I0J243750D01*
G01*
G37*
G36*
G01*
X133038000Y-68147250D02*
X133038000Y-67234750D01*
G75*
G02*
X133281750Y-66991000I243750J0D01*
G01*
X133769250Y-66991000D01*
G75*
G02*
X134013000Y-67234750I0J-243750D01*
G01*
X134013000Y-68147250D01*
G75*
G02*
X133769250Y-68391000I-243750J0D01*
G01*
X133281750Y-68391000D01*
G75*
G02*
X133038000Y-68147250I0J243750D01*
G01*
G37*
G36*
G01*
X135354000Y-47694000D02*
X135354000Y-46794000D01*
G75*
G02*
X135604000Y-46544000I250000J0D01*
G01*
X136129000Y-46544000D01*
G75*
G02*
X136379000Y-46794000I0J-250000D01*
G01*
X136379000Y-47694000D01*
G75*
G02*
X136129000Y-47944000I-250000J0D01*
G01*
X135604000Y-47944000D01*
G75*
G02*
X135354000Y-47694000I0J250000D01*
G01*
G37*
G36*
G01*
X137179000Y-47694000D02*
X137179000Y-46794000D01*
G75*
G02*
X137429000Y-46544000I250000J0D01*
G01*
X137954000Y-46544000D01*
G75*
G02*
X138204000Y-46794000I0J-250000D01*
G01*
X138204000Y-47694000D01*
G75*
G02*
X137954000Y-47944000I-250000J0D01*
G01*
X137429000Y-47944000D01*
G75*
G02*
X137179000Y-47694000I0J250000D01*
G01*
G37*
G36*
G01*
X79723000Y-42659000D02*
X78773000Y-42659000D01*
G75*
G02*
X78523000Y-42409000I0J250000D01*
G01*
X78523000Y-41909000D01*
G75*
G02*
X78773000Y-41659000I250000J0D01*
G01*
X79723000Y-41659000D01*
G75*
G02*
X79973000Y-41909000I0J-250000D01*
G01*
X79973000Y-42409000D01*
G75*
G02*
X79723000Y-42659000I-250000J0D01*
G01*
G37*
G36*
G01*
X79723000Y-40759000D02*
X78773000Y-40759000D01*
G75*
G02*
X78523000Y-40509000I0J250000D01*
G01*
X78523000Y-40009000D01*
G75*
G02*
X78773000Y-39759000I250000J0D01*
G01*
X79723000Y-39759000D01*
G75*
G02*
X79973000Y-40009000I0J-250000D01*
G01*
X79973000Y-40509000D01*
G75*
G02*
X79723000Y-40759000I-250000J0D01*
G01*
G37*
G36*
G01*
X129573000Y-86561000D02*
X130523000Y-86561000D01*
G75*
G02*
X130773000Y-86811000I0J-250000D01*
G01*
X130773000Y-87311000D01*
G75*
G02*
X130523000Y-87561000I-250000J0D01*
G01*
X129573000Y-87561000D01*
G75*
G02*
X129323000Y-87311000I0J250000D01*
G01*
X129323000Y-86811000D01*
G75*
G02*
X129573000Y-86561000I250000J0D01*
G01*
G37*
G36*
G01*
X129573000Y-88461000D02*
X130523000Y-88461000D01*
G75*
G02*
X130773000Y-88711000I0J-250000D01*
G01*
X130773000Y-89211000D01*
G75*
G02*
X130523000Y-89461000I-250000J0D01*
G01*
X129573000Y-89461000D01*
G75*
G02*
X129323000Y-89211000I0J250000D01*
G01*
X129323000Y-88711000D01*
G75*
G02*
X129573000Y-88461000I250000J0D01*
G01*
G37*
G36*
G01*
X65717000Y-39784000D02*
X66617000Y-39784000D01*
G75*
G02*
X66867000Y-40034000I0J-250000D01*
G01*
X66867000Y-40559000D01*
G75*
G02*
X66617000Y-40809000I-250000J0D01*
G01*
X65717000Y-40809000D01*
G75*
G02*
X65467000Y-40559000I0J250000D01*
G01*
X65467000Y-40034000D01*
G75*
G02*
X65717000Y-39784000I250000J0D01*
G01*
G37*
G36*
G01*
X65717000Y-41609000D02*
X66617000Y-41609000D01*
G75*
G02*
X66867000Y-41859000I0J-250000D01*
G01*
X66867000Y-42384000D01*
G75*
G02*
X66617000Y-42634000I-250000J0D01*
G01*
X65717000Y-42634000D01*
G75*
G02*
X65467000Y-42384000I0J250000D01*
G01*
X65467000Y-41859000D01*
G75*
G02*
X65717000Y-41609000I250000J0D01*
G01*
G37*
G36*
G01*
X125829000Y-46805000D02*
X125829000Y-45905000D01*
G75*
G02*
X126079000Y-45655000I250000J0D01*
G01*
X126604000Y-45655000D01*
G75*
G02*
X126854000Y-45905000I0J-250000D01*
G01*
X126854000Y-46805000D01*
G75*
G02*
X126604000Y-47055000I-250000J0D01*
G01*
X126079000Y-47055000D01*
G75*
G02*
X125829000Y-46805000I0J250000D01*
G01*
G37*
G36*
G01*
X127654000Y-46805000D02*
X127654000Y-45905000D01*
G75*
G02*
X127904000Y-45655000I250000J0D01*
G01*
X128429000Y-45655000D01*
G75*
G02*
X128679000Y-45905000I0J-250000D01*
G01*
X128679000Y-46805000D01*
G75*
G02*
X128429000Y-47055000I-250000J0D01*
G01*
X127904000Y-47055000D01*
G75*
G02*
X127654000Y-46805000I0J250000D01*
G01*
G37*
G36*
G01*
X131163000Y-57987250D02*
X131163000Y-57074750D01*
G75*
G02*
X131406750Y-56831000I243750J0D01*
G01*
X131894250Y-56831000D01*
G75*
G02*
X132138000Y-57074750I0J-243750D01*
G01*
X132138000Y-57987250D01*
G75*
G02*
X131894250Y-58231000I-243750J0D01*
G01*
X131406750Y-58231000D01*
G75*
G02*
X131163000Y-57987250I0J243750D01*
G01*
G37*
G36*
G01*
X133038000Y-57987250D02*
X133038000Y-57074750D01*
G75*
G02*
X133281750Y-56831000I243750J0D01*
G01*
X133769250Y-56831000D01*
G75*
G02*
X134013000Y-57074750I0J-243750D01*
G01*
X134013000Y-57987250D01*
G75*
G02*
X133769250Y-58231000I-243750J0D01*
G01*
X133281750Y-58231000D01*
G75*
G02*
X133038000Y-57987250I0J243750D01*
G01*
G37*
D15*
X83820000Y-67310000D03*
G36*
X81395000Y-71260000D02*
G01*
X81395000Y-68660000D01*
X81920000Y-68135000D01*
X81920000Y-66660000D01*
X82720000Y-66660000D01*
X82720000Y-68135000D01*
X83245000Y-68660000D01*
X83245000Y-71260000D01*
X81395000Y-71260000D01*
G37*
X80820000Y-67310000D03*
G36*
G01*
X137907750Y-41685500D02*
X136957750Y-41685500D01*
G75*
G02*
X136707750Y-41435500I0J250000D01*
G01*
X136707750Y-40935500D01*
G75*
G02*
X136957750Y-40685500I250000J0D01*
G01*
X137907750Y-40685500D01*
G75*
G02*
X138157750Y-40935500I0J-250000D01*
G01*
X138157750Y-41435500D01*
G75*
G02*
X137907750Y-41685500I-250000J0D01*
G01*
G37*
G36*
G01*
X137907750Y-39785500D02*
X136957750Y-39785500D01*
G75*
G02*
X136707750Y-39535500I0J250000D01*
G01*
X136707750Y-39035500D01*
G75*
G02*
X136957750Y-38785500I250000J0D01*
G01*
X137907750Y-38785500D01*
G75*
G02*
X138157750Y-39035500I0J-250000D01*
G01*
X138157750Y-39535500D01*
G75*
G02*
X137907750Y-39785500I-250000J0D01*
G01*
G37*
D12*
X81983813Y-86233000D03*
X81983813Y-83693000D03*
X81983813Y-81153000D03*
X86423815Y-86233000D03*
X86423815Y-83693000D03*
X86423815Y-81153000D03*
G36*
G01*
X37921250Y-34826000D02*
X37008750Y-34826000D01*
G75*
G02*
X36765000Y-34582250I0J243750D01*
G01*
X36765000Y-34094750D01*
G75*
G02*
X37008750Y-33851000I243750J0D01*
G01*
X37921250Y-33851000D01*
G75*
G02*
X38165000Y-34094750I0J-243750D01*
G01*
X38165000Y-34582250D01*
G75*
G02*
X37921250Y-34826000I-243750J0D01*
G01*
G37*
G36*
G01*
X37921250Y-32951000D02*
X37008750Y-32951000D01*
G75*
G02*
X36765000Y-32707250I0J243750D01*
G01*
X36765000Y-32219750D01*
G75*
G02*
X37008750Y-31976000I243750J0D01*
G01*
X37921250Y-31976000D01*
G75*
G02*
X38165000Y-32219750I0J-243750D01*
G01*
X38165000Y-32707250D01*
G75*
G02*
X37921250Y-32951000I-243750J0D01*
G01*
G37*
G36*
G01*
X131163000Y-55193250D02*
X131163000Y-54280750D01*
G75*
G02*
X131406750Y-54037000I243750J0D01*
G01*
X131894250Y-54037000D01*
G75*
G02*
X132138000Y-54280750I0J-243750D01*
G01*
X132138000Y-55193250D01*
G75*
G02*
X131894250Y-55437000I-243750J0D01*
G01*
X131406750Y-55437000D01*
G75*
G02*
X131163000Y-55193250I0J243750D01*
G01*
G37*
G36*
G01*
X133038000Y-55193250D02*
X133038000Y-54280750D01*
G75*
G02*
X133281750Y-54037000I243750J0D01*
G01*
X133769250Y-54037000D01*
G75*
G02*
X134013000Y-54280750I0J-243750D01*
G01*
X134013000Y-55193250D01*
G75*
G02*
X133769250Y-55437000I-243750J0D01*
G01*
X133281750Y-55437000D01*
G75*
G02*
X133038000Y-55193250I0J243750D01*
G01*
G37*
G36*
G01*
X86393000Y-57732000D02*
X87343000Y-57732000D01*
G75*
G02*
X87593000Y-57982000I0J-250000D01*
G01*
X87593000Y-58482000D01*
G75*
G02*
X87343000Y-58732000I-250000J0D01*
G01*
X86393000Y-58732000D01*
G75*
G02*
X86143000Y-58482000I0J250000D01*
G01*
X86143000Y-57982000D01*
G75*
G02*
X86393000Y-57732000I250000J0D01*
G01*
G37*
G36*
G01*
X86393000Y-59632000D02*
X87343000Y-59632000D01*
G75*
G02*
X87593000Y-59882000I0J-250000D01*
G01*
X87593000Y-60382000D01*
G75*
G02*
X87343000Y-60632000I-250000J0D01*
G01*
X86393000Y-60632000D01*
G75*
G02*
X86143000Y-60382000I0J250000D01*
G01*
X86143000Y-59882000D01*
G75*
G02*
X86393000Y-59632000I250000J0D01*
G01*
G37*
G36*
G01*
X71219000Y-81349000D02*
X71219000Y-80449000D01*
G75*
G02*
X71469000Y-80199000I250000J0D01*
G01*
X71994000Y-80199000D01*
G75*
G02*
X72244000Y-80449000I0J-250000D01*
G01*
X72244000Y-81349000D01*
G75*
G02*
X71994000Y-81599000I-250000J0D01*
G01*
X71469000Y-81599000D01*
G75*
G02*
X71219000Y-81349000I0J250000D01*
G01*
G37*
G36*
G01*
X73044000Y-81349000D02*
X73044000Y-80449000D01*
G75*
G02*
X73294000Y-80199000I250000J0D01*
G01*
X73819000Y-80199000D01*
G75*
G02*
X74069000Y-80449000I0J-250000D01*
G01*
X74069000Y-81349000D01*
G75*
G02*
X73819000Y-81599000I-250000J0D01*
G01*
X73294000Y-81599000D01*
G75*
G02*
X73044000Y-81349000I0J250000D01*
G01*
G37*
G36*
G01*
X144838000Y-32738000D02*
X145738000Y-32738000D01*
G75*
G02*
X145988000Y-32988000I0J-250000D01*
G01*
X145988000Y-33513000D01*
G75*
G02*
X145738000Y-33763000I-250000J0D01*
G01*
X144838000Y-33763000D01*
G75*
G02*
X144588000Y-33513000I0J250000D01*
G01*
X144588000Y-32988000D01*
G75*
G02*
X144838000Y-32738000I250000J0D01*
G01*
G37*
G36*
G01*
X144838000Y-34563000D02*
X145738000Y-34563000D01*
G75*
G02*
X145988000Y-34813000I0J-250000D01*
G01*
X145988000Y-35338000D01*
G75*
G02*
X145738000Y-35588000I-250000J0D01*
G01*
X144838000Y-35588000D01*
G75*
G02*
X144588000Y-35338000I0J250000D01*
G01*
X144588000Y-34813000D01*
G75*
G02*
X144838000Y-34563000I250000J0D01*
G01*
G37*
G36*
G01*
X142593000Y-80466250D02*
X142593000Y-79553750D01*
G75*
G02*
X142836750Y-79310000I243750J0D01*
G01*
X143324250Y-79310000D01*
G75*
G02*
X143568000Y-79553750I0J-243750D01*
G01*
X143568000Y-80466250D01*
G75*
G02*
X143324250Y-80710000I-243750J0D01*
G01*
X142836750Y-80710000D01*
G75*
G02*
X142593000Y-80466250I0J243750D01*
G01*
G37*
G36*
G01*
X144468000Y-80466250D02*
X144468000Y-79553750D01*
G75*
G02*
X144711750Y-79310000I243750J0D01*
G01*
X145199250Y-79310000D01*
G75*
G02*
X145443000Y-79553750I0J-243750D01*
G01*
X145443000Y-80466250D01*
G75*
G02*
X145199250Y-80710000I-243750J0D01*
G01*
X144711750Y-80710000D01*
G75*
G02*
X144468000Y-80466250I0J243750D01*
G01*
G37*
G36*
G01*
X90142000Y-35508250D02*
X90142000Y-34595750D01*
G75*
G02*
X90385750Y-34352000I243750J0D01*
G01*
X90873250Y-34352000D01*
G75*
G02*
X91117000Y-34595750I0J-243750D01*
G01*
X91117000Y-35508250D01*
G75*
G02*
X90873250Y-35752000I-243750J0D01*
G01*
X90385750Y-35752000D01*
G75*
G02*
X90142000Y-35508250I0J243750D01*
G01*
G37*
G36*
G01*
X92017000Y-35508250D02*
X92017000Y-34595750D01*
G75*
G02*
X92260750Y-34352000I243750J0D01*
G01*
X92748250Y-34352000D01*
G75*
G02*
X92992000Y-34595750I0J-243750D01*
G01*
X92992000Y-35508250D01*
G75*
G02*
X92748250Y-35752000I-243750J0D01*
G01*
X92260750Y-35752000D01*
G75*
G02*
X92017000Y-35508250I0J243750D01*
G01*
G37*
G36*
G01*
X79905000Y-24616000D02*
X79905000Y-25866000D01*
G75*
G02*
X79755000Y-26016000I-150000J0D01*
G01*
X79455000Y-26016000D01*
G75*
G02*
X79305000Y-25866000I0J150000D01*
G01*
X79305000Y-24616000D01*
G75*
G02*
X79455000Y-24466000I150000J0D01*
G01*
X79755000Y-24466000D01*
G75*
G02*
X79905000Y-24616000I0J-150000D01*
G01*
G37*
G36*
G01*
X78905000Y-24616000D02*
X78905000Y-25866000D01*
G75*
G02*
X78755000Y-26016000I-150000J0D01*
G01*
X78455000Y-26016000D01*
G75*
G02*
X78305000Y-25866000I0J150000D01*
G01*
X78305000Y-24616000D01*
G75*
G02*
X78455000Y-24466000I150000J0D01*
G01*
X78755000Y-24466000D01*
G75*
G02*
X78905000Y-24616000I0J-150000D01*
G01*
G37*
G36*
G01*
X77905000Y-24616000D02*
X77905000Y-25866000D01*
G75*
G02*
X77755000Y-26016000I-150000J0D01*
G01*
X77455000Y-26016000D01*
G75*
G02*
X77305000Y-25866000I0J150000D01*
G01*
X77305000Y-24616000D01*
G75*
G02*
X77455000Y-24466000I150000J0D01*
G01*
X77755000Y-24466000D01*
G75*
G02*
X77905000Y-24616000I0J-150000D01*
G01*
G37*
G36*
G01*
X76905000Y-24616000D02*
X76905000Y-25866000D01*
G75*
G02*
X76755000Y-26016000I-150000J0D01*
G01*
X76455000Y-26016000D01*
G75*
G02*
X76305000Y-25866000I0J150000D01*
G01*
X76305000Y-24616000D01*
G75*
G02*
X76455000Y-24466000I150000J0D01*
G01*
X76755000Y-24466000D01*
G75*
G02*
X76905000Y-24616000I0J-150000D01*
G01*
G37*
G36*
G01*
X81505000Y-20716000D02*
X81505000Y-22016000D01*
G75*
G02*
X81255000Y-22266000I-250000J0D01*
G01*
X80555000Y-22266000D01*
G75*
G02*
X80305000Y-22016000I0J250000D01*
G01*
X80305000Y-20716000D01*
G75*
G02*
X80555000Y-20466000I250000J0D01*
G01*
X81255000Y-20466000D01*
G75*
G02*
X81505000Y-20716000I0J-250000D01*
G01*
G37*
G36*
G01*
X75905000Y-20716000D02*
X75905000Y-22016000D01*
G75*
G02*
X75655000Y-22266000I-250000J0D01*
G01*
X74955000Y-22266000D01*
G75*
G02*
X74705000Y-22016000I0J250000D01*
G01*
X74705000Y-20716000D01*
G75*
G02*
X74955000Y-20466000I250000J0D01*
G01*
X75655000Y-20466000D01*
G75*
G02*
X75905000Y-20716000I0J-250000D01*
G01*
G37*
G36*
G01*
X112428000Y-63320000D02*
X113378000Y-63320000D01*
G75*
G02*
X113628000Y-63570000I0J-250000D01*
G01*
X113628000Y-64070000D01*
G75*
G02*
X113378000Y-64320000I-250000J0D01*
G01*
X112428000Y-64320000D01*
G75*
G02*
X112178000Y-64070000I0J250000D01*
G01*
X112178000Y-63570000D01*
G75*
G02*
X112428000Y-63320000I250000J0D01*
G01*
G37*
G36*
G01*
X112428000Y-65220000D02*
X113378000Y-65220000D01*
G75*
G02*
X113628000Y-65470000I0J-250000D01*
G01*
X113628000Y-65970000D01*
G75*
G02*
X113378000Y-66220000I-250000J0D01*
G01*
X112428000Y-66220000D01*
G75*
G02*
X112178000Y-65970000I0J250000D01*
G01*
X112178000Y-65470000D01*
G75*
G02*
X112428000Y-65220000I250000J0D01*
G01*
G37*
G36*
G01*
X62964000Y-81355250D02*
X62964000Y-80442750D01*
G75*
G02*
X63207750Y-80199000I243750J0D01*
G01*
X63695250Y-80199000D01*
G75*
G02*
X63939000Y-80442750I0J-243750D01*
G01*
X63939000Y-81355250D01*
G75*
G02*
X63695250Y-81599000I-243750J0D01*
G01*
X63207750Y-81599000D01*
G75*
G02*
X62964000Y-81355250I0J243750D01*
G01*
G37*
G36*
G01*
X64839000Y-81355250D02*
X64839000Y-80442750D01*
G75*
G02*
X65082750Y-80199000I243750J0D01*
G01*
X65570250Y-80199000D01*
G75*
G02*
X65814000Y-80442750I0J-243750D01*
G01*
X65814000Y-81355250D01*
G75*
G02*
X65570250Y-81599000I-243750J0D01*
G01*
X65082750Y-81599000D01*
G75*
G02*
X64839000Y-81355250I0J243750D01*
G01*
G37*
G36*
G01*
X140053000Y-48202000D02*
X140053000Y-47302000D01*
G75*
G02*
X140303000Y-47052000I250000J0D01*
G01*
X140828000Y-47052000D01*
G75*
G02*
X141078000Y-47302000I0J-250000D01*
G01*
X141078000Y-48202000D01*
G75*
G02*
X140828000Y-48452000I-250000J0D01*
G01*
X140303000Y-48452000D01*
G75*
G02*
X140053000Y-48202000I0J250000D01*
G01*
G37*
G36*
G01*
X141878000Y-48202000D02*
X141878000Y-47302000D01*
G75*
G02*
X142128000Y-47052000I250000J0D01*
G01*
X142653000Y-47052000D01*
G75*
G02*
X142903000Y-47302000I0J-250000D01*
G01*
X142903000Y-48202000D01*
G75*
G02*
X142653000Y-48452000I-250000J0D01*
G01*
X142128000Y-48452000D01*
G75*
G02*
X141878000Y-48202000I0J250000D01*
G01*
G37*
G36*
G01*
X114963000Y-57335000D02*
X114963000Y-58235000D01*
G75*
G02*
X114713000Y-58485000I-250000J0D01*
G01*
X114188000Y-58485000D01*
G75*
G02*
X113938000Y-58235000I0J250000D01*
G01*
X113938000Y-57335000D01*
G75*
G02*
X114188000Y-57085000I250000J0D01*
G01*
X114713000Y-57085000D01*
G75*
G02*
X114963000Y-57335000I0J-250000D01*
G01*
G37*
G36*
G01*
X113138000Y-57335000D02*
X113138000Y-58235000D01*
G75*
G02*
X112888000Y-58485000I-250000J0D01*
G01*
X112363000Y-58485000D01*
G75*
G02*
X112113000Y-58235000I0J250000D01*
G01*
X112113000Y-57335000D01*
G75*
G02*
X112363000Y-57085000I250000J0D01*
G01*
X112888000Y-57085000D01*
G75*
G02*
X113138000Y-57335000I0J-250000D01*
G01*
G37*
G36*
G01*
X115219186Y-86561000D02*
X116169186Y-86561000D01*
G75*
G02*
X116419186Y-86811000I0J-250000D01*
G01*
X116419186Y-87311000D01*
G75*
G02*
X116169186Y-87561000I-250000J0D01*
G01*
X115219186Y-87561000D01*
G75*
G02*
X114969186Y-87311000I0J250000D01*
G01*
X114969186Y-86811000D01*
G75*
G02*
X115219186Y-86561000I250000J0D01*
G01*
G37*
G36*
G01*
X115219186Y-88461000D02*
X116169186Y-88461000D01*
G75*
G02*
X116419186Y-88711000I0J-250000D01*
G01*
X116419186Y-89211000D01*
G75*
G02*
X116169186Y-89461000I-250000J0D01*
G01*
X115219186Y-89461000D01*
G75*
G02*
X114969186Y-89211000I0J250000D01*
G01*
X114969186Y-88711000D01*
G75*
G02*
X115219186Y-88461000I250000J0D01*
G01*
G37*
G36*
G01*
X142062750Y-38810500D02*
X142962750Y-38810500D01*
G75*
G02*
X143212750Y-39060500I0J-250000D01*
G01*
X143212750Y-39585500D01*
G75*
G02*
X142962750Y-39835500I-250000J0D01*
G01*
X142062750Y-39835500D01*
G75*
G02*
X141812750Y-39585500I0J250000D01*
G01*
X141812750Y-39060500D01*
G75*
G02*
X142062750Y-38810500I250000J0D01*
G01*
G37*
G36*
G01*
X142062750Y-40635500D02*
X142962750Y-40635500D01*
G75*
G02*
X143212750Y-40885500I0J-250000D01*
G01*
X143212750Y-41410500D01*
G75*
G02*
X142962750Y-41660500I-250000J0D01*
G01*
X142062750Y-41660500D01*
G75*
G02*
X141812750Y-41410500I0J250000D01*
G01*
X141812750Y-40885500D01*
G75*
G02*
X142062750Y-40635500I250000J0D01*
G01*
G37*
G36*
G01*
X131163000Y-70687250D02*
X131163000Y-69774750D01*
G75*
G02*
X131406750Y-69531000I243750J0D01*
G01*
X131894250Y-69531000D01*
G75*
G02*
X132138000Y-69774750I0J-243750D01*
G01*
X132138000Y-70687250D01*
G75*
G02*
X131894250Y-70931000I-243750J0D01*
G01*
X131406750Y-70931000D01*
G75*
G02*
X131163000Y-70687250I0J243750D01*
G01*
G37*
G36*
G01*
X133038000Y-70687250D02*
X133038000Y-69774750D01*
G75*
G02*
X133281750Y-69531000I243750J0D01*
G01*
X133769250Y-69531000D01*
G75*
G02*
X134013000Y-69774750I0J-243750D01*
G01*
X134013000Y-70687250D01*
G75*
G02*
X133769250Y-70931000I-243750J0D01*
G01*
X133281750Y-70931000D01*
G75*
G02*
X133038000Y-70687250I0J243750D01*
G01*
G37*
G36*
G01*
X131163000Y-65607250D02*
X131163000Y-64694750D01*
G75*
G02*
X131406750Y-64451000I243750J0D01*
G01*
X131894250Y-64451000D01*
G75*
G02*
X132138000Y-64694750I0J-243750D01*
G01*
X132138000Y-65607250D01*
G75*
G02*
X131894250Y-65851000I-243750J0D01*
G01*
X131406750Y-65851000D01*
G75*
G02*
X131163000Y-65607250I0J243750D01*
G01*
G37*
G36*
G01*
X133038000Y-65607250D02*
X133038000Y-64694750D01*
G75*
G02*
X133281750Y-64451000I243750J0D01*
G01*
X133769250Y-64451000D01*
G75*
G02*
X134013000Y-64694750I0J-243750D01*
G01*
X134013000Y-65607250D01*
G75*
G02*
X133769250Y-65851000I-243750J0D01*
G01*
X133281750Y-65851000D01*
G75*
G02*
X133038000Y-65607250I0J243750D01*
G01*
G37*
G36*
G01*
X84005000Y-39784000D02*
X84905000Y-39784000D01*
G75*
G02*
X85155000Y-40034000I0J-250000D01*
G01*
X85155000Y-40559000D01*
G75*
G02*
X84905000Y-40809000I-250000J0D01*
G01*
X84005000Y-40809000D01*
G75*
G02*
X83755000Y-40559000I0J250000D01*
G01*
X83755000Y-40034000D01*
G75*
G02*
X84005000Y-39784000I250000J0D01*
G01*
G37*
G36*
G01*
X84005000Y-41609000D02*
X84905000Y-41609000D01*
G75*
G02*
X85155000Y-41859000I0J-250000D01*
G01*
X85155000Y-42384000D01*
G75*
G02*
X84905000Y-42634000I-250000J0D01*
G01*
X84005000Y-42634000D01*
G75*
G02*
X83755000Y-42384000I0J250000D01*
G01*
X83755000Y-41859000D01*
G75*
G02*
X84005000Y-41609000I250000J0D01*
G01*
G37*
G36*
G01*
X58315000Y-24616000D02*
X58315000Y-25866000D01*
G75*
G02*
X58165000Y-26016000I-150000J0D01*
G01*
X57865000Y-26016000D01*
G75*
G02*
X57715000Y-25866000I0J150000D01*
G01*
X57715000Y-24616000D01*
G75*
G02*
X57865000Y-24466000I150000J0D01*
G01*
X58165000Y-24466000D01*
G75*
G02*
X58315000Y-24616000I0J-150000D01*
G01*
G37*
G36*
G01*
X57315000Y-24616000D02*
X57315000Y-25866000D01*
G75*
G02*
X57165000Y-26016000I-150000J0D01*
G01*
X56865000Y-26016000D01*
G75*
G02*
X56715000Y-25866000I0J150000D01*
G01*
X56715000Y-24616000D01*
G75*
G02*
X56865000Y-24466000I150000J0D01*
G01*
X57165000Y-24466000D01*
G75*
G02*
X57315000Y-24616000I0J-150000D01*
G01*
G37*
G36*
G01*
X56315000Y-24616000D02*
X56315000Y-25866000D01*
G75*
G02*
X56165000Y-26016000I-150000J0D01*
G01*
X55865000Y-26016000D01*
G75*
G02*
X55715000Y-25866000I0J150000D01*
G01*
X55715000Y-24616000D01*
G75*
G02*
X55865000Y-24466000I150000J0D01*
G01*
X56165000Y-24466000D01*
G75*
G02*
X56315000Y-24616000I0J-150000D01*
G01*
G37*
G36*
G01*
X55315000Y-24616000D02*
X55315000Y-25866000D01*
G75*
G02*
X55165000Y-26016000I-150000J0D01*
G01*
X54865000Y-26016000D01*
G75*
G02*
X54715000Y-25866000I0J150000D01*
G01*
X54715000Y-24616000D01*
G75*
G02*
X54865000Y-24466000I150000J0D01*
G01*
X55165000Y-24466000D01*
G75*
G02*
X55315000Y-24616000I0J-150000D01*
G01*
G37*
G36*
G01*
X59915000Y-20716000D02*
X59915000Y-22016000D01*
G75*
G02*
X59665000Y-22266000I-250000J0D01*
G01*
X58965000Y-22266000D01*
G75*
G02*
X58715000Y-22016000I0J250000D01*
G01*
X58715000Y-20716000D01*
G75*
G02*
X58965000Y-20466000I250000J0D01*
G01*
X59665000Y-20466000D01*
G75*
G02*
X59915000Y-20716000I0J-250000D01*
G01*
G37*
G36*
G01*
X54315000Y-20716000D02*
X54315000Y-22016000D01*
G75*
G02*
X54065000Y-22266000I-250000J0D01*
G01*
X53365000Y-22266000D01*
G75*
G02*
X53115000Y-22016000I0J250000D01*
G01*
X53115000Y-20716000D01*
G75*
G02*
X53365000Y-20466000I250000J0D01*
G01*
X54065000Y-20466000D01*
G75*
G02*
X54315000Y-20716000I0J-250000D01*
G01*
G37*
G36*
G01*
X69878000Y-80442750D02*
X69878000Y-81355250D01*
G75*
G02*
X69634250Y-81599000I-243750J0D01*
G01*
X69146750Y-81599000D01*
G75*
G02*
X68903000Y-81355250I0J243750D01*
G01*
X68903000Y-80442750D01*
G75*
G02*
X69146750Y-80199000I243750J0D01*
G01*
X69634250Y-80199000D01*
G75*
G02*
X69878000Y-80442750I0J-243750D01*
G01*
G37*
G36*
G01*
X68003000Y-80442750D02*
X68003000Y-81355250D01*
G75*
G02*
X67759250Y-81599000I-243750J0D01*
G01*
X67271750Y-81599000D01*
G75*
G02*
X67028000Y-81355250I0J243750D01*
G01*
X67028000Y-80442750D01*
G75*
G02*
X67271750Y-80199000I243750J0D01*
G01*
X67759250Y-80199000D01*
G75*
G02*
X68003000Y-80442750I0J-243750D01*
G01*
G37*
D11*
X41403000Y-80137000D03*
X44703000Y-80137000D03*
G36*
G01*
X134442750Y-38810500D02*
X135342750Y-38810500D01*
G75*
G02*
X135592750Y-39060500I0J-250000D01*
G01*
X135592750Y-39585500D01*
G75*
G02*
X135342750Y-39835500I-250000J0D01*
G01*
X134442750Y-39835500D01*
G75*
G02*
X134192750Y-39585500I0J250000D01*
G01*
X134192750Y-39060500D01*
G75*
G02*
X134442750Y-38810500I250000J0D01*
G01*
G37*
G36*
G01*
X134442750Y-40635500D02*
X135342750Y-40635500D01*
G75*
G02*
X135592750Y-40885500I0J-250000D01*
G01*
X135592750Y-41410500D01*
G75*
G02*
X135342750Y-41660500I-250000J0D01*
G01*
X134442750Y-41660500D01*
G75*
G02*
X134192750Y-41410500I0J250000D01*
G01*
X134192750Y-40885500D01*
G75*
G02*
X134442750Y-40635500I250000J0D01*
G01*
G37*
G36*
G01*
X110813000Y-58448000D02*
X109913000Y-58448000D01*
G75*
G02*
X109663000Y-58198000I0J250000D01*
G01*
X109663000Y-57673000D01*
G75*
G02*
X109913000Y-57423000I250000J0D01*
G01*
X110813000Y-57423000D01*
G75*
G02*
X111063000Y-57673000I0J-250000D01*
G01*
X111063000Y-58198000D01*
G75*
G02*
X110813000Y-58448000I-250000J0D01*
G01*
G37*
G36*
G01*
X110813000Y-56623000D02*
X109913000Y-56623000D01*
G75*
G02*
X109663000Y-56373000I0J250000D01*
G01*
X109663000Y-55848000D01*
G75*
G02*
X109913000Y-55598000I250000J0D01*
G01*
X110813000Y-55598000D01*
G75*
G02*
X111063000Y-55848000I0J-250000D01*
G01*
X111063000Y-56373000D01*
G75*
G02*
X110813000Y-56623000I-250000J0D01*
G01*
G37*
X44703000Y-76708000D03*
X41403000Y-76708000D03*
G36*
G01*
X47757000Y-62950000D02*
X47757000Y-64050000D01*
G75*
G02*
X47507000Y-64300000I-250000J0D01*
G01*
X44507000Y-64300000D01*
G75*
G02*
X44257000Y-64050000I0J250000D01*
G01*
X44257000Y-62950000D01*
G75*
G02*
X44507000Y-62700000I250000J0D01*
G01*
X47507000Y-62700000D01*
G75*
G02*
X47757000Y-62950000I0J-250000D01*
G01*
G37*
G36*
G01*
X42357000Y-62950000D02*
X42357000Y-64050000D01*
G75*
G02*
X42107000Y-64300000I-250000J0D01*
G01*
X39107000Y-64300000D01*
G75*
G02*
X38857000Y-64050000I0J250000D01*
G01*
X38857000Y-62950000D01*
G75*
G02*
X39107000Y-62700000I250000J0D01*
G01*
X42107000Y-62700000D01*
G75*
G02*
X42357000Y-62950000I0J-250000D01*
G01*
G37*
G36*
G01*
X131902750Y-38810500D02*
X132802750Y-38810500D01*
G75*
G02*
X133052750Y-39060500I0J-250000D01*
G01*
X133052750Y-39585500D01*
G75*
G02*
X132802750Y-39835500I-250000J0D01*
G01*
X131902750Y-39835500D01*
G75*
G02*
X131652750Y-39585500I0J250000D01*
G01*
X131652750Y-39060500D01*
G75*
G02*
X131902750Y-38810500I250000J0D01*
G01*
G37*
G36*
G01*
X131902750Y-40635500D02*
X132802750Y-40635500D01*
G75*
G02*
X133052750Y-40885500I0J-250000D01*
G01*
X133052750Y-41410500D01*
G75*
G02*
X132802750Y-41660500I-250000J0D01*
G01*
X131902750Y-41660500D01*
G75*
G02*
X131652750Y-41410500I0J250000D01*
G01*
X131652750Y-40885500D01*
G75*
G02*
X131902750Y-40635500I250000J0D01*
G01*
G37*
G36*
G01*
X108384000Y-56294000D02*
X108384000Y-57244000D01*
G75*
G02*
X108134000Y-57494000I-250000J0D01*
G01*
X107634000Y-57494000D01*
G75*
G02*
X107384000Y-57244000I0J250000D01*
G01*
X107384000Y-56294000D01*
G75*
G02*
X107634000Y-56044000I250000J0D01*
G01*
X108134000Y-56044000D01*
G75*
G02*
X108384000Y-56294000I0J-250000D01*
G01*
G37*
G36*
G01*
X106484000Y-56294000D02*
X106484000Y-57244000D01*
G75*
G02*
X106234000Y-57494000I-250000J0D01*
G01*
X105734000Y-57494000D01*
G75*
G02*
X105484000Y-57244000I0J250000D01*
G01*
X105484000Y-56294000D01*
G75*
G02*
X105734000Y-56044000I250000J0D01*
G01*
X106234000Y-56044000D01*
G75*
G02*
X106484000Y-56294000I0J-250000D01*
G01*
G37*
G36*
G01*
X49376200Y-57569000D02*
X49376200Y-57869000D01*
G75*
G02*
X49226200Y-58019000I-150000J0D01*
G01*
X48051200Y-58019000D01*
G75*
G02*
X47901200Y-57869000I0J150000D01*
G01*
X47901200Y-57569000D01*
G75*
G02*
X48051200Y-57419000I150000J0D01*
G01*
X49226200Y-57419000D01*
G75*
G02*
X49376200Y-57569000I0J-150000D01*
G01*
G37*
G36*
G01*
X49376200Y-55669000D02*
X49376200Y-55969000D01*
G75*
G02*
X49226200Y-56119000I-150000J0D01*
G01*
X48051200Y-56119000D01*
G75*
G02*
X47901200Y-55969000I0J150000D01*
G01*
X47901200Y-55669000D01*
G75*
G02*
X48051200Y-55519000I150000J0D01*
G01*
X49226200Y-55519000D01*
G75*
G02*
X49376200Y-55669000I0J-150000D01*
G01*
G37*
G36*
G01*
X47501200Y-56619000D02*
X47501200Y-56919000D01*
G75*
G02*
X47351200Y-57069000I-150000J0D01*
G01*
X46176200Y-57069000D01*
G75*
G02*
X46026200Y-56919000I0J150000D01*
G01*
X46026200Y-56619000D01*
G75*
G02*
X46176200Y-56469000I150000J0D01*
G01*
X47351200Y-56469000D01*
G75*
G02*
X47501200Y-56619000I0J-150000D01*
G01*
G37*
G36*
G01*
X115219186Y-76401000D02*
X116169186Y-76401000D01*
G75*
G02*
X116419186Y-76651000I0J-250000D01*
G01*
X116419186Y-77151000D01*
G75*
G02*
X116169186Y-77401000I-250000J0D01*
G01*
X115219186Y-77401000D01*
G75*
G02*
X114969186Y-77151000I0J250000D01*
G01*
X114969186Y-76651000D01*
G75*
G02*
X115219186Y-76401000I250000J0D01*
G01*
G37*
G36*
G01*
X115219186Y-78301000D02*
X116169186Y-78301000D01*
G75*
G02*
X116419186Y-78551000I0J-250000D01*
G01*
X116419186Y-79051000D01*
G75*
G02*
X116169186Y-79301000I-250000J0D01*
G01*
X115219186Y-79301000D01*
G75*
G02*
X114969186Y-79051000I0J250000D01*
G01*
X114969186Y-78551000D01*
G75*
G02*
X115219186Y-78301000I250000J0D01*
G01*
G37*
G36*
G01*
X46835000Y-81380650D02*
X46835000Y-80468150D01*
G75*
G02*
X47078750Y-80224400I243750J0D01*
G01*
X47566250Y-80224400D01*
G75*
G02*
X47810000Y-80468150I0J-243750D01*
G01*
X47810000Y-81380650D01*
G75*
G02*
X47566250Y-81624400I-243750J0D01*
G01*
X47078750Y-81624400D01*
G75*
G02*
X46835000Y-81380650I0J243750D01*
G01*
G37*
G36*
G01*
X48710000Y-81380650D02*
X48710000Y-80468150D01*
G75*
G02*
X48953750Y-80224400I243750J0D01*
G01*
X49441250Y-80224400D01*
G75*
G02*
X49685000Y-80468150I0J-243750D01*
G01*
X49685000Y-81380650D01*
G75*
G02*
X49441250Y-81624400I-243750J0D01*
G01*
X48953750Y-81624400D01*
G75*
G02*
X48710000Y-81380650I0J243750D01*
G01*
G37*
G36*
G01*
X82390000Y-42659000D02*
X81440000Y-42659000D01*
G75*
G02*
X81190000Y-42409000I0J250000D01*
G01*
X81190000Y-41909000D01*
G75*
G02*
X81440000Y-41659000I250000J0D01*
G01*
X82390000Y-41659000D01*
G75*
G02*
X82640000Y-41909000I0J-250000D01*
G01*
X82640000Y-42409000D01*
G75*
G02*
X82390000Y-42659000I-250000J0D01*
G01*
G37*
G36*
G01*
X82390000Y-40759000D02*
X81440000Y-40759000D01*
G75*
G02*
X81190000Y-40509000I0J250000D01*
G01*
X81190000Y-40009000D01*
G75*
G02*
X81440000Y-39759000I250000J0D01*
G01*
X82390000Y-39759000D01*
G75*
G02*
X82640000Y-40009000I0J-250000D01*
G01*
X82640000Y-40509000D01*
G75*
G02*
X82390000Y-40759000I-250000J0D01*
G01*
G37*
G36*
G01*
X75283000Y-65728000D02*
X75283000Y-64828000D01*
G75*
G02*
X75533000Y-64578000I250000J0D01*
G01*
X76058000Y-64578000D01*
G75*
G02*
X76308000Y-64828000I0J-250000D01*
G01*
X76308000Y-65728000D01*
G75*
G02*
X76058000Y-65978000I-250000J0D01*
G01*
X75533000Y-65978000D01*
G75*
G02*
X75283000Y-65728000I0J250000D01*
G01*
G37*
G36*
G01*
X77108000Y-65728000D02*
X77108000Y-64828000D01*
G75*
G02*
X77358000Y-64578000I250000J0D01*
G01*
X77883000Y-64578000D01*
G75*
G02*
X78133000Y-64828000I0J-250000D01*
G01*
X78133000Y-65728000D01*
G75*
G02*
X77883000Y-65978000I-250000J0D01*
G01*
X77358000Y-65978000D01*
G75*
G02*
X77108000Y-65728000I0J250000D01*
G01*
G37*
G36*
G01*
X133703000Y-80466250D02*
X133703000Y-79553750D01*
G75*
G02*
X133946750Y-79310000I243750J0D01*
G01*
X134434250Y-79310000D01*
G75*
G02*
X134678000Y-79553750I0J-243750D01*
G01*
X134678000Y-80466250D01*
G75*
G02*
X134434250Y-80710000I-243750J0D01*
G01*
X133946750Y-80710000D01*
G75*
G02*
X133703000Y-80466250I0J243750D01*
G01*
G37*
G36*
G01*
X135578000Y-80466250D02*
X135578000Y-79553750D01*
G75*
G02*
X135821750Y-79310000I243750J0D01*
G01*
X136309250Y-79310000D01*
G75*
G02*
X136553000Y-79553750I0J-243750D01*
G01*
X136553000Y-80466250D01*
G75*
G02*
X136309250Y-80710000I-243750J0D01*
G01*
X135821750Y-80710000D01*
G75*
G02*
X135578000Y-80466250I0J243750D01*
G01*
G37*
G36*
G01*
X104416000Y-84112000D02*
X104416000Y-84412000D01*
G75*
G02*
X104266000Y-84562000I-150000J0D01*
G01*
X103241000Y-84562000D01*
G75*
G02*
X103091000Y-84412000I0J150000D01*
G01*
X103091000Y-84112000D01*
G75*
G02*
X103241000Y-83962000I150000J0D01*
G01*
X104266000Y-83962000D01*
G75*
G02*
X104416000Y-84112000I0J-150000D01*
G01*
G37*
G36*
G01*
X104416000Y-83162000D02*
X104416000Y-83462000D01*
G75*
G02*
X104266000Y-83612000I-150000J0D01*
G01*
X103241000Y-83612000D01*
G75*
G02*
X103091000Y-83462000I0J150000D01*
G01*
X103091000Y-83162000D01*
G75*
G02*
X103241000Y-83012000I150000J0D01*
G01*
X104266000Y-83012000D01*
G75*
G02*
X104416000Y-83162000I0J-150000D01*
G01*
G37*
G36*
G01*
X104416000Y-82212000D02*
X104416000Y-82512000D01*
G75*
G02*
X104266000Y-82662000I-150000J0D01*
G01*
X103241000Y-82662000D01*
G75*
G02*
X103091000Y-82512000I0J150000D01*
G01*
X103091000Y-82212000D01*
G75*
G02*
X103241000Y-82062000I150000J0D01*
G01*
X104266000Y-82062000D01*
G75*
G02*
X104416000Y-82212000I0J-150000D01*
G01*
G37*
G36*
G01*
X102141000Y-82212000D02*
X102141000Y-82512000D01*
G75*
G02*
X101991000Y-82662000I-150000J0D01*
G01*
X100966000Y-82662000D01*
G75*
G02*
X100816000Y-82512000I0J150000D01*
G01*
X100816000Y-82212000D01*
G75*
G02*
X100966000Y-82062000I150000J0D01*
G01*
X101991000Y-82062000D01*
G75*
G02*
X102141000Y-82212000I0J-150000D01*
G01*
G37*
G36*
G01*
X102141000Y-83162000D02*
X102141000Y-83462000D01*
G75*
G02*
X101991000Y-83612000I-150000J0D01*
G01*
X100966000Y-83612000D01*
G75*
G02*
X100816000Y-83462000I0J150000D01*
G01*
X100816000Y-83162000D01*
G75*
G02*
X100966000Y-83012000I150000J0D01*
G01*
X101991000Y-83012000D01*
G75*
G02*
X102141000Y-83162000I0J-150000D01*
G01*
G37*
G36*
G01*
X102141000Y-84112000D02*
X102141000Y-84412000D01*
G75*
G02*
X101991000Y-84562000I-150000J0D01*
G01*
X100966000Y-84562000D01*
G75*
G02*
X100816000Y-84412000I0J150000D01*
G01*
X100816000Y-84112000D01*
G75*
G02*
X100966000Y-83962000I150000J0D01*
G01*
X101991000Y-83962000D01*
G75*
G02*
X102141000Y-84112000I0J-150000D01*
G01*
G37*
G36*
G01*
X133616186Y-85092000D02*
X133616186Y-86196000D01*
G75*
G02*
X133478186Y-86334000I-138000J0D01*
G01*
X131654186Y-86334000D01*
G75*
G02*
X131516186Y-86196000I0J138000D01*
G01*
X131516186Y-85092000D01*
G75*
G02*
X131654186Y-84954000I138000J0D01*
G01*
X133478186Y-84954000D01*
G75*
G02*
X133616186Y-85092000I0J-138000D01*
G01*
G37*
G36*
G01*
X142716186Y-85092000D02*
X142716186Y-86196000D01*
G75*
G02*
X142578186Y-86334000I-138000J0D01*
G01*
X140754186Y-86334000D01*
G75*
G02*
X140616186Y-86196000I0J138000D01*
G01*
X140616186Y-85092000D01*
G75*
G02*
X140754186Y-84954000I138000J0D01*
G01*
X142578186Y-84954000D01*
G75*
G02*
X142716186Y-85092000I0J-138000D01*
G01*
G37*
G36*
G01*
X133616186Y-89572000D02*
X133616186Y-90676000D01*
G75*
G02*
X133478186Y-90814000I-138000J0D01*
G01*
X131654186Y-90814000D01*
G75*
G02*
X131516186Y-90676000I0J138000D01*
G01*
X131516186Y-89572000D01*
G75*
G02*
X131654186Y-89434000I138000J0D01*
G01*
X133478186Y-89434000D01*
G75*
G02*
X133616186Y-89572000I0J-138000D01*
G01*
G37*
G36*
G01*
X142716186Y-89572000D02*
X142716186Y-90676000D01*
G75*
G02*
X142578186Y-90814000I-138000J0D01*
G01*
X140754186Y-90814000D01*
G75*
G02*
X140616186Y-90676000I0J138000D01*
G01*
X140616186Y-89572000D01*
G75*
G02*
X140754186Y-89434000I138000J0D01*
G01*
X142578186Y-89434000D01*
G75*
G02*
X142716186Y-89572000I0J-138000D01*
G01*
G37*
D16*
X103505000Y-74295000D03*
D17*
X106045000Y-68135500D03*
D16*
X108585000Y-74295000D03*
G36*
G01*
X69309000Y-42659000D02*
X68359000Y-42659000D01*
G75*
G02*
X68109000Y-42409000I0J250000D01*
G01*
X68109000Y-41909000D01*
G75*
G02*
X68359000Y-41659000I250000J0D01*
G01*
X69309000Y-41659000D01*
G75*
G02*
X69559000Y-41909000I0J-250000D01*
G01*
X69559000Y-42409000D01*
G75*
G02*
X69309000Y-42659000I-250000J0D01*
G01*
G37*
G36*
G01*
X69309000Y-40759000D02*
X68359000Y-40759000D01*
G75*
G02*
X68109000Y-40509000I0J250000D01*
G01*
X68109000Y-40009000D01*
G75*
G02*
X68359000Y-39759000I250000J0D01*
G01*
X69309000Y-39759000D01*
G75*
G02*
X69559000Y-40009000I0J-250000D01*
G01*
X69559000Y-40509000D01*
G75*
G02*
X69309000Y-40759000I-250000J0D01*
G01*
G37*
G36*
G01*
X76258000Y-39784000D02*
X77158000Y-39784000D01*
G75*
G02*
X77408000Y-40034000I0J-250000D01*
G01*
X77408000Y-40559000D01*
G75*
G02*
X77158000Y-40809000I-250000J0D01*
G01*
X76258000Y-40809000D01*
G75*
G02*
X76008000Y-40559000I0J250000D01*
G01*
X76008000Y-40034000D01*
G75*
G02*
X76258000Y-39784000I250000J0D01*
G01*
G37*
G36*
G01*
X76258000Y-41609000D02*
X77158000Y-41609000D01*
G75*
G02*
X77408000Y-41859000I0J-250000D01*
G01*
X77408000Y-42384000D01*
G75*
G02*
X77158000Y-42634000I-250000J0D01*
G01*
X76258000Y-42634000D01*
G75*
G02*
X76008000Y-42384000I0J250000D01*
G01*
X76008000Y-41859000D01*
G75*
G02*
X76258000Y-41609000I250000J0D01*
G01*
G37*
G36*
G01*
X139468000Y-24616000D02*
X139468000Y-25866000D01*
G75*
G02*
X139318000Y-26016000I-150000J0D01*
G01*
X139018000Y-26016000D01*
G75*
G02*
X138868000Y-25866000I0J150000D01*
G01*
X138868000Y-24616000D01*
G75*
G02*
X139018000Y-24466000I150000J0D01*
G01*
X139318000Y-24466000D01*
G75*
G02*
X139468000Y-24616000I0J-150000D01*
G01*
G37*
G36*
G01*
X138468000Y-24616000D02*
X138468000Y-25866000D01*
G75*
G02*
X138318000Y-26016000I-150000J0D01*
G01*
X138018000Y-26016000D01*
G75*
G02*
X137868000Y-25866000I0J150000D01*
G01*
X137868000Y-24616000D01*
G75*
G02*
X138018000Y-24466000I150000J0D01*
G01*
X138318000Y-24466000D01*
G75*
G02*
X138468000Y-24616000I0J-150000D01*
G01*
G37*
G36*
G01*
X137468000Y-24616000D02*
X137468000Y-25866000D01*
G75*
G02*
X137318000Y-26016000I-150000J0D01*
G01*
X137018000Y-26016000D01*
G75*
G02*
X136868000Y-25866000I0J150000D01*
G01*
X136868000Y-24616000D01*
G75*
G02*
X137018000Y-24466000I150000J0D01*
G01*
X137318000Y-24466000D01*
G75*
G02*
X137468000Y-24616000I0J-150000D01*
G01*
G37*
G36*
G01*
X136468000Y-24616000D02*
X136468000Y-25866000D01*
G75*
G02*
X136318000Y-26016000I-150000J0D01*
G01*
X136018000Y-26016000D01*
G75*
G02*
X135868000Y-25866000I0J150000D01*
G01*
X135868000Y-24616000D01*
G75*
G02*
X136018000Y-24466000I150000J0D01*
G01*
X136318000Y-24466000D01*
G75*
G02*
X136468000Y-24616000I0J-150000D01*
G01*
G37*
G36*
G01*
X141068000Y-20716000D02*
X141068000Y-22016000D01*
G75*
G02*
X140818000Y-22266000I-250000J0D01*
G01*
X140118000Y-22266000D01*
G75*
G02*
X139868000Y-22016000I0J250000D01*
G01*
X139868000Y-20716000D01*
G75*
G02*
X140118000Y-20466000I250000J0D01*
G01*
X140818000Y-20466000D01*
G75*
G02*
X141068000Y-20716000I0J-250000D01*
G01*
G37*
G36*
G01*
X135468000Y-20716000D02*
X135468000Y-22016000D01*
G75*
G02*
X135218000Y-22266000I-250000J0D01*
G01*
X134518000Y-22266000D01*
G75*
G02*
X134268000Y-22016000I0J250000D01*
G01*
X134268000Y-20716000D01*
G75*
G02*
X134518000Y-20466000I250000J0D01*
G01*
X135218000Y-20466000D01*
G75*
G02*
X135468000Y-20716000I0J-250000D01*
G01*
G37*
G36*
G01*
X119306186Y-85092000D02*
X119306186Y-86196000D01*
G75*
G02*
X119168186Y-86334000I-138000J0D01*
G01*
X117344186Y-86334000D01*
G75*
G02*
X117206186Y-86196000I0J138000D01*
G01*
X117206186Y-85092000D01*
G75*
G02*
X117344186Y-84954000I138000J0D01*
G01*
X119168186Y-84954000D01*
G75*
G02*
X119306186Y-85092000I0J-138000D01*
G01*
G37*
G36*
G01*
X128406186Y-85092000D02*
X128406186Y-86196000D01*
G75*
G02*
X128268186Y-86334000I-138000J0D01*
G01*
X126444186Y-86334000D01*
G75*
G02*
X126306186Y-86196000I0J138000D01*
G01*
X126306186Y-85092000D01*
G75*
G02*
X126444186Y-84954000I138000J0D01*
G01*
X128268186Y-84954000D01*
G75*
G02*
X128406186Y-85092000I0J-138000D01*
G01*
G37*
G36*
G01*
X119306186Y-89572000D02*
X119306186Y-90676000D01*
G75*
G02*
X119168186Y-90814000I-138000J0D01*
G01*
X117344186Y-90814000D01*
G75*
G02*
X117206186Y-90676000I0J138000D01*
G01*
X117206186Y-89572000D01*
G75*
G02*
X117344186Y-89434000I138000J0D01*
G01*
X119168186Y-89434000D01*
G75*
G02*
X119306186Y-89572000I0J-138000D01*
G01*
G37*
G36*
G01*
X128406186Y-89572000D02*
X128406186Y-90676000D01*
G75*
G02*
X128268186Y-90814000I-138000J0D01*
G01*
X126444186Y-90814000D01*
G75*
G02*
X126306186Y-90676000I0J138000D01*
G01*
X126306186Y-89572000D01*
G75*
G02*
X126444186Y-89434000I138000J0D01*
G01*
X128268186Y-89434000D01*
G75*
G02*
X128406186Y-89572000I0J-138000D01*
G01*
G37*
G36*
G01*
X115636000Y-68370000D02*
X115436000Y-68370000D01*
G75*
G02*
X115336000Y-68270000I0J100000D01*
G01*
X115336000Y-66995000D01*
G75*
G02*
X115436000Y-66895000I100000J0D01*
G01*
X115636000Y-66895000D01*
G75*
G02*
X115736000Y-66995000I0J-100000D01*
G01*
X115736000Y-68270000D01*
G75*
G02*
X115636000Y-68370000I-100000J0D01*
G01*
G37*
G36*
G01*
X116286000Y-68370000D02*
X116086000Y-68370000D01*
G75*
G02*
X115986000Y-68270000I0J100000D01*
G01*
X115986000Y-66995000D01*
G75*
G02*
X116086000Y-66895000I100000J0D01*
G01*
X116286000Y-66895000D01*
G75*
G02*
X116386000Y-66995000I0J-100000D01*
G01*
X116386000Y-68270000D01*
G75*
G02*
X116286000Y-68370000I-100000J0D01*
G01*
G37*
G36*
G01*
X116936000Y-68370000D02*
X116736000Y-68370000D01*
G75*
G02*
X116636000Y-68270000I0J100000D01*
G01*
X116636000Y-66995000D01*
G75*
G02*
X116736000Y-66895000I100000J0D01*
G01*
X116936000Y-66895000D01*
G75*
G02*
X117036000Y-66995000I0J-100000D01*
G01*
X117036000Y-68270000D01*
G75*
G02*
X116936000Y-68370000I-100000J0D01*
G01*
G37*
G36*
G01*
X117586000Y-68370000D02*
X117386000Y-68370000D01*
G75*
G02*
X117286000Y-68270000I0J100000D01*
G01*
X117286000Y-66995000D01*
G75*
G02*
X117386000Y-66895000I100000J0D01*
G01*
X117586000Y-66895000D01*
G75*
G02*
X117686000Y-66995000I0J-100000D01*
G01*
X117686000Y-68270000D01*
G75*
G02*
X117586000Y-68370000I-100000J0D01*
G01*
G37*
G36*
G01*
X118236000Y-68370000D02*
X118036000Y-68370000D01*
G75*
G02*
X117936000Y-68270000I0J100000D01*
G01*
X117936000Y-66995000D01*
G75*
G02*
X118036000Y-66895000I100000J0D01*
G01*
X118236000Y-66895000D01*
G75*
G02*
X118336000Y-66995000I0J-100000D01*
G01*
X118336000Y-68270000D01*
G75*
G02*
X118236000Y-68370000I-100000J0D01*
G01*
G37*
G36*
G01*
X118886000Y-68370000D02*
X118686000Y-68370000D01*
G75*
G02*
X118586000Y-68270000I0J100000D01*
G01*
X118586000Y-66995000D01*
G75*
G02*
X118686000Y-66895000I100000J0D01*
G01*
X118886000Y-66895000D01*
G75*
G02*
X118986000Y-66995000I0J-100000D01*
G01*
X118986000Y-68270000D01*
G75*
G02*
X118886000Y-68370000I-100000J0D01*
G01*
G37*
G36*
G01*
X119536000Y-68370000D02*
X119336000Y-68370000D01*
G75*
G02*
X119236000Y-68270000I0J100000D01*
G01*
X119236000Y-66995000D01*
G75*
G02*
X119336000Y-66895000I100000J0D01*
G01*
X119536000Y-66895000D01*
G75*
G02*
X119636000Y-66995000I0J-100000D01*
G01*
X119636000Y-68270000D01*
G75*
G02*
X119536000Y-68370000I-100000J0D01*
G01*
G37*
G36*
G01*
X120186000Y-68370000D02*
X119986000Y-68370000D01*
G75*
G02*
X119886000Y-68270000I0J100000D01*
G01*
X119886000Y-66995000D01*
G75*
G02*
X119986000Y-66895000I100000J0D01*
G01*
X120186000Y-66895000D01*
G75*
G02*
X120286000Y-66995000I0J-100000D01*
G01*
X120286000Y-68270000D01*
G75*
G02*
X120186000Y-68370000I-100000J0D01*
G01*
G37*
G36*
G01*
X120836000Y-68370000D02*
X120636000Y-68370000D01*
G75*
G02*
X120536000Y-68270000I0J100000D01*
G01*
X120536000Y-66995000D01*
G75*
G02*
X120636000Y-66895000I100000J0D01*
G01*
X120836000Y-66895000D01*
G75*
G02*
X120936000Y-66995000I0J-100000D01*
G01*
X120936000Y-68270000D01*
G75*
G02*
X120836000Y-68370000I-100000J0D01*
G01*
G37*
G36*
G01*
X121486000Y-68370000D02*
X121286000Y-68370000D01*
G75*
G02*
X121186000Y-68270000I0J100000D01*
G01*
X121186000Y-66995000D01*
G75*
G02*
X121286000Y-66895000I100000J0D01*
G01*
X121486000Y-66895000D01*
G75*
G02*
X121586000Y-66995000I0J-100000D01*
G01*
X121586000Y-68270000D01*
G75*
G02*
X121486000Y-68370000I-100000J0D01*
G01*
G37*
G36*
G01*
X122136000Y-68370000D02*
X121936000Y-68370000D01*
G75*
G02*
X121836000Y-68270000I0J100000D01*
G01*
X121836000Y-66995000D01*
G75*
G02*
X121936000Y-66895000I100000J0D01*
G01*
X122136000Y-66895000D01*
G75*
G02*
X122236000Y-66995000I0J-100000D01*
G01*
X122236000Y-68270000D01*
G75*
G02*
X122136000Y-68370000I-100000J0D01*
G01*
G37*
G36*
G01*
X122786000Y-68370000D02*
X122586000Y-68370000D01*
G75*
G02*
X122486000Y-68270000I0J100000D01*
G01*
X122486000Y-66995000D01*
G75*
G02*
X122586000Y-66895000I100000J0D01*
G01*
X122786000Y-66895000D01*
G75*
G02*
X122886000Y-66995000I0J-100000D01*
G01*
X122886000Y-68270000D01*
G75*
G02*
X122786000Y-68370000I-100000J0D01*
G01*
G37*
G36*
G01*
X123436000Y-68370000D02*
X123236000Y-68370000D01*
G75*
G02*
X123136000Y-68270000I0J100000D01*
G01*
X123136000Y-66995000D01*
G75*
G02*
X123236000Y-66895000I100000J0D01*
G01*
X123436000Y-66895000D01*
G75*
G02*
X123536000Y-66995000I0J-100000D01*
G01*
X123536000Y-68270000D01*
G75*
G02*
X123436000Y-68370000I-100000J0D01*
G01*
G37*
G36*
G01*
X124086000Y-68370000D02*
X123886000Y-68370000D01*
G75*
G02*
X123786000Y-68270000I0J100000D01*
G01*
X123786000Y-66995000D01*
G75*
G02*
X123886000Y-66895000I100000J0D01*
G01*
X124086000Y-66895000D01*
G75*
G02*
X124186000Y-66995000I0J-100000D01*
G01*
X124186000Y-68270000D01*
G75*
G02*
X124086000Y-68370000I-100000J0D01*
G01*
G37*
G36*
G01*
X124086000Y-62645000D02*
X123886000Y-62645000D01*
G75*
G02*
X123786000Y-62545000I0J100000D01*
G01*
X123786000Y-61270000D01*
G75*
G02*
X123886000Y-61170000I100000J0D01*
G01*
X124086000Y-61170000D01*
G75*
G02*
X124186000Y-61270000I0J-100000D01*
G01*
X124186000Y-62545000D01*
G75*
G02*
X124086000Y-62645000I-100000J0D01*
G01*
G37*
G36*
G01*
X123436000Y-62645000D02*
X123236000Y-62645000D01*
G75*
G02*
X123136000Y-62545000I0J100000D01*
G01*
X123136000Y-61270000D01*
G75*
G02*
X123236000Y-61170000I100000J0D01*
G01*
X123436000Y-61170000D01*
G75*
G02*
X123536000Y-61270000I0J-100000D01*
G01*
X123536000Y-62545000D01*
G75*
G02*
X123436000Y-62645000I-100000J0D01*
G01*
G37*
G36*
G01*
X122786000Y-62645000D02*
X122586000Y-62645000D01*
G75*
G02*
X122486000Y-62545000I0J100000D01*
G01*
X122486000Y-61270000D01*
G75*
G02*
X122586000Y-61170000I100000J0D01*
G01*
X122786000Y-61170000D01*
G75*
G02*
X122886000Y-61270000I0J-100000D01*
G01*
X122886000Y-62545000D01*
G75*
G02*
X122786000Y-62645000I-100000J0D01*
G01*
G37*
G36*
G01*
X122136000Y-62645000D02*
X121936000Y-62645000D01*
G75*
G02*
X121836000Y-62545000I0J100000D01*
G01*
X121836000Y-61270000D01*
G75*
G02*
X121936000Y-61170000I100000J0D01*
G01*
X122136000Y-61170000D01*
G75*
G02*
X122236000Y-61270000I0J-100000D01*
G01*
X122236000Y-62545000D01*
G75*
G02*
X122136000Y-62645000I-100000J0D01*
G01*
G37*
G36*
G01*
X121486000Y-62645000D02*
X121286000Y-62645000D01*
G75*
G02*
X121186000Y-62545000I0J100000D01*
G01*
X121186000Y-61270000D01*
G75*
G02*
X121286000Y-61170000I100000J0D01*
G01*
X121486000Y-61170000D01*
G75*
G02*
X121586000Y-61270000I0J-100000D01*
G01*
X121586000Y-62545000D01*
G75*
G02*
X121486000Y-62645000I-100000J0D01*
G01*
G37*
G36*
G01*
X120836000Y-62645000D02*
X120636000Y-62645000D01*
G75*
G02*
X120536000Y-62545000I0J100000D01*
G01*
X120536000Y-61270000D01*
G75*
G02*
X120636000Y-61170000I100000J0D01*
G01*
X120836000Y-61170000D01*
G75*
G02*
X120936000Y-61270000I0J-100000D01*
G01*
X120936000Y-62545000D01*
G75*
G02*
X120836000Y-62645000I-100000J0D01*
G01*
G37*
G36*
G01*
X120186000Y-62645000D02*
X119986000Y-62645000D01*
G75*
G02*
X119886000Y-62545000I0J100000D01*
G01*
X119886000Y-61270000D01*
G75*
G02*
X119986000Y-61170000I100000J0D01*
G01*
X120186000Y-61170000D01*
G75*
G02*
X120286000Y-61270000I0J-100000D01*
G01*
X120286000Y-62545000D01*
G75*
G02*
X120186000Y-62645000I-100000J0D01*
G01*
G37*
G36*
G01*
X119536000Y-62645000D02*
X119336000Y-62645000D01*
G75*
G02*
X119236000Y-62545000I0J100000D01*
G01*
X119236000Y-61270000D01*
G75*
G02*
X119336000Y-61170000I100000J0D01*
G01*
X119536000Y-61170000D01*
G75*
G02*
X119636000Y-61270000I0J-100000D01*
G01*
X119636000Y-62545000D01*
G75*
G02*
X119536000Y-62645000I-100000J0D01*
G01*
G37*
G36*
G01*
X118886000Y-62645000D02*
X118686000Y-62645000D01*
G75*
G02*
X118586000Y-62545000I0J100000D01*
G01*
X118586000Y-61270000D01*
G75*
G02*
X118686000Y-61170000I100000J0D01*
G01*
X118886000Y-61170000D01*
G75*
G02*
X118986000Y-61270000I0J-100000D01*
G01*
X118986000Y-62545000D01*
G75*
G02*
X118886000Y-62645000I-100000J0D01*
G01*
G37*
G36*
G01*
X118236000Y-62645000D02*
X118036000Y-62645000D01*
G75*
G02*
X117936000Y-62545000I0J100000D01*
G01*
X117936000Y-61270000D01*
G75*
G02*
X118036000Y-61170000I100000J0D01*
G01*
X118236000Y-61170000D01*
G75*
G02*
X118336000Y-61270000I0J-100000D01*
G01*
X118336000Y-62545000D01*
G75*
G02*
X118236000Y-62645000I-100000J0D01*
G01*
G37*
G36*
G01*
X117586000Y-62645000D02*
X117386000Y-62645000D01*
G75*
G02*
X117286000Y-62545000I0J100000D01*
G01*
X117286000Y-61270000D01*
G75*
G02*
X117386000Y-61170000I100000J0D01*
G01*
X117586000Y-61170000D01*
G75*
G02*
X117686000Y-61270000I0J-100000D01*
G01*
X117686000Y-62545000D01*
G75*
G02*
X117586000Y-62645000I-100000J0D01*
G01*
G37*
G36*
G01*
X116936000Y-62645000D02*
X116736000Y-62645000D01*
G75*
G02*
X116636000Y-62545000I0J100000D01*
G01*
X116636000Y-61270000D01*
G75*
G02*
X116736000Y-61170000I100000J0D01*
G01*
X116936000Y-61170000D01*
G75*
G02*
X117036000Y-61270000I0J-100000D01*
G01*
X117036000Y-62545000D01*
G75*
G02*
X116936000Y-62645000I-100000J0D01*
G01*
G37*
G36*
G01*
X116286000Y-62645000D02*
X116086000Y-62645000D01*
G75*
G02*
X115986000Y-62545000I0J100000D01*
G01*
X115986000Y-61270000D01*
G75*
G02*
X116086000Y-61170000I100000J0D01*
G01*
X116286000Y-61170000D01*
G75*
G02*
X116386000Y-61270000I0J-100000D01*
G01*
X116386000Y-62545000D01*
G75*
G02*
X116286000Y-62645000I-100000J0D01*
G01*
G37*
G36*
G01*
X115636000Y-62645000D02*
X115436000Y-62645000D01*
G75*
G02*
X115336000Y-62545000I0J100000D01*
G01*
X115336000Y-61270000D01*
G75*
G02*
X115436000Y-61170000I100000J0D01*
G01*
X115636000Y-61170000D01*
G75*
G02*
X115736000Y-61270000I0J-100000D01*
G01*
X115736000Y-62545000D01*
G75*
G02*
X115636000Y-62645000I-100000J0D01*
G01*
G37*
G36*
G01*
X84656000Y-62959000D02*
X84656000Y-62009000D01*
G75*
G02*
X84906000Y-61759000I250000J0D01*
G01*
X85406000Y-61759000D01*
G75*
G02*
X85656000Y-62009000I0J-250000D01*
G01*
X85656000Y-62959000D01*
G75*
G02*
X85406000Y-63209000I-250000J0D01*
G01*
X84906000Y-63209000D01*
G75*
G02*
X84656000Y-62959000I0J250000D01*
G01*
G37*
G36*
G01*
X86556000Y-62959000D02*
X86556000Y-62009000D01*
G75*
G02*
X86806000Y-61759000I250000J0D01*
G01*
X87306000Y-61759000D01*
G75*
G02*
X87556000Y-62009000I0J-250000D01*
G01*
X87556000Y-62959000D01*
G75*
G02*
X87306000Y-63209000I-250000J0D01*
G01*
X86806000Y-63209000D01*
G75*
G02*
X86556000Y-62959000I0J250000D01*
G01*
G37*
G36*
G01*
X109502000Y-78925000D02*
X109502000Y-79825000D01*
G75*
G02*
X109252000Y-80075000I-250000J0D01*
G01*
X108727000Y-80075000D01*
G75*
G02*
X108477000Y-79825000I0J250000D01*
G01*
X108477000Y-78925000D01*
G75*
G02*
X108727000Y-78675000I250000J0D01*
G01*
X109252000Y-78675000D01*
G75*
G02*
X109502000Y-78925000I0J-250000D01*
G01*
G37*
G36*
G01*
X107677000Y-78925000D02*
X107677000Y-79825000D01*
G75*
G02*
X107427000Y-80075000I-250000J0D01*
G01*
X106902000Y-80075000D01*
G75*
G02*
X106652000Y-79825000I0J250000D01*
G01*
X106652000Y-78925000D01*
G75*
G02*
X106902000Y-78675000I250000J0D01*
G01*
X107427000Y-78675000D01*
G75*
G02*
X107677000Y-78925000I0J-250000D01*
G01*
G37*
G36*
G01*
X71976000Y-42659000D02*
X71026000Y-42659000D01*
G75*
G02*
X70776000Y-42409000I0J250000D01*
G01*
X70776000Y-41909000D01*
G75*
G02*
X71026000Y-41659000I250000J0D01*
G01*
X71976000Y-41659000D01*
G75*
G02*
X72226000Y-41909000I0J-250000D01*
G01*
X72226000Y-42409000D01*
G75*
G02*
X71976000Y-42659000I-250000J0D01*
G01*
G37*
G36*
G01*
X71976000Y-40759000D02*
X71026000Y-40759000D01*
G75*
G02*
X70776000Y-40509000I0J250000D01*
G01*
X70776000Y-40009000D01*
G75*
G02*
X71026000Y-39759000I250000J0D01*
G01*
X71976000Y-39759000D01*
G75*
G02*
X72226000Y-40009000I0J-250000D01*
G01*
X72226000Y-40509000D01*
G75*
G02*
X71976000Y-40759000I-250000J0D01*
G01*
G37*
G36*
G01*
X109466000Y-83726000D02*
X109466000Y-84676000D01*
G75*
G02*
X109216000Y-84926000I-250000J0D01*
G01*
X108716000Y-84926000D01*
G75*
G02*
X108466000Y-84676000I0J250000D01*
G01*
X108466000Y-83726000D01*
G75*
G02*
X108716000Y-83476000I250000J0D01*
G01*
X109216000Y-83476000D01*
G75*
G02*
X109466000Y-83726000I0J-250000D01*
G01*
G37*
G36*
G01*
X107566000Y-83726000D02*
X107566000Y-84676000D01*
G75*
G02*
X107316000Y-84926000I-250000J0D01*
G01*
X106816000Y-84926000D01*
G75*
G02*
X106566000Y-84676000I0J250000D01*
G01*
X106566000Y-83726000D01*
G75*
G02*
X106816000Y-83476000I250000J0D01*
G01*
X107316000Y-83476000D01*
G75*
G02*
X107566000Y-83726000I0J-250000D01*
G01*
G37*
G36*
G01*
X121343000Y-69822000D02*
X122243000Y-69822000D01*
G75*
G02*
X122493000Y-70072000I0J-250000D01*
G01*
X122493000Y-70597000D01*
G75*
G02*
X122243000Y-70847000I-250000J0D01*
G01*
X121343000Y-70847000D01*
G75*
G02*
X121093000Y-70597000I0J250000D01*
G01*
X121093000Y-70072000D01*
G75*
G02*
X121343000Y-69822000I250000J0D01*
G01*
G37*
G36*
G01*
X121343000Y-71647000D02*
X122243000Y-71647000D01*
G75*
G02*
X122493000Y-71897000I0J-250000D01*
G01*
X122493000Y-72422000D01*
G75*
G02*
X122243000Y-72672000I-250000J0D01*
G01*
X121343000Y-72672000D01*
G75*
G02*
X121093000Y-72422000I0J250000D01*
G01*
X121093000Y-71897000D01*
G75*
G02*
X121343000Y-71647000I250000J0D01*
G01*
G37*
G36*
G01*
X106627000Y-82263000D02*
X106627000Y-81313000D01*
G75*
G02*
X106877000Y-81063000I250000J0D01*
G01*
X107377000Y-81063000D01*
G75*
G02*
X107627000Y-81313000I0J-250000D01*
G01*
X107627000Y-82263000D01*
G75*
G02*
X107377000Y-82513000I-250000J0D01*
G01*
X106877000Y-82513000D01*
G75*
G02*
X106627000Y-82263000I0J250000D01*
G01*
G37*
G36*
G01*
X108527000Y-82263000D02*
X108527000Y-81313000D01*
G75*
G02*
X108777000Y-81063000I250000J0D01*
G01*
X109277000Y-81063000D01*
G75*
G02*
X109527000Y-81313000I0J-250000D01*
G01*
X109527000Y-82263000D01*
G75*
G02*
X109277000Y-82513000I-250000J0D01*
G01*
X108777000Y-82513000D01*
G75*
G02*
X108527000Y-82263000I0J250000D01*
G01*
G37*
G36*
G01*
X128673000Y-24616000D02*
X128673000Y-25866000D01*
G75*
G02*
X128523000Y-26016000I-150000J0D01*
G01*
X128223000Y-26016000D01*
G75*
G02*
X128073000Y-25866000I0J150000D01*
G01*
X128073000Y-24616000D01*
G75*
G02*
X128223000Y-24466000I150000J0D01*
G01*
X128523000Y-24466000D01*
G75*
G02*
X128673000Y-24616000I0J-150000D01*
G01*
G37*
G36*
G01*
X127673000Y-24616000D02*
X127673000Y-25866000D01*
G75*
G02*
X127523000Y-26016000I-150000J0D01*
G01*
X127223000Y-26016000D01*
G75*
G02*
X127073000Y-25866000I0J150000D01*
G01*
X127073000Y-24616000D01*
G75*
G02*
X127223000Y-24466000I150000J0D01*
G01*
X127523000Y-24466000D01*
G75*
G02*
X127673000Y-24616000I0J-150000D01*
G01*
G37*
G36*
G01*
X126673000Y-24616000D02*
X126673000Y-25866000D01*
G75*
G02*
X126523000Y-26016000I-150000J0D01*
G01*
X126223000Y-26016000D01*
G75*
G02*
X126073000Y-25866000I0J150000D01*
G01*
X126073000Y-24616000D01*
G75*
G02*
X126223000Y-24466000I150000J0D01*
G01*
X126523000Y-24466000D01*
G75*
G02*
X126673000Y-24616000I0J-150000D01*
G01*
G37*
G36*
G01*
X125673000Y-24616000D02*
X125673000Y-25866000D01*
G75*
G02*
X125523000Y-26016000I-150000J0D01*
G01*
X125223000Y-26016000D01*
G75*
G02*
X125073000Y-25866000I0J150000D01*
G01*
X125073000Y-24616000D01*
G75*
G02*
X125223000Y-24466000I150000J0D01*
G01*
X125523000Y-24466000D01*
G75*
G02*
X125673000Y-24616000I0J-150000D01*
G01*
G37*
G36*
G01*
X130273000Y-20716000D02*
X130273000Y-22016000D01*
G75*
G02*
X130023000Y-22266000I-250000J0D01*
G01*
X129323000Y-22266000D01*
G75*
G02*
X129073000Y-22016000I0J250000D01*
G01*
X129073000Y-20716000D01*
G75*
G02*
X129323000Y-20466000I250000J0D01*
G01*
X130023000Y-20466000D01*
G75*
G02*
X130273000Y-20716000I0J-250000D01*
G01*
G37*
G36*
G01*
X124673000Y-20716000D02*
X124673000Y-22016000D01*
G75*
G02*
X124423000Y-22266000I-250000J0D01*
G01*
X123723000Y-22266000D01*
G75*
G02*
X123473000Y-22016000I0J250000D01*
G01*
X123473000Y-20716000D01*
G75*
G02*
X123723000Y-20466000I250000J0D01*
G01*
X124423000Y-20466000D01*
G75*
G02*
X124673000Y-20716000I0J-250000D01*
G01*
G37*
G36*
G01*
X37008750Y-39342000D02*
X37921250Y-39342000D01*
G75*
G02*
X38165000Y-39585750I0J-243750D01*
G01*
X38165000Y-40073250D01*
G75*
G02*
X37921250Y-40317000I-243750J0D01*
G01*
X37008750Y-40317000D01*
G75*
G02*
X36765000Y-40073250I0J243750D01*
G01*
X36765000Y-39585750D01*
G75*
G02*
X37008750Y-39342000I243750J0D01*
G01*
G37*
G36*
G01*
X37008750Y-41217000D02*
X37921250Y-41217000D01*
G75*
G02*
X38165000Y-41460750I0J-243750D01*
G01*
X38165000Y-41948250D01*
G75*
G02*
X37921250Y-42192000I-243750J0D01*
G01*
X37008750Y-42192000D01*
G75*
G02*
X36765000Y-41948250I0J243750D01*
G01*
X36765000Y-41460750D01*
G75*
G02*
X37008750Y-41217000I243750J0D01*
G01*
G37*
G36*
G01*
X130287750Y-41685500D02*
X129337750Y-41685500D01*
G75*
G02*
X129087750Y-41435500I0J250000D01*
G01*
X129087750Y-40935500D01*
G75*
G02*
X129337750Y-40685500I250000J0D01*
G01*
X130287750Y-40685500D01*
G75*
G02*
X130537750Y-40935500I0J-250000D01*
G01*
X130537750Y-41435500D01*
G75*
G02*
X130287750Y-41685500I-250000J0D01*
G01*
G37*
G36*
G01*
X130287750Y-39785500D02*
X129337750Y-39785500D01*
G75*
G02*
X129087750Y-39535500I0J250000D01*
G01*
X129087750Y-39035500D01*
G75*
G02*
X129337750Y-38785500I250000J0D01*
G01*
X130287750Y-38785500D01*
G75*
G02*
X130537750Y-39035500I0J-250000D01*
G01*
X130537750Y-39535500D01*
G75*
G02*
X130287750Y-39785500I-250000J0D01*
G01*
G37*
G36*
G01*
X100216000Y-80231000D02*
X100216000Y-79281000D01*
G75*
G02*
X100466000Y-79031000I250000J0D01*
G01*
X100966000Y-79031000D01*
G75*
G02*
X101216000Y-79281000I0J-250000D01*
G01*
X101216000Y-80231000D01*
G75*
G02*
X100966000Y-80481000I-250000J0D01*
G01*
X100466000Y-80481000D01*
G75*
G02*
X100216000Y-80231000I0J250000D01*
G01*
G37*
G36*
G01*
X102116000Y-80231000D02*
X102116000Y-79281000D01*
G75*
G02*
X102366000Y-79031000I250000J0D01*
G01*
X102866000Y-79031000D01*
G75*
G02*
X103116000Y-79281000I0J-250000D01*
G01*
X103116000Y-80231000D01*
G75*
G02*
X102866000Y-80481000I-250000J0D01*
G01*
X102366000Y-80481000D01*
G75*
G02*
X102116000Y-80231000I0J250000D01*
G01*
G37*
D13*
X66167000Y-75438000D03*
D14*
X69042000Y-77343000D03*
X69042000Y-76073000D03*
X69042000Y-74803000D03*
X69042000Y-73533000D03*
X63292000Y-73533000D03*
X63292000Y-74803000D03*
X63292000Y-76073000D03*
X63292000Y-77343000D03*
G36*
G01*
X53749000Y-80468150D02*
X53749000Y-81380650D01*
G75*
G02*
X53505250Y-81624400I-243750J0D01*
G01*
X53017750Y-81624400D01*
G75*
G02*
X52774000Y-81380650I0J243750D01*
G01*
X52774000Y-80468150D01*
G75*
G02*
X53017750Y-80224400I243750J0D01*
G01*
X53505250Y-80224400D01*
G75*
G02*
X53749000Y-80468150I0J-243750D01*
G01*
G37*
G36*
G01*
X51874000Y-80468150D02*
X51874000Y-81380650D01*
G75*
G02*
X51630250Y-81624400I-243750J0D01*
G01*
X51142750Y-81624400D01*
G75*
G02*
X50899000Y-81380650I0J243750D01*
G01*
X50899000Y-80468150D01*
G75*
G02*
X51142750Y-80224400I243750J0D01*
G01*
X51630250Y-80224400D01*
G75*
G02*
X51874000Y-80468150I0J-243750D01*
G01*
G37*
D11*
X41377250Y-73304400D03*
X44677250Y-73304400D03*
G36*
G01*
X71219000Y-63067250D02*
X71219000Y-62154750D01*
G75*
G02*
X71462750Y-61911000I243750J0D01*
G01*
X71950250Y-61911000D01*
G75*
G02*
X72194000Y-62154750I0J-243750D01*
G01*
X72194000Y-63067250D01*
G75*
G02*
X71950250Y-63311000I-243750J0D01*
G01*
X71462750Y-63311000D01*
G75*
G02*
X71219000Y-63067250I0J243750D01*
G01*
G37*
G36*
G01*
X73094000Y-63067250D02*
X73094000Y-62154750D01*
G75*
G02*
X73337750Y-61911000I243750J0D01*
G01*
X73825250Y-61911000D01*
G75*
G02*
X74069000Y-62154750I0J-243750D01*
G01*
X74069000Y-63067250D01*
G75*
G02*
X73825250Y-63311000I-243750J0D01*
G01*
X73337750Y-63311000D01*
G75*
G02*
X73094000Y-63067250I0J243750D01*
G01*
G37*
G36*
G01*
X114485000Y-69822000D02*
X115385000Y-69822000D01*
G75*
G02*
X115635000Y-70072000I0J-250000D01*
G01*
X115635000Y-70597000D01*
G75*
G02*
X115385000Y-70847000I-250000J0D01*
G01*
X114485000Y-70847000D01*
G75*
G02*
X114235000Y-70597000I0J250000D01*
G01*
X114235000Y-70072000D01*
G75*
G02*
X114485000Y-69822000I250000J0D01*
G01*
G37*
G36*
G01*
X114485000Y-71647000D02*
X115385000Y-71647000D01*
G75*
G02*
X115635000Y-71897000I0J-250000D01*
G01*
X115635000Y-72422000D01*
G75*
G02*
X115385000Y-72672000I-250000J0D01*
G01*
X114485000Y-72672000D01*
G75*
G02*
X114235000Y-72422000I0J250000D01*
G01*
X114235000Y-71897000D01*
G75*
G02*
X114485000Y-71647000I250000J0D01*
G01*
G37*
G36*
G01*
X44930000Y-44392000D02*
X44930000Y-43492000D01*
G75*
G02*
X45180000Y-43242000I250000J0D01*
G01*
X45705000Y-43242000D01*
G75*
G02*
X45955000Y-43492000I0J-250000D01*
G01*
X45955000Y-44392000D01*
G75*
G02*
X45705000Y-44642000I-250000J0D01*
G01*
X45180000Y-44642000D01*
G75*
G02*
X44930000Y-44392000I0J250000D01*
G01*
G37*
G36*
G01*
X46755000Y-44392000D02*
X46755000Y-43492000D01*
G75*
G02*
X47005000Y-43242000I250000J0D01*
G01*
X47530000Y-43242000D01*
G75*
G02*
X47780000Y-43492000I0J-250000D01*
G01*
X47780000Y-44392000D01*
G75*
G02*
X47530000Y-44642000I-250000J0D01*
G01*
X47005000Y-44642000D01*
G75*
G02*
X46755000Y-44392000I0J250000D01*
G01*
G37*
G36*
G01*
X49985000Y-67404000D02*
X49985000Y-66454000D01*
G75*
G02*
X50235000Y-66204000I250000J0D01*
G01*
X50735000Y-66204000D01*
G75*
G02*
X50985000Y-66454000I0J-250000D01*
G01*
X50985000Y-67404000D01*
G75*
G02*
X50735000Y-67654000I-250000J0D01*
G01*
X50235000Y-67654000D01*
G75*
G02*
X49985000Y-67404000I0J250000D01*
G01*
G37*
G36*
G01*
X51885000Y-67404000D02*
X51885000Y-66454000D01*
G75*
G02*
X52135000Y-66204000I250000J0D01*
G01*
X52635000Y-66204000D01*
G75*
G02*
X52885000Y-66454000I0J-250000D01*
G01*
X52885000Y-67404000D01*
G75*
G02*
X52635000Y-67654000I-250000J0D01*
G01*
X52135000Y-67654000D01*
G75*
G02*
X51885000Y-67404000I0J250000D01*
G01*
G37*
G36*
G01*
X75259500Y-63061000D02*
X75259500Y-62161000D01*
G75*
G02*
X75509500Y-61911000I250000J0D01*
G01*
X76034500Y-61911000D01*
G75*
G02*
X76284500Y-62161000I0J-250000D01*
G01*
X76284500Y-63061000D01*
G75*
G02*
X76034500Y-63311000I-250000J0D01*
G01*
X75509500Y-63311000D01*
G75*
G02*
X75259500Y-63061000I0J250000D01*
G01*
G37*
G36*
G01*
X77084500Y-63061000D02*
X77084500Y-62161000D01*
G75*
G02*
X77334500Y-61911000I250000J0D01*
G01*
X77859500Y-61911000D01*
G75*
G02*
X78109500Y-62161000I0J-250000D01*
G01*
X78109500Y-63061000D01*
G75*
G02*
X77859500Y-63311000I-250000J0D01*
G01*
X77334500Y-63311000D01*
G75*
G02*
X77084500Y-63061000I0J250000D01*
G01*
G37*
G36*
G01*
X130655000Y-47313000D02*
X130655000Y-46413000D01*
G75*
G02*
X130905000Y-46163000I250000J0D01*
G01*
X131430000Y-46163000D01*
G75*
G02*
X131680000Y-46413000I0J-250000D01*
G01*
X131680000Y-47313000D01*
G75*
G02*
X131430000Y-47563000I-250000J0D01*
G01*
X130905000Y-47563000D01*
G75*
G02*
X130655000Y-47313000I0J250000D01*
G01*
G37*
G36*
G01*
X132480000Y-47313000D02*
X132480000Y-46413000D01*
G75*
G02*
X132730000Y-46163000I250000J0D01*
G01*
X133255000Y-46163000D01*
G75*
G02*
X133505000Y-46413000I0J-250000D01*
G01*
X133505000Y-47313000D01*
G75*
G02*
X133255000Y-47563000I-250000J0D01*
G01*
X132730000Y-47563000D01*
G75*
G02*
X132480000Y-47313000I0J250000D01*
G01*
G37*
M02*
