G04 #@! TF.GenerationSoftware,KiCad,Pcbnew,9.0.7-9.0.7~ubuntu24.04.1*
G04 #@! TF.CreationDate,2026-03-17T19:45:28-06:00*
G04 #@! TF.ProjectId,ckt-xing-adv,636b742d-7869-46e6-972d-6164762e6b69,rev?*
G04 #@! TF.SameCoordinates,Original*
G04 #@! TF.FileFunction,Legend,Bot*
G04 #@! TF.FilePolarity,Positive*
%FSLAX46Y46*%
G04 Gerber Fmt 4.6, Leading zero omitted, Abs format (unit mm)*
G04 Created by KiCad (PCBNEW 9.0.7-9.0.7~ubuntu24.04.1) date 2026-03-17 19:45:28*
%MOMM*%
%LPD*%
G01*
G04 APERTURE LIST*
%ADD10C,0.150000*%
%ADD11C,0.120000*%
G04 APERTURE END LIST*
D10*
X84192904Y-86102819D02*
X83621476Y-86102819D01*
X83907190Y-87102819D02*
X83907190Y-86102819D01*
X83288142Y-87102819D02*
X83288142Y-86102819D01*
X83288142Y-86102819D02*
X82907190Y-86102819D01*
X82907190Y-86102819D02*
X82811952Y-86150438D01*
X82811952Y-86150438D02*
X82764333Y-86198057D01*
X82764333Y-86198057D02*
X82716714Y-86293295D01*
X82716714Y-86293295D02*
X82716714Y-86436152D01*
X82716714Y-86436152D02*
X82764333Y-86531390D01*
X82764333Y-86531390D02*
X82811952Y-86579009D01*
X82811952Y-86579009D02*
X82907190Y-86626628D01*
X82907190Y-86626628D02*
X83288142Y-86626628D01*
X81859571Y-86102819D02*
X82050047Y-86102819D01*
X82050047Y-86102819D02*
X82145285Y-86150438D01*
X82145285Y-86150438D02*
X82192904Y-86198057D01*
X82192904Y-86198057D02*
X82288142Y-86340914D01*
X82288142Y-86340914D02*
X82335761Y-86531390D01*
X82335761Y-86531390D02*
X82335761Y-86912342D01*
X82335761Y-86912342D02*
X82288142Y-87007580D01*
X82288142Y-87007580D02*
X82240523Y-87055200D01*
X82240523Y-87055200D02*
X82145285Y-87102819D01*
X82145285Y-87102819D02*
X81954809Y-87102819D01*
X81954809Y-87102819D02*
X81859571Y-87055200D01*
X81859571Y-87055200D02*
X81811952Y-87007580D01*
X81811952Y-87007580D02*
X81764333Y-86912342D01*
X81764333Y-86912342D02*
X81764333Y-86674247D01*
X81764333Y-86674247D02*
X81811952Y-86579009D01*
X81811952Y-86579009D02*
X81859571Y-86531390D01*
X81859571Y-86531390D02*
X81954809Y-86483771D01*
X81954809Y-86483771D02*
X82145285Y-86483771D01*
X82145285Y-86483771D02*
X82240523Y-86531390D01*
X82240523Y-86531390D02*
X82288142Y-86579009D01*
X82288142Y-86579009D02*
X82335761Y-86674247D01*
X95241904Y-86102819D02*
X94670476Y-86102819D01*
X94956190Y-87102819D02*
X94956190Y-86102819D01*
X94337142Y-87102819D02*
X94337142Y-86102819D01*
X94337142Y-86102819D02*
X93956190Y-86102819D01*
X93956190Y-86102819D02*
X93860952Y-86150438D01*
X93860952Y-86150438D02*
X93813333Y-86198057D01*
X93813333Y-86198057D02*
X93765714Y-86293295D01*
X93765714Y-86293295D02*
X93765714Y-86436152D01*
X93765714Y-86436152D02*
X93813333Y-86531390D01*
X93813333Y-86531390D02*
X93860952Y-86579009D01*
X93860952Y-86579009D02*
X93956190Y-86626628D01*
X93956190Y-86626628D02*
X94337142Y-86626628D01*
X93194285Y-86531390D02*
X93289523Y-86483771D01*
X93289523Y-86483771D02*
X93337142Y-86436152D01*
X93337142Y-86436152D02*
X93384761Y-86340914D01*
X93384761Y-86340914D02*
X93384761Y-86293295D01*
X93384761Y-86293295D02*
X93337142Y-86198057D01*
X93337142Y-86198057D02*
X93289523Y-86150438D01*
X93289523Y-86150438D02*
X93194285Y-86102819D01*
X93194285Y-86102819D02*
X93003809Y-86102819D01*
X93003809Y-86102819D02*
X92908571Y-86150438D01*
X92908571Y-86150438D02*
X92860952Y-86198057D01*
X92860952Y-86198057D02*
X92813333Y-86293295D01*
X92813333Y-86293295D02*
X92813333Y-86340914D01*
X92813333Y-86340914D02*
X92860952Y-86436152D01*
X92860952Y-86436152D02*
X92908571Y-86483771D01*
X92908571Y-86483771D02*
X93003809Y-86531390D01*
X93003809Y-86531390D02*
X93194285Y-86531390D01*
X93194285Y-86531390D02*
X93289523Y-86579009D01*
X93289523Y-86579009D02*
X93337142Y-86626628D01*
X93337142Y-86626628D02*
X93384761Y-86721866D01*
X93384761Y-86721866D02*
X93384761Y-86912342D01*
X93384761Y-86912342D02*
X93337142Y-87007580D01*
X93337142Y-87007580D02*
X93289523Y-87055200D01*
X93289523Y-87055200D02*
X93194285Y-87102819D01*
X93194285Y-87102819D02*
X93003809Y-87102819D01*
X93003809Y-87102819D02*
X92908571Y-87055200D01*
X92908571Y-87055200D02*
X92860952Y-87007580D01*
X92860952Y-87007580D02*
X92813333Y-86912342D01*
X92813333Y-86912342D02*
X92813333Y-86721866D01*
X92813333Y-86721866D02*
X92860952Y-86626628D01*
X92860952Y-86626628D02*
X92908571Y-86579009D01*
X92908571Y-86579009D02*
X93003809Y-86531390D01*
X40504904Y-45589819D02*
X39933476Y-45589819D01*
X40219190Y-46589819D02*
X40219190Y-45589819D01*
X39600142Y-46589819D02*
X39600142Y-45589819D01*
X39600142Y-45589819D02*
X39219190Y-45589819D01*
X39219190Y-45589819D02*
X39123952Y-45637438D01*
X39123952Y-45637438D02*
X39076333Y-45685057D01*
X39076333Y-45685057D02*
X39028714Y-45780295D01*
X39028714Y-45780295D02*
X39028714Y-45923152D01*
X39028714Y-45923152D02*
X39076333Y-46018390D01*
X39076333Y-46018390D02*
X39123952Y-46066009D01*
X39123952Y-46066009D02*
X39219190Y-46113628D01*
X39219190Y-46113628D02*
X39600142Y-46113628D01*
X38171571Y-45923152D02*
X38171571Y-46589819D01*
X38409666Y-45542200D02*
X38647761Y-46256485D01*
X38647761Y-46256485D02*
X38028714Y-46256485D01*
X40504904Y-50542819D02*
X39933476Y-50542819D01*
X40219190Y-51542819D02*
X40219190Y-50542819D01*
X39600142Y-51542819D02*
X39600142Y-50542819D01*
X39600142Y-50542819D02*
X39219190Y-50542819D01*
X39219190Y-50542819D02*
X39123952Y-50590438D01*
X39123952Y-50590438D02*
X39076333Y-50638057D01*
X39076333Y-50638057D02*
X39028714Y-50733295D01*
X39028714Y-50733295D02*
X39028714Y-50876152D01*
X39028714Y-50876152D02*
X39076333Y-50971390D01*
X39076333Y-50971390D02*
X39123952Y-51019009D01*
X39123952Y-51019009D02*
X39219190Y-51066628D01*
X39219190Y-51066628D02*
X39600142Y-51066628D01*
X38123952Y-50542819D02*
X38600142Y-50542819D01*
X38600142Y-50542819D02*
X38647761Y-51019009D01*
X38647761Y-51019009D02*
X38600142Y-50971390D01*
X38600142Y-50971390D02*
X38504904Y-50923771D01*
X38504904Y-50923771D02*
X38266809Y-50923771D01*
X38266809Y-50923771D02*
X38171571Y-50971390D01*
X38171571Y-50971390D02*
X38123952Y-51019009D01*
X38123952Y-51019009D02*
X38076333Y-51114247D01*
X38076333Y-51114247D02*
X38076333Y-51352342D01*
X38076333Y-51352342D02*
X38123952Y-51447580D01*
X38123952Y-51447580D02*
X38171571Y-51495200D01*
X38171571Y-51495200D02*
X38266809Y-51542819D01*
X38266809Y-51542819D02*
X38504904Y-51542819D01*
X38504904Y-51542819D02*
X38600142Y-51495200D01*
X38600142Y-51495200D02*
X38647761Y-51447580D01*
X40504904Y-55749819D02*
X39933476Y-55749819D01*
X40219190Y-56749819D02*
X40219190Y-55749819D01*
X39600142Y-56749819D02*
X39600142Y-55749819D01*
X39600142Y-55749819D02*
X39219190Y-55749819D01*
X39219190Y-55749819D02*
X39123952Y-55797438D01*
X39123952Y-55797438D02*
X39076333Y-55845057D01*
X39076333Y-55845057D02*
X39028714Y-55940295D01*
X39028714Y-55940295D02*
X39028714Y-56083152D01*
X39028714Y-56083152D02*
X39076333Y-56178390D01*
X39076333Y-56178390D02*
X39123952Y-56226009D01*
X39123952Y-56226009D02*
X39219190Y-56273628D01*
X39219190Y-56273628D02*
X39600142Y-56273628D01*
X38076333Y-56749819D02*
X38647761Y-56749819D01*
X38362047Y-56749819D02*
X38362047Y-55749819D01*
X38362047Y-55749819D02*
X38457285Y-55892676D01*
X38457285Y-55892676D02*
X38552523Y-55987914D01*
X38552523Y-55987914D02*
X38647761Y-56035533D01*
X100321904Y-86102819D02*
X99750476Y-86102819D01*
X100036190Y-87102819D02*
X100036190Y-86102819D01*
X99417142Y-87102819D02*
X99417142Y-86102819D01*
X99417142Y-86102819D02*
X99036190Y-86102819D01*
X99036190Y-86102819D02*
X98940952Y-86150438D01*
X98940952Y-86150438D02*
X98893333Y-86198057D01*
X98893333Y-86198057D02*
X98845714Y-86293295D01*
X98845714Y-86293295D02*
X98845714Y-86436152D01*
X98845714Y-86436152D02*
X98893333Y-86531390D01*
X98893333Y-86531390D02*
X98940952Y-86579009D01*
X98940952Y-86579009D02*
X99036190Y-86626628D01*
X99036190Y-86626628D02*
X99417142Y-86626628D01*
X98369523Y-87102819D02*
X98179047Y-87102819D01*
X98179047Y-87102819D02*
X98083809Y-87055200D01*
X98083809Y-87055200D02*
X98036190Y-87007580D01*
X98036190Y-87007580D02*
X97940952Y-86864723D01*
X97940952Y-86864723D02*
X97893333Y-86674247D01*
X97893333Y-86674247D02*
X97893333Y-86293295D01*
X97893333Y-86293295D02*
X97940952Y-86198057D01*
X97940952Y-86198057D02*
X97988571Y-86150438D01*
X97988571Y-86150438D02*
X98083809Y-86102819D01*
X98083809Y-86102819D02*
X98274285Y-86102819D01*
X98274285Y-86102819D02*
X98369523Y-86150438D01*
X98369523Y-86150438D02*
X98417142Y-86198057D01*
X98417142Y-86198057D02*
X98464761Y-86293295D01*
X98464761Y-86293295D02*
X98464761Y-86531390D01*
X98464761Y-86531390D02*
X98417142Y-86626628D01*
X98417142Y-86626628D02*
X98369523Y-86674247D01*
X98369523Y-86674247D02*
X98274285Y-86721866D01*
X98274285Y-86721866D02*
X98083809Y-86721866D01*
X98083809Y-86721866D02*
X97988571Y-86674247D01*
X97988571Y-86674247D02*
X97940952Y-86626628D01*
X97940952Y-86626628D02*
X97893333Y-86531390D01*
X89399904Y-86102819D02*
X88828476Y-86102819D01*
X89114190Y-87102819D02*
X89114190Y-86102819D01*
X88495142Y-87102819D02*
X88495142Y-86102819D01*
X88495142Y-86102819D02*
X88114190Y-86102819D01*
X88114190Y-86102819D02*
X88018952Y-86150438D01*
X88018952Y-86150438D02*
X87971333Y-86198057D01*
X87971333Y-86198057D02*
X87923714Y-86293295D01*
X87923714Y-86293295D02*
X87923714Y-86436152D01*
X87923714Y-86436152D02*
X87971333Y-86531390D01*
X87971333Y-86531390D02*
X88018952Y-86579009D01*
X88018952Y-86579009D02*
X88114190Y-86626628D01*
X88114190Y-86626628D02*
X88495142Y-86626628D01*
X87590380Y-86102819D02*
X86923714Y-86102819D01*
X86923714Y-86102819D02*
X87352285Y-87102819D01*
X40504904Y-75815819D02*
X39933476Y-75815819D01*
X40219190Y-76815819D02*
X40219190Y-75815819D01*
X39600142Y-76815819D02*
X39600142Y-75815819D01*
X39600142Y-75815819D02*
X39219190Y-75815819D01*
X39219190Y-75815819D02*
X39123952Y-75863438D01*
X39123952Y-75863438D02*
X39076333Y-75911057D01*
X39076333Y-75911057D02*
X39028714Y-76006295D01*
X39028714Y-76006295D02*
X39028714Y-76149152D01*
X39028714Y-76149152D02*
X39076333Y-76244390D01*
X39076333Y-76244390D02*
X39123952Y-76292009D01*
X39123952Y-76292009D02*
X39219190Y-76339628D01*
X39219190Y-76339628D02*
X39600142Y-76339628D01*
X38695380Y-75815819D02*
X38076333Y-75815819D01*
X38076333Y-75815819D02*
X38409666Y-76196771D01*
X38409666Y-76196771D02*
X38266809Y-76196771D01*
X38266809Y-76196771D02*
X38171571Y-76244390D01*
X38171571Y-76244390D02*
X38123952Y-76292009D01*
X38123952Y-76292009D02*
X38076333Y-76387247D01*
X38076333Y-76387247D02*
X38076333Y-76625342D01*
X38076333Y-76625342D02*
X38123952Y-76720580D01*
X38123952Y-76720580D02*
X38171571Y-76768200D01*
X38171571Y-76768200D02*
X38266809Y-76815819D01*
X38266809Y-76815819D02*
X38552523Y-76815819D01*
X38552523Y-76815819D02*
X38647761Y-76768200D01*
X38647761Y-76768200D02*
X38695380Y-76720580D01*
X40504904Y-70862819D02*
X39933476Y-70862819D01*
X40219190Y-71862819D02*
X40219190Y-70862819D01*
X39600142Y-71862819D02*
X39600142Y-70862819D01*
X39600142Y-70862819D02*
X39219190Y-70862819D01*
X39219190Y-70862819D02*
X39123952Y-70910438D01*
X39123952Y-70910438D02*
X39076333Y-70958057D01*
X39076333Y-70958057D02*
X39028714Y-71053295D01*
X39028714Y-71053295D02*
X39028714Y-71196152D01*
X39028714Y-71196152D02*
X39076333Y-71291390D01*
X39076333Y-71291390D02*
X39123952Y-71339009D01*
X39123952Y-71339009D02*
X39219190Y-71386628D01*
X39219190Y-71386628D02*
X39600142Y-71386628D01*
X38647761Y-70958057D02*
X38600142Y-70910438D01*
X38600142Y-70910438D02*
X38504904Y-70862819D01*
X38504904Y-70862819D02*
X38266809Y-70862819D01*
X38266809Y-70862819D02*
X38171571Y-70910438D01*
X38171571Y-70910438D02*
X38123952Y-70958057D01*
X38123952Y-70958057D02*
X38076333Y-71053295D01*
X38076333Y-71053295D02*
X38076333Y-71148533D01*
X38076333Y-71148533D02*
X38123952Y-71291390D01*
X38123952Y-71291390D02*
X38695380Y-71862819D01*
X38695380Y-71862819D02*
X38076333Y-71862819D01*
D11*
X84131000Y-88646000D02*
G75*
G02*
X81731000Y-88646000I-1200000J0D01*
G01*
X81731000Y-88646000D02*
G75*
G02*
X84131000Y-88646000I1200000J0D01*
G01*
X95180000Y-88646000D02*
G75*
G02*
X92780000Y-88646000I-1200000J0D01*
G01*
X92780000Y-88646000D02*
G75*
G02*
X95180000Y-88646000I1200000J0D01*
G01*
X40443000Y-48133000D02*
G75*
G02*
X38043000Y-48133000I-1200000J0D01*
G01*
X38043000Y-48133000D02*
G75*
G02*
X40443000Y-48133000I1200000J0D01*
G01*
X40443000Y-53086000D02*
G75*
G02*
X38043000Y-53086000I-1200000J0D01*
G01*
X38043000Y-53086000D02*
G75*
G02*
X40443000Y-53086000I1200000J0D01*
G01*
X40443000Y-58293000D02*
G75*
G02*
X38043000Y-58293000I-1200000J0D01*
G01*
X38043000Y-58293000D02*
G75*
G02*
X40443000Y-58293000I1200000J0D01*
G01*
X100260000Y-88646000D02*
G75*
G02*
X97860000Y-88646000I-1200000J0D01*
G01*
X97860000Y-88646000D02*
G75*
G02*
X100260000Y-88646000I1200000J0D01*
G01*
X89338000Y-88646000D02*
G75*
G02*
X86938000Y-88646000I-1200000J0D01*
G01*
X86938000Y-88646000D02*
G75*
G02*
X89338000Y-88646000I1200000J0D01*
G01*
X40443000Y-78359000D02*
G75*
G02*
X38043000Y-78359000I-1200000J0D01*
G01*
X38043000Y-78359000D02*
G75*
G02*
X40443000Y-78359000I1200000J0D01*
G01*
X40443000Y-73406000D02*
G75*
G02*
X38043000Y-73406000I-1200000J0D01*
G01*
X38043000Y-73406000D02*
G75*
G02*
X40443000Y-73406000I1200000J0D01*
G01*
M02*
