G04 #@! TF.GenerationSoftware,KiCad,Pcbnew,6.0.2+dfsg-1*
G04 #@! TF.CreationDate,2024-04-05T20:45:58-06:00*
G04 #@! TF.ProjectId,ckt-xing-basic,636b742d-7869-46e6-972d-62617369632e,rev?*
G04 #@! TF.SameCoordinates,Original*
G04 #@! TF.FileFunction,Soldermask,Bot*
G04 #@! TF.FilePolarity,Negative*
%FSLAX46Y46*%
G04 Gerber Fmt 4.6, Leading zero omitted, Abs format (unit mm)*
G04 Created by KiCad (PCBNEW 6.0.2+dfsg-1) date 2024-04-05 20:45:58*
%MOMM*%
%LPD*%
G01*
G04 APERTURE LIST*
%ADD10C,6.552400*%
%ADD11C,2.652400*%
%ADD12C,2.452400*%
%ADD13C,2.527300*%
%ADD14C,1.143000*%
%ADD15C,2.152400*%
G04 APERTURE END LIST*
D10*
X29718000Y-23368000D03*
G36*
G01*
X28422000Y-55355800D02*
X30922000Y-55355800D01*
G75*
G02*
X30998200Y-55432000I0J-76200D01*
G01*
X30998200Y-57932000D01*
G75*
G02*
X30922000Y-58008200I-76200J0D01*
G01*
X28422000Y-58008200D01*
G75*
G02*
X28345800Y-57932000I0J76200D01*
G01*
X28345800Y-55432000D01*
G75*
G02*
X28422000Y-55355800I76200J0D01*
G01*
G37*
D11*
X29672000Y-61682000D03*
D10*
X29718000Y-78232000D03*
X97282000Y-78232000D03*
G36*
G01*
X79164800Y-77096000D02*
X79164800Y-74796000D01*
G75*
G02*
X79241000Y-74719800I76200J0D01*
G01*
X81541000Y-74719800D01*
G75*
G02*
X81617200Y-74796000I0J-76200D01*
G01*
X81617200Y-77096000D01*
G75*
G02*
X81541000Y-77172200I-76200J0D01*
G01*
X79241000Y-77172200D01*
G75*
G02*
X79164800Y-77096000I0J76200D01*
G01*
G37*
D12*
X83891000Y-75946000D03*
X87391000Y-75946000D03*
G36*
G01*
X36675800Y-77038000D02*
X36675800Y-74738000D01*
G75*
G02*
X36752000Y-74661800I76200J0D01*
G01*
X39052000Y-74661800D01*
G75*
G02*
X39128200Y-74738000I0J-76200D01*
G01*
X39128200Y-77038000D01*
G75*
G02*
X39052000Y-77114200I-76200J0D01*
G01*
X36752000Y-77114200D01*
G75*
G02*
X36675800Y-77038000I0J76200D01*
G01*
G37*
X41402000Y-75888000D03*
X44902000Y-75888000D03*
D10*
X97282000Y-23368000D03*
D13*
X57652000Y-48514000D03*
D14*
X65272000Y-44958000D03*
X57652000Y-45974000D03*
D13*
X63367000Y-48514000D03*
X63367000Y-43434000D03*
D14*
X65272000Y-46990000D03*
D13*
X57652000Y-43434000D03*
D15*
X33782000Y-61722000D03*
X83876000Y-80068000D03*
X33782000Y-56642000D03*
X87432000Y-80068000D03*
X41402000Y-80010000D03*
M02*
