M48
INCH,TZ
T1C0.0157
T2C0.0472
T3C0.0512
T4C0.1260
%
G90
G05
T1
X10750Y-14950
X12941Y-14359
X12950Y-15150
X14150Y-15950
X14550Y-15950
X14950Y-15950
X15050Y-21500
X15050Y-22050
X15050Y-24200
X15350Y-24750
X15850Y-13300
X15850Y-13750
X15950Y-11100
X15950Y-11850
X17350Y-19500
X17350Y-20800
X17700Y-22050
X17700Y-22600
X17750Y-19500
X17750Y-20800
X18150Y-19500
X18150Y-20800
X18250Y-18050
X18550Y-19500
X18550Y-20800
X18750Y-18050
X18750Y-19950
X18750Y-20400
X19200Y-22050
X19200Y-22600
X19300Y-18050
X19400Y-23600
X19700Y-30200
X19850Y-18050
X19850Y-23600
X20213Y-30213
X21250Y-31750
X22950Y-23500
X23400Y-23500
X23500Y-27450
X23500Y-28550
X23600Y-9850
X23676Y-16824
X23750Y-30200
X24050Y-9850
X24200Y-16400
X24287Y-30213
X24600Y-15750
X24650Y-23000
X25100Y-23000
X25250Y-15750
X25350Y-31750
X26050Y-18100
X26150Y-9850
X26500Y-23000
X27150Y-9850
X28000Y-25000
X28800Y-27150
X29200Y-9850
X29250Y-24950
X29650Y-9850
X29748Y-26050
X29750Y-20450
X29750Y-25250
X30200Y-20450
X30200Y-25250
X30200Y-26050
X30650Y-25250
X30650Y-26050
X31150Y-25250
X31150Y-26050
X32000Y-24619
X32000Y-25069
X32000Y-25750
X34176Y-24619
X34176Y-25069
X35800Y-25750
X36800Y-20850
T2
X14922Y-29877
X16300Y-29877
X17678Y-29877
X31650Y-29900
X33028Y-29900
X34406Y-29900
T3
X11682Y-22316
X11682Y-24284
T4
X11700Y-9200
X11700Y-30800
X38300Y-9200
X38300Y-30800
T0
M30
