G04 #@! TF.GenerationSoftware,KiCad,Pcbnew,6.0.2+dfsg-1*
G04 #@! TF.CreationDate,2024-04-05T20:45:58-06:00*
G04 #@! TF.ProjectId,ckt-xing-basic,636b742d-7869-46e6-972d-62617369632e,rev?*
G04 #@! TF.SameCoordinates,Original*
G04 #@! TF.FileFunction,Copper,L2,Bot*
G04 #@! TF.FilePolarity,Positive*
%FSLAX46Y46*%
G04 Gerber Fmt 4.6, Leading zero omitted, Abs format (unit mm)*
G04 Created by KiCad (PCBNEW 6.0.2+dfsg-1) date 2024-04-05 20:45:58*
%MOMM*%
%LPD*%
G01*
G04 APERTURE LIST*
G04 #@! TA.AperFunction,ComponentPad*
%ADD10C,6.400000*%
G04 #@! TD*
G04 #@! TA.AperFunction,ComponentPad*
%ADD11R,2.500000X2.500000*%
G04 #@! TD*
G04 #@! TA.AperFunction,ComponentPad*
%ADD12C,2.500000*%
G04 #@! TD*
G04 #@! TA.AperFunction,ComponentPad*
%ADD13R,2.300000X2.300000*%
G04 #@! TD*
G04 #@! TA.AperFunction,ComponentPad*
%ADD14C,2.300000*%
G04 #@! TD*
G04 #@! TA.AperFunction,SMDPad,CuDef*
%ADD15C,2.000000*%
G04 #@! TD*
G04 #@! TA.AperFunction,ViaPad*
%ADD16C,0.800000*%
G04 #@! TD*
G04 #@! TA.AperFunction,Conductor*
%ADD17C,0.254000*%
G04 #@! TD*
G04 #@! TA.AperFunction,Conductor*
%ADD18C,0.635000*%
G04 #@! TD*
G04 #@! TA.AperFunction,Conductor*
%ADD19C,1.016000*%
G04 #@! TD*
G04 #@! TA.AperFunction,Conductor*
%ADD20C,0.250000*%
G04 #@! TD*
G04 APERTURE END LIST*
D10*
X29718000Y-23368000D03*
D11*
X29672000Y-56682000D03*
D12*
X29672000Y-61682000D03*
D10*
X29718000Y-78232000D03*
X97282000Y-78232000D03*
D13*
X80391000Y-75946000D03*
D14*
X83891000Y-75946000D03*
X87391000Y-75946000D03*
D13*
X37902000Y-75888000D03*
D14*
X41402000Y-75888000D03*
X44902000Y-75888000D03*
D10*
X97282000Y-23368000D03*
D15*
X33782000Y-61722000D03*
X83876000Y-80068000D03*
X33782000Y-56642000D03*
X87432000Y-80068000D03*
X41402000Y-80010000D03*
D16*
X48768000Y-56007000D03*
X62611000Y-58420000D03*
X64389000Y-80645000D03*
X48768000Y-57404000D03*
X38227000Y-61468000D03*
X45085000Y-52832000D03*
X47625000Y-51816000D03*
X49276000Y-59944000D03*
X61087000Y-25019000D03*
X71120000Y-63500000D03*
X58293000Y-59690000D03*
X40513000Y-28194000D03*
X59436000Y-59690000D03*
X51340000Y-76740000D03*
X44958000Y-56007000D03*
X53975000Y-80645000D03*
X50419000Y-45847000D03*
X45085000Y-49530000D03*
X44958000Y-57404000D03*
X63754000Y-58420000D03*
X27305000Y-37973000D03*
X47117000Y-49530000D03*
X47625000Y-50673000D03*
X44069000Y-49530000D03*
X81280000Y-63675500D03*
X38227000Y-54610000D03*
X93472000Y-52959000D03*
X50419000Y-59944000D03*
X86807000Y-62532500D03*
X37973000Y-40513000D03*
X36957000Y-40513000D03*
X40259000Y-33782000D03*
X44069000Y-52832000D03*
X40513000Y-30099000D03*
X60325000Y-76708000D03*
X59944000Y-25019000D03*
X75311000Y-25019000D03*
X35941000Y-40513000D03*
X67310000Y-58420000D03*
X47117000Y-52832000D03*
X76708000Y-51943000D03*
X46101000Y-52832000D03*
X46101000Y-49530000D03*
X38227000Y-56007000D03*
X66421000Y-25019000D03*
X74168000Y-25019000D03*
X38988500Y-62865500D03*
X50038000Y-76708000D03*
X68961000Y-25019000D03*
X49022000Y-45847000D03*
X75565000Y-51943000D03*
X66167000Y-45974000D03*
X47625000Y-45847000D03*
X46355000Y-45847000D03*
X81280000Y-62532500D03*
X40259000Y-34925000D03*
X86807000Y-63675500D03*
X61690000Y-76740000D03*
X74295000Y-63373000D03*
X59690000Y-69723000D03*
X59690000Y-72517000D03*
X73152000Y-68961000D03*
X62484000Y-40005000D03*
X60138026Y-42731974D03*
X61468000Y-41656000D03*
X64135000Y-40005000D03*
X75565000Y-64135000D03*
X75559286Y-66167000D03*
X32869000Y-36473000D03*
X32893000Y-38481000D03*
X81280000Y-65405000D03*
X90932000Y-65405000D03*
X76708000Y-66167000D03*
X76708000Y-64135000D03*
X77851000Y-64135000D03*
X77851000Y-66167000D03*
X79121000Y-66167000D03*
X79121000Y-64135000D03*
D17*
X73152000Y-68961000D02*
X74295000Y-67818000D01*
D18*
X41402000Y-79375000D02*
X41402000Y-75888000D01*
D17*
X74295000Y-67818000D02*
X74295000Y-63373000D01*
X59690000Y-69723000D02*
X59690000Y-72517000D01*
D19*
X33147000Y-56642000D02*
X29712000Y-56642000D01*
X29712000Y-56642000D02*
X29672000Y-56682000D01*
D20*
X61087000Y-40005000D02*
X60138026Y-40953974D01*
D17*
X60138026Y-42731974D02*
X60138026Y-40953974D01*
D20*
X62484000Y-40005000D02*
X61087000Y-40005000D01*
D17*
X62484000Y-41656000D02*
X64135000Y-40005000D01*
X61468000Y-41656000D02*
X62484000Y-41656000D01*
D19*
X33147000Y-61722000D02*
X29712000Y-61722000D01*
X29712000Y-61722000D02*
X29672000Y-61682000D01*
D17*
X75559286Y-66167000D02*
X75565000Y-66161286D01*
X75565000Y-66161286D02*
X75565000Y-64135000D01*
D18*
X32885000Y-36489000D02*
X32869000Y-36473000D01*
X32893000Y-38481000D02*
X32885000Y-36489000D01*
D17*
X81280000Y-65405000D02*
X90932000Y-65405000D01*
X76708000Y-64135000D02*
X76708000Y-66167000D01*
X77851000Y-64135000D02*
X77851000Y-66167000D01*
X79121000Y-66167000D02*
X79121000Y-64135000D01*
D19*
X87432000Y-79433000D02*
X87432000Y-76002000D01*
X83876000Y-79433000D02*
X83876000Y-75946000D01*
G04 #@! TA.AperFunction,Conductor*
G36*
X96939334Y-19705002D02*
G01*
X96985827Y-19758658D01*
X96995931Y-19828932D01*
X96966437Y-19893512D01*
X96906711Y-19931896D01*
X96884602Y-19936287D01*
X96732263Y-19952567D01*
X96732257Y-19952568D01*
X96728879Y-19952929D01*
X96363289Y-20032641D01*
X96008446Y-20151369D01*
X95668501Y-20307727D01*
X95665567Y-20309483D01*
X95665565Y-20309484D01*
X95656110Y-20315143D01*
X95347431Y-20499883D01*
X95048991Y-20725591D01*
X95046509Y-20727930D01*
X95046503Y-20727935D01*
X95040702Y-20733402D01*
X94776674Y-20982210D01*
X94533664Y-21266738D01*
X94531736Y-21269565D01*
X94531734Y-21269567D01*
X94527111Y-21276345D01*
X94322804Y-21575847D01*
X94146561Y-21905921D01*
X94145288Y-21909089D01*
X94145287Y-21909090D01*
X94143368Y-21913865D01*
X94006997Y-22253098D01*
X93905744Y-22613317D01*
X93843986Y-22982365D01*
X93822447Y-23355924D01*
X93841378Y-23729624D01*
X93841915Y-23732979D01*
X93841916Y-23732985D01*
X93851808Y-23794743D01*
X93900557Y-24099094D01*
X93999293Y-24460011D01*
X94136430Y-24808154D01*
X94310365Y-25139450D01*
X94312262Y-25142274D01*
X94312265Y-25142278D01*
X94508014Y-25433585D01*
X94519061Y-25450024D01*
X94521256Y-25452630D01*
X94521260Y-25452636D01*
X94540961Y-25476031D01*
X94760079Y-25736241D01*
X95030598Y-25994755D01*
X95327455Y-26222541D01*
X95647176Y-26416935D01*
X95986021Y-26575661D01*
X95989239Y-26576763D01*
X95989242Y-26576764D01*
X96336803Y-26695761D01*
X96336811Y-26695763D01*
X96340026Y-26696864D01*
X96705051Y-26779126D01*
X96792200Y-26789056D01*
X97073442Y-26821100D01*
X97073450Y-26821100D01*
X97076825Y-26821485D01*
X97080229Y-26821503D01*
X97080232Y-26821503D01*
X97283556Y-26822567D01*
X97450999Y-26823444D01*
X97454385Y-26823094D01*
X97454387Y-26823094D01*
X97819805Y-26785332D01*
X97819814Y-26785331D01*
X97823197Y-26784981D01*
X97826530Y-26784267D01*
X97826533Y-26784266D01*
X98006820Y-26745616D01*
X98189063Y-26706546D01*
X98544318Y-26589056D01*
X98884807Y-26433887D01*
X98982707Y-26375758D01*
X99203601Y-26244601D01*
X99203606Y-26244598D01*
X99206546Y-26242852D01*
X99236354Y-26220472D01*
X99308828Y-26166056D01*
X99505771Y-26018187D01*
X99778983Y-25762521D01*
X100022985Y-25478842D01*
X100044737Y-25447192D01*
X100232992Y-25173280D01*
X100232997Y-25173273D01*
X100234922Y-25170471D01*
X100236534Y-25167477D01*
X100236539Y-25167469D01*
X100410694Y-24844027D01*
X100412316Y-24841015D01*
X100553091Y-24494327D01*
X100655601Y-24134463D01*
X100714801Y-23788134D01*
X100745995Y-23724357D01*
X100806718Y-23687570D01*
X100877689Y-23689451D01*
X100936377Y-23729404D01*
X100964149Y-23794743D01*
X100965000Y-23809364D01*
X100965000Y-77797195D01*
X100944998Y-77865316D01*
X100891342Y-77911809D01*
X100821068Y-77921913D01*
X100756488Y-77892419D01*
X100718104Y-77832693D01*
X100714656Y-77817557D01*
X100704912Y-77758055D01*
X100660870Y-77489107D01*
X100560875Y-77128537D01*
X100559519Y-77125128D01*
X100423783Y-76784039D01*
X100423779Y-76784031D01*
X100422523Y-76780874D01*
X100247434Y-76450188D01*
X100245534Y-76447382D01*
X100245530Y-76447375D01*
X100064972Y-76180694D01*
X100037654Y-76140345D01*
X99795639Y-75854970D01*
X99524219Y-75597402D01*
X99521512Y-75595340D01*
X99521504Y-75595333D01*
X99229281Y-75372720D01*
X99226569Y-75370654D01*
X99019292Y-75245616D01*
X98909100Y-75179143D01*
X98909096Y-75179141D01*
X98906172Y-75177377D01*
X98903082Y-75175943D01*
X98903077Y-75175940D01*
X98569871Y-75021272D01*
X98569869Y-75021271D01*
X98566775Y-75019835D01*
X98563540Y-75018740D01*
X98563535Y-75018738D01*
X98215583Y-74900963D01*
X98212348Y-74899868D01*
X97847038Y-74818881D01*
X97714294Y-74804226D01*
X97478500Y-74778193D01*
X97478495Y-74778193D01*
X97475119Y-74777820D01*
X97471720Y-74777814D01*
X97471719Y-74777814D01*
X97294987Y-74777506D01*
X97100940Y-74777167D01*
X96962079Y-74792007D01*
X96732263Y-74816567D01*
X96732257Y-74816568D01*
X96728879Y-74816929D01*
X96363289Y-74896641D01*
X96008446Y-75015369D01*
X96005353Y-75016791D01*
X96005352Y-75016792D01*
X95971301Y-75032454D01*
X95668501Y-75171727D01*
X95665567Y-75173483D01*
X95665565Y-75173484D01*
X95591719Y-75217680D01*
X95347431Y-75363883D01*
X95048991Y-75589591D01*
X95046509Y-75591930D01*
X95046503Y-75591935D01*
X94920364Y-75710803D01*
X94776674Y-75846210D01*
X94774462Y-75848800D01*
X94774461Y-75848801D01*
X94535888Y-76128134D01*
X94533664Y-76130738D01*
X94531736Y-76133565D01*
X94531734Y-76133567D01*
X94368931Y-76372228D01*
X94322804Y-76439847D01*
X94321197Y-76442857D01*
X94321195Y-76442860D01*
X94216749Y-76638470D01*
X94146561Y-76769921D01*
X94145288Y-76773089D01*
X94145287Y-76773090D01*
X94013543Y-77100815D01*
X94006997Y-77117098D01*
X93959415Y-77286377D01*
X93907553Y-77470883D01*
X93905744Y-77477317D01*
X93843986Y-77846365D01*
X93822447Y-78219924D01*
X93841378Y-78593624D01*
X93841915Y-78596979D01*
X93841916Y-78596985D01*
X93851808Y-78658743D01*
X93900557Y-78963094D01*
X93999293Y-79324011D01*
X94136430Y-79672154D01*
X94310365Y-80003450D01*
X94312262Y-80006274D01*
X94312265Y-80006278D01*
X94458028Y-80223197D01*
X94519061Y-80314024D01*
X94521256Y-80316630D01*
X94521260Y-80316636D01*
X94540961Y-80340031D01*
X94760079Y-80600241D01*
X95030598Y-80858755D01*
X95327455Y-81086541D01*
X95647176Y-81280935D01*
X95986021Y-81439661D01*
X95989239Y-81440763D01*
X95989242Y-81440764D01*
X96336803Y-81559761D01*
X96336811Y-81559763D01*
X96340026Y-81560864D01*
X96705051Y-81643126D01*
X96869556Y-81661869D01*
X96886589Y-81663810D01*
X96952007Y-81691395D01*
X96992127Y-81749969D01*
X96994211Y-81820935D01*
X96957596Y-81881762D01*
X96893909Y-81913138D01*
X96872325Y-81915000D01*
X30130036Y-81915000D01*
X30061915Y-81894998D01*
X30015422Y-81841342D01*
X30005318Y-81771068D01*
X30034812Y-81706488D01*
X30094538Y-81668104D01*
X30117084Y-81663667D01*
X30255805Y-81649332D01*
X30255814Y-81649331D01*
X30259197Y-81648981D01*
X30262530Y-81648267D01*
X30262533Y-81648266D01*
X30442820Y-81609616D01*
X30625063Y-81570546D01*
X30980318Y-81453056D01*
X31320807Y-81297887D01*
X31418707Y-81239758D01*
X31639601Y-81108601D01*
X31639606Y-81108598D01*
X31642546Y-81106852D01*
X31672354Y-81084472D01*
X31823780Y-80970777D01*
X31941771Y-80882187D01*
X32214983Y-80626521D01*
X32458985Y-80342842D01*
X32533801Y-80233984D01*
X32668992Y-80037280D01*
X32668997Y-80037273D01*
X32670922Y-80034471D01*
X32672534Y-80031477D01*
X32672539Y-80031469D01*
X32846694Y-79708027D01*
X32848316Y-79705015D01*
X32940782Y-79477299D01*
X32987811Y-79361480D01*
X32987813Y-79361475D01*
X32989091Y-79358327D01*
X33091601Y-78998463D01*
X33105112Y-78919421D01*
X33154075Y-78632981D01*
X33154075Y-78632979D01*
X33154647Y-78629634D01*
X33156729Y-78595602D01*
X33177380Y-78257948D01*
X33177490Y-78256152D01*
X33177574Y-78232000D01*
X33157339Y-77858368D01*
X33096870Y-77489107D01*
X32996875Y-77128537D01*
X32995519Y-77125128D01*
X32859783Y-76784039D01*
X32859779Y-76784031D01*
X32858523Y-76780874D01*
X32683434Y-76450188D01*
X32681534Y-76447382D01*
X32681530Y-76447375D01*
X32500972Y-76180694D01*
X32473654Y-76140345D01*
X32231639Y-75854970D01*
X31960219Y-75597402D01*
X31957512Y-75595340D01*
X31957504Y-75595333D01*
X31665281Y-75372720D01*
X31662569Y-75370654D01*
X31455292Y-75245616D01*
X31345100Y-75179143D01*
X31345096Y-75179141D01*
X31342172Y-75177377D01*
X31339082Y-75175943D01*
X31339077Y-75175940D01*
X31005871Y-75021272D01*
X31005869Y-75021271D01*
X31002775Y-75019835D01*
X30999540Y-75018740D01*
X30999535Y-75018738D01*
X30651583Y-74900963D01*
X30648348Y-74899868D01*
X30283038Y-74818881D01*
X30150294Y-74804226D01*
X29914500Y-74778193D01*
X29914495Y-74778193D01*
X29911119Y-74777820D01*
X29907720Y-74777814D01*
X29907719Y-74777814D01*
X29730987Y-74777506D01*
X29536940Y-74777167D01*
X29398079Y-74792007D01*
X29168263Y-74816567D01*
X29168257Y-74816568D01*
X29164879Y-74816929D01*
X28799289Y-74896641D01*
X28444446Y-75015369D01*
X28441353Y-75016791D01*
X28441352Y-75016792D01*
X28407301Y-75032454D01*
X28104501Y-75171727D01*
X28101567Y-75173483D01*
X28101565Y-75173484D01*
X28027719Y-75217680D01*
X27783431Y-75363883D01*
X27484991Y-75589591D01*
X27482509Y-75591930D01*
X27482503Y-75591935D01*
X27356364Y-75710803D01*
X27212674Y-75846210D01*
X27210462Y-75848800D01*
X27210461Y-75848801D01*
X26971888Y-76128134D01*
X26969664Y-76130738D01*
X26967736Y-76133565D01*
X26967734Y-76133567D01*
X26804931Y-76372228D01*
X26758804Y-76439847D01*
X26757197Y-76442857D01*
X26757195Y-76442860D01*
X26652749Y-76638470D01*
X26582561Y-76769921D01*
X26581288Y-76773089D01*
X26581287Y-76773090D01*
X26449543Y-77100815D01*
X26442997Y-77117098D01*
X26395415Y-77286377D01*
X26343553Y-77470883D01*
X26341744Y-77477317D01*
X26341182Y-77480674D01*
X26341182Y-77480675D01*
X26285272Y-77814777D01*
X26254301Y-77878662D01*
X26193708Y-77915662D01*
X26122730Y-77914028D01*
X26063902Y-77874281D01*
X26035903Y-77809039D01*
X26035000Y-77793981D01*
X26035000Y-74712933D01*
X36497500Y-74712933D01*
X36497501Y-77063066D01*
X36502513Y-77088266D01*
X36508248Y-77117098D01*
X36512266Y-77137301D01*
X36519161Y-77147620D01*
X36519162Y-77147622D01*
X36529464Y-77163040D01*
X36568516Y-77221484D01*
X36652699Y-77277734D01*
X36726933Y-77292500D01*
X37901810Y-77292500D01*
X39077066Y-77292499D01*
X39112818Y-77285388D01*
X39139126Y-77280156D01*
X39139128Y-77280155D01*
X39151301Y-77277734D01*
X39161621Y-77270839D01*
X39161622Y-77270838D01*
X39225168Y-77228377D01*
X39235484Y-77221484D01*
X39291734Y-77137301D01*
X39306500Y-77063067D01*
X39306499Y-75853567D01*
X39993107Y-75853567D01*
X39993404Y-75858720D01*
X39993404Y-75858723D01*
X39999253Y-75960167D01*
X40006401Y-76084139D01*
X40007538Y-76089185D01*
X40007539Y-76089191D01*
X40021916Y-76152983D01*
X40057176Y-76309442D01*
X40144066Y-76523428D01*
X40264740Y-76720349D01*
X40415955Y-76894916D01*
X40593651Y-77042442D01*
X40598103Y-77045044D01*
X40598108Y-77045047D01*
X40767571Y-77144073D01*
X40816294Y-77195712D01*
X40830000Y-77252861D01*
X40830000Y-78813946D01*
X40809998Y-78882067D01*
X40771742Y-78918547D01*
X40772354Y-78919421D01*
X40597054Y-79042167D01*
X40597051Y-79042169D01*
X40592543Y-79045326D01*
X40437326Y-79200543D01*
X40434169Y-79205051D01*
X40434167Y-79205054D01*
X40314578Y-79375845D01*
X40311421Y-79380354D01*
X40309098Y-79385336D01*
X40309095Y-79385341D01*
X40286478Y-79433845D01*
X40218653Y-79579297D01*
X40161839Y-79791326D01*
X40142708Y-80010000D01*
X40161839Y-80228674D01*
X40218653Y-80440703D01*
X40220978Y-80445688D01*
X40309095Y-80634659D01*
X40309098Y-80634664D01*
X40311421Y-80639646D01*
X40437326Y-80819457D01*
X40592543Y-80974674D01*
X40597051Y-80977831D01*
X40597054Y-80977833D01*
X40754826Y-81088306D01*
X40772354Y-81100579D01*
X40777336Y-81102902D01*
X40777341Y-81102905D01*
X40878116Y-81149896D01*
X40971297Y-81193347D01*
X41183326Y-81250161D01*
X41402000Y-81269292D01*
X41620674Y-81250161D01*
X41832703Y-81193347D01*
X41925884Y-81149896D01*
X42026659Y-81102905D01*
X42026664Y-81102902D01*
X42031646Y-81100579D01*
X42049174Y-81088306D01*
X42206946Y-80977833D01*
X42206949Y-80977831D01*
X42211457Y-80974674D01*
X42366674Y-80819457D01*
X42492579Y-80639646D01*
X42494902Y-80634664D01*
X42494905Y-80634659D01*
X42583022Y-80445688D01*
X42585347Y-80440703D01*
X42642161Y-80228674D01*
X42661292Y-80010000D01*
X42642161Y-79791326D01*
X42585347Y-79579297D01*
X42517522Y-79433845D01*
X42494905Y-79385341D01*
X42494902Y-79385336D01*
X42492579Y-79380354D01*
X42489422Y-79375845D01*
X42369833Y-79205054D01*
X42369831Y-79205051D01*
X42366674Y-79200543D01*
X42211457Y-79045326D01*
X42206949Y-79042169D01*
X42206946Y-79042167D01*
X42031646Y-78919421D01*
X42032440Y-78918287D01*
X41988001Y-78871671D01*
X41974000Y-78813946D01*
X41974000Y-77250427D01*
X41979938Y-77230204D01*
X43925151Y-77230204D01*
X43929720Y-77236735D01*
X44142736Y-77367271D01*
X44151530Y-77371752D01*
X44383492Y-77467834D01*
X44392877Y-77470883D01*
X44637017Y-77529496D01*
X44646764Y-77531039D01*
X44897070Y-77550739D01*
X44906930Y-77550739D01*
X45157236Y-77531039D01*
X45166983Y-77529496D01*
X45411123Y-77470883D01*
X45420508Y-77467834D01*
X45652470Y-77371752D01*
X45661264Y-77367271D01*
X45872875Y-77237596D01*
X45878922Y-77228330D01*
X45872915Y-77218125D01*
X44914812Y-76260022D01*
X44900868Y-76252408D01*
X44899035Y-76252539D01*
X44892420Y-76256790D01*
X43932544Y-77216666D01*
X43925151Y-77230204D01*
X41979938Y-77230204D01*
X41994002Y-77182306D01*
X42044566Y-77137277D01*
X42123629Y-77098544D01*
X42127832Y-77095546D01*
X42127837Y-77095543D01*
X42307449Y-76967427D01*
X42307451Y-76967425D01*
X42311653Y-76964428D01*
X42475247Y-76801404D01*
X42489006Y-76782257D01*
X42607000Y-76618050D01*
X42610018Y-76613850D01*
X42623866Y-76585832D01*
X42681388Y-76469444D01*
X42712347Y-76406803D01*
X42727397Y-76357267D01*
X42777982Y-76190775D01*
X42777983Y-76190769D01*
X42779486Y-76185823D01*
X42809631Y-75956845D01*
X42810738Y-75911567D01*
X42811194Y-75892930D01*
X43239261Y-75892930D01*
X43258961Y-76143236D01*
X43260504Y-76152983D01*
X43319117Y-76397123D01*
X43322166Y-76406508D01*
X43418248Y-76638470D01*
X43422729Y-76647264D01*
X43552404Y-76858875D01*
X43561670Y-76864922D01*
X43571875Y-76858915D01*
X44529978Y-75900812D01*
X44536356Y-75889132D01*
X45266408Y-75889132D01*
X45266539Y-75890965D01*
X45270790Y-75897580D01*
X46230666Y-76857456D01*
X46244204Y-76864849D01*
X46250735Y-76860280D01*
X46381271Y-76647264D01*
X46385752Y-76638470D01*
X46481834Y-76406508D01*
X46484883Y-76397123D01*
X46543496Y-76152983D01*
X46545039Y-76143236D01*
X46564739Y-75892930D01*
X46564739Y-75883070D01*
X46545039Y-75632764D01*
X46543496Y-75623017D01*
X46484883Y-75378877D01*
X46481834Y-75369492D01*
X46385752Y-75137530D01*
X46381271Y-75128736D01*
X46251596Y-74917125D01*
X46242330Y-74911078D01*
X46232125Y-74917085D01*
X45274022Y-75875188D01*
X45266408Y-75889132D01*
X44536356Y-75889132D01*
X44537592Y-75886868D01*
X44537461Y-75885035D01*
X44533210Y-75878420D01*
X43573334Y-74918544D01*
X43559796Y-74911151D01*
X43553265Y-74915720D01*
X43422729Y-75128736D01*
X43418248Y-75137530D01*
X43322166Y-75369492D01*
X43319117Y-75378877D01*
X43260504Y-75623017D01*
X43258961Y-75632764D01*
X43239261Y-75883070D01*
X43239261Y-75892930D01*
X42811194Y-75892930D01*
X42811232Y-75891364D01*
X42811232Y-75891360D01*
X42811314Y-75888000D01*
X42792390Y-75657822D01*
X42736126Y-75433826D01*
X42644033Y-75222028D01*
X42583680Y-75128736D01*
X42521393Y-75032454D01*
X42521391Y-75032451D01*
X42518585Y-75028114D01*
X42363150Y-74857293D01*
X42262150Y-74777528D01*
X42185956Y-74717353D01*
X42185951Y-74717350D01*
X42181902Y-74714152D01*
X42177386Y-74711659D01*
X42177383Y-74711657D01*
X41984234Y-74605033D01*
X41984230Y-74605031D01*
X41979710Y-74602536D01*
X41974841Y-74600812D01*
X41974837Y-74600810D01*
X41824774Y-74547670D01*
X43925078Y-74547670D01*
X43931085Y-74557875D01*
X44889188Y-75515978D01*
X44903132Y-75523592D01*
X44904965Y-75523461D01*
X44911580Y-75519210D01*
X45659857Y-74770933D01*
X78986500Y-74770933D01*
X78986501Y-77121066D01*
X79001266Y-77195301D01*
X79008161Y-77205620D01*
X79008162Y-77205622D01*
X79029527Y-77237596D01*
X79057516Y-77279484D01*
X79141699Y-77335734D01*
X79215933Y-77350500D01*
X80390810Y-77350500D01*
X81566066Y-77350499D01*
X81601818Y-77343388D01*
X81628126Y-77338156D01*
X81628128Y-77338155D01*
X81640301Y-77335734D01*
X81650621Y-77328839D01*
X81650622Y-77328838D01*
X81714168Y-77286377D01*
X81724484Y-77279484D01*
X81780734Y-77195301D01*
X81795500Y-77121067D01*
X81795499Y-75911567D01*
X82482107Y-75911567D01*
X82482404Y-75916720D01*
X82482404Y-75916723D01*
X82494744Y-76130738D01*
X82495401Y-76142139D01*
X82496538Y-76147185D01*
X82496539Y-76147191D01*
X82517161Y-76238694D01*
X82546176Y-76367442D01*
X82633066Y-76581428D01*
X82753740Y-76778349D01*
X82904955Y-76952916D01*
X83037633Y-77063067D01*
X83067985Y-77088266D01*
X83107620Y-77147169D01*
X83113500Y-77185210D01*
X83113500Y-79005796D01*
X83093498Y-79073917D01*
X83069309Y-79101389D01*
X83066543Y-79103326D01*
X82911326Y-79258543D01*
X82908169Y-79263051D01*
X82908167Y-79263054D01*
X82829190Y-79375845D01*
X82785421Y-79438354D01*
X82783098Y-79443336D01*
X82783095Y-79443341D01*
X82736104Y-79544116D01*
X82692653Y-79637297D01*
X82635839Y-79849326D01*
X82616708Y-80068000D01*
X82635839Y-80286674D01*
X82692653Y-80498703D01*
X82694978Y-80503688D01*
X82783095Y-80692659D01*
X82783098Y-80692664D01*
X82785421Y-80697646D01*
X82788577Y-80702153D01*
X82788578Y-80702155D01*
X82899681Y-80860826D01*
X82911326Y-80877457D01*
X83066543Y-81032674D01*
X83071051Y-81035831D01*
X83071054Y-81035833D01*
X83172480Y-81106852D01*
X83246354Y-81158579D01*
X83251336Y-81160902D01*
X83251341Y-81160905D01*
X83323966Y-81194770D01*
X83445297Y-81251347D01*
X83657326Y-81308161D01*
X83876000Y-81327292D01*
X84094674Y-81308161D01*
X84306703Y-81251347D01*
X84428034Y-81194770D01*
X84500659Y-81160905D01*
X84500664Y-81160902D01*
X84505646Y-81158579D01*
X84579520Y-81106852D01*
X84680946Y-81035833D01*
X84680949Y-81035831D01*
X84685457Y-81032674D01*
X84840674Y-80877457D01*
X84852320Y-80860826D01*
X84963422Y-80702155D01*
X84963423Y-80702153D01*
X84966579Y-80697646D01*
X84968902Y-80692664D01*
X84968905Y-80692659D01*
X85057022Y-80503688D01*
X85059347Y-80498703D01*
X85116161Y-80286674D01*
X85135292Y-80068000D01*
X85116161Y-79849326D01*
X85059347Y-79637297D01*
X85015896Y-79544116D01*
X84968905Y-79443341D01*
X84968902Y-79443336D01*
X84966579Y-79438354D01*
X84922810Y-79375845D01*
X84843833Y-79263054D01*
X84843831Y-79263051D01*
X84840674Y-79258543D01*
X84685457Y-79103326D01*
X84683064Y-79101651D01*
X84644182Y-79043205D01*
X84638500Y-79005796D01*
X84638500Y-77202984D01*
X84658502Y-77134863D01*
X84691331Y-77100407D01*
X84800653Y-77022428D01*
X84964247Y-76859404D01*
X85020677Y-76780874D01*
X85096000Y-76676050D01*
X85099018Y-76671850D01*
X85115516Y-76638470D01*
X85172373Y-76523428D01*
X85201347Y-76464803D01*
X85221910Y-76397123D01*
X85266982Y-76248775D01*
X85266983Y-76248769D01*
X85268486Y-76243823D01*
X85283374Y-76130738D01*
X85298194Y-76018167D01*
X85298194Y-76018161D01*
X85298631Y-76014845D01*
X85300314Y-75946000D01*
X85297483Y-75911567D01*
X85982107Y-75911567D01*
X85982404Y-75916720D01*
X85982404Y-75916723D01*
X85994744Y-76130738D01*
X85995401Y-76142139D01*
X85996538Y-76147185D01*
X85996539Y-76147191D01*
X86017161Y-76238694D01*
X86046176Y-76367442D01*
X86133066Y-76581428D01*
X86253740Y-76778349D01*
X86404955Y-76952916D01*
X86488683Y-77022428D01*
X86575999Y-77094919D01*
X86582651Y-77100442D01*
X86587104Y-77103044D01*
X86587108Y-77103047D01*
X86607071Y-77114712D01*
X86655794Y-77166351D01*
X86669500Y-77223500D01*
X86669500Y-79005796D01*
X86649498Y-79073917D01*
X86625309Y-79101389D01*
X86622543Y-79103326D01*
X86467326Y-79258543D01*
X86464169Y-79263051D01*
X86464167Y-79263054D01*
X86385190Y-79375845D01*
X86341421Y-79438354D01*
X86339098Y-79443336D01*
X86339095Y-79443341D01*
X86292104Y-79544116D01*
X86248653Y-79637297D01*
X86191839Y-79849326D01*
X86172708Y-80068000D01*
X86191839Y-80286674D01*
X86248653Y-80498703D01*
X86250978Y-80503688D01*
X86339095Y-80692659D01*
X86339098Y-80692664D01*
X86341421Y-80697646D01*
X86344577Y-80702153D01*
X86344578Y-80702155D01*
X86455681Y-80860826D01*
X86467326Y-80877457D01*
X86622543Y-81032674D01*
X86627051Y-81035831D01*
X86627054Y-81035833D01*
X86728480Y-81106852D01*
X86802354Y-81158579D01*
X86807336Y-81160902D01*
X86807341Y-81160905D01*
X86879966Y-81194770D01*
X87001297Y-81251347D01*
X87213326Y-81308161D01*
X87432000Y-81327292D01*
X87650674Y-81308161D01*
X87862703Y-81251347D01*
X87984034Y-81194770D01*
X88056659Y-81160905D01*
X88056664Y-81160902D01*
X88061646Y-81158579D01*
X88135520Y-81106852D01*
X88236946Y-81035833D01*
X88236949Y-81035831D01*
X88241457Y-81032674D01*
X88396674Y-80877457D01*
X88408320Y-80860826D01*
X88519422Y-80702155D01*
X88519423Y-80702153D01*
X88522579Y-80697646D01*
X88524902Y-80692664D01*
X88524905Y-80692659D01*
X88613022Y-80503688D01*
X88615347Y-80498703D01*
X88672161Y-80286674D01*
X88691292Y-80068000D01*
X88672161Y-79849326D01*
X88615347Y-79637297D01*
X88571896Y-79544116D01*
X88524905Y-79443341D01*
X88524902Y-79443336D01*
X88522579Y-79438354D01*
X88478810Y-79375845D01*
X88399833Y-79263054D01*
X88399831Y-79263051D01*
X88396674Y-79258543D01*
X88241457Y-79103326D01*
X88239064Y-79101651D01*
X88200182Y-79043205D01*
X88194500Y-79005796D01*
X88194500Y-77163040D01*
X88214502Y-77094919D01*
X88247331Y-77060462D01*
X88300653Y-77022428D01*
X88464247Y-76859404D01*
X88520677Y-76780874D01*
X88596000Y-76676050D01*
X88599018Y-76671850D01*
X88615516Y-76638470D01*
X88672373Y-76523428D01*
X88701347Y-76464803D01*
X88721910Y-76397123D01*
X88766982Y-76248775D01*
X88766983Y-76248769D01*
X88768486Y-76243823D01*
X88783374Y-76130738D01*
X88798194Y-76018167D01*
X88798194Y-76018161D01*
X88798631Y-76014845D01*
X88800314Y-75946000D01*
X88781390Y-75715822D01*
X88725126Y-75491826D01*
X88633033Y-75280028D01*
X88567768Y-75179143D01*
X88510393Y-75090454D01*
X88510391Y-75090451D01*
X88507585Y-75086114D01*
X88352150Y-74915293D01*
X88245433Y-74831013D01*
X88174956Y-74775353D01*
X88174951Y-74775350D01*
X88170902Y-74772152D01*
X88166386Y-74769659D01*
X88166383Y-74769657D01*
X87973234Y-74663033D01*
X87973230Y-74663031D01*
X87968710Y-74660536D01*
X87963841Y-74658812D01*
X87963837Y-74658810D01*
X87755878Y-74585168D01*
X87755874Y-74585167D01*
X87751003Y-74583442D01*
X87745913Y-74582535D01*
X87745908Y-74582534D01*
X87598435Y-74556266D01*
X87523628Y-74542941D01*
X87437124Y-74541884D01*
X87297861Y-74540182D01*
X87297859Y-74540182D01*
X87292691Y-74540119D01*
X87064394Y-74575053D01*
X86844869Y-74646805D01*
X86837053Y-74650874D01*
X86717837Y-74712934D01*
X86640010Y-74753448D01*
X86635877Y-74756551D01*
X86635874Y-74756553D01*
X86496615Y-74861112D01*
X86455319Y-74892118D01*
X86295757Y-75059090D01*
X86165609Y-75249881D01*
X86163435Y-75254565D01*
X86163433Y-75254568D01*
X86095292Y-75401366D01*
X86068369Y-75459366D01*
X86006649Y-75681921D01*
X85982107Y-75911567D01*
X85297483Y-75911567D01*
X85281390Y-75715822D01*
X85225126Y-75491826D01*
X85133033Y-75280028D01*
X85067768Y-75179143D01*
X85010393Y-75090454D01*
X85010391Y-75090451D01*
X85007585Y-75086114D01*
X84852150Y-74915293D01*
X84745433Y-74831013D01*
X84674956Y-74775353D01*
X84674951Y-74775350D01*
X84670902Y-74772152D01*
X84666386Y-74769659D01*
X84666383Y-74769657D01*
X84473234Y-74663033D01*
X84473230Y-74663031D01*
X84468710Y-74660536D01*
X84463841Y-74658812D01*
X84463837Y-74658810D01*
X84255878Y-74585168D01*
X84255874Y-74585167D01*
X84251003Y-74583442D01*
X84245913Y-74582535D01*
X84245908Y-74582534D01*
X84098435Y-74556266D01*
X84023628Y-74542941D01*
X83937124Y-74541884D01*
X83797861Y-74540182D01*
X83797859Y-74540182D01*
X83792691Y-74540119D01*
X83564394Y-74575053D01*
X83344869Y-74646805D01*
X83337053Y-74650874D01*
X83217837Y-74712934D01*
X83140010Y-74753448D01*
X83135877Y-74756551D01*
X83135874Y-74756553D01*
X82996615Y-74861112D01*
X82955319Y-74892118D01*
X82795757Y-75059090D01*
X82665609Y-75249881D01*
X82663435Y-75254565D01*
X82663433Y-75254568D01*
X82595292Y-75401366D01*
X82568369Y-75459366D01*
X82506649Y-75681921D01*
X82482107Y-75911567D01*
X81795499Y-75911567D01*
X81795499Y-74770934D01*
X81785194Y-74719123D01*
X81783156Y-74708874D01*
X81783155Y-74708872D01*
X81780734Y-74696699D01*
X81756571Y-74660536D01*
X81731377Y-74622832D01*
X81724484Y-74612516D01*
X81640301Y-74556266D01*
X81566067Y-74541500D01*
X80391190Y-74541500D01*
X79215934Y-74541501D01*
X79185154Y-74547623D01*
X79153874Y-74553844D01*
X79153872Y-74553845D01*
X79141699Y-74556266D01*
X79131379Y-74563161D01*
X79131378Y-74563162D01*
X79089425Y-74591195D01*
X79057516Y-74612516D01*
X79001266Y-74696699D01*
X78986500Y-74770933D01*
X45659857Y-74770933D01*
X45871456Y-74559334D01*
X45878849Y-74545796D01*
X45874280Y-74539265D01*
X45661264Y-74408729D01*
X45652470Y-74404248D01*
X45420508Y-74308166D01*
X45411123Y-74305117D01*
X45166983Y-74246504D01*
X45157236Y-74244961D01*
X44906930Y-74225261D01*
X44897070Y-74225261D01*
X44646764Y-74244961D01*
X44637017Y-74246504D01*
X44392877Y-74305117D01*
X44383492Y-74308166D01*
X44151530Y-74404248D01*
X44142736Y-74408729D01*
X43931125Y-74538404D01*
X43925078Y-74547670D01*
X41824774Y-74547670D01*
X41766878Y-74527168D01*
X41766874Y-74527167D01*
X41762003Y-74525442D01*
X41756913Y-74524535D01*
X41756908Y-74524534D01*
X41609435Y-74498266D01*
X41534628Y-74484941D01*
X41448124Y-74483884D01*
X41308861Y-74482182D01*
X41308859Y-74482182D01*
X41303691Y-74482119D01*
X41075394Y-74517053D01*
X40855869Y-74588805D01*
X40851277Y-74591195D01*
X40851278Y-74591195D01*
X40713279Y-74663033D01*
X40651010Y-74695448D01*
X40646877Y-74698551D01*
X40646874Y-74698553D01*
X40470454Y-74831013D01*
X40466319Y-74834118D01*
X40306757Y-75001090D01*
X40176609Y-75191881D01*
X40174435Y-75196565D01*
X40174433Y-75196568D01*
X40094444Y-75368890D01*
X40079369Y-75401366D01*
X40017649Y-75623921D01*
X39993107Y-75853567D01*
X39306499Y-75853567D01*
X39306499Y-74712934D01*
X39296574Y-74663033D01*
X39294156Y-74650874D01*
X39294155Y-74650872D01*
X39291734Y-74638699D01*
X39267571Y-74602536D01*
X39242377Y-74564832D01*
X39235484Y-74554516D01*
X39151301Y-74498266D01*
X39077067Y-74483500D01*
X37902190Y-74483500D01*
X36726934Y-74483501D01*
X36691182Y-74490612D01*
X36664874Y-74495844D01*
X36664872Y-74495845D01*
X36652699Y-74498266D01*
X36642379Y-74505161D01*
X36642378Y-74505162D01*
X36587996Y-74541500D01*
X36568516Y-74554516D01*
X36512266Y-74638699D01*
X36497500Y-74712933D01*
X26035000Y-74712933D01*
X26035000Y-72510096D01*
X59030729Y-72510096D01*
X59048113Y-72667553D01*
X59102553Y-72816319D01*
X59190908Y-72947805D01*
X59196527Y-72952918D01*
X59196528Y-72952919D01*
X59207903Y-72963269D01*
X59308076Y-73054419D01*
X59447293Y-73130008D01*
X59600522Y-73170207D01*
X59684477Y-73171526D01*
X59751319Y-73172576D01*
X59751322Y-73172576D01*
X59758916Y-73172695D01*
X59913332Y-73137329D01*
X59983742Y-73101917D01*
X60048072Y-73069563D01*
X60048075Y-73069561D01*
X60054855Y-73066151D01*
X60060626Y-73061222D01*
X60060629Y-73061220D01*
X60169536Y-72968204D01*
X60169536Y-72968203D01*
X60175314Y-72963269D01*
X60267755Y-72834624D01*
X60326842Y-72687641D01*
X60349162Y-72530807D01*
X60349307Y-72517000D01*
X60330276Y-72359733D01*
X60274280Y-72211546D01*
X60184553Y-72080992D01*
X60113681Y-72017847D01*
X60076126Y-71957598D01*
X60071500Y-71923771D01*
X60071500Y-70316022D01*
X60091502Y-70247901D01*
X60115669Y-70220211D01*
X60169536Y-70174204D01*
X60175314Y-70169269D01*
X60267755Y-70040624D01*
X60326842Y-69893641D01*
X60349162Y-69736807D01*
X60349307Y-69723000D01*
X60330276Y-69565733D01*
X60274280Y-69417546D01*
X60184553Y-69286992D01*
X60066275Y-69181611D01*
X60058889Y-69177700D01*
X59932988Y-69111039D01*
X59932989Y-69111039D01*
X59926274Y-69107484D01*
X59772633Y-69068892D01*
X59765034Y-69068852D01*
X59765033Y-69068852D01*
X59699181Y-69068507D01*
X59614221Y-69068062D01*
X59606841Y-69069834D01*
X59606839Y-69069834D01*
X59467563Y-69103271D01*
X59467560Y-69103272D01*
X59460184Y-69105043D01*
X59319414Y-69177700D01*
X59200039Y-69281838D01*
X59108950Y-69411444D01*
X59106190Y-69418524D01*
X59079103Y-69487999D01*
X59051406Y-69559037D01*
X59030729Y-69716096D01*
X59048113Y-69873553D01*
X59102553Y-70022319D01*
X59190908Y-70153805D01*
X59196527Y-70158918D01*
X59196528Y-70158919D01*
X59267299Y-70223315D01*
X59304222Y-70283955D01*
X59308500Y-70316509D01*
X59308500Y-71923933D01*
X59288498Y-71992054D01*
X59265330Y-72018881D01*
X59200039Y-72075838D01*
X59108950Y-72205444D01*
X59051406Y-72353037D01*
X59030729Y-72510096D01*
X26035000Y-72510096D01*
X26035000Y-68827096D01*
X72619729Y-68827096D01*
X72637113Y-68984553D01*
X72639723Y-68991684D01*
X72639723Y-68991686D01*
X72683400Y-69111039D01*
X72691553Y-69133319D01*
X72779908Y-69264805D01*
X72785527Y-69269918D01*
X72785528Y-69269919D01*
X72793141Y-69276846D01*
X72897076Y-69371419D01*
X73036293Y-69447008D01*
X73189522Y-69487207D01*
X73273477Y-69488526D01*
X73340319Y-69489576D01*
X73340322Y-69489576D01*
X73347916Y-69489695D01*
X73502332Y-69454329D01*
X73587600Y-69411444D01*
X73637072Y-69386563D01*
X73637075Y-69386561D01*
X73643855Y-69383151D01*
X73649626Y-69378222D01*
X73649629Y-69378220D01*
X73758536Y-69285204D01*
X73758536Y-69285203D01*
X73764314Y-69280269D01*
X73856755Y-69151624D01*
X73915842Y-69004641D01*
X73938162Y-68847807D01*
X73938307Y-68834000D01*
X73932743Y-68788019D01*
X73944417Y-68717989D01*
X73968735Y-68683788D01*
X74526482Y-68126040D01*
X74545478Y-68110699D01*
X74546552Y-68109722D01*
X74555304Y-68104071D01*
X74576229Y-68077528D01*
X74580206Y-68073053D01*
X74580135Y-68072992D01*
X74583488Y-68069035D01*
X74587171Y-68065352D01*
X74598455Y-68049561D01*
X74602018Y-68044815D01*
X74627488Y-68012507D01*
X74627489Y-68012506D01*
X74633934Y-68004330D01*
X74636985Y-67995643D01*
X74642334Y-67988157D01*
X74657099Y-67938786D01*
X74658933Y-67933141D01*
X74676016Y-67884498D01*
X74676500Y-67878909D01*
X74676500Y-67876198D01*
X74676615Y-67873531D01*
X74676634Y-67873468D01*
X74676808Y-67873475D01*
X74676855Y-67872729D01*
X74678725Y-67866476D01*
X74676597Y-67812322D01*
X74676500Y-67807375D01*
X74676500Y-66370219D01*
X74696502Y-66302098D01*
X74750158Y-66255605D01*
X74820432Y-66245501D01*
X74885012Y-66274995D01*
X74920826Y-66326918D01*
X74925407Y-66339435D01*
X74971839Y-66466319D01*
X74976075Y-66472622D01*
X74976075Y-66472623D01*
X75050528Y-66583420D01*
X75060194Y-66597805D01*
X75065813Y-66602918D01*
X75065814Y-66602919D01*
X75082609Y-66618201D01*
X75177362Y-66704419D01*
X75316579Y-66780008D01*
X75469808Y-66820207D01*
X75553763Y-66821526D01*
X75620605Y-66822576D01*
X75620608Y-66822576D01*
X75628202Y-66822695D01*
X75782618Y-66787329D01*
X75853028Y-66751917D01*
X75917358Y-66719563D01*
X75917361Y-66719561D01*
X75924141Y-66716151D01*
X75929912Y-66711222D01*
X75929915Y-66711220D01*
X76038826Y-66618201D01*
X76038828Y-66618199D01*
X76044600Y-66613269D01*
X76044641Y-66613317D01*
X76102505Y-66578496D01*
X76173471Y-66580589D01*
X76219224Y-66607192D01*
X76231323Y-66618201D01*
X76326076Y-66704419D01*
X76465293Y-66780008D01*
X76618522Y-66820207D01*
X76702477Y-66821526D01*
X76769319Y-66822576D01*
X76769322Y-66822576D01*
X76776916Y-66822695D01*
X76931332Y-66787329D01*
X77001742Y-66751917D01*
X77066072Y-66719563D01*
X77066075Y-66719561D01*
X77072855Y-66716151D01*
X77078626Y-66711222D01*
X77078629Y-66711220D01*
X77187536Y-66618204D01*
X77187539Y-66618201D01*
X77193314Y-66613269D01*
X77194068Y-66614152D01*
X77248617Y-66581327D01*
X77319583Y-66583420D01*
X77365335Y-66610023D01*
X77374323Y-66618201D01*
X77469076Y-66704419D01*
X77608293Y-66780008D01*
X77761522Y-66820207D01*
X77845477Y-66821526D01*
X77912319Y-66822576D01*
X77912322Y-66822576D01*
X77919916Y-66822695D01*
X78074332Y-66787329D01*
X78144742Y-66751917D01*
X78209072Y-66719563D01*
X78209075Y-66719561D01*
X78215855Y-66716151D01*
X78221626Y-66711222D01*
X78221629Y-66711220D01*
X78330536Y-66618204D01*
X78330539Y-66618201D01*
X78336314Y-66613269D01*
X78383478Y-66547634D01*
X78439470Y-66503988D01*
X78510173Y-66497542D01*
X78573138Y-66530345D01*
X78590380Y-66550887D01*
X78617668Y-66591497D01*
X78617671Y-66591500D01*
X78621908Y-66597805D01*
X78627527Y-66602918D01*
X78627528Y-66602919D01*
X78644323Y-66618201D01*
X78739076Y-66704419D01*
X78878293Y-66780008D01*
X79031522Y-66820207D01*
X79115477Y-66821526D01*
X79182319Y-66822576D01*
X79182322Y-66822576D01*
X79189916Y-66822695D01*
X79344332Y-66787329D01*
X79414742Y-66751917D01*
X79479072Y-66719563D01*
X79479075Y-66719561D01*
X79485855Y-66716151D01*
X79491626Y-66711222D01*
X79491629Y-66711220D01*
X79600536Y-66618204D01*
X79600539Y-66618201D01*
X79606314Y-66613269D01*
X79698755Y-66484624D01*
X79757842Y-66337641D01*
X79780162Y-66180807D01*
X79780307Y-66167000D01*
X79761276Y-66009733D01*
X79705280Y-65861546D01*
X79692119Y-65842397D01*
X79619855Y-65737251D01*
X79619854Y-65737249D01*
X79615553Y-65730992D01*
X79544681Y-65667847D01*
X79507126Y-65607598D01*
X79502500Y-65573771D01*
X79502500Y-65398096D01*
X80620729Y-65398096D01*
X80638113Y-65555553D01*
X80640723Y-65562684D01*
X80640723Y-65562686D01*
X80681070Y-65672939D01*
X80692553Y-65704319D01*
X80696789Y-65710622D01*
X80696789Y-65710623D01*
X80719931Y-65745061D01*
X80780908Y-65835805D01*
X80786527Y-65840918D01*
X80786528Y-65840919D01*
X80802491Y-65855444D01*
X80898076Y-65942419D01*
X81037293Y-66018008D01*
X81190522Y-66058207D01*
X81274477Y-66059526D01*
X81341319Y-66060576D01*
X81341322Y-66060576D01*
X81348916Y-66060695D01*
X81503332Y-66025329D01*
X81573742Y-65989917D01*
X81638072Y-65957563D01*
X81638075Y-65957561D01*
X81644855Y-65954151D01*
X81650626Y-65949222D01*
X81650629Y-65949220D01*
X81759542Y-65856199D01*
X81759543Y-65856198D01*
X81765314Y-65851269D01*
X81769745Y-65845103D01*
X81774150Y-65838973D01*
X81830145Y-65795326D01*
X81876472Y-65786500D01*
X90333868Y-65786500D01*
X90401989Y-65806502D01*
X90428941Y-65829902D01*
X90432908Y-65835805D01*
X90438526Y-65840917D01*
X90438527Y-65840918D01*
X90447660Y-65849228D01*
X90550076Y-65942419D01*
X90689293Y-66018008D01*
X90842522Y-66058207D01*
X90926477Y-66059526D01*
X90993319Y-66060576D01*
X90993322Y-66060576D01*
X91000916Y-66060695D01*
X91155332Y-66025329D01*
X91225742Y-65989917D01*
X91290072Y-65957563D01*
X91290075Y-65957561D01*
X91296855Y-65954151D01*
X91302626Y-65949222D01*
X91302629Y-65949220D01*
X91411536Y-65856204D01*
X91411536Y-65856203D01*
X91417314Y-65851269D01*
X91509755Y-65722624D01*
X91568842Y-65575641D01*
X91591162Y-65418807D01*
X91591307Y-65405000D01*
X91572276Y-65247733D01*
X91516280Y-65099546D01*
X91426553Y-64968992D01*
X91308275Y-64863611D01*
X91300889Y-64859700D01*
X91174988Y-64793039D01*
X91174989Y-64793039D01*
X91168274Y-64789484D01*
X91014633Y-64750892D01*
X91007034Y-64750852D01*
X91007033Y-64750852D01*
X90941181Y-64750507D01*
X90856221Y-64750062D01*
X90848841Y-64751834D01*
X90848839Y-64751834D01*
X90709563Y-64785271D01*
X90709560Y-64785272D01*
X90702184Y-64787043D01*
X90561414Y-64859700D01*
X90442039Y-64963838D01*
X90437668Y-64970057D01*
X90432591Y-64975696D01*
X90431624Y-64974826D01*
X90382203Y-65014185D01*
X90334656Y-65023500D01*
X81878283Y-65023500D01*
X81810162Y-65003498D01*
X81783768Y-64980824D01*
X81778854Y-64975250D01*
X81774553Y-64968992D01*
X81656275Y-64863611D01*
X81648889Y-64859700D01*
X81522988Y-64793039D01*
X81522989Y-64793039D01*
X81516274Y-64789484D01*
X81362633Y-64750892D01*
X81355034Y-64750852D01*
X81355033Y-64750852D01*
X81289181Y-64750507D01*
X81204221Y-64750062D01*
X81196841Y-64751834D01*
X81196839Y-64751834D01*
X81057563Y-64785271D01*
X81057560Y-64785272D01*
X81050184Y-64787043D01*
X80909414Y-64859700D01*
X80790039Y-64963838D01*
X80698950Y-65093444D01*
X80641406Y-65241037D01*
X80620729Y-65398096D01*
X79502500Y-65398096D01*
X79502500Y-64728022D01*
X79522502Y-64659901D01*
X79546669Y-64632211D01*
X79600536Y-64586204D01*
X79606314Y-64581269D01*
X79698755Y-64452624D01*
X79757842Y-64305641D01*
X79780162Y-64148807D01*
X79780307Y-64135000D01*
X79761276Y-63977733D01*
X79705280Y-63829546D01*
X79692119Y-63810397D01*
X79619855Y-63705251D01*
X79619854Y-63705249D01*
X79615553Y-63698992D01*
X79497275Y-63593611D01*
X79489889Y-63589700D01*
X79363988Y-63523039D01*
X79363989Y-63523039D01*
X79357274Y-63519484D01*
X79203633Y-63480892D01*
X79196034Y-63480852D01*
X79196033Y-63480852D01*
X79130181Y-63480507D01*
X79045221Y-63480062D01*
X79037841Y-63481834D01*
X79037839Y-63481834D01*
X78898563Y-63515271D01*
X78898560Y-63515272D01*
X78891184Y-63517043D01*
X78750414Y-63589700D01*
X78631039Y-63693838D01*
X78626672Y-63700052D01*
X78626669Y-63700055D01*
X78589153Y-63753435D01*
X78533619Y-63797667D01*
X78462987Y-63804853D01*
X78399682Y-63772712D01*
X78382226Y-63752352D01*
X78349855Y-63705251D01*
X78349854Y-63705249D01*
X78345553Y-63698992D01*
X78227275Y-63593611D01*
X78219889Y-63589700D01*
X78093988Y-63523039D01*
X78093989Y-63523039D01*
X78087274Y-63519484D01*
X77933633Y-63480892D01*
X77926034Y-63480852D01*
X77926033Y-63480852D01*
X77860181Y-63480507D01*
X77775221Y-63480062D01*
X77767841Y-63481834D01*
X77767839Y-63481834D01*
X77628563Y-63515271D01*
X77628560Y-63515272D01*
X77621184Y-63517043D01*
X77480414Y-63589700D01*
X77474697Y-63594687D01*
X77474690Y-63594692D01*
X77361745Y-63693221D01*
X77297263Y-63722929D01*
X77226956Y-63713059D01*
X77195097Y-63692349D01*
X77172616Y-63672319D01*
X77084275Y-63593611D01*
X77076889Y-63589700D01*
X76950988Y-63523039D01*
X76950989Y-63523039D01*
X76944274Y-63519484D01*
X76790633Y-63480892D01*
X76783034Y-63480852D01*
X76783033Y-63480852D01*
X76717181Y-63480507D01*
X76632221Y-63480062D01*
X76624841Y-63481834D01*
X76624839Y-63481834D01*
X76485563Y-63515271D01*
X76485560Y-63515272D01*
X76478184Y-63517043D01*
X76337414Y-63589700D01*
X76331697Y-63594687D01*
X76331690Y-63594692D01*
X76218745Y-63693221D01*
X76154263Y-63722929D01*
X76083956Y-63713059D01*
X76052097Y-63692349D01*
X76029616Y-63672319D01*
X75941275Y-63593611D01*
X75933889Y-63589700D01*
X75807988Y-63523039D01*
X75807989Y-63523039D01*
X75801274Y-63519484D01*
X75647633Y-63480892D01*
X75640034Y-63480852D01*
X75640033Y-63480852D01*
X75574181Y-63480507D01*
X75489221Y-63480062D01*
X75481841Y-63481834D01*
X75481839Y-63481834D01*
X75342563Y-63515271D01*
X75342560Y-63515272D01*
X75335184Y-63517043D01*
X75194414Y-63589700D01*
X75188697Y-63594687D01*
X75188690Y-63594692D01*
X75142447Y-63635033D01*
X75077965Y-63664741D01*
X75007658Y-63654871D01*
X74953848Y-63608558D01*
X74933619Y-63540504D01*
X74934875Y-63522331D01*
X74953581Y-63390891D01*
X74953581Y-63390888D01*
X74954162Y-63386807D01*
X74954307Y-63373000D01*
X74935276Y-63215733D01*
X74879280Y-63067546D01*
X74849405Y-63024078D01*
X74793855Y-62943251D01*
X74793854Y-62943249D01*
X74789553Y-62936992D01*
X74671275Y-62831611D01*
X74663889Y-62827700D01*
X74537988Y-62761039D01*
X74537989Y-62761039D01*
X74531274Y-62757484D01*
X74377633Y-62718892D01*
X74370034Y-62718852D01*
X74370033Y-62718852D01*
X74304181Y-62718507D01*
X74219221Y-62718062D01*
X74211841Y-62719834D01*
X74211839Y-62719834D01*
X74072563Y-62753271D01*
X74072560Y-62753272D01*
X74065184Y-62755043D01*
X73924414Y-62827700D01*
X73805039Y-62931838D01*
X73713950Y-63061444D01*
X73656406Y-63209037D01*
X73635729Y-63366096D01*
X73644421Y-63444824D01*
X73652199Y-63515271D01*
X73653113Y-63523553D01*
X73655723Y-63530684D01*
X73655723Y-63530686D01*
X73679145Y-63594689D01*
X73707553Y-63672319D01*
X73711789Y-63678622D01*
X73711789Y-63678623D01*
X73741562Y-63722929D01*
X73795908Y-63803805D01*
X73801527Y-63808918D01*
X73801528Y-63808919D01*
X73872299Y-63873315D01*
X73909222Y-63933955D01*
X73913500Y-63966509D01*
X73913500Y-67607788D01*
X73893498Y-67675909D01*
X73876595Y-67696883D01*
X73430598Y-68142880D01*
X73368286Y-68176906D01*
X73340843Y-68179783D01*
X73308217Y-68179612D01*
X73203221Y-68179062D01*
X73195841Y-68180834D01*
X73195839Y-68180834D01*
X73056563Y-68214271D01*
X73056560Y-68214272D01*
X73049184Y-68216043D01*
X72908414Y-68288700D01*
X72789039Y-68392838D01*
X72697950Y-68522444D01*
X72640406Y-68670037D01*
X72639414Y-68677570D01*
X72639414Y-68677571D01*
X72624874Y-68788019D01*
X72619729Y-68827096D01*
X26035000Y-68827096D01*
X26035000Y-61682000D01*
X28162848Y-61682000D01*
X28181428Y-61918083D01*
X28182582Y-61922890D01*
X28182583Y-61922896D01*
X28188126Y-61945984D01*
X28236711Y-62148354D01*
X28238604Y-62152925D01*
X28238605Y-62152927D01*
X28320918Y-62351646D01*
X28327336Y-62367141D01*
X28451070Y-62569057D01*
X28604868Y-62749132D01*
X28784943Y-62902930D01*
X28986859Y-63026664D01*
X28991429Y-63028557D01*
X28991433Y-63028559D01*
X29201073Y-63115395D01*
X29201075Y-63115396D01*
X29205646Y-63117289D01*
X29285499Y-63136460D01*
X29431104Y-63171417D01*
X29431110Y-63171418D01*
X29435917Y-63172572D01*
X29672000Y-63191152D01*
X29908083Y-63172572D01*
X29912890Y-63171418D01*
X29912896Y-63171417D01*
X30058501Y-63136460D01*
X30138354Y-63117289D01*
X30142925Y-63115396D01*
X30142927Y-63115395D01*
X30352567Y-63028559D01*
X30352571Y-63028557D01*
X30357141Y-63026664D01*
X30559057Y-62902930D01*
X30739132Y-62749132D01*
X30892930Y-62569057D01*
X30895515Y-62564838D01*
X30895519Y-62564833D01*
X30907878Y-62544665D01*
X30960525Y-62497033D01*
X31015310Y-62484500D01*
X32719796Y-62484500D01*
X32787917Y-62504502D01*
X32815389Y-62528691D01*
X32817326Y-62531457D01*
X32972543Y-62686674D01*
X32977051Y-62689831D01*
X32977054Y-62689833D01*
X33067653Y-62753271D01*
X33152354Y-62812579D01*
X33157336Y-62814902D01*
X33157341Y-62814905D01*
X33258116Y-62861896D01*
X33351297Y-62905347D01*
X33563326Y-62962161D01*
X33782000Y-62981292D01*
X34000674Y-62962161D01*
X34212703Y-62905347D01*
X34305884Y-62861896D01*
X34406659Y-62814905D01*
X34406664Y-62814902D01*
X34411646Y-62812579D01*
X34496347Y-62753271D01*
X34586946Y-62689833D01*
X34586949Y-62689831D01*
X34591457Y-62686674D01*
X34746674Y-62531457D01*
X34858775Y-62371361D01*
X34869422Y-62356155D01*
X34869423Y-62356153D01*
X34872579Y-62351646D01*
X34874902Y-62346664D01*
X34874905Y-62346659D01*
X34963022Y-62157688D01*
X34965347Y-62152703D01*
X35022161Y-61940674D01*
X35041292Y-61722000D01*
X35022161Y-61503326D01*
X34965347Y-61291297D01*
X34921896Y-61198116D01*
X34874905Y-61097341D01*
X34874902Y-61097336D01*
X34872579Y-61092354D01*
X34869422Y-61087845D01*
X34749833Y-60917054D01*
X34749831Y-60917051D01*
X34746674Y-60912543D01*
X34591457Y-60757326D01*
X34586949Y-60754169D01*
X34586946Y-60754167D01*
X34416155Y-60634578D01*
X34416153Y-60634577D01*
X34411646Y-60631421D01*
X34406664Y-60629098D01*
X34406659Y-60629095D01*
X34305884Y-60582104D01*
X34212703Y-60538653D01*
X34000674Y-60481839D01*
X33782000Y-60462708D01*
X33563326Y-60481839D01*
X33351297Y-60538653D01*
X33258116Y-60582104D01*
X33157341Y-60629095D01*
X33157336Y-60629098D01*
X33152354Y-60631421D01*
X33147847Y-60634577D01*
X33147845Y-60634578D01*
X32977054Y-60754167D01*
X32977051Y-60754169D01*
X32972543Y-60757326D01*
X32817326Y-60912543D01*
X32815651Y-60914936D01*
X32757205Y-60953818D01*
X32719796Y-60959500D01*
X31064334Y-60959500D01*
X30996213Y-60939498D01*
X30956901Y-60899334D01*
X30895518Y-60799166D01*
X30895514Y-60799160D01*
X30892930Y-60794943D01*
X30739132Y-60614868D01*
X30559057Y-60461070D01*
X30357141Y-60337336D01*
X30352571Y-60335443D01*
X30352567Y-60335441D01*
X30142927Y-60248605D01*
X30142925Y-60248604D01*
X30138354Y-60246711D01*
X30058501Y-60227540D01*
X29912896Y-60192583D01*
X29912890Y-60192582D01*
X29908083Y-60191428D01*
X29672000Y-60172848D01*
X29435917Y-60191428D01*
X29431110Y-60192582D01*
X29431104Y-60192583D01*
X29285499Y-60227540D01*
X29205646Y-60246711D01*
X29201075Y-60248604D01*
X29201073Y-60248605D01*
X28991433Y-60335441D01*
X28991429Y-60335443D01*
X28986859Y-60337336D01*
X28784943Y-60461070D01*
X28604868Y-60614868D01*
X28451070Y-60794943D01*
X28327336Y-60996859D01*
X28325443Y-61001429D01*
X28325441Y-61001433D01*
X28238605Y-61211073D01*
X28236711Y-61215646D01*
X28181428Y-61445917D01*
X28162848Y-61682000D01*
X26035000Y-61682000D01*
X26035000Y-55406933D01*
X28167500Y-55406933D01*
X28167501Y-57957066D01*
X28182266Y-58031301D01*
X28238516Y-58115484D01*
X28322699Y-58171734D01*
X28396933Y-58186500D01*
X29671793Y-58186500D01*
X30947066Y-58186499D01*
X30982818Y-58179388D01*
X31009126Y-58174156D01*
X31009128Y-58174155D01*
X31021301Y-58171734D01*
X31031621Y-58164839D01*
X31031622Y-58164838D01*
X31095168Y-58122377D01*
X31105484Y-58115484D01*
X31161734Y-58031301D01*
X31176500Y-57957067D01*
X31176500Y-57530500D01*
X31196502Y-57462379D01*
X31250158Y-57415886D01*
X31302500Y-57404500D01*
X32719796Y-57404500D01*
X32787917Y-57424502D01*
X32815389Y-57448691D01*
X32817326Y-57451457D01*
X32972543Y-57606674D01*
X32977051Y-57609831D01*
X32977054Y-57609833D01*
X33147845Y-57729422D01*
X33152354Y-57732579D01*
X33157336Y-57734902D01*
X33157341Y-57734905D01*
X33258116Y-57781896D01*
X33351297Y-57825347D01*
X33563326Y-57882161D01*
X33782000Y-57901292D01*
X34000674Y-57882161D01*
X34212703Y-57825347D01*
X34305884Y-57781896D01*
X34406659Y-57734905D01*
X34406664Y-57734902D01*
X34411646Y-57732579D01*
X34416155Y-57729422D01*
X34586946Y-57609833D01*
X34586949Y-57609831D01*
X34591457Y-57606674D01*
X34746674Y-57451457D01*
X34872579Y-57271646D01*
X34874902Y-57266664D01*
X34874905Y-57266659D01*
X34963022Y-57077688D01*
X34965347Y-57072703D01*
X35022161Y-56860674D01*
X35041292Y-56642000D01*
X35022161Y-56423326D01*
X34965347Y-56211297D01*
X34921896Y-56118116D01*
X34874905Y-56017341D01*
X34874902Y-56017336D01*
X34872579Y-56012354D01*
X34746674Y-55832543D01*
X34591457Y-55677326D01*
X34586949Y-55674169D01*
X34586946Y-55674167D01*
X34416155Y-55554578D01*
X34416153Y-55554577D01*
X34411646Y-55551421D01*
X34406664Y-55549098D01*
X34406659Y-55549095D01*
X34305884Y-55502104D01*
X34212703Y-55458653D01*
X34000674Y-55401839D01*
X33782000Y-55382708D01*
X33563326Y-55401839D01*
X33351297Y-55458653D01*
X33258116Y-55502104D01*
X33157341Y-55549095D01*
X33157336Y-55549098D01*
X33152354Y-55551421D01*
X33147847Y-55554577D01*
X33147845Y-55554578D01*
X32977054Y-55674167D01*
X32977051Y-55674169D01*
X32972543Y-55677326D01*
X32817326Y-55832543D01*
X32815651Y-55834936D01*
X32757205Y-55873818D01*
X32719796Y-55879500D01*
X31302499Y-55879500D01*
X31234378Y-55859498D01*
X31187885Y-55805842D01*
X31176499Y-55753500D01*
X31176499Y-55406934D01*
X31161734Y-55332699D01*
X31105484Y-55248516D01*
X31021301Y-55192266D01*
X30947067Y-55177500D01*
X29672207Y-55177500D01*
X28396934Y-55177501D01*
X28361182Y-55184612D01*
X28334874Y-55189844D01*
X28334872Y-55189845D01*
X28322699Y-55192266D01*
X28312379Y-55199161D01*
X28312378Y-55199162D01*
X28251985Y-55239516D01*
X28238516Y-55248516D01*
X28182266Y-55332699D01*
X28167500Y-55406933D01*
X26035000Y-55406933D01*
X26035000Y-48614930D01*
X56208633Y-48614930D01*
X56244498Y-48849314D01*
X56246106Y-48854233D01*
X56246106Y-48854234D01*
X56257299Y-48888477D01*
X56318164Y-49074693D01*
X56427650Y-49285014D01*
X56430753Y-49289147D01*
X56430755Y-49289150D01*
X56566912Y-49470495D01*
X56570017Y-49474630D01*
X56741441Y-49638446D01*
X56745713Y-49641360D01*
X56745714Y-49641361D01*
X56879431Y-49732576D01*
X56937319Y-49772065D01*
X56942008Y-49774241D01*
X56942014Y-49774245D01*
X57147696Y-49869719D01*
X57147700Y-49869720D01*
X57152391Y-49871898D01*
X57380879Y-49935264D01*
X57386013Y-49935813D01*
X57386015Y-49935813D01*
X57571112Y-49955594D01*
X57571119Y-49955594D01*
X57574447Y-49955950D01*
X57712110Y-49955950D01*
X57714683Y-49955738D01*
X57714694Y-49955738D01*
X57883164Y-49941887D01*
X57883170Y-49941886D01*
X57888315Y-49941463D01*
X58003300Y-49912581D01*
X58113273Y-49884958D01*
X58113277Y-49884957D01*
X58118284Y-49883699D01*
X58123017Y-49881641D01*
X58123020Y-49881640D01*
X58330993Y-49791211D01*
X58330996Y-49791209D01*
X58335730Y-49789151D01*
X58534814Y-49660358D01*
X58555692Y-49641361D01*
X58706368Y-49504256D01*
X58706370Y-49504254D01*
X58710190Y-49500778D01*
X58713389Y-49496727D01*
X58713393Y-49496723D01*
X58853945Y-49318753D01*
X58853947Y-49318749D01*
X58857147Y-49314698D01*
X58971739Y-49107114D01*
X59050889Y-48883602D01*
X59051797Y-48878506D01*
X59091565Y-48655253D01*
X59091565Y-48655249D01*
X59092471Y-48650165D01*
X59092901Y-48614930D01*
X61923633Y-48614930D01*
X61959498Y-48849314D01*
X61961106Y-48854233D01*
X61961106Y-48854234D01*
X61972299Y-48888477D01*
X62033164Y-49074693D01*
X62142650Y-49285014D01*
X62145753Y-49289147D01*
X62145755Y-49289150D01*
X62281912Y-49470495D01*
X62285017Y-49474630D01*
X62456441Y-49638446D01*
X62460713Y-49641360D01*
X62460714Y-49641361D01*
X62594431Y-49732576D01*
X62652319Y-49772065D01*
X62657008Y-49774241D01*
X62657014Y-49774245D01*
X62862696Y-49869719D01*
X62862700Y-49869720D01*
X62867391Y-49871898D01*
X63095879Y-49935264D01*
X63101013Y-49935813D01*
X63101015Y-49935813D01*
X63286112Y-49955594D01*
X63286119Y-49955594D01*
X63289447Y-49955950D01*
X63427110Y-49955950D01*
X63429683Y-49955738D01*
X63429694Y-49955738D01*
X63598164Y-49941887D01*
X63598170Y-49941886D01*
X63603315Y-49941463D01*
X63718300Y-49912581D01*
X63828273Y-49884958D01*
X63828277Y-49884957D01*
X63833284Y-49883699D01*
X63838017Y-49881641D01*
X63838020Y-49881640D01*
X64045993Y-49791211D01*
X64045996Y-49791209D01*
X64050730Y-49789151D01*
X64249814Y-49660358D01*
X64270692Y-49641361D01*
X64421368Y-49504256D01*
X64421370Y-49504254D01*
X64425190Y-49500778D01*
X64428389Y-49496727D01*
X64428393Y-49496723D01*
X64568945Y-49318753D01*
X64568947Y-49318749D01*
X64572147Y-49314698D01*
X64686739Y-49107114D01*
X64765889Y-48883602D01*
X64766797Y-48878506D01*
X64806565Y-48655253D01*
X64806565Y-48655249D01*
X64807471Y-48650165D01*
X64810367Y-48413070D01*
X64774502Y-48178686D01*
X64772894Y-48173766D01*
X64702442Y-47958220D01*
X64702441Y-47958218D01*
X64700836Y-47953307D01*
X64591350Y-47742986D01*
X64587442Y-47737780D01*
X64548295Y-47685642D01*
X64523389Y-47619157D01*
X64533808Y-47570930D01*
X64512864Y-47575307D01*
X64446549Y-47549953D01*
X64435829Y-47540800D01*
X64421621Y-47527222D01*
X64277559Y-47389554D01*
X64241320Y-47364833D01*
X64085960Y-47258854D01*
X64085961Y-47258854D01*
X64081681Y-47255935D01*
X64076992Y-47253759D01*
X64076986Y-47253755D01*
X63871304Y-47158281D01*
X63871300Y-47158280D01*
X63866609Y-47156102D01*
X63638121Y-47092736D01*
X63632987Y-47092187D01*
X63632985Y-47092187D01*
X63447888Y-47072406D01*
X63447881Y-47072406D01*
X63444553Y-47072050D01*
X63306890Y-47072050D01*
X63304317Y-47072262D01*
X63304306Y-47072262D01*
X63135836Y-47086113D01*
X63135830Y-47086114D01*
X63130685Y-47086537D01*
X63015701Y-47115419D01*
X62905727Y-47143042D01*
X62905723Y-47143043D01*
X62900716Y-47144301D01*
X62895983Y-47146359D01*
X62895980Y-47146360D01*
X62688007Y-47236789D01*
X62688004Y-47236791D01*
X62683270Y-47238849D01*
X62484186Y-47367642D01*
X62480363Y-47371121D01*
X62480360Y-47371123D01*
X62333404Y-47504843D01*
X62308810Y-47527222D01*
X62305611Y-47531273D01*
X62305607Y-47531277D01*
X62165055Y-47709247D01*
X62161853Y-47713302D01*
X62159357Y-47717823D01*
X62159356Y-47717825D01*
X62147460Y-47739375D01*
X62047261Y-47920886D01*
X61968111Y-48144398D01*
X61967204Y-48149491D01*
X61967203Y-48149494D01*
X61962880Y-48173766D01*
X61926529Y-48377835D01*
X61923633Y-48614930D01*
X59092901Y-48614930D01*
X59095367Y-48413070D01*
X59059502Y-48178686D01*
X59057894Y-48173766D01*
X58987442Y-47958220D01*
X58987441Y-47958218D01*
X58985836Y-47953307D01*
X58876350Y-47742986D01*
X58872442Y-47737780D01*
X58737088Y-47557505D01*
X58737086Y-47557502D01*
X58733983Y-47553370D01*
X58562559Y-47389554D01*
X58526320Y-47364833D01*
X58370960Y-47258854D01*
X58370961Y-47258854D01*
X58366681Y-47255935D01*
X58361992Y-47253759D01*
X58361986Y-47253755D01*
X58156304Y-47158281D01*
X58156300Y-47158280D01*
X58151609Y-47156102D01*
X57923121Y-47092736D01*
X57917987Y-47092187D01*
X57917985Y-47092187D01*
X57732888Y-47072406D01*
X57732881Y-47072406D01*
X57729553Y-47072050D01*
X57591890Y-47072050D01*
X57589317Y-47072262D01*
X57589306Y-47072262D01*
X57420836Y-47086113D01*
X57420830Y-47086114D01*
X57415685Y-47086537D01*
X57300701Y-47115419D01*
X57190727Y-47143042D01*
X57190723Y-47143043D01*
X57185716Y-47144301D01*
X57180983Y-47146359D01*
X57180980Y-47146360D01*
X56973007Y-47236789D01*
X56973004Y-47236791D01*
X56968270Y-47238849D01*
X56769186Y-47367642D01*
X56765363Y-47371121D01*
X56765360Y-47371123D01*
X56618404Y-47504843D01*
X56593810Y-47527222D01*
X56590611Y-47531273D01*
X56590607Y-47531277D01*
X56450055Y-47709247D01*
X56446853Y-47713302D01*
X56444357Y-47717823D01*
X56444356Y-47717825D01*
X56432460Y-47739375D01*
X56332261Y-47920886D01*
X56253111Y-48144398D01*
X56252204Y-48149491D01*
X56252203Y-48149494D01*
X56247880Y-48173766D01*
X56211529Y-48377835D01*
X56208633Y-48614930D01*
X26035000Y-48614930D01*
X26035000Y-47030824D01*
X64518201Y-47030824D01*
X64547810Y-47203141D01*
X64550676Y-47209875D01*
X64550676Y-47209877D01*
X64569347Y-47253755D01*
X64616267Y-47364024D01*
X64620606Y-47369920D01*
X64624362Y-47375024D01*
X64648628Y-47441745D01*
X64638024Y-47488643D01*
X64657864Y-47484297D01*
X64724420Y-47509013D01*
X64730634Y-47513964D01*
X64853146Y-47618045D01*
X65008862Y-47697558D01*
X65015967Y-47699297D01*
X65015971Y-47699298D01*
X65091687Y-47717825D01*
X65178693Y-47739115D01*
X65184295Y-47739463D01*
X65184298Y-47739463D01*
X65187795Y-47739680D01*
X65187805Y-47739680D01*
X65189734Y-47739800D01*
X65315779Y-47739800D01*
X65407182Y-47729144D01*
X65438393Y-47725505D01*
X65438395Y-47725505D01*
X65445665Y-47724657D01*
X65452543Y-47722161D01*
X65452545Y-47722160D01*
X65603136Y-47667498D01*
X65610015Y-47665001D01*
X65756233Y-47569136D01*
X65876475Y-47442205D01*
X65880150Y-47435878D01*
X65880153Y-47435874D01*
X65960615Y-47297347D01*
X65964292Y-47291017D01*
X65974034Y-47258854D01*
X66012851Y-47130688D01*
X66014973Y-47123682D01*
X66025799Y-46949176D01*
X65996190Y-46776859D01*
X65973432Y-46723375D01*
X65930600Y-46622713D01*
X65930599Y-46622711D01*
X65927733Y-46615976D01*
X65824102Y-46475157D01*
X65690854Y-46361955D01*
X65535138Y-46282442D01*
X65528033Y-46280703D01*
X65528029Y-46280702D01*
X65434597Y-46257840D01*
X65365307Y-46240885D01*
X65359705Y-46240537D01*
X65359702Y-46240537D01*
X65356205Y-46240320D01*
X65356195Y-46240320D01*
X65354266Y-46240200D01*
X65228221Y-46240200D01*
X65136818Y-46250856D01*
X65105607Y-46254495D01*
X65105605Y-46254495D01*
X65098335Y-46255343D01*
X65091457Y-46257839D01*
X65091455Y-46257840D01*
X64940864Y-46312502D01*
X64933985Y-46314999D01*
X64787767Y-46410864D01*
X64667525Y-46537795D01*
X64663850Y-46544122D01*
X64663847Y-46544126D01*
X64622114Y-46615976D01*
X64579708Y-46688983D01*
X64577587Y-46695987D01*
X64577585Y-46695991D01*
X64569265Y-46723463D01*
X64529027Y-46856318D01*
X64518201Y-47030824D01*
X26035000Y-47030824D01*
X26035000Y-46014824D01*
X56898201Y-46014824D01*
X56927810Y-46187141D01*
X56930676Y-46193875D01*
X56930676Y-46193877D01*
X56982215Y-46314999D01*
X56996267Y-46348024D01*
X57099898Y-46488843D01*
X57233146Y-46602045D01*
X57388862Y-46681558D01*
X57395967Y-46683297D01*
X57395971Y-46683298D01*
X57447845Y-46695991D01*
X57558693Y-46723115D01*
X57564295Y-46723463D01*
X57564298Y-46723463D01*
X57567795Y-46723680D01*
X57567805Y-46723680D01*
X57569734Y-46723800D01*
X57695779Y-46723800D01*
X57787182Y-46713144D01*
X57818393Y-46709505D01*
X57818395Y-46709505D01*
X57825665Y-46708657D01*
X57832543Y-46706161D01*
X57832545Y-46706160D01*
X57983136Y-46651498D01*
X57990015Y-46649001D01*
X58136233Y-46553136D01*
X58256475Y-46426205D01*
X58260150Y-46419878D01*
X58260153Y-46419874D01*
X58340615Y-46281347D01*
X58344292Y-46275017D01*
X58349495Y-46257840D01*
X58392851Y-46114688D01*
X58394973Y-46107682D01*
X58405799Y-45933176D01*
X58376190Y-45760859D01*
X58353432Y-45707375D01*
X58310600Y-45606713D01*
X58310599Y-45606711D01*
X58307733Y-45599976D01*
X58204102Y-45459157D01*
X58070854Y-45345955D01*
X57915138Y-45266442D01*
X57908033Y-45264703D01*
X57908029Y-45264702D01*
X57814597Y-45241840D01*
X57745307Y-45224885D01*
X57739705Y-45224537D01*
X57739702Y-45224537D01*
X57736205Y-45224320D01*
X57736195Y-45224320D01*
X57734266Y-45224200D01*
X57608221Y-45224200D01*
X57516818Y-45234856D01*
X57485607Y-45238495D01*
X57485605Y-45238495D01*
X57478335Y-45239343D01*
X57471457Y-45241839D01*
X57471455Y-45241840D01*
X57320864Y-45296502D01*
X57313985Y-45298999D01*
X57167767Y-45394864D01*
X57047525Y-45521795D01*
X57043850Y-45528122D01*
X57043847Y-45528126D01*
X57002114Y-45599976D01*
X56959708Y-45672983D01*
X56957587Y-45679987D01*
X56957585Y-45679991D01*
X56949265Y-45707463D01*
X56909027Y-45840318D01*
X56898201Y-46014824D01*
X26035000Y-46014824D01*
X26035000Y-44998824D01*
X64518201Y-44998824D01*
X64547810Y-45171141D01*
X64550676Y-45177875D01*
X64550676Y-45177877D01*
X64602215Y-45298999D01*
X64616267Y-45332024D01*
X64719898Y-45472843D01*
X64853146Y-45586045D01*
X65008862Y-45665558D01*
X65015967Y-45667297D01*
X65015971Y-45667298D01*
X65067845Y-45679991D01*
X65178693Y-45707115D01*
X65184295Y-45707463D01*
X65184298Y-45707463D01*
X65187795Y-45707680D01*
X65187805Y-45707680D01*
X65189734Y-45707800D01*
X65315779Y-45707800D01*
X65407182Y-45697144D01*
X65438393Y-45693505D01*
X65438395Y-45693505D01*
X65445665Y-45692657D01*
X65452543Y-45690161D01*
X65452545Y-45690160D01*
X65603136Y-45635498D01*
X65610015Y-45633001D01*
X65756233Y-45537136D01*
X65876475Y-45410205D01*
X65880150Y-45403878D01*
X65880153Y-45403874D01*
X65960615Y-45265347D01*
X65964292Y-45259017D01*
X65969495Y-45241840D01*
X66012851Y-45098688D01*
X66014973Y-45091682D01*
X66025799Y-44917176D01*
X65996190Y-44744859D01*
X65979802Y-44706344D01*
X65930600Y-44590713D01*
X65930599Y-44590711D01*
X65927733Y-44583976D01*
X65824102Y-44443157D01*
X65690854Y-44329955D01*
X65535138Y-44250442D01*
X65528033Y-44248703D01*
X65528029Y-44248702D01*
X65434597Y-44225840D01*
X65365307Y-44208885D01*
X65359705Y-44208537D01*
X65359702Y-44208537D01*
X65356205Y-44208320D01*
X65356195Y-44208320D01*
X65354266Y-44208200D01*
X65228221Y-44208200D01*
X65136818Y-44218856D01*
X65105607Y-44222495D01*
X65105605Y-44222495D01*
X65098335Y-44223343D01*
X65091457Y-44225839D01*
X65091455Y-44225840D01*
X64966152Y-44271323D01*
X64933985Y-44282999D01*
X64787767Y-44378864D01*
X64782735Y-44384176D01*
X64733576Y-44436069D01*
X64672206Y-44471767D01*
X64654105Y-44470964D01*
X64647613Y-44537502D01*
X64639689Y-44553718D01*
X64579708Y-44656983D01*
X64577587Y-44663987D01*
X64577585Y-44663991D01*
X64563284Y-44711211D01*
X64529027Y-44824318D01*
X64518201Y-44998824D01*
X26035000Y-44998824D01*
X26035000Y-43534930D01*
X56208633Y-43534930D01*
X56244498Y-43769314D01*
X56246106Y-43774233D01*
X56246106Y-43774234D01*
X56257299Y-43808477D01*
X56318164Y-43994693D01*
X56427650Y-44205014D01*
X56430753Y-44209147D01*
X56430755Y-44209150D01*
X56562168Y-44384176D01*
X56570017Y-44394630D01*
X56741441Y-44558446D01*
X56745713Y-44561360D01*
X56745714Y-44561361D01*
X56876611Y-44650653D01*
X56937319Y-44692065D01*
X56942008Y-44694241D01*
X56942014Y-44694245D01*
X57147696Y-44789719D01*
X57147700Y-44789720D01*
X57152391Y-44791898D01*
X57380879Y-44855264D01*
X57386013Y-44855813D01*
X57386015Y-44855813D01*
X57571112Y-44875594D01*
X57571119Y-44875594D01*
X57574447Y-44875950D01*
X57712110Y-44875950D01*
X57714683Y-44875738D01*
X57714694Y-44875738D01*
X57883164Y-44861887D01*
X57883170Y-44861886D01*
X57888315Y-44861463D01*
X58003299Y-44832581D01*
X58113273Y-44804958D01*
X58113277Y-44804957D01*
X58118284Y-44803699D01*
X58123017Y-44801641D01*
X58123020Y-44801640D01*
X58330993Y-44711211D01*
X58330996Y-44711209D01*
X58335730Y-44709151D01*
X58534814Y-44580358D01*
X58555692Y-44561361D01*
X58706368Y-44424256D01*
X58706370Y-44424254D01*
X58710190Y-44420778D01*
X58713391Y-44416725D01*
X58713393Y-44416723D01*
X58853945Y-44238753D01*
X58853947Y-44238749D01*
X58857147Y-44234698D01*
X58863884Y-44222495D01*
X58887766Y-44179231D01*
X58971739Y-44027114D01*
X59050889Y-43803602D01*
X59051797Y-43798506D01*
X59091565Y-43575253D01*
X59091565Y-43575249D01*
X59092471Y-43570165D01*
X59094729Y-43385300D01*
X59095304Y-43338241D01*
X59095304Y-43338239D01*
X59095367Y-43333070D01*
X59059502Y-43098686D01*
X59057894Y-43093766D01*
X58987442Y-42878220D01*
X58987441Y-42878218D01*
X58985836Y-42873307D01*
X58908669Y-42725070D01*
X59478755Y-42725070D01*
X59487447Y-42803799D01*
X59492080Y-42845759D01*
X59496139Y-42882527D01*
X59550579Y-43031293D01*
X59638934Y-43162779D01*
X59644553Y-43167892D01*
X59644554Y-43167893D01*
X59655929Y-43178243D01*
X59756102Y-43269393D01*
X59895319Y-43344982D01*
X60048548Y-43385181D01*
X60132503Y-43386500D01*
X60199345Y-43387550D01*
X60199348Y-43387550D01*
X60206942Y-43387669D01*
X60361358Y-43352303D01*
X60469657Y-43297835D01*
X60496098Y-43284537D01*
X60496101Y-43284535D01*
X60502881Y-43281125D01*
X60508652Y-43276196D01*
X60508655Y-43276194D01*
X60617562Y-43183178D01*
X60617562Y-43183177D01*
X60623340Y-43178243D01*
X60715781Y-43049598D01*
X60774868Y-42902615D01*
X60797188Y-42745781D01*
X60797333Y-42731974D01*
X60778302Y-42574707D01*
X60722306Y-42426520D01*
X60644372Y-42313125D01*
X60636881Y-42302225D01*
X60636880Y-42302223D01*
X60632579Y-42295966D01*
X60561707Y-42232821D01*
X60524152Y-42172572D01*
X60519526Y-42138745D01*
X60519526Y-41161358D01*
X60539528Y-41093237D01*
X60556431Y-41072263D01*
X61207289Y-40421405D01*
X61269601Y-40387379D01*
X61296384Y-40384500D01*
X61884141Y-40384500D01*
X61952262Y-40404502D01*
X61979522Y-40428169D01*
X61980672Y-40429501D01*
X61984908Y-40435805D01*
X62102076Y-40542419D01*
X62241293Y-40618008D01*
X62394522Y-40658207D01*
X62478477Y-40659526D01*
X62545319Y-40660576D01*
X62545322Y-40660576D01*
X62552916Y-40660695D01*
X62627792Y-40643546D01*
X62698658Y-40647835D01*
X62755956Y-40689757D01*
X62781494Y-40756001D01*
X62767163Y-40825537D01*
X62745016Y-40855461D01*
X62362882Y-41237595D01*
X62300570Y-41271621D01*
X62273787Y-41274500D01*
X62066283Y-41274500D01*
X61998162Y-41254498D01*
X61971768Y-41231824D01*
X61966854Y-41226250D01*
X61962553Y-41219992D01*
X61844275Y-41114611D01*
X61836889Y-41110700D01*
X61710988Y-41044039D01*
X61710989Y-41044039D01*
X61704274Y-41040484D01*
X61550633Y-41001892D01*
X61543034Y-41001852D01*
X61543033Y-41001852D01*
X61477181Y-41001507D01*
X61392221Y-41001062D01*
X61384841Y-41002834D01*
X61384839Y-41002834D01*
X61245563Y-41036271D01*
X61245560Y-41036272D01*
X61238184Y-41038043D01*
X61097414Y-41110700D01*
X60978039Y-41214838D01*
X60886950Y-41344444D01*
X60829406Y-41492037D01*
X60808729Y-41649096D01*
X60826113Y-41806553D01*
X60828723Y-41813684D01*
X60828723Y-41813686D01*
X60874872Y-41939794D01*
X60880553Y-41955319D01*
X60884789Y-41961622D01*
X60884789Y-41961623D01*
X60955170Y-42066360D01*
X60968908Y-42086805D01*
X60974527Y-42091918D01*
X60974528Y-42091919D01*
X61026168Y-42138907D01*
X61086076Y-42193419D01*
X61225293Y-42269008D01*
X61378522Y-42309207D01*
X61462477Y-42310526D01*
X61529319Y-42311576D01*
X61529322Y-42311576D01*
X61536916Y-42311695D01*
X61691332Y-42276329D01*
X61777837Y-42232822D01*
X61826072Y-42208563D01*
X61826075Y-42208561D01*
X61832855Y-42205151D01*
X61838626Y-42200222D01*
X61838629Y-42200220D01*
X61947542Y-42107199D01*
X61947543Y-42107198D01*
X61953314Y-42102269D01*
X61957745Y-42096103D01*
X61962150Y-42089973D01*
X62018145Y-42046326D01*
X62064472Y-42037500D01*
X62429865Y-42037500D01*
X62456383Y-42040322D01*
X62465780Y-42042345D01*
X62464989Y-42046020D01*
X62513925Y-42062942D01*
X62557828Y-42118736D01*
X62564597Y-42189410D01*
X62532082Y-42252523D01*
X62509306Y-42271391D01*
X62484186Y-42287642D01*
X62480363Y-42291121D01*
X62480360Y-42291123D01*
X62338267Y-42420418D01*
X62308810Y-42447222D01*
X62305611Y-42451273D01*
X62305607Y-42451277D01*
X62165055Y-42629247D01*
X62161853Y-42633302D01*
X62047261Y-42840886D01*
X62045537Y-42845755D01*
X62045535Y-42845759D01*
X61969837Y-43059523D01*
X61968111Y-43064398D01*
X61967204Y-43069491D01*
X61967203Y-43069494D01*
X61928898Y-43284537D01*
X61926529Y-43297835D01*
X61923633Y-43534930D01*
X61959498Y-43769314D01*
X61961106Y-43774233D01*
X61961106Y-43774234D01*
X61972299Y-43808477D01*
X62033164Y-43994693D01*
X62142650Y-44205014D01*
X62145753Y-44209147D01*
X62145755Y-44209150D01*
X62277168Y-44384176D01*
X62285017Y-44394630D01*
X62456441Y-44558446D01*
X62460713Y-44561360D01*
X62460714Y-44561361D01*
X62591611Y-44650653D01*
X62652319Y-44692065D01*
X62657008Y-44694241D01*
X62657014Y-44694245D01*
X62862696Y-44789719D01*
X62862700Y-44789720D01*
X62867391Y-44791898D01*
X63095879Y-44855264D01*
X63101013Y-44855813D01*
X63101015Y-44855813D01*
X63286112Y-44875594D01*
X63286119Y-44875594D01*
X63289447Y-44875950D01*
X63427110Y-44875950D01*
X63429683Y-44875738D01*
X63429694Y-44875738D01*
X63598164Y-44861887D01*
X63598170Y-44861886D01*
X63603315Y-44861463D01*
X63718299Y-44832581D01*
X63828273Y-44804958D01*
X63828277Y-44804957D01*
X63833284Y-44803699D01*
X63838017Y-44801641D01*
X63838020Y-44801640D01*
X64045993Y-44711211D01*
X64045996Y-44711209D01*
X64050730Y-44709151D01*
X64249814Y-44580358D01*
X64270692Y-44561361D01*
X64421368Y-44424256D01*
X64421370Y-44424254D01*
X64425190Y-44420778D01*
X64428393Y-44416723D01*
X64431852Y-44412342D01*
X64489769Y-44371279D01*
X64519987Y-44369902D01*
X64516713Y-44361801D01*
X64529923Y-44292044D01*
X64543222Y-44271323D01*
X64568944Y-44238754D01*
X64568945Y-44238752D01*
X64572147Y-44234698D01*
X64578884Y-44222495D01*
X64602766Y-44179231D01*
X64686739Y-44027114D01*
X64765889Y-43803602D01*
X64766797Y-43798506D01*
X64806565Y-43575253D01*
X64806565Y-43575249D01*
X64807471Y-43570165D01*
X64809729Y-43385300D01*
X64810304Y-43338241D01*
X64810304Y-43338239D01*
X64810367Y-43333070D01*
X64774502Y-43098686D01*
X64772894Y-43093766D01*
X64702442Y-42878220D01*
X64702441Y-42878218D01*
X64700836Y-42873307D01*
X64623669Y-42725070D01*
X64593739Y-42667575D01*
X64593738Y-42667574D01*
X64591350Y-42662986D01*
X64566019Y-42629247D01*
X64452088Y-42477505D01*
X64452086Y-42477502D01*
X64448983Y-42473370D01*
X64277559Y-42309554D01*
X64242764Y-42285818D01*
X64085960Y-42178854D01*
X64085961Y-42178854D01*
X64081681Y-42175935D01*
X64076992Y-42173759D01*
X64076986Y-42173755D01*
X63871304Y-42078281D01*
X63871300Y-42078280D01*
X63866609Y-42076102D01*
X63638121Y-42012736D01*
X63632987Y-42012187D01*
X63632985Y-42012187D01*
X63447888Y-41992406D01*
X63447881Y-41992406D01*
X63444553Y-41992050D01*
X63306890Y-41992050D01*
X63304317Y-41992262D01*
X63304306Y-41992262D01*
X63135836Y-42006113D01*
X63135830Y-42006114D01*
X63130685Y-42006537D01*
X62961604Y-42049007D01*
X62890663Y-42046203D01*
X62832500Y-42005490D01*
X62805581Y-41939794D01*
X62818452Y-41869974D01*
X62841814Y-41837708D01*
X63983962Y-40695560D01*
X64046274Y-40661534D01*
X64075036Y-40658671D01*
X64196318Y-40660576D01*
X64196321Y-40660576D01*
X64203916Y-40660695D01*
X64358332Y-40625329D01*
X64428742Y-40589917D01*
X64493072Y-40557563D01*
X64493075Y-40557561D01*
X64499855Y-40554151D01*
X64505626Y-40549222D01*
X64505629Y-40549220D01*
X64614536Y-40456204D01*
X64614536Y-40456203D01*
X64620314Y-40451269D01*
X64712755Y-40322624D01*
X64771842Y-40175641D01*
X64794162Y-40018807D01*
X64794307Y-40005000D01*
X64775276Y-39847733D01*
X64719280Y-39699546D01*
X64695767Y-39665334D01*
X64633855Y-39575251D01*
X64633854Y-39575249D01*
X64629553Y-39568992D01*
X64511275Y-39463611D01*
X64503889Y-39459700D01*
X64377988Y-39393039D01*
X64377989Y-39393039D01*
X64371274Y-39389484D01*
X64217633Y-39350892D01*
X64210034Y-39350852D01*
X64210033Y-39350852D01*
X64144181Y-39350507D01*
X64059221Y-39350062D01*
X64051841Y-39351834D01*
X64051839Y-39351834D01*
X63912563Y-39385271D01*
X63912560Y-39385272D01*
X63905184Y-39387043D01*
X63764414Y-39459700D01*
X63645039Y-39563838D01*
X63553950Y-39693444D01*
X63496406Y-39841037D01*
X63475729Y-39998096D01*
X63478016Y-40018807D01*
X63481682Y-40052017D01*
X63469276Y-40121922D01*
X63445538Y-40154939D01*
X63337450Y-40263027D01*
X63275138Y-40297053D01*
X63204323Y-40291988D01*
X63147487Y-40249441D01*
X63122676Y-40182921D01*
X63123612Y-40156179D01*
X63142581Y-40022891D01*
X63142581Y-40022888D01*
X63143162Y-40018807D01*
X63143307Y-40005000D01*
X63124276Y-39847733D01*
X63068280Y-39699546D01*
X63044767Y-39665334D01*
X62982855Y-39575251D01*
X62982854Y-39575249D01*
X62978553Y-39568992D01*
X62860275Y-39463611D01*
X62852889Y-39459700D01*
X62726988Y-39393039D01*
X62726989Y-39393039D01*
X62720274Y-39389484D01*
X62566633Y-39350892D01*
X62559034Y-39350852D01*
X62559033Y-39350852D01*
X62493181Y-39350507D01*
X62408221Y-39350062D01*
X62400841Y-39351834D01*
X62400839Y-39351834D01*
X62261563Y-39385271D01*
X62261560Y-39385272D01*
X62254184Y-39387043D01*
X62113414Y-39459700D01*
X61994039Y-39563838D01*
X61989672Y-39570051D01*
X61989667Y-39570057D01*
X61988336Y-39571951D01*
X61987013Y-39573005D01*
X61984589Y-39575697D01*
X61984140Y-39575293D01*
X61932802Y-39616183D01*
X61885250Y-39625500D01*
X61140920Y-39625500D01*
X61116972Y-39622951D01*
X61115307Y-39622872D01*
X61105124Y-39620680D01*
X61094783Y-39621904D01*
X61071777Y-39624627D01*
X61065846Y-39624977D01*
X61065854Y-39625072D01*
X61060676Y-39625500D01*
X61055476Y-39625500D01*
X61050347Y-39626354D01*
X61050344Y-39626354D01*
X61036435Y-39628669D01*
X61030557Y-39629506D01*
X60989999Y-39634306D01*
X60989998Y-39634306D01*
X60979659Y-39635530D01*
X60971407Y-39639493D01*
X60962374Y-39640996D01*
X60953205Y-39645943D01*
X60953203Y-39645944D01*
X60917268Y-39665334D01*
X60911975Y-39668031D01*
X60872918Y-39686785D01*
X60872914Y-39686788D01*
X60865768Y-39690219D01*
X60861492Y-39693814D01*
X60859569Y-39695737D01*
X60857637Y-39697509D01*
X60857558Y-39697552D01*
X60857445Y-39697428D01*
X60856905Y-39697904D01*
X60851186Y-39700990D01*
X60844119Y-39708635D01*
X60814584Y-39740586D01*
X60811154Y-39744152D01*
X59914531Y-40640775D01*
X59893783Y-40657532D01*
X59886471Y-40662253D01*
X59886468Y-40662256D01*
X59877722Y-40667903D01*
X59871276Y-40676080D01*
X59808271Y-40756001D01*
X59799092Y-40767644D01*
X59793667Y-40783091D01*
X59792731Y-40782762D01*
X59791785Y-40784484D01*
X59792514Y-40784702D01*
X59792512Y-40784708D01*
X59789985Y-40793159D01*
X59788161Y-40798773D01*
X59757010Y-40887476D01*
X59756526Y-40893065D01*
X59756526Y-40905040D01*
X59753722Y-40905040D01*
X59753846Y-40905849D01*
X59756313Y-40905752D01*
X59756429Y-40908704D01*
X59756526Y-40913651D01*
X59756526Y-42138907D01*
X59736524Y-42207028D01*
X59713356Y-42233855D01*
X59648065Y-42290812D01*
X59556976Y-42420418D01*
X59499432Y-42568011D01*
X59478755Y-42725070D01*
X58908669Y-42725070D01*
X58878739Y-42667575D01*
X58878738Y-42667574D01*
X58876350Y-42662986D01*
X58851019Y-42629247D01*
X58737088Y-42477505D01*
X58737086Y-42477502D01*
X58733983Y-42473370D01*
X58562559Y-42309554D01*
X58527764Y-42285818D01*
X58370960Y-42178854D01*
X58370961Y-42178854D01*
X58366681Y-42175935D01*
X58361992Y-42173759D01*
X58361986Y-42173755D01*
X58156304Y-42078281D01*
X58156300Y-42078280D01*
X58151609Y-42076102D01*
X57923121Y-42012736D01*
X57917987Y-42012187D01*
X57917985Y-42012187D01*
X57732888Y-41992406D01*
X57732881Y-41992406D01*
X57729553Y-41992050D01*
X57591890Y-41992050D01*
X57589317Y-41992262D01*
X57589306Y-41992262D01*
X57420836Y-42006113D01*
X57420830Y-42006114D01*
X57415685Y-42006537D01*
X57332554Y-42027418D01*
X57190727Y-42063042D01*
X57190723Y-42063043D01*
X57185716Y-42064301D01*
X57180983Y-42066359D01*
X57180980Y-42066360D01*
X56973007Y-42156789D01*
X56973004Y-42156791D01*
X56968270Y-42158849D01*
X56769186Y-42287642D01*
X56765363Y-42291121D01*
X56765360Y-42291123D01*
X56623267Y-42420418D01*
X56593810Y-42447222D01*
X56590611Y-42451273D01*
X56590607Y-42451277D01*
X56450055Y-42629247D01*
X56446853Y-42633302D01*
X56332261Y-42840886D01*
X56330537Y-42845755D01*
X56330535Y-42845759D01*
X56254837Y-43059523D01*
X56253111Y-43064398D01*
X56252204Y-43069491D01*
X56252203Y-43069494D01*
X56213898Y-43284537D01*
X56211529Y-43297835D01*
X56208633Y-43534930D01*
X26035000Y-43534930D01*
X26035000Y-36466096D01*
X32209729Y-36466096D01*
X32227113Y-36623553D01*
X32229723Y-36630684D01*
X32229723Y-36630686D01*
X32277922Y-36762396D01*
X32281553Y-36772319D01*
X32285786Y-36778619D01*
X32285791Y-36778628D01*
X32293065Y-36789452D01*
X32314482Y-36859221D01*
X32319569Y-38125701D01*
X32310964Y-38171974D01*
X32254406Y-38317037D01*
X32233729Y-38474096D01*
X32251113Y-38631553D01*
X32305553Y-38780319D01*
X32393908Y-38911805D01*
X32399527Y-38916918D01*
X32399528Y-38916919D01*
X32410903Y-38927269D01*
X32511076Y-39018419D01*
X32650293Y-39094008D01*
X32803522Y-39134207D01*
X32887477Y-39135526D01*
X32954319Y-39136576D01*
X32954322Y-39136576D01*
X32961916Y-39136695D01*
X33116332Y-39101329D01*
X33186742Y-39065917D01*
X33251072Y-39033563D01*
X33251075Y-39033561D01*
X33257855Y-39030151D01*
X33263626Y-39025222D01*
X33263629Y-39025220D01*
X33372536Y-38932204D01*
X33372536Y-38932203D01*
X33378314Y-38927269D01*
X33470755Y-38798624D01*
X33529842Y-38651641D01*
X33552162Y-38494807D01*
X33552307Y-38481000D01*
X33533276Y-38323733D01*
X33477280Y-38175546D01*
X33477023Y-38175172D01*
X33463559Y-38120824D01*
X33458202Y-36787035D01*
X33467292Y-36739537D01*
X33505842Y-36643641D01*
X33528162Y-36486807D01*
X33528307Y-36473000D01*
X33509276Y-36315733D01*
X33453280Y-36167546D01*
X33363553Y-36036992D01*
X33245275Y-35931611D01*
X33237889Y-35927700D01*
X33111988Y-35861039D01*
X33111989Y-35861039D01*
X33105274Y-35857484D01*
X32951633Y-35818892D01*
X32944034Y-35818852D01*
X32944033Y-35818852D01*
X32878181Y-35818507D01*
X32793221Y-35818062D01*
X32785841Y-35819834D01*
X32785839Y-35819834D01*
X32646563Y-35853271D01*
X32646560Y-35853272D01*
X32639184Y-35855043D01*
X32498414Y-35927700D01*
X32379039Y-36031838D01*
X32287950Y-36161444D01*
X32230406Y-36309037D01*
X32209729Y-36466096D01*
X26035000Y-36466096D01*
X26035000Y-23799723D01*
X26055002Y-23731602D01*
X26108658Y-23685109D01*
X26178932Y-23675005D01*
X26243512Y-23704499D01*
X26281896Y-23764225D01*
X26285414Y-23779795D01*
X26336557Y-24099094D01*
X26435293Y-24460011D01*
X26572430Y-24808154D01*
X26746365Y-25139450D01*
X26748262Y-25142274D01*
X26748265Y-25142278D01*
X26944014Y-25433585D01*
X26955061Y-25450024D01*
X26957256Y-25452630D01*
X26957260Y-25452636D01*
X26976961Y-25476031D01*
X27196079Y-25736241D01*
X27466598Y-25994755D01*
X27763455Y-26222541D01*
X28083176Y-26416935D01*
X28422021Y-26575661D01*
X28425239Y-26576763D01*
X28425242Y-26576764D01*
X28772803Y-26695761D01*
X28772811Y-26695763D01*
X28776026Y-26696864D01*
X29141051Y-26779126D01*
X29228200Y-26789056D01*
X29509442Y-26821100D01*
X29509450Y-26821100D01*
X29512825Y-26821485D01*
X29516229Y-26821503D01*
X29516232Y-26821503D01*
X29719556Y-26822567D01*
X29886999Y-26823444D01*
X29890385Y-26823094D01*
X29890387Y-26823094D01*
X30255805Y-26785332D01*
X30255814Y-26785331D01*
X30259197Y-26784981D01*
X30262530Y-26784267D01*
X30262533Y-26784266D01*
X30442820Y-26745616D01*
X30625063Y-26706546D01*
X30980318Y-26589056D01*
X31320807Y-26433887D01*
X31418707Y-26375758D01*
X31639601Y-26244601D01*
X31639606Y-26244598D01*
X31642546Y-26242852D01*
X31672354Y-26220472D01*
X31744828Y-26166056D01*
X31941771Y-26018187D01*
X32214983Y-25762521D01*
X32458985Y-25478842D01*
X32480737Y-25447192D01*
X32668992Y-25173280D01*
X32668997Y-25173273D01*
X32670922Y-25170471D01*
X32672534Y-25167477D01*
X32672539Y-25167469D01*
X32846694Y-24844027D01*
X32848316Y-24841015D01*
X32989091Y-24494327D01*
X33091601Y-24134463D01*
X33154647Y-23765634D01*
X33156729Y-23731602D01*
X33177380Y-23393948D01*
X33177490Y-23392152D01*
X33177574Y-23368000D01*
X33157339Y-22994368D01*
X33096870Y-22625107D01*
X32996875Y-22264537D01*
X32993627Y-22256373D01*
X32859783Y-21920039D01*
X32859779Y-21920031D01*
X32858523Y-21916874D01*
X32683434Y-21586188D01*
X32681534Y-21583382D01*
X32681530Y-21583375D01*
X32475561Y-21279162D01*
X32473654Y-21276345D01*
X32231639Y-20990970D01*
X31960219Y-20733402D01*
X31957512Y-20731340D01*
X31957504Y-20731333D01*
X31665281Y-20508720D01*
X31662569Y-20506654D01*
X31342172Y-20313377D01*
X31339082Y-20311943D01*
X31339077Y-20311940D01*
X31005871Y-20157272D01*
X31005869Y-20157271D01*
X31002775Y-20155835D01*
X30999540Y-20154740D01*
X30999535Y-20154738D01*
X30651583Y-20036963D01*
X30648348Y-20035868D01*
X30283038Y-19954881D01*
X30114184Y-19936239D01*
X30048670Y-19908882D01*
X30008346Y-19850449D01*
X30006014Y-19779491D01*
X30042416Y-19718536D01*
X30105994Y-19686939D01*
X30128011Y-19685000D01*
X96871213Y-19685000D01*
X96939334Y-19705002D01*
G37*
G04 #@! TD.AperFunction*
M02*
