G04 #@! TF.GenerationSoftware,KiCad,Pcbnew,6.0.10-86aedd382b~118~ubuntu18.04.1*
G04 #@! TF.CreationDate,2024-08-26T13:47:26-06:00*
G04 #@! TF.ProjectId,ckt-xing-txm,636b742d-7869-46e6-972d-74786d2e6b69,rev?*
G04 #@! TF.SameCoordinates,Original*
G04 #@! TF.FileFunction,Paste,Top*
G04 #@! TF.FilePolarity,Positive*
%FSLAX46Y46*%
G04 Gerber Fmt 4.6, Leading zero omitted, Abs format (unit mm)*
G04 Created by KiCad (PCBNEW 6.0.10-86aedd382b~118~ubuntu18.04.1) date 2024-08-26 13:47:26*
%MOMM*%
%LPD*%
G01*
G04 APERTURE LIST*
%ADD10R,0.550000X1.300000*%
%ADD11R,2.438400X1.117600*%
G04 APERTURE END LIST*
D10*
X46077000Y-48261000D03*
G36*
X43652000Y-52211000D02*
G01*
X43652000Y-49611000D01*
X44177000Y-49086000D01*
X44177000Y-47611000D01*
X44977000Y-47611000D01*
X44977000Y-49086000D01*
X45502000Y-49611000D01*
X45502000Y-52211000D01*
X43652000Y-52211000D01*
G37*
X43077000Y-48261000D03*
G36*
G01*
X61537000Y-64925000D02*
X60637000Y-64925000D01*
G75*
G02*
X60387000Y-64675000I0J250000D01*
G01*
X60387000Y-64150000D01*
G75*
G02*
X60637000Y-63900000I250000J0D01*
G01*
X61537000Y-63900000D01*
G75*
G02*
X61787000Y-64150000I0J-250000D01*
G01*
X61787000Y-64675000D01*
G75*
G02*
X61537000Y-64925000I-250000J0D01*
G01*
G37*
G36*
G01*
X61537000Y-63100000D02*
X60637000Y-63100000D01*
G75*
G02*
X60387000Y-62850000I0J250000D01*
G01*
X60387000Y-62325000D01*
G75*
G02*
X60637000Y-62075000I250000J0D01*
G01*
X61537000Y-62075000D01*
G75*
G02*
X61787000Y-62325000I0J-250000D01*
G01*
X61787000Y-62850000D01*
G75*
G02*
X61537000Y-63100000I-250000J0D01*
G01*
G37*
G36*
G01*
X44980000Y-24362000D02*
X44980000Y-25612000D01*
G75*
G02*
X44830000Y-25762000I-150000J0D01*
G01*
X44530000Y-25762000D01*
G75*
G02*
X44380000Y-25612000I0J150000D01*
G01*
X44380000Y-24362000D01*
G75*
G02*
X44530000Y-24212000I150000J0D01*
G01*
X44830000Y-24212000D01*
G75*
G02*
X44980000Y-24362000I0J-150000D01*
G01*
G37*
G36*
G01*
X43980000Y-24362000D02*
X43980000Y-25612000D01*
G75*
G02*
X43830000Y-25762000I-150000J0D01*
G01*
X43530000Y-25762000D01*
G75*
G02*
X43380000Y-25612000I0J150000D01*
G01*
X43380000Y-24362000D01*
G75*
G02*
X43530000Y-24212000I150000J0D01*
G01*
X43830000Y-24212000D01*
G75*
G02*
X43980000Y-24362000I0J-150000D01*
G01*
G37*
G36*
G01*
X42980000Y-24362000D02*
X42980000Y-25612000D01*
G75*
G02*
X42830000Y-25762000I-150000J0D01*
G01*
X42530000Y-25762000D01*
G75*
G02*
X42380000Y-25612000I0J150000D01*
G01*
X42380000Y-24362000D01*
G75*
G02*
X42530000Y-24212000I150000J0D01*
G01*
X42830000Y-24212000D01*
G75*
G02*
X42980000Y-24362000I0J-150000D01*
G01*
G37*
G36*
G01*
X41980000Y-24362000D02*
X41980000Y-25612000D01*
G75*
G02*
X41830000Y-25762000I-150000J0D01*
G01*
X41530000Y-25762000D01*
G75*
G02*
X41380000Y-25612000I0J150000D01*
G01*
X41380000Y-24362000D01*
G75*
G02*
X41530000Y-24212000I150000J0D01*
G01*
X41830000Y-24212000D01*
G75*
G02*
X41980000Y-24362000I0J-150000D01*
G01*
G37*
G36*
G01*
X40980000Y-20462000D02*
X40980000Y-21762000D01*
G75*
G02*
X40730000Y-22012000I-250000J0D01*
G01*
X40030000Y-22012000D01*
G75*
G02*
X39780000Y-21762000I0J250000D01*
G01*
X39780000Y-20462000D01*
G75*
G02*
X40030000Y-20212000I250000J0D01*
G01*
X40730000Y-20212000D01*
G75*
G02*
X40980000Y-20462000I0J-250000D01*
G01*
G37*
G36*
G01*
X46580000Y-20462000D02*
X46580000Y-21762000D01*
G75*
G02*
X46330000Y-22012000I-250000J0D01*
G01*
X45630000Y-22012000D01*
G75*
G02*
X45380000Y-21762000I0J250000D01*
G01*
X45380000Y-20462000D01*
G75*
G02*
X45630000Y-20212000I250000J0D01*
G01*
X46330000Y-20212000D01*
G75*
G02*
X46580000Y-20462000I0J-250000D01*
G01*
G37*
G36*
G01*
X78072000Y-39550000D02*
X77122000Y-39550000D01*
G75*
G02*
X76872000Y-39300000I0J250000D01*
G01*
X76872000Y-38800000D01*
G75*
G02*
X77122000Y-38550000I250000J0D01*
G01*
X78072000Y-38550000D01*
G75*
G02*
X78322000Y-38800000I0J-250000D01*
G01*
X78322000Y-39300000D01*
G75*
G02*
X78072000Y-39550000I-250000J0D01*
G01*
G37*
G36*
G01*
X78072000Y-37650000D02*
X77122000Y-37650000D01*
G75*
G02*
X76872000Y-37400000I0J250000D01*
G01*
X76872000Y-36900000D01*
G75*
G02*
X77122000Y-36650000I250000J0D01*
G01*
X78072000Y-36650000D01*
G75*
G02*
X78322000Y-36900000I0J-250000D01*
G01*
X78322000Y-37400000D01*
G75*
G02*
X78072000Y-37650000I-250000J0D01*
G01*
G37*
G36*
G01*
X30712000Y-41253000D02*
X31962000Y-41253000D01*
G75*
G02*
X32112000Y-41403000I0J-150000D01*
G01*
X32112000Y-41703000D01*
G75*
G02*
X31962000Y-41853000I-150000J0D01*
G01*
X30712000Y-41853000D01*
G75*
G02*
X30562000Y-41703000I0J150000D01*
G01*
X30562000Y-41403000D01*
G75*
G02*
X30712000Y-41253000I150000J0D01*
G01*
G37*
G36*
G01*
X30712000Y-42253000D02*
X31962000Y-42253000D01*
G75*
G02*
X32112000Y-42403000I0J-150000D01*
G01*
X32112000Y-42703000D01*
G75*
G02*
X31962000Y-42853000I-150000J0D01*
G01*
X30712000Y-42853000D01*
G75*
G02*
X30562000Y-42703000I0J150000D01*
G01*
X30562000Y-42403000D01*
G75*
G02*
X30712000Y-42253000I150000J0D01*
G01*
G37*
G36*
G01*
X30712000Y-43253000D02*
X31962000Y-43253000D01*
G75*
G02*
X32112000Y-43403000I0J-150000D01*
G01*
X32112000Y-43703000D01*
G75*
G02*
X31962000Y-43853000I-150000J0D01*
G01*
X30712000Y-43853000D01*
G75*
G02*
X30562000Y-43703000I0J150000D01*
G01*
X30562000Y-43403000D01*
G75*
G02*
X30712000Y-43253000I150000J0D01*
G01*
G37*
G36*
G01*
X30712000Y-44253000D02*
X31962000Y-44253000D01*
G75*
G02*
X32112000Y-44403000I0J-150000D01*
G01*
X32112000Y-44703000D01*
G75*
G02*
X31962000Y-44853000I-150000J0D01*
G01*
X30712000Y-44853000D01*
G75*
G02*
X30562000Y-44703000I0J150000D01*
G01*
X30562000Y-44403000D01*
G75*
G02*
X30712000Y-44253000I150000J0D01*
G01*
G37*
G36*
G01*
X26812000Y-45253000D02*
X28112000Y-45253000D01*
G75*
G02*
X28362000Y-45503000I0J-250000D01*
G01*
X28362000Y-46203000D01*
G75*
G02*
X28112000Y-46453000I-250000J0D01*
G01*
X26812000Y-46453000D01*
G75*
G02*
X26562000Y-46203000I0J250000D01*
G01*
X26562000Y-45503000D01*
G75*
G02*
X26812000Y-45253000I250000J0D01*
G01*
G37*
G36*
G01*
X26812000Y-39653000D02*
X28112000Y-39653000D01*
G75*
G02*
X28362000Y-39903000I0J-250000D01*
G01*
X28362000Y-40603000D01*
G75*
G02*
X28112000Y-40853000I-250000J0D01*
G01*
X26812000Y-40853000D01*
G75*
G02*
X26562000Y-40603000I0J250000D01*
G01*
X26562000Y-39903000D01*
G75*
G02*
X26812000Y-39653000I250000J0D01*
G01*
G37*
G36*
G01*
X72484000Y-39550000D02*
X71534000Y-39550000D01*
G75*
G02*
X71284000Y-39300000I0J250000D01*
G01*
X71284000Y-38800000D01*
G75*
G02*
X71534000Y-38550000I250000J0D01*
G01*
X72484000Y-38550000D01*
G75*
G02*
X72734000Y-38800000I0J-250000D01*
G01*
X72734000Y-39300000D01*
G75*
G02*
X72484000Y-39550000I-250000J0D01*
G01*
G37*
G36*
G01*
X72484000Y-37650000D02*
X71534000Y-37650000D01*
G75*
G02*
X71284000Y-37400000I0J250000D01*
G01*
X71284000Y-36900000D01*
G75*
G02*
X71534000Y-36650000I250000J0D01*
G01*
X72484000Y-36650000D01*
G75*
G02*
X72734000Y-36900000I0J-250000D01*
G01*
X72734000Y-37400000D01*
G75*
G02*
X72484000Y-37650000I-250000J0D01*
G01*
G37*
G36*
G01*
X81095000Y-64925000D02*
X80195000Y-64925000D01*
G75*
G02*
X79945000Y-64675000I0J250000D01*
G01*
X79945000Y-64150000D01*
G75*
G02*
X80195000Y-63900000I250000J0D01*
G01*
X81095000Y-63900000D01*
G75*
G02*
X81345000Y-64150000I0J-250000D01*
G01*
X81345000Y-64675000D01*
G75*
G02*
X81095000Y-64925000I-250000J0D01*
G01*
G37*
G36*
G01*
X81095000Y-63100000D02*
X80195000Y-63100000D01*
G75*
G02*
X79945000Y-62850000I0J250000D01*
G01*
X79945000Y-62325000D01*
G75*
G02*
X80195000Y-62075000I250000J0D01*
G01*
X81095000Y-62075000D01*
G75*
G02*
X81345000Y-62325000I0J-250000D01*
G01*
X81345000Y-62850000D01*
G75*
G02*
X81095000Y-63100000I-250000J0D01*
G01*
G37*
G36*
G01*
X68765000Y-36675000D02*
X69665000Y-36675000D01*
G75*
G02*
X69915000Y-36925000I0J-250000D01*
G01*
X69915000Y-37450000D01*
G75*
G02*
X69665000Y-37700000I-250000J0D01*
G01*
X68765000Y-37700000D01*
G75*
G02*
X68515000Y-37450000I0J250000D01*
G01*
X68515000Y-36925000D01*
G75*
G02*
X68765000Y-36675000I250000J0D01*
G01*
G37*
G36*
G01*
X68765000Y-38500000D02*
X69665000Y-38500000D01*
G75*
G02*
X69915000Y-38750000I0J-250000D01*
G01*
X69915000Y-39275000D01*
G75*
G02*
X69665000Y-39525000I-250000J0D01*
G01*
X68765000Y-39525000D01*
G75*
G02*
X68515000Y-39275000I0J250000D01*
G01*
X68515000Y-38750000D01*
G75*
G02*
X68765000Y-38500000I250000J0D01*
G01*
G37*
G36*
G01*
X83080000Y-24362000D02*
X83080000Y-25612000D01*
G75*
G02*
X82930000Y-25762000I-150000J0D01*
G01*
X82630000Y-25762000D01*
G75*
G02*
X82480000Y-25612000I0J150000D01*
G01*
X82480000Y-24362000D01*
G75*
G02*
X82630000Y-24212000I150000J0D01*
G01*
X82930000Y-24212000D01*
G75*
G02*
X83080000Y-24362000I0J-150000D01*
G01*
G37*
G36*
G01*
X82080000Y-24362000D02*
X82080000Y-25612000D01*
G75*
G02*
X81930000Y-25762000I-150000J0D01*
G01*
X81630000Y-25762000D01*
G75*
G02*
X81480000Y-25612000I0J150000D01*
G01*
X81480000Y-24362000D01*
G75*
G02*
X81630000Y-24212000I150000J0D01*
G01*
X81930000Y-24212000D01*
G75*
G02*
X82080000Y-24362000I0J-150000D01*
G01*
G37*
G36*
G01*
X81080000Y-24362000D02*
X81080000Y-25612000D01*
G75*
G02*
X80930000Y-25762000I-150000J0D01*
G01*
X80630000Y-25762000D01*
G75*
G02*
X80480000Y-25612000I0J150000D01*
G01*
X80480000Y-24362000D01*
G75*
G02*
X80630000Y-24212000I150000J0D01*
G01*
X80930000Y-24212000D01*
G75*
G02*
X81080000Y-24362000I0J-150000D01*
G01*
G37*
G36*
G01*
X80080000Y-24362000D02*
X80080000Y-25612000D01*
G75*
G02*
X79930000Y-25762000I-150000J0D01*
G01*
X79630000Y-25762000D01*
G75*
G02*
X79480000Y-25612000I0J150000D01*
G01*
X79480000Y-24362000D01*
G75*
G02*
X79630000Y-24212000I150000J0D01*
G01*
X79930000Y-24212000D01*
G75*
G02*
X80080000Y-24362000I0J-150000D01*
G01*
G37*
G36*
G01*
X84680000Y-20462000D02*
X84680000Y-21762000D01*
G75*
G02*
X84430000Y-22012000I-250000J0D01*
G01*
X83730000Y-22012000D01*
G75*
G02*
X83480000Y-21762000I0J250000D01*
G01*
X83480000Y-20462000D01*
G75*
G02*
X83730000Y-20212000I250000J0D01*
G01*
X84430000Y-20212000D01*
G75*
G02*
X84680000Y-20462000I0J-250000D01*
G01*
G37*
G36*
G01*
X79080000Y-20462000D02*
X79080000Y-21762000D01*
G75*
G02*
X78830000Y-22012000I-250000J0D01*
G01*
X78130000Y-22012000D01*
G75*
G02*
X77880000Y-21762000I0J250000D01*
G01*
X77880000Y-20462000D01*
G75*
G02*
X78130000Y-20212000I250000J0D01*
G01*
X78830000Y-20212000D01*
G75*
G02*
X79080000Y-20462000I0J-250000D01*
G01*
G37*
G36*
G01*
X51747000Y-45946000D02*
X52647000Y-45946000D01*
G75*
G02*
X52897000Y-46196000I0J-250000D01*
G01*
X52897000Y-46721000D01*
G75*
G02*
X52647000Y-46971000I-250000J0D01*
G01*
X51747000Y-46971000D01*
G75*
G02*
X51497000Y-46721000I0J250000D01*
G01*
X51497000Y-46196000D01*
G75*
G02*
X51747000Y-45946000I250000J0D01*
G01*
G37*
G36*
G01*
X51747000Y-47771000D02*
X52647000Y-47771000D01*
G75*
G02*
X52897000Y-48021000I0J-250000D01*
G01*
X52897000Y-48546000D01*
G75*
G02*
X52647000Y-48796000I-250000J0D01*
G01*
X51747000Y-48796000D01*
G75*
G02*
X51497000Y-48546000I0J250000D01*
G01*
X51497000Y-48021000D01*
G75*
G02*
X51747000Y-47771000I250000J0D01*
G01*
G37*
G36*
G01*
X77147000Y-42009000D02*
X78047000Y-42009000D01*
G75*
G02*
X78297000Y-42259000I0J-250000D01*
G01*
X78297000Y-42784000D01*
G75*
G02*
X78047000Y-43034000I-250000J0D01*
G01*
X77147000Y-43034000D01*
G75*
G02*
X76897000Y-42784000I0J250000D01*
G01*
X76897000Y-42259000D01*
G75*
G02*
X77147000Y-42009000I250000J0D01*
G01*
G37*
G36*
G01*
X77147000Y-43834000D02*
X78047000Y-43834000D01*
G75*
G02*
X78297000Y-44084000I0J-250000D01*
G01*
X78297000Y-44609000D01*
G75*
G02*
X78047000Y-44859000I-250000J0D01*
G01*
X77147000Y-44859000D01*
G75*
G02*
X76897000Y-44609000I0J250000D01*
G01*
X76897000Y-44084000D01*
G75*
G02*
X77147000Y-43834000I250000J0D01*
G01*
G37*
G36*
G01*
X39346000Y-40221000D02*
X39346000Y-39921000D01*
G75*
G02*
X39496000Y-39771000I150000J0D01*
G01*
X40671000Y-39771000D01*
G75*
G02*
X40821000Y-39921000I0J-150000D01*
G01*
X40821000Y-40221000D01*
G75*
G02*
X40671000Y-40371000I-150000J0D01*
G01*
X39496000Y-40371000D01*
G75*
G02*
X39346000Y-40221000I0J150000D01*
G01*
G37*
G36*
G01*
X39346000Y-42121000D02*
X39346000Y-41821000D01*
G75*
G02*
X39496000Y-41671000I150000J0D01*
G01*
X40671000Y-41671000D01*
G75*
G02*
X40821000Y-41821000I0J-150000D01*
G01*
X40821000Y-42121000D01*
G75*
G02*
X40671000Y-42271000I-150000J0D01*
G01*
X39496000Y-42271000D01*
G75*
G02*
X39346000Y-42121000I0J150000D01*
G01*
G37*
G36*
G01*
X41221000Y-41171000D02*
X41221000Y-40871000D01*
G75*
G02*
X41371000Y-40721000I150000J0D01*
G01*
X42546000Y-40721000D01*
G75*
G02*
X42696000Y-40871000I0J-150000D01*
G01*
X42696000Y-41171000D01*
G75*
G02*
X42546000Y-41321000I-150000J0D01*
G01*
X41371000Y-41321000D01*
G75*
G02*
X41221000Y-41171000I0J150000D01*
G01*
G37*
G36*
G01*
X74353000Y-36675000D02*
X75253000Y-36675000D01*
G75*
G02*
X75503000Y-36925000I0J-250000D01*
G01*
X75503000Y-37450000D01*
G75*
G02*
X75253000Y-37700000I-250000J0D01*
G01*
X74353000Y-37700000D01*
G75*
G02*
X74103000Y-37450000I0J250000D01*
G01*
X74103000Y-36925000D01*
G75*
G02*
X74353000Y-36675000I250000J0D01*
G01*
G37*
G36*
G01*
X74353000Y-38500000D02*
X75253000Y-38500000D01*
G75*
G02*
X75503000Y-38750000I0J-250000D01*
G01*
X75503000Y-39275000D01*
G75*
G02*
X75253000Y-39525000I-250000J0D01*
G01*
X74353000Y-39525000D01*
G75*
G02*
X74103000Y-39275000I0J250000D01*
G01*
X74103000Y-38750000D01*
G75*
G02*
X74353000Y-38500000I250000J0D01*
G01*
G37*
G36*
G01*
X70380000Y-24362000D02*
X70380000Y-25612000D01*
G75*
G02*
X70230000Y-25762000I-150000J0D01*
G01*
X69930000Y-25762000D01*
G75*
G02*
X69780000Y-25612000I0J150000D01*
G01*
X69780000Y-24362000D01*
G75*
G02*
X69930000Y-24212000I150000J0D01*
G01*
X70230000Y-24212000D01*
G75*
G02*
X70380000Y-24362000I0J-150000D01*
G01*
G37*
G36*
G01*
X69380000Y-24362000D02*
X69380000Y-25612000D01*
G75*
G02*
X69230000Y-25762000I-150000J0D01*
G01*
X68930000Y-25762000D01*
G75*
G02*
X68780000Y-25612000I0J150000D01*
G01*
X68780000Y-24362000D01*
G75*
G02*
X68930000Y-24212000I150000J0D01*
G01*
X69230000Y-24212000D01*
G75*
G02*
X69380000Y-24362000I0J-150000D01*
G01*
G37*
G36*
G01*
X68380000Y-24362000D02*
X68380000Y-25612000D01*
G75*
G02*
X68230000Y-25762000I-150000J0D01*
G01*
X67930000Y-25762000D01*
G75*
G02*
X67780000Y-25612000I0J150000D01*
G01*
X67780000Y-24362000D01*
G75*
G02*
X67930000Y-24212000I150000J0D01*
G01*
X68230000Y-24212000D01*
G75*
G02*
X68380000Y-24362000I0J-150000D01*
G01*
G37*
G36*
G01*
X67380000Y-24362000D02*
X67380000Y-25612000D01*
G75*
G02*
X67230000Y-25762000I-150000J0D01*
G01*
X66930000Y-25762000D01*
G75*
G02*
X66780000Y-25612000I0J150000D01*
G01*
X66780000Y-24362000D01*
G75*
G02*
X66930000Y-24212000I150000J0D01*
G01*
X67230000Y-24212000D01*
G75*
G02*
X67380000Y-24362000I0J-150000D01*
G01*
G37*
G36*
G01*
X71980000Y-20462000D02*
X71980000Y-21762000D01*
G75*
G02*
X71730000Y-22012000I-250000J0D01*
G01*
X71030000Y-22012000D01*
G75*
G02*
X70780000Y-21762000I0J250000D01*
G01*
X70780000Y-20462000D01*
G75*
G02*
X71030000Y-20212000I250000J0D01*
G01*
X71730000Y-20212000D01*
G75*
G02*
X71980000Y-20462000I0J-250000D01*
G01*
G37*
G36*
G01*
X66380000Y-20462000D02*
X66380000Y-21762000D01*
G75*
G02*
X66130000Y-22012000I-250000J0D01*
G01*
X65430000Y-22012000D01*
G75*
G02*
X65180000Y-21762000I0J250000D01*
G01*
X65180000Y-20462000D01*
G75*
G02*
X65430000Y-20212000I250000J0D01*
G01*
X66130000Y-20212000D01*
G75*
G02*
X66380000Y-20462000I0J-250000D01*
G01*
G37*
G36*
G01*
X57680000Y-24362000D02*
X57680000Y-25612000D01*
G75*
G02*
X57530000Y-25762000I-150000J0D01*
G01*
X57230000Y-25762000D01*
G75*
G02*
X57080000Y-25612000I0J150000D01*
G01*
X57080000Y-24362000D01*
G75*
G02*
X57230000Y-24212000I150000J0D01*
G01*
X57530000Y-24212000D01*
G75*
G02*
X57680000Y-24362000I0J-150000D01*
G01*
G37*
G36*
G01*
X56680000Y-24362000D02*
X56680000Y-25612000D01*
G75*
G02*
X56530000Y-25762000I-150000J0D01*
G01*
X56230000Y-25762000D01*
G75*
G02*
X56080000Y-25612000I0J150000D01*
G01*
X56080000Y-24362000D01*
G75*
G02*
X56230000Y-24212000I150000J0D01*
G01*
X56530000Y-24212000D01*
G75*
G02*
X56680000Y-24362000I0J-150000D01*
G01*
G37*
G36*
G01*
X55680000Y-24362000D02*
X55680000Y-25612000D01*
G75*
G02*
X55530000Y-25762000I-150000J0D01*
G01*
X55230000Y-25762000D01*
G75*
G02*
X55080000Y-25612000I0J150000D01*
G01*
X55080000Y-24362000D01*
G75*
G02*
X55230000Y-24212000I150000J0D01*
G01*
X55530000Y-24212000D01*
G75*
G02*
X55680000Y-24362000I0J-150000D01*
G01*
G37*
G36*
G01*
X54680000Y-24362000D02*
X54680000Y-25612000D01*
G75*
G02*
X54530000Y-25762000I-150000J0D01*
G01*
X54230000Y-25762000D01*
G75*
G02*
X54080000Y-25612000I0J150000D01*
G01*
X54080000Y-24362000D01*
G75*
G02*
X54230000Y-24212000I150000J0D01*
G01*
X54530000Y-24212000D01*
G75*
G02*
X54680000Y-24362000I0J-150000D01*
G01*
G37*
G36*
G01*
X59280000Y-20462000D02*
X59280000Y-21762000D01*
G75*
G02*
X59030000Y-22012000I-250000J0D01*
G01*
X58330000Y-22012000D01*
G75*
G02*
X58080000Y-21762000I0J250000D01*
G01*
X58080000Y-20462000D01*
G75*
G02*
X58330000Y-20212000I250000J0D01*
G01*
X59030000Y-20212000D01*
G75*
G02*
X59280000Y-20462000I0J-250000D01*
G01*
G37*
G36*
G01*
X53680000Y-20462000D02*
X53680000Y-21762000D01*
G75*
G02*
X53430000Y-22012000I-250000J0D01*
G01*
X52730000Y-22012000D01*
G75*
G02*
X52480000Y-21762000I0J250000D01*
G01*
X52480000Y-20462000D01*
G75*
G02*
X52730000Y-20212000I250000J0D01*
G01*
X53430000Y-20212000D01*
G75*
G02*
X53680000Y-20462000I0J-250000D01*
G01*
G37*
G36*
G01*
X67125000Y-64925000D02*
X66225000Y-64925000D01*
G75*
G02*
X65975000Y-64675000I0J250000D01*
G01*
X65975000Y-64150000D01*
G75*
G02*
X66225000Y-63900000I250000J0D01*
G01*
X67125000Y-63900000D01*
G75*
G02*
X67375000Y-64150000I0J-250000D01*
G01*
X67375000Y-64675000D01*
G75*
G02*
X67125000Y-64925000I-250000J0D01*
G01*
G37*
G36*
G01*
X67125000Y-63100000D02*
X66225000Y-63100000D01*
G75*
G02*
X65975000Y-62850000I0J250000D01*
G01*
X65975000Y-62325000D01*
G75*
G02*
X66225000Y-62075000I250000J0D01*
G01*
X67125000Y-62075000D01*
G75*
G02*
X67375000Y-62325000I0J-250000D01*
G01*
X67375000Y-62850000D01*
G75*
G02*
X67125000Y-63100000I-250000J0D01*
G01*
G37*
G36*
G01*
X54080000Y-77238000D02*
X54080000Y-75988000D01*
G75*
G02*
X54230000Y-75838000I150000J0D01*
G01*
X54530000Y-75838000D01*
G75*
G02*
X54680000Y-75988000I0J-150000D01*
G01*
X54680000Y-77238000D01*
G75*
G02*
X54530000Y-77388000I-150000J0D01*
G01*
X54230000Y-77388000D01*
G75*
G02*
X54080000Y-77238000I0J150000D01*
G01*
G37*
G36*
G01*
X55080000Y-77238000D02*
X55080000Y-75988000D01*
G75*
G02*
X55230000Y-75838000I150000J0D01*
G01*
X55530000Y-75838000D01*
G75*
G02*
X55680000Y-75988000I0J-150000D01*
G01*
X55680000Y-77238000D01*
G75*
G02*
X55530000Y-77388000I-150000J0D01*
G01*
X55230000Y-77388000D01*
G75*
G02*
X55080000Y-77238000I0J150000D01*
G01*
G37*
G36*
G01*
X56080000Y-77238000D02*
X56080000Y-75988000D01*
G75*
G02*
X56230000Y-75838000I150000J0D01*
G01*
X56530000Y-75838000D01*
G75*
G02*
X56680000Y-75988000I0J-150000D01*
G01*
X56680000Y-77238000D01*
G75*
G02*
X56530000Y-77388000I-150000J0D01*
G01*
X56230000Y-77388000D01*
G75*
G02*
X56080000Y-77238000I0J150000D01*
G01*
G37*
G36*
G01*
X57080000Y-77238000D02*
X57080000Y-75988000D01*
G75*
G02*
X57230000Y-75838000I150000J0D01*
G01*
X57530000Y-75838000D01*
G75*
G02*
X57680000Y-75988000I0J-150000D01*
G01*
X57680000Y-77238000D01*
G75*
G02*
X57530000Y-77388000I-150000J0D01*
G01*
X57230000Y-77388000D01*
G75*
G02*
X57080000Y-77238000I0J150000D01*
G01*
G37*
G36*
G01*
X58080000Y-81138000D02*
X58080000Y-79838000D01*
G75*
G02*
X58330000Y-79588000I250000J0D01*
G01*
X59030000Y-79588000D01*
G75*
G02*
X59280000Y-79838000I0J-250000D01*
G01*
X59280000Y-81138000D01*
G75*
G02*
X59030000Y-81388000I-250000J0D01*
G01*
X58330000Y-81388000D01*
G75*
G02*
X58080000Y-81138000I0J250000D01*
G01*
G37*
G36*
G01*
X52480000Y-81138000D02*
X52480000Y-79838000D01*
G75*
G02*
X52730000Y-79588000I250000J0D01*
G01*
X53430000Y-79588000D01*
G75*
G02*
X53680000Y-79838000I0J-250000D01*
G01*
X53680000Y-81138000D01*
G75*
G02*
X53430000Y-81388000I-250000J0D01*
G01*
X52730000Y-81388000D01*
G75*
G02*
X52480000Y-81138000I0J250000D01*
G01*
G37*
G36*
G01*
X76040000Y-54917000D02*
X75090000Y-54917000D01*
G75*
G02*
X74840000Y-54667000I0J250000D01*
G01*
X74840000Y-54167000D01*
G75*
G02*
X75090000Y-53917000I250000J0D01*
G01*
X76040000Y-53917000D01*
G75*
G02*
X76290000Y-54167000I0J-250000D01*
G01*
X76290000Y-54667000D01*
G75*
G02*
X76040000Y-54917000I-250000J0D01*
G01*
G37*
G36*
G01*
X76040000Y-53017000D02*
X75090000Y-53017000D01*
G75*
G02*
X74840000Y-52767000I0J250000D01*
G01*
X74840000Y-52267000D01*
G75*
G02*
X75090000Y-52017000I250000J0D01*
G01*
X76040000Y-52017000D01*
G75*
G02*
X76290000Y-52267000I0J-250000D01*
G01*
X76290000Y-52767000D01*
G75*
G02*
X76040000Y-53017000I-250000J0D01*
G01*
G37*
G36*
G01*
X77376000Y-62050000D02*
X78326000Y-62050000D01*
G75*
G02*
X78576000Y-62300000I0J-250000D01*
G01*
X78576000Y-62800000D01*
G75*
G02*
X78326000Y-63050000I-250000J0D01*
G01*
X77376000Y-63050000D01*
G75*
G02*
X77126000Y-62800000I0J250000D01*
G01*
X77126000Y-62300000D01*
G75*
G02*
X77376000Y-62050000I250000J0D01*
G01*
G37*
G36*
G01*
X77376000Y-63950000D02*
X78326000Y-63950000D01*
G75*
G02*
X78576000Y-64200000I0J-250000D01*
G01*
X78576000Y-64700000D01*
G75*
G02*
X78326000Y-64950000I-250000J0D01*
G01*
X77376000Y-64950000D01*
G75*
G02*
X77126000Y-64700000I0J250000D01*
G01*
X77126000Y-64200000D01*
G75*
G02*
X77376000Y-63950000I250000J0D01*
G01*
G37*
G36*
G01*
X66780000Y-77238000D02*
X66780000Y-75988000D01*
G75*
G02*
X66930000Y-75838000I150000J0D01*
G01*
X67230000Y-75838000D01*
G75*
G02*
X67380000Y-75988000I0J-150000D01*
G01*
X67380000Y-77238000D01*
G75*
G02*
X67230000Y-77388000I-150000J0D01*
G01*
X66930000Y-77388000D01*
G75*
G02*
X66780000Y-77238000I0J150000D01*
G01*
G37*
G36*
G01*
X67780000Y-77238000D02*
X67780000Y-75988000D01*
G75*
G02*
X67930000Y-75838000I150000J0D01*
G01*
X68230000Y-75838000D01*
G75*
G02*
X68380000Y-75988000I0J-150000D01*
G01*
X68380000Y-77238000D01*
G75*
G02*
X68230000Y-77388000I-150000J0D01*
G01*
X67930000Y-77388000D01*
G75*
G02*
X67780000Y-77238000I0J150000D01*
G01*
G37*
G36*
G01*
X68780000Y-77238000D02*
X68780000Y-75988000D01*
G75*
G02*
X68930000Y-75838000I150000J0D01*
G01*
X69230000Y-75838000D01*
G75*
G02*
X69380000Y-75988000I0J-150000D01*
G01*
X69380000Y-77238000D01*
G75*
G02*
X69230000Y-77388000I-150000J0D01*
G01*
X68930000Y-77388000D01*
G75*
G02*
X68780000Y-77238000I0J150000D01*
G01*
G37*
G36*
G01*
X69780000Y-77238000D02*
X69780000Y-75988000D01*
G75*
G02*
X69930000Y-75838000I150000J0D01*
G01*
X70230000Y-75838000D01*
G75*
G02*
X70380000Y-75988000I0J-150000D01*
G01*
X70380000Y-77238000D01*
G75*
G02*
X70230000Y-77388000I-150000J0D01*
G01*
X69930000Y-77388000D01*
G75*
G02*
X69780000Y-77238000I0J150000D01*
G01*
G37*
G36*
G01*
X70780000Y-81138000D02*
X70780000Y-79838000D01*
G75*
G02*
X71030000Y-79588000I250000J0D01*
G01*
X71730000Y-79588000D01*
G75*
G02*
X71980000Y-79838000I0J-250000D01*
G01*
X71980000Y-81138000D01*
G75*
G02*
X71730000Y-81388000I-250000J0D01*
G01*
X71030000Y-81388000D01*
G75*
G02*
X70780000Y-81138000I0J250000D01*
G01*
G37*
G36*
G01*
X65180000Y-81138000D02*
X65180000Y-79838000D01*
G75*
G02*
X65430000Y-79588000I250000J0D01*
G01*
X66130000Y-79588000D01*
G75*
G02*
X66380000Y-79838000I0J-250000D01*
G01*
X66380000Y-81138000D01*
G75*
G02*
X66130000Y-81388000I-250000J0D01*
G01*
X65430000Y-81388000D01*
G75*
G02*
X65180000Y-81138000I0J250000D01*
G01*
G37*
G36*
G01*
X40607000Y-48882000D02*
X39657000Y-48882000D01*
G75*
G02*
X39407000Y-48632000I0J250000D01*
G01*
X39407000Y-48132000D01*
G75*
G02*
X39657000Y-47882000I250000J0D01*
G01*
X40607000Y-47882000D01*
G75*
G02*
X40857000Y-48132000I0J-250000D01*
G01*
X40857000Y-48632000D01*
G75*
G02*
X40607000Y-48882000I-250000J0D01*
G01*
G37*
G36*
G01*
X40607000Y-46982000D02*
X39657000Y-46982000D01*
G75*
G02*
X39407000Y-46732000I0J250000D01*
G01*
X39407000Y-46232000D01*
G75*
G02*
X39657000Y-45982000I250000J0D01*
G01*
X40607000Y-45982000D01*
G75*
G02*
X40857000Y-46232000I0J-250000D01*
G01*
X40857000Y-46732000D01*
G75*
G02*
X40607000Y-46982000I-250000J0D01*
G01*
G37*
G36*
G01*
X89858000Y-43208000D02*
X88958000Y-43208000D01*
G75*
G02*
X88708000Y-42958000I0J250000D01*
G01*
X88708000Y-42433000D01*
G75*
G02*
X88958000Y-42183000I250000J0D01*
G01*
X89858000Y-42183000D01*
G75*
G02*
X90108000Y-42433000I0J-250000D01*
G01*
X90108000Y-42958000D01*
G75*
G02*
X89858000Y-43208000I-250000J0D01*
G01*
G37*
G36*
G01*
X89858000Y-41383000D02*
X88958000Y-41383000D01*
G75*
G02*
X88708000Y-41133000I0J250000D01*
G01*
X88708000Y-40608000D01*
G75*
G02*
X88958000Y-40358000I250000J0D01*
G01*
X89858000Y-40358000D01*
G75*
G02*
X90108000Y-40608000I0J-250000D01*
G01*
X90108000Y-41133000D01*
G75*
G02*
X89858000Y-41383000I-250000J0D01*
G01*
G37*
G36*
G01*
X79480000Y-77238000D02*
X79480000Y-75988000D01*
G75*
G02*
X79630000Y-75838000I150000J0D01*
G01*
X79930000Y-75838000D01*
G75*
G02*
X80080000Y-75988000I0J-150000D01*
G01*
X80080000Y-77238000D01*
G75*
G02*
X79930000Y-77388000I-150000J0D01*
G01*
X79630000Y-77388000D01*
G75*
G02*
X79480000Y-77238000I0J150000D01*
G01*
G37*
G36*
G01*
X80480000Y-77238000D02*
X80480000Y-75988000D01*
G75*
G02*
X80630000Y-75838000I150000J0D01*
G01*
X80930000Y-75838000D01*
G75*
G02*
X81080000Y-75988000I0J-150000D01*
G01*
X81080000Y-77238000D01*
G75*
G02*
X80930000Y-77388000I-150000J0D01*
G01*
X80630000Y-77388000D01*
G75*
G02*
X80480000Y-77238000I0J150000D01*
G01*
G37*
G36*
G01*
X81480000Y-77238000D02*
X81480000Y-75988000D01*
G75*
G02*
X81630000Y-75838000I150000J0D01*
G01*
X81930000Y-75838000D01*
G75*
G02*
X82080000Y-75988000I0J-150000D01*
G01*
X82080000Y-77238000D01*
G75*
G02*
X81930000Y-77388000I-150000J0D01*
G01*
X81630000Y-77388000D01*
G75*
G02*
X81480000Y-77238000I0J150000D01*
G01*
G37*
G36*
G01*
X82480000Y-77238000D02*
X82480000Y-75988000D01*
G75*
G02*
X82630000Y-75838000I150000J0D01*
G01*
X82930000Y-75838000D01*
G75*
G02*
X83080000Y-75988000I0J-150000D01*
G01*
X83080000Y-77238000D01*
G75*
G02*
X82930000Y-77388000I-150000J0D01*
G01*
X82630000Y-77388000D01*
G75*
G02*
X82480000Y-77238000I0J150000D01*
G01*
G37*
G36*
G01*
X83480000Y-81138000D02*
X83480000Y-79838000D01*
G75*
G02*
X83730000Y-79588000I250000J0D01*
G01*
X84430000Y-79588000D01*
G75*
G02*
X84680000Y-79838000I0J-250000D01*
G01*
X84680000Y-81138000D01*
G75*
G02*
X84430000Y-81388000I-250000J0D01*
G01*
X83730000Y-81388000D01*
G75*
G02*
X83480000Y-81138000I0J250000D01*
G01*
G37*
G36*
G01*
X77880000Y-81138000D02*
X77880000Y-79838000D01*
G75*
G02*
X78130000Y-79588000I250000J0D01*
G01*
X78830000Y-79588000D01*
G75*
G02*
X79080000Y-79838000I0J-250000D01*
G01*
X79080000Y-81138000D01*
G75*
G02*
X78830000Y-81388000I-250000J0D01*
G01*
X78130000Y-81388000D01*
G75*
G02*
X77880000Y-81138000I0J250000D01*
G01*
G37*
G36*
G01*
X86816250Y-43208000D02*
X85903750Y-43208000D01*
G75*
G02*
X85660000Y-42964250I0J243750D01*
G01*
X85660000Y-42476750D01*
G75*
G02*
X85903750Y-42233000I243750J0D01*
G01*
X86816250Y-42233000D01*
G75*
G02*
X87060000Y-42476750I0J-243750D01*
G01*
X87060000Y-42964250D01*
G75*
G02*
X86816250Y-43208000I-243750J0D01*
G01*
G37*
G36*
G01*
X86816250Y-41333000D02*
X85903750Y-41333000D01*
G75*
G02*
X85660000Y-41089250I0J243750D01*
G01*
X85660000Y-40601750D01*
G75*
G02*
X85903750Y-40358000I243750J0D01*
G01*
X86816250Y-40358000D01*
G75*
G02*
X87060000Y-40601750I0J-243750D01*
G01*
X87060000Y-41089250D01*
G75*
G02*
X86816250Y-41333000I-243750J0D01*
G01*
G37*
G36*
G01*
X74582000Y-62050000D02*
X75532000Y-62050000D01*
G75*
G02*
X75782000Y-62300000I0J-250000D01*
G01*
X75782000Y-62800000D01*
G75*
G02*
X75532000Y-63050000I-250000J0D01*
G01*
X74582000Y-63050000D01*
G75*
G02*
X74332000Y-62800000I0J250000D01*
G01*
X74332000Y-62300000D01*
G75*
G02*
X74582000Y-62050000I250000J0D01*
G01*
G37*
G36*
G01*
X74582000Y-63950000D02*
X75532000Y-63950000D01*
G75*
G02*
X75782000Y-64200000I0J-250000D01*
G01*
X75782000Y-64700000D01*
G75*
G02*
X75532000Y-64950000I-250000J0D01*
G01*
X74582000Y-64950000D01*
G75*
G02*
X74332000Y-64700000I0J250000D01*
G01*
X74332000Y-64200000D01*
G75*
G02*
X74582000Y-63950000I250000J0D01*
G01*
G37*
G36*
G01*
X48613000Y-44017250D02*
X48613000Y-43104750D01*
G75*
G02*
X48856750Y-42861000I243750J0D01*
G01*
X49344250Y-42861000D01*
G75*
G02*
X49588000Y-43104750I0J-243750D01*
G01*
X49588000Y-44017250D01*
G75*
G02*
X49344250Y-44261000I-243750J0D01*
G01*
X48856750Y-44261000D01*
G75*
G02*
X48613000Y-44017250I0J243750D01*
G01*
G37*
G36*
G01*
X50488000Y-44017250D02*
X50488000Y-43104750D01*
G75*
G02*
X50731750Y-42861000I243750J0D01*
G01*
X51219250Y-42861000D01*
G75*
G02*
X51463000Y-43104750I0J-243750D01*
G01*
X51463000Y-44017250D01*
G75*
G02*
X51219250Y-44261000I-243750J0D01*
G01*
X50731750Y-44261000D01*
G75*
G02*
X50488000Y-44017250I0J243750D01*
G01*
G37*
D11*
X92316300Y-60071000D03*
X92316300Y-57531000D03*
X92316300Y-54991000D03*
X92316300Y-52451000D03*
X92316300Y-49911000D03*
X83705700Y-49911000D03*
X83705700Y-52451000D03*
X83705700Y-54991000D03*
X83705700Y-57531000D03*
X83705700Y-60071000D03*
G36*
G01*
X92658250Y-43208000D02*
X91745750Y-43208000D01*
G75*
G02*
X91502000Y-42964250I0J243750D01*
G01*
X91502000Y-42476750D01*
G75*
G02*
X91745750Y-42233000I243750J0D01*
G01*
X92658250Y-42233000D01*
G75*
G02*
X92902000Y-42476750I0J-243750D01*
G01*
X92902000Y-42964250D01*
G75*
G02*
X92658250Y-43208000I-243750J0D01*
G01*
G37*
G36*
G01*
X92658250Y-41333000D02*
X91745750Y-41333000D01*
G75*
G02*
X91502000Y-41089250I0J243750D01*
G01*
X91502000Y-40601750D01*
G75*
G02*
X91745750Y-40358000I243750J0D01*
G01*
X92658250Y-40358000D01*
G75*
G02*
X92902000Y-40601750I0J-243750D01*
G01*
X92902000Y-41089250D01*
G75*
G02*
X92658250Y-41333000I-243750J0D01*
G01*
G37*
G36*
G01*
X63406000Y-62050000D02*
X64356000Y-62050000D01*
G75*
G02*
X64606000Y-62300000I0J-250000D01*
G01*
X64606000Y-62800000D01*
G75*
G02*
X64356000Y-63050000I-250000J0D01*
G01*
X63406000Y-63050000D01*
G75*
G02*
X63156000Y-62800000I0J250000D01*
G01*
X63156000Y-62300000D01*
G75*
G02*
X63406000Y-62050000I250000J0D01*
G01*
G37*
G36*
G01*
X63406000Y-63950000D02*
X64356000Y-63950000D01*
G75*
G02*
X64606000Y-64200000I0J-250000D01*
G01*
X64606000Y-64700000D01*
G75*
G02*
X64356000Y-64950000I-250000J0D01*
G01*
X63406000Y-64950000D01*
G75*
G02*
X63156000Y-64700000I0J250000D01*
G01*
X63156000Y-64200000D01*
G75*
G02*
X63406000Y-63950000I250000J0D01*
G01*
G37*
G36*
G01*
X48613000Y-40715250D02*
X48613000Y-39802750D01*
G75*
G02*
X48856750Y-39559000I243750J0D01*
G01*
X49344250Y-39559000D01*
G75*
G02*
X49588000Y-39802750I0J-243750D01*
G01*
X49588000Y-40715250D01*
G75*
G02*
X49344250Y-40959000I-243750J0D01*
G01*
X48856750Y-40959000D01*
G75*
G02*
X48613000Y-40715250I0J243750D01*
G01*
G37*
G36*
G01*
X50488000Y-40715250D02*
X50488000Y-39802750D01*
G75*
G02*
X50731750Y-39559000I243750J0D01*
G01*
X51219250Y-39559000D01*
G75*
G02*
X51463000Y-39802750I0J-243750D01*
G01*
X51463000Y-40715250D01*
G75*
G02*
X51219250Y-40959000I-243750J0D01*
G01*
X50731750Y-40959000D01*
G75*
G02*
X50488000Y-40715250I0J243750D01*
G01*
G37*
G36*
G01*
X30712000Y-56493000D02*
X31962000Y-56493000D01*
G75*
G02*
X32112000Y-56643000I0J-150000D01*
G01*
X32112000Y-56943000D01*
G75*
G02*
X31962000Y-57093000I-150000J0D01*
G01*
X30712000Y-57093000D01*
G75*
G02*
X30562000Y-56943000I0J150000D01*
G01*
X30562000Y-56643000D01*
G75*
G02*
X30712000Y-56493000I150000J0D01*
G01*
G37*
G36*
G01*
X30712000Y-57493000D02*
X31962000Y-57493000D01*
G75*
G02*
X32112000Y-57643000I0J-150000D01*
G01*
X32112000Y-57943000D01*
G75*
G02*
X31962000Y-58093000I-150000J0D01*
G01*
X30712000Y-58093000D01*
G75*
G02*
X30562000Y-57943000I0J150000D01*
G01*
X30562000Y-57643000D01*
G75*
G02*
X30712000Y-57493000I150000J0D01*
G01*
G37*
G36*
G01*
X30712000Y-58493000D02*
X31962000Y-58493000D01*
G75*
G02*
X32112000Y-58643000I0J-150000D01*
G01*
X32112000Y-58943000D01*
G75*
G02*
X31962000Y-59093000I-150000J0D01*
G01*
X30712000Y-59093000D01*
G75*
G02*
X30562000Y-58943000I0J150000D01*
G01*
X30562000Y-58643000D01*
G75*
G02*
X30712000Y-58493000I150000J0D01*
G01*
G37*
G36*
G01*
X30712000Y-59493000D02*
X31962000Y-59493000D01*
G75*
G02*
X32112000Y-59643000I0J-150000D01*
G01*
X32112000Y-59943000D01*
G75*
G02*
X31962000Y-60093000I-150000J0D01*
G01*
X30712000Y-60093000D01*
G75*
G02*
X30562000Y-59943000I0J150000D01*
G01*
X30562000Y-59643000D01*
G75*
G02*
X30712000Y-59493000I150000J0D01*
G01*
G37*
G36*
G01*
X26812000Y-54893000D02*
X28112000Y-54893000D01*
G75*
G02*
X28362000Y-55143000I0J-250000D01*
G01*
X28362000Y-55843000D01*
G75*
G02*
X28112000Y-56093000I-250000J0D01*
G01*
X26812000Y-56093000D01*
G75*
G02*
X26562000Y-55843000I0J250000D01*
G01*
X26562000Y-55143000D01*
G75*
G02*
X26812000Y-54893000I250000J0D01*
G01*
G37*
G36*
G01*
X26812000Y-60493000D02*
X28112000Y-60493000D01*
G75*
G02*
X28362000Y-60743000I0J-250000D01*
G01*
X28362000Y-61443000D01*
G75*
G02*
X28112000Y-61693000I-250000J0D01*
G01*
X26812000Y-61693000D01*
G75*
G02*
X26562000Y-61443000I0J250000D01*
G01*
X26562000Y-60743000D01*
G75*
G02*
X26812000Y-60493000I250000J0D01*
G01*
G37*
G36*
G01*
X72713000Y-64925000D02*
X71813000Y-64925000D01*
G75*
G02*
X71563000Y-64675000I0J250000D01*
G01*
X71563000Y-64150000D01*
G75*
G02*
X71813000Y-63900000I250000J0D01*
G01*
X72713000Y-63900000D01*
G75*
G02*
X72963000Y-64150000I0J-250000D01*
G01*
X72963000Y-64675000D01*
G75*
G02*
X72713000Y-64925000I-250000J0D01*
G01*
G37*
G36*
G01*
X72713000Y-63100000D02*
X71813000Y-63100000D01*
G75*
G02*
X71563000Y-62850000I0J250000D01*
G01*
X71563000Y-62325000D01*
G75*
G02*
X71813000Y-62075000I250000J0D01*
G01*
X72713000Y-62075000D01*
G75*
G02*
X72963000Y-62325000I0J-250000D01*
G01*
X72963000Y-62850000D01*
G75*
G02*
X72713000Y-63100000I-250000J0D01*
G01*
G37*
G36*
G01*
X84016000Y-43208000D02*
X83116000Y-43208000D01*
G75*
G02*
X82866000Y-42958000I0J250000D01*
G01*
X82866000Y-42433000D01*
G75*
G02*
X83116000Y-42183000I250000J0D01*
G01*
X84016000Y-42183000D01*
G75*
G02*
X84266000Y-42433000I0J-250000D01*
G01*
X84266000Y-42958000D01*
G75*
G02*
X84016000Y-43208000I-250000J0D01*
G01*
G37*
G36*
G01*
X84016000Y-41383000D02*
X83116000Y-41383000D01*
G75*
G02*
X82866000Y-41133000I0J250000D01*
G01*
X82866000Y-40608000D01*
G75*
G02*
X83116000Y-40358000I250000J0D01*
G01*
X84016000Y-40358000D01*
G75*
G02*
X84266000Y-40608000I0J-250000D01*
G01*
X84266000Y-41133000D01*
G75*
G02*
X84016000Y-41383000I-250000J0D01*
G01*
G37*
G36*
G01*
X45281000Y-42319000D02*
X44381000Y-42319000D01*
G75*
G02*
X44131000Y-42069000I0J250000D01*
G01*
X44131000Y-41544000D01*
G75*
G02*
X44381000Y-41294000I250000J0D01*
G01*
X45281000Y-41294000D01*
G75*
G02*
X45531000Y-41544000I0J-250000D01*
G01*
X45531000Y-42069000D01*
G75*
G02*
X45281000Y-42319000I-250000J0D01*
G01*
G37*
G36*
G01*
X45281000Y-40494000D02*
X44381000Y-40494000D01*
G75*
G02*
X44131000Y-40244000I0J250000D01*
G01*
X44131000Y-39719000D01*
G75*
G02*
X44381000Y-39469000I250000J0D01*
G01*
X45281000Y-39469000D01*
G75*
G02*
X45531000Y-39719000I0J-250000D01*
G01*
X45531000Y-40244000D01*
G75*
G02*
X45281000Y-40494000I-250000J0D01*
G01*
G37*
G36*
G01*
X75278000Y-44884000D02*
X74328000Y-44884000D01*
G75*
G02*
X74078000Y-44634000I0J250000D01*
G01*
X74078000Y-44134000D01*
G75*
G02*
X74328000Y-43884000I250000J0D01*
G01*
X75278000Y-43884000D01*
G75*
G02*
X75528000Y-44134000I0J-250000D01*
G01*
X75528000Y-44634000D01*
G75*
G02*
X75278000Y-44884000I-250000J0D01*
G01*
G37*
G36*
G01*
X75278000Y-42984000D02*
X74328000Y-42984000D01*
G75*
G02*
X74078000Y-42734000I0J250000D01*
G01*
X74078000Y-42234000D01*
G75*
G02*
X74328000Y-41984000I250000J0D01*
G01*
X75278000Y-41984000D01*
G75*
G02*
X75528000Y-42234000I0J-250000D01*
G01*
X75528000Y-42734000D01*
G75*
G02*
X75278000Y-42984000I-250000J0D01*
G01*
G37*
G36*
G01*
X61000000Y-47521000D02*
X61000000Y-47221000D01*
G75*
G02*
X61150000Y-47071000I150000J0D01*
G01*
X62900000Y-47071000D01*
G75*
G02*
X63050000Y-47221000I0J-150000D01*
G01*
X63050000Y-47521000D01*
G75*
G02*
X62900000Y-47671000I-150000J0D01*
G01*
X61150000Y-47671000D01*
G75*
G02*
X61000000Y-47521000I0J150000D01*
G01*
G37*
G36*
G01*
X61000000Y-48791000D02*
X61000000Y-48491000D01*
G75*
G02*
X61150000Y-48341000I150000J0D01*
G01*
X62900000Y-48341000D01*
G75*
G02*
X63050000Y-48491000I0J-150000D01*
G01*
X63050000Y-48791000D01*
G75*
G02*
X62900000Y-48941000I-150000J0D01*
G01*
X61150000Y-48941000D01*
G75*
G02*
X61000000Y-48791000I0J150000D01*
G01*
G37*
G36*
G01*
X61000000Y-50061000D02*
X61000000Y-49761000D01*
G75*
G02*
X61150000Y-49611000I150000J0D01*
G01*
X62900000Y-49611000D01*
G75*
G02*
X63050000Y-49761000I0J-150000D01*
G01*
X63050000Y-50061000D01*
G75*
G02*
X62900000Y-50211000I-150000J0D01*
G01*
X61150000Y-50211000D01*
G75*
G02*
X61000000Y-50061000I0J150000D01*
G01*
G37*
G36*
G01*
X61000000Y-51331000D02*
X61000000Y-51031000D01*
G75*
G02*
X61150000Y-50881000I150000J0D01*
G01*
X62900000Y-50881000D01*
G75*
G02*
X63050000Y-51031000I0J-150000D01*
G01*
X63050000Y-51331000D01*
G75*
G02*
X62900000Y-51481000I-150000J0D01*
G01*
X61150000Y-51481000D01*
G75*
G02*
X61000000Y-51331000I0J150000D01*
G01*
G37*
G36*
G01*
X61000000Y-52601000D02*
X61000000Y-52301000D01*
G75*
G02*
X61150000Y-52151000I150000J0D01*
G01*
X62900000Y-52151000D01*
G75*
G02*
X63050000Y-52301000I0J-150000D01*
G01*
X63050000Y-52601000D01*
G75*
G02*
X62900000Y-52751000I-150000J0D01*
G01*
X61150000Y-52751000D01*
G75*
G02*
X61000000Y-52601000I0J150000D01*
G01*
G37*
G36*
G01*
X61000000Y-53871000D02*
X61000000Y-53571000D01*
G75*
G02*
X61150000Y-53421000I150000J0D01*
G01*
X62900000Y-53421000D01*
G75*
G02*
X63050000Y-53571000I0J-150000D01*
G01*
X63050000Y-53871000D01*
G75*
G02*
X62900000Y-54021000I-150000J0D01*
G01*
X61150000Y-54021000D01*
G75*
G02*
X61000000Y-53871000I0J150000D01*
G01*
G37*
G36*
G01*
X61000000Y-55141000D02*
X61000000Y-54841000D01*
G75*
G02*
X61150000Y-54691000I150000J0D01*
G01*
X62900000Y-54691000D01*
G75*
G02*
X63050000Y-54841000I0J-150000D01*
G01*
X63050000Y-55141000D01*
G75*
G02*
X62900000Y-55291000I-150000J0D01*
G01*
X61150000Y-55291000D01*
G75*
G02*
X61000000Y-55141000I0J150000D01*
G01*
G37*
G36*
G01*
X61000000Y-56411000D02*
X61000000Y-56111000D01*
G75*
G02*
X61150000Y-55961000I150000J0D01*
G01*
X62900000Y-55961000D01*
G75*
G02*
X63050000Y-56111000I0J-150000D01*
G01*
X63050000Y-56411000D01*
G75*
G02*
X62900000Y-56561000I-150000J0D01*
G01*
X61150000Y-56561000D01*
G75*
G02*
X61000000Y-56411000I0J150000D01*
G01*
G37*
G36*
G01*
X61000000Y-57681000D02*
X61000000Y-57381000D01*
G75*
G02*
X61150000Y-57231000I150000J0D01*
G01*
X62900000Y-57231000D01*
G75*
G02*
X63050000Y-57381000I0J-150000D01*
G01*
X63050000Y-57681000D01*
G75*
G02*
X62900000Y-57831000I-150000J0D01*
G01*
X61150000Y-57831000D01*
G75*
G02*
X61000000Y-57681000I0J150000D01*
G01*
G37*
G36*
G01*
X61000000Y-58951000D02*
X61000000Y-58651000D01*
G75*
G02*
X61150000Y-58501000I150000J0D01*
G01*
X62900000Y-58501000D01*
G75*
G02*
X63050000Y-58651000I0J-150000D01*
G01*
X63050000Y-58951000D01*
G75*
G02*
X62900000Y-59101000I-150000J0D01*
G01*
X61150000Y-59101000D01*
G75*
G02*
X61000000Y-58951000I0J150000D01*
G01*
G37*
G36*
G01*
X70300000Y-58951000D02*
X70300000Y-58651000D01*
G75*
G02*
X70450000Y-58501000I150000J0D01*
G01*
X72200000Y-58501000D01*
G75*
G02*
X72350000Y-58651000I0J-150000D01*
G01*
X72350000Y-58951000D01*
G75*
G02*
X72200000Y-59101000I-150000J0D01*
G01*
X70450000Y-59101000D01*
G75*
G02*
X70300000Y-58951000I0J150000D01*
G01*
G37*
G36*
G01*
X70300000Y-57681000D02*
X70300000Y-57381000D01*
G75*
G02*
X70450000Y-57231000I150000J0D01*
G01*
X72200000Y-57231000D01*
G75*
G02*
X72350000Y-57381000I0J-150000D01*
G01*
X72350000Y-57681000D01*
G75*
G02*
X72200000Y-57831000I-150000J0D01*
G01*
X70450000Y-57831000D01*
G75*
G02*
X70300000Y-57681000I0J150000D01*
G01*
G37*
G36*
G01*
X70300000Y-56411000D02*
X70300000Y-56111000D01*
G75*
G02*
X70450000Y-55961000I150000J0D01*
G01*
X72200000Y-55961000D01*
G75*
G02*
X72350000Y-56111000I0J-150000D01*
G01*
X72350000Y-56411000D01*
G75*
G02*
X72200000Y-56561000I-150000J0D01*
G01*
X70450000Y-56561000D01*
G75*
G02*
X70300000Y-56411000I0J150000D01*
G01*
G37*
G36*
G01*
X70300000Y-55141000D02*
X70300000Y-54841000D01*
G75*
G02*
X70450000Y-54691000I150000J0D01*
G01*
X72200000Y-54691000D01*
G75*
G02*
X72350000Y-54841000I0J-150000D01*
G01*
X72350000Y-55141000D01*
G75*
G02*
X72200000Y-55291000I-150000J0D01*
G01*
X70450000Y-55291000D01*
G75*
G02*
X70300000Y-55141000I0J150000D01*
G01*
G37*
G36*
G01*
X70300000Y-53871000D02*
X70300000Y-53571000D01*
G75*
G02*
X70450000Y-53421000I150000J0D01*
G01*
X72200000Y-53421000D01*
G75*
G02*
X72350000Y-53571000I0J-150000D01*
G01*
X72350000Y-53871000D01*
G75*
G02*
X72200000Y-54021000I-150000J0D01*
G01*
X70450000Y-54021000D01*
G75*
G02*
X70300000Y-53871000I0J150000D01*
G01*
G37*
G36*
G01*
X70300000Y-52601000D02*
X70300000Y-52301000D01*
G75*
G02*
X70450000Y-52151000I150000J0D01*
G01*
X72200000Y-52151000D01*
G75*
G02*
X72350000Y-52301000I0J-150000D01*
G01*
X72350000Y-52601000D01*
G75*
G02*
X72200000Y-52751000I-150000J0D01*
G01*
X70450000Y-52751000D01*
G75*
G02*
X70300000Y-52601000I0J150000D01*
G01*
G37*
G36*
G01*
X70300000Y-51331000D02*
X70300000Y-51031000D01*
G75*
G02*
X70450000Y-50881000I150000J0D01*
G01*
X72200000Y-50881000D01*
G75*
G02*
X72350000Y-51031000I0J-150000D01*
G01*
X72350000Y-51331000D01*
G75*
G02*
X72200000Y-51481000I-150000J0D01*
G01*
X70450000Y-51481000D01*
G75*
G02*
X70300000Y-51331000I0J150000D01*
G01*
G37*
G36*
G01*
X70300000Y-50061000D02*
X70300000Y-49761000D01*
G75*
G02*
X70450000Y-49611000I150000J0D01*
G01*
X72200000Y-49611000D01*
G75*
G02*
X72350000Y-49761000I0J-150000D01*
G01*
X72350000Y-50061000D01*
G75*
G02*
X72200000Y-50211000I-150000J0D01*
G01*
X70450000Y-50211000D01*
G75*
G02*
X70300000Y-50061000I0J150000D01*
G01*
G37*
G36*
G01*
X70300000Y-48791000D02*
X70300000Y-48491000D01*
G75*
G02*
X70450000Y-48341000I150000J0D01*
G01*
X72200000Y-48341000D01*
G75*
G02*
X72350000Y-48491000I0J-150000D01*
G01*
X72350000Y-48791000D01*
G75*
G02*
X72200000Y-48941000I-150000J0D01*
G01*
X70450000Y-48941000D01*
G75*
G02*
X70300000Y-48791000I0J150000D01*
G01*
G37*
G36*
G01*
X70300000Y-47521000D02*
X70300000Y-47221000D01*
G75*
G02*
X70450000Y-47071000I150000J0D01*
G01*
X72200000Y-47071000D01*
G75*
G02*
X72350000Y-47221000I0J-150000D01*
G01*
X72350000Y-47521000D01*
G75*
G02*
X72200000Y-47671000I-150000J0D01*
G01*
X70450000Y-47671000D01*
G75*
G02*
X70300000Y-47521000I0J150000D01*
G01*
G37*
G36*
G01*
X68994000Y-62050000D02*
X69944000Y-62050000D01*
G75*
G02*
X70194000Y-62300000I0J-250000D01*
G01*
X70194000Y-62800000D01*
G75*
G02*
X69944000Y-63050000I-250000J0D01*
G01*
X68994000Y-63050000D01*
G75*
G02*
X68744000Y-62800000I0J250000D01*
G01*
X68744000Y-62300000D01*
G75*
G02*
X68994000Y-62050000I250000J0D01*
G01*
G37*
G36*
G01*
X68994000Y-63950000D02*
X69944000Y-63950000D01*
G75*
G02*
X70194000Y-64200000I0J-250000D01*
G01*
X70194000Y-64700000D01*
G75*
G02*
X69944000Y-64950000I-250000J0D01*
G01*
X68994000Y-64950000D01*
G75*
G02*
X68744000Y-64700000I0J250000D01*
G01*
X68744000Y-64200000D01*
G75*
G02*
X68994000Y-63950000I250000J0D01*
G01*
G37*
G36*
G01*
X41380000Y-77238000D02*
X41380000Y-75988000D01*
G75*
G02*
X41530000Y-75838000I150000J0D01*
G01*
X41830000Y-75838000D01*
G75*
G02*
X41980000Y-75988000I0J-150000D01*
G01*
X41980000Y-77238000D01*
G75*
G02*
X41830000Y-77388000I-150000J0D01*
G01*
X41530000Y-77388000D01*
G75*
G02*
X41380000Y-77238000I0J150000D01*
G01*
G37*
G36*
G01*
X42380000Y-77238000D02*
X42380000Y-75988000D01*
G75*
G02*
X42530000Y-75838000I150000J0D01*
G01*
X42830000Y-75838000D01*
G75*
G02*
X42980000Y-75988000I0J-150000D01*
G01*
X42980000Y-77238000D01*
G75*
G02*
X42830000Y-77388000I-150000J0D01*
G01*
X42530000Y-77388000D01*
G75*
G02*
X42380000Y-77238000I0J150000D01*
G01*
G37*
G36*
G01*
X43380000Y-77238000D02*
X43380000Y-75988000D01*
G75*
G02*
X43530000Y-75838000I150000J0D01*
G01*
X43830000Y-75838000D01*
G75*
G02*
X43980000Y-75988000I0J-150000D01*
G01*
X43980000Y-77238000D01*
G75*
G02*
X43830000Y-77388000I-150000J0D01*
G01*
X43530000Y-77388000D01*
G75*
G02*
X43380000Y-77238000I0J150000D01*
G01*
G37*
G36*
G01*
X44380000Y-77238000D02*
X44380000Y-75988000D01*
G75*
G02*
X44530000Y-75838000I150000J0D01*
G01*
X44830000Y-75838000D01*
G75*
G02*
X44980000Y-75988000I0J-150000D01*
G01*
X44980000Y-77238000D01*
G75*
G02*
X44830000Y-77388000I-150000J0D01*
G01*
X44530000Y-77388000D01*
G75*
G02*
X44380000Y-77238000I0J150000D01*
G01*
G37*
G36*
G01*
X45380000Y-81138000D02*
X45380000Y-79838000D01*
G75*
G02*
X45630000Y-79588000I250000J0D01*
G01*
X46330000Y-79588000D01*
G75*
G02*
X46580000Y-79838000I0J-250000D01*
G01*
X46580000Y-81138000D01*
G75*
G02*
X46330000Y-81388000I-250000J0D01*
G01*
X45630000Y-81388000D01*
G75*
G02*
X45380000Y-81138000I0J250000D01*
G01*
G37*
G36*
G01*
X39780000Y-81138000D02*
X39780000Y-79838000D01*
G75*
G02*
X40030000Y-79588000I250000J0D01*
G01*
X40730000Y-79588000D01*
G75*
G02*
X40980000Y-79838000I0J-250000D01*
G01*
X40980000Y-81138000D01*
G75*
G02*
X40730000Y-81388000I-250000J0D01*
G01*
X40030000Y-81388000D01*
G75*
G02*
X39780000Y-81138000I0J250000D01*
G01*
G37*
G36*
G01*
X49624000Y-48821000D02*
X48674000Y-48821000D01*
G75*
G02*
X48424000Y-48571000I0J250000D01*
G01*
X48424000Y-48071000D01*
G75*
G02*
X48674000Y-47821000I250000J0D01*
G01*
X49624000Y-47821000D01*
G75*
G02*
X49874000Y-48071000I0J-250000D01*
G01*
X49874000Y-48571000D01*
G75*
G02*
X49624000Y-48821000I-250000J0D01*
G01*
G37*
G36*
G01*
X49624000Y-46921000D02*
X48674000Y-46921000D01*
G75*
G02*
X48424000Y-46671000I0J250000D01*
G01*
X48424000Y-46171000D01*
G75*
G02*
X48674000Y-45921000I250000J0D01*
G01*
X49624000Y-45921000D01*
G75*
G02*
X49874000Y-46171000I0J-250000D01*
G01*
X49874000Y-46671000D01*
G75*
G02*
X49624000Y-46921000I-250000J0D01*
G01*
G37*
M02*
