G04 #@! TF.GenerationSoftware,KiCad,Pcbnew,6.0.10-86aedd382b~118~ubuntu18.04.1*
G04 #@! TF.CreationDate,2024-08-26T13:47:26-06:00*
G04 #@! TF.ProjectId,ckt-xing-txm,636b742d-7869-46e6-972d-74786d2e6b69,rev?*
G04 #@! TF.SameCoordinates,Original*
G04 #@! TF.FileFunction,Soldermask,Top*
G04 #@! TF.FilePolarity,Negative*
%FSLAX46Y46*%
G04 Gerber Fmt 4.6, Leading zero omitted, Abs format (unit mm)*
G04 Created by KiCad (PCBNEW 6.0.10-86aedd382b~118~ubuntu18.04.1) date 2024-08-26 13:47:26*
%MOMM*%
%LPD*%
G01*
G04 APERTURE LIST*
%ADD10C,6.552400*%
%ADD11C,1.143000*%
%ADD12C,0.939800*%
G04 APERTURE END LIST*
G36*
G01*
X45802000Y-47534800D02*
X46352000Y-47534800D01*
G75*
G02*
X46428200Y-47611000I0J-76200D01*
G01*
X46428200Y-48911000D01*
G75*
G02*
X46352000Y-48987200I-76200J0D01*
G01*
X45802000Y-48987200D01*
G75*
G02*
X45725800Y-48911000I0J76200D01*
G01*
X45725800Y-47611000D01*
G75*
G02*
X45802000Y-47534800I76200J0D01*
G01*
G37*
G36*
X45560373Y-52259980D02*
G01*
X45515232Y-52286042D01*
X45502000Y-52287200D01*
X43652000Y-52287200D01*
X43603020Y-52269373D01*
X43576958Y-52224232D01*
X43575800Y-52211000D01*
X43575800Y-49611000D01*
X43593627Y-49562020D01*
X43598118Y-49557118D01*
X44100800Y-49054436D01*
X44100800Y-47611000D01*
X44118627Y-47562020D01*
X44163768Y-47535958D01*
X44177000Y-47534800D01*
X44977000Y-47534800D01*
X45025980Y-47552627D01*
X45052042Y-47597768D01*
X45053200Y-47611000D01*
X45053200Y-49054436D01*
X45555882Y-49557118D01*
X45577910Y-49604359D01*
X45578200Y-49611000D01*
X45578200Y-52211000D01*
X45560373Y-52259980D01*
G37*
G36*
G01*
X42802000Y-47534800D02*
X43352000Y-47534800D01*
G75*
G02*
X43428200Y-47611000I0J-76200D01*
G01*
X43428200Y-48911000D01*
G75*
G02*
X43352000Y-48987200I-76200J0D01*
G01*
X42802000Y-48987200D01*
G75*
G02*
X42725800Y-48911000I0J76200D01*
G01*
X42725800Y-47611000D01*
G75*
G02*
X42802000Y-47534800I76200J0D01*
G01*
G37*
G36*
G01*
X61537000Y-65001200D02*
X60637000Y-65001200D01*
G75*
G02*
X60310800Y-64675000I0J326200D01*
G01*
X60310800Y-64150000D01*
G75*
G02*
X60637000Y-63823800I326200J0D01*
G01*
X61537000Y-63823800D01*
G75*
G02*
X61863200Y-64150000I0J-326200D01*
G01*
X61863200Y-64675000D01*
G75*
G02*
X61537000Y-65001200I-326200J0D01*
G01*
G37*
G36*
G01*
X61537000Y-63176200D02*
X60637000Y-63176200D01*
G75*
G02*
X60310800Y-62850000I0J326200D01*
G01*
X60310800Y-62325000D01*
G75*
G02*
X60637000Y-61998800I326200J0D01*
G01*
X61537000Y-61998800D01*
G75*
G02*
X61863200Y-62325000I0J-326200D01*
G01*
X61863200Y-62850000D01*
G75*
G02*
X61537000Y-63176200I-326200J0D01*
G01*
G37*
D10*
X29718000Y-23368000D03*
G36*
G01*
X45056200Y-24362000D02*
X45056200Y-25612000D01*
G75*
G02*
X44830000Y-25838200I-226200J0D01*
G01*
X44530000Y-25838200D01*
G75*
G02*
X44303800Y-25612000I0J226200D01*
G01*
X44303800Y-24362000D01*
G75*
G02*
X44530000Y-24135800I226200J0D01*
G01*
X44830000Y-24135800D01*
G75*
G02*
X45056200Y-24362000I0J-226200D01*
G01*
G37*
G36*
G01*
X44056200Y-24362000D02*
X44056200Y-25612000D01*
G75*
G02*
X43830000Y-25838200I-226200J0D01*
G01*
X43530000Y-25838200D01*
G75*
G02*
X43303800Y-25612000I0J226200D01*
G01*
X43303800Y-24362000D01*
G75*
G02*
X43530000Y-24135800I226200J0D01*
G01*
X43830000Y-24135800D01*
G75*
G02*
X44056200Y-24362000I0J-226200D01*
G01*
G37*
G36*
G01*
X43056200Y-24362000D02*
X43056200Y-25612000D01*
G75*
G02*
X42830000Y-25838200I-226200J0D01*
G01*
X42530000Y-25838200D01*
G75*
G02*
X42303800Y-25612000I0J226200D01*
G01*
X42303800Y-24362000D01*
G75*
G02*
X42530000Y-24135800I226200J0D01*
G01*
X42830000Y-24135800D01*
G75*
G02*
X43056200Y-24362000I0J-226200D01*
G01*
G37*
G36*
G01*
X42056200Y-24362000D02*
X42056200Y-25612000D01*
G75*
G02*
X41830000Y-25838200I-226200J0D01*
G01*
X41530000Y-25838200D01*
G75*
G02*
X41303800Y-25612000I0J226200D01*
G01*
X41303800Y-24362000D01*
G75*
G02*
X41530000Y-24135800I226200J0D01*
G01*
X41830000Y-24135800D01*
G75*
G02*
X42056200Y-24362000I0J-226200D01*
G01*
G37*
G36*
G01*
X41056200Y-20462000D02*
X41056200Y-21762000D01*
G75*
G02*
X40730000Y-22088200I-326200J0D01*
G01*
X40030000Y-22088200D01*
G75*
G02*
X39703800Y-21762000I0J326200D01*
G01*
X39703800Y-20462000D01*
G75*
G02*
X40030000Y-20135800I326200J0D01*
G01*
X40730000Y-20135800D01*
G75*
G02*
X41056200Y-20462000I0J-326200D01*
G01*
G37*
G36*
G01*
X46656200Y-20462000D02*
X46656200Y-21762000D01*
G75*
G02*
X46330000Y-22088200I-326200J0D01*
G01*
X45630000Y-22088200D01*
G75*
G02*
X45303800Y-21762000I0J326200D01*
G01*
X45303800Y-20462000D01*
G75*
G02*
X45630000Y-20135800I326200J0D01*
G01*
X46330000Y-20135800D01*
G75*
G02*
X46656200Y-20462000I0J-326200D01*
G01*
G37*
G36*
G01*
X78072000Y-39626200D02*
X77122000Y-39626200D01*
G75*
G02*
X76795800Y-39300000I0J326200D01*
G01*
X76795800Y-38800000D01*
G75*
G02*
X77122000Y-38473800I326200J0D01*
G01*
X78072000Y-38473800D01*
G75*
G02*
X78398200Y-38800000I0J-326200D01*
G01*
X78398200Y-39300000D01*
G75*
G02*
X78072000Y-39626200I-326200J0D01*
G01*
G37*
G36*
G01*
X78072000Y-37726200D02*
X77122000Y-37726200D01*
G75*
G02*
X76795800Y-37400000I0J326200D01*
G01*
X76795800Y-36900000D01*
G75*
G02*
X77122000Y-36573800I326200J0D01*
G01*
X78072000Y-36573800D01*
G75*
G02*
X78398200Y-36900000I0J-326200D01*
G01*
X78398200Y-37400000D01*
G75*
G02*
X78072000Y-37726200I-326200J0D01*
G01*
G37*
G36*
G01*
X30712000Y-41176800D02*
X31962000Y-41176800D01*
G75*
G02*
X32188200Y-41403000I0J-226200D01*
G01*
X32188200Y-41703000D01*
G75*
G02*
X31962000Y-41929200I-226200J0D01*
G01*
X30712000Y-41929200D01*
G75*
G02*
X30485800Y-41703000I0J226200D01*
G01*
X30485800Y-41403000D01*
G75*
G02*
X30712000Y-41176800I226200J0D01*
G01*
G37*
G36*
G01*
X30712000Y-42176800D02*
X31962000Y-42176800D01*
G75*
G02*
X32188200Y-42403000I0J-226200D01*
G01*
X32188200Y-42703000D01*
G75*
G02*
X31962000Y-42929200I-226200J0D01*
G01*
X30712000Y-42929200D01*
G75*
G02*
X30485800Y-42703000I0J226200D01*
G01*
X30485800Y-42403000D01*
G75*
G02*
X30712000Y-42176800I226200J0D01*
G01*
G37*
G36*
G01*
X30712000Y-43176800D02*
X31962000Y-43176800D01*
G75*
G02*
X32188200Y-43403000I0J-226200D01*
G01*
X32188200Y-43703000D01*
G75*
G02*
X31962000Y-43929200I-226200J0D01*
G01*
X30712000Y-43929200D01*
G75*
G02*
X30485800Y-43703000I0J226200D01*
G01*
X30485800Y-43403000D01*
G75*
G02*
X30712000Y-43176800I226200J0D01*
G01*
G37*
G36*
G01*
X30712000Y-44176800D02*
X31962000Y-44176800D01*
G75*
G02*
X32188200Y-44403000I0J-226200D01*
G01*
X32188200Y-44703000D01*
G75*
G02*
X31962000Y-44929200I-226200J0D01*
G01*
X30712000Y-44929200D01*
G75*
G02*
X30485800Y-44703000I0J226200D01*
G01*
X30485800Y-44403000D01*
G75*
G02*
X30712000Y-44176800I226200J0D01*
G01*
G37*
G36*
G01*
X26812000Y-45176800D02*
X28112000Y-45176800D01*
G75*
G02*
X28438200Y-45503000I0J-326200D01*
G01*
X28438200Y-46203000D01*
G75*
G02*
X28112000Y-46529200I-326200J0D01*
G01*
X26812000Y-46529200D01*
G75*
G02*
X26485800Y-46203000I0J326200D01*
G01*
X26485800Y-45503000D01*
G75*
G02*
X26812000Y-45176800I326200J0D01*
G01*
G37*
G36*
G01*
X26812000Y-39576800D02*
X28112000Y-39576800D01*
G75*
G02*
X28438200Y-39903000I0J-326200D01*
G01*
X28438200Y-40603000D01*
G75*
G02*
X28112000Y-40929200I-326200J0D01*
G01*
X26812000Y-40929200D01*
G75*
G02*
X26485800Y-40603000I0J326200D01*
G01*
X26485800Y-39903000D01*
G75*
G02*
X26812000Y-39576800I326200J0D01*
G01*
G37*
G36*
G01*
X72484000Y-39626200D02*
X71534000Y-39626200D01*
G75*
G02*
X71207800Y-39300000I0J326200D01*
G01*
X71207800Y-38800000D01*
G75*
G02*
X71534000Y-38473800I326200J0D01*
G01*
X72484000Y-38473800D01*
G75*
G02*
X72810200Y-38800000I0J-326200D01*
G01*
X72810200Y-39300000D01*
G75*
G02*
X72484000Y-39626200I-326200J0D01*
G01*
G37*
G36*
G01*
X72484000Y-37726200D02*
X71534000Y-37726200D01*
G75*
G02*
X71207800Y-37400000I0J326200D01*
G01*
X71207800Y-36900000D01*
G75*
G02*
X71534000Y-36573800I326200J0D01*
G01*
X72484000Y-36573800D01*
G75*
G02*
X72810200Y-36900000I0J-326200D01*
G01*
X72810200Y-37400000D01*
G75*
G02*
X72484000Y-37726200I-326200J0D01*
G01*
G37*
G36*
G01*
X81095000Y-65001200D02*
X80195000Y-65001200D01*
G75*
G02*
X79868800Y-64675000I0J326200D01*
G01*
X79868800Y-64150000D01*
G75*
G02*
X80195000Y-63823800I326200J0D01*
G01*
X81095000Y-63823800D01*
G75*
G02*
X81421200Y-64150000I0J-326200D01*
G01*
X81421200Y-64675000D01*
G75*
G02*
X81095000Y-65001200I-326200J0D01*
G01*
G37*
G36*
G01*
X81095000Y-63176200D02*
X80195000Y-63176200D01*
G75*
G02*
X79868800Y-62850000I0J326200D01*
G01*
X79868800Y-62325000D01*
G75*
G02*
X80195000Y-61998800I326200J0D01*
G01*
X81095000Y-61998800D01*
G75*
G02*
X81421200Y-62325000I0J-326200D01*
G01*
X81421200Y-62850000D01*
G75*
G02*
X81095000Y-63176200I-326200J0D01*
G01*
G37*
G36*
G01*
X68765000Y-36598800D02*
X69665000Y-36598800D01*
G75*
G02*
X69991200Y-36925000I0J-326200D01*
G01*
X69991200Y-37450000D01*
G75*
G02*
X69665000Y-37776200I-326200J0D01*
G01*
X68765000Y-37776200D01*
G75*
G02*
X68438800Y-37450000I0J326200D01*
G01*
X68438800Y-36925000D01*
G75*
G02*
X68765000Y-36598800I326200J0D01*
G01*
G37*
G36*
G01*
X68765000Y-38423800D02*
X69665000Y-38423800D01*
G75*
G02*
X69991200Y-38750000I0J-326200D01*
G01*
X69991200Y-39275000D01*
G75*
G02*
X69665000Y-39601200I-326200J0D01*
G01*
X68765000Y-39601200D01*
G75*
G02*
X68438800Y-39275000I0J326200D01*
G01*
X68438800Y-38750000D01*
G75*
G02*
X68765000Y-38423800I326200J0D01*
G01*
G37*
G36*
G01*
X83156200Y-24362000D02*
X83156200Y-25612000D01*
G75*
G02*
X82930000Y-25838200I-226200J0D01*
G01*
X82630000Y-25838200D01*
G75*
G02*
X82403800Y-25612000I0J226200D01*
G01*
X82403800Y-24362000D01*
G75*
G02*
X82630000Y-24135800I226200J0D01*
G01*
X82930000Y-24135800D01*
G75*
G02*
X83156200Y-24362000I0J-226200D01*
G01*
G37*
G36*
G01*
X82156200Y-24362000D02*
X82156200Y-25612000D01*
G75*
G02*
X81930000Y-25838200I-226200J0D01*
G01*
X81630000Y-25838200D01*
G75*
G02*
X81403800Y-25612000I0J226200D01*
G01*
X81403800Y-24362000D01*
G75*
G02*
X81630000Y-24135800I226200J0D01*
G01*
X81930000Y-24135800D01*
G75*
G02*
X82156200Y-24362000I0J-226200D01*
G01*
G37*
G36*
G01*
X81156200Y-24362000D02*
X81156200Y-25612000D01*
G75*
G02*
X80930000Y-25838200I-226200J0D01*
G01*
X80630000Y-25838200D01*
G75*
G02*
X80403800Y-25612000I0J226200D01*
G01*
X80403800Y-24362000D01*
G75*
G02*
X80630000Y-24135800I226200J0D01*
G01*
X80930000Y-24135800D01*
G75*
G02*
X81156200Y-24362000I0J-226200D01*
G01*
G37*
G36*
G01*
X80156200Y-24362000D02*
X80156200Y-25612000D01*
G75*
G02*
X79930000Y-25838200I-226200J0D01*
G01*
X79630000Y-25838200D01*
G75*
G02*
X79403800Y-25612000I0J226200D01*
G01*
X79403800Y-24362000D01*
G75*
G02*
X79630000Y-24135800I226200J0D01*
G01*
X79930000Y-24135800D01*
G75*
G02*
X80156200Y-24362000I0J-226200D01*
G01*
G37*
G36*
G01*
X84756200Y-20462000D02*
X84756200Y-21762000D01*
G75*
G02*
X84430000Y-22088200I-326200J0D01*
G01*
X83730000Y-22088200D01*
G75*
G02*
X83403800Y-21762000I0J326200D01*
G01*
X83403800Y-20462000D01*
G75*
G02*
X83730000Y-20135800I326200J0D01*
G01*
X84430000Y-20135800D01*
G75*
G02*
X84756200Y-20462000I0J-326200D01*
G01*
G37*
G36*
G01*
X79156200Y-20462000D02*
X79156200Y-21762000D01*
G75*
G02*
X78830000Y-22088200I-326200J0D01*
G01*
X78130000Y-22088200D01*
G75*
G02*
X77803800Y-21762000I0J326200D01*
G01*
X77803800Y-20462000D01*
G75*
G02*
X78130000Y-20135800I326200J0D01*
G01*
X78830000Y-20135800D01*
G75*
G02*
X79156200Y-20462000I0J-326200D01*
G01*
G37*
G36*
G01*
X51747000Y-45869800D02*
X52647000Y-45869800D01*
G75*
G02*
X52973200Y-46196000I0J-326200D01*
G01*
X52973200Y-46721000D01*
G75*
G02*
X52647000Y-47047200I-326200J0D01*
G01*
X51747000Y-47047200D01*
G75*
G02*
X51420800Y-46721000I0J326200D01*
G01*
X51420800Y-46196000D01*
G75*
G02*
X51747000Y-45869800I326200J0D01*
G01*
G37*
G36*
G01*
X51747000Y-47694800D02*
X52647000Y-47694800D01*
G75*
G02*
X52973200Y-48021000I0J-326200D01*
G01*
X52973200Y-48546000D01*
G75*
G02*
X52647000Y-48872200I-326200J0D01*
G01*
X51747000Y-48872200D01*
G75*
G02*
X51420800Y-48546000I0J326200D01*
G01*
X51420800Y-48021000D01*
G75*
G02*
X51747000Y-47694800I326200J0D01*
G01*
G37*
G36*
G01*
X77147000Y-41932800D02*
X78047000Y-41932800D01*
G75*
G02*
X78373200Y-42259000I0J-326200D01*
G01*
X78373200Y-42784000D01*
G75*
G02*
X78047000Y-43110200I-326200J0D01*
G01*
X77147000Y-43110200D01*
G75*
G02*
X76820800Y-42784000I0J326200D01*
G01*
X76820800Y-42259000D01*
G75*
G02*
X77147000Y-41932800I326200J0D01*
G01*
G37*
G36*
G01*
X77147000Y-43757800D02*
X78047000Y-43757800D01*
G75*
G02*
X78373200Y-44084000I0J-326200D01*
G01*
X78373200Y-44609000D01*
G75*
G02*
X78047000Y-44935200I-326200J0D01*
G01*
X77147000Y-44935200D01*
G75*
G02*
X76820800Y-44609000I0J326200D01*
G01*
X76820800Y-44084000D01*
G75*
G02*
X77147000Y-43757800I326200J0D01*
G01*
G37*
X29718000Y-78232000D03*
G36*
G01*
X39269800Y-40221000D02*
X39269800Y-39921000D01*
G75*
G02*
X39496000Y-39694800I226200J0D01*
G01*
X40671000Y-39694800D01*
G75*
G02*
X40897200Y-39921000I0J-226200D01*
G01*
X40897200Y-40221000D01*
G75*
G02*
X40671000Y-40447200I-226200J0D01*
G01*
X39496000Y-40447200D01*
G75*
G02*
X39269800Y-40221000I0J226200D01*
G01*
G37*
G36*
G01*
X39269800Y-42121000D02*
X39269800Y-41821000D01*
G75*
G02*
X39496000Y-41594800I226200J0D01*
G01*
X40671000Y-41594800D01*
G75*
G02*
X40897200Y-41821000I0J-226200D01*
G01*
X40897200Y-42121000D01*
G75*
G02*
X40671000Y-42347200I-226200J0D01*
G01*
X39496000Y-42347200D01*
G75*
G02*
X39269800Y-42121000I0J226200D01*
G01*
G37*
G36*
G01*
X41144800Y-41171000D02*
X41144800Y-40871000D01*
G75*
G02*
X41371000Y-40644800I226200J0D01*
G01*
X42546000Y-40644800D01*
G75*
G02*
X42772200Y-40871000I0J-226200D01*
G01*
X42772200Y-41171000D01*
G75*
G02*
X42546000Y-41397200I-226200J0D01*
G01*
X41371000Y-41397200D01*
G75*
G02*
X41144800Y-41171000I0J226200D01*
G01*
G37*
G36*
G01*
X74353000Y-36598800D02*
X75253000Y-36598800D01*
G75*
G02*
X75579200Y-36925000I0J-326200D01*
G01*
X75579200Y-37450000D01*
G75*
G02*
X75253000Y-37776200I-326200J0D01*
G01*
X74353000Y-37776200D01*
G75*
G02*
X74026800Y-37450000I0J326200D01*
G01*
X74026800Y-36925000D01*
G75*
G02*
X74353000Y-36598800I326200J0D01*
G01*
G37*
G36*
G01*
X74353000Y-38423800D02*
X75253000Y-38423800D01*
G75*
G02*
X75579200Y-38750000I0J-326200D01*
G01*
X75579200Y-39275000D01*
G75*
G02*
X75253000Y-39601200I-326200J0D01*
G01*
X74353000Y-39601200D01*
G75*
G02*
X74026800Y-39275000I0J326200D01*
G01*
X74026800Y-38750000D01*
G75*
G02*
X74353000Y-38423800I326200J0D01*
G01*
G37*
X97282000Y-78232000D03*
G36*
G01*
X70456200Y-24362000D02*
X70456200Y-25612000D01*
G75*
G02*
X70230000Y-25838200I-226200J0D01*
G01*
X69930000Y-25838200D01*
G75*
G02*
X69703800Y-25612000I0J226200D01*
G01*
X69703800Y-24362000D01*
G75*
G02*
X69930000Y-24135800I226200J0D01*
G01*
X70230000Y-24135800D01*
G75*
G02*
X70456200Y-24362000I0J-226200D01*
G01*
G37*
G36*
G01*
X69456200Y-24362000D02*
X69456200Y-25612000D01*
G75*
G02*
X69230000Y-25838200I-226200J0D01*
G01*
X68930000Y-25838200D01*
G75*
G02*
X68703800Y-25612000I0J226200D01*
G01*
X68703800Y-24362000D01*
G75*
G02*
X68930000Y-24135800I226200J0D01*
G01*
X69230000Y-24135800D01*
G75*
G02*
X69456200Y-24362000I0J-226200D01*
G01*
G37*
G36*
G01*
X68456200Y-24362000D02*
X68456200Y-25612000D01*
G75*
G02*
X68230000Y-25838200I-226200J0D01*
G01*
X67930000Y-25838200D01*
G75*
G02*
X67703800Y-25612000I0J226200D01*
G01*
X67703800Y-24362000D01*
G75*
G02*
X67930000Y-24135800I226200J0D01*
G01*
X68230000Y-24135800D01*
G75*
G02*
X68456200Y-24362000I0J-226200D01*
G01*
G37*
G36*
G01*
X67456200Y-24362000D02*
X67456200Y-25612000D01*
G75*
G02*
X67230000Y-25838200I-226200J0D01*
G01*
X66930000Y-25838200D01*
G75*
G02*
X66703800Y-25612000I0J226200D01*
G01*
X66703800Y-24362000D01*
G75*
G02*
X66930000Y-24135800I226200J0D01*
G01*
X67230000Y-24135800D01*
G75*
G02*
X67456200Y-24362000I0J-226200D01*
G01*
G37*
G36*
G01*
X72056200Y-20462000D02*
X72056200Y-21762000D01*
G75*
G02*
X71730000Y-22088200I-326200J0D01*
G01*
X71030000Y-22088200D01*
G75*
G02*
X70703800Y-21762000I0J326200D01*
G01*
X70703800Y-20462000D01*
G75*
G02*
X71030000Y-20135800I326200J0D01*
G01*
X71730000Y-20135800D01*
G75*
G02*
X72056200Y-20462000I0J-326200D01*
G01*
G37*
G36*
G01*
X66456200Y-20462000D02*
X66456200Y-21762000D01*
G75*
G02*
X66130000Y-22088200I-326200J0D01*
G01*
X65430000Y-22088200D01*
G75*
G02*
X65103800Y-21762000I0J326200D01*
G01*
X65103800Y-20462000D01*
G75*
G02*
X65430000Y-20135800I326200J0D01*
G01*
X66130000Y-20135800D01*
G75*
G02*
X66456200Y-20462000I0J-326200D01*
G01*
G37*
G36*
G01*
X57756200Y-24362000D02*
X57756200Y-25612000D01*
G75*
G02*
X57530000Y-25838200I-226200J0D01*
G01*
X57230000Y-25838200D01*
G75*
G02*
X57003800Y-25612000I0J226200D01*
G01*
X57003800Y-24362000D01*
G75*
G02*
X57230000Y-24135800I226200J0D01*
G01*
X57530000Y-24135800D01*
G75*
G02*
X57756200Y-24362000I0J-226200D01*
G01*
G37*
G36*
G01*
X56756200Y-24362000D02*
X56756200Y-25612000D01*
G75*
G02*
X56530000Y-25838200I-226200J0D01*
G01*
X56230000Y-25838200D01*
G75*
G02*
X56003800Y-25612000I0J226200D01*
G01*
X56003800Y-24362000D01*
G75*
G02*
X56230000Y-24135800I226200J0D01*
G01*
X56530000Y-24135800D01*
G75*
G02*
X56756200Y-24362000I0J-226200D01*
G01*
G37*
G36*
G01*
X55756200Y-24362000D02*
X55756200Y-25612000D01*
G75*
G02*
X55530000Y-25838200I-226200J0D01*
G01*
X55230000Y-25838200D01*
G75*
G02*
X55003800Y-25612000I0J226200D01*
G01*
X55003800Y-24362000D01*
G75*
G02*
X55230000Y-24135800I226200J0D01*
G01*
X55530000Y-24135800D01*
G75*
G02*
X55756200Y-24362000I0J-226200D01*
G01*
G37*
G36*
G01*
X54756200Y-24362000D02*
X54756200Y-25612000D01*
G75*
G02*
X54530000Y-25838200I-226200J0D01*
G01*
X54230000Y-25838200D01*
G75*
G02*
X54003800Y-25612000I0J226200D01*
G01*
X54003800Y-24362000D01*
G75*
G02*
X54230000Y-24135800I226200J0D01*
G01*
X54530000Y-24135800D01*
G75*
G02*
X54756200Y-24362000I0J-226200D01*
G01*
G37*
G36*
G01*
X59356200Y-20462000D02*
X59356200Y-21762000D01*
G75*
G02*
X59030000Y-22088200I-326200J0D01*
G01*
X58330000Y-22088200D01*
G75*
G02*
X58003800Y-21762000I0J326200D01*
G01*
X58003800Y-20462000D01*
G75*
G02*
X58330000Y-20135800I326200J0D01*
G01*
X59030000Y-20135800D01*
G75*
G02*
X59356200Y-20462000I0J-326200D01*
G01*
G37*
G36*
G01*
X53756200Y-20462000D02*
X53756200Y-21762000D01*
G75*
G02*
X53430000Y-22088200I-326200J0D01*
G01*
X52730000Y-22088200D01*
G75*
G02*
X52403800Y-21762000I0J326200D01*
G01*
X52403800Y-20462000D01*
G75*
G02*
X52730000Y-20135800I326200J0D01*
G01*
X53430000Y-20135800D01*
G75*
G02*
X53756200Y-20462000I0J-326200D01*
G01*
G37*
G36*
G01*
X67125000Y-65001200D02*
X66225000Y-65001200D01*
G75*
G02*
X65898800Y-64675000I0J326200D01*
G01*
X65898800Y-64150000D01*
G75*
G02*
X66225000Y-63823800I326200J0D01*
G01*
X67125000Y-63823800D01*
G75*
G02*
X67451200Y-64150000I0J-326200D01*
G01*
X67451200Y-64675000D01*
G75*
G02*
X67125000Y-65001200I-326200J0D01*
G01*
G37*
G36*
G01*
X67125000Y-63176200D02*
X66225000Y-63176200D01*
G75*
G02*
X65898800Y-62850000I0J326200D01*
G01*
X65898800Y-62325000D01*
G75*
G02*
X66225000Y-61998800I326200J0D01*
G01*
X67125000Y-61998800D01*
G75*
G02*
X67451200Y-62325000I0J-326200D01*
G01*
X67451200Y-62850000D01*
G75*
G02*
X67125000Y-63176200I-326200J0D01*
G01*
G37*
G36*
G01*
X54003800Y-77238000D02*
X54003800Y-75988000D01*
G75*
G02*
X54230000Y-75761800I226200J0D01*
G01*
X54530000Y-75761800D01*
G75*
G02*
X54756200Y-75988000I0J-226200D01*
G01*
X54756200Y-77238000D01*
G75*
G02*
X54530000Y-77464200I-226200J0D01*
G01*
X54230000Y-77464200D01*
G75*
G02*
X54003800Y-77238000I0J226200D01*
G01*
G37*
G36*
G01*
X55003800Y-77238000D02*
X55003800Y-75988000D01*
G75*
G02*
X55230000Y-75761800I226200J0D01*
G01*
X55530000Y-75761800D01*
G75*
G02*
X55756200Y-75988000I0J-226200D01*
G01*
X55756200Y-77238000D01*
G75*
G02*
X55530000Y-77464200I-226200J0D01*
G01*
X55230000Y-77464200D01*
G75*
G02*
X55003800Y-77238000I0J226200D01*
G01*
G37*
G36*
G01*
X56003800Y-77238000D02*
X56003800Y-75988000D01*
G75*
G02*
X56230000Y-75761800I226200J0D01*
G01*
X56530000Y-75761800D01*
G75*
G02*
X56756200Y-75988000I0J-226200D01*
G01*
X56756200Y-77238000D01*
G75*
G02*
X56530000Y-77464200I-226200J0D01*
G01*
X56230000Y-77464200D01*
G75*
G02*
X56003800Y-77238000I0J226200D01*
G01*
G37*
G36*
G01*
X57003800Y-77238000D02*
X57003800Y-75988000D01*
G75*
G02*
X57230000Y-75761800I226200J0D01*
G01*
X57530000Y-75761800D01*
G75*
G02*
X57756200Y-75988000I0J-226200D01*
G01*
X57756200Y-77238000D01*
G75*
G02*
X57530000Y-77464200I-226200J0D01*
G01*
X57230000Y-77464200D01*
G75*
G02*
X57003800Y-77238000I0J226200D01*
G01*
G37*
G36*
G01*
X58003800Y-81138000D02*
X58003800Y-79838000D01*
G75*
G02*
X58330000Y-79511800I326200J0D01*
G01*
X59030000Y-79511800D01*
G75*
G02*
X59356200Y-79838000I0J-326200D01*
G01*
X59356200Y-81138000D01*
G75*
G02*
X59030000Y-81464200I-326200J0D01*
G01*
X58330000Y-81464200D01*
G75*
G02*
X58003800Y-81138000I0J326200D01*
G01*
G37*
G36*
G01*
X52403800Y-81138000D02*
X52403800Y-79838000D01*
G75*
G02*
X52730000Y-79511800I326200J0D01*
G01*
X53430000Y-79511800D01*
G75*
G02*
X53756200Y-79838000I0J-326200D01*
G01*
X53756200Y-81138000D01*
G75*
G02*
X53430000Y-81464200I-326200J0D01*
G01*
X52730000Y-81464200D01*
G75*
G02*
X52403800Y-81138000I0J326200D01*
G01*
G37*
G36*
G01*
X76040000Y-54993200D02*
X75090000Y-54993200D01*
G75*
G02*
X74763800Y-54667000I0J326200D01*
G01*
X74763800Y-54167000D01*
G75*
G02*
X75090000Y-53840800I326200J0D01*
G01*
X76040000Y-53840800D01*
G75*
G02*
X76366200Y-54167000I0J-326200D01*
G01*
X76366200Y-54667000D01*
G75*
G02*
X76040000Y-54993200I-326200J0D01*
G01*
G37*
G36*
G01*
X76040000Y-53093200D02*
X75090000Y-53093200D01*
G75*
G02*
X74763800Y-52767000I0J326200D01*
G01*
X74763800Y-52267000D01*
G75*
G02*
X75090000Y-51940800I326200J0D01*
G01*
X76040000Y-51940800D01*
G75*
G02*
X76366200Y-52267000I0J-326200D01*
G01*
X76366200Y-52767000D01*
G75*
G02*
X76040000Y-53093200I-326200J0D01*
G01*
G37*
G36*
G01*
X77376000Y-61973800D02*
X78326000Y-61973800D01*
G75*
G02*
X78652200Y-62300000I0J-326200D01*
G01*
X78652200Y-62800000D01*
G75*
G02*
X78326000Y-63126200I-326200J0D01*
G01*
X77376000Y-63126200D01*
G75*
G02*
X77049800Y-62800000I0J326200D01*
G01*
X77049800Y-62300000D01*
G75*
G02*
X77376000Y-61973800I326200J0D01*
G01*
G37*
G36*
G01*
X77376000Y-63873800D02*
X78326000Y-63873800D01*
G75*
G02*
X78652200Y-64200000I0J-326200D01*
G01*
X78652200Y-64700000D01*
G75*
G02*
X78326000Y-65026200I-326200J0D01*
G01*
X77376000Y-65026200D01*
G75*
G02*
X77049800Y-64700000I0J326200D01*
G01*
X77049800Y-64200000D01*
G75*
G02*
X77376000Y-63873800I326200J0D01*
G01*
G37*
G36*
G01*
X66703800Y-77238000D02*
X66703800Y-75988000D01*
G75*
G02*
X66930000Y-75761800I226200J0D01*
G01*
X67230000Y-75761800D01*
G75*
G02*
X67456200Y-75988000I0J-226200D01*
G01*
X67456200Y-77238000D01*
G75*
G02*
X67230000Y-77464200I-226200J0D01*
G01*
X66930000Y-77464200D01*
G75*
G02*
X66703800Y-77238000I0J226200D01*
G01*
G37*
G36*
G01*
X67703800Y-77238000D02*
X67703800Y-75988000D01*
G75*
G02*
X67930000Y-75761800I226200J0D01*
G01*
X68230000Y-75761800D01*
G75*
G02*
X68456200Y-75988000I0J-226200D01*
G01*
X68456200Y-77238000D01*
G75*
G02*
X68230000Y-77464200I-226200J0D01*
G01*
X67930000Y-77464200D01*
G75*
G02*
X67703800Y-77238000I0J226200D01*
G01*
G37*
G36*
G01*
X68703800Y-77238000D02*
X68703800Y-75988000D01*
G75*
G02*
X68930000Y-75761800I226200J0D01*
G01*
X69230000Y-75761800D01*
G75*
G02*
X69456200Y-75988000I0J-226200D01*
G01*
X69456200Y-77238000D01*
G75*
G02*
X69230000Y-77464200I-226200J0D01*
G01*
X68930000Y-77464200D01*
G75*
G02*
X68703800Y-77238000I0J226200D01*
G01*
G37*
G36*
G01*
X69703800Y-77238000D02*
X69703800Y-75988000D01*
G75*
G02*
X69930000Y-75761800I226200J0D01*
G01*
X70230000Y-75761800D01*
G75*
G02*
X70456200Y-75988000I0J-226200D01*
G01*
X70456200Y-77238000D01*
G75*
G02*
X70230000Y-77464200I-226200J0D01*
G01*
X69930000Y-77464200D01*
G75*
G02*
X69703800Y-77238000I0J226200D01*
G01*
G37*
G36*
G01*
X70703800Y-81138000D02*
X70703800Y-79838000D01*
G75*
G02*
X71030000Y-79511800I326200J0D01*
G01*
X71730000Y-79511800D01*
G75*
G02*
X72056200Y-79838000I0J-326200D01*
G01*
X72056200Y-81138000D01*
G75*
G02*
X71730000Y-81464200I-326200J0D01*
G01*
X71030000Y-81464200D01*
G75*
G02*
X70703800Y-81138000I0J326200D01*
G01*
G37*
G36*
G01*
X65103800Y-81138000D02*
X65103800Y-79838000D01*
G75*
G02*
X65430000Y-79511800I326200J0D01*
G01*
X66130000Y-79511800D01*
G75*
G02*
X66456200Y-79838000I0J-326200D01*
G01*
X66456200Y-81138000D01*
G75*
G02*
X66130000Y-81464200I-326200J0D01*
G01*
X65430000Y-81464200D01*
G75*
G02*
X65103800Y-81138000I0J326200D01*
G01*
G37*
G36*
G01*
X40607000Y-48958200D02*
X39657000Y-48958200D01*
G75*
G02*
X39330800Y-48632000I0J326200D01*
G01*
X39330800Y-48132000D01*
G75*
G02*
X39657000Y-47805800I326200J0D01*
G01*
X40607000Y-47805800D01*
G75*
G02*
X40933200Y-48132000I0J-326200D01*
G01*
X40933200Y-48632000D01*
G75*
G02*
X40607000Y-48958200I-326200J0D01*
G01*
G37*
G36*
G01*
X40607000Y-47058200D02*
X39657000Y-47058200D01*
G75*
G02*
X39330800Y-46732000I0J326200D01*
G01*
X39330800Y-46232000D01*
G75*
G02*
X39657000Y-45905800I326200J0D01*
G01*
X40607000Y-45905800D01*
G75*
G02*
X40933200Y-46232000I0J-326200D01*
G01*
X40933200Y-46732000D01*
G75*
G02*
X40607000Y-47058200I-326200J0D01*
G01*
G37*
G36*
G01*
X89858000Y-43284200D02*
X88958000Y-43284200D01*
G75*
G02*
X88631800Y-42958000I0J326200D01*
G01*
X88631800Y-42433000D01*
G75*
G02*
X88958000Y-42106800I326200J0D01*
G01*
X89858000Y-42106800D01*
G75*
G02*
X90184200Y-42433000I0J-326200D01*
G01*
X90184200Y-42958000D01*
G75*
G02*
X89858000Y-43284200I-326200J0D01*
G01*
G37*
G36*
G01*
X89858000Y-41459200D02*
X88958000Y-41459200D01*
G75*
G02*
X88631800Y-41133000I0J326200D01*
G01*
X88631800Y-40608000D01*
G75*
G02*
X88958000Y-40281800I326200J0D01*
G01*
X89858000Y-40281800D01*
G75*
G02*
X90184200Y-40608000I0J-326200D01*
G01*
X90184200Y-41133000D01*
G75*
G02*
X89858000Y-41459200I-326200J0D01*
G01*
G37*
G36*
G01*
X79403800Y-77238000D02*
X79403800Y-75988000D01*
G75*
G02*
X79630000Y-75761800I226200J0D01*
G01*
X79930000Y-75761800D01*
G75*
G02*
X80156200Y-75988000I0J-226200D01*
G01*
X80156200Y-77238000D01*
G75*
G02*
X79930000Y-77464200I-226200J0D01*
G01*
X79630000Y-77464200D01*
G75*
G02*
X79403800Y-77238000I0J226200D01*
G01*
G37*
G36*
G01*
X80403800Y-77238000D02*
X80403800Y-75988000D01*
G75*
G02*
X80630000Y-75761800I226200J0D01*
G01*
X80930000Y-75761800D01*
G75*
G02*
X81156200Y-75988000I0J-226200D01*
G01*
X81156200Y-77238000D01*
G75*
G02*
X80930000Y-77464200I-226200J0D01*
G01*
X80630000Y-77464200D01*
G75*
G02*
X80403800Y-77238000I0J226200D01*
G01*
G37*
G36*
G01*
X81403800Y-77238000D02*
X81403800Y-75988000D01*
G75*
G02*
X81630000Y-75761800I226200J0D01*
G01*
X81930000Y-75761800D01*
G75*
G02*
X82156200Y-75988000I0J-226200D01*
G01*
X82156200Y-77238000D01*
G75*
G02*
X81930000Y-77464200I-226200J0D01*
G01*
X81630000Y-77464200D01*
G75*
G02*
X81403800Y-77238000I0J226200D01*
G01*
G37*
G36*
G01*
X82403800Y-77238000D02*
X82403800Y-75988000D01*
G75*
G02*
X82630000Y-75761800I226200J0D01*
G01*
X82930000Y-75761800D01*
G75*
G02*
X83156200Y-75988000I0J-226200D01*
G01*
X83156200Y-77238000D01*
G75*
G02*
X82930000Y-77464200I-226200J0D01*
G01*
X82630000Y-77464200D01*
G75*
G02*
X82403800Y-77238000I0J226200D01*
G01*
G37*
G36*
G01*
X83403800Y-81138000D02*
X83403800Y-79838000D01*
G75*
G02*
X83730000Y-79511800I326200J0D01*
G01*
X84430000Y-79511800D01*
G75*
G02*
X84756200Y-79838000I0J-326200D01*
G01*
X84756200Y-81138000D01*
G75*
G02*
X84430000Y-81464200I-326200J0D01*
G01*
X83730000Y-81464200D01*
G75*
G02*
X83403800Y-81138000I0J326200D01*
G01*
G37*
G36*
G01*
X77803800Y-81138000D02*
X77803800Y-79838000D01*
G75*
G02*
X78130000Y-79511800I326200J0D01*
G01*
X78830000Y-79511800D01*
G75*
G02*
X79156200Y-79838000I0J-326200D01*
G01*
X79156200Y-81138000D01*
G75*
G02*
X78830000Y-81464200I-326200J0D01*
G01*
X78130000Y-81464200D01*
G75*
G02*
X77803800Y-81138000I0J326200D01*
G01*
G37*
G36*
G01*
X86816250Y-43284200D02*
X85903750Y-43284200D01*
G75*
G02*
X85583800Y-42964250I0J319950D01*
G01*
X85583800Y-42476750D01*
G75*
G02*
X85903750Y-42156800I319950J0D01*
G01*
X86816250Y-42156800D01*
G75*
G02*
X87136200Y-42476750I0J-319950D01*
G01*
X87136200Y-42964250D01*
G75*
G02*
X86816250Y-43284200I-319950J0D01*
G01*
G37*
G36*
G01*
X86816250Y-41409200D02*
X85903750Y-41409200D01*
G75*
G02*
X85583800Y-41089250I0J319950D01*
G01*
X85583800Y-40601750D01*
G75*
G02*
X85903750Y-40281800I319950J0D01*
G01*
X86816250Y-40281800D01*
G75*
G02*
X87136200Y-40601750I0J-319950D01*
G01*
X87136200Y-41089250D01*
G75*
G02*
X86816250Y-41409200I-319950J0D01*
G01*
G37*
G36*
G01*
X74582000Y-61973800D02*
X75532000Y-61973800D01*
G75*
G02*
X75858200Y-62300000I0J-326200D01*
G01*
X75858200Y-62800000D01*
G75*
G02*
X75532000Y-63126200I-326200J0D01*
G01*
X74582000Y-63126200D01*
G75*
G02*
X74255800Y-62800000I0J326200D01*
G01*
X74255800Y-62300000D01*
G75*
G02*
X74582000Y-61973800I326200J0D01*
G01*
G37*
G36*
G01*
X74582000Y-63873800D02*
X75532000Y-63873800D01*
G75*
G02*
X75858200Y-64200000I0J-326200D01*
G01*
X75858200Y-64700000D01*
G75*
G02*
X75532000Y-65026200I-326200J0D01*
G01*
X74582000Y-65026200D01*
G75*
G02*
X74255800Y-64700000I0J326200D01*
G01*
X74255800Y-64200000D01*
G75*
G02*
X74582000Y-63873800I326200J0D01*
G01*
G37*
G36*
G01*
X48536800Y-44017250D02*
X48536800Y-43104750D01*
G75*
G02*
X48856750Y-42784800I319950J0D01*
G01*
X49344250Y-42784800D01*
G75*
G02*
X49664200Y-43104750I0J-319950D01*
G01*
X49664200Y-44017250D01*
G75*
G02*
X49344250Y-44337200I-319950J0D01*
G01*
X48856750Y-44337200D01*
G75*
G02*
X48536800Y-44017250I0J319950D01*
G01*
G37*
G36*
G01*
X50411800Y-44017250D02*
X50411800Y-43104750D01*
G75*
G02*
X50731750Y-42784800I319950J0D01*
G01*
X51219250Y-42784800D01*
G75*
G02*
X51539200Y-43104750I0J-319950D01*
G01*
X51539200Y-44017250D01*
G75*
G02*
X51219250Y-44337200I-319950J0D01*
G01*
X50731750Y-44337200D01*
G75*
G02*
X50411800Y-44017250I0J319950D01*
G01*
G37*
X97282000Y-23368000D03*
G36*
G01*
X93611700Y-59512200D02*
X93611700Y-60629800D01*
G75*
G02*
X93535500Y-60706000I-76200J0D01*
G01*
X91097100Y-60706000D01*
G75*
G02*
X91020900Y-60629800I0J76200D01*
G01*
X91020900Y-59512200D01*
G75*
G02*
X91097100Y-59436000I76200J0D01*
G01*
X93535500Y-59436000D01*
G75*
G02*
X93611700Y-59512200I0J-76200D01*
G01*
G37*
G36*
G01*
X93611700Y-56972200D02*
X93611700Y-58089800D01*
G75*
G02*
X93535500Y-58166000I-76200J0D01*
G01*
X91097100Y-58166000D01*
G75*
G02*
X91020900Y-58089800I0J76200D01*
G01*
X91020900Y-56972200D01*
G75*
G02*
X91097100Y-56896000I76200J0D01*
G01*
X93535500Y-56896000D01*
G75*
G02*
X93611700Y-56972200I0J-76200D01*
G01*
G37*
G36*
G01*
X93611700Y-54432200D02*
X93611700Y-55549800D01*
G75*
G02*
X93535500Y-55626000I-76200J0D01*
G01*
X91097100Y-55626000D01*
G75*
G02*
X91020900Y-55549800I0J76200D01*
G01*
X91020900Y-54432200D01*
G75*
G02*
X91097100Y-54356000I76200J0D01*
G01*
X93535500Y-54356000D01*
G75*
G02*
X93611700Y-54432200I0J-76200D01*
G01*
G37*
G36*
G01*
X93611700Y-51892200D02*
X93611700Y-53009800D01*
G75*
G02*
X93535500Y-53086000I-76200J0D01*
G01*
X91097100Y-53086000D01*
G75*
G02*
X91020900Y-53009800I0J76200D01*
G01*
X91020900Y-51892200D01*
G75*
G02*
X91097100Y-51816000I76200J0D01*
G01*
X93535500Y-51816000D01*
G75*
G02*
X93611700Y-51892200I0J-76200D01*
G01*
G37*
G36*
G01*
X93611700Y-49352200D02*
X93611700Y-50469800D01*
G75*
G02*
X93535500Y-50546000I-76200J0D01*
G01*
X91097100Y-50546000D01*
G75*
G02*
X91020900Y-50469800I0J76200D01*
G01*
X91020900Y-49352200D01*
G75*
G02*
X91097100Y-49276000I76200J0D01*
G01*
X93535500Y-49276000D01*
G75*
G02*
X93611700Y-49352200I0J-76200D01*
G01*
G37*
G36*
G01*
X85001100Y-49352200D02*
X85001100Y-50469800D01*
G75*
G02*
X84924900Y-50546000I-76200J0D01*
G01*
X82486500Y-50546000D01*
G75*
G02*
X82410300Y-50469800I0J76200D01*
G01*
X82410300Y-49352200D01*
G75*
G02*
X82486500Y-49276000I76200J0D01*
G01*
X84924900Y-49276000D01*
G75*
G02*
X85001100Y-49352200I0J-76200D01*
G01*
G37*
G36*
G01*
X85001100Y-51892200D02*
X85001100Y-53009800D01*
G75*
G02*
X84924900Y-53086000I-76200J0D01*
G01*
X82486500Y-53086000D01*
G75*
G02*
X82410300Y-53009800I0J76200D01*
G01*
X82410300Y-51892200D01*
G75*
G02*
X82486500Y-51816000I76200J0D01*
G01*
X84924900Y-51816000D01*
G75*
G02*
X85001100Y-51892200I0J-76200D01*
G01*
G37*
G36*
G01*
X85001100Y-54432200D02*
X85001100Y-55549800D01*
G75*
G02*
X84924900Y-55626000I-76200J0D01*
G01*
X82486500Y-55626000D01*
G75*
G02*
X82410300Y-55549800I0J76200D01*
G01*
X82410300Y-54432200D01*
G75*
G02*
X82486500Y-54356000I76200J0D01*
G01*
X84924900Y-54356000D01*
G75*
G02*
X85001100Y-54432200I0J-76200D01*
G01*
G37*
G36*
G01*
X85001100Y-56972200D02*
X85001100Y-58089800D01*
G75*
G02*
X84924900Y-58166000I-76200J0D01*
G01*
X82486500Y-58166000D01*
G75*
G02*
X82410300Y-58089800I0J76200D01*
G01*
X82410300Y-56972200D01*
G75*
G02*
X82486500Y-56896000I76200J0D01*
G01*
X84924900Y-56896000D01*
G75*
G02*
X85001100Y-56972200I0J-76200D01*
G01*
G37*
G36*
G01*
X85001100Y-59512200D02*
X85001100Y-60629800D01*
G75*
G02*
X84924900Y-60706000I-76200J0D01*
G01*
X82486500Y-60706000D01*
G75*
G02*
X82410300Y-60629800I0J76200D01*
G01*
X82410300Y-59512200D01*
G75*
G02*
X82486500Y-59436000I76200J0D01*
G01*
X84924900Y-59436000D01*
G75*
G02*
X85001100Y-59512200I0J-76200D01*
G01*
G37*
G36*
G01*
X92658250Y-43284200D02*
X91745750Y-43284200D01*
G75*
G02*
X91425800Y-42964250I0J319950D01*
G01*
X91425800Y-42476750D01*
G75*
G02*
X91745750Y-42156800I319950J0D01*
G01*
X92658250Y-42156800D01*
G75*
G02*
X92978200Y-42476750I0J-319950D01*
G01*
X92978200Y-42964250D01*
G75*
G02*
X92658250Y-43284200I-319950J0D01*
G01*
G37*
G36*
G01*
X92658250Y-41409200D02*
X91745750Y-41409200D01*
G75*
G02*
X91425800Y-41089250I0J319950D01*
G01*
X91425800Y-40601750D01*
G75*
G02*
X91745750Y-40281800I319950J0D01*
G01*
X92658250Y-40281800D01*
G75*
G02*
X92978200Y-40601750I0J-319950D01*
G01*
X92978200Y-41089250D01*
G75*
G02*
X92658250Y-41409200I-319950J0D01*
G01*
G37*
G36*
G01*
X63406000Y-61973800D02*
X64356000Y-61973800D01*
G75*
G02*
X64682200Y-62300000I0J-326200D01*
G01*
X64682200Y-62800000D01*
G75*
G02*
X64356000Y-63126200I-326200J0D01*
G01*
X63406000Y-63126200D01*
G75*
G02*
X63079800Y-62800000I0J326200D01*
G01*
X63079800Y-62300000D01*
G75*
G02*
X63406000Y-61973800I326200J0D01*
G01*
G37*
G36*
G01*
X63406000Y-63873800D02*
X64356000Y-63873800D01*
G75*
G02*
X64682200Y-64200000I0J-326200D01*
G01*
X64682200Y-64700000D01*
G75*
G02*
X64356000Y-65026200I-326200J0D01*
G01*
X63406000Y-65026200D01*
G75*
G02*
X63079800Y-64700000I0J326200D01*
G01*
X63079800Y-64200000D01*
G75*
G02*
X63406000Y-63873800I326200J0D01*
G01*
G37*
G36*
G01*
X48536800Y-40715250D02*
X48536800Y-39802750D01*
G75*
G02*
X48856750Y-39482800I319950J0D01*
G01*
X49344250Y-39482800D01*
G75*
G02*
X49664200Y-39802750I0J-319950D01*
G01*
X49664200Y-40715250D01*
G75*
G02*
X49344250Y-41035200I-319950J0D01*
G01*
X48856750Y-41035200D01*
G75*
G02*
X48536800Y-40715250I0J319950D01*
G01*
G37*
G36*
G01*
X50411800Y-40715250D02*
X50411800Y-39802750D01*
G75*
G02*
X50731750Y-39482800I319950J0D01*
G01*
X51219250Y-39482800D01*
G75*
G02*
X51539200Y-39802750I0J-319950D01*
G01*
X51539200Y-40715250D01*
G75*
G02*
X51219250Y-41035200I-319950J0D01*
G01*
X50731750Y-41035200D01*
G75*
G02*
X50411800Y-40715250I0J319950D01*
G01*
G37*
G36*
G01*
X30712000Y-56416800D02*
X31962000Y-56416800D01*
G75*
G02*
X32188200Y-56643000I0J-226200D01*
G01*
X32188200Y-56943000D01*
G75*
G02*
X31962000Y-57169200I-226200J0D01*
G01*
X30712000Y-57169200D01*
G75*
G02*
X30485800Y-56943000I0J226200D01*
G01*
X30485800Y-56643000D01*
G75*
G02*
X30712000Y-56416800I226200J0D01*
G01*
G37*
G36*
G01*
X30712000Y-57416800D02*
X31962000Y-57416800D01*
G75*
G02*
X32188200Y-57643000I0J-226200D01*
G01*
X32188200Y-57943000D01*
G75*
G02*
X31962000Y-58169200I-226200J0D01*
G01*
X30712000Y-58169200D01*
G75*
G02*
X30485800Y-57943000I0J226200D01*
G01*
X30485800Y-57643000D01*
G75*
G02*
X30712000Y-57416800I226200J0D01*
G01*
G37*
G36*
G01*
X30712000Y-58416800D02*
X31962000Y-58416800D01*
G75*
G02*
X32188200Y-58643000I0J-226200D01*
G01*
X32188200Y-58943000D01*
G75*
G02*
X31962000Y-59169200I-226200J0D01*
G01*
X30712000Y-59169200D01*
G75*
G02*
X30485800Y-58943000I0J226200D01*
G01*
X30485800Y-58643000D01*
G75*
G02*
X30712000Y-58416800I226200J0D01*
G01*
G37*
G36*
G01*
X30712000Y-59416800D02*
X31962000Y-59416800D01*
G75*
G02*
X32188200Y-59643000I0J-226200D01*
G01*
X32188200Y-59943000D01*
G75*
G02*
X31962000Y-60169200I-226200J0D01*
G01*
X30712000Y-60169200D01*
G75*
G02*
X30485800Y-59943000I0J226200D01*
G01*
X30485800Y-59643000D01*
G75*
G02*
X30712000Y-59416800I226200J0D01*
G01*
G37*
G36*
G01*
X26812000Y-54816800D02*
X28112000Y-54816800D01*
G75*
G02*
X28438200Y-55143000I0J-326200D01*
G01*
X28438200Y-55843000D01*
G75*
G02*
X28112000Y-56169200I-326200J0D01*
G01*
X26812000Y-56169200D01*
G75*
G02*
X26485800Y-55843000I0J326200D01*
G01*
X26485800Y-55143000D01*
G75*
G02*
X26812000Y-54816800I326200J0D01*
G01*
G37*
G36*
G01*
X26812000Y-60416800D02*
X28112000Y-60416800D01*
G75*
G02*
X28438200Y-60743000I0J-326200D01*
G01*
X28438200Y-61443000D01*
G75*
G02*
X28112000Y-61769200I-326200J0D01*
G01*
X26812000Y-61769200D01*
G75*
G02*
X26485800Y-61443000I0J326200D01*
G01*
X26485800Y-60743000D01*
G75*
G02*
X26812000Y-60416800I326200J0D01*
G01*
G37*
G36*
G01*
X72713000Y-65001200D02*
X71813000Y-65001200D01*
G75*
G02*
X71486800Y-64675000I0J326200D01*
G01*
X71486800Y-64150000D01*
G75*
G02*
X71813000Y-63823800I326200J0D01*
G01*
X72713000Y-63823800D01*
G75*
G02*
X73039200Y-64150000I0J-326200D01*
G01*
X73039200Y-64675000D01*
G75*
G02*
X72713000Y-65001200I-326200J0D01*
G01*
G37*
G36*
G01*
X72713000Y-63176200D02*
X71813000Y-63176200D01*
G75*
G02*
X71486800Y-62850000I0J326200D01*
G01*
X71486800Y-62325000D01*
G75*
G02*
X71813000Y-61998800I326200J0D01*
G01*
X72713000Y-61998800D01*
G75*
G02*
X73039200Y-62325000I0J-326200D01*
G01*
X73039200Y-62850000D01*
G75*
G02*
X72713000Y-63176200I-326200J0D01*
G01*
G37*
G36*
G01*
X84016000Y-43284200D02*
X83116000Y-43284200D01*
G75*
G02*
X82789800Y-42958000I0J326200D01*
G01*
X82789800Y-42433000D01*
G75*
G02*
X83116000Y-42106800I326200J0D01*
G01*
X84016000Y-42106800D01*
G75*
G02*
X84342200Y-42433000I0J-326200D01*
G01*
X84342200Y-42958000D01*
G75*
G02*
X84016000Y-43284200I-326200J0D01*
G01*
G37*
G36*
G01*
X84016000Y-41459200D02*
X83116000Y-41459200D01*
G75*
G02*
X82789800Y-41133000I0J326200D01*
G01*
X82789800Y-40608000D01*
G75*
G02*
X83116000Y-40281800I326200J0D01*
G01*
X84016000Y-40281800D01*
G75*
G02*
X84342200Y-40608000I0J-326200D01*
G01*
X84342200Y-41133000D01*
G75*
G02*
X84016000Y-41459200I-326200J0D01*
G01*
G37*
G36*
G01*
X45281000Y-42395200D02*
X44381000Y-42395200D01*
G75*
G02*
X44054800Y-42069000I0J326200D01*
G01*
X44054800Y-41544000D01*
G75*
G02*
X44381000Y-41217800I326200J0D01*
G01*
X45281000Y-41217800D01*
G75*
G02*
X45607200Y-41544000I0J-326200D01*
G01*
X45607200Y-42069000D01*
G75*
G02*
X45281000Y-42395200I-326200J0D01*
G01*
G37*
G36*
G01*
X45281000Y-40570200D02*
X44381000Y-40570200D01*
G75*
G02*
X44054800Y-40244000I0J326200D01*
G01*
X44054800Y-39719000D01*
G75*
G02*
X44381000Y-39392800I326200J0D01*
G01*
X45281000Y-39392800D01*
G75*
G02*
X45607200Y-39719000I0J-326200D01*
G01*
X45607200Y-40244000D01*
G75*
G02*
X45281000Y-40570200I-326200J0D01*
G01*
G37*
G36*
G01*
X75278000Y-44960200D02*
X74328000Y-44960200D01*
G75*
G02*
X74001800Y-44634000I0J326200D01*
G01*
X74001800Y-44134000D01*
G75*
G02*
X74328000Y-43807800I326200J0D01*
G01*
X75278000Y-43807800D01*
G75*
G02*
X75604200Y-44134000I0J-326200D01*
G01*
X75604200Y-44634000D01*
G75*
G02*
X75278000Y-44960200I-326200J0D01*
G01*
G37*
G36*
G01*
X75278000Y-43060200D02*
X74328000Y-43060200D01*
G75*
G02*
X74001800Y-42734000I0J326200D01*
G01*
X74001800Y-42234000D01*
G75*
G02*
X74328000Y-41907800I326200J0D01*
G01*
X75278000Y-41907800D01*
G75*
G02*
X75604200Y-42234000I0J-326200D01*
G01*
X75604200Y-42734000D01*
G75*
G02*
X75278000Y-43060200I-326200J0D01*
G01*
G37*
G36*
G01*
X60923800Y-47521000D02*
X60923800Y-47221000D01*
G75*
G02*
X61150000Y-46994800I226200J0D01*
G01*
X62900000Y-46994800D01*
G75*
G02*
X63126200Y-47221000I0J-226200D01*
G01*
X63126200Y-47521000D01*
G75*
G02*
X62900000Y-47747200I-226200J0D01*
G01*
X61150000Y-47747200D01*
G75*
G02*
X60923800Y-47521000I0J226200D01*
G01*
G37*
G36*
G01*
X60923800Y-48791000D02*
X60923800Y-48491000D01*
G75*
G02*
X61150000Y-48264800I226200J0D01*
G01*
X62900000Y-48264800D01*
G75*
G02*
X63126200Y-48491000I0J-226200D01*
G01*
X63126200Y-48791000D01*
G75*
G02*
X62900000Y-49017200I-226200J0D01*
G01*
X61150000Y-49017200D01*
G75*
G02*
X60923800Y-48791000I0J226200D01*
G01*
G37*
G36*
G01*
X60923800Y-50061000D02*
X60923800Y-49761000D01*
G75*
G02*
X61150000Y-49534800I226200J0D01*
G01*
X62900000Y-49534800D01*
G75*
G02*
X63126200Y-49761000I0J-226200D01*
G01*
X63126200Y-50061000D01*
G75*
G02*
X62900000Y-50287200I-226200J0D01*
G01*
X61150000Y-50287200D01*
G75*
G02*
X60923800Y-50061000I0J226200D01*
G01*
G37*
G36*
G01*
X60923800Y-51331000D02*
X60923800Y-51031000D01*
G75*
G02*
X61150000Y-50804800I226200J0D01*
G01*
X62900000Y-50804800D01*
G75*
G02*
X63126200Y-51031000I0J-226200D01*
G01*
X63126200Y-51331000D01*
G75*
G02*
X62900000Y-51557200I-226200J0D01*
G01*
X61150000Y-51557200D01*
G75*
G02*
X60923800Y-51331000I0J226200D01*
G01*
G37*
G36*
G01*
X60923800Y-52601000D02*
X60923800Y-52301000D01*
G75*
G02*
X61150000Y-52074800I226200J0D01*
G01*
X62900000Y-52074800D01*
G75*
G02*
X63126200Y-52301000I0J-226200D01*
G01*
X63126200Y-52601000D01*
G75*
G02*
X62900000Y-52827200I-226200J0D01*
G01*
X61150000Y-52827200D01*
G75*
G02*
X60923800Y-52601000I0J226200D01*
G01*
G37*
G36*
G01*
X60923800Y-53871000D02*
X60923800Y-53571000D01*
G75*
G02*
X61150000Y-53344800I226200J0D01*
G01*
X62900000Y-53344800D01*
G75*
G02*
X63126200Y-53571000I0J-226200D01*
G01*
X63126200Y-53871000D01*
G75*
G02*
X62900000Y-54097200I-226200J0D01*
G01*
X61150000Y-54097200D01*
G75*
G02*
X60923800Y-53871000I0J226200D01*
G01*
G37*
G36*
G01*
X60923800Y-55141000D02*
X60923800Y-54841000D01*
G75*
G02*
X61150000Y-54614800I226200J0D01*
G01*
X62900000Y-54614800D01*
G75*
G02*
X63126200Y-54841000I0J-226200D01*
G01*
X63126200Y-55141000D01*
G75*
G02*
X62900000Y-55367200I-226200J0D01*
G01*
X61150000Y-55367200D01*
G75*
G02*
X60923800Y-55141000I0J226200D01*
G01*
G37*
G36*
G01*
X60923800Y-56411000D02*
X60923800Y-56111000D01*
G75*
G02*
X61150000Y-55884800I226200J0D01*
G01*
X62900000Y-55884800D01*
G75*
G02*
X63126200Y-56111000I0J-226200D01*
G01*
X63126200Y-56411000D01*
G75*
G02*
X62900000Y-56637200I-226200J0D01*
G01*
X61150000Y-56637200D01*
G75*
G02*
X60923800Y-56411000I0J226200D01*
G01*
G37*
G36*
G01*
X60923800Y-57681000D02*
X60923800Y-57381000D01*
G75*
G02*
X61150000Y-57154800I226200J0D01*
G01*
X62900000Y-57154800D01*
G75*
G02*
X63126200Y-57381000I0J-226200D01*
G01*
X63126200Y-57681000D01*
G75*
G02*
X62900000Y-57907200I-226200J0D01*
G01*
X61150000Y-57907200D01*
G75*
G02*
X60923800Y-57681000I0J226200D01*
G01*
G37*
G36*
G01*
X60923800Y-58951000D02*
X60923800Y-58651000D01*
G75*
G02*
X61150000Y-58424800I226200J0D01*
G01*
X62900000Y-58424800D01*
G75*
G02*
X63126200Y-58651000I0J-226200D01*
G01*
X63126200Y-58951000D01*
G75*
G02*
X62900000Y-59177200I-226200J0D01*
G01*
X61150000Y-59177200D01*
G75*
G02*
X60923800Y-58951000I0J226200D01*
G01*
G37*
G36*
G01*
X70223800Y-58951000D02*
X70223800Y-58651000D01*
G75*
G02*
X70450000Y-58424800I226200J0D01*
G01*
X72200000Y-58424800D01*
G75*
G02*
X72426200Y-58651000I0J-226200D01*
G01*
X72426200Y-58951000D01*
G75*
G02*
X72200000Y-59177200I-226200J0D01*
G01*
X70450000Y-59177200D01*
G75*
G02*
X70223800Y-58951000I0J226200D01*
G01*
G37*
G36*
G01*
X70223800Y-57681000D02*
X70223800Y-57381000D01*
G75*
G02*
X70450000Y-57154800I226200J0D01*
G01*
X72200000Y-57154800D01*
G75*
G02*
X72426200Y-57381000I0J-226200D01*
G01*
X72426200Y-57681000D01*
G75*
G02*
X72200000Y-57907200I-226200J0D01*
G01*
X70450000Y-57907200D01*
G75*
G02*
X70223800Y-57681000I0J226200D01*
G01*
G37*
G36*
G01*
X70223800Y-56411000D02*
X70223800Y-56111000D01*
G75*
G02*
X70450000Y-55884800I226200J0D01*
G01*
X72200000Y-55884800D01*
G75*
G02*
X72426200Y-56111000I0J-226200D01*
G01*
X72426200Y-56411000D01*
G75*
G02*
X72200000Y-56637200I-226200J0D01*
G01*
X70450000Y-56637200D01*
G75*
G02*
X70223800Y-56411000I0J226200D01*
G01*
G37*
G36*
G01*
X70223800Y-55141000D02*
X70223800Y-54841000D01*
G75*
G02*
X70450000Y-54614800I226200J0D01*
G01*
X72200000Y-54614800D01*
G75*
G02*
X72426200Y-54841000I0J-226200D01*
G01*
X72426200Y-55141000D01*
G75*
G02*
X72200000Y-55367200I-226200J0D01*
G01*
X70450000Y-55367200D01*
G75*
G02*
X70223800Y-55141000I0J226200D01*
G01*
G37*
G36*
G01*
X70223800Y-53871000D02*
X70223800Y-53571000D01*
G75*
G02*
X70450000Y-53344800I226200J0D01*
G01*
X72200000Y-53344800D01*
G75*
G02*
X72426200Y-53571000I0J-226200D01*
G01*
X72426200Y-53871000D01*
G75*
G02*
X72200000Y-54097200I-226200J0D01*
G01*
X70450000Y-54097200D01*
G75*
G02*
X70223800Y-53871000I0J226200D01*
G01*
G37*
G36*
G01*
X70223800Y-52601000D02*
X70223800Y-52301000D01*
G75*
G02*
X70450000Y-52074800I226200J0D01*
G01*
X72200000Y-52074800D01*
G75*
G02*
X72426200Y-52301000I0J-226200D01*
G01*
X72426200Y-52601000D01*
G75*
G02*
X72200000Y-52827200I-226200J0D01*
G01*
X70450000Y-52827200D01*
G75*
G02*
X70223800Y-52601000I0J226200D01*
G01*
G37*
G36*
G01*
X70223800Y-51331000D02*
X70223800Y-51031000D01*
G75*
G02*
X70450000Y-50804800I226200J0D01*
G01*
X72200000Y-50804800D01*
G75*
G02*
X72426200Y-51031000I0J-226200D01*
G01*
X72426200Y-51331000D01*
G75*
G02*
X72200000Y-51557200I-226200J0D01*
G01*
X70450000Y-51557200D01*
G75*
G02*
X70223800Y-51331000I0J226200D01*
G01*
G37*
G36*
G01*
X70223800Y-50061000D02*
X70223800Y-49761000D01*
G75*
G02*
X70450000Y-49534800I226200J0D01*
G01*
X72200000Y-49534800D01*
G75*
G02*
X72426200Y-49761000I0J-226200D01*
G01*
X72426200Y-50061000D01*
G75*
G02*
X72200000Y-50287200I-226200J0D01*
G01*
X70450000Y-50287200D01*
G75*
G02*
X70223800Y-50061000I0J226200D01*
G01*
G37*
G36*
G01*
X70223800Y-48791000D02*
X70223800Y-48491000D01*
G75*
G02*
X70450000Y-48264800I226200J0D01*
G01*
X72200000Y-48264800D01*
G75*
G02*
X72426200Y-48491000I0J-226200D01*
G01*
X72426200Y-48791000D01*
G75*
G02*
X72200000Y-49017200I-226200J0D01*
G01*
X70450000Y-49017200D01*
G75*
G02*
X70223800Y-48791000I0J226200D01*
G01*
G37*
G36*
G01*
X70223800Y-47521000D02*
X70223800Y-47221000D01*
G75*
G02*
X70450000Y-46994800I226200J0D01*
G01*
X72200000Y-46994800D01*
G75*
G02*
X72426200Y-47221000I0J-226200D01*
G01*
X72426200Y-47521000D01*
G75*
G02*
X72200000Y-47747200I-226200J0D01*
G01*
X70450000Y-47747200D01*
G75*
G02*
X70223800Y-47521000I0J226200D01*
G01*
G37*
D11*
X63754000Y-36322000D03*
X62738000Y-41402000D03*
X61722000Y-36322000D03*
D12*
X63373000Y-40132000D03*
X62103000Y-40132000D03*
X63373000Y-38862000D03*
X62103000Y-38862000D03*
X63373000Y-37592000D03*
X62103000Y-37592000D03*
G36*
G01*
X68994000Y-61973800D02*
X69944000Y-61973800D01*
G75*
G02*
X70270200Y-62300000I0J-326200D01*
G01*
X70270200Y-62800000D01*
G75*
G02*
X69944000Y-63126200I-326200J0D01*
G01*
X68994000Y-63126200D01*
G75*
G02*
X68667800Y-62800000I0J326200D01*
G01*
X68667800Y-62300000D01*
G75*
G02*
X68994000Y-61973800I326200J0D01*
G01*
G37*
G36*
G01*
X68994000Y-63873800D02*
X69944000Y-63873800D01*
G75*
G02*
X70270200Y-64200000I0J-326200D01*
G01*
X70270200Y-64700000D01*
G75*
G02*
X69944000Y-65026200I-326200J0D01*
G01*
X68994000Y-65026200D01*
G75*
G02*
X68667800Y-64700000I0J326200D01*
G01*
X68667800Y-64200000D01*
G75*
G02*
X68994000Y-63873800I326200J0D01*
G01*
G37*
G36*
G01*
X41303800Y-77238000D02*
X41303800Y-75988000D01*
G75*
G02*
X41530000Y-75761800I226200J0D01*
G01*
X41830000Y-75761800D01*
G75*
G02*
X42056200Y-75988000I0J-226200D01*
G01*
X42056200Y-77238000D01*
G75*
G02*
X41830000Y-77464200I-226200J0D01*
G01*
X41530000Y-77464200D01*
G75*
G02*
X41303800Y-77238000I0J226200D01*
G01*
G37*
G36*
G01*
X42303800Y-77238000D02*
X42303800Y-75988000D01*
G75*
G02*
X42530000Y-75761800I226200J0D01*
G01*
X42830000Y-75761800D01*
G75*
G02*
X43056200Y-75988000I0J-226200D01*
G01*
X43056200Y-77238000D01*
G75*
G02*
X42830000Y-77464200I-226200J0D01*
G01*
X42530000Y-77464200D01*
G75*
G02*
X42303800Y-77238000I0J226200D01*
G01*
G37*
G36*
G01*
X43303800Y-77238000D02*
X43303800Y-75988000D01*
G75*
G02*
X43530000Y-75761800I226200J0D01*
G01*
X43830000Y-75761800D01*
G75*
G02*
X44056200Y-75988000I0J-226200D01*
G01*
X44056200Y-77238000D01*
G75*
G02*
X43830000Y-77464200I-226200J0D01*
G01*
X43530000Y-77464200D01*
G75*
G02*
X43303800Y-77238000I0J226200D01*
G01*
G37*
G36*
G01*
X44303800Y-77238000D02*
X44303800Y-75988000D01*
G75*
G02*
X44530000Y-75761800I226200J0D01*
G01*
X44830000Y-75761800D01*
G75*
G02*
X45056200Y-75988000I0J-226200D01*
G01*
X45056200Y-77238000D01*
G75*
G02*
X44830000Y-77464200I-226200J0D01*
G01*
X44530000Y-77464200D01*
G75*
G02*
X44303800Y-77238000I0J226200D01*
G01*
G37*
G36*
G01*
X45303800Y-81138000D02*
X45303800Y-79838000D01*
G75*
G02*
X45630000Y-79511800I326200J0D01*
G01*
X46330000Y-79511800D01*
G75*
G02*
X46656200Y-79838000I0J-326200D01*
G01*
X46656200Y-81138000D01*
G75*
G02*
X46330000Y-81464200I-326200J0D01*
G01*
X45630000Y-81464200D01*
G75*
G02*
X45303800Y-81138000I0J326200D01*
G01*
G37*
G36*
G01*
X39703800Y-81138000D02*
X39703800Y-79838000D01*
G75*
G02*
X40030000Y-79511800I326200J0D01*
G01*
X40730000Y-79511800D01*
G75*
G02*
X41056200Y-79838000I0J-326200D01*
G01*
X41056200Y-81138000D01*
G75*
G02*
X40730000Y-81464200I-326200J0D01*
G01*
X40030000Y-81464200D01*
G75*
G02*
X39703800Y-81138000I0J326200D01*
G01*
G37*
G36*
G01*
X49624000Y-48897200D02*
X48674000Y-48897200D01*
G75*
G02*
X48347800Y-48571000I0J326200D01*
G01*
X48347800Y-48071000D01*
G75*
G02*
X48674000Y-47744800I326200J0D01*
G01*
X49624000Y-47744800D01*
G75*
G02*
X49950200Y-48071000I0J-326200D01*
G01*
X49950200Y-48571000D01*
G75*
G02*
X49624000Y-48897200I-326200J0D01*
G01*
G37*
G36*
G01*
X49624000Y-46997200D02*
X48674000Y-46997200D01*
G75*
G02*
X48347800Y-46671000I0J326200D01*
G01*
X48347800Y-46171000D01*
G75*
G02*
X48674000Y-45844800I326200J0D01*
G01*
X49624000Y-45844800D01*
G75*
G02*
X49950200Y-46171000I0J-326200D01*
G01*
X49950200Y-46671000D01*
G75*
G02*
X49624000Y-46997200I-326200J0D01*
G01*
G37*
M02*
