M48
INCH,TZ
T1C0.0157
T2C0.1260
%
G90
G05
T1
X10800Y-19300
X10800Y-20000
X10800Y-20650
X12350Y-21300
X12350Y-21700
X12400Y-24250
X12650Y-15300
X12650Y-15750
X12850Y-24250
X13100Y-16600
X13100Y-17150
X15450Y-29850
X15850Y-29850
X16474Y-18276
X16850Y-19800
X16850Y-20400
X16850Y-20950
X17300Y-20950
X17550Y-18300
X17800Y-20950
X18200Y-9850
X18250Y-19800
X18250Y-20400
X18250Y-20950
X18600Y-9850
X18700Y-18276
X19550Y-8300
X19550Y-31700
X20400Y-30150
X20800Y-30150
X23200Y-9850
X23200Y-14800
X23550Y-21150
X23600Y-9850
X23700Y-14800
X23900Y-15300
X24050Y-27750
X24500Y-8300
X24500Y-31700
X24900Y-25950
X25200Y-27950
X25250Y-21150
X25400Y-25950
X25400Y-30150
X25500Y-16350
X25750Y-21150
X25800Y-30150
X26100Y-21550
X26350Y-20050
X26800Y-20650
X27150Y-25950
X27250Y-14050
X27300Y-20650
X27650Y-25950
X28100Y-14050
X28200Y-9850
X28600Y-9850
X28600Y-14050
X28750Y-16750
X28750Y-17400
X28900Y-20650
X28950Y-27750
X29300Y-25950
X29450Y-14050
X29550Y-8300
X29550Y-31700
X29800Y-25950
X30300Y-14050
X30350Y-30150
X30400Y-25950
X30750Y-30150
X30800Y-14050
X30900Y-25950
X31800Y-14400
X32900Y-15500
X33200Y-9850
X33600Y-9850
X34600Y-17600
X35200Y-15150
X35550Y-20200
X35550Y-21150
X35550Y-22150
X35550Y-23150
X35750Y-17600
T2
X11700Y-9200
X11700Y-30800
X38300Y-9200
X38300Y-30800
T0
M30
