G04 #@! TF.GenerationSoftware,KiCad,Pcbnew,6.0.10-86aedd382b~118~ubuntu18.04.1*
G04 #@! TF.CreationDate,2024-08-26T13:47:26-06:00*
G04 #@! TF.ProjectId,ckt-xing-txm,636b742d-7869-46e6-972d-74786d2e6b69,rev?*
G04 #@! TF.SameCoordinates,Original*
G04 #@! TF.FileFunction,Copper,L1,Top*
G04 #@! TF.FilePolarity,Positive*
%FSLAX46Y46*%
G04 Gerber Fmt 4.6, Leading zero omitted, Abs format (unit mm)*
G04 Created by KiCad (PCBNEW 6.0.10-86aedd382b~118~ubuntu18.04.1) date 2024-08-26 13:47:26*
%MOMM*%
%LPD*%
G01*
G04 APERTURE LIST*
G04 #@! TA.AperFunction,SMDPad,CuDef*
%ADD10R,0.550000X1.300000*%
G04 #@! TD*
G04 #@! TA.AperFunction,ComponentPad*
%ADD11C,6.400000*%
G04 #@! TD*
G04 #@! TA.AperFunction,SMDPad,CuDef*
%ADD12R,2.438400X1.117600*%
G04 #@! TD*
G04 #@! TA.AperFunction,ConnectorPad*
%ADD13C,0.787400*%
G04 #@! TD*
G04 #@! TA.AperFunction,ViaPad*
%ADD14C,0.800000*%
G04 #@! TD*
G04 #@! TA.AperFunction,Conductor*
%ADD15C,1.016000*%
G04 #@! TD*
G04 #@! TA.AperFunction,Conductor*
%ADD16C,0.508000*%
G04 #@! TD*
G04 #@! TA.AperFunction,Conductor*
%ADD17C,0.254000*%
G04 #@! TD*
G04 APERTURE END LIST*
D10*
X46077000Y-48261000D03*
G04 #@! TA.AperFunction,SMDPad,CuDef*
G36*
X43652000Y-52211000D02*
G01*
X43652000Y-49611000D01*
X44177000Y-49086000D01*
X44177000Y-47611000D01*
X44977000Y-47611000D01*
X44977000Y-49086000D01*
X45502000Y-49611000D01*
X45502000Y-52211000D01*
X43652000Y-52211000D01*
G37*
G04 #@! TD.AperFunction*
X43077000Y-48261000D03*
G04 #@! TA.AperFunction,SMDPad,CuDef*
G36*
G01*
X61537000Y-64925000D02*
X60637000Y-64925000D01*
G75*
G02*
X60387000Y-64675000I0J250000D01*
G01*
X60387000Y-64150000D01*
G75*
G02*
X60637000Y-63900000I250000J0D01*
G01*
X61537000Y-63900000D01*
G75*
G02*
X61787000Y-64150000I0J-250000D01*
G01*
X61787000Y-64675000D01*
G75*
G02*
X61537000Y-64925000I-250000J0D01*
G01*
G37*
G04 #@! TD.AperFunction*
G04 #@! TA.AperFunction,SMDPad,CuDef*
G36*
G01*
X61537000Y-63100000D02*
X60637000Y-63100000D01*
G75*
G02*
X60387000Y-62850000I0J250000D01*
G01*
X60387000Y-62325000D01*
G75*
G02*
X60637000Y-62075000I250000J0D01*
G01*
X61537000Y-62075000D01*
G75*
G02*
X61787000Y-62325000I0J-250000D01*
G01*
X61787000Y-62850000D01*
G75*
G02*
X61537000Y-63100000I-250000J0D01*
G01*
G37*
G04 #@! TD.AperFunction*
D11*
X29718000Y-23368000D03*
G04 #@! TA.AperFunction,SMDPad,CuDef*
G36*
G01*
X44980000Y-24362000D02*
X44980000Y-25612000D01*
G75*
G02*
X44830000Y-25762000I-150000J0D01*
G01*
X44530000Y-25762000D01*
G75*
G02*
X44380000Y-25612000I0J150000D01*
G01*
X44380000Y-24362000D01*
G75*
G02*
X44530000Y-24212000I150000J0D01*
G01*
X44830000Y-24212000D01*
G75*
G02*
X44980000Y-24362000I0J-150000D01*
G01*
G37*
G04 #@! TD.AperFunction*
G04 #@! TA.AperFunction,SMDPad,CuDef*
G36*
G01*
X43980000Y-24362000D02*
X43980000Y-25612000D01*
G75*
G02*
X43830000Y-25762000I-150000J0D01*
G01*
X43530000Y-25762000D01*
G75*
G02*
X43380000Y-25612000I0J150000D01*
G01*
X43380000Y-24362000D01*
G75*
G02*
X43530000Y-24212000I150000J0D01*
G01*
X43830000Y-24212000D01*
G75*
G02*
X43980000Y-24362000I0J-150000D01*
G01*
G37*
G04 #@! TD.AperFunction*
G04 #@! TA.AperFunction,SMDPad,CuDef*
G36*
G01*
X42980000Y-24362000D02*
X42980000Y-25612000D01*
G75*
G02*
X42830000Y-25762000I-150000J0D01*
G01*
X42530000Y-25762000D01*
G75*
G02*
X42380000Y-25612000I0J150000D01*
G01*
X42380000Y-24362000D01*
G75*
G02*
X42530000Y-24212000I150000J0D01*
G01*
X42830000Y-24212000D01*
G75*
G02*
X42980000Y-24362000I0J-150000D01*
G01*
G37*
G04 #@! TD.AperFunction*
G04 #@! TA.AperFunction,SMDPad,CuDef*
G36*
G01*
X41980000Y-24362000D02*
X41980000Y-25612000D01*
G75*
G02*
X41830000Y-25762000I-150000J0D01*
G01*
X41530000Y-25762000D01*
G75*
G02*
X41380000Y-25612000I0J150000D01*
G01*
X41380000Y-24362000D01*
G75*
G02*
X41530000Y-24212000I150000J0D01*
G01*
X41830000Y-24212000D01*
G75*
G02*
X41980000Y-24362000I0J-150000D01*
G01*
G37*
G04 #@! TD.AperFunction*
G04 #@! TA.AperFunction,SMDPad,CuDef*
G36*
G01*
X40980000Y-20462000D02*
X40980000Y-21762000D01*
G75*
G02*
X40730000Y-22012000I-250000J0D01*
G01*
X40030000Y-22012000D01*
G75*
G02*
X39780000Y-21762000I0J250000D01*
G01*
X39780000Y-20462000D01*
G75*
G02*
X40030000Y-20212000I250000J0D01*
G01*
X40730000Y-20212000D01*
G75*
G02*
X40980000Y-20462000I0J-250000D01*
G01*
G37*
G04 #@! TD.AperFunction*
G04 #@! TA.AperFunction,SMDPad,CuDef*
G36*
G01*
X46580000Y-20462000D02*
X46580000Y-21762000D01*
G75*
G02*
X46330000Y-22012000I-250000J0D01*
G01*
X45630000Y-22012000D01*
G75*
G02*
X45380000Y-21762000I0J250000D01*
G01*
X45380000Y-20462000D01*
G75*
G02*
X45630000Y-20212000I250000J0D01*
G01*
X46330000Y-20212000D01*
G75*
G02*
X46580000Y-20462000I0J-250000D01*
G01*
G37*
G04 #@! TD.AperFunction*
G04 #@! TA.AperFunction,SMDPad,CuDef*
G36*
G01*
X78072000Y-39550000D02*
X77122000Y-39550000D01*
G75*
G02*
X76872000Y-39300000I0J250000D01*
G01*
X76872000Y-38800000D01*
G75*
G02*
X77122000Y-38550000I250000J0D01*
G01*
X78072000Y-38550000D01*
G75*
G02*
X78322000Y-38800000I0J-250000D01*
G01*
X78322000Y-39300000D01*
G75*
G02*
X78072000Y-39550000I-250000J0D01*
G01*
G37*
G04 #@! TD.AperFunction*
G04 #@! TA.AperFunction,SMDPad,CuDef*
G36*
G01*
X78072000Y-37650000D02*
X77122000Y-37650000D01*
G75*
G02*
X76872000Y-37400000I0J250000D01*
G01*
X76872000Y-36900000D01*
G75*
G02*
X77122000Y-36650000I250000J0D01*
G01*
X78072000Y-36650000D01*
G75*
G02*
X78322000Y-36900000I0J-250000D01*
G01*
X78322000Y-37400000D01*
G75*
G02*
X78072000Y-37650000I-250000J0D01*
G01*
G37*
G04 #@! TD.AperFunction*
G04 #@! TA.AperFunction,SMDPad,CuDef*
G36*
G01*
X30712000Y-41253000D02*
X31962000Y-41253000D01*
G75*
G02*
X32112000Y-41403000I0J-150000D01*
G01*
X32112000Y-41703000D01*
G75*
G02*
X31962000Y-41853000I-150000J0D01*
G01*
X30712000Y-41853000D01*
G75*
G02*
X30562000Y-41703000I0J150000D01*
G01*
X30562000Y-41403000D01*
G75*
G02*
X30712000Y-41253000I150000J0D01*
G01*
G37*
G04 #@! TD.AperFunction*
G04 #@! TA.AperFunction,SMDPad,CuDef*
G36*
G01*
X30712000Y-42253000D02*
X31962000Y-42253000D01*
G75*
G02*
X32112000Y-42403000I0J-150000D01*
G01*
X32112000Y-42703000D01*
G75*
G02*
X31962000Y-42853000I-150000J0D01*
G01*
X30712000Y-42853000D01*
G75*
G02*
X30562000Y-42703000I0J150000D01*
G01*
X30562000Y-42403000D01*
G75*
G02*
X30712000Y-42253000I150000J0D01*
G01*
G37*
G04 #@! TD.AperFunction*
G04 #@! TA.AperFunction,SMDPad,CuDef*
G36*
G01*
X30712000Y-43253000D02*
X31962000Y-43253000D01*
G75*
G02*
X32112000Y-43403000I0J-150000D01*
G01*
X32112000Y-43703000D01*
G75*
G02*
X31962000Y-43853000I-150000J0D01*
G01*
X30712000Y-43853000D01*
G75*
G02*
X30562000Y-43703000I0J150000D01*
G01*
X30562000Y-43403000D01*
G75*
G02*
X30712000Y-43253000I150000J0D01*
G01*
G37*
G04 #@! TD.AperFunction*
G04 #@! TA.AperFunction,SMDPad,CuDef*
G36*
G01*
X30712000Y-44253000D02*
X31962000Y-44253000D01*
G75*
G02*
X32112000Y-44403000I0J-150000D01*
G01*
X32112000Y-44703000D01*
G75*
G02*
X31962000Y-44853000I-150000J0D01*
G01*
X30712000Y-44853000D01*
G75*
G02*
X30562000Y-44703000I0J150000D01*
G01*
X30562000Y-44403000D01*
G75*
G02*
X30712000Y-44253000I150000J0D01*
G01*
G37*
G04 #@! TD.AperFunction*
G04 #@! TA.AperFunction,SMDPad,CuDef*
G36*
G01*
X26812000Y-45253000D02*
X28112000Y-45253000D01*
G75*
G02*
X28362000Y-45503000I0J-250000D01*
G01*
X28362000Y-46203000D01*
G75*
G02*
X28112000Y-46453000I-250000J0D01*
G01*
X26812000Y-46453000D01*
G75*
G02*
X26562000Y-46203000I0J250000D01*
G01*
X26562000Y-45503000D01*
G75*
G02*
X26812000Y-45253000I250000J0D01*
G01*
G37*
G04 #@! TD.AperFunction*
G04 #@! TA.AperFunction,SMDPad,CuDef*
G36*
G01*
X26812000Y-39653000D02*
X28112000Y-39653000D01*
G75*
G02*
X28362000Y-39903000I0J-250000D01*
G01*
X28362000Y-40603000D01*
G75*
G02*
X28112000Y-40853000I-250000J0D01*
G01*
X26812000Y-40853000D01*
G75*
G02*
X26562000Y-40603000I0J250000D01*
G01*
X26562000Y-39903000D01*
G75*
G02*
X26812000Y-39653000I250000J0D01*
G01*
G37*
G04 #@! TD.AperFunction*
G04 #@! TA.AperFunction,SMDPad,CuDef*
G36*
G01*
X72484000Y-39550000D02*
X71534000Y-39550000D01*
G75*
G02*
X71284000Y-39300000I0J250000D01*
G01*
X71284000Y-38800000D01*
G75*
G02*
X71534000Y-38550000I250000J0D01*
G01*
X72484000Y-38550000D01*
G75*
G02*
X72734000Y-38800000I0J-250000D01*
G01*
X72734000Y-39300000D01*
G75*
G02*
X72484000Y-39550000I-250000J0D01*
G01*
G37*
G04 #@! TD.AperFunction*
G04 #@! TA.AperFunction,SMDPad,CuDef*
G36*
G01*
X72484000Y-37650000D02*
X71534000Y-37650000D01*
G75*
G02*
X71284000Y-37400000I0J250000D01*
G01*
X71284000Y-36900000D01*
G75*
G02*
X71534000Y-36650000I250000J0D01*
G01*
X72484000Y-36650000D01*
G75*
G02*
X72734000Y-36900000I0J-250000D01*
G01*
X72734000Y-37400000D01*
G75*
G02*
X72484000Y-37650000I-250000J0D01*
G01*
G37*
G04 #@! TD.AperFunction*
G04 #@! TA.AperFunction,SMDPad,CuDef*
G36*
G01*
X81095000Y-64925000D02*
X80195000Y-64925000D01*
G75*
G02*
X79945000Y-64675000I0J250000D01*
G01*
X79945000Y-64150000D01*
G75*
G02*
X80195000Y-63900000I250000J0D01*
G01*
X81095000Y-63900000D01*
G75*
G02*
X81345000Y-64150000I0J-250000D01*
G01*
X81345000Y-64675000D01*
G75*
G02*
X81095000Y-64925000I-250000J0D01*
G01*
G37*
G04 #@! TD.AperFunction*
G04 #@! TA.AperFunction,SMDPad,CuDef*
G36*
G01*
X81095000Y-63100000D02*
X80195000Y-63100000D01*
G75*
G02*
X79945000Y-62850000I0J250000D01*
G01*
X79945000Y-62325000D01*
G75*
G02*
X80195000Y-62075000I250000J0D01*
G01*
X81095000Y-62075000D01*
G75*
G02*
X81345000Y-62325000I0J-250000D01*
G01*
X81345000Y-62850000D01*
G75*
G02*
X81095000Y-63100000I-250000J0D01*
G01*
G37*
G04 #@! TD.AperFunction*
G04 #@! TA.AperFunction,SMDPad,CuDef*
G36*
G01*
X68765000Y-36675000D02*
X69665000Y-36675000D01*
G75*
G02*
X69915000Y-36925000I0J-250000D01*
G01*
X69915000Y-37450000D01*
G75*
G02*
X69665000Y-37700000I-250000J0D01*
G01*
X68765000Y-37700000D01*
G75*
G02*
X68515000Y-37450000I0J250000D01*
G01*
X68515000Y-36925000D01*
G75*
G02*
X68765000Y-36675000I250000J0D01*
G01*
G37*
G04 #@! TD.AperFunction*
G04 #@! TA.AperFunction,SMDPad,CuDef*
G36*
G01*
X68765000Y-38500000D02*
X69665000Y-38500000D01*
G75*
G02*
X69915000Y-38750000I0J-250000D01*
G01*
X69915000Y-39275000D01*
G75*
G02*
X69665000Y-39525000I-250000J0D01*
G01*
X68765000Y-39525000D01*
G75*
G02*
X68515000Y-39275000I0J250000D01*
G01*
X68515000Y-38750000D01*
G75*
G02*
X68765000Y-38500000I250000J0D01*
G01*
G37*
G04 #@! TD.AperFunction*
G04 #@! TA.AperFunction,SMDPad,CuDef*
G36*
G01*
X83080000Y-24362000D02*
X83080000Y-25612000D01*
G75*
G02*
X82930000Y-25762000I-150000J0D01*
G01*
X82630000Y-25762000D01*
G75*
G02*
X82480000Y-25612000I0J150000D01*
G01*
X82480000Y-24362000D01*
G75*
G02*
X82630000Y-24212000I150000J0D01*
G01*
X82930000Y-24212000D01*
G75*
G02*
X83080000Y-24362000I0J-150000D01*
G01*
G37*
G04 #@! TD.AperFunction*
G04 #@! TA.AperFunction,SMDPad,CuDef*
G36*
G01*
X82080000Y-24362000D02*
X82080000Y-25612000D01*
G75*
G02*
X81930000Y-25762000I-150000J0D01*
G01*
X81630000Y-25762000D01*
G75*
G02*
X81480000Y-25612000I0J150000D01*
G01*
X81480000Y-24362000D01*
G75*
G02*
X81630000Y-24212000I150000J0D01*
G01*
X81930000Y-24212000D01*
G75*
G02*
X82080000Y-24362000I0J-150000D01*
G01*
G37*
G04 #@! TD.AperFunction*
G04 #@! TA.AperFunction,SMDPad,CuDef*
G36*
G01*
X81080000Y-24362000D02*
X81080000Y-25612000D01*
G75*
G02*
X80930000Y-25762000I-150000J0D01*
G01*
X80630000Y-25762000D01*
G75*
G02*
X80480000Y-25612000I0J150000D01*
G01*
X80480000Y-24362000D01*
G75*
G02*
X80630000Y-24212000I150000J0D01*
G01*
X80930000Y-24212000D01*
G75*
G02*
X81080000Y-24362000I0J-150000D01*
G01*
G37*
G04 #@! TD.AperFunction*
G04 #@! TA.AperFunction,SMDPad,CuDef*
G36*
G01*
X80080000Y-24362000D02*
X80080000Y-25612000D01*
G75*
G02*
X79930000Y-25762000I-150000J0D01*
G01*
X79630000Y-25762000D01*
G75*
G02*
X79480000Y-25612000I0J150000D01*
G01*
X79480000Y-24362000D01*
G75*
G02*
X79630000Y-24212000I150000J0D01*
G01*
X79930000Y-24212000D01*
G75*
G02*
X80080000Y-24362000I0J-150000D01*
G01*
G37*
G04 #@! TD.AperFunction*
G04 #@! TA.AperFunction,SMDPad,CuDef*
G36*
G01*
X84680000Y-20462000D02*
X84680000Y-21762000D01*
G75*
G02*
X84430000Y-22012000I-250000J0D01*
G01*
X83730000Y-22012000D01*
G75*
G02*
X83480000Y-21762000I0J250000D01*
G01*
X83480000Y-20462000D01*
G75*
G02*
X83730000Y-20212000I250000J0D01*
G01*
X84430000Y-20212000D01*
G75*
G02*
X84680000Y-20462000I0J-250000D01*
G01*
G37*
G04 #@! TD.AperFunction*
G04 #@! TA.AperFunction,SMDPad,CuDef*
G36*
G01*
X79080000Y-20462000D02*
X79080000Y-21762000D01*
G75*
G02*
X78830000Y-22012000I-250000J0D01*
G01*
X78130000Y-22012000D01*
G75*
G02*
X77880000Y-21762000I0J250000D01*
G01*
X77880000Y-20462000D01*
G75*
G02*
X78130000Y-20212000I250000J0D01*
G01*
X78830000Y-20212000D01*
G75*
G02*
X79080000Y-20462000I0J-250000D01*
G01*
G37*
G04 #@! TD.AperFunction*
G04 #@! TA.AperFunction,SMDPad,CuDef*
G36*
G01*
X51747000Y-45946000D02*
X52647000Y-45946000D01*
G75*
G02*
X52897000Y-46196000I0J-250000D01*
G01*
X52897000Y-46721000D01*
G75*
G02*
X52647000Y-46971000I-250000J0D01*
G01*
X51747000Y-46971000D01*
G75*
G02*
X51497000Y-46721000I0J250000D01*
G01*
X51497000Y-46196000D01*
G75*
G02*
X51747000Y-45946000I250000J0D01*
G01*
G37*
G04 #@! TD.AperFunction*
G04 #@! TA.AperFunction,SMDPad,CuDef*
G36*
G01*
X51747000Y-47771000D02*
X52647000Y-47771000D01*
G75*
G02*
X52897000Y-48021000I0J-250000D01*
G01*
X52897000Y-48546000D01*
G75*
G02*
X52647000Y-48796000I-250000J0D01*
G01*
X51747000Y-48796000D01*
G75*
G02*
X51497000Y-48546000I0J250000D01*
G01*
X51497000Y-48021000D01*
G75*
G02*
X51747000Y-47771000I250000J0D01*
G01*
G37*
G04 #@! TD.AperFunction*
G04 #@! TA.AperFunction,SMDPad,CuDef*
G36*
G01*
X77147000Y-42009000D02*
X78047000Y-42009000D01*
G75*
G02*
X78297000Y-42259000I0J-250000D01*
G01*
X78297000Y-42784000D01*
G75*
G02*
X78047000Y-43034000I-250000J0D01*
G01*
X77147000Y-43034000D01*
G75*
G02*
X76897000Y-42784000I0J250000D01*
G01*
X76897000Y-42259000D01*
G75*
G02*
X77147000Y-42009000I250000J0D01*
G01*
G37*
G04 #@! TD.AperFunction*
G04 #@! TA.AperFunction,SMDPad,CuDef*
G36*
G01*
X77147000Y-43834000D02*
X78047000Y-43834000D01*
G75*
G02*
X78297000Y-44084000I0J-250000D01*
G01*
X78297000Y-44609000D01*
G75*
G02*
X78047000Y-44859000I-250000J0D01*
G01*
X77147000Y-44859000D01*
G75*
G02*
X76897000Y-44609000I0J250000D01*
G01*
X76897000Y-44084000D01*
G75*
G02*
X77147000Y-43834000I250000J0D01*
G01*
G37*
G04 #@! TD.AperFunction*
X29718000Y-78232000D03*
G04 #@! TA.AperFunction,SMDPad,CuDef*
G36*
G01*
X39346000Y-40221000D02*
X39346000Y-39921000D01*
G75*
G02*
X39496000Y-39771000I150000J0D01*
G01*
X40671000Y-39771000D01*
G75*
G02*
X40821000Y-39921000I0J-150000D01*
G01*
X40821000Y-40221000D01*
G75*
G02*
X40671000Y-40371000I-150000J0D01*
G01*
X39496000Y-40371000D01*
G75*
G02*
X39346000Y-40221000I0J150000D01*
G01*
G37*
G04 #@! TD.AperFunction*
G04 #@! TA.AperFunction,SMDPad,CuDef*
G36*
G01*
X39346000Y-42121000D02*
X39346000Y-41821000D01*
G75*
G02*
X39496000Y-41671000I150000J0D01*
G01*
X40671000Y-41671000D01*
G75*
G02*
X40821000Y-41821000I0J-150000D01*
G01*
X40821000Y-42121000D01*
G75*
G02*
X40671000Y-42271000I-150000J0D01*
G01*
X39496000Y-42271000D01*
G75*
G02*
X39346000Y-42121000I0J150000D01*
G01*
G37*
G04 #@! TD.AperFunction*
G04 #@! TA.AperFunction,SMDPad,CuDef*
G36*
G01*
X41221000Y-41171000D02*
X41221000Y-40871000D01*
G75*
G02*
X41371000Y-40721000I150000J0D01*
G01*
X42546000Y-40721000D01*
G75*
G02*
X42696000Y-40871000I0J-150000D01*
G01*
X42696000Y-41171000D01*
G75*
G02*
X42546000Y-41321000I-150000J0D01*
G01*
X41371000Y-41321000D01*
G75*
G02*
X41221000Y-41171000I0J150000D01*
G01*
G37*
G04 #@! TD.AperFunction*
G04 #@! TA.AperFunction,SMDPad,CuDef*
G36*
G01*
X74353000Y-36675000D02*
X75253000Y-36675000D01*
G75*
G02*
X75503000Y-36925000I0J-250000D01*
G01*
X75503000Y-37450000D01*
G75*
G02*
X75253000Y-37700000I-250000J0D01*
G01*
X74353000Y-37700000D01*
G75*
G02*
X74103000Y-37450000I0J250000D01*
G01*
X74103000Y-36925000D01*
G75*
G02*
X74353000Y-36675000I250000J0D01*
G01*
G37*
G04 #@! TD.AperFunction*
G04 #@! TA.AperFunction,SMDPad,CuDef*
G36*
G01*
X74353000Y-38500000D02*
X75253000Y-38500000D01*
G75*
G02*
X75503000Y-38750000I0J-250000D01*
G01*
X75503000Y-39275000D01*
G75*
G02*
X75253000Y-39525000I-250000J0D01*
G01*
X74353000Y-39525000D01*
G75*
G02*
X74103000Y-39275000I0J250000D01*
G01*
X74103000Y-38750000D01*
G75*
G02*
X74353000Y-38500000I250000J0D01*
G01*
G37*
G04 #@! TD.AperFunction*
X97282000Y-78232000D03*
G04 #@! TA.AperFunction,SMDPad,CuDef*
G36*
G01*
X70380000Y-24362000D02*
X70380000Y-25612000D01*
G75*
G02*
X70230000Y-25762000I-150000J0D01*
G01*
X69930000Y-25762000D01*
G75*
G02*
X69780000Y-25612000I0J150000D01*
G01*
X69780000Y-24362000D01*
G75*
G02*
X69930000Y-24212000I150000J0D01*
G01*
X70230000Y-24212000D01*
G75*
G02*
X70380000Y-24362000I0J-150000D01*
G01*
G37*
G04 #@! TD.AperFunction*
G04 #@! TA.AperFunction,SMDPad,CuDef*
G36*
G01*
X69380000Y-24362000D02*
X69380000Y-25612000D01*
G75*
G02*
X69230000Y-25762000I-150000J0D01*
G01*
X68930000Y-25762000D01*
G75*
G02*
X68780000Y-25612000I0J150000D01*
G01*
X68780000Y-24362000D01*
G75*
G02*
X68930000Y-24212000I150000J0D01*
G01*
X69230000Y-24212000D01*
G75*
G02*
X69380000Y-24362000I0J-150000D01*
G01*
G37*
G04 #@! TD.AperFunction*
G04 #@! TA.AperFunction,SMDPad,CuDef*
G36*
G01*
X68380000Y-24362000D02*
X68380000Y-25612000D01*
G75*
G02*
X68230000Y-25762000I-150000J0D01*
G01*
X67930000Y-25762000D01*
G75*
G02*
X67780000Y-25612000I0J150000D01*
G01*
X67780000Y-24362000D01*
G75*
G02*
X67930000Y-24212000I150000J0D01*
G01*
X68230000Y-24212000D01*
G75*
G02*
X68380000Y-24362000I0J-150000D01*
G01*
G37*
G04 #@! TD.AperFunction*
G04 #@! TA.AperFunction,SMDPad,CuDef*
G36*
G01*
X67380000Y-24362000D02*
X67380000Y-25612000D01*
G75*
G02*
X67230000Y-25762000I-150000J0D01*
G01*
X66930000Y-25762000D01*
G75*
G02*
X66780000Y-25612000I0J150000D01*
G01*
X66780000Y-24362000D01*
G75*
G02*
X66930000Y-24212000I150000J0D01*
G01*
X67230000Y-24212000D01*
G75*
G02*
X67380000Y-24362000I0J-150000D01*
G01*
G37*
G04 #@! TD.AperFunction*
G04 #@! TA.AperFunction,SMDPad,CuDef*
G36*
G01*
X71980000Y-20462000D02*
X71980000Y-21762000D01*
G75*
G02*
X71730000Y-22012000I-250000J0D01*
G01*
X71030000Y-22012000D01*
G75*
G02*
X70780000Y-21762000I0J250000D01*
G01*
X70780000Y-20462000D01*
G75*
G02*
X71030000Y-20212000I250000J0D01*
G01*
X71730000Y-20212000D01*
G75*
G02*
X71980000Y-20462000I0J-250000D01*
G01*
G37*
G04 #@! TD.AperFunction*
G04 #@! TA.AperFunction,SMDPad,CuDef*
G36*
G01*
X66380000Y-20462000D02*
X66380000Y-21762000D01*
G75*
G02*
X66130000Y-22012000I-250000J0D01*
G01*
X65430000Y-22012000D01*
G75*
G02*
X65180000Y-21762000I0J250000D01*
G01*
X65180000Y-20462000D01*
G75*
G02*
X65430000Y-20212000I250000J0D01*
G01*
X66130000Y-20212000D01*
G75*
G02*
X66380000Y-20462000I0J-250000D01*
G01*
G37*
G04 #@! TD.AperFunction*
G04 #@! TA.AperFunction,SMDPad,CuDef*
G36*
G01*
X57680000Y-24362000D02*
X57680000Y-25612000D01*
G75*
G02*
X57530000Y-25762000I-150000J0D01*
G01*
X57230000Y-25762000D01*
G75*
G02*
X57080000Y-25612000I0J150000D01*
G01*
X57080000Y-24362000D01*
G75*
G02*
X57230000Y-24212000I150000J0D01*
G01*
X57530000Y-24212000D01*
G75*
G02*
X57680000Y-24362000I0J-150000D01*
G01*
G37*
G04 #@! TD.AperFunction*
G04 #@! TA.AperFunction,SMDPad,CuDef*
G36*
G01*
X56680000Y-24362000D02*
X56680000Y-25612000D01*
G75*
G02*
X56530000Y-25762000I-150000J0D01*
G01*
X56230000Y-25762000D01*
G75*
G02*
X56080000Y-25612000I0J150000D01*
G01*
X56080000Y-24362000D01*
G75*
G02*
X56230000Y-24212000I150000J0D01*
G01*
X56530000Y-24212000D01*
G75*
G02*
X56680000Y-24362000I0J-150000D01*
G01*
G37*
G04 #@! TD.AperFunction*
G04 #@! TA.AperFunction,SMDPad,CuDef*
G36*
G01*
X55680000Y-24362000D02*
X55680000Y-25612000D01*
G75*
G02*
X55530000Y-25762000I-150000J0D01*
G01*
X55230000Y-25762000D01*
G75*
G02*
X55080000Y-25612000I0J150000D01*
G01*
X55080000Y-24362000D01*
G75*
G02*
X55230000Y-24212000I150000J0D01*
G01*
X55530000Y-24212000D01*
G75*
G02*
X55680000Y-24362000I0J-150000D01*
G01*
G37*
G04 #@! TD.AperFunction*
G04 #@! TA.AperFunction,SMDPad,CuDef*
G36*
G01*
X54680000Y-24362000D02*
X54680000Y-25612000D01*
G75*
G02*
X54530000Y-25762000I-150000J0D01*
G01*
X54230000Y-25762000D01*
G75*
G02*
X54080000Y-25612000I0J150000D01*
G01*
X54080000Y-24362000D01*
G75*
G02*
X54230000Y-24212000I150000J0D01*
G01*
X54530000Y-24212000D01*
G75*
G02*
X54680000Y-24362000I0J-150000D01*
G01*
G37*
G04 #@! TD.AperFunction*
G04 #@! TA.AperFunction,SMDPad,CuDef*
G36*
G01*
X59280000Y-20462000D02*
X59280000Y-21762000D01*
G75*
G02*
X59030000Y-22012000I-250000J0D01*
G01*
X58330000Y-22012000D01*
G75*
G02*
X58080000Y-21762000I0J250000D01*
G01*
X58080000Y-20462000D01*
G75*
G02*
X58330000Y-20212000I250000J0D01*
G01*
X59030000Y-20212000D01*
G75*
G02*
X59280000Y-20462000I0J-250000D01*
G01*
G37*
G04 #@! TD.AperFunction*
G04 #@! TA.AperFunction,SMDPad,CuDef*
G36*
G01*
X53680000Y-20462000D02*
X53680000Y-21762000D01*
G75*
G02*
X53430000Y-22012000I-250000J0D01*
G01*
X52730000Y-22012000D01*
G75*
G02*
X52480000Y-21762000I0J250000D01*
G01*
X52480000Y-20462000D01*
G75*
G02*
X52730000Y-20212000I250000J0D01*
G01*
X53430000Y-20212000D01*
G75*
G02*
X53680000Y-20462000I0J-250000D01*
G01*
G37*
G04 #@! TD.AperFunction*
G04 #@! TA.AperFunction,SMDPad,CuDef*
G36*
G01*
X67125000Y-64925000D02*
X66225000Y-64925000D01*
G75*
G02*
X65975000Y-64675000I0J250000D01*
G01*
X65975000Y-64150000D01*
G75*
G02*
X66225000Y-63900000I250000J0D01*
G01*
X67125000Y-63900000D01*
G75*
G02*
X67375000Y-64150000I0J-250000D01*
G01*
X67375000Y-64675000D01*
G75*
G02*
X67125000Y-64925000I-250000J0D01*
G01*
G37*
G04 #@! TD.AperFunction*
G04 #@! TA.AperFunction,SMDPad,CuDef*
G36*
G01*
X67125000Y-63100000D02*
X66225000Y-63100000D01*
G75*
G02*
X65975000Y-62850000I0J250000D01*
G01*
X65975000Y-62325000D01*
G75*
G02*
X66225000Y-62075000I250000J0D01*
G01*
X67125000Y-62075000D01*
G75*
G02*
X67375000Y-62325000I0J-250000D01*
G01*
X67375000Y-62850000D01*
G75*
G02*
X67125000Y-63100000I-250000J0D01*
G01*
G37*
G04 #@! TD.AperFunction*
G04 #@! TA.AperFunction,SMDPad,CuDef*
G36*
G01*
X54080000Y-77238000D02*
X54080000Y-75988000D01*
G75*
G02*
X54230000Y-75838000I150000J0D01*
G01*
X54530000Y-75838000D01*
G75*
G02*
X54680000Y-75988000I0J-150000D01*
G01*
X54680000Y-77238000D01*
G75*
G02*
X54530000Y-77388000I-150000J0D01*
G01*
X54230000Y-77388000D01*
G75*
G02*
X54080000Y-77238000I0J150000D01*
G01*
G37*
G04 #@! TD.AperFunction*
G04 #@! TA.AperFunction,SMDPad,CuDef*
G36*
G01*
X55080000Y-77238000D02*
X55080000Y-75988000D01*
G75*
G02*
X55230000Y-75838000I150000J0D01*
G01*
X55530000Y-75838000D01*
G75*
G02*
X55680000Y-75988000I0J-150000D01*
G01*
X55680000Y-77238000D01*
G75*
G02*
X55530000Y-77388000I-150000J0D01*
G01*
X55230000Y-77388000D01*
G75*
G02*
X55080000Y-77238000I0J150000D01*
G01*
G37*
G04 #@! TD.AperFunction*
G04 #@! TA.AperFunction,SMDPad,CuDef*
G36*
G01*
X56080000Y-77238000D02*
X56080000Y-75988000D01*
G75*
G02*
X56230000Y-75838000I150000J0D01*
G01*
X56530000Y-75838000D01*
G75*
G02*
X56680000Y-75988000I0J-150000D01*
G01*
X56680000Y-77238000D01*
G75*
G02*
X56530000Y-77388000I-150000J0D01*
G01*
X56230000Y-77388000D01*
G75*
G02*
X56080000Y-77238000I0J150000D01*
G01*
G37*
G04 #@! TD.AperFunction*
G04 #@! TA.AperFunction,SMDPad,CuDef*
G36*
G01*
X57080000Y-77238000D02*
X57080000Y-75988000D01*
G75*
G02*
X57230000Y-75838000I150000J0D01*
G01*
X57530000Y-75838000D01*
G75*
G02*
X57680000Y-75988000I0J-150000D01*
G01*
X57680000Y-77238000D01*
G75*
G02*
X57530000Y-77388000I-150000J0D01*
G01*
X57230000Y-77388000D01*
G75*
G02*
X57080000Y-77238000I0J150000D01*
G01*
G37*
G04 #@! TD.AperFunction*
G04 #@! TA.AperFunction,SMDPad,CuDef*
G36*
G01*
X58080000Y-81138000D02*
X58080000Y-79838000D01*
G75*
G02*
X58330000Y-79588000I250000J0D01*
G01*
X59030000Y-79588000D01*
G75*
G02*
X59280000Y-79838000I0J-250000D01*
G01*
X59280000Y-81138000D01*
G75*
G02*
X59030000Y-81388000I-250000J0D01*
G01*
X58330000Y-81388000D01*
G75*
G02*
X58080000Y-81138000I0J250000D01*
G01*
G37*
G04 #@! TD.AperFunction*
G04 #@! TA.AperFunction,SMDPad,CuDef*
G36*
G01*
X52480000Y-81138000D02*
X52480000Y-79838000D01*
G75*
G02*
X52730000Y-79588000I250000J0D01*
G01*
X53430000Y-79588000D01*
G75*
G02*
X53680000Y-79838000I0J-250000D01*
G01*
X53680000Y-81138000D01*
G75*
G02*
X53430000Y-81388000I-250000J0D01*
G01*
X52730000Y-81388000D01*
G75*
G02*
X52480000Y-81138000I0J250000D01*
G01*
G37*
G04 #@! TD.AperFunction*
G04 #@! TA.AperFunction,SMDPad,CuDef*
G36*
G01*
X76040000Y-54917000D02*
X75090000Y-54917000D01*
G75*
G02*
X74840000Y-54667000I0J250000D01*
G01*
X74840000Y-54167000D01*
G75*
G02*
X75090000Y-53917000I250000J0D01*
G01*
X76040000Y-53917000D01*
G75*
G02*
X76290000Y-54167000I0J-250000D01*
G01*
X76290000Y-54667000D01*
G75*
G02*
X76040000Y-54917000I-250000J0D01*
G01*
G37*
G04 #@! TD.AperFunction*
G04 #@! TA.AperFunction,SMDPad,CuDef*
G36*
G01*
X76040000Y-53017000D02*
X75090000Y-53017000D01*
G75*
G02*
X74840000Y-52767000I0J250000D01*
G01*
X74840000Y-52267000D01*
G75*
G02*
X75090000Y-52017000I250000J0D01*
G01*
X76040000Y-52017000D01*
G75*
G02*
X76290000Y-52267000I0J-250000D01*
G01*
X76290000Y-52767000D01*
G75*
G02*
X76040000Y-53017000I-250000J0D01*
G01*
G37*
G04 #@! TD.AperFunction*
G04 #@! TA.AperFunction,SMDPad,CuDef*
G36*
G01*
X77376000Y-62050000D02*
X78326000Y-62050000D01*
G75*
G02*
X78576000Y-62300000I0J-250000D01*
G01*
X78576000Y-62800000D01*
G75*
G02*
X78326000Y-63050000I-250000J0D01*
G01*
X77376000Y-63050000D01*
G75*
G02*
X77126000Y-62800000I0J250000D01*
G01*
X77126000Y-62300000D01*
G75*
G02*
X77376000Y-62050000I250000J0D01*
G01*
G37*
G04 #@! TD.AperFunction*
G04 #@! TA.AperFunction,SMDPad,CuDef*
G36*
G01*
X77376000Y-63950000D02*
X78326000Y-63950000D01*
G75*
G02*
X78576000Y-64200000I0J-250000D01*
G01*
X78576000Y-64700000D01*
G75*
G02*
X78326000Y-64950000I-250000J0D01*
G01*
X77376000Y-64950000D01*
G75*
G02*
X77126000Y-64700000I0J250000D01*
G01*
X77126000Y-64200000D01*
G75*
G02*
X77376000Y-63950000I250000J0D01*
G01*
G37*
G04 #@! TD.AperFunction*
G04 #@! TA.AperFunction,SMDPad,CuDef*
G36*
G01*
X66780000Y-77238000D02*
X66780000Y-75988000D01*
G75*
G02*
X66930000Y-75838000I150000J0D01*
G01*
X67230000Y-75838000D01*
G75*
G02*
X67380000Y-75988000I0J-150000D01*
G01*
X67380000Y-77238000D01*
G75*
G02*
X67230000Y-77388000I-150000J0D01*
G01*
X66930000Y-77388000D01*
G75*
G02*
X66780000Y-77238000I0J150000D01*
G01*
G37*
G04 #@! TD.AperFunction*
G04 #@! TA.AperFunction,SMDPad,CuDef*
G36*
G01*
X67780000Y-77238000D02*
X67780000Y-75988000D01*
G75*
G02*
X67930000Y-75838000I150000J0D01*
G01*
X68230000Y-75838000D01*
G75*
G02*
X68380000Y-75988000I0J-150000D01*
G01*
X68380000Y-77238000D01*
G75*
G02*
X68230000Y-77388000I-150000J0D01*
G01*
X67930000Y-77388000D01*
G75*
G02*
X67780000Y-77238000I0J150000D01*
G01*
G37*
G04 #@! TD.AperFunction*
G04 #@! TA.AperFunction,SMDPad,CuDef*
G36*
G01*
X68780000Y-77238000D02*
X68780000Y-75988000D01*
G75*
G02*
X68930000Y-75838000I150000J0D01*
G01*
X69230000Y-75838000D01*
G75*
G02*
X69380000Y-75988000I0J-150000D01*
G01*
X69380000Y-77238000D01*
G75*
G02*
X69230000Y-77388000I-150000J0D01*
G01*
X68930000Y-77388000D01*
G75*
G02*
X68780000Y-77238000I0J150000D01*
G01*
G37*
G04 #@! TD.AperFunction*
G04 #@! TA.AperFunction,SMDPad,CuDef*
G36*
G01*
X69780000Y-77238000D02*
X69780000Y-75988000D01*
G75*
G02*
X69930000Y-75838000I150000J0D01*
G01*
X70230000Y-75838000D01*
G75*
G02*
X70380000Y-75988000I0J-150000D01*
G01*
X70380000Y-77238000D01*
G75*
G02*
X70230000Y-77388000I-150000J0D01*
G01*
X69930000Y-77388000D01*
G75*
G02*
X69780000Y-77238000I0J150000D01*
G01*
G37*
G04 #@! TD.AperFunction*
G04 #@! TA.AperFunction,SMDPad,CuDef*
G36*
G01*
X70780000Y-81138000D02*
X70780000Y-79838000D01*
G75*
G02*
X71030000Y-79588000I250000J0D01*
G01*
X71730000Y-79588000D01*
G75*
G02*
X71980000Y-79838000I0J-250000D01*
G01*
X71980000Y-81138000D01*
G75*
G02*
X71730000Y-81388000I-250000J0D01*
G01*
X71030000Y-81388000D01*
G75*
G02*
X70780000Y-81138000I0J250000D01*
G01*
G37*
G04 #@! TD.AperFunction*
G04 #@! TA.AperFunction,SMDPad,CuDef*
G36*
G01*
X65180000Y-81138000D02*
X65180000Y-79838000D01*
G75*
G02*
X65430000Y-79588000I250000J0D01*
G01*
X66130000Y-79588000D01*
G75*
G02*
X66380000Y-79838000I0J-250000D01*
G01*
X66380000Y-81138000D01*
G75*
G02*
X66130000Y-81388000I-250000J0D01*
G01*
X65430000Y-81388000D01*
G75*
G02*
X65180000Y-81138000I0J250000D01*
G01*
G37*
G04 #@! TD.AperFunction*
G04 #@! TA.AperFunction,SMDPad,CuDef*
G36*
G01*
X40607000Y-48882000D02*
X39657000Y-48882000D01*
G75*
G02*
X39407000Y-48632000I0J250000D01*
G01*
X39407000Y-48132000D01*
G75*
G02*
X39657000Y-47882000I250000J0D01*
G01*
X40607000Y-47882000D01*
G75*
G02*
X40857000Y-48132000I0J-250000D01*
G01*
X40857000Y-48632000D01*
G75*
G02*
X40607000Y-48882000I-250000J0D01*
G01*
G37*
G04 #@! TD.AperFunction*
G04 #@! TA.AperFunction,SMDPad,CuDef*
G36*
G01*
X40607000Y-46982000D02*
X39657000Y-46982000D01*
G75*
G02*
X39407000Y-46732000I0J250000D01*
G01*
X39407000Y-46232000D01*
G75*
G02*
X39657000Y-45982000I250000J0D01*
G01*
X40607000Y-45982000D01*
G75*
G02*
X40857000Y-46232000I0J-250000D01*
G01*
X40857000Y-46732000D01*
G75*
G02*
X40607000Y-46982000I-250000J0D01*
G01*
G37*
G04 #@! TD.AperFunction*
G04 #@! TA.AperFunction,SMDPad,CuDef*
G36*
G01*
X89858000Y-43208000D02*
X88958000Y-43208000D01*
G75*
G02*
X88708000Y-42958000I0J250000D01*
G01*
X88708000Y-42433000D01*
G75*
G02*
X88958000Y-42183000I250000J0D01*
G01*
X89858000Y-42183000D01*
G75*
G02*
X90108000Y-42433000I0J-250000D01*
G01*
X90108000Y-42958000D01*
G75*
G02*
X89858000Y-43208000I-250000J0D01*
G01*
G37*
G04 #@! TD.AperFunction*
G04 #@! TA.AperFunction,SMDPad,CuDef*
G36*
G01*
X89858000Y-41383000D02*
X88958000Y-41383000D01*
G75*
G02*
X88708000Y-41133000I0J250000D01*
G01*
X88708000Y-40608000D01*
G75*
G02*
X88958000Y-40358000I250000J0D01*
G01*
X89858000Y-40358000D01*
G75*
G02*
X90108000Y-40608000I0J-250000D01*
G01*
X90108000Y-41133000D01*
G75*
G02*
X89858000Y-41383000I-250000J0D01*
G01*
G37*
G04 #@! TD.AperFunction*
G04 #@! TA.AperFunction,SMDPad,CuDef*
G36*
G01*
X79480000Y-77238000D02*
X79480000Y-75988000D01*
G75*
G02*
X79630000Y-75838000I150000J0D01*
G01*
X79930000Y-75838000D01*
G75*
G02*
X80080000Y-75988000I0J-150000D01*
G01*
X80080000Y-77238000D01*
G75*
G02*
X79930000Y-77388000I-150000J0D01*
G01*
X79630000Y-77388000D01*
G75*
G02*
X79480000Y-77238000I0J150000D01*
G01*
G37*
G04 #@! TD.AperFunction*
G04 #@! TA.AperFunction,SMDPad,CuDef*
G36*
G01*
X80480000Y-77238000D02*
X80480000Y-75988000D01*
G75*
G02*
X80630000Y-75838000I150000J0D01*
G01*
X80930000Y-75838000D01*
G75*
G02*
X81080000Y-75988000I0J-150000D01*
G01*
X81080000Y-77238000D01*
G75*
G02*
X80930000Y-77388000I-150000J0D01*
G01*
X80630000Y-77388000D01*
G75*
G02*
X80480000Y-77238000I0J150000D01*
G01*
G37*
G04 #@! TD.AperFunction*
G04 #@! TA.AperFunction,SMDPad,CuDef*
G36*
G01*
X81480000Y-77238000D02*
X81480000Y-75988000D01*
G75*
G02*
X81630000Y-75838000I150000J0D01*
G01*
X81930000Y-75838000D01*
G75*
G02*
X82080000Y-75988000I0J-150000D01*
G01*
X82080000Y-77238000D01*
G75*
G02*
X81930000Y-77388000I-150000J0D01*
G01*
X81630000Y-77388000D01*
G75*
G02*
X81480000Y-77238000I0J150000D01*
G01*
G37*
G04 #@! TD.AperFunction*
G04 #@! TA.AperFunction,SMDPad,CuDef*
G36*
G01*
X82480000Y-77238000D02*
X82480000Y-75988000D01*
G75*
G02*
X82630000Y-75838000I150000J0D01*
G01*
X82930000Y-75838000D01*
G75*
G02*
X83080000Y-75988000I0J-150000D01*
G01*
X83080000Y-77238000D01*
G75*
G02*
X82930000Y-77388000I-150000J0D01*
G01*
X82630000Y-77388000D01*
G75*
G02*
X82480000Y-77238000I0J150000D01*
G01*
G37*
G04 #@! TD.AperFunction*
G04 #@! TA.AperFunction,SMDPad,CuDef*
G36*
G01*
X83480000Y-81138000D02*
X83480000Y-79838000D01*
G75*
G02*
X83730000Y-79588000I250000J0D01*
G01*
X84430000Y-79588000D01*
G75*
G02*
X84680000Y-79838000I0J-250000D01*
G01*
X84680000Y-81138000D01*
G75*
G02*
X84430000Y-81388000I-250000J0D01*
G01*
X83730000Y-81388000D01*
G75*
G02*
X83480000Y-81138000I0J250000D01*
G01*
G37*
G04 #@! TD.AperFunction*
G04 #@! TA.AperFunction,SMDPad,CuDef*
G36*
G01*
X77880000Y-81138000D02*
X77880000Y-79838000D01*
G75*
G02*
X78130000Y-79588000I250000J0D01*
G01*
X78830000Y-79588000D01*
G75*
G02*
X79080000Y-79838000I0J-250000D01*
G01*
X79080000Y-81138000D01*
G75*
G02*
X78830000Y-81388000I-250000J0D01*
G01*
X78130000Y-81388000D01*
G75*
G02*
X77880000Y-81138000I0J250000D01*
G01*
G37*
G04 #@! TD.AperFunction*
G04 #@! TA.AperFunction,SMDPad,CuDef*
G36*
G01*
X86816250Y-43208000D02*
X85903750Y-43208000D01*
G75*
G02*
X85660000Y-42964250I0J243750D01*
G01*
X85660000Y-42476750D01*
G75*
G02*
X85903750Y-42233000I243750J0D01*
G01*
X86816250Y-42233000D01*
G75*
G02*
X87060000Y-42476750I0J-243750D01*
G01*
X87060000Y-42964250D01*
G75*
G02*
X86816250Y-43208000I-243750J0D01*
G01*
G37*
G04 #@! TD.AperFunction*
G04 #@! TA.AperFunction,SMDPad,CuDef*
G36*
G01*
X86816250Y-41333000D02*
X85903750Y-41333000D01*
G75*
G02*
X85660000Y-41089250I0J243750D01*
G01*
X85660000Y-40601750D01*
G75*
G02*
X85903750Y-40358000I243750J0D01*
G01*
X86816250Y-40358000D01*
G75*
G02*
X87060000Y-40601750I0J-243750D01*
G01*
X87060000Y-41089250D01*
G75*
G02*
X86816250Y-41333000I-243750J0D01*
G01*
G37*
G04 #@! TD.AperFunction*
G04 #@! TA.AperFunction,SMDPad,CuDef*
G36*
G01*
X74582000Y-62050000D02*
X75532000Y-62050000D01*
G75*
G02*
X75782000Y-62300000I0J-250000D01*
G01*
X75782000Y-62800000D01*
G75*
G02*
X75532000Y-63050000I-250000J0D01*
G01*
X74582000Y-63050000D01*
G75*
G02*
X74332000Y-62800000I0J250000D01*
G01*
X74332000Y-62300000D01*
G75*
G02*
X74582000Y-62050000I250000J0D01*
G01*
G37*
G04 #@! TD.AperFunction*
G04 #@! TA.AperFunction,SMDPad,CuDef*
G36*
G01*
X74582000Y-63950000D02*
X75532000Y-63950000D01*
G75*
G02*
X75782000Y-64200000I0J-250000D01*
G01*
X75782000Y-64700000D01*
G75*
G02*
X75532000Y-64950000I-250000J0D01*
G01*
X74582000Y-64950000D01*
G75*
G02*
X74332000Y-64700000I0J250000D01*
G01*
X74332000Y-64200000D01*
G75*
G02*
X74582000Y-63950000I250000J0D01*
G01*
G37*
G04 #@! TD.AperFunction*
G04 #@! TA.AperFunction,SMDPad,CuDef*
G36*
G01*
X48613000Y-44017250D02*
X48613000Y-43104750D01*
G75*
G02*
X48856750Y-42861000I243750J0D01*
G01*
X49344250Y-42861000D01*
G75*
G02*
X49588000Y-43104750I0J-243750D01*
G01*
X49588000Y-44017250D01*
G75*
G02*
X49344250Y-44261000I-243750J0D01*
G01*
X48856750Y-44261000D01*
G75*
G02*
X48613000Y-44017250I0J243750D01*
G01*
G37*
G04 #@! TD.AperFunction*
G04 #@! TA.AperFunction,SMDPad,CuDef*
G36*
G01*
X50488000Y-44017250D02*
X50488000Y-43104750D01*
G75*
G02*
X50731750Y-42861000I243750J0D01*
G01*
X51219250Y-42861000D01*
G75*
G02*
X51463000Y-43104750I0J-243750D01*
G01*
X51463000Y-44017250D01*
G75*
G02*
X51219250Y-44261000I-243750J0D01*
G01*
X50731750Y-44261000D01*
G75*
G02*
X50488000Y-44017250I0J243750D01*
G01*
G37*
G04 #@! TD.AperFunction*
X97282000Y-23368000D03*
D12*
X92316300Y-60071000D03*
X92316300Y-57531000D03*
X92316300Y-54991000D03*
X92316300Y-52451000D03*
X92316300Y-49911000D03*
X83705700Y-49911000D03*
X83705700Y-52451000D03*
X83705700Y-54991000D03*
X83705700Y-57531000D03*
X83705700Y-60071000D03*
G04 #@! TA.AperFunction,SMDPad,CuDef*
G36*
G01*
X92658250Y-43208000D02*
X91745750Y-43208000D01*
G75*
G02*
X91502000Y-42964250I0J243750D01*
G01*
X91502000Y-42476750D01*
G75*
G02*
X91745750Y-42233000I243750J0D01*
G01*
X92658250Y-42233000D01*
G75*
G02*
X92902000Y-42476750I0J-243750D01*
G01*
X92902000Y-42964250D01*
G75*
G02*
X92658250Y-43208000I-243750J0D01*
G01*
G37*
G04 #@! TD.AperFunction*
G04 #@! TA.AperFunction,SMDPad,CuDef*
G36*
G01*
X92658250Y-41333000D02*
X91745750Y-41333000D01*
G75*
G02*
X91502000Y-41089250I0J243750D01*
G01*
X91502000Y-40601750D01*
G75*
G02*
X91745750Y-40358000I243750J0D01*
G01*
X92658250Y-40358000D01*
G75*
G02*
X92902000Y-40601750I0J-243750D01*
G01*
X92902000Y-41089250D01*
G75*
G02*
X92658250Y-41333000I-243750J0D01*
G01*
G37*
G04 #@! TD.AperFunction*
G04 #@! TA.AperFunction,SMDPad,CuDef*
G36*
G01*
X63406000Y-62050000D02*
X64356000Y-62050000D01*
G75*
G02*
X64606000Y-62300000I0J-250000D01*
G01*
X64606000Y-62800000D01*
G75*
G02*
X64356000Y-63050000I-250000J0D01*
G01*
X63406000Y-63050000D01*
G75*
G02*
X63156000Y-62800000I0J250000D01*
G01*
X63156000Y-62300000D01*
G75*
G02*
X63406000Y-62050000I250000J0D01*
G01*
G37*
G04 #@! TD.AperFunction*
G04 #@! TA.AperFunction,SMDPad,CuDef*
G36*
G01*
X63406000Y-63950000D02*
X64356000Y-63950000D01*
G75*
G02*
X64606000Y-64200000I0J-250000D01*
G01*
X64606000Y-64700000D01*
G75*
G02*
X64356000Y-64950000I-250000J0D01*
G01*
X63406000Y-64950000D01*
G75*
G02*
X63156000Y-64700000I0J250000D01*
G01*
X63156000Y-64200000D01*
G75*
G02*
X63406000Y-63950000I250000J0D01*
G01*
G37*
G04 #@! TD.AperFunction*
G04 #@! TA.AperFunction,SMDPad,CuDef*
G36*
G01*
X48613000Y-40715250D02*
X48613000Y-39802750D01*
G75*
G02*
X48856750Y-39559000I243750J0D01*
G01*
X49344250Y-39559000D01*
G75*
G02*
X49588000Y-39802750I0J-243750D01*
G01*
X49588000Y-40715250D01*
G75*
G02*
X49344250Y-40959000I-243750J0D01*
G01*
X48856750Y-40959000D01*
G75*
G02*
X48613000Y-40715250I0J243750D01*
G01*
G37*
G04 #@! TD.AperFunction*
G04 #@! TA.AperFunction,SMDPad,CuDef*
G36*
G01*
X50488000Y-40715250D02*
X50488000Y-39802750D01*
G75*
G02*
X50731750Y-39559000I243750J0D01*
G01*
X51219250Y-39559000D01*
G75*
G02*
X51463000Y-39802750I0J-243750D01*
G01*
X51463000Y-40715250D01*
G75*
G02*
X51219250Y-40959000I-243750J0D01*
G01*
X50731750Y-40959000D01*
G75*
G02*
X50488000Y-40715250I0J243750D01*
G01*
G37*
G04 #@! TD.AperFunction*
G04 #@! TA.AperFunction,SMDPad,CuDef*
G36*
G01*
X30712000Y-56493000D02*
X31962000Y-56493000D01*
G75*
G02*
X32112000Y-56643000I0J-150000D01*
G01*
X32112000Y-56943000D01*
G75*
G02*
X31962000Y-57093000I-150000J0D01*
G01*
X30712000Y-57093000D01*
G75*
G02*
X30562000Y-56943000I0J150000D01*
G01*
X30562000Y-56643000D01*
G75*
G02*
X30712000Y-56493000I150000J0D01*
G01*
G37*
G04 #@! TD.AperFunction*
G04 #@! TA.AperFunction,SMDPad,CuDef*
G36*
G01*
X30712000Y-57493000D02*
X31962000Y-57493000D01*
G75*
G02*
X32112000Y-57643000I0J-150000D01*
G01*
X32112000Y-57943000D01*
G75*
G02*
X31962000Y-58093000I-150000J0D01*
G01*
X30712000Y-58093000D01*
G75*
G02*
X30562000Y-57943000I0J150000D01*
G01*
X30562000Y-57643000D01*
G75*
G02*
X30712000Y-57493000I150000J0D01*
G01*
G37*
G04 #@! TD.AperFunction*
G04 #@! TA.AperFunction,SMDPad,CuDef*
G36*
G01*
X30712000Y-58493000D02*
X31962000Y-58493000D01*
G75*
G02*
X32112000Y-58643000I0J-150000D01*
G01*
X32112000Y-58943000D01*
G75*
G02*
X31962000Y-59093000I-150000J0D01*
G01*
X30712000Y-59093000D01*
G75*
G02*
X30562000Y-58943000I0J150000D01*
G01*
X30562000Y-58643000D01*
G75*
G02*
X30712000Y-58493000I150000J0D01*
G01*
G37*
G04 #@! TD.AperFunction*
G04 #@! TA.AperFunction,SMDPad,CuDef*
G36*
G01*
X30712000Y-59493000D02*
X31962000Y-59493000D01*
G75*
G02*
X32112000Y-59643000I0J-150000D01*
G01*
X32112000Y-59943000D01*
G75*
G02*
X31962000Y-60093000I-150000J0D01*
G01*
X30712000Y-60093000D01*
G75*
G02*
X30562000Y-59943000I0J150000D01*
G01*
X30562000Y-59643000D01*
G75*
G02*
X30712000Y-59493000I150000J0D01*
G01*
G37*
G04 #@! TD.AperFunction*
G04 #@! TA.AperFunction,SMDPad,CuDef*
G36*
G01*
X26812000Y-54893000D02*
X28112000Y-54893000D01*
G75*
G02*
X28362000Y-55143000I0J-250000D01*
G01*
X28362000Y-55843000D01*
G75*
G02*
X28112000Y-56093000I-250000J0D01*
G01*
X26812000Y-56093000D01*
G75*
G02*
X26562000Y-55843000I0J250000D01*
G01*
X26562000Y-55143000D01*
G75*
G02*
X26812000Y-54893000I250000J0D01*
G01*
G37*
G04 #@! TD.AperFunction*
G04 #@! TA.AperFunction,SMDPad,CuDef*
G36*
G01*
X26812000Y-60493000D02*
X28112000Y-60493000D01*
G75*
G02*
X28362000Y-60743000I0J-250000D01*
G01*
X28362000Y-61443000D01*
G75*
G02*
X28112000Y-61693000I-250000J0D01*
G01*
X26812000Y-61693000D01*
G75*
G02*
X26562000Y-61443000I0J250000D01*
G01*
X26562000Y-60743000D01*
G75*
G02*
X26812000Y-60493000I250000J0D01*
G01*
G37*
G04 #@! TD.AperFunction*
G04 #@! TA.AperFunction,SMDPad,CuDef*
G36*
G01*
X72713000Y-64925000D02*
X71813000Y-64925000D01*
G75*
G02*
X71563000Y-64675000I0J250000D01*
G01*
X71563000Y-64150000D01*
G75*
G02*
X71813000Y-63900000I250000J0D01*
G01*
X72713000Y-63900000D01*
G75*
G02*
X72963000Y-64150000I0J-250000D01*
G01*
X72963000Y-64675000D01*
G75*
G02*
X72713000Y-64925000I-250000J0D01*
G01*
G37*
G04 #@! TD.AperFunction*
G04 #@! TA.AperFunction,SMDPad,CuDef*
G36*
G01*
X72713000Y-63100000D02*
X71813000Y-63100000D01*
G75*
G02*
X71563000Y-62850000I0J250000D01*
G01*
X71563000Y-62325000D01*
G75*
G02*
X71813000Y-62075000I250000J0D01*
G01*
X72713000Y-62075000D01*
G75*
G02*
X72963000Y-62325000I0J-250000D01*
G01*
X72963000Y-62850000D01*
G75*
G02*
X72713000Y-63100000I-250000J0D01*
G01*
G37*
G04 #@! TD.AperFunction*
G04 #@! TA.AperFunction,SMDPad,CuDef*
G36*
G01*
X84016000Y-43208000D02*
X83116000Y-43208000D01*
G75*
G02*
X82866000Y-42958000I0J250000D01*
G01*
X82866000Y-42433000D01*
G75*
G02*
X83116000Y-42183000I250000J0D01*
G01*
X84016000Y-42183000D01*
G75*
G02*
X84266000Y-42433000I0J-250000D01*
G01*
X84266000Y-42958000D01*
G75*
G02*
X84016000Y-43208000I-250000J0D01*
G01*
G37*
G04 #@! TD.AperFunction*
G04 #@! TA.AperFunction,SMDPad,CuDef*
G36*
G01*
X84016000Y-41383000D02*
X83116000Y-41383000D01*
G75*
G02*
X82866000Y-41133000I0J250000D01*
G01*
X82866000Y-40608000D01*
G75*
G02*
X83116000Y-40358000I250000J0D01*
G01*
X84016000Y-40358000D01*
G75*
G02*
X84266000Y-40608000I0J-250000D01*
G01*
X84266000Y-41133000D01*
G75*
G02*
X84016000Y-41383000I-250000J0D01*
G01*
G37*
G04 #@! TD.AperFunction*
G04 #@! TA.AperFunction,SMDPad,CuDef*
G36*
G01*
X45281000Y-42319000D02*
X44381000Y-42319000D01*
G75*
G02*
X44131000Y-42069000I0J250000D01*
G01*
X44131000Y-41544000D01*
G75*
G02*
X44381000Y-41294000I250000J0D01*
G01*
X45281000Y-41294000D01*
G75*
G02*
X45531000Y-41544000I0J-250000D01*
G01*
X45531000Y-42069000D01*
G75*
G02*
X45281000Y-42319000I-250000J0D01*
G01*
G37*
G04 #@! TD.AperFunction*
G04 #@! TA.AperFunction,SMDPad,CuDef*
G36*
G01*
X45281000Y-40494000D02*
X44381000Y-40494000D01*
G75*
G02*
X44131000Y-40244000I0J250000D01*
G01*
X44131000Y-39719000D01*
G75*
G02*
X44381000Y-39469000I250000J0D01*
G01*
X45281000Y-39469000D01*
G75*
G02*
X45531000Y-39719000I0J-250000D01*
G01*
X45531000Y-40244000D01*
G75*
G02*
X45281000Y-40494000I-250000J0D01*
G01*
G37*
G04 #@! TD.AperFunction*
G04 #@! TA.AperFunction,SMDPad,CuDef*
G36*
G01*
X75278000Y-44884000D02*
X74328000Y-44884000D01*
G75*
G02*
X74078000Y-44634000I0J250000D01*
G01*
X74078000Y-44134000D01*
G75*
G02*
X74328000Y-43884000I250000J0D01*
G01*
X75278000Y-43884000D01*
G75*
G02*
X75528000Y-44134000I0J-250000D01*
G01*
X75528000Y-44634000D01*
G75*
G02*
X75278000Y-44884000I-250000J0D01*
G01*
G37*
G04 #@! TD.AperFunction*
G04 #@! TA.AperFunction,SMDPad,CuDef*
G36*
G01*
X75278000Y-42984000D02*
X74328000Y-42984000D01*
G75*
G02*
X74078000Y-42734000I0J250000D01*
G01*
X74078000Y-42234000D01*
G75*
G02*
X74328000Y-41984000I250000J0D01*
G01*
X75278000Y-41984000D01*
G75*
G02*
X75528000Y-42234000I0J-250000D01*
G01*
X75528000Y-42734000D01*
G75*
G02*
X75278000Y-42984000I-250000J0D01*
G01*
G37*
G04 #@! TD.AperFunction*
G04 #@! TA.AperFunction,SMDPad,CuDef*
G36*
G01*
X61000000Y-47521000D02*
X61000000Y-47221000D01*
G75*
G02*
X61150000Y-47071000I150000J0D01*
G01*
X62900000Y-47071000D01*
G75*
G02*
X63050000Y-47221000I0J-150000D01*
G01*
X63050000Y-47521000D01*
G75*
G02*
X62900000Y-47671000I-150000J0D01*
G01*
X61150000Y-47671000D01*
G75*
G02*
X61000000Y-47521000I0J150000D01*
G01*
G37*
G04 #@! TD.AperFunction*
G04 #@! TA.AperFunction,SMDPad,CuDef*
G36*
G01*
X61000000Y-48791000D02*
X61000000Y-48491000D01*
G75*
G02*
X61150000Y-48341000I150000J0D01*
G01*
X62900000Y-48341000D01*
G75*
G02*
X63050000Y-48491000I0J-150000D01*
G01*
X63050000Y-48791000D01*
G75*
G02*
X62900000Y-48941000I-150000J0D01*
G01*
X61150000Y-48941000D01*
G75*
G02*
X61000000Y-48791000I0J150000D01*
G01*
G37*
G04 #@! TD.AperFunction*
G04 #@! TA.AperFunction,SMDPad,CuDef*
G36*
G01*
X61000000Y-50061000D02*
X61000000Y-49761000D01*
G75*
G02*
X61150000Y-49611000I150000J0D01*
G01*
X62900000Y-49611000D01*
G75*
G02*
X63050000Y-49761000I0J-150000D01*
G01*
X63050000Y-50061000D01*
G75*
G02*
X62900000Y-50211000I-150000J0D01*
G01*
X61150000Y-50211000D01*
G75*
G02*
X61000000Y-50061000I0J150000D01*
G01*
G37*
G04 #@! TD.AperFunction*
G04 #@! TA.AperFunction,SMDPad,CuDef*
G36*
G01*
X61000000Y-51331000D02*
X61000000Y-51031000D01*
G75*
G02*
X61150000Y-50881000I150000J0D01*
G01*
X62900000Y-50881000D01*
G75*
G02*
X63050000Y-51031000I0J-150000D01*
G01*
X63050000Y-51331000D01*
G75*
G02*
X62900000Y-51481000I-150000J0D01*
G01*
X61150000Y-51481000D01*
G75*
G02*
X61000000Y-51331000I0J150000D01*
G01*
G37*
G04 #@! TD.AperFunction*
G04 #@! TA.AperFunction,SMDPad,CuDef*
G36*
G01*
X61000000Y-52601000D02*
X61000000Y-52301000D01*
G75*
G02*
X61150000Y-52151000I150000J0D01*
G01*
X62900000Y-52151000D01*
G75*
G02*
X63050000Y-52301000I0J-150000D01*
G01*
X63050000Y-52601000D01*
G75*
G02*
X62900000Y-52751000I-150000J0D01*
G01*
X61150000Y-52751000D01*
G75*
G02*
X61000000Y-52601000I0J150000D01*
G01*
G37*
G04 #@! TD.AperFunction*
G04 #@! TA.AperFunction,SMDPad,CuDef*
G36*
G01*
X61000000Y-53871000D02*
X61000000Y-53571000D01*
G75*
G02*
X61150000Y-53421000I150000J0D01*
G01*
X62900000Y-53421000D01*
G75*
G02*
X63050000Y-53571000I0J-150000D01*
G01*
X63050000Y-53871000D01*
G75*
G02*
X62900000Y-54021000I-150000J0D01*
G01*
X61150000Y-54021000D01*
G75*
G02*
X61000000Y-53871000I0J150000D01*
G01*
G37*
G04 #@! TD.AperFunction*
G04 #@! TA.AperFunction,SMDPad,CuDef*
G36*
G01*
X61000000Y-55141000D02*
X61000000Y-54841000D01*
G75*
G02*
X61150000Y-54691000I150000J0D01*
G01*
X62900000Y-54691000D01*
G75*
G02*
X63050000Y-54841000I0J-150000D01*
G01*
X63050000Y-55141000D01*
G75*
G02*
X62900000Y-55291000I-150000J0D01*
G01*
X61150000Y-55291000D01*
G75*
G02*
X61000000Y-55141000I0J150000D01*
G01*
G37*
G04 #@! TD.AperFunction*
G04 #@! TA.AperFunction,SMDPad,CuDef*
G36*
G01*
X61000000Y-56411000D02*
X61000000Y-56111000D01*
G75*
G02*
X61150000Y-55961000I150000J0D01*
G01*
X62900000Y-55961000D01*
G75*
G02*
X63050000Y-56111000I0J-150000D01*
G01*
X63050000Y-56411000D01*
G75*
G02*
X62900000Y-56561000I-150000J0D01*
G01*
X61150000Y-56561000D01*
G75*
G02*
X61000000Y-56411000I0J150000D01*
G01*
G37*
G04 #@! TD.AperFunction*
G04 #@! TA.AperFunction,SMDPad,CuDef*
G36*
G01*
X61000000Y-57681000D02*
X61000000Y-57381000D01*
G75*
G02*
X61150000Y-57231000I150000J0D01*
G01*
X62900000Y-57231000D01*
G75*
G02*
X63050000Y-57381000I0J-150000D01*
G01*
X63050000Y-57681000D01*
G75*
G02*
X62900000Y-57831000I-150000J0D01*
G01*
X61150000Y-57831000D01*
G75*
G02*
X61000000Y-57681000I0J150000D01*
G01*
G37*
G04 #@! TD.AperFunction*
G04 #@! TA.AperFunction,SMDPad,CuDef*
G36*
G01*
X61000000Y-58951000D02*
X61000000Y-58651000D01*
G75*
G02*
X61150000Y-58501000I150000J0D01*
G01*
X62900000Y-58501000D01*
G75*
G02*
X63050000Y-58651000I0J-150000D01*
G01*
X63050000Y-58951000D01*
G75*
G02*
X62900000Y-59101000I-150000J0D01*
G01*
X61150000Y-59101000D01*
G75*
G02*
X61000000Y-58951000I0J150000D01*
G01*
G37*
G04 #@! TD.AperFunction*
G04 #@! TA.AperFunction,SMDPad,CuDef*
G36*
G01*
X70300000Y-58951000D02*
X70300000Y-58651000D01*
G75*
G02*
X70450000Y-58501000I150000J0D01*
G01*
X72200000Y-58501000D01*
G75*
G02*
X72350000Y-58651000I0J-150000D01*
G01*
X72350000Y-58951000D01*
G75*
G02*
X72200000Y-59101000I-150000J0D01*
G01*
X70450000Y-59101000D01*
G75*
G02*
X70300000Y-58951000I0J150000D01*
G01*
G37*
G04 #@! TD.AperFunction*
G04 #@! TA.AperFunction,SMDPad,CuDef*
G36*
G01*
X70300000Y-57681000D02*
X70300000Y-57381000D01*
G75*
G02*
X70450000Y-57231000I150000J0D01*
G01*
X72200000Y-57231000D01*
G75*
G02*
X72350000Y-57381000I0J-150000D01*
G01*
X72350000Y-57681000D01*
G75*
G02*
X72200000Y-57831000I-150000J0D01*
G01*
X70450000Y-57831000D01*
G75*
G02*
X70300000Y-57681000I0J150000D01*
G01*
G37*
G04 #@! TD.AperFunction*
G04 #@! TA.AperFunction,SMDPad,CuDef*
G36*
G01*
X70300000Y-56411000D02*
X70300000Y-56111000D01*
G75*
G02*
X70450000Y-55961000I150000J0D01*
G01*
X72200000Y-55961000D01*
G75*
G02*
X72350000Y-56111000I0J-150000D01*
G01*
X72350000Y-56411000D01*
G75*
G02*
X72200000Y-56561000I-150000J0D01*
G01*
X70450000Y-56561000D01*
G75*
G02*
X70300000Y-56411000I0J150000D01*
G01*
G37*
G04 #@! TD.AperFunction*
G04 #@! TA.AperFunction,SMDPad,CuDef*
G36*
G01*
X70300000Y-55141000D02*
X70300000Y-54841000D01*
G75*
G02*
X70450000Y-54691000I150000J0D01*
G01*
X72200000Y-54691000D01*
G75*
G02*
X72350000Y-54841000I0J-150000D01*
G01*
X72350000Y-55141000D01*
G75*
G02*
X72200000Y-55291000I-150000J0D01*
G01*
X70450000Y-55291000D01*
G75*
G02*
X70300000Y-55141000I0J150000D01*
G01*
G37*
G04 #@! TD.AperFunction*
G04 #@! TA.AperFunction,SMDPad,CuDef*
G36*
G01*
X70300000Y-53871000D02*
X70300000Y-53571000D01*
G75*
G02*
X70450000Y-53421000I150000J0D01*
G01*
X72200000Y-53421000D01*
G75*
G02*
X72350000Y-53571000I0J-150000D01*
G01*
X72350000Y-53871000D01*
G75*
G02*
X72200000Y-54021000I-150000J0D01*
G01*
X70450000Y-54021000D01*
G75*
G02*
X70300000Y-53871000I0J150000D01*
G01*
G37*
G04 #@! TD.AperFunction*
G04 #@! TA.AperFunction,SMDPad,CuDef*
G36*
G01*
X70300000Y-52601000D02*
X70300000Y-52301000D01*
G75*
G02*
X70450000Y-52151000I150000J0D01*
G01*
X72200000Y-52151000D01*
G75*
G02*
X72350000Y-52301000I0J-150000D01*
G01*
X72350000Y-52601000D01*
G75*
G02*
X72200000Y-52751000I-150000J0D01*
G01*
X70450000Y-52751000D01*
G75*
G02*
X70300000Y-52601000I0J150000D01*
G01*
G37*
G04 #@! TD.AperFunction*
G04 #@! TA.AperFunction,SMDPad,CuDef*
G36*
G01*
X70300000Y-51331000D02*
X70300000Y-51031000D01*
G75*
G02*
X70450000Y-50881000I150000J0D01*
G01*
X72200000Y-50881000D01*
G75*
G02*
X72350000Y-51031000I0J-150000D01*
G01*
X72350000Y-51331000D01*
G75*
G02*
X72200000Y-51481000I-150000J0D01*
G01*
X70450000Y-51481000D01*
G75*
G02*
X70300000Y-51331000I0J150000D01*
G01*
G37*
G04 #@! TD.AperFunction*
G04 #@! TA.AperFunction,SMDPad,CuDef*
G36*
G01*
X70300000Y-50061000D02*
X70300000Y-49761000D01*
G75*
G02*
X70450000Y-49611000I150000J0D01*
G01*
X72200000Y-49611000D01*
G75*
G02*
X72350000Y-49761000I0J-150000D01*
G01*
X72350000Y-50061000D01*
G75*
G02*
X72200000Y-50211000I-150000J0D01*
G01*
X70450000Y-50211000D01*
G75*
G02*
X70300000Y-50061000I0J150000D01*
G01*
G37*
G04 #@! TD.AperFunction*
G04 #@! TA.AperFunction,SMDPad,CuDef*
G36*
G01*
X70300000Y-48791000D02*
X70300000Y-48491000D01*
G75*
G02*
X70450000Y-48341000I150000J0D01*
G01*
X72200000Y-48341000D01*
G75*
G02*
X72350000Y-48491000I0J-150000D01*
G01*
X72350000Y-48791000D01*
G75*
G02*
X72200000Y-48941000I-150000J0D01*
G01*
X70450000Y-48941000D01*
G75*
G02*
X70300000Y-48791000I0J150000D01*
G01*
G37*
G04 #@! TD.AperFunction*
G04 #@! TA.AperFunction,SMDPad,CuDef*
G36*
G01*
X70300000Y-47521000D02*
X70300000Y-47221000D01*
G75*
G02*
X70450000Y-47071000I150000J0D01*
G01*
X72200000Y-47071000D01*
G75*
G02*
X72350000Y-47221000I0J-150000D01*
G01*
X72350000Y-47521000D01*
G75*
G02*
X72200000Y-47671000I-150000J0D01*
G01*
X70450000Y-47671000D01*
G75*
G02*
X70300000Y-47521000I0J150000D01*
G01*
G37*
G04 #@! TD.AperFunction*
D13*
X63373000Y-40132000D03*
X62103000Y-40132000D03*
X63373000Y-38862000D03*
X62103000Y-38862000D03*
X63373000Y-37592000D03*
X62103000Y-37592000D03*
G04 #@! TA.AperFunction,SMDPad,CuDef*
G36*
G01*
X68994000Y-62050000D02*
X69944000Y-62050000D01*
G75*
G02*
X70194000Y-62300000I0J-250000D01*
G01*
X70194000Y-62800000D01*
G75*
G02*
X69944000Y-63050000I-250000J0D01*
G01*
X68994000Y-63050000D01*
G75*
G02*
X68744000Y-62800000I0J250000D01*
G01*
X68744000Y-62300000D01*
G75*
G02*
X68994000Y-62050000I250000J0D01*
G01*
G37*
G04 #@! TD.AperFunction*
G04 #@! TA.AperFunction,SMDPad,CuDef*
G36*
G01*
X68994000Y-63950000D02*
X69944000Y-63950000D01*
G75*
G02*
X70194000Y-64200000I0J-250000D01*
G01*
X70194000Y-64700000D01*
G75*
G02*
X69944000Y-64950000I-250000J0D01*
G01*
X68994000Y-64950000D01*
G75*
G02*
X68744000Y-64700000I0J250000D01*
G01*
X68744000Y-64200000D01*
G75*
G02*
X68994000Y-63950000I250000J0D01*
G01*
G37*
G04 #@! TD.AperFunction*
G04 #@! TA.AperFunction,SMDPad,CuDef*
G36*
G01*
X41380000Y-77238000D02*
X41380000Y-75988000D01*
G75*
G02*
X41530000Y-75838000I150000J0D01*
G01*
X41830000Y-75838000D01*
G75*
G02*
X41980000Y-75988000I0J-150000D01*
G01*
X41980000Y-77238000D01*
G75*
G02*
X41830000Y-77388000I-150000J0D01*
G01*
X41530000Y-77388000D01*
G75*
G02*
X41380000Y-77238000I0J150000D01*
G01*
G37*
G04 #@! TD.AperFunction*
G04 #@! TA.AperFunction,SMDPad,CuDef*
G36*
G01*
X42380000Y-77238000D02*
X42380000Y-75988000D01*
G75*
G02*
X42530000Y-75838000I150000J0D01*
G01*
X42830000Y-75838000D01*
G75*
G02*
X42980000Y-75988000I0J-150000D01*
G01*
X42980000Y-77238000D01*
G75*
G02*
X42830000Y-77388000I-150000J0D01*
G01*
X42530000Y-77388000D01*
G75*
G02*
X42380000Y-77238000I0J150000D01*
G01*
G37*
G04 #@! TD.AperFunction*
G04 #@! TA.AperFunction,SMDPad,CuDef*
G36*
G01*
X43380000Y-77238000D02*
X43380000Y-75988000D01*
G75*
G02*
X43530000Y-75838000I150000J0D01*
G01*
X43830000Y-75838000D01*
G75*
G02*
X43980000Y-75988000I0J-150000D01*
G01*
X43980000Y-77238000D01*
G75*
G02*
X43830000Y-77388000I-150000J0D01*
G01*
X43530000Y-77388000D01*
G75*
G02*
X43380000Y-77238000I0J150000D01*
G01*
G37*
G04 #@! TD.AperFunction*
G04 #@! TA.AperFunction,SMDPad,CuDef*
G36*
G01*
X44380000Y-77238000D02*
X44380000Y-75988000D01*
G75*
G02*
X44530000Y-75838000I150000J0D01*
G01*
X44830000Y-75838000D01*
G75*
G02*
X44980000Y-75988000I0J-150000D01*
G01*
X44980000Y-77238000D01*
G75*
G02*
X44830000Y-77388000I-150000J0D01*
G01*
X44530000Y-77388000D01*
G75*
G02*
X44380000Y-77238000I0J150000D01*
G01*
G37*
G04 #@! TD.AperFunction*
G04 #@! TA.AperFunction,SMDPad,CuDef*
G36*
G01*
X45380000Y-81138000D02*
X45380000Y-79838000D01*
G75*
G02*
X45630000Y-79588000I250000J0D01*
G01*
X46330000Y-79588000D01*
G75*
G02*
X46580000Y-79838000I0J-250000D01*
G01*
X46580000Y-81138000D01*
G75*
G02*
X46330000Y-81388000I-250000J0D01*
G01*
X45630000Y-81388000D01*
G75*
G02*
X45380000Y-81138000I0J250000D01*
G01*
G37*
G04 #@! TD.AperFunction*
G04 #@! TA.AperFunction,SMDPad,CuDef*
G36*
G01*
X39780000Y-81138000D02*
X39780000Y-79838000D01*
G75*
G02*
X40030000Y-79588000I250000J0D01*
G01*
X40730000Y-79588000D01*
G75*
G02*
X40980000Y-79838000I0J-250000D01*
G01*
X40980000Y-81138000D01*
G75*
G02*
X40730000Y-81388000I-250000J0D01*
G01*
X40030000Y-81388000D01*
G75*
G02*
X39780000Y-81138000I0J250000D01*
G01*
G37*
G04 #@! TD.AperFunction*
G04 #@! TA.AperFunction,SMDPad,CuDef*
G36*
G01*
X49624000Y-48821000D02*
X48674000Y-48821000D01*
G75*
G02*
X48424000Y-48571000I0J250000D01*
G01*
X48424000Y-48071000D01*
G75*
G02*
X48674000Y-47821000I250000J0D01*
G01*
X49624000Y-47821000D01*
G75*
G02*
X49874000Y-48071000I0J-250000D01*
G01*
X49874000Y-48571000D01*
G75*
G02*
X49624000Y-48821000I-250000J0D01*
G01*
G37*
G04 #@! TD.AperFunction*
G04 #@! TA.AperFunction,SMDPad,CuDef*
G36*
G01*
X49624000Y-46921000D02*
X48674000Y-46921000D01*
G75*
G02*
X48424000Y-46671000I0J250000D01*
G01*
X48424000Y-46171000D01*
G75*
G02*
X48674000Y-45921000I250000J0D01*
G01*
X49624000Y-45921000D01*
G75*
G02*
X49874000Y-46171000I0J-250000D01*
G01*
X49874000Y-46671000D01*
G75*
G02*
X49624000Y-46921000I-250000J0D01*
G01*
G37*
G04 #@! TD.AperFunction*
D14*
X40259000Y-75819000D03*
X71628000Y-25019000D03*
X42799000Y-50292000D03*
X78486000Y-65913000D03*
X27432000Y-52451000D03*
X90297000Y-53721000D03*
X65532000Y-76581000D03*
X41844000Y-46421000D03*
X42799000Y-53213000D03*
X76962000Y-35687000D03*
X85344000Y-25019000D03*
X27432000Y-49022000D03*
X84328000Y-25019000D03*
X59944000Y-25019000D03*
X78105000Y-76581000D03*
X46355000Y-53213000D03*
X77089000Y-76581000D03*
X75692000Y-65913000D03*
X72644000Y-35687000D03*
X42799000Y-51816000D03*
X64516000Y-76581000D03*
X49657000Y-80518000D03*
X78232000Y-35687000D03*
X77216000Y-65913000D03*
X46355000Y-51816000D03*
X74422000Y-65913000D03*
X64135000Y-53721000D03*
X71374000Y-35687000D03*
X31369000Y-54102000D03*
X44577000Y-46482000D03*
X73025000Y-44196000D03*
X75057000Y-80518000D03*
X73406000Y-52451000D03*
X60198000Y-37592000D03*
X62230000Y-80518000D03*
X58928000Y-25019000D03*
X45212000Y-53213000D03*
X75057000Y-21082000D03*
X51816000Y-76581000D03*
X65405000Y-53721000D03*
X90297000Y-51308000D03*
X49657000Y-21082000D03*
X70231000Y-65913000D03*
X31369000Y-55118000D03*
X68961000Y-65913000D03*
X68072000Y-52451000D03*
X47498000Y-46421000D03*
X73025000Y-42545000D03*
X46355000Y-50292000D03*
X90297000Y-58801000D03*
X63246000Y-65913000D03*
X52832000Y-76581000D03*
X69342000Y-52451000D03*
X32131000Y-40005000D03*
X39243000Y-75819000D03*
X87884000Y-44704000D03*
X43942000Y-53213000D03*
X59817000Y-53721000D03*
X46228000Y-25019000D03*
X27432000Y-50800000D03*
X58928000Y-37592000D03*
X47244000Y-25019000D03*
X90297000Y-56261000D03*
X90805000Y-44704000D03*
X72644000Y-25019000D03*
X32131000Y-38862000D03*
X62230000Y-21082000D03*
X64516000Y-65913000D03*
X66929000Y-50927000D03*
X66294000Y-54737000D03*
X60706000Y-38862000D03*
X89408000Y-38481000D03*
X64770000Y-41529000D03*
X83566000Y-39370000D03*
X33274000Y-42164000D03*
X33274000Y-43561000D03*
X32639000Y-61595000D03*
X31496000Y-61595000D03*
X74803000Y-35687000D03*
X80772000Y-36576000D03*
X61087000Y-70485000D03*
X73533000Y-70485000D03*
X69215000Y-35687000D03*
X64008000Y-70993000D03*
D15*
X67818000Y-78359000D02*
X80772000Y-78359000D01*
X56515000Y-23241000D02*
X43815000Y-23241000D01*
X43053000Y-78359000D02*
X55626000Y-78359000D01*
D16*
X56380000Y-23376000D02*
X56515000Y-23241000D01*
X69080000Y-23249000D02*
X69088000Y-23241000D01*
X43680000Y-23376000D02*
X43815000Y-23241000D01*
X68080000Y-76613000D02*
X68080000Y-78097000D01*
X55380000Y-76613000D02*
X55380000Y-78113000D01*
X81780000Y-24987000D02*
X81780000Y-23249000D01*
D15*
X39878000Y-78359000D02*
X43053000Y-78359000D01*
D16*
X32504000Y-57793000D02*
X33020000Y-57277000D01*
X55380000Y-78113000D02*
X55626000Y-78359000D01*
D15*
X40132000Y-48382000D02*
X33406000Y-48382000D01*
D16*
X31337000Y-57793000D02*
X29853000Y-57793000D01*
D15*
X40386000Y-23241000D02*
X29591000Y-34036000D01*
D16*
X31337000Y-42553000D02*
X29726000Y-42553000D01*
X80780000Y-76613000D02*
X80780000Y-78351000D01*
X42680000Y-77986000D02*
X43053000Y-78359000D01*
X40253000Y-48261000D02*
X40132000Y-48382000D01*
D15*
X29591000Y-68199000D02*
X39751000Y-78359000D01*
D16*
X43680000Y-24987000D02*
X43680000Y-23376000D01*
D15*
X29591000Y-43180000D02*
X29591000Y-57531000D01*
X29591000Y-57531000D02*
X29591000Y-68199000D01*
D16*
X81780000Y-23249000D02*
X81788000Y-23241000D01*
D15*
X33406000Y-48382000D02*
X33020000Y-48768000D01*
X81788000Y-23241000D02*
X69088000Y-23241000D01*
X43815000Y-23241000D02*
X40386000Y-23241000D01*
X69088000Y-23241000D02*
X56515000Y-23241000D01*
D16*
X80780000Y-78351000D02*
X80772000Y-78359000D01*
X42680000Y-76613000D02*
X42680000Y-77986000D01*
D15*
X55626000Y-78359000D02*
X67818000Y-78359000D01*
D16*
X33020000Y-57277000D02*
X33020000Y-57023000D01*
X68080000Y-78097000D02*
X67818000Y-78359000D01*
X69080000Y-24987000D02*
X69080000Y-23249000D01*
D15*
X29591000Y-34163000D02*
X29591000Y-42418000D01*
D16*
X29853000Y-57793000D02*
X29591000Y-57531000D01*
X31337000Y-57793000D02*
X32504000Y-57793000D01*
X56380000Y-24987000D02*
X56380000Y-23376000D01*
D15*
X33020000Y-48768000D02*
X33020000Y-57023000D01*
D16*
X29726000Y-42553000D02*
X29591000Y-42418000D01*
X43077000Y-48261000D02*
X40253000Y-48261000D01*
D15*
X29591000Y-42418000D02*
X29591000Y-43180000D01*
D16*
X46863000Y-53721000D02*
X46355000Y-53213000D01*
X68961000Y-65913000D02*
X70231000Y-65913000D01*
X49100500Y-46372500D02*
X49149000Y-46421000D01*
X31337000Y-40799000D02*
X32131000Y-40005000D01*
X77089000Y-76581000D02*
X79621000Y-76581000D01*
X77216000Y-65913000D02*
X78486000Y-65913000D01*
X32131000Y-38862000D02*
X32131000Y-40005000D01*
X86741000Y-44704000D02*
X87884000Y-44704000D01*
X41680000Y-76613000D02*
X41680000Y-76097000D01*
X86360000Y-42720500D02*
X86360000Y-44323000D01*
X73406000Y-52451000D02*
X75499000Y-52451000D01*
X31337000Y-41553000D02*
X31337000Y-40799000D01*
X57396000Y-25019000D02*
X58928000Y-25019000D01*
X41680000Y-76097000D02*
X41402000Y-75819000D01*
X46228000Y-25019000D02*
X47244000Y-25019000D01*
X49100500Y-40259000D02*
X49100500Y-46372500D01*
X75499000Y-52451000D02*
X75565000Y-52517000D01*
X73025000Y-42545000D02*
X74742000Y-42545000D01*
X72009000Y-35687000D02*
X72009000Y-37150000D01*
X84328000Y-25019000D02*
X85344000Y-25019000D01*
D15*
X31369000Y-47752000D02*
X31369000Y-54102000D01*
D16*
X70096000Y-25019000D02*
X71628000Y-25019000D01*
X75057000Y-64450000D02*
X75057000Y-65913000D01*
X31369000Y-56650000D02*
X31369000Y-55118000D01*
X76962000Y-35687000D02*
X77597000Y-35687000D01*
X40083500Y-41971000D02*
X40083500Y-46433500D01*
X63881000Y-64450000D02*
X63881000Y-65913000D01*
X64516000Y-76581000D02*
X67048000Y-76581000D01*
X77597000Y-35687000D02*
X77597000Y-37150000D01*
D15*
X49149000Y-46421000D02*
X32700000Y-46421000D01*
D16*
X58928000Y-25019000D02*
X59944000Y-25019000D01*
X71374000Y-35687000D02*
X72009000Y-35687000D01*
X74422000Y-65913000D02*
X75692000Y-65913000D01*
X44696000Y-25019000D02*
X46228000Y-25019000D01*
D15*
X31369000Y-55118000D02*
X31369000Y-54102000D01*
D16*
X73406000Y-52451000D02*
X68072000Y-52451000D01*
X71628000Y-25019000D02*
X72644000Y-25019000D01*
X51816000Y-76581000D02*
X54348000Y-76581000D01*
X72009000Y-35687000D02*
X72644000Y-35687000D01*
D15*
X44577000Y-48348500D02*
X44577000Y-46614000D01*
D16*
X63246000Y-65913000D02*
X64516000Y-65913000D01*
X77851000Y-64450000D02*
X77851000Y-65913000D01*
X63881000Y-65913000D02*
X63246000Y-65913000D01*
X87884000Y-44704000D02*
X90805000Y-44704000D01*
X67048000Y-76581000D02*
X67080000Y-76613000D01*
X69596000Y-64450000D02*
X69596000Y-65913000D01*
X86360000Y-44323000D02*
X86741000Y-44704000D01*
X90805000Y-44704000D02*
X91567000Y-44704000D01*
X41402000Y-75819000D02*
X39243000Y-75819000D01*
X65405000Y-53721000D02*
X46863000Y-53721000D01*
X82796000Y-25019000D02*
X84328000Y-25019000D01*
X77597000Y-35687000D02*
X78232000Y-35687000D01*
X74742000Y-42545000D02*
X74803000Y-42484000D01*
X91567000Y-44704000D02*
X92202000Y-44069000D01*
X92202000Y-44069000D02*
X92202000Y-42720500D01*
X73025000Y-44196000D02*
X73025000Y-42545000D01*
X58928000Y-37592000D02*
X62103000Y-37592000D01*
X40083500Y-46433500D02*
X40132000Y-46482000D01*
D15*
X32700000Y-46421000D02*
X31369000Y-47752000D01*
D16*
X73406000Y-53721000D02*
X74168000Y-54483000D01*
X64008000Y-47425000D02*
X64008000Y-46101000D01*
D17*
X64008000Y-52451000D02*
X64008000Y-51054000D01*
D16*
X46077000Y-48261000D02*
X49089000Y-48261000D01*
D17*
X60579000Y-50546000D02*
X60261500Y-50228500D01*
D16*
X74168000Y-54483000D02*
X75499000Y-54483000D01*
X52197000Y-48283500D02*
X52982500Y-48283500D01*
X64008000Y-46101000D02*
X62992000Y-45085000D01*
X80645000Y-61468000D02*
X80645000Y-62587500D01*
X75499000Y-54483000D02*
X75565000Y-54417000D01*
X78867000Y-59690000D02*
X80645000Y-61468000D01*
X67310000Y-53721000D02*
X71325000Y-53721000D01*
X62025000Y-52451000D02*
X64008000Y-52451000D01*
D17*
X60261500Y-48387000D02*
X60642500Y-48006000D01*
X60261500Y-50228500D02*
X60261500Y-48387000D01*
D16*
X62992000Y-45085000D02*
X61722000Y-45085000D01*
D17*
X63500000Y-50546000D02*
X60579000Y-50546000D01*
D16*
X64008000Y-52451000D02*
X66040000Y-52451000D01*
X67310000Y-53721000D02*
X67310000Y-58928000D01*
X57150000Y-52451000D02*
X55118000Y-50419000D01*
X66040000Y-52451000D02*
X67310000Y-53721000D01*
D17*
X60642500Y-48006000D02*
X63427000Y-48006000D01*
D16*
X62025000Y-52451000D02*
X57150000Y-52451000D01*
D17*
X63427000Y-48006000D02*
X64008000Y-47425000D01*
D16*
X61722000Y-45085000D02*
X61087000Y-44450000D01*
X55118000Y-50419000D02*
X54991000Y-50292000D01*
D17*
X64008000Y-51054000D02*
X63500000Y-50546000D01*
D16*
X61087000Y-41148000D02*
X62103000Y-40132000D01*
X49149000Y-48321000D02*
X52159500Y-48321000D01*
X61087000Y-44450000D02*
X61087000Y-41148000D01*
X68072000Y-59690000D02*
X78867000Y-59690000D01*
X52982500Y-48283500D02*
X57150000Y-52451000D01*
X49089000Y-48261000D02*
X49149000Y-48321000D01*
X71325000Y-53721000D02*
X73406000Y-53721000D01*
X52159500Y-48321000D02*
X52197000Y-48283500D01*
X67310000Y-58928000D02*
X68072000Y-59690000D01*
X74803000Y-39012500D02*
X77559500Y-39012500D01*
X74295000Y-40513000D02*
X74803000Y-40005000D01*
X71325000Y-48641000D02*
X69723000Y-48641000D01*
X77559500Y-39012500D02*
X77597000Y-39050000D01*
X69723000Y-48641000D02*
X69342000Y-48260000D01*
X69342000Y-48260000D02*
X69342000Y-41529000D01*
X70358000Y-40513000D02*
X74295000Y-40513000D01*
X74803000Y-40005000D02*
X74803000Y-39012500D01*
X69342000Y-41529000D02*
X70358000Y-40513000D01*
X68199000Y-40028500D02*
X69215000Y-39012500D01*
X68199000Y-49403000D02*
X68199000Y-40028500D01*
X71971500Y-39012500D02*
X72009000Y-39050000D01*
X71325000Y-49911000D02*
X68707000Y-49911000D01*
X68707000Y-49911000D02*
X68199000Y-49403000D01*
X69215000Y-39012500D02*
X71971500Y-39012500D01*
X80645000Y-64412500D02*
X79652500Y-64412500D01*
X79248000Y-62865000D02*
X78933000Y-62550000D01*
X66929000Y-50927000D02*
X66929000Y-39243000D01*
X79248000Y-64008000D02*
X79248000Y-62865000D01*
X65786000Y-58801000D02*
X65786000Y-55245000D01*
X65786000Y-58801000D02*
X67564000Y-60579000D01*
X78933000Y-62550000D02*
X77851000Y-62550000D01*
X75946000Y-60579000D02*
X77851000Y-62484000D01*
X62025000Y-58801000D02*
X65786000Y-58801000D01*
X79652500Y-64412500D02*
X79248000Y-64008000D01*
X65786000Y-55245000D02*
X66294000Y-54737000D01*
X67564000Y-60579000D02*
X75946000Y-60579000D01*
X66929000Y-39243000D02*
X65278000Y-37592000D01*
X77851000Y-62484000D02*
X77851000Y-62550000D01*
X65278000Y-37592000D02*
X63373000Y-37592000D01*
X50975500Y-45260500D02*
X50975500Y-43561000D01*
X52173500Y-46458500D02*
X50975500Y-45260500D01*
X52197000Y-46458500D02*
X52173500Y-46458500D01*
X89408000Y-38481000D02*
X89408000Y-40870500D01*
X59817000Y-46101000D02*
X59817000Y-39751000D01*
X59817000Y-39751000D02*
X60706000Y-38862000D01*
X61087000Y-47371000D02*
X59817000Y-46101000D01*
X62103000Y-38862000D02*
X60706000Y-38862000D01*
X62025000Y-47371000D02*
X61087000Y-47371000D01*
X62025000Y-48641000D02*
X64262000Y-48641000D01*
X64262000Y-48641000D02*
X64897000Y-48006000D01*
X64770000Y-41529000D02*
X63373000Y-40132000D01*
X64897000Y-41656000D02*
X64770000Y-41529000D01*
X64897000Y-48006000D02*
X64897000Y-41656000D01*
X83566000Y-39370000D02*
X83566000Y-40870500D01*
X65913000Y-48641000D02*
X65913000Y-39878000D01*
X65913000Y-39878000D02*
X64897000Y-38862000D01*
X64643000Y-49911000D02*
X65913000Y-48641000D01*
X62025000Y-49911000D02*
X64643000Y-49911000D01*
X63373000Y-38862000D02*
X64897000Y-38862000D01*
D17*
X65659000Y-39624000D02*
X64897000Y-38862000D01*
D16*
X44831000Y-41806500D02*
X46458500Y-41806500D01*
X46458500Y-41806500D02*
X47117000Y-41148000D01*
X47117000Y-39116000D02*
X47371000Y-38862000D01*
X47117000Y-41148000D02*
X47117000Y-39116000D01*
X50673000Y-38862000D02*
X50975500Y-39164500D01*
X47371000Y-38862000D02*
X50673000Y-38862000D01*
X50975500Y-39164500D02*
X50975500Y-40259000D01*
X74803000Y-44384000D02*
X77559500Y-44384000D01*
X74803000Y-46482000D02*
X74803000Y-44384000D01*
X71325000Y-47371000D02*
X73914000Y-47371000D01*
X73914000Y-47371000D02*
X74803000Y-46482000D01*
X77559500Y-44384000D02*
X77597000Y-44346500D01*
X57658000Y-57023000D02*
X57658000Y-60198000D01*
X66675000Y-62587500D02*
X69431500Y-62587500D01*
X62025000Y-56261000D02*
X58420000Y-56261000D01*
X69431500Y-62587500D02*
X69469000Y-62550000D01*
X57658000Y-60198000D02*
X58547000Y-61087000D01*
X65174500Y-61087000D02*
X66675000Y-62587500D01*
X58547000Y-61087000D02*
X65174500Y-61087000D01*
X58420000Y-56261000D02*
X57658000Y-57023000D01*
X61087000Y-62587500D02*
X63843500Y-62587500D01*
X58396500Y-62587500D02*
X56642000Y-60833000D01*
X63843500Y-62587500D02*
X63881000Y-62550000D01*
X56642000Y-60833000D02*
X56642000Y-56007000D01*
X57658000Y-54991000D02*
X62025000Y-54991000D01*
X61087000Y-62587500D02*
X58396500Y-62587500D01*
X56642000Y-56007000D02*
X57658000Y-54991000D01*
X72263000Y-62550000D02*
X75019500Y-62550000D01*
X59182000Y-57531000D02*
X58674000Y-58039000D01*
X59182000Y-60071000D02*
X65659000Y-60071000D01*
X58674000Y-58039000D02*
X58674000Y-59563000D01*
X65659000Y-60071000D02*
X66929000Y-61341000D01*
X75019500Y-62550000D02*
X75057000Y-62587500D01*
X71016500Y-61341000D02*
X72263000Y-62587500D01*
X62025000Y-57531000D02*
X59182000Y-57531000D01*
X66929000Y-61341000D02*
X71016500Y-61341000D01*
X58674000Y-59563000D02*
X59182000Y-60071000D01*
X34417000Y-41021000D02*
X33274000Y-42164000D01*
X41958500Y-41021000D02*
X34417000Y-41021000D01*
X31337000Y-43553000D02*
X33266000Y-43553000D01*
X33147000Y-61087000D02*
X32639000Y-61595000D01*
X33266000Y-43553000D02*
X33274000Y-43561000D01*
X31337000Y-58793000D02*
X32631000Y-58793000D01*
X32639000Y-61595000D02*
X31496000Y-61595000D01*
X32631000Y-58793000D02*
X33147000Y-59309000D01*
X33147000Y-59309000D02*
X33147000Y-61087000D01*
X33274000Y-43561000D02*
X33274000Y-42164000D01*
X73152000Y-56261000D02*
X71325000Y-56261000D01*
X82677000Y-54991000D02*
X81026000Y-56642000D01*
X81026000Y-56642000D02*
X73533000Y-56642000D01*
X73533000Y-56642000D02*
X73152000Y-56261000D01*
X83705700Y-54991000D02*
X82677000Y-54991000D01*
X71325000Y-57531000D02*
X83705700Y-57531000D01*
X83578700Y-60325000D02*
X83324700Y-60071000D01*
X81280000Y-60071000D02*
X80010000Y-58801000D01*
X80010000Y-58801000D02*
X71325000Y-58801000D01*
X83324700Y-60071000D02*
X81280000Y-60071000D01*
X56261000Y-27178000D02*
X73787000Y-27178000D01*
X55380000Y-24987000D02*
X55380000Y-26297000D01*
X74803000Y-28194000D02*
X73787000Y-27178000D01*
X74803000Y-35687000D02*
X74803000Y-28194000D01*
X74803000Y-37187500D02*
X74803000Y-35687000D01*
X68080000Y-27178000D02*
X68080000Y-24987000D01*
X55380000Y-26297000D02*
X56261000Y-27178000D01*
X80780000Y-24987000D02*
X80772000Y-36576000D01*
X80772000Y-36576000D02*
X80780000Y-41648000D01*
X80780000Y-41648000D02*
X79906500Y-42521500D01*
X79906500Y-42521500D02*
X77597000Y-42521500D01*
X43680000Y-74303000D02*
X43680000Y-76613000D01*
X44831000Y-73152000D02*
X43680000Y-74303000D01*
X61087000Y-64412500D02*
X61087000Y-71882000D01*
X59817000Y-73152000D02*
X44831000Y-73152000D01*
X61087000Y-71882000D02*
X59817000Y-73152000D01*
X72263000Y-69215000D02*
X76200000Y-73152000D01*
X72263000Y-64412500D02*
X72263000Y-69215000D01*
X81780000Y-74541000D02*
X81780000Y-76613000D01*
X80391000Y-73152000D02*
X81780000Y-74541000D01*
X76200000Y-73152000D02*
X80391000Y-73152000D01*
X44831000Y-38481000D02*
X45974000Y-37338000D01*
X57785000Y-51181000D02*
X62025000Y-51181000D01*
X44831000Y-39981500D02*
X44831000Y-38481000D01*
X56388000Y-38481000D02*
X56388000Y-49784000D01*
X44741500Y-40071000D02*
X44831000Y-39981500D01*
X40083500Y-40071000D02*
X44741500Y-40071000D01*
X45974000Y-37338000D02*
X55245000Y-37338000D01*
X56388000Y-49784000D02*
X57785000Y-51181000D01*
X55245000Y-37338000D02*
X56388000Y-38481000D01*
X71325000Y-51181000D02*
X74295000Y-51181000D01*
X75565000Y-49911000D02*
X83705700Y-49911000D01*
X74295000Y-51181000D02*
X75565000Y-49911000D01*
X79883000Y-55753000D02*
X80518000Y-55118000D01*
X80518000Y-53213000D02*
X81280000Y-52451000D01*
X71325000Y-54991000D02*
X73279000Y-54991000D01*
X81280000Y-52451000D02*
X83705700Y-52451000D01*
X74041000Y-55753000D02*
X79883000Y-55753000D01*
X73279000Y-54991000D02*
X74041000Y-55753000D01*
X80518000Y-55118000D02*
X80518000Y-53213000D01*
X44196000Y-29718000D02*
X67691000Y-29718000D01*
X69215000Y-35687000D02*
X69215000Y-37187500D01*
X67691000Y-29718000D02*
X69215000Y-31242000D01*
X42680000Y-25616185D02*
X42672000Y-25624185D01*
X42672000Y-25624185D02*
X42672000Y-28194000D01*
X42672000Y-28194000D02*
X44196000Y-29718000D01*
X69215000Y-31242000D02*
X69215000Y-35687000D01*
X42680000Y-24987000D02*
X42680000Y-25616185D01*
X68326000Y-74676000D02*
X69088000Y-75438000D01*
X64008000Y-70993000D02*
X64008000Y-74676000D01*
X56380000Y-76613000D02*
X56380000Y-75446000D01*
X66675000Y-68326000D02*
X64008000Y-70993000D01*
X56380000Y-75446000D02*
X57150000Y-74676000D01*
X64008000Y-74676000D02*
X68326000Y-74676000D01*
X69088000Y-75438000D02*
X69088000Y-76605000D01*
X66675000Y-64412500D02*
X66675000Y-68326000D01*
X57150000Y-74676000D02*
X64008000Y-74676000D01*
X69088000Y-76605000D02*
X69080000Y-76613000D01*
X84431500Y-42695500D02*
X84963000Y-42164000D01*
X84963000Y-42164000D02*
X84963000Y-41275000D01*
X84963000Y-41275000D02*
X85392500Y-40845500D01*
X85392500Y-40845500D02*
X86360000Y-40845500D01*
X83566000Y-42695500D02*
X84431500Y-42695500D01*
X90805000Y-41275000D02*
X91234500Y-40845500D01*
X90400500Y-42695500D02*
X90805000Y-42291000D01*
X90805000Y-42291000D02*
X90805000Y-41275000D01*
X91234500Y-40845500D02*
X92202000Y-40845500D01*
X89408000Y-42695500D02*
X90400500Y-42695500D01*
G04 #@! TA.AperFunction,Conductor*
G36*
X28770621Y-36723002D02*
G01*
X28817114Y-36776658D01*
X28828500Y-36829000D01*
X28828500Y-64517000D01*
X28808498Y-64585121D01*
X28754842Y-64631614D01*
X28702500Y-64643000D01*
X26161000Y-64643000D01*
X26092879Y-64622998D01*
X26046386Y-64569342D01*
X26035000Y-64517000D01*
X26035000Y-36829000D01*
X26055002Y-36760879D01*
X26108658Y-36714386D01*
X26161000Y-36703000D01*
X28702500Y-36703000D01*
X28770621Y-36723002D01*
G37*
G04 #@! TD.AperFunction*
G04 #@! TA.AperFunction,Conductor*
G36*
X53028121Y-49423002D02*
G01*
X53074614Y-49476658D01*
X53086000Y-49529000D01*
X53086000Y-69343000D01*
X53065998Y-69411121D01*
X53012342Y-69457614D01*
X52960000Y-69469000D01*
X34416000Y-69469000D01*
X34347879Y-69448998D01*
X34301386Y-69395342D01*
X34290000Y-69343000D01*
X34290000Y-49529000D01*
X34310002Y-49460879D01*
X34363658Y-49414386D01*
X34416000Y-49403000D01*
X52960000Y-49403000D01*
X53028121Y-49423002D01*
G37*
G04 #@! TD.AperFunction*
G04 #@! TA.AperFunction,Conductor*
G36*
X39668241Y-79122147D02*
G01*
X39668298Y-79121511D01*
X39675594Y-79122162D01*
X39682757Y-79123652D01*
X39700260Y-79123178D01*
X39778989Y-79121048D01*
X39790187Y-79121243D01*
X39794330Y-79121500D01*
X80816525Y-79121500D01*
X80819385Y-79121167D01*
X80825128Y-79121000D01*
X87504000Y-79121000D01*
X87572121Y-79141002D01*
X87618614Y-79194658D01*
X87630000Y-79247000D01*
X87630000Y-81789000D01*
X87609998Y-81857121D01*
X87556342Y-81903614D01*
X87504000Y-81915000D01*
X36956000Y-81915000D01*
X36887879Y-81894998D01*
X36841386Y-81841342D01*
X36830000Y-81789000D01*
X36830000Y-79247000D01*
X36850002Y-79178879D01*
X36903658Y-79132386D01*
X36956000Y-79121000D01*
X39657040Y-79121000D01*
X39668241Y-79122147D01*
G37*
G04 #@! TD.AperFunction*
G04 #@! TA.AperFunction,Conductor*
G36*
X87572121Y-19705002D02*
G01*
X87618614Y-19758658D01*
X87630000Y-19811000D01*
X87630000Y-22353000D01*
X87609998Y-22421121D01*
X87556342Y-22467614D01*
X87504000Y-22479000D01*
X81883630Y-22479000D01*
X81875830Y-22478758D01*
X81875099Y-22478713D01*
X81873607Y-22478620D01*
X81873601Y-22478620D01*
X81871670Y-22478500D01*
X40453368Y-22478500D01*
X40434420Y-22477067D01*
X40427033Y-22475943D01*
X40420024Y-22474877D01*
X40420022Y-22474877D01*
X40412792Y-22473777D01*
X40405500Y-22474370D01*
X40405497Y-22474370D01*
X40359825Y-22478085D01*
X40349611Y-22478500D01*
X40341475Y-22478500D01*
X40338616Y-22478833D01*
X40332871Y-22479000D01*
X36956000Y-22479000D01*
X36887879Y-22458998D01*
X36841386Y-22405342D01*
X36830000Y-22353000D01*
X36830000Y-19811000D01*
X36850002Y-19742879D01*
X36903658Y-19696386D01*
X36956000Y-19685000D01*
X87504000Y-19685000D01*
X87572121Y-19705002D01*
G37*
G04 #@! TD.AperFunction*
G04 #@! TA.AperFunction,Conductor*
G36*
X95827121Y-47264002D02*
G01*
X95873614Y-47317658D01*
X95885000Y-47370000D01*
X95885000Y-62485000D01*
X95864998Y-62553121D01*
X95811342Y-62599614D01*
X95759000Y-62611000D01*
X86486000Y-62611000D01*
X86417879Y-62590998D01*
X86371386Y-62537342D01*
X86360000Y-62485000D01*
X86360000Y-47370000D01*
X86380002Y-47301879D01*
X86433658Y-47255386D01*
X86486000Y-47244000D01*
X95759000Y-47244000D01*
X95827121Y-47264002D01*
G37*
G04 #@! TD.AperFunction*
M02*
