G04 #@! TF.GenerationSoftware,KiCad,Pcbnew,6.0.10-86aedd382b~118~ubuntu18.04.1*
G04 #@! TF.CreationDate,2024-08-26T13:47:26-06:00*
G04 #@! TF.ProjectId,ckt-xing-txm,636b742d-7869-46e6-972d-74786d2e6b69,rev?*
G04 #@! TF.SameCoordinates,Original*
G04 #@! TF.FileFunction,Legend,Bot*
G04 #@! TF.FilePolarity,Positive*
%FSLAX46Y46*%
G04 Gerber Fmt 4.6, Leading zero omitted, Abs format (unit mm)*
G04 Created by KiCad (PCBNEW 6.0.10-86aedd382b~118~ubuntu18.04.1) date 2024-08-26 13:47:26*
%MOMM*%
%LPD*%
G01*
G04 APERTURE LIST*
%ADD10C,0.150000*%
%ADD11C,0.120000*%
G04 APERTURE END LIST*
D10*
X82033904Y-31236380D02*
X81462476Y-31236380D01*
X81748190Y-32236380D02*
X81748190Y-31236380D01*
X81129142Y-32236380D02*
X81129142Y-31236380D01*
X80748190Y-31236380D01*
X80652952Y-31284000D01*
X80605333Y-31331619D01*
X80557714Y-31426857D01*
X80557714Y-31569714D01*
X80605333Y-31664952D01*
X80652952Y-31712571D01*
X80748190Y-31760190D01*
X81129142Y-31760190D01*
X80224380Y-31236380D02*
X79605333Y-31236380D01*
X79938666Y-31617333D01*
X79795809Y-31617333D01*
X79700571Y-31664952D01*
X79652952Y-31712571D01*
X79605333Y-31807809D01*
X79605333Y-32045904D01*
X79652952Y-32141142D01*
X79700571Y-32188761D01*
X79795809Y-32236380D01*
X80081523Y-32236380D01*
X80176761Y-32188761D01*
X80224380Y-32141142D01*
X62348904Y-65272380D02*
X61777476Y-65272380D01*
X62063190Y-66272380D02*
X62063190Y-65272380D01*
X61444142Y-66272380D02*
X61444142Y-65272380D01*
X61063190Y-65272380D01*
X60967952Y-65320000D01*
X60920333Y-65367619D01*
X60872714Y-65462857D01*
X60872714Y-65605714D01*
X60920333Y-65700952D01*
X60967952Y-65748571D01*
X61063190Y-65796190D01*
X61444142Y-65796190D01*
X59967952Y-65272380D02*
X60444142Y-65272380D01*
X60491761Y-65748571D01*
X60444142Y-65700952D01*
X60348904Y-65653333D01*
X60110809Y-65653333D01*
X60015571Y-65700952D01*
X59967952Y-65748571D01*
X59920333Y-65843809D01*
X59920333Y-66081904D01*
X59967952Y-66177142D01*
X60015571Y-66224761D01*
X60110809Y-66272380D01*
X60348904Y-66272380D01*
X60444142Y-66224761D01*
X60491761Y-66177142D01*
X76064904Y-31109380D02*
X75493476Y-31109380D01*
X75779190Y-32109380D02*
X75779190Y-31109380D01*
X75160142Y-32109380D02*
X75160142Y-31109380D01*
X74779190Y-31109380D01*
X74683952Y-31157000D01*
X74636333Y-31204619D01*
X74588714Y-31299857D01*
X74588714Y-31442714D01*
X74636333Y-31537952D01*
X74683952Y-31585571D01*
X74779190Y-31633190D01*
X75160142Y-31633190D01*
X73636333Y-32109380D02*
X74207761Y-32109380D01*
X73922047Y-32109380D02*
X73922047Y-31109380D01*
X74017285Y-31252238D01*
X74112523Y-31347476D01*
X74207761Y-31395095D01*
X70476904Y-31109380D02*
X69905476Y-31109380D01*
X70191190Y-32109380D02*
X70191190Y-31109380D01*
X69572142Y-32109380D02*
X69572142Y-31109380D01*
X69191190Y-31109380D01*
X69095952Y-31157000D01*
X69048333Y-31204619D01*
X69000714Y-31299857D01*
X69000714Y-31442714D01*
X69048333Y-31537952D01*
X69095952Y-31585571D01*
X69191190Y-31633190D01*
X69572142Y-31633190D01*
X68619761Y-31204619D02*
X68572142Y-31157000D01*
X68476904Y-31109380D01*
X68238809Y-31109380D01*
X68143571Y-31157000D01*
X68095952Y-31204619D01*
X68048333Y-31299857D01*
X68048333Y-31395095D01*
X68095952Y-31537952D01*
X68667380Y-32109380D01*
X68048333Y-32109380D01*
X67936904Y-65272380D02*
X67365476Y-65272380D01*
X67651190Y-66272380D02*
X67651190Y-65272380D01*
X67032142Y-66272380D02*
X67032142Y-65272380D01*
X66651190Y-65272380D01*
X66555952Y-65320000D01*
X66508333Y-65367619D01*
X66460714Y-65462857D01*
X66460714Y-65605714D01*
X66508333Y-65700952D01*
X66555952Y-65748571D01*
X66651190Y-65796190D01*
X67032142Y-65796190D01*
X65603571Y-65605714D02*
X65603571Y-66272380D01*
X65841666Y-65224761D02*
X66079761Y-65939047D01*
X65460714Y-65939047D01*
X73524904Y-65272380D02*
X72953476Y-65272380D01*
X73239190Y-66272380D02*
X73239190Y-65272380D01*
X72620142Y-66272380D02*
X72620142Y-65272380D01*
X72239190Y-65272380D01*
X72143952Y-65320000D01*
X72096333Y-65367619D01*
X72048714Y-65462857D01*
X72048714Y-65605714D01*
X72096333Y-65700952D01*
X72143952Y-65748571D01*
X72239190Y-65796190D01*
X72620142Y-65796190D01*
X71191571Y-65272380D02*
X71382047Y-65272380D01*
X71477285Y-65320000D01*
X71524904Y-65367619D01*
X71620142Y-65510476D01*
X71667761Y-65700952D01*
X71667761Y-66081904D01*
X71620142Y-66177142D01*
X71572523Y-66224761D01*
X71477285Y-66272380D01*
X71286809Y-66272380D01*
X71191571Y-66224761D01*
X71143952Y-66177142D01*
X71096333Y-66081904D01*
X71096333Y-65843809D01*
X71143952Y-65748571D01*
X71191571Y-65700952D01*
X71286809Y-65653333D01*
X71477285Y-65653333D01*
X71572523Y-65700952D01*
X71620142Y-65748571D01*
X71667761Y-65843809D01*
D11*
X81972000Y-33782000D02*
G75*
G03*
X81972000Y-33782000I-1200000J0D01*
G01*
X62287000Y-67818000D02*
G75*
G03*
X62287000Y-67818000I-1200000J0D01*
G01*
X76003000Y-33655000D02*
G75*
G03*
X76003000Y-33655000I-1200000J0D01*
G01*
X70415000Y-33655000D02*
G75*
G03*
X70415000Y-33655000I-1200000J0D01*
G01*
X67875000Y-67818000D02*
G75*
G03*
X67875000Y-67818000I-1200000J0D01*
G01*
X73463000Y-67818000D02*
G75*
G03*
X73463000Y-67818000I-1200000J0D01*
G01*
M02*
