G04 start of page 3 for group 1 idx 1 *
G04 Title: (unknown), solder *
G04 Creator: pcb 4.0.2 *
G04 CreationDate: Wed Jul  1 19:07:19 2020 UTC *
G04 For: ndholmes *
G04 Format: Gerber/RS-274X *
G04 PCB-Dimensions (mil): 2000.00 3200.00 *
G04 PCB-Coordinate-Origin: lower left *
%MOIN*%
%FSLAX25Y25*%
%LNBOTTOM*%
%ADD40C,0.0450*%
%ADD39C,0.0480*%
%ADD38C,0.1285*%
%ADD37C,0.0120*%
%ADD36C,0.0260*%
%ADD35C,0.0787*%
%ADD34C,0.0800*%
%ADD33C,0.2937*%
%ADD32C,0.0250*%
%ADD31C,0.0400*%
%ADD30C,0.0100*%
%ADD29C,0.0001*%
G54D29*G36*
X183400Y177800D02*X74200D01*
Y202038D01*
X74356Y202134D01*
X74631Y202369D01*
X74866Y202644D01*
X75056Y202953D01*
X75194Y203287D01*
X75279Y203639D01*
X75300Y204000D01*
X75279Y204361D01*
X75194Y204713D01*
X75056Y205047D01*
X74866Y205356D01*
X74631Y205631D01*
X74500Y205744D01*
Y207379D01*
X75519Y208398D01*
X75564Y208436D01*
X75646Y208532D01*
X75953Y208344D01*
X76287Y208206D01*
X76639Y208121D01*
X77000Y208093D01*
X77361Y208121D01*
X77713Y208206D01*
X78047Y208344D01*
X78356Y208534D01*
X78631Y208769D01*
X78866Y209044D01*
X79056Y209353D01*
X79194Y209687D01*
X79279Y210039D01*
X79300Y210400D01*
X79279Y210761D01*
X79194Y211113D01*
X79056Y211447D01*
X78866Y211756D01*
X78631Y212031D01*
X78500Y212144D01*
Y229979D01*
X80021Y231500D01*
X87756D01*
X87869Y231369D01*
X88144Y231134D01*
X88453Y230944D01*
X88787Y230806D01*
X89139Y230721D01*
X89500Y230693D01*
X89861Y230721D01*
X90213Y230806D01*
X90547Y230944D01*
X90856Y231134D01*
X91131Y231369D01*
X91366Y231644D01*
X91556Y231953D01*
X91694Y232287D01*
X91779Y232639D01*
X91800Y233000D01*
X91779Y233361D01*
X91694Y233713D01*
X91556Y234047D01*
X91366Y234356D01*
X91131Y234631D01*
X90856Y234866D01*
X90547Y235056D01*
X90213Y235194D01*
X89861Y235279D01*
X89500Y235307D01*
X89139Y235279D01*
X88787Y235194D01*
X88453Y235056D01*
X88144Y234866D01*
X87869Y234631D01*
X87756Y234500D01*
X79459D01*
X79400Y234505D01*
X79165Y234486D01*
X78935Y234431D01*
X78717Y234341D01*
X78516Y234217D01*
X78515Y234217D01*
X78336Y234064D01*
X78298Y234019D01*
X76000Y231721D01*
Y239041D01*
X76005Y239100D01*
X75986Y239335D01*
X75931Y239565D01*
X75841Y239783D01*
X75717Y239984D01*
X75564Y240164D01*
X75519Y240202D01*
X74200Y241521D01*
Y245500D01*
X117100D01*
Y214100D01*
X117128Y213629D01*
X117238Y213170D01*
X117419Y212734D01*
X117665Y212331D01*
X117972Y211972D01*
X118331Y211665D01*
X118734Y211419D01*
X119170Y211238D01*
X119629Y211128D01*
X120100Y211091D01*
X120571Y211128D01*
X121030Y211238D01*
X121466Y211419D01*
X121869Y211665D01*
X122228Y211972D01*
X122535Y212331D01*
X122781Y212734D01*
X122962Y213170D01*
X123072Y213629D01*
X123100Y214100D01*
Y245500D01*
X130000D01*
Y242744D01*
X129869Y242631D01*
X129634Y242356D01*
X129444Y242047D01*
X129306Y241713D01*
X129221Y241361D01*
X129193Y241000D01*
X129221Y240639D01*
X129306Y240287D01*
X129444Y239953D01*
X129634Y239644D01*
X129869Y239369D01*
X130144Y239134D01*
X130453Y238944D01*
X130787Y238806D01*
X131139Y238721D01*
X131500Y238693D01*
X131861Y238721D01*
X132213Y238806D01*
X132547Y238944D01*
X132856Y239134D01*
X133131Y239369D01*
X133366Y239644D01*
X133556Y239953D01*
X133694Y240287D01*
X133750Y240520D01*
X133806Y240287D01*
X133944Y239953D01*
X134134Y239644D01*
X134369Y239369D01*
X134644Y239134D01*
X134953Y238944D01*
X135287Y238806D01*
X135639Y238721D01*
X136000Y238693D01*
X136361Y238721D01*
X136713Y238806D01*
X137047Y238944D01*
X137356Y239134D01*
X137631Y239369D01*
X137866Y239644D01*
X138000Y239862D01*
Y239121D01*
X136879Y238000D01*
X129744D01*
X129631Y238131D01*
X129356Y238366D01*
X129047Y238556D01*
X128713Y238694D01*
X128361Y238779D01*
X128000Y238807D01*
X127639Y238779D01*
X127287Y238694D01*
X126953Y238556D01*
X126644Y238366D01*
X126369Y238131D01*
X126134Y237856D01*
X125944Y237547D01*
X125806Y237213D01*
X125721Y236861D01*
X125693Y236500D01*
X125721Y236139D01*
X125806Y235787D01*
X125944Y235453D01*
X126134Y235144D01*
X126369Y234869D01*
X126644Y234634D01*
X126953Y234444D01*
X127287Y234306D01*
X127639Y234221D01*
X128000Y234193D01*
X128361Y234221D01*
X128713Y234306D01*
X129047Y234444D01*
X129356Y234634D01*
X129631Y234869D01*
X129744Y235000D01*
X137441D01*
X137500Y234995D01*
X137735Y235014D01*
X137735Y235014D01*
X137965Y235069D01*
X138183Y235159D01*
X138384Y235283D01*
X138564Y235436D01*
X138602Y235481D01*
X140519Y237398D01*
X140564Y237436D01*
X140717Y237615D01*
X140717Y237616D01*
X140841Y237817D01*
X140931Y238035D01*
X140986Y238265D01*
X141005Y238500D01*
X141000Y238559D01*
Y245500D01*
X183400D01*
Y177800D01*
G37*
G36*
X144442Y317500D02*X163000D01*
Y259500D01*
X144442D01*
Y287250D01*
X149068D01*
X151750Y284568D01*
Y269350D01*
X151280D01*
X151161Y269379D01*
X150800Y269407D01*
X150439Y269379D01*
X150087Y269294D01*
X149753Y269156D01*
X149444Y268966D01*
X149169Y268731D01*
X148934Y268456D01*
X148744Y268147D01*
X148606Y267813D01*
X148521Y267461D01*
X148493Y267100D01*
X148521Y266739D01*
X148606Y266387D01*
X148744Y266053D01*
X148934Y265744D01*
X149169Y265469D01*
X149444Y265234D01*
X149753Y265044D01*
X150087Y264906D01*
X150439Y264821D01*
X150800Y264793D01*
X151161Y264821D01*
X151280Y264850D01*
X153520D01*
X153639Y264821D01*
X154000Y264793D01*
X154361Y264821D01*
X154713Y264906D01*
X155047Y265044D01*
X155356Y265234D01*
X155631Y265469D01*
X155743Y265599D01*
X155769Y265569D01*
X156044Y265334D01*
X156353Y265144D01*
X156687Y265006D01*
X157039Y264921D01*
X157400Y264893D01*
X157761Y264921D01*
X157880Y264950D01*
X160120D01*
X160239Y264921D01*
X160600Y264893D01*
X160961Y264921D01*
X161313Y265006D01*
X161647Y265144D01*
X161956Y265334D01*
X162231Y265569D01*
X162466Y265844D01*
X162656Y266153D01*
X162794Y266487D01*
X162879Y266839D01*
X162900Y267200D01*
X162879Y267561D01*
X162794Y267913D01*
X162656Y268247D01*
X162466Y268556D01*
X162231Y268831D01*
X161956Y269066D01*
X161647Y269256D01*
X161313Y269394D01*
X160961Y269479D01*
X160600Y269507D01*
X160239Y269479D01*
X160120Y269450D01*
X159650D01*
Y290512D01*
X159657Y290600D01*
X159629Y290953D01*
X159546Y291297D01*
X159507Y291393D01*
X159411Y291625D01*
X159296Y291812D01*
X159226Y291927D01*
X159226Y291927D01*
X158996Y292196D01*
X158929Y292253D01*
X156997Y294185D01*
X156986Y300735D01*
X156931Y300965D01*
X156841Y301183D01*
X156717Y301384D01*
X156564Y301564D01*
X156384Y301717D01*
X156183Y301841D01*
X155965Y301931D01*
X155735Y301986D01*
X155500Y302000D01*
X147265Y301986D01*
X147035Y301931D01*
X146817Y301841D01*
X146616Y301717D01*
X146436Y301564D01*
X146283Y301384D01*
X146159Y301183D01*
X146069Y300965D01*
X146014Y300735D01*
X146000Y300500D01*
X146014Y292265D01*
X146069Y292035D01*
X146159Y291817D01*
X146200Y291750D01*
X144442D01*
Y317500D01*
G37*
G36*
X93258D02*X144442D01*
Y291750D01*
X139432D01*
X136641Y294541D01*
X136747Y294795D01*
X136949Y295637D01*
X137000Y296500D01*
X136949Y297363D01*
X136747Y298205D01*
X136416Y299005D01*
X135963Y299743D01*
X135401Y300401D01*
X134743Y300963D01*
X134005Y301416D01*
X133205Y301747D01*
X132363Y301949D01*
X131500Y302017D01*
X130637Y301949D01*
X129795Y301747D01*
X128995Y301416D01*
X128257Y300963D01*
X127599Y300401D01*
X127037Y299743D01*
X126584Y299005D01*
X126253Y298205D01*
X126051Y297363D01*
X125983Y296500D01*
X126051Y295637D01*
X126253Y294795D01*
X126584Y293995D01*
X127037Y293257D01*
X127599Y292599D01*
X128257Y292037D01*
X128995Y291584D01*
X129795Y291253D01*
X130637Y291051D01*
X131500Y290983D01*
X132363Y291051D01*
X133205Y291253D01*
X133459Y291359D01*
X136847Y287971D01*
X136904Y287904D01*
X137173Y287674D01*
X137173Y287674D01*
X137361Y287559D01*
X137475Y287489D01*
X137803Y287354D01*
X138147Y287271D01*
X138147D01*
X138500Y287243D01*
X138588Y287250D01*
X144442D01*
Y259500D01*
X93258D01*
Y285064D01*
X93500Y285045D01*
X94432Y285118D01*
X95340Y285336D01*
X96204Y285694D01*
X97000Y286182D01*
X97711Y286789D01*
X98318Y287500D01*
X98806Y288296D01*
X99164Y289160D01*
X99382Y290068D01*
X99437Y291000D01*
X99382Y291932D01*
X99164Y292840D01*
X98806Y293704D01*
X98318Y294500D01*
X97711Y295211D01*
X97000Y295818D01*
X96204Y296306D01*
X95340Y296664D01*
X94432Y296882D01*
X93500Y296955D01*
X93258Y296936D01*
Y317500D01*
G37*
G36*
X83502D02*X93258D01*
Y296936D01*
X92568Y296882D01*
X91660Y296664D01*
X90796Y296306D01*
X90000Y295818D01*
X89289Y295211D01*
X88682Y294500D01*
X88265Y293821D01*
X88176Y293836D01*
X88018Y293838D01*
X87861Y293815D01*
X87710Y293768D01*
X87569Y293698D01*
X87439Y293607D01*
X87326Y293496D01*
X87232Y293370D01*
X87158Y293230D01*
X87108Y293080D01*
X87081Y292924D01*
X87079Y292766D01*
X87102Y292610D01*
X87152Y292460D01*
X87278Y292108D01*
X87366Y291744D01*
X87419Y291374D01*
X87437Y291000D01*
X87419Y290626D01*
X87366Y290256D01*
X87278Y289892D01*
X87156Y289539D01*
X87106Y289389D01*
X87083Y289234D01*
X87085Y289076D01*
X87112Y288921D01*
X87162Y288772D01*
X87236Y288633D01*
X87330Y288507D01*
X87442Y288397D01*
X87571Y288306D01*
X87712Y288236D01*
X87862Y288189D01*
X88018Y288167D01*
X88175Y288168D01*
X88263Y288183D01*
X88682Y287500D01*
X89289Y286789D01*
X90000Y286182D01*
X90796Y285694D01*
X91660Y285336D01*
X92568Y285118D01*
X93258Y285064D01*
Y259500D01*
X83502D01*
Y285056D01*
X84064Y285083D01*
X84623Y285163D01*
X85172Y285296D01*
X85706Y285481D01*
X85848Y285550D01*
X85977Y285642D01*
X86091Y285752D01*
X86185Y285879D01*
X86259Y286019D01*
X86309Y286168D01*
X86336Y286324D01*
X86338Y286482D01*
X86315Y286639D01*
X86268Y286790D01*
X86198Y286931D01*
X86107Y287061D01*
X85996Y287174D01*
X85870Y287268D01*
X85730Y287342D01*
X85580Y287392D01*
X85424Y287419D01*
X85266Y287421D01*
X85110Y287398D01*
X84960Y287348D01*
X84608Y287222D01*
X84244Y287134D01*
X83874Y287081D01*
X83502Y287063D01*
Y294937D01*
X83874Y294919D01*
X84244Y294866D01*
X84608Y294778D01*
X84961Y294656D01*
X85111Y294606D01*
X85266Y294583D01*
X85424Y294585D01*
X85579Y294612D01*
X85728Y294662D01*
X85867Y294736D01*
X85993Y294830D01*
X86103Y294942D01*
X86194Y295071D01*
X86264Y295212D01*
X86311Y295362D01*
X86333Y295518D01*
X86332Y295675D01*
X86305Y295831D01*
X86254Y295980D01*
X86181Y296119D01*
X86087Y296245D01*
X85975Y296355D01*
X85846Y296446D01*
X85704Y296513D01*
X85172Y296704D01*
X84623Y296837D01*
X84064Y296917D01*
X83502Y296944D01*
Y317500D01*
G37*
G36*
X73742D02*X83502D01*
Y296944D01*
X83500Y296944D01*
X82936Y296917D01*
X82377Y296837D01*
X81828Y296704D01*
X81294Y296519D01*
X81152Y296450D01*
X81023Y296358D01*
X80909Y296248D01*
X80815Y296121D01*
X80741Y295981D01*
X80691Y295832D01*
X80664Y295676D01*
X80662Y295518D01*
X80685Y295361D01*
X80732Y295210D01*
X80802Y295069D01*
X80893Y294939D01*
X81004Y294826D01*
X81130Y294732D01*
X81270Y294658D01*
X81420Y294608D01*
X81576Y294581D01*
X81734Y294579D01*
X81890Y294602D01*
X82040Y294652D01*
X82392Y294778D01*
X82756Y294866D01*
X83126Y294919D01*
X83500Y294937D01*
X83502Y294937D01*
Y287063D01*
X83500Y287063D01*
X83126Y287081D01*
X82756Y287134D01*
X82392Y287222D01*
X82039Y287344D01*
X81889Y287394D01*
X81734Y287417D01*
X81576Y287415D01*
X81421Y287388D01*
X81272Y287338D01*
X81133Y287264D01*
X81007Y287170D01*
X80897Y287058D01*
X80806Y286929D01*
X80736Y286788D01*
X80689Y286638D01*
X80667Y286482D01*
X80668Y286325D01*
X80695Y286169D01*
X80746Y286020D01*
X80819Y285881D01*
X80913Y285755D01*
X81025Y285645D01*
X81154Y285554D01*
X81296Y285487D01*
X81828Y285296D01*
X82377Y285163D01*
X82936Y285083D01*
X83500Y285056D01*
X83502Y285056D01*
Y259500D01*
X73742D01*
Y285072D01*
X77751Y285082D01*
X78057Y285155D01*
X78348Y285275D01*
X78616Y285440D01*
X78856Y285644D01*
X79060Y285884D01*
X79225Y286152D01*
X79345Y286443D01*
X79418Y286749D01*
X79437Y287063D01*
X79434Y288304D01*
X79561Y288393D01*
X79674Y288504D01*
X79768Y288630D01*
X79842Y288770D01*
X79892Y288920D01*
X79919Y289076D01*
X79921Y289234D01*
X79898Y289390D01*
X79848Y289540D01*
X79722Y289892D01*
X79634Y290256D01*
X79581Y290626D01*
X79563Y291000D01*
X79581Y291374D01*
X79634Y291744D01*
X79722Y292108D01*
X79844Y292461D01*
X79894Y292611D01*
X79917Y292766D01*
X79915Y292924D01*
X79888Y293079D01*
X79838Y293228D01*
X79764Y293367D01*
X79670Y293493D01*
X79558Y293603D01*
X79429Y293694D01*
X79422Y293698D01*
X79418Y295251D01*
X79345Y295557D01*
X79225Y295848D01*
X79060Y296116D01*
X78856Y296356D01*
X78616Y296560D01*
X78348Y296725D01*
X78057Y296845D01*
X77751Y296918D01*
X77437Y296937D01*
X73742Y296929D01*
Y317500D01*
G37*
G36*
X67500D02*X73742D01*
Y296929D01*
X69249Y296918D01*
X68943Y296845D01*
X68652Y296725D01*
X68384Y296560D01*
X68144Y296356D01*
X67940Y296116D01*
X67775Y295848D01*
X67655Y295557D01*
X67582Y295251D01*
X67563Y294937D01*
X67582Y286749D01*
X67655Y286443D01*
X67775Y286152D01*
X67940Y285884D01*
X68144Y285644D01*
X68384Y285440D01*
X68652Y285275D01*
X68943Y285155D01*
X69249Y285082D01*
X69563Y285063D01*
X73742Y285072D01*
Y259500D01*
X67500D01*
Y317500D01*
G37*
G36*
X133746Y240505D02*X133750Y240520D01*
X133806Y240287D01*
X133944Y239953D01*
X134134Y239644D01*
X134369Y239369D01*
X134644Y239134D01*
X134953Y238944D01*
X135287Y238806D01*
X135639Y238721D01*
X136000Y238693D01*
X136361Y238721D01*
X136713Y238806D01*
X137047Y238944D01*
X137356Y239134D01*
X137631Y239369D01*
X137866Y239644D01*
X138000Y239862D01*
Y239121D01*
X136879Y238000D01*
X133746D01*
Y240505D01*
G37*
G36*
Y246534D02*X133806Y246287D01*
X133944Y245953D01*
X134134Y245644D01*
X134369Y245369D01*
X134500Y245256D01*
Y242744D01*
X134369Y242631D01*
X134134Y242356D01*
X133944Y242047D01*
X133806Y241713D01*
X133750Y241480D01*
X133746Y241495D01*
Y246534D01*
G37*
G36*
Y285000D02*X151318D01*
X151750Y284568D01*
Y269350D01*
X151280D01*
X151161Y269379D01*
X150800Y269407D01*
X150439Y269379D01*
X150087Y269294D01*
X149753Y269156D01*
X149444Y268966D01*
X149169Y268731D01*
X148934Y268456D01*
X148744Y268147D01*
X148606Y267813D01*
X148521Y267461D01*
X148493Y267100D01*
X148521Y266739D01*
X148606Y266387D01*
X148744Y266053D01*
X148934Y265744D01*
X149169Y265469D01*
X149444Y265234D01*
X149753Y265044D01*
X150087Y264906D01*
X150439Y264821D01*
X150800Y264793D01*
X151161Y264821D01*
X151280Y264850D01*
X153520D01*
X153639Y264821D01*
X154000Y264793D01*
X154361Y264821D01*
X154713Y264906D01*
X155047Y265044D01*
X155356Y265234D01*
X155631Y265469D01*
X155743Y265599D01*
X155769Y265569D01*
X156044Y265334D01*
X156353Y265144D01*
X156687Y265006D01*
X157039Y264921D01*
X157400Y264893D01*
X157761Y264921D01*
X157880Y264950D01*
X160120D01*
X160239Y264921D01*
X160600Y264893D01*
X160961Y264921D01*
X161313Y265006D01*
X161647Y265144D01*
X161956Y265334D01*
X162231Y265569D01*
X162466Y265844D01*
X162656Y266153D01*
X162794Y266487D01*
X162879Y266839D01*
X162900Y267200D01*
X162879Y267561D01*
X162794Y267913D01*
X162656Y268247D01*
X162466Y268556D01*
X162231Y268831D01*
X161956Y269066D01*
X161647Y269256D01*
X161313Y269394D01*
X160961Y269479D01*
X160600Y269507D01*
X160239Y269479D01*
X160120Y269450D01*
X159650D01*
Y285000D01*
X183500D01*
Y227000D01*
X133746D01*
Y235000D01*
X137441D01*
X137500Y234995D01*
X137735Y235014D01*
X137735Y235014D01*
X137965Y235069D01*
X138183Y235159D01*
X138384Y235283D01*
X138564Y235436D01*
X138602Y235481D01*
X140519Y237398D01*
X140564Y237436D01*
X140717Y237615D01*
X140717Y237616D01*
X140841Y237817D01*
X140931Y238035D01*
X140986Y238265D01*
X141005Y238500D01*
X141000Y238559D01*
Y251256D01*
X141131Y251369D01*
X141366Y251644D01*
X141556Y251953D01*
X141694Y252287D01*
X141779Y252639D01*
X141800Y253000D01*
X141779Y253361D01*
X141694Y253713D01*
X141556Y254047D01*
X141366Y254356D01*
X141131Y254631D01*
X140856Y254866D01*
X140547Y255056D01*
X140213Y255194D01*
X139861Y255279D01*
X139500Y255307D01*
X139139Y255279D01*
X138787Y255194D01*
X138453Y255056D01*
X138144Y254866D01*
X137869Y254631D01*
X137634Y254356D01*
X137444Y254047D01*
X137306Y253713D01*
X137221Y253361D01*
X137193Y253000D01*
X137221Y252639D01*
X137306Y252287D01*
X137444Y251953D01*
X137634Y251644D01*
X137869Y251369D01*
X138000Y251256D01*
Y248138D01*
X137866Y248356D01*
X137631Y248631D01*
X137356Y248866D01*
X137047Y249056D01*
X136713Y249194D01*
X136361Y249279D01*
X136000Y249307D01*
X135639Y249279D01*
X135287Y249194D01*
X134953Y249056D01*
X134644Y248866D01*
X134369Y248631D01*
X134134Y248356D01*
X133944Y248047D01*
X133806Y247713D01*
X133746Y247466D01*
Y250005D01*
X133779Y250139D01*
X133800Y250500D01*
X133779Y250861D01*
X133746Y250995D01*
Y285000D01*
G37*
G36*
Y247466D02*X133721Y247361D01*
X133693Y247000D01*
X133721Y246639D01*
X133746Y246534D01*
Y241495D01*
X133694Y241713D01*
X133556Y242047D01*
X133366Y242356D01*
X133131Y242631D01*
X133000Y242744D01*
Y248756D01*
X133131Y248869D01*
X133366Y249144D01*
X133556Y249453D01*
X133694Y249787D01*
X133746Y250005D01*
Y247466D01*
G37*
G36*
X88000Y285000D02*X133746D01*
Y250995D01*
X133694Y251213D01*
X133556Y251547D01*
X133366Y251856D01*
X133131Y252131D01*
X132856Y252366D01*
X132547Y252556D01*
X132213Y252694D01*
X131861Y252779D01*
X131500Y252807D01*
X131139Y252779D01*
X130787Y252694D01*
X130453Y252556D01*
X130144Y252366D01*
X129869Y252131D01*
X129634Y251856D01*
X129444Y251547D01*
X129306Y251213D01*
X129221Y250861D01*
X129193Y250500D01*
X129221Y250139D01*
X129306Y249787D01*
X129444Y249453D01*
X129634Y249144D01*
X129869Y248869D01*
X130000Y248756D01*
Y242744D01*
X129869Y242631D01*
X129634Y242356D01*
X129444Y242047D01*
X129306Y241713D01*
X129221Y241361D01*
X129193Y241000D01*
X129221Y240639D01*
X129306Y240287D01*
X129444Y239953D01*
X129634Y239644D01*
X129869Y239369D01*
X130144Y239134D01*
X130453Y238944D01*
X130787Y238806D01*
X131139Y238721D01*
X131500Y238693D01*
X131861Y238721D01*
X132213Y238806D01*
X132547Y238944D01*
X132856Y239134D01*
X133131Y239369D01*
X133366Y239644D01*
X133556Y239953D01*
X133694Y240287D01*
X133746Y240505D01*
Y238000D01*
X129744D01*
X129631Y238131D01*
X129356Y238366D01*
X129047Y238556D01*
X128713Y238694D01*
X128361Y238779D01*
X128000Y238807D01*
X127639Y238779D01*
X127287Y238694D01*
X126953Y238556D01*
X126644Y238366D01*
X126369Y238131D01*
X126134Y237856D01*
X125944Y237547D01*
X125806Y237213D01*
X125721Y236861D01*
X125693Y236500D01*
X125721Y236139D01*
X125806Y235787D01*
X125944Y235453D01*
X126134Y235144D01*
X126369Y234869D01*
X126644Y234634D01*
X126953Y234444D01*
X127287Y234306D01*
X127639Y234221D01*
X128000Y234193D01*
X128361Y234221D01*
X128713Y234306D01*
X129047Y234444D01*
X129356Y234634D01*
X129631Y234869D01*
X129744Y235000D01*
X133746D01*
Y227000D01*
X123100D01*
Y253700D01*
X123072Y254171D01*
X122962Y254630D01*
X122781Y255066D01*
X122535Y255469D01*
X122228Y255828D01*
X121869Y256135D01*
X121466Y256381D01*
X121030Y256562D01*
X120571Y256672D01*
X120100Y256709D01*
X119629Y256672D01*
X119170Y256562D01*
X118734Y256381D01*
X118331Y256135D01*
X117972Y255828D01*
X117665Y255469D01*
X117419Y255066D01*
X117238Y254630D01*
X117128Y254171D01*
X117100Y253700D01*
Y227000D01*
X88000D01*
Y231256D01*
X88144Y231134D01*
X88453Y230944D01*
X88787Y230806D01*
X89139Y230721D01*
X89500Y230693D01*
X89861Y230721D01*
X90213Y230806D01*
X90547Y230944D01*
X90856Y231134D01*
X91131Y231369D01*
X91366Y231644D01*
X91556Y231953D01*
X91694Y232287D01*
X91779Y232639D01*
X91800Y233000D01*
X91779Y233361D01*
X91694Y233713D01*
X91556Y234047D01*
X91366Y234356D01*
X91131Y234631D01*
X90856Y234866D01*
X90547Y235056D01*
X90213Y235194D01*
X89861Y235279D01*
X89500Y235307D01*
X89139Y235279D01*
X88787Y235194D01*
X88453Y235056D01*
X88144Y234866D01*
X88000Y234744D01*
Y285000D01*
G37*
G36*
X81500Y38000D02*X60746D01*
Y224625D01*
X66828Y230706D01*
X67000Y230693D01*
X67361Y230721D01*
X67713Y230806D01*
X68047Y230944D01*
X68356Y231134D01*
X68631Y231369D01*
X68866Y231644D01*
X69056Y231953D01*
X69194Y232287D01*
X69279Y232639D01*
X69300Y233000D01*
X69279Y233361D01*
X69194Y233713D01*
X69056Y234047D01*
X68866Y234356D01*
X68631Y234631D01*
X68356Y234866D01*
X68047Y235056D01*
X67713Y235194D01*
X67361Y235279D01*
X67000Y235307D01*
X66639Y235279D01*
X66287Y235194D01*
X65953Y235056D01*
X65644Y234866D01*
X65369Y234631D01*
X65134Y234356D01*
X64944Y234047D01*
X64806Y233713D01*
X64721Y233361D01*
X64693Y233000D01*
X64706Y232828D01*
X60746Y228868D01*
Y285000D01*
X81500D01*
Y234500D01*
X79459D01*
X79400Y234505D01*
X79165Y234486D01*
X78935Y234431D01*
X78717Y234341D01*
X78516Y234217D01*
X78515Y234217D01*
X78336Y234064D01*
X78298Y234019D01*
X76000Y231721D01*
Y239041D01*
X76005Y239100D01*
X75986Y239335D01*
X75931Y239565D01*
X75841Y239783D01*
X75717Y239984D01*
X75564Y240164D01*
X75519Y240202D01*
X73102Y242619D01*
X73064Y242664D01*
X72884Y242817D01*
X72683Y242941D01*
X72465Y243031D01*
X72235Y243086D01*
X72000Y243105D01*
X71941Y243100D01*
X71744D01*
X71631Y243231D01*
X71356Y243466D01*
X71047Y243656D01*
X70713Y243794D01*
X70361Y243879D01*
X70000Y243907D01*
X69639Y243879D01*
X69287Y243794D01*
X68953Y243656D01*
X68644Y243466D01*
X68369Y243231D01*
X68134Y242956D01*
X67944Y242647D01*
X67806Y242313D01*
X67721Y241961D01*
X67693Y241600D01*
X67721Y241239D01*
X67806Y240887D01*
X67944Y240553D01*
X68134Y240244D01*
X68369Y239969D01*
X68644Y239734D01*
X68953Y239544D01*
X69287Y239406D01*
X69639Y239321D01*
X70000Y239293D01*
X70361Y239321D01*
X70713Y239406D01*
X71047Y239544D01*
X71356Y239734D01*
X71566Y239913D01*
X73000Y238479D01*
Y220138D01*
X72866Y220356D01*
X72631Y220631D01*
X72356Y220866D01*
X72047Y221056D01*
X71713Y221194D01*
X71361Y221279D01*
X71000Y221307D01*
X70639Y221279D01*
X70287Y221194D01*
X69953Y221056D01*
X69644Y220866D01*
X69369Y220631D01*
X69134Y220356D01*
X68944Y220047D01*
X68806Y219713D01*
X68721Y219361D01*
X68693Y219000D01*
X68706Y218828D01*
X67481Y217602D01*
X67436Y217564D01*
X67283Y217384D01*
X67159Y217183D01*
X67069Y216965D01*
X67014Y216735D01*
X67014Y216735D01*
X66995Y216500D01*
X67000Y216441D01*
Y210244D01*
X66869Y210131D01*
X66634Y209856D01*
X66444Y209547D01*
X66306Y209213D01*
X66221Y208861D01*
X66193Y208500D01*
X66221Y208139D01*
X66306Y207787D01*
X66444Y207453D01*
X66634Y207144D01*
X66869Y206869D01*
X67144Y206634D01*
X67453Y206444D01*
X67787Y206306D01*
X68020Y206250D01*
X67787Y206194D01*
X67453Y206056D01*
X67144Y205866D01*
X66869Y205631D01*
X66634Y205356D01*
X66444Y205047D01*
X66306Y204713D01*
X66221Y204361D01*
X66193Y204000D01*
X66221Y203639D01*
X66306Y203287D01*
X66444Y202953D01*
X66634Y202644D01*
X66869Y202369D01*
X67144Y202134D01*
X67453Y201944D01*
X67787Y201806D01*
X68139Y201721D01*
X68500Y201693D01*
X68861Y201721D01*
X69213Y201806D01*
X69547Y201944D01*
X69856Y202134D01*
X70131Y202369D01*
X70366Y202644D01*
X70556Y202953D01*
X70694Y203287D01*
X70750Y203520D01*
X70806Y203287D01*
X70944Y202953D01*
X71134Y202644D01*
X71369Y202369D01*
X71644Y202134D01*
X71953Y201944D01*
X72287Y201806D01*
X72639Y201721D01*
X73000Y201693D01*
X73361Y201721D01*
X73713Y201806D01*
X74047Y201944D01*
X74356Y202134D01*
X74631Y202369D01*
X74866Y202644D01*
X75056Y202953D01*
X75194Y203287D01*
X75279Y203639D01*
X75300Y204000D01*
X75279Y204361D01*
X75194Y204713D01*
X75056Y205047D01*
X74866Y205356D01*
X74631Y205631D01*
X74500Y205744D01*
Y207379D01*
X75519Y208398D01*
X75564Y208436D01*
X75646Y208532D01*
X75953Y208344D01*
X76287Y208206D01*
X76639Y208121D01*
X77000Y208093D01*
X77361Y208121D01*
X77713Y208206D01*
X78047Y208344D01*
X78356Y208534D01*
X78631Y208769D01*
X78866Y209044D01*
X79056Y209353D01*
X79194Y209687D01*
X79279Y210039D01*
X79300Y210400D01*
X79279Y210761D01*
X79194Y211113D01*
X79056Y211447D01*
X78866Y211756D01*
X78631Y212031D01*
X78500Y212144D01*
Y229979D01*
X80021Y231500D01*
X81500D01*
Y132121D01*
X71481Y122102D01*
X71436Y122064D01*
X71283Y121884D01*
X71159Y121683D01*
X71069Y121465D01*
X71014Y121235D01*
X71014Y121235D01*
X70995Y121000D01*
X71000Y120941D01*
Y117244D01*
X70869Y117131D01*
X70634Y116856D01*
X70444Y116547D01*
X70306Y116213D01*
X70221Y115861D01*
X70193Y115500D01*
X70221Y115139D01*
X70306Y114787D01*
X70444Y114453D01*
X70634Y114144D01*
X70869Y113869D01*
X71144Y113634D01*
X71453Y113444D01*
X71787Y113306D01*
X72139Y113221D01*
X72500Y113193D01*
X72861Y113221D01*
X73213Y113306D01*
X73547Y113444D01*
X73856Y113634D01*
X74131Y113869D01*
X74366Y114144D01*
X74556Y114453D01*
X74694Y114787D01*
X74779Y115139D01*
X74800Y115500D01*
X74779Y115861D01*
X74694Y116213D01*
X74556Y116547D01*
X74366Y116856D01*
X74131Y117131D01*
X74000Y117244D01*
Y120379D01*
X81500Y127879D01*
Y62138D01*
X81366Y62356D01*
X81131Y62631D01*
X80856Y62866D01*
X80547Y63056D01*
X80213Y63194D01*
X79861Y63279D01*
X79500Y63307D01*
X79139Y63279D01*
X78787Y63194D01*
X78453Y63056D01*
X78144Y62866D01*
X77869Y62631D01*
X77634Y62356D01*
X77444Y62047D01*
X77306Y61713D01*
X77221Y61361D01*
X77193Y61000D01*
X77221Y60639D01*
X77306Y60287D01*
X77444Y59953D01*
X77634Y59644D01*
X77869Y59369D01*
X78000Y59256D01*
Y52559D01*
X77995Y52500D01*
X78014Y52265D01*
X78069Y52035D01*
X78159Y51817D01*
X78283Y51616D01*
X78436Y51436D01*
X78481Y51398D01*
X81500Y48379D01*
Y38000D01*
G37*
G36*
X60746D02*X27993D01*
Y48305D01*
X28416Y48995D01*
X28747Y49795D01*
X28949Y50637D01*
X29000Y51500D01*
X28949Y52363D01*
X28747Y53205D01*
X28416Y54005D01*
X27993Y54695D01*
Y66080D01*
X28183Y66159D01*
X28384Y66283D01*
X28564Y66436D01*
X28717Y66616D01*
X28841Y66817D01*
X28931Y67035D01*
X28986Y67265D01*
X29000Y67500D01*
X28986Y75735D01*
X28931Y75965D01*
X28841Y76183D01*
X28717Y76384D01*
X28564Y76564D01*
X28384Y76717D01*
X28183Y76841D01*
X27993Y76920D01*
Y88305D01*
X28416Y88995D01*
X28747Y89795D01*
X28949Y90637D01*
X29000Y91500D01*
X28949Y92363D01*
X28747Y93205D01*
X28416Y94005D01*
X27993Y94695D01*
Y106080D01*
X28183Y106159D01*
X28384Y106283D01*
X28564Y106436D01*
X28717Y106616D01*
X28841Y106817D01*
X28931Y107035D01*
X28986Y107265D01*
X29000Y107500D01*
X28986Y115735D01*
X28931Y115965D01*
X28841Y116183D01*
X28717Y116384D01*
X28564Y116564D01*
X28384Y116717D01*
X28183Y116841D01*
X27993Y116920D01*
Y143805D01*
X28416Y144495D01*
X28747Y145295D01*
X28949Y146137D01*
X29000Y147000D01*
X28949Y147863D01*
X28747Y148705D01*
X28416Y149505D01*
X27993Y150195D01*
Y163805D01*
X28416Y164495D01*
X28747Y165295D01*
X28949Y166137D01*
X29000Y167000D01*
X28949Y167863D01*
X28747Y168705D01*
X28416Y169505D01*
X27993Y170195D01*
Y181580D01*
X28183Y181659D01*
X28384Y181783D01*
X28564Y181936D01*
X28717Y182116D01*
X28841Y182317D01*
X28931Y182535D01*
X28986Y182765D01*
X29000Y183000D01*
X28986Y191235D01*
X28931Y191465D01*
X28841Y191683D01*
X28717Y191884D01*
X28564Y192064D01*
X28384Y192217D01*
X28183Y192341D01*
X27993Y192420D01*
Y203805D01*
X28416Y204495D01*
X28747Y205295D01*
X28949Y206137D01*
X29000Y207000D01*
X28949Y207863D01*
X28747Y208705D01*
X28416Y209505D01*
X27993Y210195D01*
Y221580D01*
X28183Y221659D01*
X28384Y221783D01*
X28564Y221936D01*
X28717Y222116D01*
X28841Y222317D01*
X28931Y222535D01*
X28986Y222765D01*
X29000Y223000D01*
X28986Y231235D01*
X28931Y231465D01*
X28841Y231683D01*
X28717Y231884D01*
X28564Y232064D01*
X28384Y232217D01*
X28183Y232341D01*
X27993Y232420D01*
Y251645D01*
X28078Y251681D01*
X28179Y251743D01*
X28269Y251819D01*
X28345Y251909D01*
X28405Y252011D01*
X28622Y252480D01*
X28789Y252969D01*
X28909Y253472D01*
X28982Y253984D01*
X29006Y254500D01*
X28982Y255016D01*
X28909Y255528D01*
X28789Y256031D01*
X28622Y256520D01*
X28410Y256992D01*
X28349Y257093D01*
X28272Y257184D01*
X28182Y257261D01*
X28080Y257323D01*
X27993Y257360D01*
Y269080D01*
X28183Y269159D01*
X28384Y269283D01*
X28564Y269436D01*
X28717Y269616D01*
X28841Y269817D01*
X28931Y270035D01*
X28986Y270265D01*
X29000Y270500D01*
X28986Y278735D01*
X28931Y278965D01*
X28841Y279183D01*
X28717Y279384D01*
X28564Y279564D01*
X28384Y279717D01*
X28183Y279841D01*
X27993Y279920D01*
Y285000D01*
X60746D01*
Y228868D01*
X54672Y222794D01*
X54500Y222807D01*
X54139Y222779D01*
X53787Y222694D01*
X53453Y222556D01*
X53144Y222366D01*
X52869Y222131D01*
X52634Y221856D01*
X52444Y221547D01*
X52306Y221213D01*
X52221Y220861D01*
X52193Y220500D01*
X52221Y220139D01*
X52306Y219787D01*
X52444Y219453D01*
X52634Y219144D01*
X52869Y218869D01*
X53144Y218634D01*
X53453Y218444D01*
X53787Y218306D01*
X54139Y218221D01*
X54500Y218193D01*
X54861Y218221D01*
X55213Y218306D01*
X55547Y218444D01*
X55856Y218634D01*
X56131Y218869D01*
X56366Y219144D01*
X56556Y219453D01*
X56694Y219787D01*
X56779Y220139D01*
X56800Y220500D01*
X56790Y220669D01*
X60746Y224625D01*
Y38000D01*
G37*
G36*
X27993Y279920D02*X27965Y279931D01*
X27735Y279986D01*
X27500Y280000D01*
X23500Y279993D01*
Y285000D01*
X27993D01*
Y279920D01*
G37*
G36*
Y232420D02*X27965Y232431D01*
X27735Y232486D01*
X27500Y232500D01*
X23500Y232493D01*
Y248994D01*
X24016Y249018D01*
X24528Y249091D01*
X25031Y249211D01*
X25520Y249378D01*
X25992Y249590D01*
X26093Y249651D01*
X26184Y249728D01*
X26261Y249818D01*
X26323Y249920D01*
X26369Y250029D01*
X26397Y250145D01*
X26406Y250263D01*
X26397Y250381D01*
X26370Y250497D01*
X26324Y250607D01*
X26262Y250708D01*
X26186Y250798D01*
X26095Y250876D01*
X25994Y250938D01*
X25885Y250984D01*
X25769Y251011D01*
X25651Y251021D01*
X25532Y251012D01*
X25417Y250984D01*
X25308Y250937D01*
X24968Y250779D01*
X24612Y250658D01*
X24247Y250570D01*
X23875Y250518D01*
X23500Y250500D01*
Y258500D01*
X23875Y258482D01*
X24247Y258430D01*
X24612Y258342D01*
X24968Y258221D01*
X25310Y258067D01*
X25418Y258020D01*
X25533Y257993D01*
X25651Y257983D01*
X25768Y257993D01*
X25883Y258021D01*
X25992Y258066D01*
X26093Y258128D01*
X26182Y258205D01*
X26259Y258295D01*
X26320Y258395D01*
X26365Y258504D01*
X26393Y258619D01*
X26402Y258737D01*
X26392Y258855D01*
X26365Y258969D01*
X26319Y259078D01*
X26257Y259179D01*
X26181Y259269D01*
X26091Y259345D01*
X25989Y259405D01*
X25520Y259622D01*
X25031Y259789D01*
X24528Y259909D01*
X24016Y259982D01*
X23500Y260006D01*
Y269007D01*
X27735Y269014D01*
X27965Y269069D01*
X27993Y269080D01*
Y257360D01*
X27971Y257369D01*
X27855Y257397D01*
X27737Y257406D01*
X27619Y257397D01*
X27503Y257370D01*
X27393Y257324D01*
X27292Y257262D01*
X27202Y257186D01*
X27124Y257095D01*
X27062Y256994D01*
X27016Y256885D01*
X26989Y256769D01*
X26979Y256651D01*
X26988Y256532D01*
X27016Y256417D01*
X27063Y256308D01*
X27221Y255968D01*
X27342Y255612D01*
X27430Y255247D01*
X27482Y254875D01*
X27500Y254500D01*
X27482Y254125D01*
X27430Y253753D01*
X27342Y253388D01*
X27221Y253032D01*
X27067Y252690D01*
X27020Y252582D01*
X26993Y252467D01*
X26983Y252349D01*
X26993Y252232D01*
X27021Y252117D01*
X27066Y252008D01*
X27128Y251907D01*
X27205Y251818D01*
X27295Y251741D01*
X27395Y251680D01*
X27504Y251635D01*
X27619Y251607D01*
X27737Y251598D01*
X27855Y251608D01*
X27969Y251635D01*
X27993Y251645D01*
Y232420D01*
G37*
G36*
Y210195D02*X27963Y210243D01*
X27401Y210901D01*
X26743Y211463D01*
X26005Y211916D01*
X25205Y212247D01*
X24363Y212449D01*
X23500Y212517D01*
Y221507D01*
X27735Y221514D01*
X27965Y221569D01*
X27993Y221580D01*
Y210195D01*
G37*
G36*
Y192420D02*X27965Y192431D01*
X27735Y192486D01*
X27500Y192500D01*
X23500Y192493D01*
Y201483D01*
X24363Y201551D01*
X25205Y201753D01*
X26005Y202084D01*
X26743Y202537D01*
X27401Y203099D01*
X27963Y203757D01*
X27993Y203805D01*
Y192420D01*
G37*
G36*
Y170195D02*X27963Y170243D01*
X27401Y170901D01*
X26743Y171463D01*
X26005Y171916D01*
X25205Y172247D01*
X24363Y172449D01*
X23500Y172517D01*
Y181507D01*
X27735Y181514D01*
X27965Y181569D01*
X27993Y181580D01*
Y170195D01*
G37*
G36*
Y150195D02*X27963Y150243D01*
X27401Y150901D01*
X26743Y151463D01*
X26005Y151916D01*
X25205Y152247D01*
X24363Y152449D01*
X23500Y152517D01*
Y161483D01*
X24363Y161551D01*
X25205Y161753D01*
X26005Y162084D01*
X26743Y162537D01*
X27401Y163099D01*
X27963Y163757D01*
X27993Y163805D01*
Y150195D01*
G37*
G36*
Y116920D02*X27965Y116931D01*
X27735Y116986D01*
X27500Y117000D01*
X23500Y116993D01*
Y141483D01*
X24363Y141551D01*
X25205Y141753D01*
X26005Y142084D01*
X26743Y142537D01*
X27401Y143099D01*
X27963Y143757D01*
X27993Y143805D01*
Y116920D01*
G37*
G36*
Y94695D02*X27963Y94743D01*
X27401Y95401D01*
X26743Y95963D01*
X26005Y96416D01*
X25205Y96747D01*
X24363Y96949D01*
X23500Y97017D01*
Y106007D01*
X27735Y106014D01*
X27965Y106069D01*
X27993Y106080D01*
Y94695D01*
G37*
G36*
Y76920D02*X27965Y76931D01*
X27735Y76986D01*
X27500Y77000D01*
X23500Y76993D01*
Y85983D01*
X24363Y86051D01*
X25205Y86253D01*
X26005Y86584D01*
X26743Y87037D01*
X27401Y87599D01*
X27963Y88257D01*
X27993Y88305D01*
Y76920D01*
G37*
G36*
Y54695D02*X27963Y54743D01*
X27401Y55401D01*
X26743Y55963D01*
X26005Y56416D01*
X25205Y56747D01*
X24363Y56949D01*
X23500Y57017D01*
Y66007D01*
X27735Y66014D01*
X27965Y66069D01*
X27993Y66080D01*
Y54695D01*
G37*
G36*
Y38000D02*X23500D01*
Y45983D01*
X24363Y46051D01*
X25205Y46253D01*
X26005Y46584D01*
X26743Y47037D01*
X27401Y47599D01*
X27963Y48257D01*
X27993Y48305D01*
Y38000D01*
G37*
G36*
X19007Y66080D02*X19035Y66069D01*
X19265Y66014D01*
X19500Y66000D01*
X23500Y66007D01*
Y57017D01*
X22637Y56949D01*
X21795Y56747D01*
X20995Y56416D01*
X20257Y55963D01*
X19599Y55401D01*
X19037Y54743D01*
X19007Y54695D01*
Y66080D01*
G37*
G36*
Y88305D02*X19037Y88257D01*
X19599Y87599D01*
X20257Y87037D01*
X20995Y86584D01*
X21795Y86253D01*
X22637Y86051D01*
X23500Y85983D01*
Y76993D01*
X19265Y76986D01*
X19035Y76931D01*
X19007Y76920D01*
Y88305D01*
G37*
G36*
Y106080D02*X19035Y106069D01*
X19265Y106014D01*
X19500Y106000D01*
X23500Y106007D01*
Y97017D01*
X22637Y96949D01*
X21795Y96747D01*
X20995Y96416D01*
X20257Y95963D01*
X19599Y95401D01*
X19037Y94743D01*
X19007Y94695D01*
Y106080D01*
G37*
G36*
Y143805D02*X19037Y143757D01*
X19599Y143099D01*
X20257Y142537D01*
X20995Y142084D01*
X21795Y141753D01*
X22637Y141551D01*
X23500Y141483D01*
Y116993D01*
X19265Y116986D01*
X19035Y116931D01*
X19007Y116920D01*
Y143805D01*
G37*
G36*
Y163805D02*X19037Y163757D01*
X19599Y163099D01*
X20257Y162537D01*
X20995Y162084D01*
X21795Y161753D01*
X22637Y161551D01*
X23500Y161483D01*
Y152517D01*
X22637Y152449D01*
X21795Y152247D01*
X20995Y151916D01*
X20257Y151463D01*
X19599Y150901D01*
X19037Y150243D01*
X19007Y150195D01*
Y163805D01*
G37*
G36*
Y181580D02*X19035Y181569D01*
X19265Y181514D01*
X19500Y181500D01*
X23500Y181507D01*
Y172517D01*
X22637Y172449D01*
X21795Y172247D01*
X20995Y171916D01*
X20257Y171463D01*
X19599Y170901D01*
X19037Y170243D01*
X19007Y170195D01*
Y181580D01*
G37*
G36*
Y203805D02*X19037Y203757D01*
X19599Y203099D01*
X20257Y202537D01*
X20995Y202084D01*
X21795Y201753D01*
X22637Y201551D01*
X23500Y201483D01*
Y192493D01*
X19265Y192486D01*
X19035Y192431D01*
X19007Y192420D01*
Y203805D01*
G37*
G36*
Y221580D02*X19035Y221569D01*
X19265Y221514D01*
X19500Y221500D01*
X23500Y221507D01*
Y212517D01*
X22637Y212449D01*
X21795Y212247D01*
X20995Y211916D01*
X20257Y211463D01*
X19599Y210901D01*
X19037Y210243D01*
X19007Y210195D01*
Y221580D01*
G37*
G36*
Y269080D02*X19035Y269069D01*
X19265Y269014D01*
X19500Y269000D01*
X23500Y269007D01*
Y260006D01*
X23500D01*
X22984Y259982D01*
X22472Y259909D01*
X21969Y259789D01*
X21480Y259622D01*
X21008Y259410D01*
X20907Y259349D01*
X20816Y259272D01*
X20739Y259182D01*
X20677Y259080D01*
X20631Y258971D01*
X20603Y258855D01*
X20594Y258737D01*
X20603Y258619D01*
X20630Y258503D01*
X20676Y258393D01*
X20738Y258292D01*
X20814Y258202D01*
X20905Y258124D01*
X21006Y258062D01*
X21115Y258016D01*
X21231Y257989D01*
X21349Y257979D01*
X21468Y257988D01*
X21583Y258016D01*
X21692Y258063D01*
X22032Y258221D01*
X22388Y258342D01*
X22753Y258430D01*
X23125Y258482D01*
X23500Y258500D01*
Y250500D01*
X23125Y250518D01*
X22753Y250570D01*
X22388Y250658D01*
X22032Y250779D01*
X21690Y250933D01*
X21582Y250980D01*
X21467Y251007D01*
X21349Y251017D01*
X21232Y251007D01*
X21117Y250979D01*
X21008Y250934D01*
X20907Y250872D01*
X20818Y250795D01*
X20741Y250705D01*
X20680Y250605D01*
X20635Y250496D01*
X20607Y250381D01*
X20598Y250263D01*
X20608Y250145D01*
X20635Y250031D01*
X20681Y249922D01*
X20743Y249821D01*
X20819Y249731D01*
X20909Y249655D01*
X21011Y249595D01*
X21480Y249378D01*
X21969Y249211D01*
X22472Y249091D01*
X22984Y249018D01*
X23500Y248994D01*
X23500D01*
Y232493D01*
X19265Y232486D01*
X19035Y232431D01*
X19007Y232420D01*
Y251640D01*
X19029Y251631D01*
X19145Y251603D01*
X19263Y251594D01*
X19381Y251603D01*
X19497Y251630D01*
X19607Y251676D01*
X19708Y251738D01*
X19798Y251814D01*
X19876Y251905D01*
X19938Y252006D01*
X19984Y252115D01*
X20011Y252231D01*
X20021Y252349D01*
X20012Y252468D01*
X19984Y252583D01*
X19937Y252692D01*
X19779Y253032D01*
X19658Y253388D01*
X19570Y253753D01*
X19518Y254125D01*
X19500Y254500D01*
X19518Y254875D01*
X19570Y255247D01*
X19658Y255612D01*
X19779Y255968D01*
X19933Y256310D01*
X19980Y256418D01*
X20007Y256533D01*
X20017Y256651D01*
X20007Y256768D01*
X19979Y256883D01*
X19934Y256992D01*
X19872Y257093D01*
X19795Y257182D01*
X19705Y257259D01*
X19605Y257320D01*
X19496Y257365D01*
X19381Y257393D01*
X19263Y257402D01*
X19145Y257392D01*
X19031Y257365D01*
X19007Y257355D01*
Y269080D01*
G37*
G36*
Y285000D02*X23500D01*
Y279993D01*
X19265Y279986D01*
X19035Y279931D01*
X19007Y279920D01*
Y285000D01*
G37*
G36*
X23500Y38000D02*X19007D01*
Y48305D01*
X19037Y48257D01*
X19599Y47599D01*
X20257Y47037D01*
X20995Y46584D01*
X21795Y46253D01*
X22637Y46051D01*
X23500Y45983D01*
Y38000D01*
G37*
G36*
X19007D02*X2500D01*
Y285000D01*
X19007D01*
Y279920D01*
X18817Y279841D01*
X18616Y279717D01*
X18436Y279564D01*
X18283Y279384D01*
X18159Y279183D01*
X18069Y278965D01*
X18014Y278735D01*
X18000Y278500D01*
X18014Y270265D01*
X18069Y270035D01*
X18159Y269817D01*
X18283Y269616D01*
X18436Y269436D01*
X18616Y269283D01*
X18817Y269159D01*
X19007Y269080D01*
Y257355D01*
X18922Y257319D01*
X18821Y257257D01*
X18731Y257181D01*
X18655Y257091D01*
X18595Y256989D01*
X18378Y256520D01*
X18211Y256031D01*
X18091Y255528D01*
X18018Y255016D01*
X17994Y254500D01*
X18018Y253984D01*
X18091Y253472D01*
X18211Y252969D01*
X18378Y252480D01*
X18590Y252008D01*
X18651Y251907D01*
X18728Y251816D01*
X18818Y251739D01*
X18920Y251677D01*
X19007Y251640D01*
Y232420D01*
X18817Y232341D01*
X18616Y232217D01*
X18436Y232064D01*
X18283Y231884D01*
X18159Y231683D01*
X18069Y231465D01*
X18014Y231235D01*
X18000Y231000D01*
X18014Y222765D01*
X18069Y222535D01*
X18159Y222317D01*
X18283Y222116D01*
X18436Y221936D01*
X18616Y221783D01*
X18817Y221659D01*
X19007Y221580D01*
Y210195D01*
X18584Y209505D01*
X18253Y208705D01*
X18051Y207863D01*
X17983Y207000D01*
X18051Y206137D01*
X18253Y205295D01*
X18584Y204495D01*
X19007Y203805D01*
Y192420D01*
X18817Y192341D01*
X18616Y192217D01*
X18436Y192064D01*
X18283Y191884D01*
X18159Y191683D01*
X18069Y191465D01*
X18014Y191235D01*
X18000Y191000D01*
X18014Y182765D01*
X18069Y182535D01*
X18159Y182317D01*
X18283Y182116D01*
X18436Y181936D01*
X18616Y181783D01*
X18817Y181659D01*
X19007Y181580D01*
Y170195D01*
X18584Y169505D01*
X18253Y168705D01*
X18051Y167863D01*
X17983Y167000D01*
X18051Y166137D01*
X18253Y165295D01*
X18584Y164495D01*
X19007Y163805D01*
Y150195D01*
X18584Y149505D01*
X18253Y148705D01*
X18051Y147863D01*
X17983Y147000D01*
X18051Y146137D01*
X18253Y145295D01*
X18584Y144495D01*
X19007Y143805D01*
Y116920D01*
X18817Y116841D01*
X18616Y116717D01*
X18436Y116564D01*
X18283Y116384D01*
X18159Y116183D01*
X18069Y115965D01*
X18014Y115735D01*
X18000Y115500D01*
X18014Y107265D01*
X18069Y107035D01*
X18159Y106817D01*
X18283Y106616D01*
X18436Y106436D01*
X18616Y106283D01*
X18817Y106159D01*
X19007Y106080D01*
Y94695D01*
X18584Y94005D01*
X18253Y93205D01*
X18051Y92363D01*
X17983Y91500D01*
X18051Y90637D01*
X18253Y89795D01*
X18584Y88995D01*
X19007Y88305D01*
Y76920D01*
X18817Y76841D01*
X18616Y76717D01*
X18436Y76564D01*
X18283Y76384D01*
X18159Y76183D01*
X18069Y75965D01*
X18014Y75735D01*
X18000Y75500D01*
X18014Y67265D01*
X18069Y67035D01*
X18159Y66817D01*
X18283Y66616D01*
X18436Y66436D01*
X18616Y66283D01*
X18817Y66159D01*
X19007Y66080D01*
Y54695D01*
X18584Y54005D01*
X18253Y53205D01*
X18051Y52363D01*
X17983Y51500D01*
X18051Y50637D01*
X18253Y49795D01*
X18584Y48995D01*
X19007Y48305D01*
Y38000D01*
G37*
G36*
X83746Y130125D02*X88519Y134898D01*
X88564Y134936D01*
X88717Y135115D01*
X88717Y135116D01*
X88841Y135317D01*
X88931Y135535D01*
X88986Y135765D01*
X89005Y136000D01*
X89000Y136059D01*
Y140256D01*
X89131Y140369D01*
X89366Y140644D01*
X89500Y140862D01*
X89634Y140644D01*
X89869Y140369D01*
X90000Y140256D01*
Y130007D01*
X89727Y129773D01*
X89471Y129474D01*
X89266Y129138D01*
X89115Y128775D01*
X89023Y128392D01*
X88992Y128000D01*
X89023Y127608D01*
X89115Y127225D01*
X89266Y126862D01*
X89471Y126526D01*
X89727Y126227D01*
X90026Y125971D01*
X90362Y125766D01*
X90725Y125615D01*
X91108Y125523D01*
X91500Y125492D01*
X91892Y125523D01*
X92000Y125549D01*
Y89500D01*
X91621D01*
X90500Y90621D01*
Y116756D01*
X90631Y116869D01*
X90866Y117144D01*
X91056Y117453D01*
X91194Y117787D01*
X91279Y118139D01*
X91300Y118500D01*
X91279Y118861D01*
X91194Y119213D01*
X91056Y119547D01*
X90866Y119856D01*
X90631Y120131D01*
X90356Y120366D01*
X90047Y120556D01*
X89713Y120694D01*
X89361Y120779D01*
X89000Y120807D01*
X88639Y120779D01*
X88287Y120694D01*
X88000Y120575D01*
Y123256D01*
X88131Y123369D01*
X88366Y123644D01*
X88556Y123953D01*
X88694Y124287D01*
X88779Y124639D01*
X88800Y125000D01*
X88779Y125361D01*
X88694Y125713D01*
X88556Y126047D01*
X88366Y126356D01*
X88131Y126631D01*
X87856Y126866D01*
X87547Y127056D01*
X87213Y127194D01*
X86861Y127279D01*
X86500Y127307D01*
X86139Y127279D01*
X85787Y127194D01*
X85453Y127056D01*
X85144Y126866D01*
X84869Y126631D01*
X84634Y126356D01*
X84444Y126047D01*
X84306Y125713D01*
X84221Y125361D01*
X84193Y125000D01*
X84221Y124639D01*
X84306Y124287D01*
X84444Y123953D01*
X84634Y123644D01*
X84869Y123369D01*
X85000Y123256D01*
Y88059D01*
X84995Y88000D01*
X85014Y87765D01*
X85069Y87535D01*
X85159Y87317D01*
X85283Y87116D01*
X85436Y86936D01*
X85481Y86898D01*
X88398Y83981D01*
X88436Y83936D01*
X88616Y83783D01*
X88817Y83659D01*
X89035Y83569D01*
X89265Y83514D01*
X89500Y83495D01*
X89559Y83500D01*
X92000D01*
Y38500D01*
X83746D01*
Y47500D01*
X86256D01*
X86369Y47369D01*
X86644Y47134D01*
X86953Y46944D01*
X87287Y46806D01*
X87639Y46721D01*
X88000Y46693D01*
X88361Y46721D01*
X88713Y46806D01*
X89047Y46944D01*
X89356Y47134D01*
X89631Y47369D01*
X89866Y47644D01*
X90056Y47953D01*
X90194Y48287D01*
X90279Y48639D01*
X90300Y49000D01*
X90279Y49361D01*
X90194Y49713D01*
X90056Y50047D01*
X89866Y50356D01*
X89631Y50631D01*
X89356Y50866D01*
X89047Y51056D01*
X88713Y51194D01*
X88361Y51279D01*
X88000Y51307D01*
X87639Y51279D01*
X87287Y51194D01*
X86953Y51056D01*
X86644Y50866D01*
X86369Y50631D01*
X86256Y50500D01*
X83746D01*
Y130125D01*
G37*
G36*
X86000Y140256D02*Y136621D01*
X83746Y134368D01*
Y231500D01*
X87756D01*
X87869Y231369D01*
X88144Y231134D01*
X88453Y230944D01*
X88787Y230806D01*
X89139Y230721D01*
X89500Y230693D01*
X89861Y230721D01*
X90213Y230806D01*
X90547Y230944D01*
X90856Y231134D01*
X91131Y231369D01*
X91366Y231644D01*
X91556Y231953D01*
X91694Y232287D01*
X91779Y232639D01*
X91800Y233000D01*
X91779Y233361D01*
X91694Y233713D01*
X91556Y234047D01*
X91366Y234356D01*
X91131Y234631D01*
X90856Y234866D01*
X90547Y235056D01*
X90213Y235194D01*
X89861Y235279D01*
X89500Y235307D01*
X89139Y235279D01*
X88787Y235194D01*
X88453Y235056D01*
X88144Y234866D01*
X87869Y234631D01*
X87756Y234500D01*
X83746D01*
Y285068D01*
X84064Y285083D01*
X84623Y285163D01*
X85172Y285296D01*
X85706Y285481D01*
X85848Y285550D01*
X85977Y285642D01*
X86091Y285752D01*
X86185Y285879D01*
X86259Y286019D01*
X86309Y286168D01*
X86336Y286324D01*
X86338Y286482D01*
X86315Y286639D01*
X86268Y286790D01*
X86198Y286931D01*
X86107Y287061D01*
X85996Y287174D01*
X85870Y287268D01*
X85730Y287342D01*
X85580Y287392D01*
X85424Y287419D01*
X85266Y287421D01*
X85110Y287398D01*
X84960Y287348D01*
X84608Y287222D01*
X84244Y287134D01*
X83874Y287081D01*
X83746Y287075D01*
Y294925D01*
X83874Y294919D01*
X84244Y294866D01*
X84608Y294778D01*
X84961Y294656D01*
X85111Y294606D01*
X85266Y294583D01*
X85424Y294585D01*
X85579Y294612D01*
X85728Y294662D01*
X85867Y294736D01*
X85993Y294830D01*
X86103Y294942D01*
X86194Y295071D01*
X86264Y295212D01*
X86311Y295362D01*
X86333Y295518D01*
X86332Y295675D01*
X86305Y295831D01*
X86254Y295980D01*
X86181Y296119D01*
X86087Y296245D01*
X85975Y296355D01*
X85846Y296446D01*
X85704Y296513D01*
X85172Y296704D01*
X84623Y296837D01*
X84064Y296917D01*
X83746Y296932D01*
Y317500D01*
X92000D01*
Y296746D01*
X91660Y296664D01*
X90796Y296306D01*
X90000Y295818D01*
X89289Y295211D01*
X88682Y294500D01*
X88265Y293821D01*
X88176Y293836D01*
X88018Y293838D01*
X87861Y293815D01*
X87710Y293768D01*
X87569Y293698D01*
X87439Y293607D01*
X87326Y293496D01*
X87232Y293370D01*
X87158Y293230D01*
X87108Y293080D01*
X87081Y292924D01*
X87079Y292766D01*
X87102Y292610D01*
X87152Y292460D01*
X87278Y292108D01*
X87366Y291744D01*
X87419Y291374D01*
X87437Y291000D01*
X87419Y290626D01*
X87366Y290256D01*
X87278Y289892D01*
X87156Y289539D01*
X87106Y289389D01*
X87083Y289234D01*
X87085Y289076D01*
X87112Y288921D01*
X87162Y288772D01*
X87236Y288633D01*
X87330Y288507D01*
X87442Y288397D01*
X87571Y288306D01*
X87712Y288236D01*
X87862Y288189D01*
X88018Y288167D01*
X88175Y288168D01*
X88263Y288183D01*
X88682Y287500D01*
X89289Y286789D01*
X90000Y286182D01*
X90796Y285694D01*
X91660Y285336D01*
X92000Y285254D01*
Y144245D01*
X91861Y144279D01*
X91500Y144307D01*
X91139Y144279D01*
X90787Y144194D01*
X90453Y144056D01*
X90144Y143866D01*
X89869Y143631D01*
X89634Y143356D01*
X89500Y143138D01*
X89366Y143356D01*
X89131Y143631D01*
X88856Y143866D01*
X88547Y144056D01*
X88213Y144194D01*
X87861Y144279D01*
X87500Y144307D01*
X87139Y144279D01*
X86787Y144194D01*
X86453Y144056D01*
X86144Y143866D01*
X85869Y143631D01*
X85634Y143356D01*
X85444Y143047D01*
X85306Y142713D01*
X85221Y142361D01*
X85193Y142000D01*
X85221Y141639D01*
X85306Y141287D01*
X85444Y140953D01*
X85634Y140644D01*
X85869Y140369D01*
X86000Y140256D01*
G37*
G36*
X73742Y317500D02*X83746D01*
Y296932D01*
X83500Y296944D01*
X82936Y296917D01*
X82377Y296837D01*
X81828Y296704D01*
X81294Y296519D01*
X81152Y296450D01*
X81023Y296358D01*
X80909Y296248D01*
X80815Y296121D01*
X80741Y295981D01*
X80691Y295832D01*
X80664Y295676D01*
X80662Y295518D01*
X80685Y295361D01*
X80732Y295210D01*
X80802Y295069D01*
X80893Y294939D01*
X81004Y294826D01*
X81130Y294732D01*
X81270Y294658D01*
X81420Y294608D01*
X81576Y294581D01*
X81734Y294579D01*
X81890Y294602D01*
X82040Y294652D01*
X82392Y294778D01*
X82756Y294866D01*
X83126Y294919D01*
X83500Y294937D01*
X83746Y294925D01*
Y287075D01*
X83500Y287063D01*
X83126Y287081D01*
X82756Y287134D01*
X82392Y287222D01*
X82039Y287344D01*
X81889Y287394D01*
X81734Y287417D01*
X81576Y287415D01*
X81421Y287388D01*
X81272Y287338D01*
X81133Y287264D01*
X81007Y287170D01*
X80897Y287058D01*
X80806Y286929D01*
X80736Y286788D01*
X80689Y286638D01*
X80667Y286482D01*
X80668Y286325D01*
X80695Y286169D01*
X80746Y286020D01*
X80819Y285881D01*
X80913Y285755D01*
X81025Y285645D01*
X81154Y285554D01*
X81296Y285487D01*
X81828Y285296D01*
X82377Y285163D01*
X82936Y285083D01*
X83500Y285056D01*
X83746Y285068D01*
Y234500D01*
X79459D01*
X79400Y234505D01*
X79165Y234486D01*
X78935Y234431D01*
X78717Y234341D01*
X78516Y234217D01*
X78515Y234217D01*
X78336Y234064D01*
X78298Y234019D01*
X76000Y231721D01*
Y239041D01*
X76005Y239100D01*
X75986Y239335D01*
X75931Y239565D01*
X75841Y239783D01*
X75717Y239984D01*
X75564Y240164D01*
X75519Y240202D01*
X73742Y241979D01*
Y285072D01*
X77751Y285082D01*
X78057Y285155D01*
X78348Y285275D01*
X78616Y285440D01*
X78856Y285644D01*
X79060Y285884D01*
X79225Y286152D01*
X79345Y286443D01*
X79418Y286749D01*
X79437Y287063D01*
X79434Y288304D01*
X79561Y288393D01*
X79674Y288504D01*
X79768Y288630D01*
X79842Y288770D01*
X79892Y288920D01*
X79919Y289076D01*
X79921Y289234D01*
X79898Y289390D01*
X79848Y289540D01*
X79722Y289892D01*
X79634Y290256D01*
X79581Y290626D01*
X79563Y291000D01*
X79581Y291374D01*
X79634Y291744D01*
X79722Y292108D01*
X79844Y292461D01*
X79894Y292611D01*
X79917Y292766D01*
X79915Y292924D01*
X79888Y293079D01*
X79838Y293228D01*
X79764Y293367D01*
X79670Y293493D01*
X79558Y293603D01*
X79429Y293694D01*
X79422Y293698D01*
X79418Y295251D01*
X79345Y295557D01*
X79225Y295848D01*
X79060Y296116D01*
X78856Y296356D01*
X78616Y296560D01*
X78348Y296725D01*
X78057Y296845D01*
X77751Y296918D01*
X77437Y296937D01*
X73742Y296929D01*
Y317500D01*
G37*
G36*
Y113564D02*X73856Y113634D01*
X74131Y113869D01*
X74366Y114144D01*
X74556Y114453D01*
X74694Y114787D01*
X74779Y115139D01*
X74800Y115500D01*
X74779Y115861D01*
X74694Y116213D01*
X74556Y116547D01*
X74366Y116856D01*
X74131Y117131D01*
X74000Y117244D01*
Y120379D01*
X83746Y130125D01*
Y50500D01*
X83621D01*
X81000Y53121D01*
Y59256D01*
X81131Y59369D01*
X81366Y59644D01*
X81556Y59953D01*
X81694Y60287D01*
X81779Y60639D01*
X81800Y61000D01*
X81779Y61361D01*
X81694Y61713D01*
X81556Y62047D01*
X81366Y62356D01*
X81131Y62631D01*
X80856Y62866D01*
X80547Y63056D01*
X80213Y63194D01*
X79861Y63279D01*
X79500Y63307D01*
X79139Y63279D01*
X78787Y63194D01*
X78453Y63056D01*
X78144Y62866D01*
X77869Y62631D01*
X77634Y62356D01*
X77444Y62047D01*
X77306Y61713D01*
X77221Y61361D01*
X77193Y61000D01*
X77221Y60639D01*
X77306Y60287D01*
X77444Y59953D01*
X77634Y59644D01*
X77869Y59369D01*
X78000Y59256D01*
Y52559D01*
X77995Y52500D01*
X78014Y52265D01*
X78069Y52035D01*
X78159Y51817D01*
X78283Y51616D01*
X78436Y51436D01*
X78481Y51398D01*
X81898Y47981D01*
X81936Y47936D01*
X82116Y47783D01*
X82317Y47659D01*
X82535Y47569D01*
X82765Y47514D01*
X83000Y47495D01*
X83059Y47500D01*
X83746D01*
Y38500D01*
X73742D01*
Y113564D01*
G37*
G36*
X83746Y134368D02*X73742Y124363D01*
Y201818D01*
X74047Y201944D01*
X74356Y202134D01*
X74631Y202369D01*
X74866Y202644D01*
X75056Y202953D01*
X75194Y203287D01*
X75279Y203639D01*
X75300Y204000D01*
X75279Y204361D01*
X75194Y204713D01*
X75056Y205047D01*
X74866Y205356D01*
X74631Y205631D01*
X74500Y205744D01*
Y207379D01*
X75519Y208398D01*
X75564Y208436D01*
X75646Y208532D01*
X75953Y208344D01*
X76287Y208206D01*
X76639Y208121D01*
X77000Y208093D01*
X77361Y208121D01*
X77713Y208206D01*
X78047Y208344D01*
X78356Y208534D01*
X78631Y208769D01*
X78866Y209044D01*
X79056Y209353D01*
X79194Y209687D01*
X79279Y210039D01*
X79300Y210400D01*
X79279Y210761D01*
X79194Y211113D01*
X79056Y211447D01*
X78866Y211756D01*
X78631Y212031D01*
X78500Y212144D01*
Y229979D01*
X80021Y231500D01*
X83746D01*
Y134368D01*
G37*
G36*
X73742Y124363D02*X71481Y122102D01*
X71436Y122064D01*
X71283Y121884D01*
X71159Y121683D01*
X71069Y121465D01*
X71014Y121235D01*
X71014Y121235D01*
X70995Y121000D01*
X71000Y120941D01*
Y117244D01*
X70869Y117131D01*
X70634Y116856D01*
X70444Y116547D01*
X70306Y116213D01*
X70221Y115861D01*
X70193Y115500D01*
X70221Y115139D01*
X70306Y114787D01*
X70444Y114453D01*
X70634Y114144D01*
X70869Y113869D01*
X71144Y113634D01*
X71453Y113444D01*
X71787Y113306D01*
X72139Y113221D01*
X72500Y113193D01*
X72861Y113221D01*
X73213Y113306D01*
X73547Y113444D01*
X73742Y113564D01*
Y38500D01*
X60746D01*
Y224625D01*
X66828Y230706D01*
X67000Y230693D01*
X67361Y230721D01*
X67713Y230806D01*
X68047Y230944D01*
X68356Y231134D01*
X68631Y231369D01*
X68866Y231644D01*
X69056Y231953D01*
X69194Y232287D01*
X69279Y232639D01*
X69300Y233000D01*
X69279Y233361D01*
X69194Y233713D01*
X69056Y234047D01*
X68866Y234356D01*
X68631Y234631D01*
X68356Y234866D01*
X68047Y235056D01*
X67713Y235194D01*
X67361Y235279D01*
X67000Y235307D01*
X66639Y235279D01*
X66287Y235194D01*
X65953Y235056D01*
X65644Y234866D01*
X65369Y234631D01*
X65134Y234356D01*
X64944Y234047D01*
X64806Y233713D01*
X64721Y233361D01*
X64693Y233000D01*
X64706Y232828D01*
X60746Y228868D01*
Y317500D01*
X73742D01*
Y296929D01*
X69249Y296918D01*
X68943Y296845D01*
X68652Y296725D01*
X68384Y296560D01*
X68144Y296356D01*
X67940Y296116D01*
X67775Y295848D01*
X67655Y295557D01*
X67582Y295251D01*
X67563Y294937D01*
X67582Y286749D01*
X67655Y286443D01*
X67775Y286152D01*
X67940Y285884D01*
X68144Y285644D01*
X68384Y285440D01*
X68652Y285275D01*
X68943Y285155D01*
X69249Y285082D01*
X69563Y285063D01*
X73742Y285072D01*
Y241979D01*
X73102Y242619D01*
X73064Y242664D01*
X72884Y242817D01*
X72683Y242941D01*
X72465Y243031D01*
X72235Y243086D01*
X72000Y243105D01*
X71941Y243100D01*
X71744D01*
X71631Y243231D01*
X71356Y243466D01*
X71047Y243656D01*
X70713Y243794D01*
X70361Y243879D01*
X70000Y243907D01*
X69639Y243879D01*
X69287Y243794D01*
X68953Y243656D01*
X68644Y243466D01*
X68369Y243231D01*
X68134Y242956D01*
X67944Y242647D01*
X67806Y242313D01*
X67721Y241961D01*
X67693Y241600D01*
X67721Y241239D01*
X67806Y240887D01*
X67944Y240553D01*
X68134Y240244D01*
X68369Y239969D01*
X68644Y239734D01*
X68953Y239544D01*
X69287Y239406D01*
X69639Y239321D01*
X70000Y239293D01*
X70361Y239321D01*
X70713Y239406D01*
X71047Y239544D01*
X71356Y239734D01*
X71566Y239913D01*
X73000Y238479D01*
Y220138D01*
X72866Y220356D01*
X72631Y220631D01*
X72356Y220866D01*
X72047Y221056D01*
X71713Y221194D01*
X71361Y221279D01*
X71000Y221307D01*
X70639Y221279D01*
X70287Y221194D01*
X69953Y221056D01*
X69644Y220866D01*
X69369Y220631D01*
X69134Y220356D01*
X68944Y220047D01*
X68806Y219713D01*
X68721Y219361D01*
X68693Y219000D01*
X68706Y218828D01*
X67481Y217602D01*
X67436Y217564D01*
X67283Y217384D01*
X67159Y217183D01*
X67069Y216965D01*
X67014Y216735D01*
X67014Y216735D01*
X66995Y216500D01*
X67000Y216441D01*
Y210244D01*
X66869Y210131D01*
X66634Y209856D01*
X66444Y209547D01*
X66306Y209213D01*
X66221Y208861D01*
X66193Y208500D01*
X66221Y208139D01*
X66306Y207787D01*
X66444Y207453D01*
X66634Y207144D01*
X66869Y206869D01*
X67144Y206634D01*
X67453Y206444D01*
X67787Y206306D01*
X68020Y206250D01*
X67787Y206194D01*
X67453Y206056D01*
X67144Y205866D01*
X66869Y205631D01*
X66634Y205356D01*
X66444Y205047D01*
X66306Y204713D01*
X66221Y204361D01*
X66193Y204000D01*
X66221Y203639D01*
X66306Y203287D01*
X66444Y202953D01*
X66634Y202644D01*
X66869Y202369D01*
X67144Y202134D01*
X67453Y201944D01*
X67787Y201806D01*
X68139Y201721D01*
X68500Y201693D01*
X68861Y201721D01*
X69213Y201806D01*
X69547Y201944D01*
X69856Y202134D01*
X70131Y202369D01*
X70366Y202644D01*
X70556Y202953D01*
X70694Y203287D01*
X70750Y203520D01*
X70806Y203287D01*
X70944Y202953D01*
X71134Y202644D01*
X71369Y202369D01*
X71644Y202134D01*
X71953Y201944D01*
X72287Y201806D01*
X72639Y201721D01*
X73000Y201693D01*
X73361Y201721D01*
X73713Y201806D01*
X73742Y201818D01*
Y124363D01*
G37*
G36*
X60746Y38500D02*X36500D01*
Y317500D01*
X60746D01*
Y228868D01*
X54672Y222794D01*
X54500Y222807D01*
X54139Y222779D01*
X53787Y222694D01*
X53453Y222556D01*
X53144Y222366D01*
X52869Y222131D01*
X52634Y221856D01*
X52444Y221547D01*
X52306Y221213D01*
X52221Y220861D01*
X52193Y220500D01*
X52221Y220139D01*
X52306Y219787D01*
X52444Y219453D01*
X52634Y219144D01*
X52869Y218869D01*
X53144Y218634D01*
X53453Y218444D01*
X53787Y218306D01*
X54139Y218221D01*
X54500Y218193D01*
X54861Y218221D01*
X55213Y218306D01*
X55547Y218444D01*
X55856Y218634D01*
X56131Y218869D01*
X56366Y219144D01*
X56556Y219453D01*
X56694Y219787D01*
X56779Y220139D01*
X56800Y220500D01*
X56790Y220669D01*
X60746Y224625D01*
Y38500D01*
G37*
G36*
X171246Y146125D02*X172121Y147000D01*
X173362D01*
X173453Y146944D01*
X173787Y146806D01*
X174139Y146721D01*
X174500Y146693D01*
X174861Y146721D01*
X175213Y146806D01*
X175547Y146944D01*
X175638Y147000D01*
X197500D01*
Y38000D01*
X171246D01*
Y86132D01*
X172206Y85172D01*
X172193Y85000D01*
X172221Y84639D01*
X172306Y84287D01*
X172444Y83953D01*
X172634Y83644D01*
X172869Y83369D01*
X173144Y83134D01*
X173453Y82944D01*
X173787Y82806D01*
X174139Y82721D01*
X174500Y82693D01*
X174861Y82721D01*
X175213Y82806D01*
X175547Y82944D01*
X175856Y83134D01*
X176131Y83369D01*
X176366Y83644D01*
X176556Y83953D01*
X176694Y84287D01*
X176779Y84639D01*
X176800Y85000D01*
X176779Y85361D01*
X176694Y85713D01*
X176556Y86047D01*
X176366Y86356D01*
X176131Y86631D01*
X175856Y86866D01*
X175547Y87056D01*
X175213Y87194D01*
X174861Y87279D01*
X174500Y87307D01*
X174328Y87294D01*
X171246Y90375D01*
Y99750D01*
X184520D01*
X184639Y99721D01*
X185000Y99693D01*
X185361Y99721D01*
X185480Y99750D01*
X188520D01*
X188639Y99721D01*
X189000Y99693D01*
X189361Y99721D01*
X189713Y99806D01*
X190047Y99944D01*
X190356Y100134D01*
X190631Y100369D01*
X190866Y100644D01*
X191056Y100953D01*
X191194Y101287D01*
X191279Y101639D01*
X191300Y102000D01*
X191279Y102361D01*
X191194Y102713D01*
X191056Y103047D01*
X190866Y103356D01*
X190631Y103631D01*
X190356Y103866D01*
X190047Y104056D01*
X189713Y104194D01*
X189361Y104279D01*
X189000Y104307D01*
X188639Y104279D01*
X188520Y104250D01*
X185480D01*
X185361Y104279D01*
X185000Y104307D01*
X184639Y104279D01*
X184520Y104250D01*
X171246D01*
Y126500D01*
X172379D01*
X173000Y125879D01*
Y118744D01*
X172869Y118631D01*
X172634Y118356D01*
X172444Y118047D01*
X172306Y117713D01*
X172221Y117361D01*
X172193Y117000D01*
X172221Y116639D01*
X172306Y116287D01*
X172444Y115953D01*
X172634Y115644D01*
X172869Y115369D01*
X173144Y115134D01*
X173453Y114944D01*
X173787Y114806D01*
X174139Y114721D01*
X174500Y114693D01*
X174861Y114721D01*
X175213Y114806D01*
X175547Y114944D01*
X175856Y115134D01*
X176131Y115369D01*
X176366Y115644D01*
X176556Y115953D01*
X176694Y116287D01*
X176779Y116639D01*
X176800Y117000D01*
X176779Y117361D01*
X176694Y117713D01*
X176556Y118047D01*
X176366Y118356D01*
X176131Y118631D01*
X176000Y118744D01*
Y126441D01*
X176005Y126500D01*
X175986Y126735D01*
X175931Y126965D01*
X175841Y127183D01*
X175717Y127384D01*
X175564Y127564D01*
X175519Y127602D01*
X174102Y129019D01*
X174064Y129064D01*
X173884Y129217D01*
X173683Y129341D01*
X173465Y129431D01*
X173235Y129486D01*
X173000Y129505D01*
X172941Y129500D01*
X171246D01*
Y146125D01*
G37*
G36*
Y90375D02*X169000Y92621D01*
Y96256D01*
X169131Y96369D01*
X169366Y96644D01*
X169556Y96953D01*
X169694Y97287D01*
X169779Y97639D01*
X169800Y98000D01*
X169779Y98361D01*
X169694Y98713D01*
X169556Y99047D01*
X169366Y99356D01*
X169131Y99631D01*
X168992Y99750D01*
X171246D01*
Y90375D01*
G37*
G36*
Y38000D02*X161246D01*
Y99750D01*
X166008D01*
X165869Y99631D01*
X165634Y99356D01*
X165444Y99047D01*
X165306Y98713D01*
X165221Y98361D01*
X165193Y98000D01*
X165221Y97639D01*
X165306Y97287D01*
X165444Y96953D01*
X165634Y96644D01*
X165869Y96369D01*
X166000Y96256D01*
Y92059D01*
X165995Y92000D01*
X166014Y91765D01*
X166069Y91535D01*
X166159Y91317D01*
X166283Y91116D01*
X166436Y90936D01*
X166481Y90898D01*
X171246Y86132D01*
Y38000D01*
G37*
G36*
X161246Y136198D02*X161384Y136283D01*
X161564Y136436D01*
X161602Y136481D01*
X171246Y146125D01*
Y129500D01*
X169744D01*
X169631Y129631D01*
X169356Y129866D01*
X169047Y130056D01*
X168713Y130194D01*
X168361Y130279D01*
X168000Y130307D01*
X167639Y130279D01*
X167287Y130194D01*
X166953Y130056D01*
X166644Y129866D01*
X166369Y129631D01*
X166134Y129356D01*
X165944Y129047D01*
X165806Y128713D01*
X165721Y128361D01*
X165693Y128000D01*
X165721Y127639D01*
X165806Y127287D01*
X165944Y126953D01*
X166134Y126644D01*
X166369Y126369D01*
X166644Y126134D01*
X166953Y125944D01*
X167287Y125806D01*
X167639Y125721D01*
X168000Y125693D01*
X168361Y125721D01*
X168713Y125806D01*
X169047Y125944D01*
X169356Y126134D01*
X169631Y126369D01*
X169744Y126500D01*
X171246D01*
Y104250D01*
X161246D01*
Y136198D01*
G37*
G36*
Y147000D02*X167879D01*
X161246Y140368D01*
Y147000D01*
G37*
G36*
X148246Y99750D02*X161246D01*
Y38000D01*
X148246D01*
Y99750D01*
G37*
G36*
Y136000D02*X160441D01*
X160500Y135995D01*
X160735Y136014D01*
X160735Y136014D01*
X160965Y136069D01*
X161183Y136159D01*
X161246Y136198D01*
Y104250D01*
X148246D01*
Y126000D01*
X152441D01*
X152500Y125995D01*
X152735Y126014D01*
X152735Y126014D01*
X152965Y126069D01*
X153183Y126159D01*
X153384Y126283D01*
X153564Y126436D01*
X153602Y126481D01*
X156328Y129206D01*
X156500Y129193D01*
X156861Y129221D01*
X157213Y129306D01*
X157547Y129444D01*
X157856Y129634D01*
X158131Y129869D01*
X158366Y130144D01*
X158556Y130453D01*
X158694Y130787D01*
X158779Y131139D01*
X158800Y131500D01*
X158779Y131861D01*
X158694Y132213D01*
X158556Y132547D01*
X158366Y132856D01*
X158131Y133131D01*
X157856Y133366D01*
X157547Y133556D01*
X157213Y133694D01*
X156861Y133779D01*
X156500Y133807D01*
X156139Y133779D01*
X155787Y133694D01*
X155453Y133556D01*
X155144Y133366D01*
X154869Y133131D01*
X154634Y132856D01*
X154444Y132547D01*
X154306Y132213D01*
X154221Y131861D01*
X154193Y131500D01*
X154206Y131328D01*
X153703Y130824D01*
X153779Y131139D01*
X153800Y131500D01*
X153779Y131861D01*
X153694Y132213D01*
X153556Y132547D01*
X153366Y132856D01*
X153131Y133131D01*
X152856Y133366D01*
X152547Y133556D01*
X152213Y133694D01*
X151861Y133779D01*
X151500Y133807D01*
X151139Y133779D01*
X150787Y133694D01*
X150453Y133556D01*
X150144Y133366D01*
X149869Y133131D01*
X149756Y133000D01*
X148246D01*
Y136000D01*
G37*
G36*
Y147000D02*X161246D01*
Y140368D01*
X159879Y139000D01*
X148246D01*
Y147000D01*
G37*
G36*
X119496D02*X148246D01*
Y139000D01*
X140768D01*
X140670Y139160D01*
X140435Y139435D01*
X140160Y139670D01*
X139851Y139860D01*
X139517Y139998D01*
X139165Y140083D01*
X138804Y140111D01*
X138443Y140083D01*
X138091Y139998D01*
X137757Y139860D01*
X137448Y139670D01*
X137173Y139435D01*
X136937Y139160D01*
X136748Y138851D01*
X136610Y138517D01*
X136525Y138165D01*
X136497Y137804D01*
X136525Y137443D01*
X136610Y137091D01*
X136748Y136757D01*
X136937Y136448D01*
X137173Y136173D01*
X137448Y135937D01*
X137757Y135748D01*
X138091Y135610D01*
X138443Y135525D01*
X138804Y135497D01*
X139165Y135525D01*
X139517Y135610D01*
X139851Y135748D01*
X140160Y135937D01*
X140233Y136000D01*
X148246D01*
Y133000D01*
X141744D01*
X141631Y133131D01*
X141356Y133366D01*
X141047Y133556D01*
X140713Y133694D01*
X140361Y133779D01*
X140000Y133807D01*
X139639Y133779D01*
X139287Y133694D01*
X138953Y133556D01*
X138644Y133366D01*
X138369Y133131D01*
X138134Y132856D01*
X137944Y132547D01*
X137806Y132213D01*
X137721Y131861D01*
X137693Y131500D01*
X137721Y131139D01*
X137806Y130787D01*
X137944Y130453D01*
X138134Y130144D01*
X138369Y129869D01*
X138644Y129634D01*
X138862Y129500D01*
X138644Y129366D01*
X138369Y129131D01*
X138134Y128856D01*
X137944Y128547D01*
X137806Y128213D01*
X137721Y127861D01*
X137693Y127500D01*
X137721Y127139D01*
X137806Y126787D01*
X137944Y126453D01*
X138134Y126144D01*
X138369Y125869D01*
X138644Y125634D01*
X138953Y125444D01*
X139287Y125306D01*
X139639Y125221D01*
X140000Y125193D01*
X140361Y125221D01*
X140713Y125306D01*
X141047Y125444D01*
X141356Y125634D01*
X141631Y125869D01*
X141744Y126000D01*
X148246D01*
Y104250D01*
X137480D01*
X137361Y104279D01*
X137000Y104307D01*
X136639Y104279D01*
X136520Y104250D01*
X133980D01*
X133861Y104279D01*
X133500Y104307D01*
X133139Y104279D01*
X132787Y104194D01*
X132453Y104056D01*
X132144Y103866D01*
X131869Y103631D01*
X131634Y103356D01*
X131444Y103047D01*
X131306Y102713D01*
X131221Y102361D01*
X131193Y102000D01*
X131221Y101639D01*
X131306Y101287D01*
X131444Y100953D01*
X131634Y100644D01*
X131869Y100369D01*
X132144Y100134D01*
X132453Y99944D01*
X132787Y99806D01*
X133139Y99721D01*
X133500Y99693D01*
X133861Y99721D01*
X133980Y99750D01*
X136520D01*
X136639Y99721D01*
X137000Y99693D01*
X137361Y99721D01*
X137480Y99750D01*
X148246D01*
Y38000D01*
X119496D01*
Y67000D01*
X124256D01*
X124369Y66869D01*
X124644Y66634D01*
X124953Y66444D01*
X125287Y66306D01*
X125639Y66221D01*
X126000Y66193D01*
X126361Y66221D01*
X126713Y66306D01*
X127047Y66444D01*
X127356Y66634D01*
X127631Y66869D01*
X127866Y67144D01*
X128056Y67453D01*
X128194Y67787D01*
X128279Y68139D01*
X128300Y68500D01*
X128279Y68861D01*
X128194Y69213D01*
X128056Y69547D01*
X127866Y69856D01*
X127631Y70131D01*
X127356Y70366D01*
X127138Y70500D01*
X135756D01*
X135869Y70369D01*
X136144Y70134D01*
X136453Y69944D01*
X136787Y69806D01*
X137139Y69721D01*
X137500Y69693D01*
X137861Y69721D01*
X138213Y69806D01*
X138547Y69944D01*
X138856Y70134D01*
X139131Y70369D01*
X139366Y70644D01*
X139556Y70953D01*
X139694Y71287D01*
X139779Y71639D01*
X139800Y72000D01*
X139779Y72361D01*
X139694Y72713D01*
X139556Y73047D01*
X139366Y73356D01*
X139131Y73631D01*
X138856Y73866D01*
X138547Y74056D01*
X138213Y74194D01*
X137861Y74279D01*
X137500Y74307D01*
X137139Y74279D01*
X136787Y74194D01*
X136453Y74056D01*
X136144Y73866D01*
X135869Y73631D01*
X135756Y73500D01*
X119496D01*
Y83259D01*
X119644Y83134D01*
X119953Y82944D01*
X120287Y82806D01*
X120639Y82721D01*
X121000Y82693D01*
X121361Y82721D01*
X121713Y82806D01*
X122047Y82944D01*
X122356Y83134D01*
X122631Y83369D01*
X122866Y83644D01*
X123056Y83953D01*
X123194Y84287D01*
X123279Y84639D01*
X123300Y85000D01*
X123279Y85361D01*
X123194Y85713D01*
X123056Y86047D01*
X122866Y86356D01*
X122631Y86631D01*
X122356Y86866D01*
X122047Y87056D01*
X121713Y87194D01*
X121361Y87279D01*
X121000Y87307D01*
X120828Y87294D01*
X119496Y88625D01*
Y147000D01*
G37*
G36*
Y38000D02*X98746D01*
Y83500D01*
X99256D01*
X99369Y83369D01*
X99644Y83134D01*
X99953Y82944D01*
X100287Y82806D01*
X100639Y82721D01*
X101000Y82693D01*
X101361Y82721D01*
X101713Y82806D01*
X102047Y82944D01*
X102356Y83134D01*
X102631Y83369D01*
X102866Y83644D01*
X103056Y83953D01*
X103194Y84287D01*
X103279Y84639D01*
X103300Y85000D01*
X103279Y85361D01*
X103194Y85713D01*
X103056Y86047D01*
X102866Y86356D01*
X102744Y86500D01*
X109256D01*
X109134Y86356D01*
X108944Y86047D01*
X108806Y85713D01*
X108721Y85361D01*
X108693Y85000D01*
X108721Y84639D01*
X108806Y84287D01*
X108944Y83953D01*
X109134Y83644D01*
X109369Y83369D01*
X109644Y83134D01*
X109953Y82944D01*
X110287Y82806D01*
X110639Y82721D01*
X111000Y82693D01*
X111361Y82721D01*
X111713Y82806D01*
X112047Y82944D01*
X112356Y83134D01*
X112631Y83369D01*
X112866Y83644D01*
X113056Y83953D01*
X113194Y84287D01*
X113279Y84639D01*
X113300Y85000D01*
X113279Y85361D01*
X113194Y85713D01*
X113056Y86047D01*
X112866Y86356D01*
X112631Y86631D01*
X112500Y86744D01*
Y87441D01*
X112505Y87500D01*
X112486Y87735D01*
X112431Y87965D01*
X112341Y88183D01*
X112217Y88384D01*
X112064Y88564D01*
X112019Y88602D01*
X111602Y89019D01*
X111564Y89064D01*
X111384Y89217D01*
X111183Y89341D01*
X110965Y89431D01*
X110735Y89486D01*
X110500Y89505D01*
X110441Y89500D01*
X98746D01*
Y90500D01*
X113379D01*
X118706Y85172D01*
X118693Y85000D01*
X118721Y84639D01*
X118806Y84287D01*
X118944Y83953D01*
X119134Y83644D01*
X119369Y83369D01*
X119496Y83259D01*
Y73500D01*
X103244D01*
X103131Y73631D01*
X102856Y73866D01*
X102547Y74056D01*
X102213Y74194D01*
X101861Y74279D01*
X101500Y74307D01*
X101139Y74279D01*
X100787Y74194D01*
X100453Y74056D01*
X100144Y73866D01*
X99869Y73631D01*
X99634Y73356D01*
X99444Y73047D01*
X99306Y72713D01*
X99221Y72361D01*
X99193Y72000D01*
X99221Y71639D01*
X99306Y71287D01*
X99444Y70953D01*
X99634Y70644D01*
X99869Y70369D01*
X100008Y70250D01*
X99869Y70131D01*
X99634Y69856D01*
X99444Y69547D01*
X99306Y69213D01*
X99221Y68861D01*
X99193Y68500D01*
X99221Y68139D01*
X99306Y67787D01*
X99444Y67453D01*
X99634Y67144D01*
X99869Y66869D01*
X100144Y66634D01*
X100453Y66444D01*
X100787Y66306D01*
X101139Y66221D01*
X101500Y66193D01*
X101861Y66221D01*
X102213Y66306D01*
X102547Y66444D01*
X102856Y66634D01*
X103131Y66869D01*
X103244Y67000D01*
X119496D01*
Y38000D01*
G37*
G36*
X98746Y125007D02*X99092Y124924D01*
X99500Y124892D01*
X99908Y124924D01*
X100306Y125020D01*
X100684Y125176D01*
X101033Y125390D01*
X101344Y125656D01*
X101610Y125967D01*
X101824Y126316D01*
X101980Y126694D01*
X102076Y127092D01*
X102100Y127500D01*
X102076Y127908D01*
X101980Y128306D01*
X101824Y128684D01*
X101610Y129033D01*
X101344Y129344D01*
X101033Y129610D01*
X101000Y129630D01*
Y140256D01*
X101131Y140369D01*
X101366Y140644D01*
X101556Y140953D01*
X101694Y141287D01*
X101779Y141639D01*
X101800Y142000D01*
X101779Y142361D01*
X101694Y142713D01*
X101556Y143047D01*
X101366Y143356D01*
X101131Y143631D01*
X100856Y143866D01*
X100547Y144056D01*
X100213Y144194D01*
X99861Y144279D01*
X99500Y144307D01*
X99139Y144279D01*
X98787Y144194D01*
X98746Y144177D01*
Y147000D01*
X119496D01*
Y88625D01*
X115102Y93019D01*
X115064Y93064D01*
X114884Y93217D01*
X114683Y93341D01*
X114465Y93431D01*
X114235Y93486D01*
X114000Y93505D01*
X113941Y93500D01*
X98746D01*
Y125007D01*
G37*
G36*
Y38000D02*X81500D01*
Y48379D01*
X81898Y47981D01*
X81936Y47936D01*
X82116Y47783D01*
X82317Y47659D01*
X82535Y47569D01*
X82765Y47514D01*
X83000Y47495D01*
X83059Y47500D01*
X86256D01*
X86369Y47369D01*
X86644Y47134D01*
X86953Y46944D01*
X87287Y46806D01*
X87639Y46721D01*
X88000Y46693D01*
X88361Y46721D01*
X88713Y46806D01*
X89047Y46944D01*
X89356Y47134D01*
X89631Y47369D01*
X89866Y47644D01*
X90056Y47953D01*
X90194Y48287D01*
X90279Y48639D01*
X90300Y49000D01*
X90279Y49361D01*
X90194Y49713D01*
X90056Y50047D01*
X89866Y50356D01*
X89631Y50631D01*
X89356Y50866D01*
X89047Y51056D01*
X88713Y51194D01*
X88361Y51279D01*
X88000Y51307D01*
X87639Y51279D01*
X87287Y51194D01*
X86953Y51056D01*
X86644Y50866D01*
X86369Y50631D01*
X86256Y50500D01*
X83621D01*
X81500Y52621D01*
Y59862D01*
X81556Y59953D01*
X81694Y60287D01*
X81779Y60639D01*
X81800Y61000D01*
X81779Y61361D01*
X81694Y61713D01*
X81556Y62047D01*
X81500Y62138D01*
Y127879D01*
X88519Y134898D01*
X88564Y134936D01*
X88717Y135115D01*
X88717Y135116D01*
X88841Y135317D01*
X88931Y135535D01*
X88986Y135765D01*
X89005Y136000D01*
X89000Y136059D01*
Y140256D01*
X89131Y140369D01*
X89366Y140644D01*
X89500Y140862D01*
X89634Y140644D01*
X89869Y140369D01*
X90000Y140256D01*
Y130007D01*
X89727Y129773D01*
X89471Y129474D01*
X89266Y129138D01*
X89115Y128775D01*
X89023Y128392D01*
X88992Y128000D01*
X89023Y127608D01*
X89115Y127225D01*
X89266Y126862D01*
X89471Y126526D01*
X89727Y126227D01*
X90026Y125971D01*
X90362Y125766D01*
X90725Y125615D01*
X91108Y125523D01*
X91500Y125492D01*
X91892Y125523D01*
X92275Y125615D01*
X92638Y125766D01*
X92974Y125971D01*
X93273Y126227D01*
X93529Y126526D01*
X93734Y126862D01*
X93885Y127225D01*
X93977Y127608D01*
X94000Y128000D01*
Y94059D01*
X93995Y94000D01*
X94014Y93765D01*
X94069Y93535D01*
X94159Y93317D01*
X94283Y93116D01*
X94436Y92936D01*
X94481Y92898D01*
X96398Y90981D01*
X96436Y90936D01*
X96616Y90783D01*
X96817Y90659D01*
X97035Y90569D01*
X97265Y90514D01*
X97500Y90495D01*
X97559Y90500D01*
X98746D01*
Y89500D01*
X91621D01*
X90500Y90621D01*
Y116756D01*
X90631Y116869D01*
X90866Y117144D01*
X91056Y117453D01*
X91194Y117787D01*
X91279Y118139D01*
X91300Y118500D01*
X91279Y118861D01*
X91194Y119213D01*
X91056Y119547D01*
X90866Y119856D01*
X90631Y120131D01*
X90356Y120366D01*
X90047Y120556D01*
X89713Y120694D01*
X89361Y120779D01*
X89000Y120807D01*
X88639Y120779D01*
X88287Y120694D01*
X88000Y120575D01*
Y123256D01*
X88131Y123369D01*
X88366Y123644D01*
X88556Y123953D01*
X88694Y124287D01*
X88779Y124639D01*
X88800Y125000D01*
X88779Y125361D01*
X88694Y125713D01*
X88556Y126047D01*
X88366Y126356D01*
X88131Y126631D01*
X87856Y126866D01*
X87547Y127056D01*
X87213Y127194D01*
X86861Y127279D01*
X86500Y127307D01*
X86139Y127279D01*
X85787Y127194D01*
X85453Y127056D01*
X85144Y126866D01*
X84869Y126631D01*
X84634Y126356D01*
X84444Y126047D01*
X84306Y125713D01*
X84221Y125361D01*
X84193Y125000D01*
X84221Y124639D01*
X84306Y124287D01*
X84444Y123953D01*
X84634Y123644D01*
X84869Y123369D01*
X85000Y123256D01*
Y88059D01*
X84995Y88000D01*
X85014Y87765D01*
X85069Y87535D01*
X85159Y87317D01*
X85283Y87116D01*
X85436Y86936D01*
X85481Y86898D01*
X88398Y83981D01*
X88436Y83936D01*
X88616Y83783D01*
X88817Y83659D01*
X89035Y83569D01*
X89265Y83514D01*
X89500Y83495D01*
X89559Y83500D01*
X98746D01*
Y38000D01*
G37*
G36*
Y144177D02*X98453Y144056D01*
X98144Y143866D01*
X97869Y143631D01*
X97634Y143356D01*
X97500Y143138D01*
X97366Y143356D01*
X97131Y143631D01*
X96856Y143866D01*
X96547Y144056D01*
X96213Y144194D01*
X95861Y144279D01*
X95500Y144307D01*
X95139Y144279D01*
X94787Y144194D01*
X94453Y144056D01*
X94144Y143866D01*
X93869Y143631D01*
X93634Y143356D01*
X93500Y143138D01*
X93366Y143356D01*
X93131Y143631D01*
X92856Y143866D01*
X92547Y144056D01*
X92213Y144194D01*
X91861Y144279D01*
X91500Y144307D01*
X91139Y144279D01*
X90787Y144194D01*
X90453Y144056D01*
X90144Y143866D01*
X89869Y143631D01*
X89634Y143356D01*
X89500Y143138D01*
X89366Y143356D01*
X89131Y143631D01*
X88856Y143866D01*
X88547Y144056D01*
X88213Y144194D01*
X87861Y144279D01*
X87500Y144307D01*
X87139Y144279D01*
X86787Y144194D01*
X86453Y144056D01*
X86144Y143866D01*
X85869Y143631D01*
X85634Y143356D01*
X85444Y143047D01*
X85306Y142713D01*
X85221Y142361D01*
X85193Y142000D01*
X85221Y141639D01*
X85306Y141287D01*
X85444Y140953D01*
X85634Y140644D01*
X85869Y140369D01*
X86000Y140256D01*
Y136621D01*
X81500Y132121D01*
Y147000D01*
X98746D01*
Y144177D01*
G37*
G36*
X98121Y93500D02*X97000Y94621D01*
Y126776D01*
X97020Y126694D01*
X97176Y126316D01*
X97390Y125967D01*
X97656Y125656D01*
X97967Y125390D01*
X98316Y125176D01*
X98694Y125020D01*
X98746Y125007D01*
Y93500D01*
X98121D01*
G37*
G36*
X137492Y41500D02*X162500D01*
Y2500D01*
X137492D01*
Y17984D01*
X137500Y17983D01*
X138363Y18051D01*
X139205Y18253D01*
X140005Y18584D01*
X140743Y19037D01*
X141401Y19599D01*
X141963Y20257D01*
X142416Y20995D01*
X142747Y21795D01*
X142949Y22637D01*
X143000Y23500D01*
X142949Y24363D01*
X142747Y25205D01*
X142416Y26005D01*
X141963Y26743D01*
X141401Y27401D01*
X140743Y27963D01*
X140005Y28416D01*
X139205Y28747D01*
X138363Y28949D01*
X137500Y29017D01*
X137492Y29016D01*
Y41500D01*
G37*
G36*
X117500D02*X137492D01*
Y29016D01*
X136637Y28949D01*
X135795Y28747D01*
X134995Y28416D01*
X134257Y27963D01*
X133599Y27401D01*
X133037Y26743D01*
X132584Y26005D01*
X132253Y25205D01*
X132051Y24363D01*
X131983Y23500D01*
X132051Y22637D01*
X132253Y21795D01*
X132584Y20995D01*
X133037Y20257D01*
X133599Y19599D01*
X134257Y19037D01*
X134995Y18584D01*
X135795Y18253D01*
X136637Y18051D01*
X137492Y17984D01*
Y2500D01*
X117500D01*
Y18007D01*
X121735Y18014D01*
X121965Y18069D01*
X122183Y18159D01*
X122384Y18283D01*
X122564Y18436D01*
X122717Y18616D01*
X122841Y18817D01*
X122931Y19035D01*
X122986Y19265D01*
X123000Y19500D01*
X122986Y27735D01*
X122931Y27965D01*
X122841Y28183D01*
X122717Y28384D01*
X122564Y28564D01*
X122384Y28717D01*
X122183Y28841D01*
X121965Y28931D01*
X121735Y28986D01*
X121500Y29000D01*
X117500Y28993D01*
Y41500D01*
G37*
G36*
X101993D02*X117500D01*
Y28993D01*
X113265Y28986D01*
X113035Y28931D01*
X112817Y28841D01*
X112616Y28717D01*
X112436Y28564D01*
X112283Y28384D01*
X112159Y28183D01*
X112069Y27965D01*
X112014Y27735D01*
X112000Y27500D01*
X112014Y19265D01*
X112069Y19035D01*
X112159Y18817D01*
X112283Y18616D01*
X112436Y18436D01*
X112616Y18283D01*
X112817Y18159D01*
X113035Y18069D01*
X113265Y18014D01*
X113500Y18000D01*
X117500Y18007D01*
Y2500D01*
X101993D01*
Y20645D01*
X102078Y20681D01*
X102179Y20743D01*
X102269Y20819D01*
X102345Y20909D01*
X102405Y21011D01*
X102622Y21480D01*
X102789Y21969D01*
X102909Y22472D01*
X102982Y22984D01*
X103006Y23500D01*
X102982Y24016D01*
X102909Y24528D01*
X102789Y25031D01*
X102622Y25520D01*
X102410Y25992D01*
X102349Y26093D01*
X102272Y26184D01*
X102182Y26261D01*
X102080Y26323D01*
X101993Y26360D01*
Y41500D01*
G37*
G36*
X97502D02*X101993D01*
Y26360D01*
X101971Y26369D01*
X101855Y26397D01*
X101737Y26406D01*
X101619Y26397D01*
X101503Y26370D01*
X101393Y26324D01*
X101292Y26262D01*
X101202Y26186D01*
X101124Y26095D01*
X101062Y25994D01*
X101016Y25885D01*
X100989Y25769D01*
X100979Y25651D01*
X100988Y25532D01*
X101016Y25417D01*
X101063Y25308D01*
X101221Y24968D01*
X101342Y24612D01*
X101430Y24247D01*
X101482Y23875D01*
X101500Y23500D01*
X101482Y23125D01*
X101430Y22753D01*
X101342Y22388D01*
X101221Y22032D01*
X101067Y21690D01*
X101020Y21582D01*
X100993Y21467D01*
X100983Y21349D01*
X100993Y21232D01*
X101021Y21117D01*
X101066Y21008D01*
X101128Y20907D01*
X101205Y20818D01*
X101295Y20741D01*
X101395Y20680D01*
X101504Y20635D01*
X101619Y20607D01*
X101737Y20598D01*
X101855Y20608D01*
X101969Y20635D01*
X101993Y20645D01*
Y2500D01*
X97502D01*
Y17994D01*
X98016Y18018D01*
X98528Y18091D01*
X99031Y18211D01*
X99520Y18378D01*
X99992Y18590D01*
X100093Y18651D01*
X100184Y18728D01*
X100261Y18818D01*
X100323Y18920D01*
X100369Y19029D01*
X100397Y19145D01*
X100406Y19263D01*
X100397Y19381D01*
X100370Y19497D01*
X100324Y19607D01*
X100262Y19708D01*
X100186Y19798D01*
X100095Y19876D01*
X99994Y19938D01*
X99885Y19984D01*
X99769Y20011D01*
X99651Y20021D01*
X99532Y20012D01*
X99417Y19984D01*
X99308Y19937D01*
X98968Y19779D01*
X98612Y19658D01*
X98247Y19570D01*
X97875Y19518D01*
X97502Y19500D01*
Y27500D01*
X97875Y27482D01*
X98247Y27430D01*
X98612Y27342D01*
X98968Y27221D01*
X99310Y27067D01*
X99418Y27020D01*
X99533Y26993D01*
X99651Y26983D01*
X99768Y26993D01*
X99883Y27021D01*
X99992Y27066D01*
X100093Y27128D01*
X100182Y27205D01*
X100259Y27295D01*
X100320Y27395D01*
X100365Y27504D01*
X100393Y27619D01*
X100402Y27737D01*
X100392Y27855D01*
X100365Y27969D01*
X100319Y28078D01*
X100257Y28179D01*
X100181Y28269D01*
X100091Y28345D01*
X99989Y28405D01*
X99520Y28622D01*
X99031Y28789D01*
X98528Y28909D01*
X98016Y28982D01*
X97502Y29006D01*
Y41500D01*
G37*
G36*
X93007D02*X97502D01*
Y29006D01*
X97500Y29006D01*
X96984Y28982D01*
X96472Y28909D01*
X95969Y28789D01*
X95480Y28622D01*
X95008Y28410D01*
X94907Y28349D01*
X94816Y28272D01*
X94739Y28182D01*
X94677Y28080D01*
X94631Y27971D01*
X94603Y27855D01*
X94594Y27737D01*
X94603Y27619D01*
X94630Y27503D01*
X94676Y27393D01*
X94738Y27292D01*
X94814Y27202D01*
X94905Y27124D01*
X95006Y27062D01*
X95115Y27016D01*
X95231Y26989D01*
X95349Y26979D01*
X95468Y26988D01*
X95583Y27016D01*
X95692Y27063D01*
X96032Y27221D01*
X96388Y27342D01*
X96753Y27430D01*
X97125Y27482D01*
X97500Y27500D01*
X97502Y27500D01*
Y19500D01*
X97500Y19500D01*
X97125Y19518D01*
X96753Y19570D01*
X96388Y19658D01*
X96032Y19779D01*
X95690Y19933D01*
X95582Y19980D01*
X95467Y20007D01*
X95349Y20017D01*
X95232Y20007D01*
X95117Y19979D01*
X95008Y19934D01*
X94907Y19872D01*
X94818Y19795D01*
X94741Y19705D01*
X94680Y19605D01*
X94635Y19496D01*
X94607Y19381D01*
X94598Y19263D01*
X94608Y19145D01*
X94635Y19031D01*
X94681Y18922D01*
X94743Y18821D01*
X94819Y18731D01*
X94909Y18655D01*
X95011Y18595D01*
X95480Y18378D01*
X95969Y18211D01*
X96472Y18091D01*
X96984Y18018D01*
X97500Y17994D01*
X97502Y17994D01*
Y2500D01*
X93007D01*
Y20640D01*
X93029Y20631D01*
X93145Y20603D01*
X93263Y20594D01*
X93381Y20603D01*
X93497Y20630D01*
X93607Y20676D01*
X93708Y20738D01*
X93798Y20814D01*
X93876Y20905D01*
X93938Y21006D01*
X93984Y21115D01*
X94011Y21231D01*
X94021Y21349D01*
X94012Y21468D01*
X93984Y21583D01*
X93937Y21692D01*
X93779Y22032D01*
X93658Y22388D01*
X93570Y22753D01*
X93518Y23125D01*
X93500Y23500D01*
X93518Y23875D01*
X93570Y24247D01*
X93658Y24612D01*
X93779Y24968D01*
X93933Y25310D01*
X93980Y25418D01*
X94007Y25533D01*
X94017Y25651D01*
X94007Y25768D01*
X93979Y25883D01*
X93934Y25992D01*
X93872Y26093D01*
X93795Y26182D01*
X93705Y26259D01*
X93605Y26320D01*
X93496Y26365D01*
X93381Y26393D01*
X93263Y26402D01*
X93145Y26392D01*
X93031Y26365D01*
X93007Y26355D01*
Y41500D01*
G37*
G36*
X77492D02*X93007D01*
Y26355D01*
X92922Y26319D01*
X92821Y26257D01*
X92731Y26181D01*
X92655Y26091D01*
X92595Y25989D01*
X92378Y25520D01*
X92211Y25031D01*
X92091Y24528D01*
X92018Y24016D01*
X91994Y23500D01*
X92018Y22984D01*
X92091Y22472D01*
X92211Y21969D01*
X92378Y21480D01*
X92590Y21008D01*
X92651Y20907D01*
X92728Y20816D01*
X92818Y20739D01*
X92920Y20677D01*
X93007Y20640D01*
Y2500D01*
X77492D01*
Y17984D01*
X77500Y17983D01*
X78363Y18051D01*
X79205Y18253D01*
X80005Y18584D01*
X80743Y19037D01*
X81401Y19599D01*
X81963Y20257D01*
X82416Y20995D01*
X82747Y21795D01*
X82949Y22637D01*
X83000Y23500D01*
X82949Y24363D01*
X82747Y25205D01*
X82416Y26005D01*
X81963Y26743D01*
X81401Y27401D01*
X80743Y27963D01*
X80005Y28416D01*
X79205Y28747D01*
X78363Y28949D01*
X77500Y29017D01*
X77492Y29016D01*
Y41500D01*
G37*
G36*
X57500D02*X77492D01*
Y29016D01*
X76637Y28949D01*
X75795Y28747D01*
X74995Y28416D01*
X74257Y27963D01*
X73599Y27401D01*
X73037Y26743D01*
X72584Y26005D01*
X72253Y25205D01*
X72051Y24363D01*
X71983Y23500D01*
X72051Y22637D01*
X72253Y21795D01*
X72584Y20995D01*
X73037Y20257D01*
X73599Y19599D01*
X74257Y19037D01*
X74995Y18584D01*
X75795Y18253D01*
X76637Y18051D01*
X77492Y17984D01*
Y2500D01*
X57500D01*
Y18007D01*
X61735Y18014D01*
X61965Y18069D01*
X62183Y18159D01*
X62384Y18283D01*
X62564Y18436D01*
X62717Y18616D01*
X62841Y18817D01*
X62931Y19035D01*
X62986Y19265D01*
X63000Y19500D01*
X62986Y27735D01*
X62931Y27965D01*
X62841Y28183D01*
X62717Y28384D01*
X62564Y28564D01*
X62384Y28717D01*
X62183Y28841D01*
X61965Y28931D01*
X61735Y28986D01*
X61500Y29000D01*
X57500Y28993D01*
Y41500D01*
G37*
G36*
X38500D02*X57500D01*
Y28993D01*
X53265Y28986D01*
X53035Y28931D01*
X52817Y28841D01*
X52616Y28717D01*
X52436Y28564D01*
X52283Y28384D01*
X52159Y28183D01*
X52069Y27965D01*
X52014Y27735D01*
X52000Y27500D01*
X52014Y19265D01*
X52069Y19035D01*
X52159Y18817D01*
X52283Y18616D01*
X52436Y18436D01*
X52616Y18283D01*
X52817Y18159D01*
X53035Y18069D01*
X53265Y18014D01*
X53500Y18000D01*
X57500Y18007D01*
Y2500D01*
X38500D01*
Y41500D01*
G37*
G36*
X156648Y185300D02*X183400D01*
Y117600D01*
X176721D01*
X176694Y117713D01*
X176556Y118047D01*
X176366Y118356D01*
X176131Y118631D01*
X176000Y118744D01*
Y126441D01*
X176005Y126500D01*
X175986Y126735D01*
X175931Y126965D01*
X175841Y127183D01*
X175717Y127384D01*
X175564Y127564D01*
X175519Y127602D01*
X174102Y129019D01*
X174064Y129064D01*
X173884Y129217D01*
X173683Y129341D01*
X173465Y129431D01*
X173235Y129486D01*
X173000Y129505D01*
X172941Y129500D01*
X169744D01*
X169631Y129631D01*
X169356Y129866D01*
X169047Y130056D01*
X168713Y130194D01*
X168361Y130279D01*
X168000Y130307D01*
X167639Y130279D01*
X167287Y130194D01*
X166953Y130056D01*
X166644Y129866D01*
X166369Y129631D01*
X166134Y129356D01*
X165944Y129047D01*
X165806Y128713D01*
X165721Y128361D01*
X165693Y128000D01*
X165721Y127639D01*
X165806Y127287D01*
X165944Y126953D01*
X166134Y126644D01*
X166369Y126369D01*
X166644Y126134D01*
X166953Y125944D01*
X167287Y125806D01*
X167639Y125721D01*
X168000Y125693D01*
X168361Y125721D01*
X168713Y125806D01*
X169047Y125944D01*
X169356Y126134D01*
X169631Y126369D01*
X169744Y126500D01*
X172379D01*
X173000Y125879D01*
Y118744D01*
X172869Y118631D01*
X172634Y118356D01*
X172444Y118047D01*
X172306Y117713D01*
X172279Y117600D01*
X156648D01*
Y129205D01*
X156861Y129221D01*
X157213Y129306D01*
X157547Y129444D01*
X157856Y129634D01*
X158131Y129869D01*
X158366Y130144D01*
X158556Y130453D01*
X158694Y130787D01*
X158779Y131139D01*
X158800Y131500D01*
X158779Y131861D01*
X158694Y132213D01*
X158556Y132547D01*
X158366Y132856D01*
X158131Y133131D01*
X157856Y133366D01*
X157547Y133556D01*
X157213Y133694D01*
X156861Y133779D01*
X156648Y133795D01*
Y136000D01*
X160441D01*
X160500Y135995D01*
X160735Y136014D01*
X160735Y136014D01*
X160965Y136069D01*
X161183Y136159D01*
X161384Y136283D01*
X161564Y136436D01*
X161602Y136481D01*
X172621Y147500D01*
X172756D01*
X172869Y147369D01*
X173144Y147134D01*
X173453Y146944D01*
X173787Y146806D01*
X174139Y146721D01*
X174500Y146693D01*
X174861Y146721D01*
X175213Y146806D01*
X175547Y146944D01*
X175856Y147134D01*
X176131Y147369D01*
X176366Y147644D01*
X176556Y147953D01*
X176694Y148287D01*
X176779Y148639D01*
X176800Y149000D01*
X176779Y149361D01*
X176694Y149713D01*
X176556Y150047D01*
X176366Y150356D01*
X176131Y150631D01*
X175856Y150866D01*
X175547Y151056D01*
X175213Y151194D01*
X174861Y151279D01*
X174500Y151307D01*
X174139Y151279D01*
X173787Y151194D01*
X173453Y151056D01*
X173144Y150866D01*
X172869Y150631D01*
X172756Y150500D01*
X172059D01*
X172000Y150505D01*
X171765Y150486D01*
X171535Y150431D01*
X171317Y150341D01*
X171116Y150217D01*
X171115Y150217D01*
X170936Y150064D01*
X170898Y150019D01*
X159879Y139000D01*
X156648D01*
Y185300D01*
G37*
G36*
X101000Y129630D02*Y140256D01*
X101131Y140369D01*
X101366Y140644D01*
X101556Y140953D01*
X101694Y141287D01*
X101779Y141639D01*
X101800Y142000D01*
X101779Y142361D01*
X101694Y142713D01*
X101556Y143047D01*
X101366Y143356D01*
X101131Y143631D01*
X100856Y143866D01*
X100547Y144056D01*
X100213Y144194D01*
X99861Y144279D01*
X99500Y144307D01*
X99139Y144279D01*
X98787Y144194D01*
X98453Y144056D01*
X98144Y143866D01*
X97869Y143631D01*
X97634Y143356D01*
X97500Y143138D01*
X97366Y143356D01*
X97131Y143631D01*
X96856Y143866D01*
X96547Y144056D01*
X96213Y144194D01*
X95861Y144279D01*
X95500Y144307D01*
X95139Y144279D01*
X94787Y144194D01*
X94453Y144056D01*
X94144Y143866D01*
X93869Y143631D01*
X93634Y143356D01*
X93500Y143138D01*
X93366Y143356D01*
X93131Y143631D01*
X92856Y143866D01*
X92547Y144056D01*
X92213Y144194D01*
X91861Y144279D01*
X91500Y144307D01*
X91139Y144279D01*
X90787Y144194D01*
X90453Y144056D01*
X90144Y143866D01*
X89869Y143631D01*
X89634Y143356D01*
X89500Y143138D01*
X89366Y143356D01*
X89131Y143631D01*
X88856Y143866D01*
X88547Y144056D01*
X88213Y144194D01*
X87861Y144279D01*
X87500Y144307D01*
X87139Y144279D01*
X86787Y144194D01*
X86453Y144056D01*
X86144Y143866D01*
X85869Y143631D01*
X85634Y143356D01*
X85444Y143047D01*
X85306Y142713D01*
X85221Y142361D01*
X85193Y142000D01*
X85221Y141639D01*
X85306Y141287D01*
X85444Y140953D01*
X85634Y140644D01*
X85869Y140369D01*
X86000Y140256D01*
Y136621D01*
X74200Y124821D01*
Y185300D01*
X156648D01*
Y139000D01*
X140768D01*
X140670Y139160D01*
X140435Y139435D01*
X140160Y139670D01*
X139851Y139860D01*
X139517Y139998D01*
X139165Y140083D01*
X138804Y140111D01*
X138443Y140083D01*
X138091Y139998D01*
X137757Y139860D01*
X137448Y139670D01*
X137173Y139435D01*
X136937Y139160D01*
X136748Y138851D01*
X136610Y138517D01*
X136525Y138165D01*
X136497Y137804D01*
X136525Y137443D01*
X136610Y137091D01*
X136748Y136757D01*
X136937Y136448D01*
X137173Y136173D01*
X137448Y135937D01*
X137757Y135748D01*
X138091Y135610D01*
X138443Y135525D01*
X138804Y135497D01*
X139165Y135525D01*
X139517Y135610D01*
X139851Y135748D01*
X140160Y135937D01*
X140233Y136000D01*
X156648D01*
Y133795D01*
X156500Y133807D01*
X156139Y133779D01*
X155787Y133694D01*
X155453Y133556D01*
X155144Y133366D01*
X154869Y133131D01*
X154634Y132856D01*
X154444Y132547D01*
X154306Y132213D01*
X154221Y131861D01*
X154193Y131500D01*
X154206Y131328D01*
X153703Y130824D01*
X153779Y131139D01*
X153800Y131500D01*
X153779Y131861D01*
X153694Y132213D01*
X153556Y132547D01*
X153366Y132856D01*
X153131Y133131D01*
X152856Y133366D01*
X152547Y133556D01*
X152213Y133694D01*
X151861Y133779D01*
X151500Y133807D01*
X151139Y133779D01*
X150787Y133694D01*
X150453Y133556D01*
X150144Y133366D01*
X149869Y133131D01*
X149756Y133000D01*
X141744D01*
X141631Y133131D01*
X141356Y133366D01*
X141047Y133556D01*
X140713Y133694D01*
X140361Y133779D01*
X140000Y133807D01*
X139639Y133779D01*
X139287Y133694D01*
X138953Y133556D01*
X138644Y133366D01*
X138369Y133131D01*
X138134Y132856D01*
X137944Y132547D01*
X137806Y132213D01*
X137721Y131861D01*
X137693Y131500D01*
X137721Y131139D01*
X137806Y130787D01*
X137944Y130453D01*
X138134Y130144D01*
X138369Y129869D01*
X138644Y129634D01*
X138862Y129500D01*
X138644Y129366D01*
X138369Y129131D01*
X138134Y128856D01*
X137944Y128547D01*
X137806Y128213D01*
X137721Y127861D01*
X137693Y127500D01*
X137721Y127139D01*
X137806Y126787D01*
X137944Y126453D01*
X138134Y126144D01*
X138369Y125869D01*
X138644Y125634D01*
X138953Y125444D01*
X139287Y125306D01*
X139639Y125221D01*
X140000Y125193D01*
X140361Y125221D01*
X140713Y125306D01*
X141047Y125444D01*
X141356Y125634D01*
X141631Y125869D01*
X141744Y126000D01*
X152441D01*
X152500Y125995D01*
X152735Y126014D01*
X152735Y126014D01*
X152965Y126069D01*
X153183Y126159D01*
X153384Y126283D01*
X153564Y126436D01*
X153602Y126481D01*
X156328Y129206D01*
X156500Y129193D01*
X156648Y129205D01*
Y117600D01*
X97000D01*
Y126776D01*
X97020Y126694D01*
X97176Y126316D01*
X97390Y125967D01*
X97656Y125656D01*
X97967Y125390D01*
X98316Y125176D01*
X98694Y125020D01*
X99092Y124924D01*
X99500Y124892D01*
X99908Y124924D01*
X100306Y125020D01*
X100684Y125176D01*
X101033Y125390D01*
X101344Y125656D01*
X101610Y125967D01*
X101824Y126316D01*
X101980Y126694D01*
X102076Y127092D01*
X102100Y127500D01*
X102076Y127908D01*
X101980Y128306D01*
X101824Y128684D01*
X101610Y129033D01*
X101344Y129344D01*
X101033Y129610D01*
X101000Y129630D01*
G37*
G36*
X197500Y141000D02*X173000D01*
Y147256D01*
X173144Y147134D01*
X173453Y146944D01*
X173787Y146806D01*
X174139Y146721D01*
X174500Y146693D01*
X174861Y146721D01*
X175213Y146806D01*
X175547Y146944D01*
X175856Y147134D01*
X176131Y147369D01*
X176366Y147644D01*
X176556Y147953D01*
X176694Y148287D01*
X176779Y148639D01*
X176800Y149000D01*
X176779Y149361D01*
X176694Y149713D01*
X176556Y150047D01*
X176366Y150356D01*
X176131Y150631D01*
X175856Y150866D01*
X175547Y151056D01*
X175213Y151194D01*
X174861Y151279D01*
X174500Y151307D01*
X174139Y151279D01*
X173787Y151194D01*
X173453Y151056D01*
X173144Y150866D01*
X173000Y150744D01*
Y285000D01*
X197500D01*
Y141000D01*
G37*
G54D30*X136000Y247000D02*Y241000D01*
X131500D02*Y250500D01*
G54D31*X120100Y214100D02*Y253700D01*
G54D30*X139500Y238500D02*X137500Y236500D01*
X128000D01*
G54D32*X150000Y289500D02*X138500D01*
X131500Y296500D01*
X157400Y267200D02*Y290600D01*
X151500Y296500D01*
X154000Y267100D02*Y285500D01*
X150000Y289500D01*
X160600Y267200D02*X157400D01*
X150800Y267100D02*X154000D01*
G54D30*X139500Y253000D02*Y238500D01*
X61000Y227000D02*X54500Y220500D01*
X67000Y233000D02*X60500Y226500D01*
X71000Y219000D02*X68500Y216500D01*
Y208500D01*
X71000Y215000D02*Y206500D01*
X68500Y204000D01*
X73000D02*Y208000D01*
X74500Y209500D01*
Y222500D01*
X77000Y210400D02*Y221500D01*
Y230600D02*Y219600D01*
X70000Y241600D02*X72000D01*
X74500Y239100D01*
X72800Y240800D01*
X74500Y220100D02*Y239100D01*
X89500Y233000D02*X79400D01*
X77000Y230600D01*
X79500Y61000D02*Y52500D01*
X83000Y49000D01*
X88000D01*
X101000Y85000D02*X89500D01*
X86500Y88000D01*
X110500D02*X91000D01*
X97500Y92000D02*X114000D01*
X91000Y88000D02*X89000Y90000D01*
X95500Y94000D02*X97500Y92000D01*
X89000Y90000D02*Y118500D01*
X87500Y142000D02*Y136000D01*
X91500Y142000D02*Y128000D01*
X95500Y142000D02*Y94000D01*
X99500Y127500D02*Y142000D01*
X86500Y120500D02*Y99500D01*
Y88000D02*Y103000D01*
Y119500D02*Y125000D01*
X87500Y136000D02*X72500Y121000D01*
Y115500D01*
X137500Y72000D02*X101500D01*
X126000Y68500D02*X101500D01*
X111000Y85000D02*Y87500D01*
X110500Y88000D01*
X114000Y92000D02*X121000Y85000D01*
G54D32*X133500Y102000D02*X189000D01*
G54D30*X160500Y137500D02*X139108D01*
X138804Y137804D01*
X140000Y131500D02*X151500D01*
X140000Y127500D02*X152500D01*
X156500Y131500D01*
X172000Y149000D02*X160500Y137500D01*
X172000Y149000D02*X174500D01*
Y117000D02*Y126500D01*
X173000Y128000D01*
X168000D01*
X167500Y98000D02*Y92000D01*
X174500Y85000D01*
G54D33*X17000Y17000D03*
G54D29*G36*
X53500Y27500D02*Y19500D01*
X61500D01*
Y27500D01*
X53500D01*
G37*
G54D34*X77500Y23500D03*
X97500D03*
G54D29*G36*
X113500Y27500D02*Y19500D01*
X121500D01*
Y27500D01*
X113500D01*
G37*
G54D34*X137500Y23500D03*
G54D33*X183000Y17000D03*
G54D29*G36*
X19500Y191000D02*Y183000D01*
X27500D01*
Y191000D01*
X19500D01*
G37*
G54D34*X23500Y167000D03*
Y147000D03*
G54D29*G36*
X19500Y115500D02*Y107500D01*
X27500D01*
Y115500D01*
X19500D01*
G37*
G54D34*X23500Y91500D03*
G54D29*G36*
X19500Y75500D02*Y67500D01*
X27500D01*
Y75500D01*
X19500D01*
G37*
G54D34*X23500Y51500D03*
G54D35*X93500Y291000D03*
X83500D03*
G54D29*G36*
X69563Y294937D02*Y287063D01*
X77437D01*
Y294937D01*
X69563D01*
G37*
G36*
X19500Y231000D02*Y223000D01*
X27500D01*
Y231000D01*
X19500D01*
G37*
G54D34*X23500Y207000D03*
G54D29*G36*
X19500Y278500D02*Y270500D01*
X27500D01*
Y278500D01*
X19500D01*
G37*
G54D34*X23500Y254500D03*
G54D33*X17000Y303000D03*
X183000D03*
G54D29*G36*
X147500Y300500D02*Y292500D01*
X155500D01*
Y300500D01*
X147500D01*
G37*
G54D34*X131500Y296500D03*
G54D36*X75300Y260800D03*
X171600Y261300D03*
X175100D03*
X178500D03*
X87400Y264500D03*
X83300D03*
X157400Y267200D03*
X154000Y267100D03*
X160600Y267200D03*
X150800Y267100D03*
X134500Y256400D03*
Y259800D03*
X154700Y246600D03*
X143100Y255900D03*
X139500Y253000D03*
X136000Y241000D03*
X131500D03*
X128000Y236500D03*
X114500Y236000D03*
X120000Y247200D03*
X113000Y247000D03*
Y250500D03*
X120000D03*
Y253800D03*
X164400Y193700D03*
X113200Y186000D03*
Y198400D03*
X102900Y202100D03*
X136000Y247000D03*
X131500Y250500D03*
X125800Y206800D03*
X136900D03*
X114600Y220800D03*
X120100Y213800D03*
Y217100D03*
Y220400D03*
X95000Y176500D03*
X92900Y197700D03*
X180500Y240000D03*
Y218000D03*
X177500Y41500D03*
X181000D03*
X177500Y73500D03*
Y105500D03*
Y137500D03*
X174500Y85000D03*
Y117000D03*
Y149000D03*
X181000Y73500D03*
Y105500D03*
Y137500D03*
X189000Y102000D03*
X185000D03*
X67000Y233000D03*
X89500D03*
X61000Y245500D03*
X131200Y82500D03*
X137000Y102000D03*
X133500D03*
X101000Y85000D03*
X111000D03*
X121000D03*
X86500Y125000D03*
X89000Y118500D03*
X87500Y142000D03*
X91500D03*
X72500Y115500D03*
X91500Y128000D03*
X95500Y142000D03*
X99500D03*
Y127500D03*
X138804Y137804D03*
X156500Y131500D03*
X151500D03*
X168000Y128000D03*
X140000Y131500D03*
Y127500D03*
X167500Y98000D03*
X71200Y272200D03*
X75300D03*
X71200Y260800D03*
X70000Y241600D03*
X79200Y260800D03*
X87400D03*
X83300D03*
X79200Y272200D03*
X87400D03*
X83300D03*
X87400Y268200D03*
X83300D03*
X71000Y219000D03*
Y215000D03*
X79500Y61000D03*
X88000Y49000D03*
X101500Y72000D03*
Y68500D03*
X68500Y208500D03*
Y204000D03*
X73000D03*
X77000Y210400D03*
X42800Y214800D03*
X47100D03*
X52000Y122000D03*
Y118000D03*
X61500Y202500D03*
Y199000D03*
Y174500D03*
Y171000D03*
X54500Y220500D03*
X42700Y186800D03*
X47000D03*
X95000Y173000D03*
X136500Y173500D03*
X132000Y148000D03*
X137500Y72000D03*
X126000Y68500D03*
X131200Y86000D03*
G54D37*G54D38*G54D39*G54D38*G54D39*G54D40*G54D39*G54D38*G54D39*M02*
