G04 start of page 7 for group -4062 idx -4062 *
G04 Title: (unknown), soldermask *
G04 Creator: pcb 4.0.2 *
G04 CreationDate: Wed Jul  1 19:07:19 2020 UTC *
G04 For: ndholmes *
G04 Format: Gerber/RS-274X *
G04 PCB-Dimensions (mil): 2000.00 3200.00 *
G04 PCB-Coordinate-Origin: lower left *
%MOIN*%
%FSLAX25Y25*%
%LNBOTTOMMASK*%
%ADD54C,0.0900*%
%ADD53C,0.0860*%
%ADD52C,0.0001*%
%ADD51C,0.2997*%
G54D51*X17000Y17000D03*
G54D52*G36*
X53200Y27800D02*Y19200D01*
X61800D01*
Y27800D01*
X53200D01*
G37*
G54D53*X77500Y23500D03*
X97500D03*
G54D52*G36*
X113200Y27800D02*Y19200D01*
X121800D01*
Y27800D01*
X113200D01*
G37*
G54D53*X137500Y23500D03*
G54D51*X183000Y17000D03*
G54D52*G36*
X19200Y191300D02*Y182700D01*
X27800D01*
Y191300D01*
X19200D01*
G37*
G54D53*X23500Y167000D03*
Y147000D03*
G54D52*G36*
X19200Y115800D02*Y107200D01*
X27800D01*
Y115800D01*
X19200D01*
G37*
G54D53*X23500Y91500D03*
G54D52*G36*
X19200Y75800D02*Y67200D01*
X27800D01*
Y75800D01*
X19200D01*
G37*
G54D53*X23500Y51500D03*
G54D54*X93500Y291000D03*
X83500D03*
G54D52*G36*
X69000Y295500D02*Y286500D01*
X78000D01*
Y295500D01*
X69000D01*
G37*
G36*
X19200Y231300D02*Y222700D01*
X27800D01*
Y231300D01*
X19200D01*
G37*
G54D53*X23500Y207000D03*
G54D52*G36*
X19200Y278800D02*Y270200D01*
X27800D01*
Y278800D01*
X19200D01*
G37*
G54D53*X23500Y254500D03*
G54D51*X17000Y303000D03*
X183000D03*
G54D52*G36*
X147200Y300800D02*Y292200D01*
X155800D01*
Y300800D01*
X147200D01*
G37*
G54D53*X131500Y296500D03*
M02*
