M48
INCH
T45C0.012
T44C0.045
T43C0.048
T42C0.129
%
T45
X004270Y018680
X004280Y021480
X004700Y018680
X004710Y021480
X005200Y012200
X005200Y011800
X005450Y022050
X006100Y024550
X006150Y020250
X006150Y019900
X006150Y017450
X006150Y017100
X006700Y023300
X006850Y020850
X006850Y020400
X007000Y024160
X007100Y021900
X007100Y021500
X007120Y027220
X007120Y026080
X007250Y011550
X007300Y020400
X007530Y027220
X007530Y026080
X007700Y021040
X007920Y027220
X007920Y026080
X007950Y006100
X008330Y027220
X008330Y026820
X008330Y026450
X008330Y026080
X008650Y012500
X008740Y027220
X008740Y026820
X008740Y026450
X008740Y026080
X008750Y014200
X008800Y004900
X008900Y011850
X008950Y023300
X009150Y014200
X009150Y012800
X009290Y019770
X009500Y017650
X009500Y017300
X009550Y014200
X009950Y014200
X009950Y012750
X010100Y008500
X010150Y007200
X010150Y006850
X010290Y020210
X011100Y008500
X011300Y025050
X011300Y024700
X011320Y019840
X011320Y018600
X011450Y023600
X011460Y022080
X012000Y025380
X012000Y025050
X012000Y024720
X012010Y022040
X012010Y021710
X012010Y021380
X012100Y008500
X012580Y020680
X012600Y006850
X012800Y023650
X013120Y008600
X013120Y008250
X013150Y025050
X013150Y024100
X013200Y014800
X013350Y010200
X013450Y025980
X013450Y025640
X013600Y024700
X013600Y024100
X013650Y017350
X013690Y020680
X013700Y010200
X013750Y007200
X013880Y013780
X013950Y025300
X014000Y013150
X014000Y012750
X014310Y025590
X015080Y026710
X015150Y013150
X015400Y026710
X015470Y024660
X015650Y013150
X015740Y026720
X016060Y026720
X016440Y019370
X016750Y009800
X016800Y012800
X017160Y026130
X017450Y014900
X017450Y011700
X017450Y008500
X017510Y026130
X017750Y013750
X017750Y010550
X017750Y007350
X017750Y004150
X017850Y026130
X018050Y024000
X018050Y021800
X018100Y013750
X018100Y010550
X018100Y007350
X018100Y004150
X018500Y010200
X018900Y010200
T44
X007350Y029100
X008350Y029100
X009350Y029100
T43
X002350Y027450
X002350Y025450
X002350Y022700
X002350Y020700
X002350Y018700
X002350Y016700
X002350Y014700
X002350Y011150
X002350Y009150
X002350Y007150
X002350Y005150
X005750Y002350
X007750Y002350
X009750Y002350
X011750Y002350
X013150Y029650
X013750Y002350
X015150Y029650
T42
X001700Y030300
X001700Y001700
X018300Y030300
X018300Y001700
M30
