G04 start of page 12 for group -3984 idx -3984 *
G04 Title: (unknown), fab *
G04 Creator: pcb 4.0.2 *
G04 CreationDate: Wed Jul  1 19:07:19 2020 UTC *
G04 For: ndholmes *
G04 Format: Gerber/RS-274X *
G04 PCB-Dimensions (mil): 2000.00 3200.00 *
G04 PCB-Coordinate-Origin: lower left *
%MOIN*%
%FSLAX25Y25*%
%LNFAB*%
%ADD62C,0.0100*%
%ADD61C,0.0060*%
%ADD60R,0.0080X0.0080*%
G54D60*X16200Y17000D02*G75*G03X17800Y17000I800J0D01*G01*
G75*G03X16200Y17000I-800J0D01*G01*
Y303000D02*G75*G03X17800Y303000I800J0D01*G01*
G75*G03X16200Y303000I-800J0D01*G01*
X182200D02*G75*G03X183800Y303000I800J0D01*G01*
G75*G03X182200Y303000I-800J0D01*G01*
Y17000D02*G75*G03X183800Y17000I800J0D01*G01*
G75*G03X182200Y17000I-800J0D01*G01*
X14200Y331250D02*G75*G03X15800Y331250I800J0D01*G01*
G75*G03X14200Y331250I-800J0D01*G01*
G54D61*X135000Y333500D02*Y332750D01*
X136500Y331250D01*
X138000Y332750D01*
Y333500D02*Y332750D01*
X136500Y331250D02*Y327500D01*
X139800Y330500D02*X142050D01*
X139800Y327500D02*X142800D01*
X139800Y333500D02*Y327500D01*
Y333500D02*X142800D01*
X147600D02*X148350Y332750D01*
X145350Y333500D02*X147600D01*
X144600Y332750D02*X145350Y333500D01*
X144600Y332750D02*Y331250D01*
X145350Y330500D01*
X147600D01*
X148350Y329750D01*
Y328250D01*
X147600Y327500D02*X148350Y328250D01*
X145350Y327500D02*X147600D01*
X144600Y328250D02*X145350Y327500D01*
X98000Y330500D02*X101000Y333500D01*
X98000Y330500D02*X101750D01*
X101000Y333500D02*Y327500D01*
X45000Y328250D02*X45750Y327500D01*
X45000Y332750D02*Y328250D01*
Y332750D02*X45750Y333500D01*
X47250D01*
X48000Y332750D01*
Y328250D01*
X47250Y327500D02*X48000Y328250D01*
X45750Y327500D02*X47250D01*
X45000Y329000D02*X48000Y332000D01*
X49800Y327500D02*X50550D01*
X53100D02*X54600D01*
X53850Y333500D02*Y327500D01*
X52350Y332000D02*X53850Y333500D01*
X56400Y332750D02*X57150Y333500D01*
X59400D01*
X60150Y332750D01*
Y331250D01*
X56400Y327500D02*X60150Y331250D01*
X56400Y327500D02*X60150D01*
X61950D02*X64950Y330500D01*
Y332750D02*Y330500D01*
X64200Y333500D02*X64950Y332750D01*
X62700Y333500D02*X64200D01*
X61950Y332750D02*X62700Y333500D01*
X61950Y332750D02*Y331250D01*
X62700Y330500D01*
X64950D01*
X22300Y228200D02*X24700Y225800D01*
X22300D02*X24700Y228200D01*
X22300Y208200D02*X24700Y205800D01*
X22300D02*X24700Y208200D01*
X22300Y275700D02*X24700Y273300D01*
X22300D02*X24700Y275700D01*
X22300Y255700D02*X24700Y253300D01*
X22300D02*X24700Y255700D01*
X56300Y24700D02*X58700Y22300D01*
X56300D02*X58700Y24700D01*
X76300D02*X78700Y22300D01*
X76300D02*X78700Y24700D01*
X96300D02*X98700Y22300D01*
X96300D02*X98700Y24700D01*
X22300Y188200D02*X24700Y185800D01*
X22300D02*X24700Y188200D01*
X22300Y168200D02*X24700Y165800D01*
X22300D02*X24700Y168200D01*
X22300Y148200D02*X24700Y145800D01*
X22300D02*X24700Y148200D01*
X22300Y112700D02*X24700Y110300D01*
X22300D02*X24700Y112700D01*
X22300Y92700D02*X24700Y90300D01*
X22300D02*X24700Y92700D01*
X22300Y72700D02*X24700Y70300D01*
X22300D02*X24700Y72700D01*
X22300Y52700D02*X24700Y50300D01*
X22300D02*X24700Y52700D01*
X150300Y297700D02*X152700Y295300D01*
X150300D02*X152700Y297700D01*
X130300D02*X132700Y295300D01*
X130300D02*X132700Y297700D01*
X116300Y24700D02*X118700Y22300D01*
X116300D02*X118700Y24700D01*
X136300D02*X138700Y22300D01*
X136300D02*X138700Y24700D01*
X13800Y347450D02*X16200Y345050D01*
X13800D02*X16200Y347450D01*
X135000Y348500D02*Y347750D01*
X136500Y346250D01*
X138000Y347750D01*
Y348500D02*Y347750D01*
X136500Y346250D02*Y342500D01*
X139800Y345500D02*X142050D01*
X139800Y342500D02*X142800D01*
X139800Y348500D02*Y342500D01*
Y348500D02*X142800D01*
X147600D02*X148350Y347750D01*
X145350Y348500D02*X147600D01*
X144600Y347750D02*X145350Y348500D01*
X144600Y347750D02*Y346250D01*
X145350Y345500D01*
X147600D01*
X148350Y344750D01*
Y343250D01*
X147600Y342500D02*X148350Y343250D01*
X145350Y342500D02*X147600D01*
X144600Y343250D02*X145350Y342500D01*
X98750D02*X100250D01*
X99500Y348500D02*Y342500D01*
X98000Y347000D02*X99500Y348500D01*
X102050Y343250D02*X102800Y342500D01*
X102050Y344750D02*Y343250D01*
Y344750D02*X102800Y345500D01*
X104300D01*
X105050Y344750D01*
Y343250D01*
X104300Y342500D02*X105050Y343250D01*
X102800Y342500D02*X104300D01*
X102050Y346250D02*X102800Y345500D01*
X102050Y347750D02*Y346250D01*
Y347750D02*X102800Y348500D01*
X104300D01*
X105050Y347750D01*
Y346250D01*
X104300Y345500D02*X105050Y346250D01*
X45000Y343250D02*X45750Y342500D01*
X45000Y347750D02*Y343250D01*
Y347750D02*X45750Y348500D01*
X47250D01*
X48000Y347750D01*
Y343250D01*
X47250Y342500D02*X48000Y343250D01*
X45750Y342500D02*X47250D01*
X45000Y344000D02*X48000Y347000D01*
X49800Y342500D02*X50550D01*
X52350Y343250D02*X53100Y342500D01*
X52350Y347750D02*Y343250D01*
Y347750D02*X53100Y348500D01*
X54600D01*
X55350Y347750D01*
Y343250D01*
X54600Y342500D02*X55350Y343250D01*
X53100Y342500D02*X54600D01*
X52350Y344000D02*X55350Y347000D01*
X57150Y345500D02*X60150Y348500D01*
X57150Y345500D02*X60900D01*
X60150Y348500D02*Y342500D01*
X62700Y343250D02*X63450Y342500D01*
X62700Y344750D02*Y343250D01*
Y344750D02*X63450Y345500D01*
X64950D01*
X65700Y344750D01*
Y343250D01*
X64950Y342500D02*X65700Y343250D01*
X63450Y342500D02*X64950D01*
X62700Y346250D02*X63450Y345500D01*
X62700Y347750D02*Y346250D01*
Y347750D02*X63450Y348500D01*
X64950D01*
X65700Y347750D01*
Y346250D01*
X64950Y345500D02*X65700Y346250D01*
X93500Y292600D02*Y289400D01*
X91900Y291000D02*X95100D01*
X83500Y292600D02*Y289400D01*
X81900Y291000D02*X85100D01*
X73500Y292600D02*Y289400D01*
X71900Y291000D02*X75100D01*
X15000Y362850D02*Y359650D01*
X13400Y361250D02*X16600D01*
X135000Y363500D02*Y362750D01*
X136500Y361250D01*
X138000Y362750D01*
Y363500D02*Y362750D01*
X136500Y361250D02*Y357500D01*
X139800Y360500D02*X142050D01*
X139800Y357500D02*X142800D01*
X139800Y363500D02*Y357500D01*
Y363500D02*X142800D01*
X147600D02*X148350Y362750D01*
X145350Y363500D02*X147600D01*
X144600Y362750D02*X145350Y363500D01*
X144600Y362750D02*Y361250D01*
X145350Y360500D01*
X147600D01*
X148350Y359750D01*
Y358250D01*
X147600Y357500D02*X148350Y358250D01*
X145350Y357500D02*X147600D01*
X144600Y358250D02*X145350Y357500D01*
X98000Y362750D02*X98750Y363500D01*
X100250D01*
X101000Y362750D01*
Y358250D01*
X100250Y357500D02*X101000Y358250D01*
X98750Y357500D02*X100250D01*
X98000Y358250D02*X98750Y357500D01*
Y360500D02*X101000D01*
X45000Y358250D02*X45750Y357500D01*
X45000Y362750D02*Y358250D01*
Y362750D02*X45750Y363500D01*
X47250D01*
X48000Y362750D01*
Y358250D01*
X47250Y357500D02*X48000Y358250D01*
X45750Y357500D02*X47250D01*
X45000Y359000D02*X48000Y362000D01*
X49800Y357500D02*X50550D01*
X52350Y358250D02*X53100Y357500D01*
X52350Y362750D02*Y358250D01*
Y362750D02*X53100Y363500D01*
X54600D01*
X55350Y362750D01*
Y358250D01*
X54600Y357500D02*X55350Y358250D01*
X53100Y357500D02*X54600D01*
X52350Y359000D02*X55350Y362000D01*
X57150Y360500D02*X60150Y363500D01*
X57150Y360500D02*X60900D01*
X60150Y363500D02*Y357500D01*
X62700Y363500D02*X65700D01*
X62700D02*Y360500D01*
X63450Y361250D01*
X64950D01*
X65700Y360500D01*
Y358250D01*
X64950Y357500D02*X65700Y358250D01*
X63450Y357500D02*X64950D01*
X62700Y358250D02*X63450Y357500D01*
X52000Y122000D02*Y120400D01*
Y122000D02*X53387Y122800D01*
X52000Y122000D02*X50613Y122800D01*
X42800Y214800D02*Y213200D01*
Y214800D02*X44187Y215600D01*
X42800Y214800D02*X41413Y215600D01*
X47100Y214800D02*Y213200D01*
Y214800D02*X48487Y215600D01*
X47100Y214800D02*X45713Y215600D01*
X71200Y272200D02*Y270600D01*
Y272200D02*X72587Y273000D01*
X71200Y272200D02*X69813Y273000D01*
X75300Y272200D02*Y270600D01*
Y272200D02*X76687Y273000D01*
X75300Y272200D02*X73913Y273000D01*
X79200Y272200D02*Y270600D01*
Y272200D02*X80587Y273000D01*
X79200Y272200D02*X77813Y273000D01*
X87400Y272200D02*Y270600D01*
Y272200D02*X88787Y273000D01*
X87400Y272200D02*X86013Y273000D01*
X83300Y272200D02*Y270600D01*
Y272200D02*X84687Y273000D01*
X83300Y272200D02*X81913Y273000D01*
X71200Y260800D02*Y259200D01*
Y260800D02*X72587Y261600D01*
X71200Y260800D02*X69813Y261600D01*
X75300Y260800D02*Y259200D01*
Y260800D02*X76687Y261600D01*
X75300Y260800D02*X73913Y261600D01*
X79200Y260800D02*Y259200D01*
Y260800D02*X80587Y261600D01*
X79200Y260800D02*X77813Y261600D01*
X87400Y260800D02*Y259200D01*
Y260800D02*X88787Y261600D01*
X87400Y260800D02*X86013Y261600D01*
X83300Y260800D02*Y259200D01*
Y260800D02*X84687Y261600D01*
X83300Y260800D02*X81913Y261600D01*
X87400Y268200D02*Y266600D01*
Y268200D02*X88787Y269000D01*
X87400Y268200D02*X86013Y269000D01*
X83300Y268200D02*Y266600D01*
Y268200D02*X84687Y269000D01*
X83300Y268200D02*X81913Y269000D01*
X87400Y264500D02*Y262900D01*
Y264500D02*X88787Y265300D01*
X87400Y264500D02*X86013Y265300D01*
X83300Y264500D02*Y262900D01*
Y264500D02*X84687Y265300D01*
X83300Y264500D02*X81913Y265300D01*
X134500Y256400D02*Y254800D01*
Y256400D02*X135887Y257200D01*
X134500Y256400D02*X133113Y257200D01*
X134500Y259800D02*Y258200D01*
Y259800D02*X135887Y260600D01*
X134500Y259800D02*X133113Y260600D01*
X157400Y267200D02*Y265600D01*
Y267200D02*X158787Y268000D01*
X157400Y267200D02*X156013Y268000D01*
X154000Y267100D02*Y265500D01*
Y267100D02*X155387Y267900D01*
X154000Y267100D02*X152613Y267900D01*
X160600Y267200D02*Y265600D01*
Y267200D02*X161987Y268000D01*
X160600Y267200D02*X159213Y268000D01*
X150800Y267100D02*Y265500D01*
Y267100D02*X152187Y267900D01*
X150800Y267100D02*X149413Y267900D01*
X171600Y261300D02*Y259700D01*
Y261300D02*X172987Y262100D01*
X171600Y261300D02*X170213Y262100D01*
X175100Y261300D02*Y259700D01*
Y261300D02*X176487Y262100D01*
X175100Y261300D02*X173713Y262100D01*
X178500Y261300D02*Y259700D01*
Y261300D02*X179887Y262100D01*
X178500Y261300D02*X177113Y262100D01*
X154700Y246600D02*Y245000D01*
Y246600D02*X156087Y247400D01*
X154700Y246600D02*X153313Y247400D01*
X143100Y255900D02*Y254300D01*
Y255900D02*X144487Y256700D01*
X143100Y255900D02*X141713Y256700D01*
X164400Y193700D02*Y192100D01*
Y193700D02*X165787Y194500D01*
X164400Y193700D02*X163013Y194500D01*
X136000Y241000D02*Y239400D01*
Y241000D02*X137387Y241800D01*
X136000Y241000D02*X134613Y241800D01*
X136000Y247000D02*Y245400D01*
Y247000D02*X137387Y247800D01*
X136000Y247000D02*X134613Y247800D01*
X131500Y250500D02*Y248900D01*
Y250500D02*X132887Y251300D01*
X131500Y250500D02*X130113Y251300D01*
X131500Y241000D02*Y239400D01*
Y241000D02*X132887Y241800D01*
X131500Y241000D02*X130113Y241800D01*
X139500Y253000D02*Y251400D01*
Y253000D02*X140887Y253800D01*
X139500Y253000D02*X138113Y253800D01*
X128000Y236500D02*Y234900D01*
Y236500D02*X129387Y237300D01*
X128000Y236500D02*X126613Y237300D01*
X113200Y186000D02*Y184400D01*
Y186000D02*X114587Y186800D01*
X113200Y186000D02*X111813Y186800D01*
X136500Y173500D02*Y171900D01*
Y173500D02*X137887Y174300D01*
X136500Y173500D02*X135113Y174300D01*
X132000Y148000D02*Y146400D01*
Y148000D02*X133387Y148800D01*
X132000Y148000D02*X130613Y148800D01*
X113200Y198400D02*Y196800D01*
Y198400D02*X114587Y199200D01*
X113200Y198400D02*X111813Y199200D01*
X125800Y206800D02*Y205200D01*
Y206800D02*X127187Y207600D01*
X125800Y206800D02*X124413Y207600D01*
X102900Y202100D02*Y200500D01*
Y202100D02*X104287Y202900D01*
X102900Y202100D02*X101513Y202900D01*
X136900Y206800D02*Y205200D01*
Y206800D02*X138287Y207600D01*
X136900Y206800D02*X135513Y207600D01*
X114600Y220800D02*Y219200D01*
Y220800D02*X115987Y221600D01*
X114600Y220800D02*X113213Y221600D01*
X114500Y236000D02*Y234400D01*
Y236000D02*X115887Y236800D01*
X114500Y236000D02*X113113Y236800D01*
X120100Y213800D02*Y212200D01*
Y213800D02*X121487Y214600D01*
X120100Y213800D02*X118713Y214600D01*
X120100Y217100D02*Y215500D01*
Y217100D02*X121487Y217900D01*
X120100Y217100D02*X118713Y217900D01*
X120100Y220400D02*Y218800D01*
Y220400D02*X121487Y221200D01*
X120100Y220400D02*X118713Y221200D01*
X120000Y247200D02*Y245600D01*
Y247200D02*X121387Y248000D01*
X120000Y247200D02*X118613Y248000D01*
X120000Y250500D02*Y248900D01*
Y250500D02*X121387Y251300D01*
X120000Y250500D02*X118613Y251300D01*
X120000Y253800D02*Y252200D01*
Y253800D02*X121387Y254600D01*
X120000Y253800D02*X118613Y254600D01*
X113000Y247000D02*Y245400D01*
Y247000D02*X114387Y247800D01*
X113000Y247000D02*X111613Y247800D01*
X113000Y250500D02*Y248900D01*
Y250500D02*X114387Y251300D01*
X113000Y250500D02*X111613Y251300D01*
X61500Y202500D02*Y200900D01*
Y202500D02*X62887Y203300D01*
X61500Y202500D02*X60113Y203300D01*
X61500Y199000D02*Y197400D01*
Y199000D02*X62887Y199800D01*
X61500Y199000D02*X60113Y199800D01*
X54500Y220500D02*Y218900D01*
Y220500D02*X55887Y221300D01*
X54500Y220500D02*X53113Y221300D01*
X67000Y233000D02*Y231400D01*
Y233000D02*X68387Y233800D01*
X67000Y233000D02*X65613Y233800D01*
X42700Y186800D02*Y185200D01*
Y186800D02*X44087Y187600D01*
X42700Y186800D02*X41313Y187600D01*
X47000Y186800D02*Y185200D01*
Y186800D02*X48387Y187600D01*
X47000Y186800D02*X45613Y187600D01*
X61500Y174500D02*Y172900D01*
Y174500D02*X62887Y175300D01*
X61500Y174500D02*X60113Y175300D01*
X61500Y171000D02*Y169400D01*
Y171000D02*X62887Y171800D01*
X61500Y171000D02*X60113Y171800D01*
X71000Y219000D02*Y217400D01*
Y219000D02*X72387Y219800D01*
X71000Y219000D02*X69613Y219800D01*
X68500Y208500D02*Y206900D01*
Y208500D02*X69887Y209300D01*
X68500Y208500D02*X67113Y209300D01*
X68500Y204000D02*Y202400D01*
Y204000D02*X69887Y204800D01*
X68500Y204000D02*X67113Y204800D01*
X71000Y215000D02*Y213400D01*
Y215000D02*X72387Y215800D01*
X71000Y215000D02*X69613Y215800D01*
X73000Y204000D02*Y202400D01*
Y204000D02*X74387Y204800D01*
X73000Y204000D02*X71613Y204800D01*
X95000Y176500D02*Y174900D01*
Y176500D02*X96387Y177300D01*
X95000Y176500D02*X93613Y177300D01*
X95000Y173000D02*Y171400D01*
Y173000D02*X96387Y173800D01*
X95000Y173000D02*X93613Y173800D01*
X92900Y197700D02*Y196100D01*
Y197700D02*X94287Y198500D01*
X92900Y197700D02*X91513Y198500D01*
X77000Y210400D02*Y208800D01*
Y210400D02*X78387Y211200D01*
X77000Y210400D02*X75613Y211200D01*
X70000Y241600D02*Y240000D01*
Y241600D02*X71387Y242400D01*
X70000Y241600D02*X68613Y242400D01*
X89500Y233000D02*Y231400D01*
Y233000D02*X90887Y233800D01*
X89500Y233000D02*X88113Y233800D01*
X180500Y240000D02*Y238400D01*
Y240000D02*X181887Y240800D01*
X180500Y240000D02*X179113Y240800D01*
X180500Y218000D02*Y216400D01*
Y218000D02*X181887Y218800D01*
X180500Y218000D02*X179113Y218800D01*
X52000Y118000D02*Y116400D01*
Y118000D02*X53387Y118800D01*
X52000Y118000D02*X50613Y118800D01*
X177500Y41500D02*Y39900D01*
Y41500D02*X178887Y42300D01*
X177500Y41500D02*X176113Y42300D01*
X181000Y41500D02*Y39900D01*
Y41500D02*X182387Y42300D01*
X181000Y41500D02*X179613Y42300D01*
X177500Y73500D02*Y71900D01*
Y73500D02*X178887Y74300D01*
X177500Y73500D02*X176113Y74300D01*
X181000Y73500D02*Y71900D01*
Y73500D02*X182387Y74300D01*
X181000Y73500D02*X179613Y74300D01*
X177500Y105500D02*Y103900D01*
Y105500D02*X178887Y106300D01*
X177500Y105500D02*X176113Y106300D01*
X181000Y105500D02*Y103900D01*
Y105500D02*X182387Y106300D01*
X181000Y105500D02*X179613Y106300D01*
X177500Y137500D02*Y135900D01*
Y137500D02*X178887Y138300D01*
X177500Y137500D02*X176113Y138300D01*
X181000Y137500D02*Y135900D01*
Y137500D02*X182387Y138300D01*
X181000Y137500D02*X179613Y138300D01*
X174500Y85000D02*Y83400D01*
Y85000D02*X175887Y85800D01*
X174500Y85000D02*X173113Y85800D01*
X174500Y117000D02*Y115400D01*
Y117000D02*X175887Y117800D01*
X174500Y117000D02*X173113Y117800D01*
X174500Y149000D02*Y147400D01*
Y149000D02*X175887Y149800D01*
X174500Y149000D02*X173113Y149800D01*
X61000Y245500D02*Y243900D01*
Y245500D02*X62387Y246300D01*
X61000Y245500D02*X59613Y246300D01*
X79500Y61000D02*Y59400D01*
Y61000D02*X80887Y61800D01*
X79500Y61000D02*X78113Y61800D01*
X88000Y49000D02*Y47400D01*
Y49000D02*X89387Y49800D01*
X88000Y49000D02*X86613Y49800D01*
X101500Y72000D02*Y70400D01*
Y72000D02*X102887Y72800D01*
X101500Y72000D02*X100113Y72800D01*
X137500Y72000D02*Y70400D01*
Y72000D02*X138887Y72800D01*
X137500Y72000D02*X136113Y72800D01*
X101500Y68500D02*Y66900D01*
Y68500D02*X102887Y69300D01*
X101500Y68500D02*X100113Y69300D01*
X126000Y68500D02*Y66900D01*
Y68500D02*X127387Y69300D01*
X126000Y68500D02*X124613Y69300D01*
X131200Y86000D02*Y84400D01*
Y86000D02*X132587Y86800D01*
X131200Y86000D02*X129813Y86800D01*
X131200Y82500D02*Y80900D01*
Y82500D02*X132587Y83300D01*
X131200Y82500D02*X129813Y83300D01*
X137000Y102000D02*Y100400D01*
Y102000D02*X138387Y102800D01*
X137000Y102000D02*X135613Y102800D01*
X133500Y102000D02*Y100400D01*
Y102000D02*X134887Y102800D01*
X133500Y102000D02*X132113Y102800D01*
X189000Y102000D02*Y100400D01*
Y102000D02*X190387Y102800D01*
X189000Y102000D02*X187613Y102800D01*
X185000Y102000D02*Y100400D01*
Y102000D02*X186387Y102800D01*
X185000Y102000D02*X183613Y102800D01*
X86500Y125000D02*Y123400D01*
Y125000D02*X87887Y125800D01*
X86500Y125000D02*X85113Y125800D01*
X101000Y85000D02*Y83400D01*
Y85000D02*X102387Y85800D01*
X101000Y85000D02*X99613Y85800D01*
X111000Y85000D02*Y83400D01*
Y85000D02*X112387Y85800D01*
X111000Y85000D02*X109613Y85800D01*
X121000Y85000D02*Y83400D01*
Y85000D02*X122387Y85800D01*
X121000Y85000D02*X119613Y85800D01*
X89000Y118500D02*Y116900D01*
Y118500D02*X90387Y119300D01*
X89000Y118500D02*X87613Y119300D01*
X87500Y142000D02*Y140400D01*
Y142000D02*X88887Y142800D01*
X87500Y142000D02*X86113Y142800D01*
X91500Y142000D02*Y140400D01*
Y142000D02*X92887Y142800D01*
X91500Y142000D02*X90113Y142800D01*
X72500Y115500D02*Y113900D01*
Y115500D02*X73887Y116300D01*
X72500Y115500D02*X71113Y116300D01*
X91500Y128000D02*Y126400D01*
Y128000D02*X92887Y128800D01*
X91500Y128000D02*X90113Y128800D01*
X95500Y142000D02*Y140400D01*
Y142000D02*X96887Y142800D01*
X95500Y142000D02*X94113Y142800D01*
X99500Y142000D02*Y140400D01*
Y142000D02*X100887Y142800D01*
X99500Y142000D02*X98113Y142800D01*
X99500Y127500D02*Y125900D01*
Y127500D02*X100887Y128300D01*
X99500Y127500D02*X98113Y128300D01*
X138804Y137804D02*Y136204D01*
Y137804D02*X140191Y138604D01*
X138804Y137804D02*X137417Y138604D01*
X156500Y131500D02*Y129900D01*
Y131500D02*X157887Y132300D01*
X156500Y131500D02*X155113Y132300D01*
X151500Y131500D02*Y129900D01*
Y131500D02*X152887Y132300D01*
X151500Y131500D02*X150113Y132300D01*
X168000Y128000D02*Y126400D01*
Y128000D02*X169387Y128800D01*
X168000Y128000D02*X166613Y128800D01*
X140000Y131500D02*Y129900D01*
Y131500D02*X141387Y132300D01*
X140000Y131500D02*X138613Y132300D01*
X140000Y127500D02*Y125900D01*
Y127500D02*X141387Y128300D01*
X140000Y127500D02*X138613Y128300D01*
X167500Y98000D02*Y96400D01*
Y98000D02*X168887Y98800D01*
X167500Y98000D02*X166113Y98800D01*
X15000Y376250D02*Y374650D01*
Y376250D02*X16387Y377050D01*
X15000Y376250D02*X13613Y377050D01*
X135000Y378500D02*Y377750D01*
X136500Y376250D01*
X138000Y377750D01*
Y378500D02*Y377750D01*
X136500Y376250D02*Y372500D01*
X139800Y375500D02*X142050D01*
X139800Y372500D02*X142800D01*
X139800Y378500D02*Y372500D01*
Y378500D02*X142800D01*
X147600D02*X148350Y377750D01*
X145350Y378500D02*X147600D01*
X144600Y377750D02*X145350Y378500D01*
X144600Y377750D02*Y376250D01*
X145350Y375500D01*
X147600D01*
X148350Y374750D01*
Y373250D01*
X147600Y372500D02*X148350Y373250D01*
X145350Y372500D02*X147600D01*
X144600Y373250D02*X145350Y372500D01*
X98750D02*X100250D01*
X99500Y378500D02*Y372500D01*
X98000Y377000D02*X99500Y378500D01*
X102800Y372500D02*X104300D01*
X103550Y378500D02*Y372500D01*
X102050Y377000D02*X103550Y378500D01*
X106100Y372500D02*X109850Y376250D01*
Y378500D02*Y376250D01*
X106100Y378500D02*X109850D01*
X45000Y373250D02*X45750Y372500D01*
X45000Y377750D02*Y373250D01*
Y377750D02*X45750Y378500D01*
X47250D01*
X48000Y377750D01*
Y373250D01*
X47250Y372500D02*X48000Y373250D01*
X45750Y372500D02*X47250D01*
X45000Y374000D02*X48000Y377000D01*
X49800Y372500D02*X50550D01*
X52350Y373250D02*X53100Y372500D01*
X52350Y377750D02*Y373250D01*
Y377750D02*X53100Y378500D01*
X54600D01*
X55350Y377750D01*
Y373250D01*
X54600Y372500D02*X55350Y373250D01*
X53100Y372500D02*X54600D01*
X52350Y374000D02*X55350Y377000D01*
X57900Y372500D02*X59400D01*
X58650Y378500D02*Y372500D01*
X57150Y377000D02*X58650Y378500D01*
X61200Y377750D02*X61950Y378500D01*
X64200D01*
X64950Y377750D01*
Y376250D01*
X61200Y372500D02*X64950Y376250D01*
X61200Y372500D02*X64950D01*
X3000Y393500D02*X3750Y392750D01*
X750Y393500D02*X3000D01*
X0Y392750D02*X750Y393500D01*
X0Y392750D02*Y391250D01*
X750Y390500D01*
X3000D01*
X3750Y389750D01*
Y388250D01*
X3000Y387500D02*X3750Y388250D01*
X750Y387500D02*X3000D01*
X0Y388250D02*X750Y387500D01*
X5550Y390500D02*Y388250D01*
X6300Y387500D01*
X8550Y390500D02*Y386000D01*
X7800Y385250D02*X8550Y386000D01*
X6300Y385250D02*X7800D01*
X5550Y386000D02*X6300Y385250D01*
Y387500D02*X7800D01*
X8550Y388250D01*
X11100Y389750D02*Y387500D01*
Y389750D02*X11850Y390500D01*
X12600D01*
X13350Y389750D01*
Y387500D01*
Y389750D02*X14100Y390500D01*
X14850D01*
X15600Y389750D01*
Y387500D01*
X10350Y390500D02*X11100Y389750D01*
X17400Y393500D02*Y387500D01*
Y388250D02*X18150Y387500D01*
X19650D01*
X20400Y388250D01*
Y389750D02*Y388250D01*
X19650Y390500D02*X20400Y389750D01*
X18150Y390500D02*X19650D01*
X17400Y389750D02*X18150Y390500D01*
X22200Y389750D02*Y388250D01*
Y389750D02*X22950Y390500D01*
X24450D01*
X25200Y389750D01*
Y388250D01*
X24450Y387500D02*X25200Y388250D01*
X22950Y387500D02*X24450D01*
X22200Y388250D02*X22950Y387500D01*
X27000Y393500D02*Y388250D01*
X27750Y387500D01*
X0Y384250D02*X29250D01*
X41750Y393500D02*Y387500D01*
X44000Y393500D02*X44750Y392750D01*
Y388250D01*
X44000Y387500D02*X44750Y388250D01*
X41000Y387500D02*X44000D01*
X41000Y393500D02*X44000D01*
X46550Y392000D02*Y391250D01*
Y389750D02*Y387500D01*
X50300Y390500D02*X51050Y389750D01*
X48800Y390500D02*X50300D01*
X48050Y389750D02*X48800Y390500D01*
X48050Y389750D02*Y388250D01*
X48800Y387500D01*
X51050Y390500D02*Y388250D01*
X51800Y387500D01*
X48800D02*X50300D01*
X51050Y388250D01*
X54350Y389750D02*Y387500D01*
Y389750D02*X55100Y390500D01*
X55850D01*
X56600Y389750D01*
Y387500D01*
Y389750D02*X57350Y390500D01*
X58100D01*
X58850Y389750D01*
Y387500D01*
X53600Y390500D02*X54350Y389750D01*
X60650Y387500D02*X61400D01*
X65900Y388250D02*X66650Y387500D01*
X65900Y392750D02*X66650Y393500D01*
X65900Y392750D02*Y388250D01*
X68450Y393500D02*X69950D01*
X69200D02*Y387500D01*
X68450D02*X69950D01*
X72500Y389750D02*Y387500D01*
Y389750D02*X73250Y390500D01*
X74000D01*
X74750Y389750D01*
Y387500D01*
X71750Y390500D02*X72500Y389750D01*
X77300Y390500D02*X79550D01*
X76550Y389750D02*X77300Y390500D01*
X76550Y389750D02*Y388250D01*
X77300Y387500D01*
X79550D01*
X81350Y393500D02*Y387500D01*
Y389750D02*X82100Y390500D01*
X83600D01*
X84350Y389750D01*
Y387500D01*
X86150Y393500D02*X86900Y392750D01*
Y388250D01*
X86150Y387500D02*X86900Y388250D01*
X41000Y384250D02*X88700D01*
X95750Y387500D02*X98000D01*
X95000Y388250D02*X95750Y387500D01*
X95000Y392750D02*Y388250D01*
Y392750D02*X95750Y393500D01*
X98000D01*
X99800Y389750D02*Y388250D01*
Y389750D02*X100550Y390500D01*
X102050D01*
X102800Y389750D01*
Y388250D01*
X102050Y387500D02*X102800Y388250D01*
X100550Y387500D02*X102050D01*
X99800Y388250D02*X100550Y387500D01*
X104600Y390500D02*Y388250D01*
X105350Y387500D01*
X106850D01*
X107600Y388250D01*
Y390500D02*Y388250D01*
X110150Y389750D02*Y387500D01*
Y389750D02*X110900Y390500D01*
X111650D01*
X112400Y389750D01*
Y387500D01*
X109400Y390500D02*X110150Y389750D01*
X114950Y393500D02*Y388250D01*
X115700Y387500D01*
X114200Y391250D02*X115700D01*
X95000Y384250D02*X117200D01*
X130750Y393500D02*Y387500D01*
X130000Y393500D02*X133000D01*
X133750Y392750D01*
Y391250D01*
X133000Y390500D02*X133750Y391250D01*
X130750Y390500D02*X133000D01*
X135550Y393500D02*Y388250D01*
X136300Y387500D01*
X140050Y390500D02*X140800Y389750D01*
X138550Y390500D02*X140050D01*
X137800Y389750D02*X138550Y390500D01*
X137800Y389750D02*Y388250D01*
X138550Y387500D01*
X140800Y390500D02*Y388250D01*
X141550Y387500D01*
X138550D02*X140050D01*
X140800Y388250D01*
X144100Y393500D02*Y388250D01*
X144850Y387500D01*
X143350Y391250D02*X144850D01*
X147100Y387500D02*X149350D01*
X146350Y388250D02*X147100Y387500D01*
X146350Y389750D02*Y388250D01*
Y389750D02*X147100Y390500D01*
X148600D01*
X149350Y389750D01*
X146350Y389000D02*X149350D01*
Y389750D02*Y389000D01*
X154150Y393500D02*Y387500D01*
X153400D02*X154150Y388250D01*
X151900Y387500D02*X153400D01*
X151150Y388250D02*X151900Y387500D01*
X151150Y389750D02*Y388250D01*
Y389750D02*X151900Y390500D01*
X153400D01*
X154150Y389750D01*
X157450Y390500D02*Y389750D01*
Y388250D02*Y387500D01*
X155950Y392750D02*Y392000D01*
Y392750D02*X156700Y393500D01*
X158200D01*
X158950Y392750D01*
Y392000D01*
X157450Y390500D02*X158950Y392000D01*
X130000Y384250D02*X160750D01*
X0Y408500D02*X3000D01*
X1500D02*Y402500D01*
X4800Y408500D02*Y402500D01*
Y404750D02*X5550Y405500D01*
X7050D01*
X7800Y404750D01*
Y402500D01*
X10350D02*X12600D01*
X9600Y403250D02*X10350Y402500D01*
X9600Y404750D02*Y403250D01*
Y404750D02*X10350Y405500D01*
X11850D01*
X12600Y404750D01*
X9600Y404000D02*X12600D01*
Y404750D02*Y404000D01*
X15150Y404750D02*Y402500D01*
Y404750D02*X15900Y405500D01*
X17400D01*
X14400D02*X15150Y404750D01*
X19950Y402500D02*X22200D01*
X19200Y403250D02*X19950Y402500D01*
X19200Y404750D02*Y403250D01*
Y404750D02*X19950Y405500D01*
X21450D01*
X22200Y404750D01*
X19200Y404000D02*X22200D01*
Y404750D02*Y404000D01*
X28950Y405500D02*X29700Y404750D01*
X27450Y405500D02*X28950D01*
X26700Y404750D02*X27450Y405500D01*
X26700Y404750D02*Y403250D01*
X27450Y402500D01*
X29700Y405500D02*Y403250D01*
X30450Y402500D01*
X27450D02*X28950D01*
X29700Y403250D01*
X33000Y404750D02*Y402500D01*
Y404750D02*X33750Y405500D01*
X35250D01*
X32250D02*X33000Y404750D01*
X37800Y402500D02*X40050D01*
X37050Y403250D02*X37800Y402500D01*
X37050Y404750D02*Y403250D01*
Y404750D02*X37800Y405500D01*
X39300D01*
X40050Y404750D01*
X37050Y404000D02*X40050D01*
Y404750D02*Y404000D01*
X44550Y405500D02*X47550Y408500D01*
X44550Y405500D02*X48300D01*
X47550Y408500D02*Y402500D01*
X55800Y408500D02*Y402500D01*
X55050D02*X55800Y403250D01*
X53550Y402500D02*X55050D01*
X52800Y403250D02*X53550Y402500D01*
X52800Y404750D02*Y403250D01*
Y404750D02*X53550Y405500D01*
X55050D01*
X55800Y404750D01*
X57600Y407000D02*Y406250D01*
Y404750D02*Y402500D01*
X59850Y407750D02*Y402500D01*
Y407750D02*X60600Y408500D01*
X61350D01*
X59100Y405500D02*X60600D01*
X63600Y407750D02*Y402500D01*
Y407750D02*X64350Y408500D01*
X65100D01*
X62850Y405500D02*X64350D01*
X67350Y402500D02*X69600D01*
X66600Y403250D02*X67350Y402500D01*
X66600Y404750D02*Y403250D01*
Y404750D02*X67350Y405500D01*
X68850D01*
X69600Y404750D01*
X66600Y404000D02*X69600D01*
Y404750D02*Y404000D01*
X72150Y404750D02*Y402500D01*
Y404750D02*X72900Y405500D01*
X74400D01*
X71400D02*X72150Y404750D01*
X76950Y402500D02*X79200D01*
X76200Y403250D02*X76950Y402500D01*
X76200Y404750D02*Y403250D01*
Y404750D02*X76950Y405500D01*
X78450D01*
X79200Y404750D01*
X76200Y404000D02*X79200D01*
Y404750D02*Y404000D01*
X81750Y404750D02*Y402500D01*
Y404750D02*X82500Y405500D01*
X83250D01*
X84000Y404750D01*
Y402500D01*
X81000Y405500D02*X81750Y404750D01*
X86550Y408500D02*Y403250D01*
X87300Y402500D01*
X85800Y406250D02*X87300D01*
X94500Y408500D02*Y402500D01*
X93750D02*X94500Y403250D01*
X92250Y402500D02*X93750D01*
X91500Y403250D02*X92250Y402500D01*
X91500Y404750D02*Y403250D01*
Y404750D02*X92250Y405500D01*
X93750D01*
X94500Y404750D01*
X97050D02*Y402500D01*
Y404750D02*X97800Y405500D01*
X99300D01*
X96300D02*X97050Y404750D01*
X101100Y407000D02*Y406250D01*
Y404750D02*Y402500D01*
X102600Y408500D02*Y403250D01*
X103350Y402500D01*
X104850Y408500D02*Y403250D01*
X105600Y402500D01*
X110550D02*X112800D01*
X113550Y403250D01*
X112800Y404000D02*X113550Y403250D01*
X110550Y404000D02*X112800D01*
X109800Y404750D02*X110550Y404000D01*
X109800Y404750D02*X110550Y405500D01*
X112800D01*
X113550Y404750D01*
X109800Y403250D02*X110550Y402500D01*
X115350Y407000D02*Y406250D01*
Y404750D02*Y402500D01*
X116850Y405500D02*X119850D01*
X116850Y402500D02*X119850Y405500D01*
X116850Y402500D02*X119850D01*
X122400D02*X124650D01*
X121650Y403250D02*X122400Y402500D01*
X121650Y404750D02*Y403250D01*
Y404750D02*X122400Y405500D01*
X123900D01*
X124650Y404750D01*
X121650Y404000D02*X124650D01*
Y404750D02*Y404000D01*
X127200Y402500D02*X129450D01*
X130200Y403250D01*
X129450Y404000D02*X130200Y403250D01*
X127200Y404000D02*X129450D01*
X126450Y404750D02*X127200Y404000D01*
X126450Y404750D02*X127200Y405500D01*
X129450D01*
X130200Y404750D01*
X126450Y403250D02*X127200Y402500D01*
X134700Y405500D02*Y403250D01*
X135450Y402500D01*
X136950D01*
X137700Y403250D01*
Y405500D02*Y403250D01*
X140250Y402500D02*X142500D01*
X143250Y403250D01*
X142500Y404000D02*X143250Y403250D01*
X140250Y404000D02*X142500D01*
X139500Y404750D02*X140250Y404000D01*
X139500Y404750D02*X140250Y405500D01*
X142500D01*
X143250Y404750D01*
X139500Y403250D02*X140250Y402500D01*
X145800D02*X148050D01*
X145050Y403250D02*X145800Y402500D01*
X145050Y404750D02*Y403250D01*
Y404750D02*X145800Y405500D01*
X147300D01*
X148050Y404750D01*
X145050Y404000D02*X148050D01*
Y404750D02*Y404000D01*
X152850Y408500D02*Y402500D01*
X152100D02*X152850Y403250D01*
X150600Y402500D02*X152100D01*
X149850Y403250D02*X150600Y402500D01*
X149850Y404750D02*Y403250D01*
Y404750D02*X150600Y405500D01*
X152100D01*
X152850Y404750D01*
X157350Y407000D02*Y406250D01*
Y404750D02*Y402500D01*
X159600Y404750D02*Y402500D01*
Y404750D02*X160350Y405500D01*
X161100D01*
X161850Y404750D01*
Y402500D01*
X158850Y405500D02*X159600Y404750D01*
X167100Y408500D02*Y403250D01*
X167850Y402500D01*
X166350Y406250D02*X167850D01*
X169350Y408500D02*Y402500D01*
Y404750D02*X170100Y405500D01*
X171600D01*
X172350Y404750D01*
Y402500D01*
X174150Y407000D02*Y406250D01*
Y404750D02*Y402500D01*
X176400D02*X178650D01*
X179400Y403250D01*
X178650Y404000D02*X179400Y403250D01*
X176400Y404000D02*X178650D01*
X175650Y404750D02*X176400Y404000D01*
X175650Y404750D02*X176400Y405500D01*
X178650D01*
X179400Y404750D01*
X175650Y403250D02*X176400Y402500D01*
X183900Y408500D02*Y403250D01*
X184650Y402500D01*
X188400Y405500D02*X189150Y404750D01*
X186900Y405500D02*X188400D01*
X186150Y404750D02*X186900Y405500D01*
X186150Y404750D02*Y403250D01*
X186900Y402500D01*
X189150Y405500D02*Y403250D01*
X189900Y402500D01*
X186900D02*X188400D01*
X189150Y403250D01*
X191700Y405500D02*Y403250D01*
X192450Y402500D01*
X194700Y405500D02*Y401000D01*
X193950Y400250D02*X194700Y401000D01*
X192450Y400250D02*X193950D01*
X191700Y401000D02*X192450Y400250D01*
Y402500D02*X193950D01*
X194700Y403250D01*
X196500Y404750D02*Y403250D01*
Y404750D02*X197250Y405500D01*
X198750D01*
X199500Y404750D01*
Y403250D01*
X198750Y402500D02*X199500Y403250D01*
X197250Y402500D02*X198750D01*
X196500Y403250D02*X197250Y402500D01*
X201300Y405500D02*Y403250D01*
X202050Y402500D01*
X203550D01*
X204300Y403250D01*
Y405500D02*Y403250D01*
X206850Y408500D02*Y403250D01*
X207600Y402500D01*
X206100Y406250D02*X207600D01*
X209100Y401000D02*X210600Y402500D01*
X215850D02*X217350D01*
X216600Y408500D02*Y402500D01*
X215100Y407000D02*X216600Y408500D01*
X219150Y405500D02*X222150Y408500D01*
X219150Y405500D02*X222900D01*
X222150Y408500D02*Y402500D01*
X224700Y407750D02*X225450Y408500D01*
X227700D01*
X228450Y407750D01*
Y406250D01*
X224700Y402500D02*X228450Y406250D01*
X224700Y402500D02*X228450D01*
X232950Y408500D02*Y402500D01*
Y404750D02*X233700Y405500D01*
X235200D01*
X235950Y404750D01*
Y402500D01*
X237750Y404750D02*Y403250D01*
Y404750D02*X238500Y405500D01*
X240000D01*
X240750Y404750D01*
Y403250D01*
X240000Y402500D02*X240750Y403250D01*
X238500Y402500D02*X240000D01*
X237750Y403250D02*X238500Y402500D01*
X242550Y408500D02*Y403250D01*
X243300Y402500D01*
X245550D02*X247800D01*
X244800Y403250D02*X245550Y402500D01*
X244800Y404750D02*Y403250D01*
Y404750D02*X245550Y405500D01*
X247050D01*
X247800Y404750D01*
X244800Y404000D02*X247800D01*
Y404750D02*Y404000D01*
X250350Y402500D02*X252600D01*
X253350Y403250D01*
X252600Y404000D02*X253350Y403250D01*
X250350Y404000D02*X252600D01*
X249600Y404750D02*X250350Y404000D01*
X249600Y404750D02*X250350Y405500D01*
X252600D01*
X253350Y404750D01*
X249600Y403250D02*X250350Y402500D01*
X258600Y408500D02*Y403250D01*
X259350Y402500D01*
X257850Y406250D02*X259350D01*
X260850Y404750D02*Y403250D01*
Y404750D02*X261600Y405500D01*
X263100D01*
X263850Y404750D01*
Y403250D01*
X263100Y402500D02*X263850Y403250D01*
X261600Y402500D02*X263100D01*
X260850Y403250D02*X261600Y402500D01*
X266400Y408500D02*Y403250D01*
X267150Y402500D01*
X265650Y406250D02*X267150D01*
X270900Y405500D02*X271650Y404750D01*
X269400Y405500D02*X270900D01*
X268650Y404750D02*X269400Y405500D01*
X268650Y404750D02*Y403250D01*
X269400Y402500D01*
X271650Y405500D02*Y403250D01*
X272400Y402500D01*
X269400D02*X270900D01*
X271650Y403250D01*
X274200Y408500D02*Y403250D01*
X274950Y402500D01*
G54D62*X0Y0D02*X200000D01*
Y320000D01*
X0D01*
Y0D01*
G54D61*X13675Y-9500D02*X16675D01*
X17425Y-8750D01*
Y-7250D02*Y-8750D01*
X16675Y-6500D02*X17425Y-7250D01*
X14425Y-6500D02*X16675D01*
X14425Y-3500D02*Y-9500D01*
X13675Y-3500D02*X16675D01*
X17425Y-4250D01*
Y-5750D01*
X16675Y-6500D02*X17425Y-5750D01*
X19225Y-7250D02*Y-8750D01*
Y-7250D02*X19975Y-6500D01*
X21475D01*
X22225Y-7250D01*
Y-8750D01*
X21475Y-9500D02*X22225Y-8750D01*
X19975Y-9500D02*X21475D01*
X19225Y-8750D02*X19975Y-9500D01*
X26275Y-6500D02*X27025Y-7250D01*
X24775Y-6500D02*X26275D01*
X24025Y-7250D02*X24775Y-6500D01*
X24025Y-7250D02*Y-8750D01*
X24775Y-9500D01*
X27025Y-6500D02*Y-8750D01*
X27775Y-9500D01*
X24775D02*X26275D01*
X27025Y-8750D01*
X30325Y-7250D02*Y-9500D01*
Y-7250D02*X31075Y-6500D01*
X32575D01*
X29575D02*X30325Y-7250D01*
X37375Y-3500D02*Y-9500D01*
X36625D02*X37375Y-8750D01*
X35125Y-9500D02*X36625D01*
X34375Y-8750D02*X35125Y-9500D01*
X34375Y-7250D02*Y-8750D01*
Y-7250D02*X35125Y-6500D01*
X36625D01*
X37375Y-7250D01*
X41875D02*Y-8750D01*
Y-7250D02*X42625Y-6500D01*
X44125D01*
X44875Y-7250D01*
Y-8750D01*
X44125Y-9500D02*X44875Y-8750D01*
X42625Y-9500D02*X44125D01*
X41875Y-8750D02*X42625Y-9500D01*
X46675Y-6500D02*Y-8750D01*
X47425Y-9500D01*
X48925D01*
X49675Y-8750D01*
Y-6500D02*Y-8750D01*
X52225Y-3500D02*Y-8750D01*
X52975Y-9500D01*
X51475Y-5750D02*X52975D01*
X54475Y-3500D02*Y-8750D01*
X55225Y-9500D01*
X56725Y-5000D02*Y-5750D01*
Y-7250D02*Y-9500D01*
X58975Y-7250D02*Y-9500D01*
Y-7250D02*X59725Y-6500D01*
X60475D01*
X61225Y-7250D01*
Y-9500D01*
X58225Y-6500D02*X58975Y-7250D01*
X63775Y-9500D02*X66025D01*
X63025Y-8750D02*X63775Y-9500D01*
X63025Y-7250D02*Y-8750D01*
Y-7250D02*X63775Y-6500D01*
X65275D01*
X66025Y-7250D01*
X63025Y-8000D02*X66025D01*
Y-7250D02*Y-8000D01*
X70525Y-5000D02*Y-5750D01*
Y-7250D02*Y-9500D01*
X72775D02*X75025D01*
X75775Y-8750D01*
X75025Y-8000D02*X75775Y-8750D01*
X72775Y-8000D02*X75025D01*
X72025Y-7250D02*X72775Y-8000D01*
X72025Y-7250D02*X72775Y-6500D01*
X75025D01*
X75775Y-7250D01*
X72025Y-8750D02*X72775Y-9500D01*
X81025Y-3500D02*Y-8750D01*
X81775Y-9500D01*
X80275Y-5750D02*X81775D01*
X83275Y-3500D02*Y-9500D01*
Y-7250D02*X84025Y-6500D01*
X85525D01*
X86275Y-7250D01*
Y-9500D01*
X88825D02*X91075D01*
X88075Y-8750D02*X88825Y-9500D01*
X88075Y-7250D02*Y-8750D01*
Y-7250D02*X88825Y-6500D01*
X90325D01*
X91075Y-7250D01*
X88075Y-8000D02*X91075D01*
Y-7250D02*Y-8000D01*
X96325Y-6500D02*X98575D01*
X95575Y-7250D02*X96325Y-6500D01*
X95575Y-7250D02*Y-8750D01*
X96325Y-9500D01*
X98575D01*
X101125D02*X103375D01*
X100375Y-8750D02*X101125Y-9500D01*
X100375Y-7250D02*Y-8750D01*
Y-7250D02*X101125Y-6500D01*
X102625D01*
X103375Y-7250D01*
X100375Y-8000D02*X103375D01*
Y-7250D02*Y-8000D01*
X105925Y-7250D02*Y-9500D01*
Y-7250D02*X106675Y-6500D01*
X107425D01*
X108175Y-7250D01*
Y-9500D01*
X105175Y-6500D02*X105925Y-7250D01*
X110725Y-3500D02*Y-8750D01*
X111475Y-9500D01*
X109975Y-5750D02*X111475D01*
X113725Y-9500D02*X115975D01*
X112975Y-8750D02*X113725Y-9500D01*
X112975Y-7250D02*Y-8750D01*
Y-7250D02*X113725Y-6500D01*
X115225D01*
X115975Y-7250D01*
X112975Y-8000D02*X115975D01*
Y-7250D02*Y-8000D01*
X118525Y-7250D02*Y-9500D01*
Y-7250D02*X119275Y-6500D01*
X120775D01*
X117775D02*X118525Y-7250D01*
X122575Y-3500D02*Y-8750D01*
X123325Y-9500D01*
X124825Y-5000D02*Y-5750D01*
Y-7250D02*Y-9500D01*
X127075Y-7250D02*Y-9500D01*
Y-7250D02*X127825Y-6500D01*
X128575D01*
X129325Y-7250D01*
Y-9500D01*
X126325Y-6500D02*X127075Y-7250D01*
X131875Y-9500D02*X134125D01*
X131125Y-8750D02*X131875Y-9500D01*
X131125Y-7250D02*Y-8750D01*
Y-7250D02*X131875Y-6500D01*
X133375D01*
X134125Y-7250D01*
X131125Y-8000D02*X134125D01*
Y-7250D02*Y-8000D01*
X138625Y-7250D02*Y-8750D01*
Y-7250D02*X139375Y-6500D01*
X140875D01*
X141625Y-7250D01*
Y-8750D01*
X140875Y-9500D02*X141625Y-8750D01*
X139375Y-9500D02*X140875D01*
X138625Y-8750D02*X139375Y-9500D01*
X144175Y-4250D02*Y-9500D01*
Y-4250D02*X144925Y-3500D01*
X145675D01*
X143425Y-6500D02*X144925D01*
X150625Y-3500D02*Y-8750D01*
X151375Y-9500D01*
X149875Y-5750D02*X151375D01*
X152875Y-3500D02*Y-9500D01*
Y-7250D02*X153625Y-6500D01*
X155125D01*
X155875Y-7250D01*
Y-9500D01*
X157675Y-5000D02*Y-5750D01*
Y-7250D02*Y-9500D01*
X159925D02*X162175D01*
X162925Y-8750D01*
X162175Y-8000D02*X162925Y-8750D01*
X159925Y-8000D02*X162175D01*
X159175Y-7250D02*X159925Y-8000D01*
X159175Y-7250D02*X159925Y-6500D01*
X162175D01*
X162925Y-7250D01*
X159175Y-8750D02*X159925Y-9500D01*
X168175Y-7250D02*Y-11750D01*
X167425Y-6500D02*X168175Y-7250D01*
X168925Y-6500D01*
X170425D01*
X171175Y-7250D01*
Y-8750D01*
X170425Y-9500D02*X171175Y-8750D01*
X168925Y-9500D02*X170425D01*
X168175Y-8750D02*X168925Y-9500D01*
X175225Y-6500D02*X175975Y-7250D01*
X173725Y-6500D02*X175225D01*
X172975Y-7250D02*X173725Y-6500D01*
X172975Y-7250D02*Y-8750D01*
X173725Y-9500D01*
X175975Y-6500D02*Y-8750D01*
X176725Y-9500D01*
X173725D02*X175225D01*
X175975Y-8750D01*
X179275Y-3500D02*Y-8750D01*
X180025Y-9500D01*
X178525Y-5750D02*X180025D01*
X181525Y-3500D02*Y-9500D01*
Y-7250D02*X182275Y-6500D01*
X183775D01*
X184525Y-7250D01*
Y-9500D01*
X200750Y348500D02*Y342500D01*
X203000Y348500D02*X203750Y347750D01*
Y343250D01*
X203000Y342500D02*X203750Y343250D01*
X200000Y342500D02*X203000D01*
X200000Y348500D02*X203000D01*
X207800Y345500D02*X208550Y344750D01*
X206300Y345500D02*X207800D01*
X205550Y344750D02*X206300Y345500D01*
X205550Y344750D02*Y343250D01*
X206300Y342500D01*
X208550Y345500D02*Y343250D01*
X209300Y342500D01*
X206300D02*X207800D01*
X208550Y343250D01*
X211850Y348500D02*Y343250D01*
X212600Y342500D01*
X211100Y346250D02*X212600D01*
X214850Y342500D02*X217100D01*
X214100Y343250D02*X214850Y342500D01*
X214100Y344750D02*Y343250D01*
Y344750D02*X214850Y345500D01*
X216350D01*
X217100Y344750D01*
X214100Y344000D02*X217100D01*
Y344750D02*Y344000D01*
X218900Y346250D02*X219650D01*
X218900Y344750D02*X219650D01*
X224150Y348500D02*Y342500D01*
X226400Y344750D01*
X228650Y342500D01*
Y348500D02*Y342500D01*
X231200D02*X233450D01*
X230450Y343250D02*X231200Y342500D01*
X230450Y344750D02*Y343250D01*
Y344750D02*X231200Y345500D01*
X232700D01*
X233450Y344750D01*
X230450Y344000D02*X233450D01*
Y344750D02*Y344000D01*
X238250Y348500D02*Y342500D01*
X237500D02*X238250Y343250D01*
X236000Y342500D02*X237500D01*
X235250Y343250D02*X236000Y342500D01*
X235250Y344750D02*Y343250D01*
Y344750D02*X236000Y345500D01*
X237500D01*
X238250Y344750D01*
X242750Y348500D02*X245000D01*
Y343250D01*
X244250Y342500D02*X245000Y343250D01*
X243500Y342500D02*X244250D01*
X242750Y343250D02*X243500Y342500D01*
X246800Y345500D02*Y343250D01*
X247550Y342500D01*
X249050D01*
X249800Y343250D01*
Y345500D02*Y343250D01*
X251600Y348500D02*Y343250D01*
X252350Y342500D01*
X260000D02*X261500D01*
X260750Y348500D02*Y342500D01*
X259250Y347000D02*X260750Y348500D01*
X266750Y342500D02*X268250D01*
X267500Y348500D02*Y342500D01*
X266000Y347000D02*X267500Y348500D01*
X270050Y342500D02*X273050Y345500D01*
Y347750D02*Y345500D01*
X272300Y348500D02*X273050Y347750D01*
X270800Y348500D02*X272300D01*
X270050Y347750D02*X270800Y348500D01*
X270050Y347750D02*Y346250D01*
X270800Y345500D01*
X273050D01*
X274850Y346250D02*X275600D01*
X274850Y344750D02*X275600D01*
X277400Y343250D02*X278150Y342500D01*
X277400Y347750D02*Y343250D01*
Y347750D02*X278150Y348500D01*
X279650D01*
X280400Y347750D01*
Y343250D01*
X279650Y342500D02*X280400Y343250D01*
X278150Y342500D02*X279650D01*
X277400Y344000D02*X280400Y347000D01*
X282200Y342500D02*X285950Y346250D01*
Y348500D02*Y346250D01*
X282200Y348500D02*X285950D01*
X287750Y346250D02*X288500D01*
X287750Y344750D02*X288500D01*
X291050Y342500D02*X292550D01*
X291800Y348500D02*Y342500D01*
X290300Y347000D02*X291800Y348500D01*
X294350Y342500D02*X297350Y345500D01*
Y347750D02*Y345500D01*
X296600Y348500D02*X297350Y347750D01*
X295100Y348500D02*X296600D01*
X294350Y347750D02*X295100Y348500D01*
X294350Y347750D02*Y346250D01*
X295100Y345500D01*
X297350D01*
X301850Y347750D02*X302600Y348500D01*
X304850D01*
X305600Y347750D01*
Y346250D01*
X301850Y342500D02*X305600Y346250D01*
X301850Y342500D02*X305600D01*
X307400Y343250D02*X308150Y342500D01*
X307400Y347750D02*Y343250D01*
Y347750D02*X308150Y348500D01*
X309650D01*
X310400Y347750D01*
Y343250D01*
X309650Y342500D02*X310400Y343250D01*
X308150Y342500D02*X309650D01*
X307400Y344000D02*X310400Y347000D01*
X312200Y347750D02*X312950Y348500D01*
X315200D01*
X315950Y347750D01*
Y346250D01*
X312200Y342500D02*X315950Y346250D01*
X312200Y342500D02*X315950D01*
X317750Y343250D02*X318500Y342500D01*
X317750Y347750D02*Y343250D01*
Y347750D02*X318500Y348500D01*
X320000D01*
X320750Y347750D01*
Y343250D01*
X320000Y342500D02*X320750Y343250D01*
X318500Y342500D02*X320000D01*
X317750Y344000D02*X320750Y347000D01*
X325250Y348500D02*Y343250D01*
X326000Y342500D01*
X327500D01*
X328250Y343250D01*
Y348500D02*Y343250D01*
X330050Y348500D02*X333050D01*
X331550D02*Y342500D01*
X335600D02*X337850D01*
X334850Y343250D02*X335600Y342500D01*
X334850Y347750D02*Y343250D01*
Y347750D02*X335600Y348500D01*
X337850D01*
X200000Y362750D02*Y357500D01*
Y362750D02*X200750Y363500D01*
X203000D01*
X203750Y362750D01*
Y357500D01*
X200000Y360500D02*X203750D01*
X205550D02*Y358250D01*
X206300Y357500D01*
X207800D01*
X208550Y358250D01*
Y360500D02*Y358250D01*
X211100Y363500D02*Y358250D01*
X211850Y357500D01*
X210350Y361250D02*X211850D01*
X213350Y363500D02*Y357500D01*
Y359750D02*X214100Y360500D01*
X215600D01*
X216350Y359750D01*
Y357500D01*
X218150Y359750D02*Y358250D01*
Y359750D02*X218900Y360500D01*
X220400D01*
X221150Y359750D01*
Y358250D01*
X220400Y357500D02*X221150Y358250D01*
X218900Y357500D02*X220400D01*
X218150Y358250D02*X218900Y357500D01*
X223700Y359750D02*Y357500D01*
Y359750D02*X224450Y360500D01*
X225950D01*
X222950D02*X223700Y359750D01*
X227750Y361250D02*X228500D01*
X227750Y359750D02*X228500D01*
X233000Y363500D02*Y357500D01*
Y363500D02*Y362750D01*
X236750Y359000D01*
Y363500D02*Y357500D01*
X240800Y360500D02*X241550Y359750D01*
X239300Y360500D02*X240800D01*
X238550Y359750D02*X239300Y360500D01*
X238550Y359750D02*Y358250D01*
X239300Y357500D01*
X241550Y360500D02*Y358250D01*
X242300Y357500D01*
X239300D02*X240800D01*
X241550Y358250D01*
X244850Y363500D02*Y358250D01*
X245600Y357500D01*
X244100Y361250D02*X245600D01*
X247100Y363500D02*Y357500D01*
Y359750D02*X247850Y360500D01*
X249350D01*
X250100Y359750D01*
Y357500D01*
X254150Y360500D02*X254900Y359750D01*
X252650Y360500D02*X254150D01*
X251900Y359750D02*X252650Y360500D01*
X251900Y359750D02*Y358250D01*
X252650Y357500D01*
X254900Y360500D02*Y358250D01*
X255650Y357500D01*
X252650D02*X254150D01*
X254900Y358250D01*
X258200Y359750D02*Y357500D01*
Y359750D02*X258950Y360500D01*
X259700D01*
X260450Y359750D01*
Y357500D01*
X257450Y360500D02*X258200Y359750D01*
X265700Y363500D02*Y357500D01*
X267950Y363500D02*X268700Y362750D01*
Y358250D01*
X267950Y357500D02*X268700Y358250D01*
X264950Y357500D02*X267950D01*
X264950Y363500D02*X267950D01*
X270500Y357500D02*X271250D01*
X275750Y363500D02*Y357500D01*
X279500Y363500D02*Y357500D01*
X275750Y360500D02*X279500D01*
X281300Y359750D02*Y358250D01*
Y359750D02*X282050Y360500D01*
X283550D01*
X284300Y359750D01*
Y358250D01*
X283550Y357500D02*X284300Y358250D01*
X282050Y357500D02*X283550D01*
X281300Y358250D02*X282050Y357500D01*
X286100Y363500D02*Y358250D01*
X286850Y357500D01*
X289100Y359750D02*Y357500D01*
Y359750D02*X289850Y360500D01*
X290600D01*
X291350Y359750D01*
Y357500D01*
Y359750D02*X292100Y360500D01*
X292850D01*
X293600Y359750D01*
Y357500D01*
X288350Y360500D02*X289100Y359750D01*
X296150Y357500D02*X298400D01*
X295400Y358250D02*X296150Y357500D01*
X295400Y359750D02*Y358250D01*
Y359750D02*X296150Y360500D01*
X297650D01*
X298400Y359750D01*
X295400Y359000D02*X298400D01*
Y359750D02*Y359000D01*
X300950Y357500D02*X303200D01*
X303950Y358250D01*
X303200Y359000D02*X303950Y358250D01*
X300950Y359000D02*X303200D01*
X300200Y359750D02*X300950Y359000D01*
X300200Y359750D02*X300950Y360500D01*
X303200D01*
X303950Y359750D01*
X300200Y358250D02*X300950Y357500D01*
X200000Y378500D02*X203000D01*
X201500D02*Y372500D01*
X204800Y377000D02*Y376250D01*
Y374750D02*Y372500D01*
X207050Y378500D02*Y373250D01*
X207800Y372500D01*
X206300Y376250D02*X207800D01*
X209300Y378500D02*Y373250D01*
X210050Y372500D01*
X212300D02*X214550D01*
X211550Y373250D02*X212300Y372500D01*
X211550Y374750D02*Y373250D01*
Y374750D02*X212300Y375500D01*
X213800D01*
X214550Y374750D01*
X211550Y374000D02*X214550D01*
Y374750D02*Y374000D01*
X216350Y376250D02*X217100D01*
X216350Y374750D02*X217100D01*
X221600Y373250D02*X222350Y372500D01*
X221600Y377750D02*X222350Y378500D01*
X221600Y377750D02*Y373250D01*
X224150Y375500D02*Y373250D01*
X224900Y372500D01*
X226400D01*
X227150Y373250D01*
Y375500D02*Y373250D01*
X229700Y374750D02*Y372500D01*
Y374750D02*X230450Y375500D01*
X231200D01*
X231950Y374750D01*
Y372500D01*
X228950Y375500D02*X229700Y374750D01*
X233750Y378500D02*Y372500D01*
Y374750D02*X236000Y372500D01*
X233750Y374750D02*X235250Y376250D01*
X238550Y374750D02*Y372500D01*
Y374750D02*X239300Y375500D01*
X240050D01*
X240800Y374750D01*
Y372500D01*
X237800Y375500D02*X238550Y374750D01*
X242600D02*Y373250D01*
Y374750D02*X243350Y375500D01*
X244850D01*
X245600Y374750D01*
Y373250D01*
X244850Y372500D02*X245600Y373250D01*
X243350Y372500D02*X244850D01*
X242600Y373250D02*X243350Y372500D01*
X247400Y375500D02*Y373250D01*
X248150Y372500D01*
X248900D01*
X249650Y373250D01*
Y375500D02*Y373250D01*
X250400Y372500D01*
X251150D01*
X251900Y373250D01*
Y375500D02*Y373250D01*
X254450Y374750D02*Y372500D01*
Y374750D02*X255200Y375500D01*
X255950D01*
X256700Y374750D01*
Y372500D01*
X253700Y375500D02*X254450Y374750D01*
X258500Y378500D02*X259250Y377750D01*
Y373250D01*
X258500Y372500D02*X259250Y373250D01*
X263750Y375500D02*X266750D01*
X271250Y378500D02*Y372500D01*
Y378500D02*X274250D01*
X271250Y375500D02*X273500D01*
X278300D02*X279050Y374750D01*
X276800Y375500D02*X278300D01*
X276050Y374750D02*X276800Y375500D01*
X276050Y374750D02*Y373250D01*
X276800Y372500D01*
X279050Y375500D02*Y373250D01*
X279800Y372500D01*
X276800D02*X278300D01*
X279050Y373250D01*
X281600Y378500D02*Y372500D01*
Y373250D02*X282350Y372500D01*
X283850D01*
X284600Y373250D01*
Y374750D02*Y373250D01*
X283850Y375500D02*X284600Y374750D01*
X282350Y375500D02*X283850D01*
X281600Y374750D02*X282350Y375500D01*
X287150Y374750D02*Y372500D01*
Y374750D02*X287900Y375500D01*
X289400D01*
X286400D02*X287150Y374750D01*
X291200Y377000D02*Y376250D01*
Y374750D02*Y372500D01*
X293450Y375500D02*X295700D01*
X292700Y374750D02*X293450Y375500D01*
X292700Y374750D02*Y373250D01*
X293450Y372500D01*
X295700D01*
X299750Y375500D02*X300500Y374750D01*
X298250Y375500D02*X299750D01*
X297500Y374750D02*X298250Y375500D01*
X297500Y374750D02*Y373250D01*
X298250Y372500D01*
X300500Y375500D02*Y373250D01*
X301250Y372500D01*
X298250D02*X299750D01*
X300500Y373250D01*
X303800Y378500D02*Y373250D01*
X304550Y372500D01*
X303050Y376250D02*X304550D01*
X306050Y377000D02*Y376250D01*
Y374750D02*Y372500D01*
X307550Y374750D02*Y373250D01*
Y374750D02*X308300Y375500D01*
X309800D01*
X310550Y374750D01*
Y373250D01*
X309800Y372500D02*X310550Y373250D01*
X308300Y372500D02*X309800D01*
X307550Y373250D02*X308300Y372500D01*
X313100Y374750D02*Y372500D01*
Y374750D02*X313850Y375500D01*
X314600D01*
X315350Y374750D01*
Y372500D01*
X312350Y375500D02*X313100Y374750D01*
X320600Y378500D02*Y372500D01*
X322850Y378500D02*X323600Y377750D01*
Y373250D01*
X322850Y372500D02*X323600Y373250D01*
X319850Y372500D02*X322850D01*
X319850Y378500D02*X322850D01*
X326150Y374750D02*Y372500D01*
Y374750D02*X326900Y375500D01*
X328400D01*
X325400D02*X326150Y374750D01*
X332450Y375500D02*X333200Y374750D01*
X330950Y375500D02*X332450D01*
X330200Y374750D02*X330950Y375500D01*
X330200Y374750D02*Y373250D01*
X330950Y372500D01*
X333200Y375500D02*Y373250D01*
X333950Y372500D01*
X330950D02*X332450D01*
X333200Y373250D01*
X335750Y375500D02*Y373250D01*
X336500Y372500D01*
X337250D01*
X338000Y373250D01*
Y375500D02*Y373250D01*
X338750Y372500D01*
X339500D01*
X340250Y373250D01*
Y375500D02*Y373250D01*
X342050Y377000D02*Y376250D01*
Y374750D02*Y372500D01*
X344300Y374750D02*Y372500D01*
Y374750D02*X345050Y375500D01*
X345800D01*
X346550Y374750D01*
Y372500D01*
X343550Y375500D02*X344300Y374750D01*
X350600Y375500D02*X351350Y374750D01*
X349100Y375500D02*X350600D01*
X348350Y374750D02*X349100Y375500D01*
X348350Y374750D02*Y373250D01*
X349100Y372500D01*
X350600D01*
X351350Y373250D01*
X348350Y371000D02*X349100Y370250D01*
X350600D01*
X351350Y371000D01*
Y375500D02*Y371000D01*
M02*
