M48
INCH,TZ
T1C0.0130
T2C0.0157
T3C0.0512
T4C0.1260
%
G90
G05
T1
X20884Y-29198
X20884Y-29710
X20884Y-30222
X21396Y-29198
X21396Y-29710
X21396Y-30222
X25794Y-29188
X25794Y-29700
X25794Y-30212
X26306Y-29188
X26306Y-29700
X26306Y-30212
T2
X14750Y-14300
X14750Y-15000
X15800Y-9350
X15987Y-25550
X16200Y-26000
X16700Y-26500
X16900Y-9550
X16900Y-10250
X16950Y-27350
X16950Y-28250
X16950Y-29150
X16950Y-30000
X16950Y-30850
X17200Y-9900
X17500Y-9550
X17500Y-10250
X17750Y-9900
X19480Y-18127
X19480Y-19800
X19480Y-21500
X19880Y-18127
X19880Y-19800
X19880Y-21500
X20400Y-19300
X20400Y-20100
X20810Y-19700
X20900Y-10300
X20950Y-25850
X21350Y-26350
X21650Y-9350
X21900Y-26350
X23150Y-36900
X23200Y-9550
X23200Y-10250
X23250Y-27300
X23250Y-28550
X23450Y-36600
X23500Y-9900
X23800Y-18950
X23800Y-19650
X24000Y-14764
X24000Y-15214
X24100Y-19300
X27450Y-9550
X27450Y-10250
X27600Y-15398
X27600Y-15848
X27750Y-9900
X28231Y-25200
X29600Y-36900
X29886Y-36593
X30350Y-26500
X30750Y-26500
X31050Y-24950
X31150Y-26500
X31700Y-9550
X31700Y-10250
X31750Y-15398
X31750Y-15850
X31750Y-27250
X31750Y-27700
X31750Y-28150
X31851Y-32000
X32000Y-9900
X32050Y-24950
X32250Y-28400
X32400Y-25150
X32400Y-25950
X32400Y-29500
X32400Y-30700
X32551Y-32000
X32650Y-28400
X32650Y-35950
X32850Y-29500
X32850Y-30700
X33050Y-27250
X33050Y-27700
X33050Y-28150
X33301Y-32000
X33350Y-29500
X33350Y-30700
X33500Y-23650
X33850Y-20100
X33900Y-24150
X34001Y-32000
X34400Y-9350
X34600Y-19450
X34700Y-20000
X34700Y-26500
X34700Y-35950
X34750Y-20550
X34750Y-21900
X34751Y-32000
X34950Y-23600
X35050Y-21400
X35100Y-26500
X35500Y-26500
X35901Y-32000
X35950Y-9550
X35950Y-10250
X36250Y-9900
X36400Y-23400
X36601Y-32000
X37000Y-35850
X37351Y-32000
X37450Y-22400
X38051Y-32000
X38600Y-25400
X38600Y-25850
X38700Y-22900
X38801Y-32000
X39000Y-35700
X39500Y-18050
X39900Y-18050
X40050Y-22900
X40164Y-25367
X40200Y-27050
X40400Y-30750
X40400Y-32000
X40450Y-19000
X40514Y-26491
X40800Y-27550
X40850Y-24550
X40859Y-9359
X40900Y-22900
X40950Y-19000
X41150Y-27850
X41400Y-32800
X42400Y-9550
X42400Y-10250
X42450Y-26050
X42474Y-21900
X42700Y-9900
X43150Y-18100
X43650Y-21900
X44250Y-26350
X44350Y-18100
X44650Y-26350
X44800Y-21600
X45000Y-24000
X45500Y-22494
X45849Y-31550
X46500Y-23750
X46650Y-9550
X46650Y-10250
X46950Y-9900
X47000Y-20200
X47130Y-22500
X47450Y-35350
X47499Y-31550
X47600Y-17900
X48400Y-35350
X48449Y-31550
X49250Y-26500
X49250Y-26900
X49300Y-35350
X49349Y-31550
X50607Y-14981
X50607Y-15467
X50900Y-9550
X50900Y-10250
X51200Y-9900
X52300Y-32100
X52650Y-32450
X52950Y-32850
X53300Y-33150
X53600Y-9350
X53900Y-35350
X54050Y-32250
X54607Y-14981
X54607Y-15481
X54750Y-35350
X55150Y-9550
X55150Y-10250
X55450Y-9900
X55750Y-32250
X57150Y-16950
X57150Y-18800
X57450Y-32250
X57700Y-16950
X57700Y-18800
X58250Y-28000
X58677Y-27977
X59000Y-28250
X59350Y-28550
T3
X13098Y-18939
X13098Y-20908
X13098Y-22970
X13098Y-24939
X13134Y-28866
X13134Y-30834
X18716Y-34366
X20684Y-34366
X24991Y-34340
X26960Y-34340
T4
X11700Y-9200
X11700Y-35800
X58300Y-9200
X58300Y-35800
M30
