G04 #@! TF.GenerationSoftware,KiCad,Pcbnew,6.0.10-86aedd382b~118~ubuntu18.04.1*
G04 #@! TF.CreationDate,2024-08-26T13:48:25-06:00*
G04 #@! TF.ProjectId,ckt-xing-basic,636b742d-7869-46e6-972d-62617369632e,rev?*
G04 #@! TF.SameCoordinates,Original*
G04 #@! TF.FileFunction,Soldermask,Top*
G04 #@! TF.FilePolarity,Negative*
%FSLAX46Y46*%
G04 Gerber Fmt 4.6, Leading zero omitted, Abs format (unit mm)*
G04 Created by KiCad (PCBNEW 6.0.10-86aedd382b~118~ubuntu18.04.1) date 2024-08-26 13:48:25*
%MOMM*%
%LPD*%
G01*
G04 APERTURE LIST*
%ADD10C,6.552400*%
%ADD11C,2.652400*%
%ADD12C,2.452400*%
%ADD13C,2.527300*%
%ADD14C,1.143000*%
%ADD15C,0.939800*%
G04 APERTURE END LIST*
G36*
G01*
X95100200Y-63812000D02*
X95100200Y-64712000D01*
G75*
G02*
X94774000Y-65038200I-326200J0D01*
G01*
X94249000Y-65038200D01*
G75*
G02*
X93922800Y-64712000I0J326200D01*
G01*
X93922800Y-63812000D01*
G75*
G02*
X94249000Y-63485800I326200J0D01*
G01*
X94774000Y-63485800D01*
G75*
G02*
X95100200Y-63812000I0J-326200D01*
G01*
G37*
G36*
G01*
X93275200Y-63812000D02*
X93275200Y-64712000D01*
G75*
G02*
X92949000Y-65038200I-326200J0D01*
G01*
X92424000Y-65038200D01*
G75*
G02*
X92097800Y-64712000I0J326200D01*
G01*
X92097800Y-63812000D01*
G75*
G02*
X92424000Y-63485800I326200J0D01*
G01*
X92949000Y-63485800D01*
G75*
G02*
X93275200Y-63812000I0J-326200D01*
G01*
G37*
D10*
X29718000Y-23368000D03*
G36*
G01*
X80703000Y-52600800D02*
X81603000Y-52600800D01*
G75*
G02*
X81929200Y-52927000I0J-326200D01*
G01*
X81929200Y-53452000D01*
G75*
G02*
X81603000Y-53778200I-326200J0D01*
G01*
X80703000Y-53778200D01*
G75*
G02*
X80376800Y-53452000I0J326200D01*
G01*
X80376800Y-52927000D01*
G75*
G02*
X80703000Y-52600800I326200J0D01*
G01*
G37*
G36*
G01*
X80703000Y-54425800D02*
X81603000Y-54425800D01*
G75*
G02*
X81929200Y-54752000I0J-326200D01*
G01*
X81929200Y-55277000D01*
G75*
G02*
X81603000Y-55603200I-326200J0D01*
G01*
X80703000Y-55603200D01*
G75*
G02*
X80376800Y-55277000I0J326200D01*
G01*
X80376800Y-54752000D01*
G75*
G02*
X80703000Y-54425800I326200J0D01*
G01*
G37*
G36*
G01*
X36157000Y-39849200D02*
X35857000Y-39849200D01*
G75*
G02*
X35630800Y-39623000I0J226200D01*
G01*
X35630800Y-38598000D01*
G75*
G02*
X35857000Y-38371800I226200J0D01*
G01*
X36157000Y-38371800D01*
G75*
G02*
X36383200Y-38598000I0J-226200D01*
G01*
X36383200Y-39623000D01*
G75*
G02*
X36157000Y-39849200I-226200J0D01*
G01*
G37*
G36*
G01*
X37107000Y-39849200D02*
X36807000Y-39849200D01*
G75*
G02*
X36580800Y-39623000I0J226200D01*
G01*
X36580800Y-38598000D01*
G75*
G02*
X36807000Y-38371800I226200J0D01*
G01*
X37107000Y-38371800D01*
G75*
G02*
X37333200Y-38598000I0J-226200D01*
G01*
X37333200Y-39623000D01*
G75*
G02*
X37107000Y-39849200I-226200J0D01*
G01*
G37*
G36*
G01*
X38057000Y-39849200D02*
X37757000Y-39849200D01*
G75*
G02*
X37530800Y-39623000I0J226200D01*
G01*
X37530800Y-38598000D01*
G75*
G02*
X37757000Y-38371800I226200J0D01*
G01*
X38057000Y-38371800D01*
G75*
G02*
X38283200Y-38598000I0J-226200D01*
G01*
X38283200Y-39623000D01*
G75*
G02*
X38057000Y-39849200I-226200J0D01*
G01*
G37*
G36*
G01*
X38057000Y-37574200D02*
X37757000Y-37574200D01*
G75*
G02*
X37530800Y-37348000I0J226200D01*
G01*
X37530800Y-36323000D01*
G75*
G02*
X37757000Y-36096800I226200J0D01*
G01*
X38057000Y-36096800D01*
G75*
G02*
X38283200Y-36323000I0J-226200D01*
G01*
X38283200Y-37348000D01*
G75*
G02*
X38057000Y-37574200I-226200J0D01*
G01*
G37*
G36*
G01*
X37107000Y-37574200D02*
X36807000Y-37574200D01*
G75*
G02*
X36580800Y-37348000I0J226200D01*
G01*
X36580800Y-36323000D01*
G75*
G02*
X36807000Y-36096800I226200J0D01*
G01*
X37107000Y-36096800D01*
G75*
G02*
X37333200Y-36323000I0J-226200D01*
G01*
X37333200Y-37348000D01*
G75*
G02*
X37107000Y-37574200I-226200J0D01*
G01*
G37*
G36*
G01*
X36157000Y-37574200D02*
X35857000Y-37574200D01*
G75*
G02*
X35630800Y-37348000I0J226200D01*
G01*
X35630800Y-36323000D01*
G75*
G02*
X35857000Y-36096800I226200J0D01*
G01*
X36157000Y-36096800D01*
G75*
G02*
X36383200Y-36323000I0J-226200D01*
G01*
X36383200Y-37348000D01*
G75*
G02*
X36157000Y-37574200I-226200J0D01*
G01*
G37*
G36*
G01*
X95629550Y-53415250D02*
X95629550Y-52502750D01*
G75*
G02*
X95949500Y-52182800I319950J0D01*
G01*
X96437000Y-52182800D01*
G75*
G02*
X96756950Y-52502750I0J-319950D01*
G01*
X96756950Y-53415250D01*
G75*
G02*
X96437000Y-53735200I-319950J0D01*
G01*
X95949500Y-53735200D01*
G75*
G02*
X95629550Y-53415250I0J319950D01*
G01*
G37*
G36*
G01*
X97504550Y-53415250D02*
X97504550Y-52502750D01*
G75*
G02*
X97824500Y-52182800I319950J0D01*
G01*
X98312000Y-52182800D01*
G75*
G02*
X98631950Y-52502750I0J-319950D01*
G01*
X98631950Y-53415250D01*
G75*
G02*
X98312000Y-53735200I-319950J0D01*
G01*
X97824500Y-53735200D01*
G75*
G02*
X97504550Y-53415250I0J319950D01*
G01*
G37*
G36*
G01*
X42034800Y-46703000D02*
X42034800Y-45753000D01*
G75*
G02*
X42361000Y-45426800I326200J0D01*
G01*
X42861000Y-45426800D01*
G75*
G02*
X43187200Y-45753000I0J-326200D01*
G01*
X43187200Y-46703000D01*
G75*
G02*
X42861000Y-47029200I-326200J0D01*
G01*
X42361000Y-47029200D01*
G75*
G02*
X42034800Y-46703000I0J326200D01*
G01*
G37*
G36*
G01*
X43934800Y-46703000D02*
X43934800Y-45753000D01*
G75*
G02*
X44261000Y-45426800I326200J0D01*
G01*
X44761000Y-45426800D01*
G75*
G02*
X45087200Y-45753000I0J-326200D01*
G01*
X45087200Y-46703000D01*
G75*
G02*
X44761000Y-47029200I-326200J0D01*
G01*
X44261000Y-47029200D01*
G75*
G02*
X43934800Y-46703000I0J326200D01*
G01*
G37*
G36*
G01*
X63106300Y-34937700D02*
X61988700Y-34937700D01*
G75*
G02*
X61912500Y-34861500I0J76200D01*
G01*
X61912500Y-32423100D01*
G75*
G02*
X61988700Y-32346900I76200J0D01*
G01*
X63106300Y-32346900D01*
G75*
G02*
X63182500Y-32423100I0J-76200D01*
G01*
X63182500Y-34861500D01*
G75*
G02*
X63106300Y-34937700I-76200J0D01*
G01*
G37*
G36*
G01*
X65646300Y-34937700D02*
X64528700Y-34937700D01*
G75*
G02*
X64452500Y-34861500I0J76200D01*
G01*
X64452500Y-32423100D01*
G75*
G02*
X64528700Y-32346900I76200J0D01*
G01*
X65646300Y-32346900D01*
G75*
G02*
X65722500Y-32423100I0J-76200D01*
G01*
X65722500Y-34861500D01*
G75*
G02*
X65646300Y-34937700I-76200J0D01*
G01*
G37*
G36*
G01*
X68186300Y-34937700D02*
X67068700Y-34937700D01*
G75*
G02*
X66992500Y-34861500I0J76200D01*
G01*
X66992500Y-32423100D01*
G75*
G02*
X67068700Y-32346900I76200J0D01*
G01*
X68186300Y-32346900D01*
G75*
G02*
X68262500Y-32423100I0J-76200D01*
G01*
X68262500Y-34861500D01*
G75*
G02*
X68186300Y-34937700I-76200J0D01*
G01*
G37*
G36*
G01*
X70726300Y-34937700D02*
X69608700Y-34937700D01*
G75*
G02*
X69532500Y-34861500I0J76200D01*
G01*
X69532500Y-32423100D01*
G75*
G02*
X69608700Y-32346900I76200J0D01*
G01*
X70726300Y-32346900D01*
G75*
G02*
X70802500Y-32423100I0J-76200D01*
G01*
X70802500Y-34861500D01*
G75*
G02*
X70726300Y-34937700I-76200J0D01*
G01*
G37*
G36*
G01*
X73266300Y-34937700D02*
X72148700Y-34937700D01*
G75*
G02*
X72072500Y-34861500I0J76200D01*
G01*
X72072500Y-32423100D01*
G75*
G02*
X72148700Y-32346900I76200J0D01*
G01*
X73266300Y-32346900D01*
G75*
G02*
X73342500Y-32423100I0J-76200D01*
G01*
X73342500Y-34861500D01*
G75*
G02*
X73266300Y-34937700I-76200J0D01*
G01*
G37*
G36*
G01*
X73266300Y-26327100D02*
X72148700Y-26327100D01*
G75*
G02*
X72072500Y-26250900I0J76200D01*
G01*
X72072500Y-23812500D01*
G75*
G02*
X72148700Y-23736300I76200J0D01*
G01*
X73266300Y-23736300D01*
G75*
G02*
X73342500Y-23812500I0J-76200D01*
G01*
X73342500Y-26250900D01*
G75*
G02*
X73266300Y-26327100I-76200J0D01*
G01*
G37*
G36*
G01*
X70726300Y-26327100D02*
X69608700Y-26327100D01*
G75*
G02*
X69532500Y-26250900I0J76200D01*
G01*
X69532500Y-23812500D01*
G75*
G02*
X69608700Y-23736300I76200J0D01*
G01*
X70726300Y-23736300D01*
G75*
G02*
X70802500Y-23812500I0J-76200D01*
G01*
X70802500Y-26250900D01*
G75*
G02*
X70726300Y-26327100I-76200J0D01*
G01*
G37*
G36*
G01*
X68186300Y-26327100D02*
X67068700Y-26327100D01*
G75*
G02*
X66992500Y-26250900I0J76200D01*
G01*
X66992500Y-23812500D01*
G75*
G02*
X67068700Y-23736300I76200J0D01*
G01*
X68186300Y-23736300D01*
G75*
G02*
X68262500Y-23812500I0J-76200D01*
G01*
X68262500Y-26250900D01*
G75*
G02*
X68186300Y-26327100I-76200J0D01*
G01*
G37*
G36*
G01*
X65646300Y-26327100D02*
X64528700Y-26327100D01*
G75*
G02*
X64452500Y-26250900I0J76200D01*
G01*
X64452500Y-23812500D01*
G75*
G02*
X64528700Y-23736300I76200J0D01*
G01*
X65646300Y-23736300D01*
G75*
G02*
X65722500Y-23812500I0J-76200D01*
G01*
X65722500Y-26250900D01*
G75*
G02*
X65646300Y-26327100I-76200J0D01*
G01*
G37*
G36*
G01*
X63106300Y-26327100D02*
X61988700Y-26327100D01*
G75*
G02*
X61912500Y-26250900I0J76200D01*
G01*
X61912500Y-23812500D01*
G75*
G02*
X61988700Y-23736300I76200J0D01*
G01*
X63106300Y-23736300D01*
G75*
G02*
X63182500Y-23812500I0J-76200D01*
G01*
X63182500Y-26250900D01*
G75*
G02*
X63106300Y-26327100I-76200J0D01*
G01*
G37*
G36*
G01*
X38188900Y-30708600D02*
X38188900Y-27279600D01*
G75*
G02*
X38265100Y-27203400I76200J0D01*
G01*
X39458900Y-27203400D01*
G75*
G02*
X39535100Y-27279600I0J-76200D01*
G01*
X39535100Y-30708600D01*
G75*
G02*
X39458900Y-30784800I-76200J0D01*
G01*
X38265100Y-30784800D01*
G75*
G02*
X38188900Y-30708600I0J76200D01*
G01*
G37*
G36*
G01*
X40728900Y-24561800D02*
X40728900Y-21107400D01*
G75*
G02*
X40805100Y-21031200I76200J0D01*
G01*
X41998900Y-21031200D01*
G75*
G02*
X42075100Y-21107400I0J-76200D01*
G01*
X42075100Y-24561800D01*
G75*
G02*
X41998900Y-24638000I-76200J0D01*
G01*
X40805100Y-24638000D01*
G75*
G02*
X40728900Y-24561800I0J76200D01*
G01*
G37*
G36*
G01*
X43268900Y-30708600D02*
X43268900Y-27279600D01*
G75*
G02*
X43345100Y-27203400I76200J0D01*
G01*
X44538900Y-27203400D01*
G75*
G02*
X44615100Y-27279600I0J-76200D01*
G01*
X44615100Y-30708600D01*
G75*
G02*
X44538900Y-30784800I-76200J0D01*
G01*
X43345100Y-30784800D01*
G75*
G02*
X43268900Y-30708600I0J76200D01*
G01*
G37*
G36*
G01*
X52738000Y-57528800D02*
X53688000Y-57528800D01*
G75*
G02*
X54014200Y-57855000I0J-326200D01*
G01*
X54014200Y-58355000D01*
G75*
G02*
X53688000Y-58681200I-326200J0D01*
G01*
X52738000Y-58681200D01*
G75*
G02*
X52411800Y-58355000I0J326200D01*
G01*
X52411800Y-57855000D01*
G75*
G02*
X52738000Y-57528800I326200J0D01*
G01*
G37*
G36*
G01*
X52738000Y-59428800D02*
X53688000Y-59428800D01*
G75*
G02*
X54014200Y-59755000I0J-326200D01*
G01*
X54014200Y-60255000D01*
G75*
G02*
X53688000Y-60581200I-326200J0D01*
G01*
X52738000Y-60581200D01*
G75*
G02*
X52411800Y-60255000I0J326200D01*
G01*
X52411800Y-59755000D01*
G75*
G02*
X52738000Y-59428800I326200J0D01*
G01*
G37*
G36*
G01*
X28422000Y-55355800D02*
X30922000Y-55355800D01*
G75*
G02*
X30998200Y-55432000I0J-76200D01*
G01*
X30998200Y-57932000D01*
G75*
G02*
X30922000Y-58008200I-76200J0D01*
G01*
X28422000Y-58008200D01*
G75*
G02*
X28345800Y-57932000I0J76200D01*
G01*
X28345800Y-55432000D01*
G75*
G02*
X28422000Y-55355800I76200J0D01*
G01*
G37*
D11*
X29672000Y-61682000D03*
D10*
X29718000Y-78232000D03*
X97282000Y-78232000D03*
G36*
G01*
X69436000Y-60200200D02*
X68486000Y-60200200D01*
G75*
G02*
X68159800Y-59874000I0J326200D01*
G01*
X68159800Y-59374000D01*
G75*
G02*
X68486000Y-59047800I326200J0D01*
G01*
X69436000Y-59047800D01*
G75*
G02*
X69762200Y-59374000I0J-326200D01*
G01*
X69762200Y-59874000D01*
G75*
G02*
X69436000Y-60200200I-326200J0D01*
G01*
G37*
G36*
G01*
X69436000Y-58300200D02*
X68486000Y-58300200D01*
G75*
G02*
X68159800Y-57974000I0J326200D01*
G01*
X68159800Y-57474000D01*
G75*
G02*
X68486000Y-57147800I326200J0D01*
G01*
X69436000Y-57147800D01*
G75*
G02*
X69762200Y-57474000I0J-326200D01*
G01*
X69762200Y-57974000D01*
G75*
G02*
X69436000Y-58300200I-326200J0D01*
G01*
G37*
G36*
G01*
X79164800Y-77096000D02*
X79164800Y-74796000D01*
G75*
G02*
X79241000Y-74719800I76200J0D01*
G01*
X81541000Y-74719800D01*
G75*
G02*
X81617200Y-74796000I0J-76200D01*
G01*
X81617200Y-77096000D01*
G75*
G02*
X81541000Y-77172200I-76200J0D01*
G01*
X79241000Y-77172200D01*
G75*
G02*
X79164800Y-77096000I0J76200D01*
G01*
G37*
D12*
X83891000Y-75946000D03*
X87391000Y-75946000D03*
G36*
G01*
X55208800Y-53490000D02*
X55208800Y-53190000D01*
G75*
G02*
X55435000Y-52963800I226200J0D01*
G01*
X57185000Y-52963800D01*
G75*
G02*
X57411200Y-53190000I0J-226200D01*
G01*
X57411200Y-53490000D01*
G75*
G02*
X57185000Y-53716200I-226200J0D01*
G01*
X55435000Y-53716200D01*
G75*
G02*
X55208800Y-53490000I0J226200D01*
G01*
G37*
G36*
G01*
X55208800Y-54760000D02*
X55208800Y-54460000D01*
G75*
G02*
X55435000Y-54233800I226200J0D01*
G01*
X57185000Y-54233800D01*
G75*
G02*
X57411200Y-54460000I0J-226200D01*
G01*
X57411200Y-54760000D01*
G75*
G02*
X57185000Y-54986200I-226200J0D01*
G01*
X55435000Y-54986200D01*
G75*
G02*
X55208800Y-54760000I0J226200D01*
G01*
G37*
G36*
G01*
X55208800Y-56030000D02*
X55208800Y-55730000D01*
G75*
G02*
X55435000Y-55503800I226200J0D01*
G01*
X57185000Y-55503800D01*
G75*
G02*
X57411200Y-55730000I0J-226200D01*
G01*
X57411200Y-56030000D01*
G75*
G02*
X57185000Y-56256200I-226200J0D01*
G01*
X55435000Y-56256200D01*
G75*
G02*
X55208800Y-56030000I0J226200D01*
G01*
G37*
G36*
G01*
X55208800Y-57300000D02*
X55208800Y-57000000D01*
G75*
G02*
X55435000Y-56773800I226200J0D01*
G01*
X57185000Y-56773800D01*
G75*
G02*
X57411200Y-57000000I0J-226200D01*
G01*
X57411200Y-57300000D01*
G75*
G02*
X57185000Y-57526200I-226200J0D01*
G01*
X55435000Y-57526200D01*
G75*
G02*
X55208800Y-57300000I0J226200D01*
G01*
G37*
G36*
G01*
X55208800Y-58570000D02*
X55208800Y-58270000D01*
G75*
G02*
X55435000Y-58043800I226200J0D01*
G01*
X57185000Y-58043800D01*
G75*
G02*
X57411200Y-58270000I0J-226200D01*
G01*
X57411200Y-58570000D01*
G75*
G02*
X57185000Y-58796200I-226200J0D01*
G01*
X55435000Y-58796200D01*
G75*
G02*
X55208800Y-58570000I0J226200D01*
G01*
G37*
G36*
G01*
X55208800Y-59840000D02*
X55208800Y-59540000D01*
G75*
G02*
X55435000Y-59313800I226200J0D01*
G01*
X57185000Y-59313800D01*
G75*
G02*
X57411200Y-59540000I0J-226200D01*
G01*
X57411200Y-59840000D01*
G75*
G02*
X57185000Y-60066200I-226200J0D01*
G01*
X55435000Y-60066200D01*
G75*
G02*
X55208800Y-59840000I0J226200D01*
G01*
G37*
G36*
G01*
X55208800Y-61110000D02*
X55208800Y-60810000D01*
G75*
G02*
X55435000Y-60583800I226200J0D01*
G01*
X57185000Y-60583800D01*
G75*
G02*
X57411200Y-60810000I0J-226200D01*
G01*
X57411200Y-61110000D01*
G75*
G02*
X57185000Y-61336200I-226200J0D01*
G01*
X55435000Y-61336200D01*
G75*
G02*
X55208800Y-61110000I0J226200D01*
G01*
G37*
G36*
G01*
X55208800Y-62380000D02*
X55208800Y-62080000D01*
G75*
G02*
X55435000Y-61853800I226200J0D01*
G01*
X57185000Y-61853800D01*
G75*
G02*
X57411200Y-62080000I0J-226200D01*
G01*
X57411200Y-62380000D01*
G75*
G02*
X57185000Y-62606200I-226200J0D01*
G01*
X55435000Y-62606200D01*
G75*
G02*
X55208800Y-62380000I0J226200D01*
G01*
G37*
G36*
G01*
X55208800Y-63650000D02*
X55208800Y-63350000D01*
G75*
G02*
X55435000Y-63123800I226200J0D01*
G01*
X57185000Y-63123800D01*
G75*
G02*
X57411200Y-63350000I0J-226200D01*
G01*
X57411200Y-63650000D01*
G75*
G02*
X57185000Y-63876200I-226200J0D01*
G01*
X55435000Y-63876200D01*
G75*
G02*
X55208800Y-63650000I0J226200D01*
G01*
G37*
G36*
G01*
X55208800Y-64920000D02*
X55208800Y-64620000D01*
G75*
G02*
X55435000Y-64393800I226200J0D01*
G01*
X57185000Y-64393800D01*
G75*
G02*
X57411200Y-64620000I0J-226200D01*
G01*
X57411200Y-64920000D01*
G75*
G02*
X57185000Y-65146200I-226200J0D01*
G01*
X55435000Y-65146200D01*
G75*
G02*
X55208800Y-64920000I0J226200D01*
G01*
G37*
G36*
G01*
X64508800Y-64920000D02*
X64508800Y-64620000D01*
G75*
G02*
X64735000Y-64393800I226200J0D01*
G01*
X66485000Y-64393800D01*
G75*
G02*
X66711200Y-64620000I0J-226200D01*
G01*
X66711200Y-64920000D01*
G75*
G02*
X66485000Y-65146200I-226200J0D01*
G01*
X64735000Y-65146200D01*
G75*
G02*
X64508800Y-64920000I0J226200D01*
G01*
G37*
G36*
G01*
X64508800Y-63650000D02*
X64508800Y-63350000D01*
G75*
G02*
X64735000Y-63123800I226200J0D01*
G01*
X66485000Y-63123800D01*
G75*
G02*
X66711200Y-63350000I0J-226200D01*
G01*
X66711200Y-63650000D01*
G75*
G02*
X66485000Y-63876200I-226200J0D01*
G01*
X64735000Y-63876200D01*
G75*
G02*
X64508800Y-63650000I0J226200D01*
G01*
G37*
G36*
G01*
X64508800Y-62380000D02*
X64508800Y-62080000D01*
G75*
G02*
X64735000Y-61853800I226200J0D01*
G01*
X66485000Y-61853800D01*
G75*
G02*
X66711200Y-62080000I0J-226200D01*
G01*
X66711200Y-62380000D01*
G75*
G02*
X66485000Y-62606200I-226200J0D01*
G01*
X64735000Y-62606200D01*
G75*
G02*
X64508800Y-62380000I0J226200D01*
G01*
G37*
G36*
G01*
X64508800Y-61110000D02*
X64508800Y-60810000D01*
G75*
G02*
X64735000Y-60583800I226200J0D01*
G01*
X66485000Y-60583800D01*
G75*
G02*
X66711200Y-60810000I0J-226200D01*
G01*
X66711200Y-61110000D01*
G75*
G02*
X66485000Y-61336200I-226200J0D01*
G01*
X64735000Y-61336200D01*
G75*
G02*
X64508800Y-61110000I0J226200D01*
G01*
G37*
G36*
G01*
X64508800Y-59840000D02*
X64508800Y-59540000D01*
G75*
G02*
X64735000Y-59313800I226200J0D01*
G01*
X66485000Y-59313800D01*
G75*
G02*
X66711200Y-59540000I0J-226200D01*
G01*
X66711200Y-59840000D01*
G75*
G02*
X66485000Y-60066200I-226200J0D01*
G01*
X64735000Y-60066200D01*
G75*
G02*
X64508800Y-59840000I0J226200D01*
G01*
G37*
G36*
G01*
X64508800Y-58570000D02*
X64508800Y-58270000D01*
G75*
G02*
X64735000Y-58043800I226200J0D01*
G01*
X66485000Y-58043800D01*
G75*
G02*
X66711200Y-58270000I0J-226200D01*
G01*
X66711200Y-58570000D01*
G75*
G02*
X66485000Y-58796200I-226200J0D01*
G01*
X64735000Y-58796200D01*
G75*
G02*
X64508800Y-58570000I0J226200D01*
G01*
G37*
G36*
G01*
X64508800Y-57300000D02*
X64508800Y-57000000D01*
G75*
G02*
X64735000Y-56773800I226200J0D01*
G01*
X66485000Y-56773800D01*
G75*
G02*
X66711200Y-57000000I0J-226200D01*
G01*
X66711200Y-57300000D01*
G75*
G02*
X66485000Y-57526200I-226200J0D01*
G01*
X64735000Y-57526200D01*
G75*
G02*
X64508800Y-57300000I0J226200D01*
G01*
G37*
G36*
G01*
X64508800Y-56030000D02*
X64508800Y-55730000D01*
G75*
G02*
X64735000Y-55503800I226200J0D01*
G01*
X66485000Y-55503800D01*
G75*
G02*
X66711200Y-55730000I0J-226200D01*
G01*
X66711200Y-56030000D01*
G75*
G02*
X66485000Y-56256200I-226200J0D01*
G01*
X64735000Y-56256200D01*
G75*
G02*
X64508800Y-56030000I0J226200D01*
G01*
G37*
G36*
G01*
X64508800Y-54760000D02*
X64508800Y-54460000D01*
G75*
G02*
X64735000Y-54233800I226200J0D01*
G01*
X66485000Y-54233800D01*
G75*
G02*
X66711200Y-54460000I0J-226200D01*
G01*
X66711200Y-54760000D01*
G75*
G02*
X66485000Y-54986200I-226200J0D01*
G01*
X64735000Y-54986200D01*
G75*
G02*
X64508800Y-54760000I0J226200D01*
G01*
G37*
G36*
G01*
X64508800Y-53490000D02*
X64508800Y-53190000D01*
G75*
G02*
X64735000Y-52963800I226200J0D01*
G01*
X66485000Y-52963800D01*
G75*
G02*
X66711200Y-53190000I0J-226200D01*
G01*
X66711200Y-53490000D01*
G75*
G02*
X66485000Y-53716200I-226200J0D01*
G01*
X64735000Y-53716200D01*
G75*
G02*
X64508800Y-53490000I0J226200D01*
G01*
G37*
G36*
G01*
X69121000Y-60957800D02*
X70071000Y-60957800D01*
G75*
G02*
X70397200Y-61284000I0J-326200D01*
G01*
X70397200Y-61784000D01*
G75*
G02*
X70071000Y-62110200I-326200J0D01*
G01*
X69121000Y-62110200D01*
G75*
G02*
X68794800Y-61784000I0J326200D01*
G01*
X68794800Y-61284000D01*
G75*
G02*
X69121000Y-60957800I326200J0D01*
G01*
G37*
G36*
G01*
X69121000Y-62857800D02*
X70071000Y-62857800D01*
G75*
G02*
X70397200Y-63184000I0J-326200D01*
G01*
X70397200Y-63684000D01*
G75*
G02*
X70071000Y-64010200I-326200J0D01*
G01*
X69121000Y-64010200D01*
G75*
G02*
X68794800Y-63684000I0J326200D01*
G01*
X68794800Y-63184000D01*
G75*
G02*
X69121000Y-62857800I326200J0D01*
G01*
G37*
G36*
G01*
X43238000Y-32280800D02*
X44138000Y-32280800D01*
G75*
G02*
X44464200Y-32607000I0J-326200D01*
G01*
X44464200Y-33132000D01*
G75*
G02*
X44138000Y-33458200I-326200J0D01*
G01*
X43238000Y-33458200D01*
G75*
G02*
X42911800Y-33132000I0J326200D01*
G01*
X42911800Y-32607000D01*
G75*
G02*
X43238000Y-32280800I326200J0D01*
G01*
G37*
G36*
G01*
X43238000Y-34105800D02*
X44138000Y-34105800D01*
G75*
G02*
X44464200Y-34432000I0J-326200D01*
G01*
X44464200Y-34957000D01*
G75*
G02*
X44138000Y-35283200I-326200J0D01*
G01*
X43238000Y-35283200D01*
G75*
G02*
X42911800Y-34957000I0J326200D01*
G01*
X42911800Y-34432000D01*
G75*
G02*
X43238000Y-34105800I326200J0D01*
G01*
G37*
G36*
G01*
X36675800Y-77038000D02*
X36675800Y-74738000D01*
G75*
G02*
X36752000Y-74661800I76200J0D01*
G01*
X39052000Y-74661800D01*
G75*
G02*
X39128200Y-74738000I0J-76200D01*
G01*
X39128200Y-77038000D01*
G75*
G02*
X39052000Y-77114200I-76200J0D01*
G01*
X36752000Y-77114200D01*
G75*
G02*
X36675800Y-77038000I0J76200D01*
G01*
G37*
X41402000Y-75888000D03*
X44902000Y-75888000D03*
G36*
G01*
X52225800Y-77365000D02*
X52225800Y-76115000D01*
G75*
G02*
X52452000Y-75888800I226200J0D01*
G01*
X52752000Y-75888800D01*
G75*
G02*
X52978200Y-76115000I0J-226200D01*
G01*
X52978200Y-77365000D01*
G75*
G02*
X52752000Y-77591200I-226200J0D01*
G01*
X52452000Y-77591200D01*
G75*
G02*
X52225800Y-77365000I0J226200D01*
G01*
G37*
G36*
G01*
X53225800Y-77365000D02*
X53225800Y-76115000D01*
G75*
G02*
X53452000Y-75888800I226200J0D01*
G01*
X53752000Y-75888800D01*
G75*
G02*
X53978200Y-76115000I0J-226200D01*
G01*
X53978200Y-77365000D01*
G75*
G02*
X53752000Y-77591200I-226200J0D01*
G01*
X53452000Y-77591200D01*
G75*
G02*
X53225800Y-77365000I0J226200D01*
G01*
G37*
G36*
G01*
X54225800Y-77365000D02*
X54225800Y-76115000D01*
G75*
G02*
X54452000Y-75888800I226200J0D01*
G01*
X54752000Y-75888800D01*
G75*
G02*
X54978200Y-76115000I0J-226200D01*
G01*
X54978200Y-77365000D01*
G75*
G02*
X54752000Y-77591200I-226200J0D01*
G01*
X54452000Y-77591200D01*
G75*
G02*
X54225800Y-77365000I0J226200D01*
G01*
G37*
G36*
G01*
X55225800Y-77365000D02*
X55225800Y-76115000D01*
G75*
G02*
X55452000Y-75888800I226200J0D01*
G01*
X55752000Y-75888800D01*
G75*
G02*
X55978200Y-76115000I0J-226200D01*
G01*
X55978200Y-77365000D01*
G75*
G02*
X55752000Y-77591200I-226200J0D01*
G01*
X55452000Y-77591200D01*
G75*
G02*
X55225800Y-77365000I0J226200D01*
G01*
G37*
G36*
G01*
X56225800Y-81265000D02*
X56225800Y-79965000D01*
G75*
G02*
X56552000Y-79638800I326200J0D01*
G01*
X57252000Y-79638800D01*
G75*
G02*
X57578200Y-79965000I0J-326200D01*
G01*
X57578200Y-81265000D01*
G75*
G02*
X57252000Y-81591200I-326200J0D01*
G01*
X56552000Y-81591200D01*
G75*
G02*
X56225800Y-81265000I0J326200D01*
G01*
G37*
G36*
G01*
X50625800Y-81265000D02*
X50625800Y-79965000D01*
G75*
G02*
X50952000Y-79638800I326200J0D01*
G01*
X51652000Y-79638800D01*
G75*
G02*
X51978200Y-79965000I0J-326200D01*
G01*
X51978200Y-81265000D01*
G75*
G02*
X51652000Y-81591200I-326200J0D01*
G01*
X50952000Y-81591200D01*
G75*
G02*
X50625800Y-81265000I0J326200D01*
G01*
G37*
G36*
G01*
X36050800Y-64354000D02*
X36050800Y-63154000D01*
G75*
G02*
X36127000Y-63077800I76200J0D01*
G01*
X37027000Y-63077800D01*
G75*
G02*
X37103200Y-63154000I0J-76200D01*
G01*
X37103200Y-64354000D01*
G75*
G02*
X37027000Y-64430200I-76200J0D01*
G01*
X36127000Y-64430200D01*
G75*
G02*
X36050800Y-64354000I0J76200D01*
G01*
G37*
G36*
G01*
X39350800Y-64354000D02*
X39350800Y-63154000D01*
G75*
G02*
X39427000Y-63077800I76200J0D01*
G01*
X40327000Y-63077800D01*
G75*
G02*
X40403200Y-63154000I0J-76200D01*
G01*
X40403200Y-64354000D01*
G75*
G02*
X40327000Y-64430200I-76200J0D01*
G01*
X39427000Y-64430200D01*
G75*
G02*
X39350800Y-64354000I0J76200D01*
G01*
G37*
G36*
G01*
X88263550Y-53415250D02*
X88263550Y-52502750D01*
G75*
G02*
X88583500Y-52182800I319950J0D01*
G01*
X89071000Y-52182800D01*
G75*
G02*
X89390950Y-52502750I0J-319950D01*
G01*
X89390950Y-53415250D01*
G75*
G02*
X89071000Y-53735200I-319950J0D01*
G01*
X88583500Y-53735200D01*
G75*
G02*
X88263550Y-53415250I0J319950D01*
G01*
G37*
G36*
G01*
X90138550Y-53415250D02*
X90138550Y-52502750D01*
G75*
G02*
X90458500Y-52182800I319950J0D01*
G01*
X90946000Y-52182800D01*
G75*
G02*
X91265950Y-52502750I0J-319950D01*
G01*
X91265950Y-53415250D01*
G75*
G02*
X90946000Y-53735200I-319950J0D01*
G01*
X90458500Y-53735200D01*
G75*
G02*
X90138550Y-53415250I0J319950D01*
G01*
G37*
G36*
G01*
X40403200Y-57566000D02*
X40403200Y-58766000D01*
G75*
G02*
X40327000Y-58842200I-76200J0D01*
G01*
X39427000Y-58842200D01*
G75*
G02*
X39350800Y-58766000I0J76200D01*
G01*
X39350800Y-57566000D01*
G75*
G02*
X39427000Y-57489800I76200J0D01*
G01*
X40327000Y-57489800D01*
G75*
G02*
X40403200Y-57566000I0J-76200D01*
G01*
G37*
G36*
G01*
X37103200Y-57566000D02*
X37103200Y-58766000D01*
G75*
G02*
X37027000Y-58842200I-76200J0D01*
G01*
X36127000Y-58842200D01*
G75*
G02*
X36050800Y-58766000I0J76200D01*
G01*
X36050800Y-57566000D01*
G75*
G02*
X36127000Y-57489800I76200J0D01*
G01*
X37027000Y-57489800D01*
G75*
G02*
X37103200Y-57566000I0J-76200D01*
G01*
G37*
G36*
G01*
X41242000Y-39499200D02*
X40292000Y-39499200D01*
G75*
G02*
X39965800Y-39173000I0J326200D01*
G01*
X39965800Y-38673000D01*
G75*
G02*
X40292000Y-38346800I326200J0D01*
G01*
X41242000Y-38346800D01*
G75*
G02*
X41568200Y-38673000I0J-326200D01*
G01*
X41568200Y-39173000D01*
G75*
G02*
X41242000Y-39499200I-326200J0D01*
G01*
G37*
G36*
G01*
X41242000Y-37599200D02*
X40292000Y-37599200D01*
G75*
G02*
X39965800Y-37273000I0J326200D01*
G01*
X39965800Y-36773000D01*
G75*
G02*
X40292000Y-36446800I326200J0D01*
G01*
X41242000Y-36446800D01*
G75*
G02*
X41568200Y-36773000I0J-326200D01*
G01*
X41568200Y-37273000D01*
G75*
G02*
X41242000Y-37599200I-326200J0D01*
G01*
G37*
G36*
G01*
X43213000Y-36446800D02*
X44163000Y-36446800D01*
G75*
G02*
X44489200Y-36773000I0J-326200D01*
G01*
X44489200Y-37273000D01*
G75*
G02*
X44163000Y-37599200I-326200J0D01*
G01*
X43213000Y-37599200D01*
G75*
G02*
X42886800Y-37273000I0J326200D01*
G01*
X42886800Y-36773000D01*
G75*
G02*
X43213000Y-36446800I326200J0D01*
G01*
G37*
G36*
G01*
X43213000Y-38346800D02*
X44163000Y-38346800D01*
G75*
G02*
X44489200Y-38673000I0J-326200D01*
G01*
X44489200Y-39173000D01*
G75*
G02*
X44163000Y-39499200I-326200J0D01*
G01*
X43213000Y-39499200D01*
G75*
G02*
X42886800Y-39173000I0J326200D01*
G01*
X42886800Y-38673000D01*
G75*
G02*
X43213000Y-38346800I326200J0D01*
G01*
G37*
G36*
G01*
X36050800Y-55972000D02*
X36050800Y-54772000D01*
G75*
G02*
X36127000Y-54695800I76200J0D01*
G01*
X37027000Y-54695800D01*
G75*
G02*
X37103200Y-54772000I0J-76200D01*
G01*
X37103200Y-55972000D01*
G75*
G02*
X37027000Y-56048200I-76200J0D01*
G01*
X36127000Y-56048200D01*
G75*
G02*
X36050800Y-55972000I0J76200D01*
G01*
G37*
G36*
G01*
X39350800Y-55972000D02*
X39350800Y-54772000D01*
G75*
G02*
X39427000Y-54695800I76200J0D01*
G01*
X40327000Y-54695800D01*
G75*
G02*
X40403200Y-54772000I0J-76200D01*
G01*
X40403200Y-55972000D01*
G75*
G02*
X40327000Y-56048200I-76200J0D01*
G01*
X39427000Y-56048200D01*
G75*
G02*
X39350800Y-55972000I0J76200D01*
G01*
G37*
G36*
G01*
X73094000Y-63985200D02*
X72194000Y-63985200D01*
G75*
G02*
X71867800Y-63659000I0J326200D01*
G01*
X71867800Y-63134000D01*
G75*
G02*
X72194000Y-62807800I326200J0D01*
G01*
X73094000Y-62807800D01*
G75*
G02*
X73420200Y-63134000I0J-326200D01*
G01*
X73420200Y-63659000D01*
G75*
G02*
X73094000Y-63985200I-326200J0D01*
G01*
G37*
G36*
G01*
X73094000Y-62160200D02*
X72194000Y-62160200D01*
G75*
G02*
X71867800Y-61834000I0J326200D01*
G01*
X71867800Y-61309000D01*
G75*
G02*
X72194000Y-60982800I326200J0D01*
G01*
X73094000Y-60982800D01*
G75*
G02*
X73420200Y-61309000I0J-326200D01*
G01*
X73420200Y-61834000D01*
G75*
G02*
X73094000Y-62160200I-326200J0D01*
G01*
G37*
G36*
G01*
X90147000Y-62305300D02*
X90447000Y-62305300D01*
G75*
G02*
X90673200Y-62531500I0J-226200D01*
G01*
X90673200Y-63706500D01*
G75*
G02*
X90447000Y-63932700I-226200J0D01*
G01*
X90147000Y-63932700D01*
G75*
G02*
X89920800Y-63706500I0J226200D01*
G01*
X89920800Y-62531500D01*
G75*
G02*
X90147000Y-62305300I226200J0D01*
G01*
G37*
G36*
G01*
X88247000Y-62305300D02*
X88547000Y-62305300D01*
G75*
G02*
X88773200Y-62531500I0J-226200D01*
G01*
X88773200Y-63706500D01*
G75*
G02*
X88547000Y-63932700I-226200J0D01*
G01*
X88247000Y-63932700D01*
G75*
G02*
X88020800Y-63706500I0J226200D01*
G01*
X88020800Y-62531500D01*
G75*
G02*
X88247000Y-62305300I226200J0D01*
G01*
G37*
G36*
G01*
X89197000Y-64180300D02*
X89497000Y-64180300D01*
G75*
G02*
X89723200Y-64406500I0J-226200D01*
G01*
X89723200Y-65581500D01*
G75*
G02*
X89497000Y-65807700I-226200J0D01*
G01*
X89197000Y-65807700D01*
G75*
G02*
X88970800Y-65581500I0J226200D01*
G01*
X88970800Y-64406500D01*
G75*
G02*
X89197000Y-64180300I226200J0D01*
G01*
G37*
G36*
G01*
X47413000Y-63962200D02*
X46313000Y-63962200D01*
G75*
G02*
X45986800Y-63636000I0J326200D01*
G01*
X45986800Y-60636000D01*
G75*
G02*
X46313000Y-60309800I326200J0D01*
G01*
X47413000Y-60309800D01*
G75*
G02*
X47739200Y-60636000I0J-326200D01*
G01*
X47739200Y-63636000D01*
G75*
G02*
X47413000Y-63962200I-326200J0D01*
G01*
G37*
G36*
G01*
X47413000Y-58562200D02*
X46313000Y-58562200D01*
G75*
G02*
X45986800Y-58236000I0J326200D01*
G01*
X45986800Y-55236000D01*
G75*
G02*
X46313000Y-54909800I326200J0D01*
G01*
X47413000Y-54909800D01*
G75*
G02*
X47739200Y-55236000I0J-326200D01*
G01*
X47739200Y-58236000D01*
G75*
G02*
X47413000Y-58562200I-326200J0D01*
G01*
G37*
G36*
G01*
X33931800Y-50361000D02*
X33931800Y-49461000D01*
G75*
G02*
X34258000Y-49134800I326200J0D01*
G01*
X34783000Y-49134800D01*
G75*
G02*
X35109200Y-49461000I0J-326200D01*
G01*
X35109200Y-50361000D01*
G75*
G02*
X34783000Y-50687200I-326200J0D01*
G01*
X34258000Y-50687200D01*
G75*
G02*
X33931800Y-50361000I0J326200D01*
G01*
G37*
G36*
G01*
X35756800Y-50361000D02*
X35756800Y-49461000D01*
G75*
G02*
X36083000Y-49134800I326200J0D01*
G01*
X36608000Y-49134800D01*
G75*
G02*
X36934200Y-49461000I0J-326200D01*
G01*
X36934200Y-50361000D01*
G75*
G02*
X36608000Y-50687200I-326200J0D01*
G01*
X36083000Y-50687200D01*
G75*
G02*
X35756800Y-50361000I0J326200D01*
G01*
G37*
G36*
G01*
X46159000Y-36471800D02*
X47059000Y-36471800D01*
G75*
G02*
X47385200Y-36798000I0J-326200D01*
G01*
X47385200Y-37323000D01*
G75*
G02*
X47059000Y-37649200I-326200J0D01*
G01*
X46159000Y-37649200D01*
G75*
G02*
X45832800Y-37323000I0J326200D01*
G01*
X45832800Y-36798000D01*
G75*
G02*
X46159000Y-36471800I326200J0D01*
G01*
G37*
G36*
G01*
X46159000Y-38296800D02*
X47059000Y-38296800D01*
G75*
G02*
X47385200Y-38623000I0J-326200D01*
G01*
X47385200Y-39148000D01*
G75*
G02*
X47059000Y-39474200I-326200J0D01*
G01*
X46159000Y-39474200D01*
G75*
G02*
X45832800Y-39148000I0J326200D01*
G01*
X45832800Y-38623000D01*
G75*
G02*
X46159000Y-38296800I326200J0D01*
G01*
G37*
G36*
G01*
X74145200Y-57970000D02*
X74145200Y-58870000D01*
G75*
G02*
X73819000Y-59196200I-326200J0D01*
G01*
X73294000Y-59196200D01*
G75*
G02*
X72967800Y-58870000I0J326200D01*
G01*
X72967800Y-57970000D01*
G75*
G02*
X73294000Y-57643800I326200J0D01*
G01*
X73819000Y-57643800D01*
G75*
G02*
X74145200Y-57970000I0J-326200D01*
G01*
G37*
G36*
G01*
X72320200Y-57970000D02*
X72320200Y-58870000D01*
G75*
G02*
X71994000Y-59196200I-326200J0D01*
G01*
X71469000Y-59196200D01*
G75*
G02*
X71142800Y-58870000I0J326200D01*
G01*
X71142800Y-57970000D01*
G75*
G02*
X71469000Y-57643800I326200J0D01*
G01*
X71994000Y-57643800D01*
G75*
G02*
X72320200Y-57970000I0J-326200D01*
G01*
G37*
G36*
G01*
X30585000Y-36096800D02*
X31835000Y-36096800D01*
G75*
G02*
X32061200Y-36323000I0J-226200D01*
G01*
X32061200Y-36623000D01*
G75*
G02*
X31835000Y-36849200I-226200J0D01*
G01*
X30585000Y-36849200D01*
G75*
G02*
X30358800Y-36623000I0J226200D01*
G01*
X30358800Y-36323000D01*
G75*
G02*
X30585000Y-36096800I226200J0D01*
G01*
G37*
G36*
G01*
X30585000Y-37096800D02*
X31835000Y-37096800D01*
G75*
G02*
X32061200Y-37323000I0J-226200D01*
G01*
X32061200Y-37623000D01*
G75*
G02*
X31835000Y-37849200I-226200J0D01*
G01*
X30585000Y-37849200D01*
G75*
G02*
X30358800Y-37623000I0J226200D01*
G01*
X30358800Y-37323000D01*
G75*
G02*
X30585000Y-37096800I226200J0D01*
G01*
G37*
G36*
G01*
X30585000Y-38096800D02*
X31835000Y-38096800D01*
G75*
G02*
X32061200Y-38323000I0J-226200D01*
G01*
X32061200Y-38623000D01*
G75*
G02*
X31835000Y-38849200I-226200J0D01*
G01*
X30585000Y-38849200D01*
G75*
G02*
X30358800Y-38623000I0J226200D01*
G01*
X30358800Y-38323000D01*
G75*
G02*
X30585000Y-38096800I226200J0D01*
G01*
G37*
G36*
G01*
X30585000Y-39096800D02*
X31835000Y-39096800D01*
G75*
G02*
X32061200Y-39323000I0J-226200D01*
G01*
X32061200Y-39623000D01*
G75*
G02*
X31835000Y-39849200I-226200J0D01*
G01*
X30585000Y-39849200D01*
G75*
G02*
X30358800Y-39623000I0J226200D01*
G01*
X30358800Y-39323000D01*
G75*
G02*
X30585000Y-39096800I226200J0D01*
G01*
G37*
G36*
G01*
X26685000Y-34496800D02*
X27985000Y-34496800D01*
G75*
G02*
X28311200Y-34823000I0J-326200D01*
G01*
X28311200Y-35523000D01*
G75*
G02*
X27985000Y-35849200I-326200J0D01*
G01*
X26685000Y-35849200D01*
G75*
G02*
X26358800Y-35523000I0J326200D01*
G01*
X26358800Y-34823000D01*
G75*
G02*
X26685000Y-34496800I326200J0D01*
G01*
G37*
G36*
G01*
X26685000Y-40096800D02*
X27985000Y-40096800D01*
G75*
G02*
X28311200Y-40423000I0J-326200D01*
G01*
X28311200Y-41123000D01*
G75*
G02*
X27985000Y-41449200I-326200J0D01*
G01*
X26685000Y-41449200D01*
G75*
G02*
X26358800Y-41123000I0J326200D01*
G01*
X26358800Y-40423000D01*
G75*
G02*
X26685000Y-40096800I326200J0D01*
G01*
G37*
D10*
X97282000Y-23368000D03*
G36*
G01*
X41946800Y-49956000D02*
X41946800Y-49406000D01*
G75*
G02*
X42023000Y-49329800I76200J0D01*
G01*
X43323000Y-49329800D01*
G75*
G02*
X43399200Y-49406000I0J-76200D01*
G01*
X43399200Y-49956000D01*
G75*
G02*
X43323000Y-50032200I-76200J0D01*
G01*
X42023000Y-50032200D01*
G75*
G02*
X41946800Y-49956000I0J76200D01*
G01*
G37*
G36*
X46671980Y-50197627D02*
G01*
X46698042Y-50242768D01*
X46699200Y-50256000D01*
X46699200Y-52106000D01*
X46681373Y-52154980D01*
X46636232Y-52181042D01*
X46623000Y-52182200D01*
X44023000Y-52182200D01*
X43974020Y-52164373D01*
X43969118Y-52159882D01*
X43466436Y-51657200D01*
X42023000Y-51657200D01*
X41974020Y-51639373D01*
X41947958Y-51594232D01*
X41946800Y-51581000D01*
X41946800Y-50781000D01*
X41964627Y-50732020D01*
X42009768Y-50705958D01*
X42023000Y-50704800D01*
X43466436Y-50704800D01*
X43969118Y-50202118D01*
X44016359Y-50180090D01*
X44023000Y-50179800D01*
X46623000Y-50179800D01*
X46671980Y-50197627D01*
G37*
G36*
G01*
X41946800Y-52956000D02*
X41946800Y-52406000D01*
G75*
G02*
X42023000Y-52329800I76200J0D01*
G01*
X43323000Y-52329800D01*
G75*
G02*
X43399200Y-52406000I0J-76200D01*
G01*
X43399200Y-52956000D01*
G75*
G02*
X43323000Y-53032200I-76200J0D01*
G01*
X42023000Y-53032200D01*
G75*
G02*
X41946800Y-52956000I0J76200D01*
G01*
G37*
G36*
G01*
X84686000Y-62256800D02*
X84986000Y-62256800D01*
G75*
G02*
X85212200Y-62483000I0J-226200D01*
G01*
X85212200Y-63658000D01*
G75*
G02*
X84986000Y-63884200I-226200J0D01*
G01*
X84686000Y-63884200D01*
G75*
G02*
X84459800Y-63658000I0J226200D01*
G01*
X84459800Y-62483000D01*
G75*
G02*
X84686000Y-62256800I226200J0D01*
G01*
G37*
G36*
G01*
X82786000Y-62256800D02*
X83086000Y-62256800D01*
G75*
G02*
X83312200Y-62483000I0J-226200D01*
G01*
X83312200Y-63658000D01*
G75*
G02*
X83086000Y-63884200I-226200J0D01*
G01*
X82786000Y-63884200D01*
G75*
G02*
X82559800Y-63658000I0J226200D01*
G01*
X82559800Y-62483000D01*
G75*
G02*
X82786000Y-62256800I226200J0D01*
G01*
G37*
G36*
G01*
X83736000Y-64131800D02*
X84036000Y-64131800D01*
G75*
G02*
X84262200Y-64358000I0J-226200D01*
G01*
X84262200Y-65533000D01*
G75*
G02*
X84036000Y-65759200I-226200J0D01*
G01*
X83736000Y-65759200D01*
G75*
G02*
X83509800Y-65533000I0J226200D01*
G01*
X83509800Y-64358000D01*
G75*
G02*
X83736000Y-64131800I226200J0D01*
G01*
G37*
G36*
G01*
X27835800Y-50367250D02*
X27835800Y-49454750D01*
G75*
G02*
X28155750Y-49134800I319950J0D01*
G01*
X28643250Y-49134800D01*
G75*
G02*
X28963200Y-49454750I0J-319950D01*
G01*
X28963200Y-50367250D01*
G75*
G02*
X28643250Y-50687200I-319950J0D01*
G01*
X28155750Y-50687200D01*
G75*
G02*
X27835800Y-50367250I0J319950D01*
G01*
G37*
G36*
G01*
X29710800Y-50367250D02*
X29710800Y-49454750D01*
G75*
G02*
X30030750Y-49134800I319950J0D01*
G01*
X30518250Y-49134800D01*
G75*
G02*
X30838200Y-49454750I0J-319950D01*
G01*
X30838200Y-50367250D01*
G75*
G02*
X30518250Y-50687200I-319950J0D01*
G01*
X30030750Y-50687200D01*
G75*
G02*
X29710800Y-50367250I0J319950D01*
G01*
G37*
G36*
G01*
X36319800Y-34765000D02*
X36319800Y-33815000D01*
G75*
G02*
X36646000Y-33488800I326200J0D01*
G01*
X37146000Y-33488800D01*
G75*
G02*
X37472200Y-33815000I0J-326200D01*
G01*
X37472200Y-34765000D01*
G75*
G02*
X37146000Y-35091200I-326200J0D01*
G01*
X36646000Y-35091200D01*
G75*
G02*
X36319800Y-34765000I0J326200D01*
G01*
G37*
G36*
G01*
X38219800Y-34765000D02*
X38219800Y-33815000D01*
G75*
G02*
X38546000Y-33488800I326200J0D01*
G01*
X39046000Y-33488800D01*
G75*
G02*
X39372200Y-33815000I0J-326200D01*
G01*
X39372200Y-34765000D01*
G75*
G02*
X39046000Y-35091200I-326200J0D01*
G01*
X38546000Y-35091200D01*
G75*
G02*
X38219800Y-34765000I0J326200D01*
G01*
G37*
G36*
G01*
X40403200Y-60360000D02*
X40403200Y-61560000D01*
G75*
G02*
X40327000Y-61636200I-76200J0D01*
G01*
X39427000Y-61636200D01*
G75*
G02*
X39350800Y-61560000I0J76200D01*
G01*
X39350800Y-60360000D01*
G75*
G02*
X39427000Y-60283800I76200J0D01*
G01*
X40327000Y-60283800D01*
G75*
G02*
X40403200Y-60360000I0J-76200D01*
G01*
G37*
G36*
G01*
X37103200Y-60360000D02*
X37103200Y-61560000D01*
G75*
G02*
X37027000Y-61636200I-76200J0D01*
G01*
X36127000Y-61636200D01*
G75*
G02*
X36050800Y-61560000I0J76200D01*
G01*
X36050800Y-60360000D01*
G75*
G02*
X36127000Y-60283800I76200J0D01*
G01*
X37027000Y-60283800D01*
G75*
G02*
X37103200Y-60360000I0J-76200D01*
G01*
G37*
D13*
X57652000Y-48514000D03*
D14*
X65272000Y-44958000D03*
X57652000Y-45974000D03*
D13*
X63367000Y-48514000D03*
X63367000Y-43434000D03*
D14*
X65272000Y-46990000D03*
D13*
X57652000Y-43434000D03*
D15*
X58922000Y-46609000D03*
X60192000Y-46609000D03*
X61462000Y-46609000D03*
X62732000Y-46609000D03*
X64002000Y-46609000D03*
X64002000Y-45339000D03*
X62732000Y-45339000D03*
X61462000Y-45339000D03*
X60192000Y-45339000D03*
X58922000Y-45339000D03*
G36*
G01*
X62512800Y-77365000D02*
X62512800Y-76115000D01*
G75*
G02*
X62739000Y-75888800I226200J0D01*
G01*
X63039000Y-75888800D01*
G75*
G02*
X63265200Y-76115000I0J-226200D01*
G01*
X63265200Y-77365000D01*
G75*
G02*
X63039000Y-77591200I-226200J0D01*
G01*
X62739000Y-77591200D01*
G75*
G02*
X62512800Y-77365000I0J226200D01*
G01*
G37*
G36*
G01*
X63512800Y-77365000D02*
X63512800Y-76115000D01*
G75*
G02*
X63739000Y-75888800I226200J0D01*
G01*
X64039000Y-75888800D01*
G75*
G02*
X64265200Y-76115000I0J-226200D01*
G01*
X64265200Y-77365000D01*
G75*
G02*
X64039000Y-77591200I-226200J0D01*
G01*
X63739000Y-77591200D01*
G75*
G02*
X63512800Y-77365000I0J226200D01*
G01*
G37*
G36*
G01*
X64512800Y-77365000D02*
X64512800Y-76115000D01*
G75*
G02*
X64739000Y-75888800I226200J0D01*
G01*
X65039000Y-75888800D01*
G75*
G02*
X65265200Y-76115000I0J-226200D01*
G01*
X65265200Y-77365000D01*
G75*
G02*
X65039000Y-77591200I-226200J0D01*
G01*
X64739000Y-77591200D01*
G75*
G02*
X64512800Y-77365000I0J226200D01*
G01*
G37*
G36*
G01*
X65512800Y-77365000D02*
X65512800Y-76115000D01*
G75*
G02*
X65739000Y-75888800I226200J0D01*
G01*
X66039000Y-75888800D01*
G75*
G02*
X66265200Y-76115000I0J-226200D01*
G01*
X66265200Y-77365000D01*
G75*
G02*
X66039000Y-77591200I-226200J0D01*
G01*
X65739000Y-77591200D01*
G75*
G02*
X65512800Y-77365000I0J226200D01*
G01*
G37*
G36*
G01*
X66512800Y-81265000D02*
X66512800Y-79965000D01*
G75*
G02*
X66839000Y-79638800I326200J0D01*
G01*
X67539000Y-79638800D01*
G75*
G02*
X67865200Y-79965000I0J-326200D01*
G01*
X67865200Y-81265000D01*
G75*
G02*
X67539000Y-81591200I-326200J0D01*
G01*
X66839000Y-81591200D01*
G75*
G02*
X66512800Y-81265000I0J326200D01*
G01*
G37*
G36*
G01*
X60912800Y-81265000D02*
X60912800Y-79965000D01*
G75*
G02*
X61239000Y-79638800I326200J0D01*
G01*
X61939000Y-79638800D01*
G75*
G02*
X62265200Y-79965000I0J-326200D01*
G01*
X62265200Y-81265000D01*
G75*
G02*
X61939000Y-81591200I-326200J0D01*
G01*
X61239000Y-81591200D01*
G75*
G02*
X60912800Y-81265000I0J326200D01*
G01*
G37*
G36*
G01*
X53688000Y-65407200D02*
X52738000Y-65407200D01*
G75*
G02*
X52411800Y-65081000I0J326200D01*
G01*
X52411800Y-64581000D01*
G75*
G02*
X52738000Y-64254800I326200J0D01*
G01*
X53688000Y-64254800D01*
G75*
G02*
X54014200Y-64581000I0J-326200D01*
G01*
X54014200Y-65081000D01*
G75*
G02*
X53688000Y-65407200I-326200J0D01*
G01*
G37*
G36*
G01*
X53688000Y-63507200D02*
X52738000Y-63507200D01*
G75*
G02*
X52411800Y-63181000I0J326200D01*
G01*
X52411800Y-62681000D01*
G75*
G02*
X52738000Y-62354800I326200J0D01*
G01*
X53688000Y-62354800D01*
G75*
G02*
X54014200Y-62681000I0J-326200D01*
G01*
X54014200Y-63181000D01*
G75*
G02*
X53688000Y-63507200I-326200J0D01*
G01*
G37*
G36*
G01*
X79152200Y-55603000D02*
X79152200Y-55903000D01*
G75*
G02*
X78926000Y-56129200I-226200J0D01*
G01*
X77626000Y-56129200D01*
G75*
G02*
X77399800Y-55903000I0J226200D01*
G01*
X77399800Y-55603000D01*
G75*
G02*
X77626000Y-55376800I226200J0D01*
G01*
X78926000Y-55376800D01*
G75*
G02*
X79152200Y-55603000I0J-226200D01*
G01*
G37*
G36*
G01*
X79152200Y-54333000D02*
X79152200Y-54633000D01*
G75*
G02*
X78926000Y-54859200I-226200J0D01*
G01*
X77626000Y-54859200D01*
G75*
G02*
X77399800Y-54633000I0J226200D01*
G01*
X77399800Y-54333000D01*
G75*
G02*
X77626000Y-54106800I226200J0D01*
G01*
X78926000Y-54106800D01*
G75*
G02*
X79152200Y-54333000I0J-226200D01*
G01*
G37*
G36*
G01*
X79152200Y-53063000D02*
X79152200Y-53363000D01*
G75*
G02*
X78926000Y-53589200I-226200J0D01*
G01*
X77626000Y-53589200D01*
G75*
G02*
X77399800Y-53363000I0J226200D01*
G01*
X77399800Y-53063000D01*
G75*
G02*
X77626000Y-52836800I226200J0D01*
G01*
X78926000Y-52836800D01*
G75*
G02*
X79152200Y-53063000I0J-226200D01*
G01*
G37*
G36*
G01*
X79152200Y-51793000D02*
X79152200Y-52093000D01*
G75*
G02*
X78926000Y-52319200I-226200J0D01*
G01*
X77626000Y-52319200D01*
G75*
G02*
X77399800Y-52093000I0J226200D01*
G01*
X77399800Y-51793000D01*
G75*
G02*
X77626000Y-51566800I226200J0D01*
G01*
X78926000Y-51566800D01*
G75*
G02*
X79152200Y-51793000I0J-226200D01*
G01*
G37*
G36*
G01*
X71952200Y-51793000D02*
X71952200Y-52093000D01*
G75*
G02*
X71726000Y-52319200I-226200J0D01*
G01*
X70426000Y-52319200D01*
G75*
G02*
X70199800Y-52093000I0J226200D01*
G01*
X70199800Y-51793000D01*
G75*
G02*
X70426000Y-51566800I226200J0D01*
G01*
X71726000Y-51566800D01*
G75*
G02*
X71952200Y-51793000I0J-226200D01*
G01*
G37*
G36*
G01*
X71952200Y-53063000D02*
X71952200Y-53363000D01*
G75*
G02*
X71726000Y-53589200I-226200J0D01*
G01*
X70426000Y-53589200D01*
G75*
G02*
X70199800Y-53363000I0J226200D01*
G01*
X70199800Y-53063000D01*
G75*
G02*
X70426000Y-52836800I226200J0D01*
G01*
X71726000Y-52836800D01*
G75*
G02*
X71952200Y-53063000I0J-226200D01*
G01*
G37*
G36*
G01*
X71952200Y-54333000D02*
X71952200Y-54633000D01*
G75*
G02*
X71726000Y-54859200I-226200J0D01*
G01*
X70426000Y-54859200D01*
G75*
G02*
X70199800Y-54633000I0J226200D01*
G01*
X70199800Y-54333000D01*
G75*
G02*
X70426000Y-54106800I226200J0D01*
G01*
X71726000Y-54106800D01*
G75*
G02*
X71952200Y-54333000I0J-226200D01*
G01*
G37*
G36*
G01*
X71952200Y-55603000D02*
X71952200Y-55903000D01*
G75*
G02*
X71726000Y-56129200I-226200J0D01*
G01*
X70426000Y-56129200D01*
G75*
G02*
X70199800Y-55903000I0J226200D01*
G01*
X70199800Y-55603000D01*
G75*
G02*
X70426000Y-55376800I226200J0D01*
G01*
X71726000Y-55376800D01*
G75*
G02*
X71952200Y-55603000I0J-226200D01*
G01*
G37*
G36*
G01*
X96959000Y-62125800D02*
X97859000Y-62125800D01*
G75*
G02*
X98185200Y-62452000I0J-326200D01*
G01*
X98185200Y-62977000D01*
G75*
G02*
X97859000Y-63303200I-326200J0D01*
G01*
X96959000Y-63303200D01*
G75*
G02*
X96632800Y-62977000I0J326200D01*
G01*
X96632800Y-62452000D01*
G75*
G02*
X96959000Y-62125800I326200J0D01*
G01*
G37*
G36*
G01*
X96959000Y-63950800D02*
X97859000Y-63950800D01*
G75*
G02*
X98185200Y-64277000I0J-326200D01*
G01*
X98185200Y-64802000D01*
G75*
G02*
X97859000Y-65128200I-326200J0D01*
G01*
X96959000Y-65128200D01*
G75*
G02*
X96632800Y-64802000I0J326200D01*
G01*
X96632800Y-64277000D01*
G75*
G02*
X96959000Y-63950800I326200J0D01*
G01*
G37*
M02*
