G04 #@! TF.GenerationSoftware,KiCad,Pcbnew,6.0.10-86aedd382b~118~ubuntu18.04.1*
G04 #@! TF.CreationDate,2024-08-26T13:48:25-06:00*
G04 #@! TF.ProjectId,ckt-xing-basic,636b742d-7869-46e6-972d-62617369632e,rev?*
G04 #@! TF.SameCoordinates,Original*
G04 #@! TF.FileFunction,Copper,L1,Top*
G04 #@! TF.FilePolarity,Positive*
%FSLAX46Y46*%
G04 Gerber Fmt 4.6, Leading zero omitted, Abs format (unit mm)*
G04 Created by KiCad (PCBNEW 6.0.10-86aedd382b~118~ubuntu18.04.1) date 2024-08-26 13:48:25*
%MOMM*%
%LPD*%
G01*
G04 APERTURE LIST*
G04 #@! TA.AperFunction,ComponentPad*
%ADD10C,6.400000*%
G04 #@! TD*
G04 #@! TA.AperFunction,SMDPad,CuDef*
%ADD11R,1.117600X2.438400*%
G04 #@! TD*
G04 #@! TA.AperFunction,SMDPad,CuDef*
%ADD12R,1.193800X3.429000*%
G04 #@! TD*
G04 #@! TA.AperFunction,SMDPad,CuDef*
%ADD13R,1.193800X3.454400*%
G04 #@! TD*
G04 #@! TA.AperFunction,ComponentPad*
%ADD14R,2.500000X2.500000*%
G04 #@! TD*
G04 #@! TA.AperFunction,ComponentPad*
%ADD15C,2.500000*%
G04 #@! TD*
G04 #@! TA.AperFunction,ComponentPad*
%ADD16R,2.300000X2.300000*%
G04 #@! TD*
G04 #@! TA.AperFunction,ComponentPad*
%ADD17C,2.300000*%
G04 #@! TD*
G04 #@! TA.AperFunction,SMDPad,CuDef*
%ADD18R,0.900000X1.200000*%
G04 #@! TD*
G04 #@! TA.AperFunction,SMDPad,CuDef*
%ADD19R,1.300000X0.550000*%
G04 #@! TD*
G04 #@! TA.AperFunction,ConnectorPad*
%ADD20C,0.787400*%
G04 #@! TD*
G04 #@! TA.AperFunction,ViaPad*
%ADD21C,0.800000*%
G04 #@! TD*
G04 #@! TA.AperFunction,Conductor*
%ADD22C,0.635000*%
G04 #@! TD*
G04 #@! TA.AperFunction,Conductor*
%ADD23C,1.016000*%
G04 #@! TD*
G04 #@! TA.AperFunction,Conductor*
%ADD24C,0.508000*%
G04 #@! TD*
G04 #@! TA.AperFunction,Conductor*
%ADD25C,0.254000*%
G04 #@! TD*
G04 #@! TA.AperFunction,Conductor*
%ADD26C,0.250000*%
G04 #@! TD*
G04 #@! TA.AperFunction,Conductor*
%ADD27C,0.203200*%
G04 #@! TD*
G04 APERTURE END LIST*
G04 #@! TA.AperFunction,SMDPad,CuDef*
G36*
G01*
X95024000Y-63812000D02*
X95024000Y-64712000D01*
G75*
G02*
X94774000Y-64962000I-250000J0D01*
G01*
X94249000Y-64962000D01*
G75*
G02*
X93999000Y-64712000I0J250000D01*
G01*
X93999000Y-63812000D01*
G75*
G02*
X94249000Y-63562000I250000J0D01*
G01*
X94774000Y-63562000D01*
G75*
G02*
X95024000Y-63812000I0J-250000D01*
G01*
G37*
G04 #@! TD.AperFunction*
G04 #@! TA.AperFunction,SMDPad,CuDef*
G36*
G01*
X93199000Y-63812000D02*
X93199000Y-64712000D01*
G75*
G02*
X92949000Y-64962000I-250000J0D01*
G01*
X92424000Y-64962000D01*
G75*
G02*
X92174000Y-64712000I0J250000D01*
G01*
X92174000Y-63812000D01*
G75*
G02*
X92424000Y-63562000I250000J0D01*
G01*
X92949000Y-63562000D01*
G75*
G02*
X93199000Y-63812000I0J-250000D01*
G01*
G37*
G04 #@! TD.AperFunction*
D10*
X29718000Y-23368000D03*
G04 #@! TA.AperFunction,SMDPad,CuDef*
G36*
G01*
X80703000Y-52677000D02*
X81603000Y-52677000D01*
G75*
G02*
X81853000Y-52927000I0J-250000D01*
G01*
X81853000Y-53452000D01*
G75*
G02*
X81603000Y-53702000I-250000J0D01*
G01*
X80703000Y-53702000D01*
G75*
G02*
X80453000Y-53452000I0J250000D01*
G01*
X80453000Y-52927000D01*
G75*
G02*
X80703000Y-52677000I250000J0D01*
G01*
G37*
G04 #@! TD.AperFunction*
G04 #@! TA.AperFunction,SMDPad,CuDef*
G36*
G01*
X80703000Y-54502000D02*
X81603000Y-54502000D01*
G75*
G02*
X81853000Y-54752000I0J-250000D01*
G01*
X81853000Y-55277000D01*
G75*
G02*
X81603000Y-55527000I-250000J0D01*
G01*
X80703000Y-55527000D01*
G75*
G02*
X80453000Y-55277000I0J250000D01*
G01*
X80453000Y-54752000D01*
G75*
G02*
X80703000Y-54502000I250000J0D01*
G01*
G37*
G04 #@! TD.AperFunction*
G04 #@! TA.AperFunction,SMDPad,CuDef*
G36*
G01*
X36157000Y-39773000D02*
X35857000Y-39773000D01*
G75*
G02*
X35707000Y-39623000I0J150000D01*
G01*
X35707000Y-38598000D01*
G75*
G02*
X35857000Y-38448000I150000J0D01*
G01*
X36157000Y-38448000D01*
G75*
G02*
X36307000Y-38598000I0J-150000D01*
G01*
X36307000Y-39623000D01*
G75*
G02*
X36157000Y-39773000I-150000J0D01*
G01*
G37*
G04 #@! TD.AperFunction*
G04 #@! TA.AperFunction,SMDPad,CuDef*
G36*
G01*
X37107000Y-39773000D02*
X36807000Y-39773000D01*
G75*
G02*
X36657000Y-39623000I0J150000D01*
G01*
X36657000Y-38598000D01*
G75*
G02*
X36807000Y-38448000I150000J0D01*
G01*
X37107000Y-38448000D01*
G75*
G02*
X37257000Y-38598000I0J-150000D01*
G01*
X37257000Y-39623000D01*
G75*
G02*
X37107000Y-39773000I-150000J0D01*
G01*
G37*
G04 #@! TD.AperFunction*
G04 #@! TA.AperFunction,SMDPad,CuDef*
G36*
G01*
X38057000Y-39773000D02*
X37757000Y-39773000D01*
G75*
G02*
X37607000Y-39623000I0J150000D01*
G01*
X37607000Y-38598000D01*
G75*
G02*
X37757000Y-38448000I150000J0D01*
G01*
X38057000Y-38448000D01*
G75*
G02*
X38207000Y-38598000I0J-150000D01*
G01*
X38207000Y-39623000D01*
G75*
G02*
X38057000Y-39773000I-150000J0D01*
G01*
G37*
G04 #@! TD.AperFunction*
G04 #@! TA.AperFunction,SMDPad,CuDef*
G36*
G01*
X38057000Y-37498000D02*
X37757000Y-37498000D01*
G75*
G02*
X37607000Y-37348000I0J150000D01*
G01*
X37607000Y-36323000D01*
G75*
G02*
X37757000Y-36173000I150000J0D01*
G01*
X38057000Y-36173000D01*
G75*
G02*
X38207000Y-36323000I0J-150000D01*
G01*
X38207000Y-37348000D01*
G75*
G02*
X38057000Y-37498000I-150000J0D01*
G01*
G37*
G04 #@! TD.AperFunction*
G04 #@! TA.AperFunction,SMDPad,CuDef*
G36*
G01*
X37107000Y-37498000D02*
X36807000Y-37498000D01*
G75*
G02*
X36657000Y-37348000I0J150000D01*
G01*
X36657000Y-36323000D01*
G75*
G02*
X36807000Y-36173000I150000J0D01*
G01*
X37107000Y-36173000D01*
G75*
G02*
X37257000Y-36323000I0J-150000D01*
G01*
X37257000Y-37348000D01*
G75*
G02*
X37107000Y-37498000I-150000J0D01*
G01*
G37*
G04 #@! TD.AperFunction*
G04 #@! TA.AperFunction,SMDPad,CuDef*
G36*
G01*
X36157000Y-37498000D02*
X35857000Y-37498000D01*
G75*
G02*
X35707000Y-37348000I0J150000D01*
G01*
X35707000Y-36323000D01*
G75*
G02*
X35857000Y-36173000I150000J0D01*
G01*
X36157000Y-36173000D01*
G75*
G02*
X36307000Y-36323000I0J-150000D01*
G01*
X36307000Y-37348000D01*
G75*
G02*
X36157000Y-37498000I-150000J0D01*
G01*
G37*
G04 #@! TD.AperFunction*
G04 #@! TA.AperFunction,SMDPad,CuDef*
G36*
G01*
X95705750Y-53415250D02*
X95705750Y-52502750D01*
G75*
G02*
X95949500Y-52259000I243750J0D01*
G01*
X96437000Y-52259000D01*
G75*
G02*
X96680750Y-52502750I0J-243750D01*
G01*
X96680750Y-53415250D01*
G75*
G02*
X96437000Y-53659000I-243750J0D01*
G01*
X95949500Y-53659000D01*
G75*
G02*
X95705750Y-53415250I0J243750D01*
G01*
G37*
G04 #@! TD.AperFunction*
G04 #@! TA.AperFunction,SMDPad,CuDef*
G36*
G01*
X97580750Y-53415250D02*
X97580750Y-52502750D01*
G75*
G02*
X97824500Y-52259000I243750J0D01*
G01*
X98312000Y-52259000D01*
G75*
G02*
X98555750Y-52502750I0J-243750D01*
G01*
X98555750Y-53415250D01*
G75*
G02*
X98312000Y-53659000I-243750J0D01*
G01*
X97824500Y-53659000D01*
G75*
G02*
X97580750Y-53415250I0J243750D01*
G01*
G37*
G04 #@! TD.AperFunction*
G04 #@! TA.AperFunction,SMDPad,CuDef*
G36*
G01*
X42111000Y-46703000D02*
X42111000Y-45753000D01*
G75*
G02*
X42361000Y-45503000I250000J0D01*
G01*
X42861000Y-45503000D01*
G75*
G02*
X43111000Y-45753000I0J-250000D01*
G01*
X43111000Y-46703000D01*
G75*
G02*
X42861000Y-46953000I-250000J0D01*
G01*
X42361000Y-46953000D01*
G75*
G02*
X42111000Y-46703000I0J250000D01*
G01*
G37*
G04 #@! TD.AperFunction*
G04 #@! TA.AperFunction,SMDPad,CuDef*
G36*
G01*
X44011000Y-46703000D02*
X44011000Y-45753000D01*
G75*
G02*
X44261000Y-45503000I250000J0D01*
G01*
X44761000Y-45503000D01*
G75*
G02*
X45011000Y-45753000I0J-250000D01*
G01*
X45011000Y-46703000D01*
G75*
G02*
X44761000Y-46953000I-250000J0D01*
G01*
X44261000Y-46953000D01*
G75*
G02*
X44011000Y-46703000I0J250000D01*
G01*
G37*
G04 #@! TD.AperFunction*
D11*
X62547500Y-33642300D03*
X65087500Y-33642300D03*
X67627500Y-33642300D03*
X70167500Y-33642300D03*
X72707500Y-33642300D03*
X72707500Y-25031700D03*
X70167500Y-25031700D03*
X67627500Y-25031700D03*
X65087500Y-25031700D03*
X62547500Y-25031700D03*
D12*
X38862000Y-28994100D03*
D13*
X41402000Y-22834600D03*
D12*
X43942000Y-28994100D03*
G04 #@! TA.AperFunction,SMDPad,CuDef*
G36*
G01*
X52738000Y-57605000D02*
X53688000Y-57605000D01*
G75*
G02*
X53938000Y-57855000I0J-250000D01*
G01*
X53938000Y-58355000D01*
G75*
G02*
X53688000Y-58605000I-250000J0D01*
G01*
X52738000Y-58605000D01*
G75*
G02*
X52488000Y-58355000I0J250000D01*
G01*
X52488000Y-57855000D01*
G75*
G02*
X52738000Y-57605000I250000J0D01*
G01*
G37*
G04 #@! TD.AperFunction*
G04 #@! TA.AperFunction,SMDPad,CuDef*
G36*
G01*
X52738000Y-59505000D02*
X53688000Y-59505000D01*
G75*
G02*
X53938000Y-59755000I0J-250000D01*
G01*
X53938000Y-60255000D01*
G75*
G02*
X53688000Y-60505000I-250000J0D01*
G01*
X52738000Y-60505000D01*
G75*
G02*
X52488000Y-60255000I0J250000D01*
G01*
X52488000Y-59755000D01*
G75*
G02*
X52738000Y-59505000I250000J0D01*
G01*
G37*
G04 #@! TD.AperFunction*
D14*
X29672000Y-56682000D03*
D15*
X29672000Y-61682000D03*
D10*
X29718000Y-78232000D03*
X97282000Y-78232000D03*
G04 #@! TA.AperFunction,SMDPad,CuDef*
G36*
G01*
X69436000Y-60124000D02*
X68486000Y-60124000D01*
G75*
G02*
X68236000Y-59874000I0J250000D01*
G01*
X68236000Y-59374000D01*
G75*
G02*
X68486000Y-59124000I250000J0D01*
G01*
X69436000Y-59124000D01*
G75*
G02*
X69686000Y-59374000I0J-250000D01*
G01*
X69686000Y-59874000D01*
G75*
G02*
X69436000Y-60124000I-250000J0D01*
G01*
G37*
G04 #@! TD.AperFunction*
G04 #@! TA.AperFunction,SMDPad,CuDef*
G36*
G01*
X69436000Y-58224000D02*
X68486000Y-58224000D01*
G75*
G02*
X68236000Y-57974000I0J250000D01*
G01*
X68236000Y-57474000D01*
G75*
G02*
X68486000Y-57224000I250000J0D01*
G01*
X69436000Y-57224000D01*
G75*
G02*
X69686000Y-57474000I0J-250000D01*
G01*
X69686000Y-57974000D01*
G75*
G02*
X69436000Y-58224000I-250000J0D01*
G01*
G37*
G04 #@! TD.AperFunction*
D16*
X80391000Y-75946000D03*
D17*
X83891000Y-75946000D03*
X87391000Y-75946000D03*
G04 #@! TA.AperFunction,SMDPad,CuDef*
G36*
G01*
X55285000Y-53490000D02*
X55285000Y-53190000D01*
G75*
G02*
X55435000Y-53040000I150000J0D01*
G01*
X57185000Y-53040000D01*
G75*
G02*
X57335000Y-53190000I0J-150000D01*
G01*
X57335000Y-53490000D01*
G75*
G02*
X57185000Y-53640000I-150000J0D01*
G01*
X55435000Y-53640000D01*
G75*
G02*
X55285000Y-53490000I0J150000D01*
G01*
G37*
G04 #@! TD.AperFunction*
G04 #@! TA.AperFunction,SMDPad,CuDef*
G36*
G01*
X55285000Y-54760000D02*
X55285000Y-54460000D01*
G75*
G02*
X55435000Y-54310000I150000J0D01*
G01*
X57185000Y-54310000D01*
G75*
G02*
X57335000Y-54460000I0J-150000D01*
G01*
X57335000Y-54760000D01*
G75*
G02*
X57185000Y-54910000I-150000J0D01*
G01*
X55435000Y-54910000D01*
G75*
G02*
X55285000Y-54760000I0J150000D01*
G01*
G37*
G04 #@! TD.AperFunction*
G04 #@! TA.AperFunction,SMDPad,CuDef*
G36*
G01*
X55285000Y-56030000D02*
X55285000Y-55730000D01*
G75*
G02*
X55435000Y-55580000I150000J0D01*
G01*
X57185000Y-55580000D01*
G75*
G02*
X57335000Y-55730000I0J-150000D01*
G01*
X57335000Y-56030000D01*
G75*
G02*
X57185000Y-56180000I-150000J0D01*
G01*
X55435000Y-56180000D01*
G75*
G02*
X55285000Y-56030000I0J150000D01*
G01*
G37*
G04 #@! TD.AperFunction*
G04 #@! TA.AperFunction,SMDPad,CuDef*
G36*
G01*
X55285000Y-57300000D02*
X55285000Y-57000000D01*
G75*
G02*
X55435000Y-56850000I150000J0D01*
G01*
X57185000Y-56850000D01*
G75*
G02*
X57335000Y-57000000I0J-150000D01*
G01*
X57335000Y-57300000D01*
G75*
G02*
X57185000Y-57450000I-150000J0D01*
G01*
X55435000Y-57450000D01*
G75*
G02*
X55285000Y-57300000I0J150000D01*
G01*
G37*
G04 #@! TD.AperFunction*
G04 #@! TA.AperFunction,SMDPad,CuDef*
G36*
G01*
X55285000Y-58570000D02*
X55285000Y-58270000D01*
G75*
G02*
X55435000Y-58120000I150000J0D01*
G01*
X57185000Y-58120000D01*
G75*
G02*
X57335000Y-58270000I0J-150000D01*
G01*
X57335000Y-58570000D01*
G75*
G02*
X57185000Y-58720000I-150000J0D01*
G01*
X55435000Y-58720000D01*
G75*
G02*
X55285000Y-58570000I0J150000D01*
G01*
G37*
G04 #@! TD.AperFunction*
G04 #@! TA.AperFunction,SMDPad,CuDef*
G36*
G01*
X55285000Y-59840000D02*
X55285000Y-59540000D01*
G75*
G02*
X55435000Y-59390000I150000J0D01*
G01*
X57185000Y-59390000D01*
G75*
G02*
X57335000Y-59540000I0J-150000D01*
G01*
X57335000Y-59840000D01*
G75*
G02*
X57185000Y-59990000I-150000J0D01*
G01*
X55435000Y-59990000D01*
G75*
G02*
X55285000Y-59840000I0J150000D01*
G01*
G37*
G04 #@! TD.AperFunction*
G04 #@! TA.AperFunction,SMDPad,CuDef*
G36*
G01*
X55285000Y-61110000D02*
X55285000Y-60810000D01*
G75*
G02*
X55435000Y-60660000I150000J0D01*
G01*
X57185000Y-60660000D01*
G75*
G02*
X57335000Y-60810000I0J-150000D01*
G01*
X57335000Y-61110000D01*
G75*
G02*
X57185000Y-61260000I-150000J0D01*
G01*
X55435000Y-61260000D01*
G75*
G02*
X55285000Y-61110000I0J150000D01*
G01*
G37*
G04 #@! TD.AperFunction*
G04 #@! TA.AperFunction,SMDPad,CuDef*
G36*
G01*
X55285000Y-62380000D02*
X55285000Y-62080000D01*
G75*
G02*
X55435000Y-61930000I150000J0D01*
G01*
X57185000Y-61930000D01*
G75*
G02*
X57335000Y-62080000I0J-150000D01*
G01*
X57335000Y-62380000D01*
G75*
G02*
X57185000Y-62530000I-150000J0D01*
G01*
X55435000Y-62530000D01*
G75*
G02*
X55285000Y-62380000I0J150000D01*
G01*
G37*
G04 #@! TD.AperFunction*
G04 #@! TA.AperFunction,SMDPad,CuDef*
G36*
G01*
X55285000Y-63650000D02*
X55285000Y-63350000D01*
G75*
G02*
X55435000Y-63200000I150000J0D01*
G01*
X57185000Y-63200000D01*
G75*
G02*
X57335000Y-63350000I0J-150000D01*
G01*
X57335000Y-63650000D01*
G75*
G02*
X57185000Y-63800000I-150000J0D01*
G01*
X55435000Y-63800000D01*
G75*
G02*
X55285000Y-63650000I0J150000D01*
G01*
G37*
G04 #@! TD.AperFunction*
G04 #@! TA.AperFunction,SMDPad,CuDef*
G36*
G01*
X55285000Y-64920000D02*
X55285000Y-64620000D01*
G75*
G02*
X55435000Y-64470000I150000J0D01*
G01*
X57185000Y-64470000D01*
G75*
G02*
X57335000Y-64620000I0J-150000D01*
G01*
X57335000Y-64920000D01*
G75*
G02*
X57185000Y-65070000I-150000J0D01*
G01*
X55435000Y-65070000D01*
G75*
G02*
X55285000Y-64920000I0J150000D01*
G01*
G37*
G04 #@! TD.AperFunction*
G04 #@! TA.AperFunction,SMDPad,CuDef*
G36*
G01*
X64585000Y-64920000D02*
X64585000Y-64620000D01*
G75*
G02*
X64735000Y-64470000I150000J0D01*
G01*
X66485000Y-64470000D01*
G75*
G02*
X66635000Y-64620000I0J-150000D01*
G01*
X66635000Y-64920000D01*
G75*
G02*
X66485000Y-65070000I-150000J0D01*
G01*
X64735000Y-65070000D01*
G75*
G02*
X64585000Y-64920000I0J150000D01*
G01*
G37*
G04 #@! TD.AperFunction*
G04 #@! TA.AperFunction,SMDPad,CuDef*
G36*
G01*
X64585000Y-63650000D02*
X64585000Y-63350000D01*
G75*
G02*
X64735000Y-63200000I150000J0D01*
G01*
X66485000Y-63200000D01*
G75*
G02*
X66635000Y-63350000I0J-150000D01*
G01*
X66635000Y-63650000D01*
G75*
G02*
X66485000Y-63800000I-150000J0D01*
G01*
X64735000Y-63800000D01*
G75*
G02*
X64585000Y-63650000I0J150000D01*
G01*
G37*
G04 #@! TD.AperFunction*
G04 #@! TA.AperFunction,SMDPad,CuDef*
G36*
G01*
X64585000Y-62380000D02*
X64585000Y-62080000D01*
G75*
G02*
X64735000Y-61930000I150000J0D01*
G01*
X66485000Y-61930000D01*
G75*
G02*
X66635000Y-62080000I0J-150000D01*
G01*
X66635000Y-62380000D01*
G75*
G02*
X66485000Y-62530000I-150000J0D01*
G01*
X64735000Y-62530000D01*
G75*
G02*
X64585000Y-62380000I0J150000D01*
G01*
G37*
G04 #@! TD.AperFunction*
G04 #@! TA.AperFunction,SMDPad,CuDef*
G36*
G01*
X64585000Y-61110000D02*
X64585000Y-60810000D01*
G75*
G02*
X64735000Y-60660000I150000J0D01*
G01*
X66485000Y-60660000D01*
G75*
G02*
X66635000Y-60810000I0J-150000D01*
G01*
X66635000Y-61110000D01*
G75*
G02*
X66485000Y-61260000I-150000J0D01*
G01*
X64735000Y-61260000D01*
G75*
G02*
X64585000Y-61110000I0J150000D01*
G01*
G37*
G04 #@! TD.AperFunction*
G04 #@! TA.AperFunction,SMDPad,CuDef*
G36*
G01*
X64585000Y-59840000D02*
X64585000Y-59540000D01*
G75*
G02*
X64735000Y-59390000I150000J0D01*
G01*
X66485000Y-59390000D01*
G75*
G02*
X66635000Y-59540000I0J-150000D01*
G01*
X66635000Y-59840000D01*
G75*
G02*
X66485000Y-59990000I-150000J0D01*
G01*
X64735000Y-59990000D01*
G75*
G02*
X64585000Y-59840000I0J150000D01*
G01*
G37*
G04 #@! TD.AperFunction*
G04 #@! TA.AperFunction,SMDPad,CuDef*
G36*
G01*
X64585000Y-58570000D02*
X64585000Y-58270000D01*
G75*
G02*
X64735000Y-58120000I150000J0D01*
G01*
X66485000Y-58120000D01*
G75*
G02*
X66635000Y-58270000I0J-150000D01*
G01*
X66635000Y-58570000D01*
G75*
G02*
X66485000Y-58720000I-150000J0D01*
G01*
X64735000Y-58720000D01*
G75*
G02*
X64585000Y-58570000I0J150000D01*
G01*
G37*
G04 #@! TD.AperFunction*
G04 #@! TA.AperFunction,SMDPad,CuDef*
G36*
G01*
X64585000Y-57300000D02*
X64585000Y-57000000D01*
G75*
G02*
X64735000Y-56850000I150000J0D01*
G01*
X66485000Y-56850000D01*
G75*
G02*
X66635000Y-57000000I0J-150000D01*
G01*
X66635000Y-57300000D01*
G75*
G02*
X66485000Y-57450000I-150000J0D01*
G01*
X64735000Y-57450000D01*
G75*
G02*
X64585000Y-57300000I0J150000D01*
G01*
G37*
G04 #@! TD.AperFunction*
G04 #@! TA.AperFunction,SMDPad,CuDef*
G36*
G01*
X64585000Y-56030000D02*
X64585000Y-55730000D01*
G75*
G02*
X64735000Y-55580000I150000J0D01*
G01*
X66485000Y-55580000D01*
G75*
G02*
X66635000Y-55730000I0J-150000D01*
G01*
X66635000Y-56030000D01*
G75*
G02*
X66485000Y-56180000I-150000J0D01*
G01*
X64735000Y-56180000D01*
G75*
G02*
X64585000Y-56030000I0J150000D01*
G01*
G37*
G04 #@! TD.AperFunction*
G04 #@! TA.AperFunction,SMDPad,CuDef*
G36*
G01*
X64585000Y-54760000D02*
X64585000Y-54460000D01*
G75*
G02*
X64735000Y-54310000I150000J0D01*
G01*
X66485000Y-54310000D01*
G75*
G02*
X66635000Y-54460000I0J-150000D01*
G01*
X66635000Y-54760000D01*
G75*
G02*
X66485000Y-54910000I-150000J0D01*
G01*
X64735000Y-54910000D01*
G75*
G02*
X64585000Y-54760000I0J150000D01*
G01*
G37*
G04 #@! TD.AperFunction*
G04 #@! TA.AperFunction,SMDPad,CuDef*
G36*
G01*
X64585000Y-53490000D02*
X64585000Y-53190000D01*
G75*
G02*
X64735000Y-53040000I150000J0D01*
G01*
X66485000Y-53040000D01*
G75*
G02*
X66635000Y-53190000I0J-150000D01*
G01*
X66635000Y-53490000D01*
G75*
G02*
X66485000Y-53640000I-150000J0D01*
G01*
X64735000Y-53640000D01*
G75*
G02*
X64585000Y-53490000I0J150000D01*
G01*
G37*
G04 #@! TD.AperFunction*
G04 #@! TA.AperFunction,SMDPad,CuDef*
G36*
G01*
X69121000Y-61034000D02*
X70071000Y-61034000D01*
G75*
G02*
X70321000Y-61284000I0J-250000D01*
G01*
X70321000Y-61784000D01*
G75*
G02*
X70071000Y-62034000I-250000J0D01*
G01*
X69121000Y-62034000D01*
G75*
G02*
X68871000Y-61784000I0J250000D01*
G01*
X68871000Y-61284000D01*
G75*
G02*
X69121000Y-61034000I250000J0D01*
G01*
G37*
G04 #@! TD.AperFunction*
G04 #@! TA.AperFunction,SMDPad,CuDef*
G36*
G01*
X69121000Y-62934000D02*
X70071000Y-62934000D01*
G75*
G02*
X70321000Y-63184000I0J-250000D01*
G01*
X70321000Y-63684000D01*
G75*
G02*
X70071000Y-63934000I-250000J0D01*
G01*
X69121000Y-63934000D01*
G75*
G02*
X68871000Y-63684000I0J250000D01*
G01*
X68871000Y-63184000D01*
G75*
G02*
X69121000Y-62934000I250000J0D01*
G01*
G37*
G04 #@! TD.AperFunction*
G04 #@! TA.AperFunction,SMDPad,CuDef*
G36*
G01*
X43238000Y-32357000D02*
X44138000Y-32357000D01*
G75*
G02*
X44388000Y-32607000I0J-250000D01*
G01*
X44388000Y-33132000D01*
G75*
G02*
X44138000Y-33382000I-250000J0D01*
G01*
X43238000Y-33382000D01*
G75*
G02*
X42988000Y-33132000I0J250000D01*
G01*
X42988000Y-32607000D01*
G75*
G02*
X43238000Y-32357000I250000J0D01*
G01*
G37*
G04 #@! TD.AperFunction*
G04 #@! TA.AperFunction,SMDPad,CuDef*
G36*
G01*
X43238000Y-34182000D02*
X44138000Y-34182000D01*
G75*
G02*
X44388000Y-34432000I0J-250000D01*
G01*
X44388000Y-34957000D01*
G75*
G02*
X44138000Y-35207000I-250000J0D01*
G01*
X43238000Y-35207000D01*
G75*
G02*
X42988000Y-34957000I0J250000D01*
G01*
X42988000Y-34432000D01*
G75*
G02*
X43238000Y-34182000I250000J0D01*
G01*
G37*
G04 #@! TD.AperFunction*
D16*
X37902000Y-75888000D03*
D17*
X41402000Y-75888000D03*
X44902000Y-75888000D03*
G04 #@! TA.AperFunction,SMDPad,CuDef*
G36*
G01*
X52302000Y-77365000D02*
X52302000Y-76115000D01*
G75*
G02*
X52452000Y-75965000I150000J0D01*
G01*
X52752000Y-75965000D01*
G75*
G02*
X52902000Y-76115000I0J-150000D01*
G01*
X52902000Y-77365000D01*
G75*
G02*
X52752000Y-77515000I-150000J0D01*
G01*
X52452000Y-77515000D01*
G75*
G02*
X52302000Y-77365000I0J150000D01*
G01*
G37*
G04 #@! TD.AperFunction*
G04 #@! TA.AperFunction,SMDPad,CuDef*
G36*
G01*
X53302000Y-77365000D02*
X53302000Y-76115000D01*
G75*
G02*
X53452000Y-75965000I150000J0D01*
G01*
X53752000Y-75965000D01*
G75*
G02*
X53902000Y-76115000I0J-150000D01*
G01*
X53902000Y-77365000D01*
G75*
G02*
X53752000Y-77515000I-150000J0D01*
G01*
X53452000Y-77515000D01*
G75*
G02*
X53302000Y-77365000I0J150000D01*
G01*
G37*
G04 #@! TD.AperFunction*
G04 #@! TA.AperFunction,SMDPad,CuDef*
G36*
G01*
X54302000Y-77365000D02*
X54302000Y-76115000D01*
G75*
G02*
X54452000Y-75965000I150000J0D01*
G01*
X54752000Y-75965000D01*
G75*
G02*
X54902000Y-76115000I0J-150000D01*
G01*
X54902000Y-77365000D01*
G75*
G02*
X54752000Y-77515000I-150000J0D01*
G01*
X54452000Y-77515000D01*
G75*
G02*
X54302000Y-77365000I0J150000D01*
G01*
G37*
G04 #@! TD.AperFunction*
G04 #@! TA.AperFunction,SMDPad,CuDef*
G36*
G01*
X55302000Y-77365000D02*
X55302000Y-76115000D01*
G75*
G02*
X55452000Y-75965000I150000J0D01*
G01*
X55752000Y-75965000D01*
G75*
G02*
X55902000Y-76115000I0J-150000D01*
G01*
X55902000Y-77365000D01*
G75*
G02*
X55752000Y-77515000I-150000J0D01*
G01*
X55452000Y-77515000D01*
G75*
G02*
X55302000Y-77365000I0J150000D01*
G01*
G37*
G04 #@! TD.AperFunction*
G04 #@! TA.AperFunction,SMDPad,CuDef*
G36*
G01*
X56302000Y-81265000D02*
X56302000Y-79965000D01*
G75*
G02*
X56552000Y-79715000I250000J0D01*
G01*
X57252000Y-79715000D01*
G75*
G02*
X57502000Y-79965000I0J-250000D01*
G01*
X57502000Y-81265000D01*
G75*
G02*
X57252000Y-81515000I-250000J0D01*
G01*
X56552000Y-81515000D01*
G75*
G02*
X56302000Y-81265000I0J250000D01*
G01*
G37*
G04 #@! TD.AperFunction*
G04 #@! TA.AperFunction,SMDPad,CuDef*
G36*
G01*
X50702000Y-81265000D02*
X50702000Y-79965000D01*
G75*
G02*
X50952000Y-79715000I250000J0D01*
G01*
X51652000Y-79715000D01*
G75*
G02*
X51902000Y-79965000I0J-250000D01*
G01*
X51902000Y-81265000D01*
G75*
G02*
X51652000Y-81515000I-250000J0D01*
G01*
X50952000Y-81515000D01*
G75*
G02*
X50702000Y-81265000I0J250000D01*
G01*
G37*
G04 #@! TD.AperFunction*
D18*
X36577000Y-63754000D03*
X39877000Y-63754000D03*
G04 #@! TA.AperFunction,SMDPad,CuDef*
G36*
G01*
X88339750Y-53415250D02*
X88339750Y-52502750D01*
G75*
G02*
X88583500Y-52259000I243750J0D01*
G01*
X89071000Y-52259000D01*
G75*
G02*
X89314750Y-52502750I0J-243750D01*
G01*
X89314750Y-53415250D01*
G75*
G02*
X89071000Y-53659000I-243750J0D01*
G01*
X88583500Y-53659000D01*
G75*
G02*
X88339750Y-53415250I0J243750D01*
G01*
G37*
G04 #@! TD.AperFunction*
G04 #@! TA.AperFunction,SMDPad,CuDef*
G36*
G01*
X90214750Y-53415250D02*
X90214750Y-52502750D01*
G75*
G02*
X90458500Y-52259000I243750J0D01*
G01*
X90946000Y-52259000D01*
G75*
G02*
X91189750Y-52502750I0J-243750D01*
G01*
X91189750Y-53415250D01*
G75*
G02*
X90946000Y-53659000I-243750J0D01*
G01*
X90458500Y-53659000D01*
G75*
G02*
X90214750Y-53415250I0J243750D01*
G01*
G37*
G04 #@! TD.AperFunction*
X39877000Y-58166000D03*
X36577000Y-58166000D03*
G04 #@! TA.AperFunction,SMDPad,CuDef*
G36*
G01*
X41242000Y-39423000D02*
X40292000Y-39423000D01*
G75*
G02*
X40042000Y-39173000I0J250000D01*
G01*
X40042000Y-38673000D01*
G75*
G02*
X40292000Y-38423000I250000J0D01*
G01*
X41242000Y-38423000D01*
G75*
G02*
X41492000Y-38673000I0J-250000D01*
G01*
X41492000Y-39173000D01*
G75*
G02*
X41242000Y-39423000I-250000J0D01*
G01*
G37*
G04 #@! TD.AperFunction*
G04 #@! TA.AperFunction,SMDPad,CuDef*
G36*
G01*
X41242000Y-37523000D02*
X40292000Y-37523000D01*
G75*
G02*
X40042000Y-37273000I0J250000D01*
G01*
X40042000Y-36773000D01*
G75*
G02*
X40292000Y-36523000I250000J0D01*
G01*
X41242000Y-36523000D01*
G75*
G02*
X41492000Y-36773000I0J-250000D01*
G01*
X41492000Y-37273000D01*
G75*
G02*
X41242000Y-37523000I-250000J0D01*
G01*
G37*
G04 #@! TD.AperFunction*
G04 #@! TA.AperFunction,SMDPad,CuDef*
G36*
G01*
X43213000Y-36523000D02*
X44163000Y-36523000D01*
G75*
G02*
X44413000Y-36773000I0J-250000D01*
G01*
X44413000Y-37273000D01*
G75*
G02*
X44163000Y-37523000I-250000J0D01*
G01*
X43213000Y-37523000D01*
G75*
G02*
X42963000Y-37273000I0J250000D01*
G01*
X42963000Y-36773000D01*
G75*
G02*
X43213000Y-36523000I250000J0D01*
G01*
G37*
G04 #@! TD.AperFunction*
G04 #@! TA.AperFunction,SMDPad,CuDef*
G36*
G01*
X43213000Y-38423000D02*
X44163000Y-38423000D01*
G75*
G02*
X44413000Y-38673000I0J-250000D01*
G01*
X44413000Y-39173000D01*
G75*
G02*
X44163000Y-39423000I-250000J0D01*
G01*
X43213000Y-39423000D01*
G75*
G02*
X42963000Y-39173000I0J250000D01*
G01*
X42963000Y-38673000D01*
G75*
G02*
X43213000Y-38423000I250000J0D01*
G01*
G37*
G04 #@! TD.AperFunction*
X36577000Y-55372000D03*
X39877000Y-55372000D03*
G04 #@! TA.AperFunction,SMDPad,CuDef*
G36*
G01*
X73094000Y-63909000D02*
X72194000Y-63909000D01*
G75*
G02*
X71944000Y-63659000I0J250000D01*
G01*
X71944000Y-63134000D01*
G75*
G02*
X72194000Y-62884000I250000J0D01*
G01*
X73094000Y-62884000D01*
G75*
G02*
X73344000Y-63134000I0J-250000D01*
G01*
X73344000Y-63659000D01*
G75*
G02*
X73094000Y-63909000I-250000J0D01*
G01*
G37*
G04 #@! TD.AperFunction*
G04 #@! TA.AperFunction,SMDPad,CuDef*
G36*
G01*
X73094000Y-62084000D02*
X72194000Y-62084000D01*
G75*
G02*
X71944000Y-61834000I0J250000D01*
G01*
X71944000Y-61309000D01*
G75*
G02*
X72194000Y-61059000I250000J0D01*
G01*
X73094000Y-61059000D01*
G75*
G02*
X73344000Y-61309000I0J-250000D01*
G01*
X73344000Y-61834000D01*
G75*
G02*
X73094000Y-62084000I-250000J0D01*
G01*
G37*
G04 #@! TD.AperFunction*
G04 #@! TA.AperFunction,SMDPad,CuDef*
G36*
G01*
X90147000Y-62381500D02*
X90447000Y-62381500D01*
G75*
G02*
X90597000Y-62531500I0J-150000D01*
G01*
X90597000Y-63706500D01*
G75*
G02*
X90447000Y-63856500I-150000J0D01*
G01*
X90147000Y-63856500D01*
G75*
G02*
X89997000Y-63706500I0J150000D01*
G01*
X89997000Y-62531500D01*
G75*
G02*
X90147000Y-62381500I150000J0D01*
G01*
G37*
G04 #@! TD.AperFunction*
G04 #@! TA.AperFunction,SMDPad,CuDef*
G36*
G01*
X88247000Y-62381500D02*
X88547000Y-62381500D01*
G75*
G02*
X88697000Y-62531500I0J-150000D01*
G01*
X88697000Y-63706500D01*
G75*
G02*
X88547000Y-63856500I-150000J0D01*
G01*
X88247000Y-63856500D01*
G75*
G02*
X88097000Y-63706500I0J150000D01*
G01*
X88097000Y-62531500D01*
G75*
G02*
X88247000Y-62381500I150000J0D01*
G01*
G37*
G04 #@! TD.AperFunction*
G04 #@! TA.AperFunction,SMDPad,CuDef*
G36*
G01*
X89197000Y-64256500D02*
X89497000Y-64256500D01*
G75*
G02*
X89647000Y-64406500I0J-150000D01*
G01*
X89647000Y-65581500D01*
G75*
G02*
X89497000Y-65731500I-150000J0D01*
G01*
X89197000Y-65731500D01*
G75*
G02*
X89047000Y-65581500I0J150000D01*
G01*
X89047000Y-64406500D01*
G75*
G02*
X89197000Y-64256500I150000J0D01*
G01*
G37*
G04 #@! TD.AperFunction*
G04 #@! TA.AperFunction,SMDPad,CuDef*
G36*
G01*
X47413000Y-63886000D02*
X46313000Y-63886000D01*
G75*
G02*
X46063000Y-63636000I0J250000D01*
G01*
X46063000Y-60636000D01*
G75*
G02*
X46313000Y-60386000I250000J0D01*
G01*
X47413000Y-60386000D01*
G75*
G02*
X47663000Y-60636000I0J-250000D01*
G01*
X47663000Y-63636000D01*
G75*
G02*
X47413000Y-63886000I-250000J0D01*
G01*
G37*
G04 #@! TD.AperFunction*
G04 #@! TA.AperFunction,SMDPad,CuDef*
G36*
G01*
X47413000Y-58486000D02*
X46313000Y-58486000D01*
G75*
G02*
X46063000Y-58236000I0J250000D01*
G01*
X46063000Y-55236000D01*
G75*
G02*
X46313000Y-54986000I250000J0D01*
G01*
X47413000Y-54986000D01*
G75*
G02*
X47663000Y-55236000I0J-250000D01*
G01*
X47663000Y-58236000D01*
G75*
G02*
X47413000Y-58486000I-250000J0D01*
G01*
G37*
G04 #@! TD.AperFunction*
G04 #@! TA.AperFunction,SMDPad,CuDef*
G36*
G01*
X34008000Y-50361000D02*
X34008000Y-49461000D01*
G75*
G02*
X34258000Y-49211000I250000J0D01*
G01*
X34783000Y-49211000D01*
G75*
G02*
X35033000Y-49461000I0J-250000D01*
G01*
X35033000Y-50361000D01*
G75*
G02*
X34783000Y-50611000I-250000J0D01*
G01*
X34258000Y-50611000D01*
G75*
G02*
X34008000Y-50361000I0J250000D01*
G01*
G37*
G04 #@! TD.AperFunction*
G04 #@! TA.AperFunction,SMDPad,CuDef*
G36*
G01*
X35833000Y-50361000D02*
X35833000Y-49461000D01*
G75*
G02*
X36083000Y-49211000I250000J0D01*
G01*
X36608000Y-49211000D01*
G75*
G02*
X36858000Y-49461000I0J-250000D01*
G01*
X36858000Y-50361000D01*
G75*
G02*
X36608000Y-50611000I-250000J0D01*
G01*
X36083000Y-50611000D01*
G75*
G02*
X35833000Y-50361000I0J250000D01*
G01*
G37*
G04 #@! TD.AperFunction*
G04 #@! TA.AperFunction,SMDPad,CuDef*
G36*
G01*
X46159000Y-36548000D02*
X47059000Y-36548000D01*
G75*
G02*
X47309000Y-36798000I0J-250000D01*
G01*
X47309000Y-37323000D01*
G75*
G02*
X47059000Y-37573000I-250000J0D01*
G01*
X46159000Y-37573000D01*
G75*
G02*
X45909000Y-37323000I0J250000D01*
G01*
X45909000Y-36798000D01*
G75*
G02*
X46159000Y-36548000I250000J0D01*
G01*
G37*
G04 #@! TD.AperFunction*
G04 #@! TA.AperFunction,SMDPad,CuDef*
G36*
G01*
X46159000Y-38373000D02*
X47059000Y-38373000D01*
G75*
G02*
X47309000Y-38623000I0J-250000D01*
G01*
X47309000Y-39148000D01*
G75*
G02*
X47059000Y-39398000I-250000J0D01*
G01*
X46159000Y-39398000D01*
G75*
G02*
X45909000Y-39148000I0J250000D01*
G01*
X45909000Y-38623000D01*
G75*
G02*
X46159000Y-38373000I250000J0D01*
G01*
G37*
G04 #@! TD.AperFunction*
G04 #@! TA.AperFunction,SMDPad,CuDef*
G36*
G01*
X74069000Y-57970000D02*
X74069000Y-58870000D01*
G75*
G02*
X73819000Y-59120000I-250000J0D01*
G01*
X73294000Y-59120000D01*
G75*
G02*
X73044000Y-58870000I0J250000D01*
G01*
X73044000Y-57970000D01*
G75*
G02*
X73294000Y-57720000I250000J0D01*
G01*
X73819000Y-57720000D01*
G75*
G02*
X74069000Y-57970000I0J-250000D01*
G01*
G37*
G04 #@! TD.AperFunction*
G04 #@! TA.AperFunction,SMDPad,CuDef*
G36*
G01*
X72244000Y-57970000D02*
X72244000Y-58870000D01*
G75*
G02*
X71994000Y-59120000I-250000J0D01*
G01*
X71469000Y-59120000D01*
G75*
G02*
X71219000Y-58870000I0J250000D01*
G01*
X71219000Y-57970000D01*
G75*
G02*
X71469000Y-57720000I250000J0D01*
G01*
X71994000Y-57720000D01*
G75*
G02*
X72244000Y-57970000I0J-250000D01*
G01*
G37*
G04 #@! TD.AperFunction*
G04 #@! TA.AperFunction,SMDPad,CuDef*
G36*
G01*
X30585000Y-36173000D02*
X31835000Y-36173000D01*
G75*
G02*
X31985000Y-36323000I0J-150000D01*
G01*
X31985000Y-36623000D01*
G75*
G02*
X31835000Y-36773000I-150000J0D01*
G01*
X30585000Y-36773000D01*
G75*
G02*
X30435000Y-36623000I0J150000D01*
G01*
X30435000Y-36323000D01*
G75*
G02*
X30585000Y-36173000I150000J0D01*
G01*
G37*
G04 #@! TD.AperFunction*
G04 #@! TA.AperFunction,SMDPad,CuDef*
G36*
G01*
X30585000Y-37173000D02*
X31835000Y-37173000D01*
G75*
G02*
X31985000Y-37323000I0J-150000D01*
G01*
X31985000Y-37623000D01*
G75*
G02*
X31835000Y-37773000I-150000J0D01*
G01*
X30585000Y-37773000D01*
G75*
G02*
X30435000Y-37623000I0J150000D01*
G01*
X30435000Y-37323000D01*
G75*
G02*
X30585000Y-37173000I150000J0D01*
G01*
G37*
G04 #@! TD.AperFunction*
G04 #@! TA.AperFunction,SMDPad,CuDef*
G36*
G01*
X30585000Y-38173000D02*
X31835000Y-38173000D01*
G75*
G02*
X31985000Y-38323000I0J-150000D01*
G01*
X31985000Y-38623000D01*
G75*
G02*
X31835000Y-38773000I-150000J0D01*
G01*
X30585000Y-38773000D01*
G75*
G02*
X30435000Y-38623000I0J150000D01*
G01*
X30435000Y-38323000D01*
G75*
G02*
X30585000Y-38173000I150000J0D01*
G01*
G37*
G04 #@! TD.AperFunction*
G04 #@! TA.AperFunction,SMDPad,CuDef*
G36*
G01*
X30585000Y-39173000D02*
X31835000Y-39173000D01*
G75*
G02*
X31985000Y-39323000I0J-150000D01*
G01*
X31985000Y-39623000D01*
G75*
G02*
X31835000Y-39773000I-150000J0D01*
G01*
X30585000Y-39773000D01*
G75*
G02*
X30435000Y-39623000I0J150000D01*
G01*
X30435000Y-39323000D01*
G75*
G02*
X30585000Y-39173000I150000J0D01*
G01*
G37*
G04 #@! TD.AperFunction*
G04 #@! TA.AperFunction,SMDPad,CuDef*
G36*
G01*
X26685000Y-34573000D02*
X27985000Y-34573000D01*
G75*
G02*
X28235000Y-34823000I0J-250000D01*
G01*
X28235000Y-35523000D01*
G75*
G02*
X27985000Y-35773000I-250000J0D01*
G01*
X26685000Y-35773000D01*
G75*
G02*
X26435000Y-35523000I0J250000D01*
G01*
X26435000Y-34823000D01*
G75*
G02*
X26685000Y-34573000I250000J0D01*
G01*
G37*
G04 #@! TD.AperFunction*
G04 #@! TA.AperFunction,SMDPad,CuDef*
G36*
G01*
X26685000Y-40173000D02*
X27985000Y-40173000D01*
G75*
G02*
X28235000Y-40423000I0J-250000D01*
G01*
X28235000Y-41123000D01*
G75*
G02*
X27985000Y-41373000I-250000J0D01*
G01*
X26685000Y-41373000D01*
G75*
G02*
X26435000Y-41123000I0J250000D01*
G01*
X26435000Y-40423000D01*
G75*
G02*
X26685000Y-40173000I250000J0D01*
G01*
G37*
G04 #@! TD.AperFunction*
D10*
X97282000Y-23368000D03*
D19*
X42673000Y-49681000D03*
G04 #@! TA.AperFunction,SMDPad,CuDef*
G36*
X46623000Y-52106000D02*
G01*
X44023000Y-52106000D01*
X43498000Y-51581000D01*
X42023000Y-51581000D01*
X42023000Y-50781000D01*
X43498000Y-50781000D01*
X44023000Y-50256000D01*
X46623000Y-50256000D01*
X46623000Y-52106000D01*
G37*
G04 #@! TD.AperFunction*
X42673000Y-52681000D03*
G04 #@! TA.AperFunction,SMDPad,CuDef*
G36*
G01*
X84686000Y-62333000D02*
X84986000Y-62333000D01*
G75*
G02*
X85136000Y-62483000I0J-150000D01*
G01*
X85136000Y-63658000D01*
G75*
G02*
X84986000Y-63808000I-150000J0D01*
G01*
X84686000Y-63808000D01*
G75*
G02*
X84536000Y-63658000I0J150000D01*
G01*
X84536000Y-62483000D01*
G75*
G02*
X84686000Y-62333000I150000J0D01*
G01*
G37*
G04 #@! TD.AperFunction*
G04 #@! TA.AperFunction,SMDPad,CuDef*
G36*
G01*
X82786000Y-62333000D02*
X83086000Y-62333000D01*
G75*
G02*
X83236000Y-62483000I0J-150000D01*
G01*
X83236000Y-63658000D01*
G75*
G02*
X83086000Y-63808000I-150000J0D01*
G01*
X82786000Y-63808000D01*
G75*
G02*
X82636000Y-63658000I0J150000D01*
G01*
X82636000Y-62483000D01*
G75*
G02*
X82786000Y-62333000I150000J0D01*
G01*
G37*
G04 #@! TD.AperFunction*
G04 #@! TA.AperFunction,SMDPad,CuDef*
G36*
G01*
X83736000Y-64208000D02*
X84036000Y-64208000D01*
G75*
G02*
X84186000Y-64358000I0J-150000D01*
G01*
X84186000Y-65533000D01*
G75*
G02*
X84036000Y-65683000I-150000J0D01*
G01*
X83736000Y-65683000D01*
G75*
G02*
X83586000Y-65533000I0J150000D01*
G01*
X83586000Y-64358000D01*
G75*
G02*
X83736000Y-64208000I150000J0D01*
G01*
G37*
G04 #@! TD.AperFunction*
G04 #@! TA.AperFunction,SMDPad,CuDef*
G36*
G01*
X27912000Y-50367250D02*
X27912000Y-49454750D01*
G75*
G02*
X28155750Y-49211000I243750J0D01*
G01*
X28643250Y-49211000D01*
G75*
G02*
X28887000Y-49454750I0J-243750D01*
G01*
X28887000Y-50367250D01*
G75*
G02*
X28643250Y-50611000I-243750J0D01*
G01*
X28155750Y-50611000D01*
G75*
G02*
X27912000Y-50367250I0J243750D01*
G01*
G37*
G04 #@! TD.AperFunction*
G04 #@! TA.AperFunction,SMDPad,CuDef*
G36*
G01*
X29787000Y-50367250D02*
X29787000Y-49454750D01*
G75*
G02*
X30030750Y-49211000I243750J0D01*
G01*
X30518250Y-49211000D01*
G75*
G02*
X30762000Y-49454750I0J-243750D01*
G01*
X30762000Y-50367250D01*
G75*
G02*
X30518250Y-50611000I-243750J0D01*
G01*
X30030750Y-50611000D01*
G75*
G02*
X29787000Y-50367250I0J243750D01*
G01*
G37*
G04 #@! TD.AperFunction*
G04 #@! TA.AperFunction,SMDPad,CuDef*
G36*
G01*
X36396000Y-34765000D02*
X36396000Y-33815000D01*
G75*
G02*
X36646000Y-33565000I250000J0D01*
G01*
X37146000Y-33565000D01*
G75*
G02*
X37396000Y-33815000I0J-250000D01*
G01*
X37396000Y-34765000D01*
G75*
G02*
X37146000Y-35015000I-250000J0D01*
G01*
X36646000Y-35015000D01*
G75*
G02*
X36396000Y-34765000I0J250000D01*
G01*
G37*
G04 #@! TD.AperFunction*
G04 #@! TA.AperFunction,SMDPad,CuDef*
G36*
G01*
X38296000Y-34765000D02*
X38296000Y-33815000D01*
G75*
G02*
X38546000Y-33565000I250000J0D01*
G01*
X39046000Y-33565000D01*
G75*
G02*
X39296000Y-33815000I0J-250000D01*
G01*
X39296000Y-34765000D01*
G75*
G02*
X39046000Y-35015000I-250000J0D01*
G01*
X38546000Y-35015000D01*
G75*
G02*
X38296000Y-34765000I0J250000D01*
G01*
G37*
G04 #@! TD.AperFunction*
D18*
X39877000Y-60960000D03*
X36577000Y-60960000D03*
D20*
X58922000Y-46609000D03*
X60192000Y-46609000D03*
X61462000Y-46609000D03*
X62732000Y-46609000D03*
X64002000Y-46609000D03*
X64002000Y-45339000D03*
X62732000Y-45339000D03*
X61462000Y-45339000D03*
X60192000Y-45339000D03*
X58922000Y-45339000D03*
G04 #@! TA.AperFunction,SMDPad,CuDef*
G36*
G01*
X62589000Y-77365000D02*
X62589000Y-76115000D01*
G75*
G02*
X62739000Y-75965000I150000J0D01*
G01*
X63039000Y-75965000D01*
G75*
G02*
X63189000Y-76115000I0J-150000D01*
G01*
X63189000Y-77365000D01*
G75*
G02*
X63039000Y-77515000I-150000J0D01*
G01*
X62739000Y-77515000D01*
G75*
G02*
X62589000Y-77365000I0J150000D01*
G01*
G37*
G04 #@! TD.AperFunction*
G04 #@! TA.AperFunction,SMDPad,CuDef*
G36*
G01*
X63589000Y-77365000D02*
X63589000Y-76115000D01*
G75*
G02*
X63739000Y-75965000I150000J0D01*
G01*
X64039000Y-75965000D01*
G75*
G02*
X64189000Y-76115000I0J-150000D01*
G01*
X64189000Y-77365000D01*
G75*
G02*
X64039000Y-77515000I-150000J0D01*
G01*
X63739000Y-77515000D01*
G75*
G02*
X63589000Y-77365000I0J150000D01*
G01*
G37*
G04 #@! TD.AperFunction*
G04 #@! TA.AperFunction,SMDPad,CuDef*
G36*
G01*
X64589000Y-77365000D02*
X64589000Y-76115000D01*
G75*
G02*
X64739000Y-75965000I150000J0D01*
G01*
X65039000Y-75965000D01*
G75*
G02*
X65189000Y-76115000I0J-150000D01*
G01*
X65189000Y-77365000D01*
G75*
G02*
X65039000Y-77515000I-150000J0D01*
G01*
X64739000Y-77515000D01*
G75*
G02*
X64589000Y-77365000I0J150000D01*
G01*
G37*
G04 #@! TD.AperFunction*
G04 #@! TA.AperFunction,SMDPad,CuDef*
G36*
G01*
X65589000Y-77365000D02*
X65589000Y-76115000D01*
G75*
G02*
X65739000Y-75965000I150000J0D01*
G01*
X66039000Y-75965000D01*
G75*
G02*
X66189000Y-76115000I0J-150000D01*
G01*
X66189000Y-77365000D01*
G75*
G02*
X66039000Y-77515000I-150000J0D01*
G01*
X65739000Y-77515000D01*
G75*
G02*
X65589000Y-77365000I0J150000D01*
G01*
G37*
G04 #@! TD.AperFunction*
G04 #@! TA.AperFunction,SMDPad,CuDef*
G36*
G01*
X66589000Y-81265000D02*
X66589000Y-79965000D01*
G75*
G02*
X66839000Y-79715000I250000J0D01*
G01*
X67539000Y-79715000D01*
G75*
G02*
X67789000Y-79965000I0J-250000D01*
G01*
X67789000Y-81265000D01*
G75*
G02*
X67539000Y-81515000I-250000J0D01*
G01*
X66839000Y-81515000D01*
G75*
G02*
X66589000Y-81265000I0J250000D01*
G01*
G37*
G04 #@! TD.AperFunction*
G04 #@! TA.AperFunction,SMDPad,CuDef*
G36*
G01*
X60989000Y-81265000D02*
X60989000Y-79965000D01*
G75*
G02*
X61239000Y-79715000I250000J0D01*
G01*
X61939000Y-79715000D01*
G75*
G02*
X62189000Y-79965000I0J-250000D01*
G01*
X62189000Y-81265000D01*
G75*
G02*
X61939000Y-81515000I-250000J0D01*
G01*
X61239000Y-81515000D01*
G75*
G02*
X60989000Y-81265000I0J250000D01*
G01*
G37*
G04 #@! TD.AperFunction*
G04 #@! TA.AperFunction,SMDPad,CuDef*
G36*
G01*
X53688000Y-65331000D02*
X52738000Y-65331000D01*
G75*
G02*
X52488000Y-65081000I0J250000D01*
G01*
X52488000Y-64581000D01*
G75*
G02*
X52738000Y-64331000I250000J0D01*
G01*
X53688000Y-64331000D01*
G75*
G02*
X53938000Y-64581000I0J-250000D01*
G01*
X53938000Y-65081000D01*
G75*
G02*
X53688000Y-65331000I-250000J0D01*
G01*
G37*
G04 #@! TD.AperFunction*
G04 #@! TA.AperFunction,SMDPad,CuDef*
G36*
G01*
X53688000Y-63431000D02*
X52738000Y-63431000D01*
G75*
G02*
X52488000Y-63181000I0J250000D01*
G01*
X52488000Y-62681000D01*
G75*
G02*
X52738000Y-62431000I250000J0D01*
G01*
X53688000Y-62431000D01*
G75*
G02*
X53938000Y-62681000I0J-250000D01*
G01*
X53938000Y-63181000D01*
G75*
G02*
X53688000Y-63431000I-250000J0D01*
G01*
G37*
G04 #@! TD.AperFunction*
G04 #@! TA.AperFunction,SMDPad,CuDef*
G36*
G01*
X79076000Y-55603000D02*
X79076000Y-55903000D01*
G75*
G02*
X78926000Y-56053000I-150000J0D01*
G01*
X77626000Y-56053000D01*
G75*
G02*
X77476000Y-55903000I0J150000D01*
G01*
X77476000Y-55603000D01*
G75*
G02*
X77626000Y-55453000I150000J0D01*
G01*
X78926000Y-55453000D01*
G75*
G02*
X79076000Y-55603000I0J-150000D01*
G01*
G37*
G04 #@! TD.AperFunction*
G04 #@! TA.AperFunction,SMDPad,CuDef*
G36*
G01*
X79076000Y-54333000D02*
X79076000Y-54633000D01*
G75*
G02*
X78926000Y-54783000I-150000J0D01*
G01*
X77626000Y-54783000D01*
G75*
G02*
X77476000Y-54633000I0J150000D01*
G01*
X77476000Y-54333000D01*
G75*
G02*
X77626000Y-54183000I150000J0D01*
G01*
X78926000Y-54183000D01*
G75*
G02*
X79076000Y-54333000I0J-150000D01*
G01*
G37*
G04 #@! TD.AperFunction*
G04 #@! TA.AperFunction,SMDPad,CuDef*
G36*
G01*
X79076000Y-53063000D02*
X79076000Y-53363000D01*
G75*
G02*
X78926000Y-53513000I-150000J0D01*
G01*
X77626000Y-53513000D01*
G75*
G02*
X77476000Y-53363000I0J150000D01*
G01*
X77476000Y-53063000D01*
G75*
G02*
X77626000Y-52913000I150000J0D01*
G01*
X78926000Y-52913000D01*
G75*
G02*
X79076000Y-53063000I0J-150000D01*
G01*
G37*
G04 #@! TD.AperFunction*
G04 #@! TA.AperFunction,SMDPad,CuDef*
G36*
G01*
X79076000Y-51793000D02*
X79076000Y-52093000D01*
G75*
G02*
X78926000Y-52243000I-150000J0D01*
G01*
X77626000Y-52243000D01*
G75*
G02*
X77476000Y-52093000I0J150000D01*
G01*
X77476000Y-51793000D01*
G75*
G02*
X77626000Y-51643000I150000J0D01*
G01*
X78926000Y-51643000D01*
G75*
G02*
X79076000Y-51793000I0J-150000D01*
G01*
G37*
G04 #@! TD.AperFunction*
G04 #@! TA.AperFunction,SMDPad,CuDef*
G36*
G01*
X71876000Y-51793000D02*
X71876000Y-52093000D01*
G75*
G02*
X71726000Y-52243000I-150000J0D01*
G01*
X70426000Y-52243000D01*
G75*
G02*
X70276000Y-52093000I0J150000D01*
G01*
X70276000Y-51793000D01*
G75*
G02*
X70426000Y-51643000I150000J0D01*
G01*
X71726000Y-51643000D01*
G75*
G02*
X71876000Y-51793000I0J-150000D01*
G01*
G37*
G04 #@! TD.AperFunction*
G04 #@! TA.AperFunction,SMDPad,CuDef*
G36*
G01*
X71876000Y-53063000D02*
X71876000Y-53363000D01*
G75*
G02*
X71726000Y-53513000I-150000J0D01*
G01*
X70426000Y-53513000D01*
G75*
G02*
X70276000Y-53363000I0J150000D01*
G01*
X70276000Y-53063000D01*
G75*
G02*
X70426000Y-52913000I150000J0D01*
G01*
X71726000Y-52913000D01*
G75*
G02*
X71876000Y-53063000I0J-150000D01*
G01*
G37*
G04 #@! TD.AperFunction*
G04 #@! TA.AperFunction,SMDPad,CuDef*
G36*
G01*
X71876000Y-54333000D02*
X71876000Y-54633000D01*
G75*
G02*
X71726000Y-54783000I-150000J0D01*
G01*
X70426000Y-54783000D01*
G75*
G02*
X70276000Y-54633000I0J150000D01*
G01*
X70276000Y-54333000D01*
G75*
G02*
X70426000Y-54183000I150000J0D01*
G01*
X71726000Y-54183000D01*
G75*
G02*
X71876000Y-54333000I0J-150000D01*
G01*
G37*
G04 #@! TD.AperFunction*
G04 #@! TA.AperFunction,SMDPad,CuDef*
G36*
G01*
X71876000Y-55603000D02*
X71876000Y-55903000D01*
G75*
G02*
X71726000Y-56053000I-150000J0D01*
G01*
X70426000Y-56053000D01*
G75*
G02*
X70276000Y-55903000I0J150000D01*
G01*
X70276000Y-55603000D01*
G75*
G02*
X70426000Y-55453000I150000J0D01*
G01*
X71726000Y-55453000D01*
G75*
G02*
X71876000Y-55603000I0J-150000D01*
G01*
G37*
G04 #@! TD.AperFunction*
G04 #@! TA.AperFunction,SMDPad,CuDef*
G36*
G01*
X96959000Y-62202000D02*
X97859000Y-62202000D01*
G75*
G02*
X98109000Y-62452000I0J-250000D01*
G01*
X98109000Y-62977000D01*
G75*
G02*
X97859000Y-63227000I-250000J0D01*
G01*
X96959000Y-63227000D01*
G75*
G02*
X96709000Y-62977000I0J250000D01*
G01*
X96709000Y-62452000D01*
G75*
G02*
X96959000Y-62202000I250000J0D01*
G01*
G37*
G04 #@! TD.AperFunction*
G04 #@! TA.AperFunction,SMDPad,CuDef*
G36*
G01*
X96959000Y-64027000D02*
X97859000Y-64027000D01*
G75*
G02*
X98109000Y-64277000I0J-250000D01*
G01*
X98109000Y-64802000D01*
G75*
G02*
X97859000Y-65052000I-250000J0D01*
G01*
X96959000Y-65052000D01*
G75*
G02*
X96709000Y-64802000I0J250000D01*
G01*
X96709000Y-64277000D01*
G75*
G02*
X96959000Y-64027000I250000J0D01*
G01*
G37*
G04 #@! TD.AperFunction*
D21*
X48768000Y-56007000D03*
X62611000Y-58420000D03*
X64389000Y-80645000D03*
X48768000Y-57404000D03*
X38227000Y-61468000D03*
X45085000Y-52832000D03*
X47625000Y-51816000D03*
X49276000Y-59944000D03*
X61087000Y-25019000D03*
X71120000Y-63500000D03*
X58293000Y-59690000D03*
X40513000Y-28194000D03*
X59436000Y-59690000D03*
X51340000Y-76740000D03*
X44958000Y-56007000D03*
X53975000Y-80645000D03*
X50419000Y-45847000D03*
X45085000Y-49530000D03*
X44958000Y-57404000D03*
X63754000Y-58420000D03*
X27305000Y-37973000D03*
X47117000Y-49530000D03*
X47625000Y-50673000D03*
X44069000Y-49530000D03*
X81280000Y-63675500D03*
X38227000Y-54610000D03*
X93472000Y-52959000D03*
X50419000Y-59944000D03*
X86807000Y-62532500D03*
X37973000Y-40513000D03*
X36957000Y-40513000D03*
X40259000Y-33782000D03*
X44069000Y-52832000D03*
X40513000Y-30099000D03*
X60325000Y-76708000D03*
X59944000Y-25019000D03*
X75311000Y-25019000D03*
X35941000Y-40513000D03*
X67310000Y-58420000D03*
X47117000Y-52832000D03*
X76708000Y-51943000D03*
X46101000Y-52832000D03*
X46101000Y-49530000D03*
X38227000Y-56007000D03*
X66421000Y-25019000D03*
X74168000Y-25019000D03*
X38988500Y-62865500D03*
X50038000Y-76708000D03*
X68961000Y-25019000D03*
X49022000Y-45847000D03*
X75565000Y-51943000D03*
X66167000Y-45974000D03*
X47625000Y-45847000D03*
X46355000Y-45847000D03*
X81280000Y-62532500D03*
X40259000Y-34925000D03*
X86807000Y-63675500D03*
X61690000Y-76740000D03*
X74295000Y-63373000D03*
X59690000Y-69723000D03*
X59690000Y-72517000D03*
X73152000Y-68961000D03*
X62484000Y-40005000D03*
X60138026Y-42731974D03*
X61468000Y-41656000D03*
X64135000Y-40005000D03*
X75565000Y-64135000D03*
X75559286Y-66167000D03*
X32869000Y-36473000D03*
X32893000Y-38481000D03*
X81280000Y-65405000D03*
X90932000Y-65405000D03*
X76708000Y-66167000D03*
X76708000Y-64135000D03*
X77851000Y-64135000D03*
X77851000Y-66167000D03*
X79121000Y-66167000D03*
X79121000Y-64135000D03*
D22*
X39877000Y-60960000D02*
X39878000Y-60960000D01*
D23*
X39877000Y-58166000D02*
X39877000Y-59562000D01*
X37902000Y-72588000D02*
X39243000Y-71247000D01*
D24*
X53602000Y-71255000D02*
X53594000Y-71247000D01*
D23*
X46736000Y-63406000D02*
X46736000Y-71247000D01*
D22*
X39878000Y-60960000D02*
X39877000Y-60959000D01*
D23*
X39877000Y-59562000D02*
X39877000Y-60960000D01*
X42673000Y-59433000D02*
X42544000Y-59562000D01*
D24*
X53602000Y-76740000D02*
X53602000Y-71255000D01*
D23*
X39243000Y-71247000D02*
X46736000Y-71247000D01*
X53594000Y-71247000D02*
X64008000Y-71247000D01*
D24*
X63889000Y-76740000D02*
X63889000Y-71366000D01*
X63889000Y-71366000D02*
X64008000Y-71247000D01*
D23*
X44289000Y-59562000D02*
X46863000Y-62136000D01*
X39877000Y-59562000D02*
X42544000Y-59562000D01*
X64008000Y-71247000D02*
X69088000Y-71247000D01*
X42544000Y-59562000D02*
X44289000Y-59562000D01*
X37902000Y-75888000D02*
X37902000Y-72588000D01*
X73787000Y-75946000D02*
X80376000Y-75946000D01*
X46736000Y-71247000D02*
X53594000Y-71247000D01*
X42673000Y-52681000D02*
X42673000Y-59433000D01*
X69088000Y-71247000D02*
X73787000Y-75946000D01*
D22*
X52602000Y-76740000D02*
X51340000Y-76740000D01*
D23*
X38227000Y-55372000D02*
X38227000Y-62104000D01*
X38796000Y-34290000D02*
X40132000Y-34290000D01*
D25*
X92075000Y-51562000D02*
X93472000Y-52959000D01*
D23*
X42760500Y-51181000D02*
X40005000Y-51181000D01*
X81328500Y-63119000D02*
X81280000Y-63167500D01*
X86807000Y-63167500D02*
X86807000Y-63675500D01*
X81280000Y-62532500D02*
X81280000Y-63167500D01*
D24*
X54295000Y-60005000D02*
X53213000Y-60005000D01*
D25*
X88827250Y-52959000D02*
X88827250Y-52015750D01*
X38227000Y-52959000D02*
X29591000Y-52959000D01*
D24*
X56310000Y-59690000D02*
X54610000Y-59690000D01*
D25*
X66167000Y-45974000D02*
X64637000Y-45974000D01*
D23*
X39877000Y-55372000D02*
X38227000Y-55372000D01*
X40132000Y-34290000D02*
X40259000Y-34417000D01*
D24*
X53213000Y-62931000D02*
X53213000Y-60005000D01*
X59436000Y-59690000D02*
X56310000Y-59690000D01*
D26*
X37973000Y-40513000D02*
X43180000Y-40513000D01*
D23*
X40259000Y-33782000D02*
X40259000Y-34417000D01*
D24*
X54610000Y-59690000D02*
X54295000Y-60005000D01*
D22*
X62889000Y-76740000D02*
X61690000Y-76740000D01*
D23*
X82870000Y-63119000D02*
X81328500Y-63119000D01*
D25*
X88827250Y-52015750D02*
X89281000Y-51562000D01*
X29591000Y-52959000D02*
X28399500Y-51767500D01*
D23*
X88397000Y-63119000D02*
X86855500Y-63119000D01*
X40259000Y-34417000D02*
X40259000Y-34925000D01*
D25*
X28399500Y-51767500D02*
X28399500Y-49911000D01*
D23*
X38227000Y-62104000D02*
X39877000Y-63754000D01*
D26*
X43688000Y-40005000D02*
X43688000Y-38923000D01*
D23*
X40005000Y-51181000D02*
X38227000Y-52959000D01*
D26*
X43180000Y-40513000D02*
X43688000Y-40005000D01*
D23*
X59880500Y-25019000D02*
X75247500Y-25019000D01*
X86807000Y-62532500D02*
X86807000Y-63167500D01*
D25*
X71054000Y-63434000D02*
X71120000Y-63500000D01*
X69596000Y-63434000D02*
X71054000Y-63434000D01*
D23*
X86855500Y-63119000D02*
X86807000Y-63167500D01*
X81280000Y-63167500D02*
X81280000Y-63675500D01*
X68006000Y-57724000D02*
X68961000Y-57724000D01*
D25*
X64637000Y-45974000D02*
X64002000Y-45339000D01*
D23*
X53213000Y-60005000D02*
X50226000Y-60005000D01*
D22*
X50038000Y-76708000D02*
X51308000Y-76708000D01*
X35941000Y-40513000D02*
X37973000Y-40513000D01*
D23*
X62611000Y-58420000D02*
X67310000Y-58420000D01*
X75565000Y-51943000D02*
X78276000Y-51943000D01*
D25*
X93472000Y-52959000D02*
X96193250Y-52959000D01*
D22*
X36957000Y-39110500D02*
X36957000Y-40513000D01*
D23*
X67310000Y-58420000D02*
X68006000Y-57724000D01*
X38227000Y-52959000D02*
X38227000Y-55372000D01*
D25*
X89281000Y-51562000D02*
X92075000Y-51562000D01*
D23*
X65610000Y-58420000D02*
X67310000Y-58420000D01*
D24*
X61690000Y-76740000D02*
X60357000Y-76740000D01*
D23*
X58293000Y-58420000D02*
X59690000Y-58420000D01*
X29591000Y-35306000D02*
X29972000Y-34925000D01*
X59690000Y-58420000D02*
X60452000Y-58420000D01*
D24*
X71076000Y-54483000D02*
X71076000Y-55753000D01*
D23*
X51308000Y-43815000D02*
X52197000Y-44704000D01*
X44323000Y-43815000D02*
X51308000Y-43815000D01*
X42611000Y-46228000D02*
X42611000Y-44638000D01*
D26*
X58293000Y-58420000D02*
X58293000Y-52578000D01*
D25*
X59982549Y-58127451D02*
X59690000Y-58420000D01*
X56261000Y-41656000D02*
X55499000Y-42418000D01*
D23*
X52197000Y-44704000D02*
X52197000Y-57089000D01*
D25*
X58420000Y-41656000D02*
X56261000Y-41656000D01*
D23*
X53528000Y-58420000D02*
X53213000Y-58105000D01*
X52197000Y-57089000D02*
X53213000Y-58105000D01*
D25*
X59220451Y-42456451D02*
X58420000Y-41656000D01*
D22*
X36957000Y-34351000D02*
X36896000Y-34290000D01*
D23*
X42673000Y-49681000D02*
X42673000Y-46290000D01*
X34798000Y-34925000D02*
X35433000Y-34290000D01*
D25*
X42673000Y-49681000D02*
X36575500Y-49681000D01*
D23*
X30988000Y-43815000D02*
X29591000Y-42418000D01*
X42673000Y-46290000D02*
X42611000Y-46228000D01*
D25*
X78276000Y-53213000D02*
X81129500Y-53213000D01*
D23*
X60452000Y-58420000D02*
X61722000Y-59690000D01*
X71076000Y-58972000D02*
X71076000Y-56852000D01*
D25*
X36575500Y-49681000D02*
X36345500Y-49911000D01*
X82804000Y-53594000D02*
X82399500Y-53189500D01*
X59220451Y-45040549D02*
X59220451Y-42456451D01*
D23*
X65610000Y-59690000D02*
X70358000Y-59690000D01*
X44323000Y-43815000D02*
X30988000Y-43815000D01*
X70358000Y-59690000D02*
X71076000Y-58972000D01*
D26*
X58293000Y-52578000D02*
X56261000Y-50546000D01*
D23*
X43434000Y-43815000D02*
X44323000Y-43815000D01*
D25*
X55499000Y-49784000D02*
X56261000Y-50546000D01*
D23*
X35433000Y-34290000D02*
X36896000Y-34290000D01*
D25*
X58922000Y-45339000D02*
X59220451Y-45040549D01*
X82340000Y-56852000D02*
X82804000Y-56388000D01*
D23*
X29972000Y-34925000D02*
X34798000Y-34925000D01*
D22*
X36957000Y-36835500D02*
X36957000Y-34351000D01*
D23*
X56310000Y-58420000D02*
X58293000Y-58420000D01*
X71076000Y-55753000D02*
X71076000Y-56852000D01*
D25*
X82399500Y-53189500D02*
X81153000Y-53189500D01*
D23*
X29591000Y-42418000D02*
X29591000Y-35306000D01*
D25*
X81129500Y-53213000D02*
X81153000Y-53189500D01*
X82804000Y-56388000D02*
X82804000Y-53594000D01*
D23*
X61722000Y-59690000D02*
X65610000Y-59690000D01*
X56310000Y-58420000D02*
X53528000Y-58420000D01*
D25*
X55499000Y-42418000D02*
X55499000Y-49784000D01*
D23*
X42611000Y-44638000D02*
X43434000Y-43815000D01*
D25*
X71076000Y-56852000D02*
X82340000Y-56852000D01*
X68519000Y-61534000D02*
X67945000Y-60960000D01*
X67945000Y-60960000D02*
X65610000Y-60960000D01*
X72263000Y-61571500D02*
X69633500Y-61571500D01*
X69596000Y-61534000D02*
X68519000Y-61534000D01*
X69633500Y-61571500D02*
X69596000Y-61534000D01*
X37907000Y-39110500D02*
X40579500Y-39110500D01*
X40579500Y-39110500D02*
X40767000Y-38923000D01*
X42225000Y-33213000D02*
X42568500Y-32869500D01*
X42225000Y-37023000D02*
X43688000Y-37023000D01*
X42568500Y-32869500D02*
X43688000Y-32869500D01*
X42225000Y-37023000D02*
X42225000Y-33213000D01*
X40767000Y-37023000D02*
X42225000Y-37023000D01*
X74041000Y-62103000D02*
X74041000Y-60198000D01*
X70231000Y-50165000D02*
X82931000Y-50165000D01*
X67429948Y-61595000D02*
X68318948Y-62484000D01*
X59182000Y-61595000D02*
X67429948Y-61595000D01*
D27*
X64002000Y-46609000D02*
X64002000Y-46923356D01*
D25*
X68318948Y-62484000D02*
X73660000Y-62484000D01*
X74041000Y-60198000D02*
X73556500Y-59713500D01*
X65719644Y-48641000D02*
X68707000Y-48641000D01*
X53274000Y-64770000D02*
X53213000Y-64831000D01*
X73660000Y-62484000D02*
X74041000Y-62103000D01*
X73556500Y-59713500D02*
X73556500Y-58420000D01*
X57912000Y-60325000D02*
X59182000Y-61595000D01*
X68707000Y-48641000D02*
X70231000Y-50165000D01*
X56310000Y-64770000D02*
X54610000Y-64770000D01*
X82550000Y-58420000D02*
X73556500Y-58420000D01*
X83439000Y-57531000D02*
X82550000Y-58420000D01*
X54610000Y-64770000D02*
X53274000Y-64770000D01*
X82931000Y-50165000D02*
X83439000Y-50673000D01*
X54991000Y-60325000D02*
X57912000Y-60325000D01*
D27*
X64002000Y-46923356D02*
X65719644Y-48641000D01*
D25*
X83439000Y-50673000D02*
X83439000Y-57531000D01*
X54610000Y-64770000D02*
X54610000Y-60706000D01*
X54610000Y-60706000D02*
X54991000Y-60325000D01*
X73152000Y-68961000D02*
X60452000Y-68961000D01*
X43873000Y-78359000D02*
X54610000Y-78359000D01*
X54610000Y-78359000D02*
X54610000Y-76748000D01*
X72747500Y-63396500D02*
X72771000Y-63373000D01*
X54610000Y-76748000D02*
X54602000Y-76740000D01*
X72644000Y-63396500D02*
X72747500Y-63396500D01*
X54602000Y-74049000D02*
X56134000Y-72517000D01*
X56134000Y-72517000D02*
X59690000Y-72517000D01*
X64389000Y-78359000D02*
X64889000Y-77859000D01*
X60452000Y-68961000D02*
X59690000Y-69723000D01*
X41402000Y-75888000D02*
X43873000Y-78359000D01*
X54602000Y-76740000D02*
X54602000Y-74049000D01*
X54610000Y-78359000D02*
X64389000Y-78359000D01*
X64889000Y-77859000D02*
X64889000Y-76740000D01*
X72771000Y-63373000D02*
X74295000Y-63373000D01*
D23*
X29672000Y-56682000D02*
X36410000Y-56682000D01*
X36577000Y-55372000D02*
X36577000Y-58166000D01*
D25*
X58554052Y-41148000D02*
X60138026Y-42731974D01*
X54991000Y-50038000D02*
X54991000Y-42164000D01*
D26*
X62547500Y-39941500D02*
X62547500Y-33642300D01*
D25*
X56310000Y-53340000D02*
X56310000Y-51357000D01*
X60138026Y-42731974D02*
X60192000Y-42785948D01*
X56310000Y-51357000D02*
X54991000Y-50038000D01*
D26*
X62484000Y-40005000D02*
X62547500Y-39941500D01*
D25*
X56007000Y-41148000D02*
X58554052Y-41148000D01*
X54991000Y-42164000D02*
X56007000Y-41148000D01*
X60192000Y-42785948D02*
X60192000Y-45339000D01*
X55818947Y-40694000D02*
X54483000Y-42029948D01*
X55372000Y-54610000D02*
X56310000Y-54610000D01*
X61462000Y-45339000D02*
X60960000Y-44837000D01*
X54483000Y-42029948D02*
X54483000Y-53721000D01*
X54483000Y-53721000D02*
X55372000Y-54610000D01*
X60960000Y-44837000D02*
X60960000Y-42418000D01*
X59236000Y-40694000D02*
X55818947Y-40694000D01*
X60960000Y-42418000D02*
X59236000Y-40694000D01*
X61468000Y-41656000D02*
X60052000Y-40240000D01*
X62732000Y-45339000D02*
X61655500Y-44262500D01*
X55518000Y-40240000D02*
X53975000Y-41783000D01*
X60052000Y-40240000D02*
X55518000Y-40240000D01*
X53975000Y-54991000D02*
X54864000Y-55880000D01*
X54864000Y-55880000D02*
X56310000Y-55880000D01*
D26*
X64135000Y-40005000D02*
X65087500Y-39052500D01*
D25*
X61655500Y-44262500D02*
X61655500Y-41843500D01*
X61655500Y-41843500D02*
X61468000Y-41656000D01*
D26*
X65087500Y-39052500D02*
X65087500Y-33642300D01*
D25*
X53975000Y-41783000D02*
X53975000Y-54991000D01*
X58922000Y-46999451D02*
X60436549Y-48514000D01*
X65610000Y-57150000D02*
X66675000Y-57150000D01*
X64516000Y-57150000D02*
X65610000Y-57150000D01*
X80414500Y-55753000D02*
X81153000Y-55014500D01*
X74041000Y-55753000D02*
X78276000Y-55753000D01*
X60436549Y-48514000D02*
X60436549Y-52696601D01*
X72136000Y-53848000D02*
X74041000Y-55753000D01*
X69977000Y-53848000D02*
X72136000Y-53848000D01*
X66675000Y-57150000D02*
X69977000Y-53848000D01*
X58922000Y-46609000D02*
X58922000Y-46999451D01*
X60436549Y-52696601D02*
X60452000Y-52712052D01*
X60452000Y-52712052D02*
X60452000Y-53086000D01*
X60452000Y-53086000D02*
X64516000Y-57150000D01*
X78276000Y-55753000D02*
X80414500Y-55753000D01*
X60890549Y-52508549D02*
X64262000Y-55880000D01*
X66929000Y-55880000D02*
X69596000Y-53213000D01*
X64262000Y-55880000D02*
X65610000Y-55880000D01*
X69596000Y-53213000D02*
X71076000Y-53213000D01*
X65610000Y-55880000D02*
X66929000Y-55880000D01*
X60192000Y-46609000D02*
X60192000Y-47307451D01*
X60890549Y-48006000D02*
X60890549Y-52508549D01*
X60192000Y-47307451D02*
X60890549Y-48006000D01*
X62732000Y-46609000D02*
X61798549Y-47542451D01*
X66802000Y-53340000D02*
X69215000Y-50927000D01*
X61798549Y-47542451D02*
X61798549Y-51257549D01*
X63881000Y-53340000D02*
X65610000Y-53340000D01*
X76073000Y-54483000D02*
X78276000Y-54483000D01*
X72517000Y-50927000D02*
X76073000Y-54483000D01*
X65610000Y-53340000D02*
X66802000Y-53340000D01*
X69215000Y-50927000D02*
X72517000Y-50927000D01*
X61798549Y-51257549D02*
X63881000Y-53340000D01*
X61462000Y-46609000D02*
X61344549Y-46726451D01*
X61344549Y-46726451D02*
X61344549Y-51946549D01*
X61344549Y-51946549D02*
X64008000Y-54610000D01*
X64008000Y-54610000D02*
X65610000Y-54610000D01*
X65610000Y-54610000D02*
X66929000Y-54610000D01*
X69596000Y-51943000D02*
X71076000Y-51943000D01*
X66929000Y-54610000D02*
X69596000Y-51943000D01*
D23*
X36577000Y-63754000D02*
X36577000Y-60960000D01*
X33742000Y-61682000D02*
X34290000Y-62230000D01*
X34290000Y-62230000D02*
X36450000Y-62230000D01*
X29672000Y-61682000D02*
X33742000Y-61682000D01*
D25*
X53467000Y-55753000D02*
X53467000Y-42164000D01*
X53467000Y-42164000D02*
X52578000Y-41275000D01*
D26*
X47244000Y-41275000D02*
X46609000Y-40640000D01*
X46609000Y-40640000D02*
X46609000Y-38885500D01*
D25*
X56310000Y-57150000D02*
X54864000Y-57150000D01*
X47244000Y-41275000D02*
X52578000Y-41275000D01*
X54864000Y-57150000D02*
X53467000Y-55753000D01*
X34520500Y-49911000D02*
X30274500Y-49911000D01*
X94511500Y-61745500D02*
X94511500Y-64262000D01*
X90702250Y-57936250D02*
X94511500Y-61745500D01*
X90702250Y-52959000D02*
X90702250Y-57936250D01*
X98068250Y-54434500D02*
X97650875Y-54851875D01*
X97650875Y-54851875D02*
X97408250Y-55094500D01*
X97409000Y-62714500D02*
X97409000Y-55093750D01*
X98068250Y-52959000D02*
X98068250Y-54434500D01*
X97409000Y-55093750D02*
X97650875Y-54851875D01*
X53594000Y-37973000D02*
X55245000Y-39624000D01*
X60325000Y-39624000D02*
X61595000Y-40894000D01*
X55245000Y-39624000D02*
X60325000Y-39624000D01*
X67183000Y-46101000D02*
X70612000Y-49530000D01*
X39751000Y-37973000D02*
X53594000Y-37973000D01*
X75559286Y-66167000D02*
X66675000Y-66167000D01*
X66548000Y-40894000D02*
X67183000Y-41529000D01*
X61595000Y-40894000D02*
X66548000Y-40894000D01*
X84074000Y-57785000D02*
X82804000Y-59055000D01*
X65610000Y-65102000D02*
X65610000Y-64770000D01*
X82804000Y-59055000D02*
X76581000Y-59055000D01*
X76581000Y-59055000D02*
X75565000Y-60071000D01*
X75565000Y-60071000D02*
X75565000Y-64135000D01*
X37907000Y-36835500D02*
X38613500Y-36835500D01*
X84074000Y-50419000D02*
X84074000Y-57785000D01*
X66675000Y-66167000D02*
X65610000Y-65102000D01*
X70612000Y-49530000D02*
X83185000Y-49530000D01*
X38613500Y-36835500D02*
X39751000Y-37973000D01*
X83185000Y-49530000D02*
X84074000Y-50419000D01*
X67183000Y-41529000D02*
X67183000Y-46101000D01*
D22*
X35644500Y-36473000D02*
X36007000Y-36835500D01*
X31218000Y-38481000D02*
X31210000Y-38473000D01*
X31210000Y-36473000D02*
X32869000Y-36473000D01*
X32893000Y-38481000D02*
X31218000Y-38481000D01*
X32869000Y-36473000D02*
X35644500Y-36473000D01*
X31210000Y-39473000D02*
X31345000Y-39473000D01*
X35377500Y-38481000D02*
X36007000Y-39110500D01*
X33528000Y-39497000D02*
X34036000Y-38989000D01*
X31369000Y-39497000D02*
X33528000Y-39497000D01*
X31345000Y-39473000D02*
X31369000Y-39497000D01*
X34036000Y-38481000D02*
X34036000Y-38989000D01*
X31210000Y-37473000D02*
X33498132Y-37473000D01*
X34036000Y-38010868D02*
X34036000Y-38481000D01*
X34036000Y-38481000D02*
X35377500Y-38481000D01*
X33498132Y-37473000D02*
X34036000Y-38010868D01*
D25*
X68199000Y-63373000D02*
X68199000Y-64389000D01*
X65610000Y-62230000D02*
X67056000Y-62230000D01*
X67056000Y-62230000D02*
X68199000Y-63373000D01*
X80137000Y-64516000D02*
X80137000Y-61595000D01*
X68707000Y-64897000D02*
X79756000Y-64897000D01*
X80518000Y-61214000D02*
X84709000Y-61214000D01*
X84709000Y-61214000D02*
X92075000Y-61214000D01*
X92075000Y-61214000D02*
X92686500Y-61825500D01*
X84836000Y-61341000D02*
X84709000Y-61214000D01*
X68199000Y-64389000D02*
X68707000Y-64897000D01*
X92686500Y-61825500D02*
X92686500Y-64262000D01*
X80137000Y-61595000D02*
X80518000Y-61214000D01*
X79756000Y-64897000D02*
X80137000Y-64516000D01*
X84836000Y-63070500D02*
X84836000Y-61341000D01*
X91821000Y-65913000D02*
X96035500Y-65913000D01*
X79756000Y-65405000D02*
X81280000Y-65405000D01*
X96035500Y-65913000D02*
X97409000Y-64539500D01*
X67564000Y-65024000D02*
X67945000Y-65405000D01*
X67945000Y-65405000D02*
X79756000Y-65405000D01*
X90932000Y-65405000D02*
X91313000Y-65405000D01*
X91313000Y-65405000D02*
X91821000Y-65913000D01*
X90297000Y-64770000D02*
X90297000Y-63119000D01*
X67183000Y-63500000D02*
X67564000Y-63881000D01*
X90932000Y-65405000D02*
X90297000Y-64770000D01*
X65610000Y-63500000D02*
X67183000Y-63500000D01*
X67564000Y-63881000D02*
X67564000Y-65024000D01*
D26*
X43942000Y-23622000D02*
X43942000Y-28994100D01*
X41402000Y-22834600D02*
X43154600Y-22834600D01*
X46609000Y-34671000D02*
X46609000Y-37060500D01*
X46585500Y-34694500D02*
X46609000Y-34671000D01*
X43942000Y-28994100D02*
X45123100Y-28994100D01*
X45123100Y-28994100D02*
X46609000Y-30480000D01*
X46609000Y-30480000D02*
X46609000Y-34671000D01*
X43688000Y-34694500D02*
X46585500Y-34694500D01*
X43154600Y-22834600D02*
X43942000Y-23622000D01*
X67691000Y-33705800D02*
X67627500Y-33642300D01*
D25*
X83058000Y-59563000D02*
X77216000Y-59563000D01*
X83693000Y-49022000D02*
X84709000Y-50038000D01*
X76708000Y-66167000D02*
X75946000Y-66929000D01*
X60579000Y-62103000D02*
X58928000Y-62103000D01*
X58928000Y-62103000D02*
X57785000Y-60960000D01*
X75946000Y-66929000D02*
X65405000Y-66929000D01*
X65405000Y-66929000D02*
X60579000Y-62103000D01*
X67691000Y-45847000D02*
X70866000Y-49022000D01*
D26*
X67691000Y-45847000D02*
X67691000Y-33705800D01*
D25*
X77216000Y-59563000D02*
X76708000Y-60071000D01*
X76708000Y-60071000D02*
X76708000Y-64135000D01*
X57785000Y-60960000D02*
X56310000Y-60960000D01*
X70866000Y-49022000D02*
X83693000Y-49022000D01*
X84709000Y-57912000D02*
X83058000Y-59563000D01*
X84709000Y-50038000D02*
X84709000Y-57912000D01*
X71120000Y-48514000D02*
X70548500Y-47942500D01*
D26*
X70167500Y-47561500D02*
X70167500Y-33642300D01*
D25*
X77851000Y-66167000D02*
X76454000Y-67564000D01*
X83312000Y-60071000D02*
X85344000Y-58039000D01*
X85344000Y-49784000D02*
X84074000Y-48514000D01*
X60198000Y-62611000D02*
X58674000Y-62611000D01*
X65151000Y-67564000D02*
X60198000Y-62611000D01*
X85344000Y-58039000D02*
X85344000Y-49784000D01*
X58674000Y-62611000D02*
X58293000Y-62230000D01*
D26*
X70548500Y-47942500D02*
X70167500Y-47561500D01*
D25*
X78486000Y-60071000D02*
X83312000Y-60071000D01*
X70231000Y-47625000D02*
X70548500Y-47942500D01*
X58293000Y-62230000D02*
X56310000Y-62230000D01*
X77851000Y-64135000D02*
X77851000Y-60706000D01*
X76454000Y-67564000D02*
X65151000Y-67564000D01*
X77851000Y-60706000D02*
X78486000Y-60071000D01*
X84074000Y-48514000D02*
X71120000Y-48514000D01*
X85979000Y-49657000D02*
X84328000Y-48006000D01*
X79883000Y-60579000D02*
X83693000Y-60579000D01*
X79121000Y-61341000D02*
X79883000Y-60579000D01*
X64897000Y-68199000D02*
X60198000Y-63500000D01*
X79121000Y-66167000D02*
X77089000Y-68199000D01*
D26*
X72707500Y-47180500D02*
X72707500Y-33642300D01*
X73152000Y-47625000D02*
X72707500Y-47180500D01*
D25*
X77089000Y-68199000D02*
X64897000Y-68199000D01*
X73533000Y-48006000D02*
X73152000Y-47625000D01*
X79121000Y-64135000D02*
X79121000Y-61341000D01*
X85979000Y-58293000D02*
X85979000Y-49657000D01*
X60198000Y-63500000D02*
X56310000Y-63500000D01*
X72771000Y-47244000D02*
X73152000Y-47625000D01*
X83693000Y-60579000D02*
X85979000Y-58293000D01*
X84328000Y-48006000D02*
X73533000Y-48006000D01*
D23*
X87376000Y-66965000D02*
X89347000Y-64994000D01*
X87376000Y-75946000D02*
X87376000Y-66965000D01*
X83876000Y-64955500D02*
X83886000Y-64945500D01*
X83876000Y-75946000D02*
X83876000Y-64955500D01*
G04 #@! TA.AperFunction,Conductor*
G36*
X70300121Y-79268002D02*
G01*
X70346614Y-79321658D01*
X70358000Y-79374000D01*
X70358000Y-81789000D01*
X70337998Y-81857121D01*
X70284342Y-81903614D01*
X70232000Y-81915000D01*
X48005000Y-81915000D01*
X47936879Y-81894998D01*
X47890386Y-81841342D01*
X47879000Y-81789000D01*
X47879000Y-79374000D01*
X47899002Y-79305879D01*
X47952658Y-79259386D01*
X48005000Y-79248000D01*
X70232000Y-79248000D01*
X70300121Y-79268002D01*
G37*
G04 #@! TD.AperFunction*
G04 #@! TA.AperFunction,Conductor*
G36*
X28771121Y-33294002D02*
G01*
X28817614Y-33347658D01*
X28829000Y-33400000D01*
X28829000Y-35210370D01*
X28828758Y-35218170D01*
X28828500Y-35222330D01*
X28828500Y-35222331D01*
X28828460Y-35222329D01*
X28828228Y-35226229D01*
X28827839Y-35230588D01*
X28826348Y-35237756D01*
X28826546Y-35245073D01*
X28828454Y-35315577D01*
X28828500Y-35318986D01*
X28828500Y-42350624D01*
X28827067Y-42369574D01*
X28824876Y-42383973D01*
X28824876Y-42383979D01*
X28823776Y-42391208D01*
X28824369Y-42398500D01*
X28824369Y-42398503D01*
X28828085Y-42444183D01*
X28828500Y-42454398D01*
X28828500Y-42462525D01*
X28828833Y-42465386D01*
X28829000Y-42471128D01*
X28829000Y-43435000D01*
X28808998Y-43503121D01*
X28755342Y-43549614D01*
X28703000Y-43561000D01*
X26161000Y-43561000D01*
X26092879Y-43540998D01*
X26046386Y-43487342D01*
X26035000Y-43435000D01*
X26035000Y-33400000D01*
X26055002Y-33331879D01*
X26108658Y-33285386D01*
X26161000Y-33274000D01*
X28703000Y-33274000D01*
X28771121Y-33294002D01*
G37*
G04 #@! TD.AperFunction*
G04 #@! TA.AperFunction,Conductor*
G36*
X51123121Y-45105002D02*
G01*
X51169614Y-45158658D01*
X51181000Y-45211000D01*
X51181000Y-60580000D01*
X51160998Y-60648121D01*
X51107342Y-60694614D01*
X51055000Y-60706000D01*
X48043054Y-60706000D01*
X47974933Y-60685998D01*
X47928440Y-60632342D01*
X47917586Y-60588235D01*
X47917500Y-60588244D01*
X47917430Y-60587604D01*
X47910798Y-60526552D01*
X47860071Y-60391236D01*
X47854691Y-60384057D01*
X47854689Y-60384054D01*
X47778785Y-60282776D01*
X47773404Y-60275596D01*
X47752977Y-60260287D01*
X47664946Y-60194311D01*
X47664943Y-60194309D01*
X47657764Y-60188929D01*
X47558548Y-60151735D01*
X47529843Y-60140974D01*
X47529841Y-60140974D01*
X47522448Y-60138202D01*
X47514598Y-60137349D01*
X47514597Y-60137349D01*
X47464153Y-60131869D01*
X47464152Y-60131869D01*
X47460756Y-60131500D01*
X46265244Y-60131500D01*
X46261848Y-60131869D01*
X46261847Y-60131869D01*
X46211403Y-60137349D01*
X46211402Y-60137349D01*
X46203552Y-60138202D01*
X46196161Y-60140973D01*
X46196160Y-60140973D01*
X46187059Y-60144385D01*
X46090395Y-60180622D01*
X46019590Y-60185805D01*
X45957073Y-60151735D01*
X44875810Y-59070472D01*
X44863423Y-59056059D01*
X44854795Y-59044335D01*
X44850454Y-59038436D01*
X44809945Y-59004021D01*
X44802429Y-58997091D01*
X44796685Y-58991347D01*
X44793811Y-58989073D01*
X44793804Y-58989067D01*
X44774289Y-58973628D01*
X44770885Y-58970837D01*
X44720528Y-58928055D01*
X44720524Y-58928052D01*
X44714949Y-58923316D01*
X44708432Y-58919988D01*
X44703368Y-58916611D01*
X44698144Y-58913384D01*
X44692400Y-58908840D01*
X44666109Y-58896552D01*
X44625918Y-58877768D01*
X44621967Y-58875837D01*
X44563117Y-58845787D01*
X44556596Y-58842457D01*
X44549481Y-58840716D01*
X44543735Y-58838579D01*
X44537952Y-58836655D01*
X44531321Y-58833556D01*
X44459443Y-58818606D01*
X44455171Y-58817639D01*
X44383888Y-58800196D01*
X44378289Y-58799849D01*
X44378285Y-58799848D01*
X44372670Y-58799500D01*
X44372672Y-58799461D01*
X44368771Y-58799228D01*
X44364412Y-58798839D01*
X44357244Y-58797348D01*
X44349927Y-58797546D01*
X44279423Y-58799454D01*
X44276014Y-58799500D01*
X43687000Y-58799500D01*
X43618879Y-58779498D01*
X43572386Y-58725842D01*
X43561000Y-58673500D01*
X43561000Y-53076428D01*
X43563421Y-53051847D01*
X43576293Y-52987135D01*
X43577500Y-52981067D01*
X43577499Y-52380934D01*
X43563421Y-52310153D01*
X43561000Y-52285574D01*
X43561000Y-50076428D01*
X43563421Y-50051847D01*
X43576293Y-49987135D01*
X43577500Y-49981067D01*
X43577499Y-49380934D01*
X43563421Y-49310153D01*
X43561000Y-49285574D01*
X43561000Y-47379113D01*
X43581002Y-47310992D01*
X43634658Y-47264499D01*
X43704932Y-47254395D01*
X43769512Y-47283889D01*
X43776017Y-47289939D01*
X43782828Y-47296738D01*
X43794240Y-47305751D01*
X43932243Y-47390816D01*
X43945424Y-47396963D01*
X44099710Y-47448138D01*
X44113086Y-47451005D01*
X44207438Y-47460672D01*
X44213854Y-47461000D01*
X44238885Y-47461000D01*
X44254124Y-47456525D01*
X44255329Y-47455135D01*
X44257000Y-47447452D01*
X44257000Y-47442884D01*
X44765000Y-47442884D01*
X44769475Y-47458123D01*
X44770865Y-47459328D01*
X44778548Y-47460999D01*
X44808095Y-47460999D01*
X44814614Y-47460662D01*
X44910206Y-47450743D01*
X44923600Y-47447851D01*
X45077784Y-47396412D01*
X45090962Y-47390239D01*
X45228807Y-47304937D01*
X45240208Y-47295901D01*
X45354739Y-47181171D01*
X45363751Y-47169760D01*
X45448816Y-47031757D01*
X45454963Y-47018576D01*
X45506138Y-46864290D01*
X45509005Y-46850914D01*
X45518672Y-46756562D01*
X45519000Y-46750146D01*
X45519000Y-46500115D01*
X45514525Y-46484876D01*
X45513135Y-46483671D01*
X45505452Y-46482000D01*
X44783115Y-46482000D01*
X44767876Y-46486475D01*
X44766671Y-46487865D01*
X44765000Y-46495548D01*
X44765000Y-47442884D01*
X44257000Y-47442884D01*
X44257000Y-46100000D01*
X44277002Y-46031879D01*
X44330658Y-45985386D01*
X44383000Y-45974000D01*
X45500884Y-45974000D01*
X45516123Y-45969525D01*
X45517328Y-45968135D01*
X45518999Y-45960452D01*
X45518999Y-45705905D01*
X45518662Y-45699386D01*
X45508743Y-45603794D01*
X45505851Y-45590400D01*
X45454412Y-45436216D01*
X45448239Y-45423038D01*
X45359083Y-45278965D01*
X45361410Y-45277525D01*
X45339526Y-45223441D01*
X45352704Y-45153679D01*
X45401506Y-45102115D01*
X45464910Y-45085000D01*
X51055000Y-45085000D01*
X51123121Y-45105002D01*
G37*
G04 #@! TD.AperFunction*
G04 #@! TA.AperFunction,Conductor*
G36*
X41344121Y-26817002D02*
G01*
X41390614Y-26870658D01*
X41402000Y-26923000D01*
X41402000Y-31116000D01*
X41381998Y-31184121D01*
X41328342Y-31230614D01*
X41276000Y-31242000D01*
X37591000Y-31242000D01*
X37522879Y-31221998D01*
X37476386Y-31168342D01*
X37465000Y-31116000D01*
X37465000Y-26923000D01*
X37485002Y-26854879D01*
X37538658Y-26808386D01*
X37591000Y-26797000D01*
X41276000Y-26797000D01*
X41344121Y-26817002D01*
G37*
G04 #@! TD.AperFunction*
M02*
