G04 start of page 3 for group 1 idx 1 *
G04 Title: (unknown), solder *
G04 Creator: pcb 4.0.2 *
G04 CreationDate: Mon Feb 22 18:09:41 2021 UTC *
G04 For: ndholmes *
G04 Format: Gerber/RS-274X *
G04 PCB-Dimensions (mil): 3500.00 3200.00 *
G04 PCB-Coordinate-Origin: lower left *
%MOIN*%
%FSLAX25Y25*%
%LNBOTTOM*%
%ADD35C,0.1100*%
%ADD34C,0.1250*%
%ADD33C,0.1285*%
%ADD32C,0.0420*%
%ADD31C,0.0120*%
%ADD30C,0.0260*%
%ADD29C,0.1500*%
%ADD28C,0.1750*%
%ADD27C,0.2937*%
%ADD26C,0.0800*%
%ADD25C,0.0250*%
%ADD24C,0.0001*%
G54D24*G36*
X261496Y317500D02*X348000D01*
Y2000D01*
X261496D01*
Y170750D01*
X266912D01*
X267000Y170743D01*
X267353Y170771D01*
X267353Y170771D01*
X267697Y170854D01*
X268025Y170989D01*
X268327Y171174D01*
X268596Y171404D01*
X268653Y171471D01*
X269251Y172069D01*
X269356Y172134D01*
X269631Y172369D01*
X269866Y172644D01*
X270056Y172953D01*
X270194Y173287D01*
X270279Y173639D01*
X270300Y174000D01*
X270279Y174361D01*
X270194Y174713D01*
X270056Y175047D01*
X269866Y175356D01*
X269631Y175631D01*
X269356Y175866D01*
X269047Y176056D01*
X268713Y176194D01*
X268361Y176279D01*
X268000Y176307D01*
X267639Y176279D01*
X267287Y176194D01*
X266953Y176056D01*
X266644Y175866D01*
X266369Y175631D01*
X266134Y175356D01*
X266069Y175251D01*
X266068Y175250D01*
X261496D01*
Y317500D01*
G37*
G36*
X226500Y2716D02*X228138Y2038D01*
X228295Y2000D01*
X226500D01*
Y2716D01*
G37*
G36*
Y288716D02*X228138Y288038D01*
X230539Y287461D01*
X233000Y287268D01*
X235461Y287461D01*
X237862Y288038D01*
X240142Y288982D01*
X242247Y290272D01*
X244124Y291876D01*
X245728Y293753D01*
X247018Y295858D01*
X247962Y298138D01*
X248539Y300539D01*
X248684Y303000D01*
X248539Y305461D01*
X247962Y307862D01*
X247018Y310142D01*
X245728Y312247D01*
X244124Y314124D01*
X242247Y315728D01*
X240142Y317018D01*
X238978Y317500D01*
X261496D01*
Y175250D01*
X255480D01*
X255361Y175279D01*
X255000Y175307D01*
X254639Y175279D01*
X254287Y175194D01*
X253953Y175056D01*
X253644Y174866D01*
X253369Y174631D01*
X253134Y174356D01*
X252944Y174047D01*
X252806Y173713D01*
X252721Y173361D01*
X252693Y173000D01*
X252721Y172639D01*
X252806Y172287D01*
X252944Y171953D01*
X253134Y171644D01*
X253369Y171369D01*
X253644Y171134D01*
X253953Y170944D01*
X254287Y170806D01*
X254639Y170721D01*
X255000Y170693D01*
X255361Y170721D01*
X255480Y170750D01*
X261496D01*
Y2000D01*
X237705D01*
X237862Y2038D01*
X240142Y2982D01*
X242247Y4272D01*
X244124Y5876D01*
X245728Y7753D01*
X247018Y9858D01*
X247962Y12138D01*
X248539Y14539D01*
X248684Y17000D01*
X248539Y19461D01*
X247962Y21862D01*
X247018Y24142D01*
X245728Y26247D01*
X244124Y28124D01*
X242247Y29728D01*
X240142Y31018D01*
X237862Y31962D01*
X235461Y32539D01*
X233000Y32732D01*
X230539Y32539D01*
X228138Y31962D01*
X226500Y31284D01*
Y100507D01*
X230735Y100514D01*
X230965Y100569D01*
X231183Y100659D01*
X231384Y100783D01*
X231564Y100936D01*
X231717Y101116D01*
X231841Y101317D01*
X231931Y101535D01*
X231986Y101765D01*
X232000Y102000D01*
X231986Y110235D01*
X231931Y110465D01*
X231841Y110683D01*
X231717Y110884D01*
X231564Y111064D01*
X231384Y111217D01*
X231183Y111341D01*
X230965Y111431D01*
X230735Y111486D01*
X230500Y111500D01*
X226500Y111493D01*
Y120483D01*
X227363Y120551D01*
X228205Y120753D01*
X229005Y121084D01*
X229743Y121537D01*
X230401Y122099D01*
X230963Y122757D01*
X231416Y123495D01*
X231747Y124295D01*
X231949Y125137D01*
X232000Y126000D01*
X231949Y126863D01*
X231747Y127705D01*
X231416Y128505D01*
X230963Y129243D01*
X230401Y129901D01*
X229743Y130463D01*
X229005Y130916D01*
X228205Y131247D01*
X227363Y131449D01*
X226500Y131517D01*
Y140483D01*
X227363Y140551D01*
X228205Y140753D01*
X229005Y141084D01*
X229743Y141537D01*
X230401Y142099D01*
X230963Y142757D01*
X231416Y143495D01*
X231747Y144295D01*
X231949Y145137D01*
X232000Y146000D01*
X231949Y146863D01*
X231747Y147705D01*
X231416Y148505D01*
X230963Y149243D01*
X230401Y149901D01*
X229743Y150463D01*
X229005Y150916D01*
X228205Y151247D01*
X227363Y151449D01*
X226500Y151517D01*
Y169507D01*
X230735Y169514D01*
X230965Y169569D01*
X231183Y169659D01*
X231384Y169783D01*
X231564Y169936D01*
X231717Y170116D01*
X231841Y170317D01*
X231931Y170535D01*
X231986Y170765D01*
X232000Y171000D01*
X231986Y179235D01*
X231931Y179465D01*
X231841Y179683D01*
X231717Y179884D01*
X231564Y180064D01*
X231384Y180217D01*
X231183Y180341D01*
X230965Y180431D01*
X230735Y180486D01*
X230500Y180500D01*
X226500Y180493D01*
Y189483D01*
X227363Y189551D01*
X228205Y189753D01*
X229005Y190084D01*
X229743Y190537D01*
X230401Y191099D01*
X230963Y191757D01*
X231416Y192495D01*
X231747Y193295D01*
X231949Y194137D01*
X232000Y195000D01*
X231949Y195863D01*
X231747Y196705D01*
X231416Y197505D01*
X230963Y198243D01*
X230401Y198901D01*
X229743Y199463D01*
X229005Y199916D01*
X228205Y200247D01*
X227363Y200449D01*
X226500Y200517D01*
Y209507D01*
X230735Y209514D01*
X230965Y209569D01*
X231183Y209659D01*
X231384Y209783D01*
X231564Y209936D01*
X231717Y210116D01*
X231841Y210317D01*
X231931Y210535D01*
X231986Y210765D01*
X232000Y211000D01*
X231986Y219235D01*
X231931Y219465D01*
X231841Y219683D01*
X231717Y219884D01*
X231564Y220064D01*
X231384Y220217D01*
X231183Y220341D01*
X230965Y220431D01*
X230735Y220486D01*
X230500Y220500D01*
X226500Y220493D01*
Y229483D01*
X227363Y229551D01*
X228205Y229753D01*
X229005Y230084D01*
X229743Y230537D01*
X230401Y231099D01*
X230963Y231757D01*
X231416Y232495D01*
X231747Y233295D01*
X231949Y234137D01*
X232000Y235000D01*
X231949Y235863D01*
X231747Y236705D01*
X231416Y237505D01*
X230963Y238243D01*
X230401Y238901D01*
X229743Y239463D01*
X229005Y239916D01*
X228205Y240247D01*
X227363Y240449D01*
X226500Y240517D01*
Y288716D01*
G37*
G36*
Y317500D02*X227022D01*
X226500Y317284D01*
Y317500D01*
G37*
G36*
X77993D02*X226500D01*
Y317284D01*
X225858Y317018D01*
X223753Y315728D01*
X221876Y314124D01*
X220272Y312247D01*
X218982Y310142D01*
X218038Y307862D01*
X217461Y305461D01*
X217268Y303000D01*
X217461Y300539D01*
X218038Y298138D01*
X218982Y295858D01*
X220272Y293753D01*
X221876Y291876D01*
X223753Y290272D01*
X225858Y288982D01*
X226500Y288716D01*
Y240517D01*
X225637Y240449D01*
X224795Y240247D01*
X223995Y239916D01*
X223257Y239463D01*
X222599Y238901D01*
X222037Y238243D01*
X221584Y237505D01*
X221253Y236705D01*
X221051Y235863D01*
X220983Y235000D01*
X221051Y234137D01*
X221253Y233295D01*
X221584Y232495D01*
X222037Y231757D01*
X222599Y231099D01*
X223257Y230537D01*
X223995Y230084D01*
X224795Y229753D01*
X225637Y229551D01*
X226500Y229483D01*
Y220493D01*
X222265Y220486D01*
X222035Y220431D01*
X221817Y220341D01*
X221616Y220217D01*
X221436Y220064D01*
X221283Y219884D01*
X221159Y219683D01*
X221069Y219465D01*
X221014Y219235D01*
X221000Y219000D01*
X221014Y210765D01*
X221069Y210535D01*
X221159Y210317D01*
X221283Y210116D01*
X221436Y209936D01*
X221616Y209783D01*
X221817Y209659D01*
X222035Y209569D01*
X222265Y209514D01*
X222500Y209500D01*
X226500Y209507D01*
Y200517D01*
X225637Y200449D01*
X224795Y200247D01*
X223995Y199916D01*
X223257Y199463D01*
X222599Y198901D01*
X222037Y198243D01*
X221584Y197505D01*
X221253Y196705D01*
X221051Y195863D01*
X220983Y195000D01*
X221051Y194137D01*
X221253Y193295D01*
X221584Y192495D01*
X222037Y191757D01*
X222599Y191099D01*
X223257Y190537D01*
X223995Y190084D01*
X224795Y189753D01*
X225637Y189551D01*
X226500Y189483D01*
Y180493D01*
X222265Y180486D01*
X222035Y180431D01*
X221817Y180341D01*
X221616Y180217D01*
X221436Y180064D01*
X221283Y179884D01*
X221159Y179683D01*
X221069Y179465D01*
X221014Y179235D01*
X221000Y179000D01*
X221014Y170765D01*
X221069Y170535D01*
X221159Y170317D01*
X221283Y170116D01*
X221436Y169936D01*
X221616Y169783D01*
X221817Y169659D01*
X222035Y169569D01*
X222265Y169514D01*
X222500Y169500D01*
X226500Y169507D01*
Y151517D01*
X225637Y151449D01*
X224795Y151247D01*
X223995Y150916D01*
X223257Y150463D01*
X222599Y149901D01*
X222037Y149243D01*
X221584Y148505D01*
X221253Y147705D01*
X221051Y146863D01*
X220983Y146000D01*
X221051Y145137D01*
X221253Y144295D01*
X221584Y143495D01*
X222037Y142757D01*
X222599Y142099D01*
X223257Y141537D01*
X223995Y141084D01*
X224795Y140753D01*
X225637Y140551D01*
X226500Y140483D01*
Y131517D01*
X225637Y131449D01*
X224795Y131247D01*
X223995Y130916D01*
X223257Y130463D01*
X222599Y129901D01*
X222037Y129243D01*
X221584Y128505D01*
X221253Y127705D01*
X221051Y126863D01*
X220983Y126000D01*
X221051Y125137D01*
X221253Y124295D01*
X221584Y123495D01*
X222037Y122757D01*
X222599Y122099D01*
X223257Y121537D01*
X223995Y121084D01*
X224795Y120753D01*
X225637Y120551D01*
X226500Y120483D01*
Y111493D01*
X222265Y111486D01*
X222035Y111431D01*
X221817Y111341D01*
X221616Y111217D01*
X221436Y111064D01*
X221283Y110884D01*
X221159Y110683D01*
X221069Y110465D01*
X221014Y110235D01*
X221000Y110000D01*
X221014Y101765D01*
X221069Y101535D01*
X221159Y101317D01*
X221283Y101116D01*
X221436Y100936D01*
X221616Y100783D01*
X221817Y100659D01*
X222035Y100569D01*
X222265Y100514D01*
X222500Y100500D01*
X226500Y100507D01*
Y31284D01*
X225858Y31018D01*
X223753Y29728D01*
X221876Y28124D01*
X220272Y26247D01*
X218982Y24142D01*
X218038Y21862D01*
X217461Y19461D01*
X217268Y17000D01*
X217461Y14539D01*
X218038Y12138D01*
X218982Y9858D01*
X220272Y7753D01*
X221876Y5876D01*
X223753Y4272D01*
X225858Y2982D01*
X226500Y2716D01*
Y2000D01*
X77993D01*
Y5763D01*
X78124Y5876D01*
X79728Y7753D01*
X81018Y9858D01*
X81962Y12138D01*
X82539Y14539D01*
X82684Y17000D01*
X82539Y19461D01*
X81962Y21862D01*
X81018Y24142D01*
X79728Y26247D01*
X78124Y28124D01*
X77993Y28237D01*
Y48305D01*
X78416Y48995D01*
X78747Y49795D01*
X78949Y50637D01*
X79000Y51500D01*
X78949Y52363D01*
X78747Y53205D01*
X78416Y54005D01*
X77993Y54695D01*
Y66080D01*
X78183Y66159D01*
X78384Y66283D01*
X78564Y66436D01*
X78717Y66616D01*
X78841Y66817D01*
X78931Y67035D01*
X78986Y67265D01*
X79000Y67500D01*
X78986Y75735D01*
X78931Y75965D01*
X78841Y76183D01*
X78717Y76384D01*
X78564Y76564D01*
X78384Y76717D01*
X78183Y76841D01*
X77993Y76920D01*
Y88305D01*
X78416Y88995D01*
X78747Y89795D01*
X78949Y90637D01*
X79000Y91500D01*
X78949Y92363D01*
X78747Y93205D01*
X78416Y94005D01*
X77993Y94695D01*
Y106080D01*
X78183Y106159D01*
X78384Y106283D01*
X78564Y106436D01*
X78717Y106616D01*
X78841Y106817D01*
X78931Y107035D01*
X78986Y107265D01*
X79000Y107500D01*
X78986Y115735D01*
X78931Y115965D01*
X78841Y116183D01*
X78717Y116384D01*
X78564Y116564D01*
X78384Y116717D01*
X78183Y116841D01*
X77993Y116920D01*
Y143805D01*
X78416Y144495D01*
X78747Y145295D01*
X78949Y146137D01*
X79000Y147000D01*
X78949Y147863D01*
X78747Y148705D01*
X78416Y149505D01*
X77993Y150195D01*
Y163805D01*
X78416Y164495D01*
X78747Y165295D01*
X78949Y166137D01*
X79000Y167000D01*
X78949Y167863D01*
X78747Y168705D01*
X78416Y169505D01*
X77993Y170195D01*
Y181580D01*
X78183Y181659D01*
X78384Y181783D01*
X78564Y181936D01*
X78717Y182116D01*
X78841Y182317D01*
X78931Y182535D01*
X78986Y182765D01*
X79000Y183000D01*
X78986Y191235D01*
X78931Y191465D01*
X78841Y191683D01*
X78717Y191884D01*
X78564Y192064D01*
X78384Y192217D01*
X78183Y192341D01*
X77993Y192420D01*
Y203805D01*
X78416Y204495D01*
X78747Y205295D01*
X78949Y206137D01*
X79000Y207000D01*
X78949Y207863D01*
X78747Y208705D01*
X78416Y209505D01*
X77993Y210195D01*
Y221580D01*
X78183Y221659D01*
X78384Y221783D01*
X78564Y221936D01*
X78717Y222116D01*
X78841Y222317D01*
X78931Y222535D01*
X78986Y222765D01*
X79000Y223000D01*
X78986Y231235D01*
X78931Y231465D01*
X78841Y231683D01*
X78717Y231884D01*
X78564Y232064D01*
X78384Y232217D01*
X78183Y232341D01*
X77993Y232420D01*
Y251645D01*
X78078Y251681D01*
X78179Y251743D01*
X78269Y251819D01*
X78345Y251909D01*
X78405Y252011D01*
X78622Y252480D01*
X78789Y252969D01*
X78909Y253472D01*
X78982Y253984D01*
X79006Y254500D01*
X78982Y255016D01*
X78909Y255528D01*
X78789Y256031D01*
X78622Y256520D01*
X78410Y256992D01*
X78349Y257093D01*
X78272Y257184D01*
X78182Y257261D01*
X78080Y257323D01*
X77993Y257360D01*
Y269080D01*
X78183Y269159D01*
X78384Y269283D01*
X78564Y269436D01*
X78717Y269616D01*
X78841Y269817D01*
X78931Y270035D01*
X78986Y270265D01*
X79000Y270500D01*
X78986Y278735D01*
X78931Y278965D01*
X78841Y279183D01*
X78717Y279384D01*
X78564Y279564D01*
X78384Y279717D01*
X78183Y279841D01*
X77993Y279920D01*
Y291763D01*
X78124Y291876D01*
X79728Y293753D01*
X81018Y295858D01*
X81962Y298138D01*
X82539Y300539D01*
X82684Y303000D01*
X82539Y305461D01*
X81962Y307862D01*
X81018Y310142D01*
X79728Y312247D01*
X78124Y314124D01*
X77993Y314237D01*
Y317500D01*
G37*
G36*
Y279920D02*X77965Y279931D01*
X77735Y279986D01*
X77500Y280000D01*
X73500Y279993D01*
Y288716D01*
X74142Y288982D01*
X76247Y290272D01*
X77993Y291763D01*
Y279920D01*
G37*
G36*
Y232420D02*X77965Y232431D01*
X77735Y232486D01*
X77500Y232500D01*
X73500Y232493D01*
Y248994D01*
X74016Y249018D01*
X74528Y249091D01*
X75031Y249211D01*
X75520Y249378D01*
X75992Y249590D01*
X76093Y249651D01*
X76184Y249728D01*
X76261Y249818D01*
X76323Y249920D01*
X76369Y250029D01*
X76397Y250145D01*
X76406Y250263D01*
X76397Y250381D01*
X76370Y250497D01*
X76324Y250607D01*
X76262Y250708D01*
X76186Y250798D01*
X76095Y250876D01*
X75994Y250938D01*
X75885Y250984D01*
X75769Y251011D01*
X75651Y251021D01*
X75532Y251012D01*
X75417Y250984D01*
X75308Y250937D01*
X74968Y250779D01*
X74612Y250658D01*
X74247Y250570D01*
X73875Y250518D01*
X73500Y250500D01*
Y258500D01*
X73875Y258482D01*
X74247Y258430D01*
X74612Y258342D01*
X74968Y258221D01*
X75310Y258067D01*
X75418Y258020D01*
X75533Y257993D01*
X75651Y257983D01*
X75768Y257993D01*
X75883Y258021D01*
X75992Y258066D01*
X76093Y258128D01*
X76182Y258205D01*
X76259Y258295D01*
X76320Y258395D01*
X76365Y258504D01*
X76393Y258619D01*
X76402Y258737D01*
X76392Y258855D01*
X76365Y258969D01*
X76319Y259078D01*
X76257Y259179D01*
X76181Y259269D01*
X76091Y259345D01*
X75989Y259405D01*
X75520Y259622D01*
X75031Y259789D01*
X74528Y259909D01*
X74016Y259982D01*
X73500Y260006D01*
Y269007D01*
X77735Y269014D01*
X77965Y269069D01*
X77993Y269080D01*
Y257360D01*
X77971Y257369D01*
X77855Y257397D01*
X77737Y257406D01*
X77619Y257397D01*
X77503Y257370D01*
X77393Y257324D01*
X77292Y257262D01*
X77202Y257186D01*
X77124Y257095D01*
X77062Y256994D01*
X77016Y256885D01*
X76989Y256769D01*
X76979Y256651D01*
X76988Y256532D01*
X77016Y256417D01*
X77063Y256308D01*
X77221Y255968D01*
X77342Y255612D01*
X77430Y255247D01*
X77482Y254875D01*
X77500Y254500D01*
X77482Y254125D01*
X77430Y253753D01*
X77342Y253388D01*
X77221Y253032D01*
X77067Y252690D01*
X77020Y252582D01*
X76993Y252467D01*
X76983Y252349D01*
X76993Y252232D01*
X77021Y252117D01*
X77066Y252008D01*
X77128Y251907D01*
X77205Y251818D01*
X77295Y251741D01*
X77395Y251680D01*
X77504Y251635D01*
X77619Y251607D01*
X77737Y251598D01*
X77855Y251608D01*
X77969Y251635D01*
X77993Y251645D01*
Y232420D01*
G37*
G36*
Y210195D02*X77963Y210243D01*
X77401Y210901D01*
X76743Y211463D01*
X76005Y211916D01*
X75205Y212247D01*
X74363Y212449D01*
X73500Y212517D01*
Y221507D01*
X77735Y221514D01*
X77965Y221569D01*
X77993Y221580D01*
Y210195D01*
G37*
G36*
Y192420D02*X77965Y192431D01*
X77735Y192486D01*
X77500Y192500D01*
X73500Y192493D01*
Y201483D01*
X74363Y201551D01*
X75205Y201753D01*
X76005Y202084D01*
X76743Y202537D01*
X77401Y203099D01*
X77963Y203757D01*
X77993Y203805D01*
Y192420D01*
G37*
G36*
Y170195D02*X77963Y170243D01*
X77401Y170901D01*
X76743Y171463D01*
X76005Y171916D01*
X75205Y172247D01*
X74363Y172449D01*
X73500Y172517D01*
Y181507D01*
X77735Y181514D01*
X77965Y181569D01*
X77993Y181580D01*
Y170195D01*
G37*
G36*
Y150195D02*X77963Y150243D01*
X77401Y150901D01*
X76743Y151463D01*
X76005Y151916D01*
X75205Y152247D01*
X74363Y152449D01*
X73500Y152517D01*
Y161483D01*
X74363Y161551D01*
X75205Y161753D01*
X76005Y162084D01*
X76743Y162537D01*
X77401Y163099D01*
X77963Y163757D01*
X77993Y163805D01*
Y150195D01*
G37*
G36*
Y116920D02*X77965Y116931D01*
X77735Y116986D01*
X77500Y117000D01*
X73500Y116993D01*
Y141483D01*
X74363Y141551D01*
X75205Y141753D01*
X76005Y142084D01*
X76743Y142537D01*
X77401Y143099D01*
X77963Y143757D01*
X77993Y143805D01*
Y116920D01*
G37*
G36*
Y94695D02*X77963Y94743D01*
X77401Y95401D01*
X76743Y95963D01*
X76005Y96416D01*
X75205Y96747D01*
X74363Y96949D01*
X73500Y97017D01*
Y106007D01*
X77735Y106014D01*
X77965Y106069D01*
X77993Y106080D01*
Y94695D01*
G37*
G36*
Y76920D02*X77965Y76931D01*
X77735Y76986D01*
X77500Y77000D01*
X73500Y76993D01*
Y85983D01*
X74363Y86051D01*
X75205Y86253D01*
X76005Y86584D01*
X76743Y87037D01*
X77401Y87599D01*
X77963Y88257D01*
X77993Y88305D01*
Y76920D01*
G37*
G36*
Y54695D02*X77963Y54743D01*
X77401Y55401D01*
X76743Y55963D01*
X76005Y56416D01*
X75205Y56747D01*
X74363Y56949D01*
X73500Y57017D01*
Y66007D01*
X77735Y66014D01*
X77965Y66069D01*
X77993Y66080D01*
Y54695D01*
G37*
G36*
Y28237D02*X76247Y29728D01*
X74142Y31018D01*
X73500Y31284D01*
Y45983D01*
X74363Y46051D01*
X75205Y46253D01*
X76005Y46584D01*
X76743Y47037D01*
X77401Y47599D01*
X77963Y48257D01*
X77993Y48305D01*
Y28237D01*
G37*
G36*
Y2000D02*X73500D01*
Y2716D01*
X74142Y2982D01*
X76247Y4272D01*
X77993Y5763D01*
Y2000D01*
G37*
G36*
X73500Y317500D02*X77993D01*
Y314237D01*
X76247Y315728D01*
X74142Y317018D01*
X73500Y317284D01*
Y317500D01*
G37*
G36*
X69007Y66080D02*X69035Y66069D01*
X69265Y66014D01*
X69500Y66000D01*
X73500Y66007D01*
Y57017D01*
X72637Y56949D01*
X71795Y56747D01*
X70995Y56416D01*
X70257Y55963D01*
X69599Y55401D01*
X69037Y54743D01*
X69007Y54695D01*
Y66080D01*
G37*
G36*
Y88305D02*X69037Y88257D01*
X69599Y87599D01*
X70257Y87037D01*
X70995Y86584D01*
X71795Y86253D01*
X72637Y86051D01*
X73500Y85983D01*
Y76993D01*
X69265Y76986D01*
X69035Y76931D01*
X69007Y76920D01*
Y88305D01*
G37*
G36*
Y106080D02*X69035Y106069D01*
X69265Y106014D01*
X69500Y106000D01*
X73500Y106007D01*
Y97017D01*
X72637Y96949D01*
X71795Y96747D01*
X70995Y96416D01*
X70257Y95963D01*
X69599Y95401D01*
X69037Y94743D01*
X69007Y94695D01*
Y106080D01*
G37*
G36*
Y143805D02*X69037Y143757D01*
X69599Y143099D01*
X70257Y142537D01*
X70995Y142084D01*
X71795Y141753D01*
X72637Y141551D01*
X73500Y141483D01*
Y116993D01*
X69265Y116986D01*
X69035Y116931D01*
X69007Y116920D01*
Y143805D01*
G37*
G36*
Y163805D02*X69037Y163757D01*
X69599Y163099D01*
X70257Y162537D01*
X70995Y162084D01*
X71795Y161753D01*
X72637Y161551D01*
X73500Y161483D01*
Y152517D01*
X72637Y152449D01*
X71795Y152247D01*
X70995Y151916D01*
X70257Y151463D01*
X69599Y150901D01*
X69037Y150243D01*
X69007Y150195D01*
Y163805D01*
G37*
G36*
Y181580D02*X69035Y181569D01*
X69265Y181514D01*
X69500Y181500D01*
X73500Y181507D01*
Y172517D01*
X72637Y172449D01*
X71795Y172247D01*
X70995Y171916D01*
X70257Y171463D01*
X69599Y170901D01*
X69037Y170243D01*
X69007Y170195D01*
Y181580D01*
G37*
G36*
Y203805D02*X69037Y203757D01*
X69599Y203099D01*
X70257Y202537D01*
X70995Y202084D01*
X71795Y201753D01*
X72637Y201551D01*
X73500Y201483D01*
Y192493D01*
X69265Y192486D01*
X69035Y192431D01*
X69007Y192420D01*
Y203805D01*
G37*
G36*
Y221580D02*X69035Y221569D01*
X69265Y221514D01*
X69500Y221500D01*
X73500Y221507D01*
Y212517D01*
X72637Y212449D01*
X71795Y212247D01*
X70995Y211916D01*
X70257Y211463D01*
X69599Y210901D01*
X69037Y210243D01*
X69007Y210195D01*
Y221580D01*
G37*
G36*
Y269080D02*X69035Y269069D01*
X69265Y269014D01*
X69500Y269000D01*
X73500Y269007D01*
Y260006D01*
X73500D01*
X72984Y259982D01*
X72472Y259909D01*
X71969Y259789D01*
X71480Y259622D01*
X71008Y259410D01*
X70907Y259349D01*
X70816Y259272D01*
X70739Y259182D01*
X70677Y259080D01*
X70631Y258971D01*
X70603Y258855D01*
X70594Y258737D01*
X70603Y258619D01*
X70630Y258503D01*
X70676Y258393D01*
X70738Y258292D01*
X70814Y258202D01*
X70905Y258124D01*
X71006Y258062D01*
X71115Y258016D01*
X71231Y257989D01*
X71349Y257979D01*
X71468Y257988D01*
X71583Y258016D01*
X71692Y258063D01*
X72032Y258221D01*
X72388Y258342D01*
X72753Y258430D01*
X73125Y258482D01*
X73500Y258500D01*
Y250500D01*
X73125Y250518D01*
X72753Y250570D01*
X72388Y250658D01*
X72032Y250779D01*
X71690Y250933D01*
X71582Y250980D01*
X71467Y251007D01*
X71349Y251017D01*
X71232Y251007D01*
X71117Y250979D01*
X71008Y250934D01*
X70907Y250872D01*
X70818Y250795D01*
X70741Y250705D01*
X70680Y250605D01*
X70635Y250496D01*
X70607Y250381D01*
X70598Y250263D01*
X70608Y250145D01*
X70635Y250031D01*
X70681Y249922D01*
X70743Y249821D01*
X70819Y249731D01*
X70909Y249655D01*
X71011Y249595D01*
X71480Y249378D01*
X71969Y249211D01*
X72472Y249091D01*
X72984Y249018D01*
X73500Y248994D01*
Y232493D01*
X69265Y232486D01*
X69035Y232431D01*
X69007Y232420D01*
Y251640D01*
X69029Y251631D01*
X69145Y251603D01*
X69263Y251594D01*
X69381Y251603D01*
X69497Y251630D01*
X69607Y251676D01*
X69708Y251738D01*
X69798Y251814D01*
X69876Y251905D01*
X69938Y252006D01*
X69984Y252115D01*
X70011Y252231D01*
X70021Y252349D01*
X70012Y252468D01*
X69984Y252583D01*
X69937Y252692D01*
X69779Y253032D01*
X69658Y253388D01*
X69570Y253753D01*
X69518Y254125D01*
X69500Y254500D01*
X69518Y254875D01*
X69570Y255247D01*
X69658Y255612D01*
X69779Y255968D01*
X69933Y256310D01*
X69980Y256418D01*
X70007Y256533D01*
X70017Y256651D01*
X70007Y256768D01*
X69979Y256883D01*
X69934Y256992D01*
X69872Y257093D01*
X69795Y257182D01*
X69705Y257259D01*
X69605Y257320D01*
X69496Y257365D01*
X69381Y257393D01*
X69263Y257402D01*
X69145Y257392D01*
X69031Y257365D01*
X69007Y257355D01*
Y269080D01*
G37*
G36*
Y287426D02*X69461Y287461D01*
X71862Y288038D01*
X73500Y288716D01*
Y279993D01*
X69265Y279986D01*
X69035Y279931D01*
X69007Y279920D01*
Y287426D01*
G37*
G36*
X73500Y31284D02*X71862Y31962D01*
X69461Y32539D01*
X69007Y32574D01*
Y48305D01*
X69037Y48257D01*
X69599Y47599D01*
X70257Y47037D01*
X70995Y46584D01*
X71795Y46253D01*
X72637Y46051D01*
X73500Y45983D01*
Y31284D01*
G37*
G36*
X69007Y32574D02*X67000Y32732D01*
X64539Y32539D01*
X62138Y31962D01*
X59858Y31018D01*
X57753Y29728D01*
X55876Y28124D01*
X54272Y26247D01*
X52982Y24142D01*
X52500Y22978D01*
Y297022D01*
X52982Y295858D01*
X54272Y293753D01*
X55876Y291876D01*
X57753Y290272D01*
X59858Y288982D01*
X62138Y288038D01*
X64539Y287461D01*
X67000Y287268D01*
X69007Y287426D01*
Y279920D01*
X68817Y279841D01*
X68616Y279717D01*
X68436Y279564D01*
X68283Y279384D01*
X68159Y279183D01*
X68069Y278965D01*
X68014Y278735D01*
X68000Y278500D01*
X68014Y270265D01*
X68069Y270035D01*
X68159Y269817D01*
X68283Y269616D01*
X68436Y269436D01*
X68616Y269283D01*
X68817Y269159D01*
X69007Y269080D01*
Y257355D01*
X68922Y257319D01*
X68821Y257257D01*
X68731Y257181D01*
X68655Y257091D01*
X68595Y256989D01*
X68378Y256520D01*
X68211Y256031D01*
X68091Y255528D01*
X68018Y255016D01*
X67994Y254500D01*
X68018Y253984D01*
X68091Y253472D01*
X68211Y252969D01*
X68378Y252480D01*
X68590Y252008D01*
X68651Y251907D01*
X68728Y251816D01*
X68818Y251739D01*
X68920Y251677D01*
X69007Y251640D01*
Y232420D01*
X68817Y232341D01*
X68616Y232217D01*
X68436Y232064D01*
X68283Y231884D01*
X68159Y231683D01*
X68069Y231465D01*
X68014Y231235D01*
X68000Y231000D01*
X68014Y222765D01*
X68069Y222535D01*
X68159Y222317D01*
X68283Y222116D01*
X68436Y221936D01*
X68616Y221783D01*
X68817Y221659D01*
X69007Y221580D01*
Y210195D01*
X68584Y209505D01*
X68253Y208705D01*
X68051Y207863D01*
X67983Y207000D01*
X68051Y206137D01*
X68253Y205295D01*
X68584Y204495D01*
X69007Y203805D01*
Y192420D01*
X68817Y192341D01*
X68616Y192217D01*
X68436Y192064D01*
X68283Y191884D01*
X68159Y191683D01*
X68069Y191465D01*
X68014Y191235D01*
X68000Y191000D01*
X68014Y182765D01*
X68069Y182535D01*
X68159Y182317D01*
X68283Y182116D01*
X68436Y181936D01*
X68616Y181783D01*
X68817Y181659D01*
X69007Y181580D01*
Y170195D01*
X68584Y169505D01*
X68253Y168705D01*
X68051Y167863D01*
X67983Y167000D01*
X68051Y166137D01*
X68253Y165295D01*
X68584Y164495D01*
X69007Y163805D01*
Y150195D01*
X68584Y149505D01*
X68253Y148705D01*
X68051Y147863D01*
X67983Y147000D01*
X68051Y146137D01*
X68253Y145295D01*
X68584Y144495D01*
X69007Y143805D01*
Y116920D01*
X68817Y116841D01*
X68616Y116717D01*
X68436Y116564D01*
X68283Y116384D01*
X68159Y116183D01*
X68069Y115965D01*
X68014Y115735D01*
X68000Y115500D01*
X68014Y107265D01*
X68069Y107035D01*
X68159Y106817D01*
X68283Y106616D01*
X68436Y106436D01*
X68616Y106283D01*
X68817Y106159D01*
X69007Y106080D01*
Y94695D01*
X68584Y94005D01*
X68253Y93205D01*
X68051Y92363D01*
X67983Y91500D01*
X68051Y90637D01*
X68253Y89795D01*
X68584Y88995D01*
X69007Y88305D01*
Y76920D01*
X68817Y76841D01*
X68616Y76717D01*
X68436Y76564D01*
X68283Y76384D01*
X68159Y76183D01*
X68069Y75965D01*
X68014Y75735D01*
X68000Y75500D01*
X68014Y67265D01*
X68069Y67035D01*
X68159Y66817D01*
X68283Y66616D01*
X68436Y66436D01*
X68616Y66283D01*
X68817Y66159D01*
X69007Y66080D01*
Y54695D01*
X68584Y54005D01*
X68253Y53205D01*
X68051Y52363D01*
X67983Y51500D01*
X68051Y50637D01*
X68253Y49795D01*
X68584Y48995D01*
X69007Y48305D01*
Y32574D01*
G37*
G36*
X73500Y2000D02*X71705D01*
X71862Y2038D01*
X73500Y2716D01*
Y2000D01*
G37*
G36*
X72978Y317500D02*X73500D01*
Y317284D01*
X72978Y317500D01*
G37*
G36*
X77993Y291763D02*X78124Y291876D01*
X79500Y293486D01*
Y26514D01*
X78124Y28124D01*
X77993Y28237D01*
Y48305D01*
X78416Y48995D01*
X78747Y49795D01*
X78949Y50637D01*
X79000Y51500D01*
X78949Y52363D01*
X78747Y53205D01*
X78416Y54005D01*
X77993Y54695D01*
Y66080D01*
X78183Y66159D01*
X78384Y66283D01*
X78564Y66436D01*
X78717Y66616D01*
X78841Y66817D01*
X78931Y67035D01*
X78986Y67265D01*
X79000Y67500D01*
X78986Y75735D01*
X78931Y75965D01*
X78841Y76183D01*
X78717Y76384D01*
X78564Y76564D01*
X78384Y76717D01*
X78183Y76841D01*
X77993Y76920D01*
Y88305D01*
X78416Y88995D01*
X78747Y89795D01*
X78949Y90637D01*
X79000Y91500D01*
X78949Y92363D01*
X78747Y93205D01*
X78416Y94005D01*
X77993Y94695D01*
Y106080D01*
X78183Y106159D01*
X78384Y106283D01*
X78564Y106436D01*
X78717Y106616D01*
X78841Y106817D01*
X78931Y107035D01*
X78986Y107265D01*
X79000Y107500D01*
X78986Y115735D01*
X78931Y115965D01*
X78841Y116183D01*
X78717Y116384D01*
X78564Y116564D01*
X78384Y116717D01*
X78183Y116841D01*
X77993Y116920D01*
Y143805D01*
X78416Y144495D01*
X78747Y145295D01*
X78949Y146137D01*
X79000Y147000D01*
X78949Y147863D01*
X78747Y148705D01*
X78416Y149505D01*
X77993Y150195D01*
Y163805D01*
X78416Y164495D01*
X78747Y165295D01*
X78949Y166137D01*
X79000Y167000D01*
X78949Y167863D01*
X78747Y168705D01*
X78416Y169505D01*
X77993Y170195D01*
Y181580D01*
X78183Y181659D01*
X78384Y181783D01*
X78564Y181936D01*
X78717Y182116D01*
X78841Y182317D01*
X78931Y182535D01*
X78986Y182765D01*
X79000Y183000D01*
X78986Y191235D01*
X78931Y191465D01*
X78841Y191683D01*
X78717Y191884D01*
X78564Y192064D01*
X78384Y192217D01*
X78183Y192341D01*
X77993Y192420D01*
Y203805D01*
X78416Y204495D01*
X78747Y205295D01*
X78949Y206137D01*
X79000Y207000D01*
X78949Y207863D01*
X78747Y208705D01*
X78416Y209505D01*
X77993Y210195D01*
Y221580D01*
X78183Y221659D01*
X78384Y221783D01*
X78564Y221936D01*
X78717Y222116D01*
X78841Y222317D01*
X78931Y222535D01*
X78986Y222765D01*
X79000Y223000D01*
X78986Y231235D01*
X78931Y231465D01*
X78841Y231683D01*
X78717Y231884D01*
X78564Y232064D01*
X78384Y232217D01*
X78183Y232341D01*
X77993Y232420D01*
Y251645D01*
X78078Y251681D01*
X78179Y251743D01*
X78269Y251819D01*
X78345Y251909D01*
X78405Y252011D01*
X78622Y252480D01*
X78789Y252969D01*
X78909Y253472D01*
X78982Y253984D01*
X79006Y254500D01*
X78982Y255016D01*
X78909Y255528D01*
X78789Y256031D01*
X78622Y256520D01*
X78410Y256992D01*
X78349Y257093D01*
X78272Y257184D01*
X78182Y257261D01*
X78080Y257323D01*
X77993Y257360D01*
Y269080D01*
X78183Y269159D01*
X78384Y269283D01*
X78564Y269436D01*
X78717Y269616D01*
X78841Y269817D01*
X78931Y270035D01*
X78986Y270265D01*
X79000Y270500D01*
X78986Y278735D01*
X78931Y278965D01*
X78841Y279183D01*
X78717Y279384D01*
X78564Y279564D01*
X78384Y279717D01*
X78183Y279841D01*
X77993Y279920D01*
Y291763D01*
G37*
G36*
Y232420D02*X77965Y232431D01*
X77735Y232486D01*
X77500Y232500D01*
X73500Y232493D01*
Y248994D01*
X74016Y249018D01*
X74528Y249091D01*
X75031Y249211D01*
X75520Y249378D01*
X75992Y249590D01*
X76093Y249651D01*
X76184Y249728D01*
X76261Y249818D01*
X76323Y249920D01*
X76369Y250029D01*
X76397Y250145D01*
X76406Y250263D01*
X76397Y250381D01*
X76370Y250497D01*
X76324Y250607D01*
X76262Y250708D01*
X76186Y250798D01*
X76095Y250876D01*
X75994Y250938D01*
X75885Y250984D01*
X75769Y251011D01*
X75651Y251021D01*
X75532Y251012D01*
X75417Y250984D01*
X75308Y250937D01*
X74968Y250779D01*
X74612Y250658D01*
X74247Y250570D01*
X73875Y250518D01*
X73500Y250500D01*
Y258500D01*
X73875Y258482D01*
X74247Y258430D01*
X74612Y258342D01*
X74968Y258221D01*
X75310Y258067D01*
X75418Y258020D01*
X75533Y257993D01*
X75651Y257983D01*
X75768Y257993D01*
X75883Y258021D01*
X75992Y258066D01*
X76093Y258128D01*
X76182Y258205D01*
X76259Y258295D01*
X76320Y258395D01*
X76365Y258504D01*
X76393Y258619D01*
X76402Y258737D01*
X76392Y258855D01*
X76365Y258969D01*
X76319Y259078D01*
X76257Y259179D01*
X76181Y259269D01*
X76091Y259345D01*
X75989Y259405D01*
X75520Y259622D01*
X75031Y259789D01*
X74528Y259909D01*
X74016Y259982D01*
X73500Y260006D01*
Y269007D01*
X77735Y269014D01*
X77965Y269069D01*
X77993Y269080D01*
Y257360D01*
X77971Y257369D01*
X77855Y257397D01*
X77737Y257406D01*
X77619Y257397D01*
X77503Y257370D01*
X77393Y257324D01*
X77292Y257262D01*
X77202Y257186D01*
X77124Y257095D01*
X77062Y256994D01*
X77016Y256885D01*
X76989Y256769D01*
X76979Y256651D01*
X76988Y256532D01*
X77016Y256417D01*
X77063Y256308D01*
X77221Y255968D01*
X77342Y255612D01*
X77430Y255247D01*
X77482Y254875D01*
X77500Y254500D01*
X77482Y254125D01*
X77430Y253753D01*
X77342Y253388D01*
X77221Y253032D01*
X77067Y252690D01*
X77020Y252582D01*
X76993Y252467D01*
X76983Y252349D01*
X76993Y252232D01*
X77021Y252117D01*
X77066Y252008D01*
X77128Y251907D01*
X77205Y251818D01*
X77295Y251741D01*
X77395Y251680D01*
X77504Y251635D01*
X77619Y251607D01*
X77737Y251598D01*
X77855Y251608D01*
X77969Y251635D01*
X77993Y251645D01*
Y232420D01*
G37*
G36*
Y210195D02*X77963Y210243D01*
X77401Y210901D01*
X76743Y211463D01*
X76005Y211916D01*
X75205Y212247D01*
X74363Y212449D01*
X73500Y212517D01*
Y221507D01*
X77735Y221514D01*
X77965Y221569D01*
X77993Y221580D01*
Y210195D01*
G37*
G36*
Y192420D02*X77965Y192431D01*
X77735Y192486D01*
X77500Y192500D01*
X73500Y192493D01*
Y201483D01*
X74363Y201551D01*
X75205Y201753D01*
X76005Y202084D01*
X76743Y202537D01*
X77401Y203099D01*
X77963Y203757D01*
X77993Y203805D01*
Y192420D01*
G37*
G36*
Y170195D02*X77963Y170243D01*
X77401Y170901D01*
X76743Y171463D01*
X76005Y171916D01*
X75205Y172247D01*
X74363Y172449D01*
X73500Y172517D01*
Y181507D01*
X77735Y181514D01*
X77965Y181569D01*
X77993Y181580D01*
Y170195D01*
G37*
G36*
Y150195D02*X77963Y150243D01*
X77401Y150901D01*
X76743Y151463D01*
X76005Y151916D01*
X75205Y152247D01*
X74363Y152449D01*
X73500Y152517D01*
Y161483D01*
X74363Y161551D01*
X75205Y161753D01*
X76005Y162084D01*
X76743Y162537D01*
X77401Y163099D01*
X77963Y163757D01*
X77993Y163805D01*
Y150195D01*
G37*
G36*
Y116920D02*X77965Y116931D01*
X77735Y116986D01*
X77500Y117000D01*
X73500Y116993D01*
Y141483D01*
X74363Y141551D01*
X75205Y141753D01*
X76005Y142084D01*
X76743Y142537D01*
X77401Y143099D01*
X77963Y143757D01*
X77993Y143805D01*
Y116920D01*
G37*
G36*
Y94695D02*X77963Y94743D01*
X77401Y95401D01*
X76743Y95963D01*
X76005Y96416D01*
X75205Y96747D01*
X74363Y96949D01*
X73500Y97017D01*
Y106007D01*
X77735Y106014D01*
X77965Y106069D01*
X77993Y106080D01*
Y94695D01*
G37*
G36*
Y76920D02*X77965Y76931D01*
X77735Y76986D01*
X77500Y77000D01*
X73500Y76993D01*
Y85983D01*
X74363Y86051D01*
X75205Y86253D01*
X76005Y86584D01*
X76743Y87037D01*
X77401Y87599D01*
X77963Y88257D01*
X77993Y88305D01*
Y76920D01*
G37*
G36*
Y54695D02*X77963Y54743D01*
X77401Y55401D01*
X76743Y55963D01*
X76005Y56416D01*
X75205Y56747D01*
X74363Y56949D01*
X73500Y57017D01*
Y66007D01*
X77735Y66014D01*
X77965Y66069D01*
X77993Y66080D01*
Y54695D01*
G37*
G36*
Y28237D02*X76247Y29728D01*
X74142Y31018D01*
X73500Y31284D01*
Y45983D01*
X74363Y46051D01*
X75205Y46253D01*
X76005Y46584D01*
X76743Y47037D01*
X77401Y47599D01*
X77963Y48257D01*
X77993Y48305D01*
Y28237D01*
G37*
G36*
X73500Y288716D02*X74142Y288982D01*
X76247Y290272D01*
X77993Y291763D01*
Y279920D01*
X77965Y279931D01*
X77735Y279986D01*
X77500Y280000D01*
X73500Y279993D01*
Y288716D01*
G37*
G36*
X69007Y48305D02*X69037Y48257D01*
X69599Y47599D01*
X70257Y47037D01*
X70995Y46584D01*
X71795Y46253D01*
X72637Y46051D01*
X73500Y45983D01*
Y31284D01*
X71862Y31962D01*
X69461Y32539D01*
X69007Y32574D01*
Y48305D01*
G37*
G36*
Y66080D02*X69035Y66069D01*
X69265Y66014D01*
X69500Y66000D01*
X73500Y66007D01*
Y57017D01*
X72637Y56949D01*
X71795Y56747D01*
X70995Y56416D01*
X70257Y55963D01*
X69599Y55401D01*
X69037Y54743D01*
X69007Y54695D01*
Y66080D01*
G37*
G36*
Y88305D02*X69037Y88257D01*
X69599Y87599D01*
X70257Y87037D01*
X70995Y86584D01*
X71795Y86253D01*
X72637Y86051D01*
X73500Y85983D01*
Y76993D01*
X69265Y76986D01*
X69035Y76931D01*
X69007Y76920D01*
Y88305D01*
G37*
G36*
Y106080D02*X69035Y106069D01*
X69265Y106014D01*
X69500Y106000D01*
X73500Y106007D01*
Y97017D01*
X72637Y96949D01*
X71795Y96747D01*
X70995Y96416D01*
X70257Y95963D01*
X69599Y95401D01*
X69037Y94743D01*
X69007Y94695D01*
Y106080D01*
G37*
G36*
Y143805D02*X69037Y143757D01*
X69599Y143099D01*
X70257Y142537D01*
X70995Y142084D01*
X71795Y141753D01*
X72637Y141551D01*
X73500Y141483D01*
Y116993D01*
X69265Y116986D01*
X69035Y116931D01*
X69007Y116920D01*
Y143805D01*
G37*
G36*
Y163805D02*X69037Y163757D01*
X69599Y163099D01*
X70257Y162537D01*
X70995Y162084D01*
X71795Y161753D01*
X72637Y161551D01*
X73500Y161483D01*
Y152517D01*
X72637Y152449D01*
X71795Y152247D01*
X70995Y151916D01*
X70257Y151463D01*
X69599Y150901D01*
X69037Y150243D01*
X69007Y150195D01*
Y163805D01*
G37*
G36*
Y181580D02*X69035Y181569D01*
X69265Y181514D01*
X69500Y181500D01*
X73500Y181507D01*
Y172517D01*
X72637Y172449D01*
X71795Y172247D01*
X70995Y171916D01*
X70257Y171463D01*
X69599Y170901D01*
X69037Y170243D01*
X69007Y170195D01*
Y181580D01*
G37*
G36*
Y203805D02*X69037Y203757D01*
X69599Y203099D01*
X70257Y202537D01*
X70995Y202084D01*
X71795Y201753D01*
X72637Y201551D01*
X73500Y201483D01*
Y192493D01*
X69265Y192486D01*
X69035Y192431D01*
X69007Y192420D01*
Y203805D01*
G37*
G36*
Y221580D02*X69035Y221569D01*
X69265Y221514D01*
X69500Y221500D01*
X73500Y221507D01*
Y212517D01*
X72637Y212449D01*
X71795Y212247D01*
X70995Y211916D01*
X70257Y211463D01*
X69599Y210901D01*
X69037Y210243D01*
X69007Y210195D01*
Y221580D01*
G37*
G36*
Y269080D02*X69035Y269069D01*
X69265Y269014D01*
X69500Y269000D01*
X73500Y269007D01*
Y260006D01*
X73500D01*
X72984Y259982D01*
X72472Y259909D01*
X71969Y259789D01*
X71480Y259622D01*
X71008Y259410D01*
X70907Y259349D01*
X70816Y259272D01*
X70739Y259182D01*
X70677Y259080D01*
X70631Y258971D01*
X70603Y258855D01*
X70594Y258737D01*
X70603Y258619D01*
X70630Y258503D01*
X70676Y258393D01*
X70738Y258292D01*
X70814Y258202D01*
X70905Y258124D01*
X71006Y258062D01*
X71115Y258016D01*
X71231Y257989D01*
X71349Y257979D01*
X71468Y257988D01*
X71583Y258016D01*
X71692Y258063D01*
X72032Y258221D01*
X72388Y258342D01*
X72753Y258430D01*
X73125Y258482D01*
X73500Y258500D01*
Y250500D01*
X73125Y250518D01*
X72753Y250570D01*
X72388Y250658D01*
X72032Y250779D01*
X71690Y250933D01*
X71582Y250980D01*
X71467Y251007D01*
X71349Y251017D01*
X71232Y251007D01*
X71117Y250979D01*
X71008Y250934D01*
X70907Y250872D01*
X70818Y250795D01*
X70741Y250705D01*
X70680Y250605D01*
X70635Y250496D01*
X70607Y250381D01*
X70598Y250263D01*
X70608Y250145D01*
X70635Y250031D01*
X70681Y249922D01*
X70743Y249821D01*
X70819Y249731D01*
X70909Y249655D01*
X71011Y249595D01*
X71480Y249378D01*
X71969Y249211D01*
X72472Y249091D01*
X72984Y249018D01*
X73500Y248994D01*
Y232493D01*
X69265Y232486D01*
X69035Y232431D01*
X69007Y232420D01*
Y251640D01*
X69029Y251631D01*
X69145Y251603D01*
X69263Y251594D01*
X69381Y251603D01*
X69497Y251630D01*
X69607Y251676D01*
X69708Y251738D01*
X69798Y251814D01*
X69876Y251905D01*
X69938Y252006D01*
X69984Y252115D01*
X70011Y252231D01*
X70021Y252349D01*
X70012Y252468D01*
X69984Y252583D01*
X69937Y252692D01*
X69779Y253032D01*
X69658Y253388D01*
X69570Y253753D01*
X69518Y254125D01*
X69500Y254500D01*
X69518Y254875D01*
X69570Y255247D01*
X69658Y255612D01*
X69779Y255968D01*
X69933Y256310D01*
X69980Y256418D01*
X70007Y256533D01*
X70017Y256651D01*
X70007Y256768D01*
X69979Y256883D01*
X69934Y256992D01*
X69872Y257093D01*
X69795Y257182D01*
X69705Y257259D01*
X69605Y257320D01*
X69496Y257365D01*
X69381Y257393D01*
X69263Y257402D01*
X69145Y257392D01*
X69031Y257365D01*
X69007Y257355D01*
Y269080D01*
G37*
G36*
Y287426D02*X69461Y287461D01*
X71862Y288038D01*
X73500Y288716D01*
Y279993D01*
X69265Y279986D01*
X69035Y279931D01*
X69007Y279920D01*
Y287426D01*
G37*
G36*
X35155Y292245D02*X35319Y291638D01*
X35435Y290988D01*
X35493Y290330D01*
Y289670D01*
X35435Y289012D01*
X35319Y288362D01*
X35155Y287755D01*
Y292245D01*
G37*
G36*
Y317500D02*X61022D01*
X59858Y317018D01*
X57753Y315728D01*
X55876Y314124D01*
X54272Y312247D01*
X52982Y310142D01*
X52038Y307862D01*
X51461Y305461D01*
X51268Y303000D01*
X51461Y300539D01*
X52038Y298138D01*
X52982Y295858D01*
X54272Y293753D01*
X55876Y291876D01*
X57753Y290272D01*
X59858Y288982D01*
X62138Y288038D01*
X64539Y287461D01*
X67000Y287268D01*
X69007Y287426D01*
Y279920D01*
X68817Y279841D01*
X68616Y279717D01*
X68436Y279564D01*
X68283Y279384D01*
X68159Y279183D01*
X68069Y278965D01*
X68014Y278735D01*
X68000Y278500D01*
X68014Y270265D01*
X68069Y270035D01*
X68159Y269817D01*
X68283Y269616D01*
X68436Y269436D01*
X68616Y269283D01*
X68817Y269159D01*
X69007Y269080D01*
Y257355D01*
X68922Y257319D01*
X68821Y257257D01*
X68731Y257181D01*
X68655Y257091D01*
X68595Y256989D01*
X68378Y256520D01*
X68211Y256031D01*
X68091Y255528D01*
X68018Y255016D01*
X67994Y254500D01*
X68018Y253984D01*
X68091Y253472D01*
X68211Y252969D01*
X68378Y252480D01*
X68590Y252008D01*
X68651Y251907D01*
X68728Y251816D01*
X68818Y251739D01*
X68920Y251677D01*
X69007Y251640D01*
Y232420D01*
X68817Y232341D01*
X68616Y232217D01*
X68436Y232064D01*
X68283Y231884D01*
X68159Y231683D01*
X68069Y231465D01*
X68014Y231235D01*
X68000Y231000D01*
X68014Y222765D01*
X68069Y222535D01*
X68159Y222317D01*
X68283Y222116D01*
X68436Y221936D01*
X68616Y221783D01*
X68817Y221659D01*
X69007Y221580D01*
Y210195D01*
X68584Y209505D01*
X68253Y208705D01*
X68051Y207863D01*
X67983Y207000D01*
X68051Y206137D01*
X68253Y205295D01*
X68584Y204495D01*
X69007Y203805D01*
Y192420D01*
X68817Y192341D01*
X68616Y192217D01*
X68436Y192064D01*
X68283Y191884D01*
X68159Y191683D01*
X68069Y191465D01*
X68014Y191235D01*
X68000Y191000D01*
X68014Y182765D01*
X68069Y182535D01*
X68159Y182317D01*
X68283Y182116D01*
X68436Y181936D01*
X68616Y181783D01*
X68817Y181659D01*
X69007Y181580D01*
Y170195D01*
X68584Y169505D01*
X68253Y168705D01*
X68051Y167863D01*
X67983Y167000D01*
X68051Y166137D01*
X68253Y165295D01*
X68584Y164495D01*
X69007Y163805D01*
Y150195D01*
X68584Y149505D01*
X68253Y148705D01*
X68051Y147863D01*
X67983Y147000D01*
X68051Y146137D01*
X68253Y145295D01*
X68584Y144495D01*
X69007Y143805D01*
Y116920D01*
X68817Y116841D01*
X68616Y116717D01*
X68436Y116564D01*
X68283Y116384D01*
X68159Y116183D01*
X68069Y115965D01*
X68014Y115735D01*
X68000Y115500D01*
X68014Y107265D01*
X68069Y107035D01*
X68159Y106817D01*
X68283Y106616D01*
X68436Y106436D01*
X68616Y106283D01*
X68817Y106159D01*
X69007Y106080D01*
Y94695D01*
X68584Y94005D01*
X68253Y93205D01*
X68051Y92363D01*
X67983Y91500D01*
X68051Y90637D01*
X68253Y89795D01*
X68584Y88995D01*
X69007Y88305D01*
Y76920D01*
X68817Y76841D01*
X68616Y76717D01*
X68436Y76564D01*
X68283Y76384D01*
X68159Y76183D01*
X68069Y75965D01*
X68014Y75735D01*
X68000Y75500D01*
X68014Y67265D01*
X68069Y67035D01*
X68159Y66817D01*
X68283Y66616D01*
X68436Y66436D01*
X68616Y66283D01*
X68817Y66159D01*
X69007Y66080D01*
Y54695D01*
X68584Y54005D01*
X68253Y53205D01*
X68051Y52363D01*
X67983Y51500D01*
X68051Y50637D01*
X68253Y49795D01*
X68584Y48995D01*
X69007Y48305D01*
Y32574D01*
X67000Y32732D01*
X64539Y32539D01*
X62138Y31962D01*
X59858Y31018D01*
X57753Y29728D01*
X55876Y28124D01*
X54272Y26247D01*
X52982Y24142D01*
X52038Y21862D01*
X51461Y19461D01*
X51268Y17000D01*
X51461Y14539D01*
X52038Y12138D01*
X52982Y9858D01*
X54272Y7753D01*
X55876Y5876D01*
X57753Y4272D01*
X59858Y2982D01*
X62138Y2038D01*
X62295Y2000D01*
X35155D01*
Y259364D01*
X35912Y260251D01*
X36714Y261560D01*
X37301Y262978D01*
X37660Y264470D01*
X37750Y266000D01*
X37660Y267530D01*
X37301Y269022D01*
X36714Y270440D01*
X35912Y271749D01*
X35155Y272636D01*
Y285396D01*
X35530Y286039D01*
X35849Y286716D01*
X36107Y287419D01*
X36303Y288142D01*
X36434Y288880D01*
X36500Y289626D01*
Y290374D01*
X36434Y291121D01*
X36303Y291858D01*
X36107Y292581D01*
X35849Y293284D01*
X35530Y293961D01*
X35155Y294604D01*
Y317500D01*
G37*
G36*
Y2000D02*X27985D01*
Y256221D01*
X28000Y256220D01*
X29530Y256340D01*
X31022Y256699D01*
X32440Y257286D01*
X33749Y258088D01*
X34916Y259084D01*
X35155Y259364D01*
Y2000D01*
G37*
G36*
X27985Y317500D02*X35155D01*
Y294604D01*
X35152Y294608D01*
X34719Y295219D01*
X34666Y295279D01*
X34604Y295328D01*
X34534Y295368D01*
X34460Y295396D01*
X34381Y295412D01*
X34302Y295416D01*
X34222Y295407D01*
X34145Y295386D01*
X34073Y295353D01*
X34006Y295309D01*
X33947Y295256D01*
X33897Y295193D01*
X33857Y295124D01*
X33829Y295049D01*
X33813Y294971D01*
X33809Y294891D01*
X33818Y294812D01*
X33839Y294735D01*
X33872Y294662D01*
X33917Y294596D01*
X34305Y294062D01*
X34638Y293492D01*
X34919Y292895D01*
X35147Y292275D01*
X35155Y292245D01*
Y287755D01*
X35147Y287725D01*
X34919Y287105D01*
X34638Y286508D01*
X34305Y285938D01*
X33923Y285399D01*
X33879Y285334D01*
X33846Y285263D01*
X33825Y285187D01*
X33817Y285109D01*
X33820Y285030D01*
X33836Y284953D01*
X33864Y284879D01*
X33903Y284811D01*
X33952Y284749D01*
X34010Y284696D01*
X34076Y284653D01*
X34148Y284621D01*
X34224Y284600D01*
X34302Y284591D01*
X34381Y284595D01*
X34458Y284611D01*
X34531Y284639D01*
X34600Y284678D01*
X34661Y284727D01*
X34713Y284786D01*
X35152Y285392D01*
X35155Y285396D01*
Y272636D01*
X34916Y272916D01*
X33749Y273912D01*
X32440Y274714D01*
X31022Y275301D01*
X29530Y275660D01*
X28000Y275780D01*
X27985Y275779D01*
Y281500D01*
X28374D01*
X29120Y281566D01*
X29858Y281697D01*
X30581Y281893D01*
X31284Y282151D01*
X31961Y282470D01*
X32608Y282848D01*
X33219Y283281D01*
X33279Y283334D01*
X33328Y283396D01*
X33368Y283466D01*
X33396Y283540D01*
X33412Y283619D01*
X33416Y283698D01*
X33407Y283778D01*
X33386Y283855D01*
X33353Y283927D01*
X33309Y283994D01*
X33256Y284053D01*
X33193Y284103D01*
X33124Y284143D01*
X33049Y284171D01*
X32971Y284187D01*
X32891Y284191D01*
X32812Y284182D01*
X32735Y284161D01*
X32662Y284128D01*
X32596Y284083D01*
X32062Y283695D01*
X31492Y283362D01*
X30895Y283081D01*
X30275Y282853D01*
X29638Y282681D01*
X28988Y282565D01*
X28330Y282507D01*
X27985D01*
Y297493D01*
X28330D01*
X28988Y297435D01*
X29638Y297319D01*
X30275Y297147D01*
X30895Y296919D01*
X31492Y296638D01*
X32062Y296305D01*
X32601Y295923D01*
X32666Y295879D01*
X32737Y295846D01*
X32813Y295825D01*
X32891Y295817D01*
X32970Y295820D01*
X33047Y295836D01*
X33121Y295864D01*
X33189Y295903D01*
X33251Y295952D01*
X33304Y296010D01*
X33347Y296076D01*
X33379Y296148D01*
X33400Y296224D01*
X33409Y296302D01*
X33405Y296381D01*
X33389Y296458D01*
X33361Y296531D01*
X33322Y296600D01*
X33273Y296661D01*
X33214Y296713D01*
X32608Y297152D01*
X31961Y297530D01*
X31284Y297849D01*
X30581Y298107D01*
X29858Y298303D01*
X29120Y298434D01*
X28374Y298500D01*
X27985D01*
Y317500D01*
G37*
G36*
X20845Y259364D02*X21084Y259084D01*
X22251Y258088D01*
X23560Y257286D01*
X24978Y256699D01*
X26470Y256340D01*
X27985Y256221D01*
Y2000D01*
X20845D01*
Y259364D01*
G37*
G36*
Y317500D02*X27985D01*
Y298500D01*
X27626D01*
X26879Y298434D01*
X26142Y298303D01*
X25419Y298107D01*
X24716Y297849D01*
X24039Y297530D01*
X23392Y297152D01*
X22781Y296719D01*
X22721Y296666D01*
X22672Y296604D01*
X22632Y296534D01*
X22604Y296460D01*
X22588Y296381D01*
X22584Y296302D01*
X22593Y296222D01*
X22614Y296145D01*
X22647Y296073D01*
X22691Y296006D01*
X22744Y295947D01*
X22807Y295897D01*
X22876Y295857D01*
X22951Y295829D01*
X23029Y295813D01*
X23109Y295809D01*
X23188Y295818D01*
X23265Y295839D01*
X23338Y295872D01*
X23404Y295917D01*
X23938Y296305D01*
X24508Y296638D01*
X25105Y296919D01*
X25725Y297147D01*
X26362Y297319D01*
X27012Y297435D01*
X27670Y297493D01*
X27985D01*
Y282507D01*
X27670D01*
X27012Y282565D01*
X26362Y282681D01*
X25725Y282853D01*
X25105Y283081D01*
X24508Y283362D01*
X23938Y283695D01*
X23399Y284077D01*
X23334Y284121D01*
X23263Y284154D01*
X23187Y284175D01*
X23109Y284183D01*
X23030Y284180D01*
X22953Y284164D01*
X22879Y284136D01*
X22811Y284097D01*
X22749Y284048D01*
X22696Y283990D01*
X22653Y283924D01*
X22621Y283852D01*
X22600Y283776D01*
X22591Y283698D01*
X22595Y283619D01*
X22611Y283542D01*
X22639Y283469D01*
X22678Y283400D01*
X22727Y283339D01*
X22786Y283287D01*
X23392Y282848D01*
X24039Y282470D01*
X24716Y282151D01*
X25419Y281893D01*
X26142Y281697D01*
X26879Y281566D01*
X27626Y281500D01*
X27985D01*
Y275779D01*
X26470Y275660D01*
X24978Y275301D01*
X23560Y274714D01*
X22251Y273912D01*
X21084Y272916D01*
X20845Y272636D01*
Y285396D01*
X20848Y285392D01*
X21281Y284781D01*
X21334Y284721D01*
X21396Y284672D01*
X21466Y284632D01*
X21540Y284604D01*
X21619Y284588D01*
X21698Y284584D01*
X21778Y284593D01*
X21855Y284614D01*
X21927Y284647D01*
X21994Y284691D01*
X22053Y284744D01*
X22103Y284807D01*
X22143Y284876D01*
X22171Y284951D01*
X22187Y285029D01*
X22191Y285109D01*
X22182Y285188D01*
X22161Y285265D01*
X22128Y285338D01*
X22083Y285404D01*
X21695Y285938D01*
X21362Y286508D01*
X21081Y287105D01*
X20853Y287725D01*
X20845Y287755D01*
Y292245D01*
X20853Y292275D01*
X21081Y292895D01*
X21362Y293492D01*
X21695Y294062D01*
X22077Y294601D01*
X22121Y294666D01*
X22154Y294737D01*
X22175Y294813D01*
X22183Y294891D01*
X22180Y294970D01*
X22164Y295047D01*
X22136Y295121D01*
X22097Y295189D01*
X22048Y295251D01*
X21990Y295304D01*
X21924Y295347D01*
X21852Y295379D01*
X21776Y295400D01*
X21698Y295409D01*
X21619Y295405D01*
X21542Y295389D01*
X21469Y295361D01*
X21400Y295322D01*
X21339Y295273D01*
X21287Y295214D01*
X20848Y294608D01*
X20845Y294604D01*
Y317500D01*
G37*
G36*
Y287755D02*X20681Y288362D01*
X20565Y289012D01*
X20507Y289670D01*
Y290330D01*
X20565Y290988D01*
X20681Y291638D01*
X20845Y292245D01*
Y287755D01*
G37*
G36*
X16155Y280245D02*X16319Y279638D01*
X16435Y278988D01*
X16493Y278330D01*
Y277670D01*
X16435Y277012D01*
X16319Y276362D01*
X16155Y275755D01*
Y280245D01*
G37*
G36*
Y317500D02*X20845D01*
Y294604D01*
X20470Y293961D01*
X20151Y293284D01*
X19893Y292581D01*
X19697Y291858D01*
X19566Y291121D01*
X19500Y290374D01*
Y289626D01*
X19566Y288880D01*
X19697Y288142D01*
X19893Y287419D01*
X20151Y286716D01*
X20470Y286039D01*
X20845Y285396D01*
Y272636D01*
X20088Y271749D01*
X19286Y270440D01*
X18699Y269022D01*
X18340Y267530D01*
X18220Y266000D01*
X18340Y264470D01*
X18699Y262978D01*
X19286Y261560D01*
X20088Y260251D01*
X20845Y259364D01*
Y2000D01*
X16155D01*
Y273396D01*
X16530Y274039D01*
X16849Y274716D01*
X17107Y275419D01*
X17303Y276142D01*
X17434Y276880D01*
X17500Y277626D01*
Y278374D01*
X17434Y279121D01*
X17303Y279858D01*
X17107Y280581D01*
X16849Y281284D01*
X16530Y281961D01*
X16155Y282604D01*
Y317500D01*
G37*
G36*
X9004D02*X16155D01*
Y282604D01*
X16152Y282608D01*
X15719Y283219D01*
X15666Y283279D01*
X15604Y283328D01*
X15534Y283368D01*
X15460Y283396D01*
X15381Y283412D01*
X15302Y283416D01*
X15222Y283407D01*
X15145Y283386D01*
X15073Y283353D01*
X15006Y283309D01*
X14947Y283256D01*
X14897Y283193D01*
X14857Y283124D01*
X14829Y283049D01*
X14813Y282971D01*
X14809Y282891D01*
X14818Y282812D01*
X14839Y282735D01*
X14872Y282662D01*
X14917Y282596D01*
X15305Y282062D01*
X15638Y281492D01*
X15919Y280895D01*
X16147Y280275D01*
X16155Y280245D01*
Y275755D01*
X16147Y275725D01*
X15919Y275105D01*
X15638Y274508D01*
X15305Y273938D01*
X14923Y273399D01*
X14879Y273334D01*
X14846Y273263D01*
X14825Y273187D01*
X14817Y273109D01*
X14820Y273030D01*
X14836Y272953D01*
X14864Y272879D01*
X14903Y272811D01*
X14952Y272749D01*
X15010Y272696D01*
X15076Y272653D01*
X15148Y272621D01*
X15224Y272600D01*
X15302Y272591D01*
X15381Y272595D01*
X15458Y272611D01*
X15531Y272639D01*
X15600Y272678D01*
X15661Y272727D01*
X15713Y272786D01*
X16152Y273392D01*
X16155Y273396D01*
Y2000D01*
X9004D01*
Y269500D01*
X9374D01*
X10120Y269566D01*
X10858Y269697D01*
X11581Y269893D01*
X12284Y270151D01*
X12961Y270470D01*
X13608Y270848D01*
X14219Y271281D01*
X14279Y271334D01*
X14328Y271396D01*
X14368Y271466D01*
X14396Y271540D01*
X14412Y271619D01*
X14416Y271698D01*
X14407Y271778D01*
X14386Y271855D01*
X14353Y271927D01*
X14309Y271994D01*
X14256Y272053D01*
X14193Y272103D01*
X14124Y272143D01*
X14049Y272171D01*
X13971Y272187D01*
X13891Y272191D01*
X13812Y272182D01*
X13735Y272161D01*
X13662Y272128D01*
X13596Y272083D01*
X13062Y271695D01*
X12492Y271362D01*
X11895Y271081D01*
X11275Y270853D01*
X10638Y270681D01*
X9988Y270565D01*
X9330Y270507D01*
X9004D01*
Y285493D01*
X9330D01*
X9988Y285435D01*
X10638Y285319D01*
X11275Y285147D01*
X11895Y284919D01*
X12492Y284638D01*
X13062Y284305D01*
X13601Y283923D01*
X13666Y283879D01*
X13737Y283846D01*
X13813Y283825D01*
X13891Y283817D01*
X13970Y283820D01*
X14047Y283836D01*
X14121Y283864D01*
X14189Y283903D01*
X14251Y283952D01*
X14304Y284010D01*
X14347Y284076D01*
X14379Y284148D01*
X14400Y284224D01*
X14409Y284302D01*
X14405Y284381D01*
X14389Y284458D01*
X14361Y284531D01*
X14322Y284600D01*
X14273Y284661D01*
X14214Y284713D01*
X13608Y285152D01*
X12961Y285530D01*
X12284Y285849D01*
X11581Y286107D01*
X10858Y286303D01*
X10120Y286434D01*
X9374Y286500D01*
X9004D01*
Y317500D01*
G37*
G36*
X2000D02*X9004D01*
Y286500D01*
X8626D01*
X7879Y286434D01*
X7142Y286303D01*
X6419Y286107D01*
X5716Y285849D01*
X5039Y285530D01*
X4392Y285152D01*
X3781Y284719D01*
X3721Y284666D01*
X3672Y284604D01*
X3632Y284534D01*
X3604Y284460D01*
X3588Y284381D01*
X3584Y284302D01*
X3593Y284222D01*
X3614Y284145D01*
X3647Y284073D01*
X3691Y284006D01*
X3744Y283947D01*
X3807Y283897D01*
X3876Y283857D01*
X3951Y283829D01*
X4029Y283813D01*
X4109Y283809D01*
X4188Y283818D01*
X4265Y283839D01*
X4338Y283872D01*
X4404Y283917D01*
X4938Y284305D01*
X5508Y284638D01*
X6105Y284919D01*
X6725Y285147D01*
X7362Y285319D01*
X8012Y285435D01*
X8670Y285493D01*
X9004D01*
Y270507D01*
X8670D01*
X8012Y270565D01*
X7362Y270681D01*
X6725Y270853D01*
X6105Y271081D01*
X5508Y271362D01*
X4938Y271695D01*
X4399Y272077D01*
X4334Y272121D01*
X4263Y272154D01*
X4187Y272175D01*
X4109Y272183D01*
X4030Y272180D01*
X3953Y272164D01*
X3879Y272136D01*
X3811Y272097D01*
X3749Y272048D01*
X3696Y271990D01*
X3653Y271924D01*
X3621Y271852D01*
X3600Y271776D01*
X3591Y271698D01*
X3595Y271619D01*
X3611Y271542D01*
X3639Y271469D01*
X3678Y271400D01*
X3727Y271339D01*
X3786Y271287D01*
X4392Y270848D01*
X5039Y270470D01*
X5716Y270151D01*
X6419Y269893D01*
X7142Y269697D01*
X7879Y269566D01*
X8626Y269500D01*
X9004D01*
Y2000D01*
X2000D01*
Y273177D01*
X2281Y272781D01*
X2334Y272721D01*
X2396Y272672D01*
X2466Y272632D01*
X2540Y272604D01*
X2619Y272588D01*
X2698Y272584D01*
X2778Y272593D01*
X2855Y272614D01*
X2927Y272647D01*
X2994Y272691D01*
X3053Y272744D01*
X3103Y272807D01*
X3143Y272876D01*
X3171Y272951D01*
X3187Y273029D01*
X3191Y273109D01*
X3182Y273188D01*
X3161Y273265D01*
X3128Y273338D01*
X3083Y273404D01*
X2695Y273938D01*
X2362Y274508D01*
X2081Y275105D01*
X2000Y275326D01*
Y280674D01*
X2081Y280895D01*
X2362Y281492D01*
X2695Y282062D01*
X3077Y282601D01*
X3121Y282666D01*
X3154Y282737D01*
X3175Y282813D01*
X3183Y282891D01*
X3180Y282970D01*
X3164Y283047D01*
X3136Y283121D01*
X3097Y283189D01*
X3048Y283251D01*
X2990Y283304D01*
X2924Y283347D01*
X2852Y283379D01*
X2776Y283400D01*
X2698Y283409D01*
X2619Y283405D01*
X2542Y283389D01*
X2469Y283361D01*
X2400Y283322D01*
X2339Y283273D01*
X2287Y283214D01*
X2000Y282818D01*
Y317500D01*
G37*
G54D25*X267000Y173000D02*X268000Y174000D01*
X255000Y173000D02*X267000D01*
G54D24*G36*
X222500Y179000D02*Y171000D01*
X230500D01*
Y179000D01*
X222500D01*
G37*
G54D26*X226500Y195000D03*
G54D24*G36*
X222500Y219000D02*Y211000D01*
X230500D01*
Y219000D01*
X222500D01*
G37*
G54D26*X226500Y235000D03*
G54D27*X233000Y17000D03*
G54D24*G36*
X222500Y110000D02*Y102000D01*
X230500D01*
Y110000D01*
X222500D01*
G37*
G54D26*X226500Y126000D03*
Y146000D03*
G54D27*X233000Y303000D03*
G54D24*G36*
X69500Y191000D02*Y183000D01*
X77500D01*
Y191000D01*
X69500D01*
G37*
G54D26*X73500Y167000D03*
Y147000D03*
G54D24*G36*
X69500Y231000D02*Y223000D01*
X77500D01*
Y231000D01*
X69500D01*
G37*
G54D26*X73500Y207000D03*
G54D24*G36*
X69500Y115500D02*Y107500D01*
X77500D01*
Y115500D01*
X69500D01*
G37*
G54D26*X73500Y91500D03*
G54D24*G36*
X69500Y75500D02*Y67500D01*
X77500D01*
Y75500D01*
X69500D01*
G37*
G54D26*X73500Y51500D03*
G54D27*X67000Y17000D03*
Y303000D03*
G54D24*G36*
X69500Y278500D02*Y270500D01*
X77500D01*
Y278500D01*
X69500D01*
G37*
G54D26*X73500Y254500D03*
G54D28*X28000Y266000D03*
G54D29*Y290000D03*
X9000Y278000D03*
G54D30*X268000Y174000D03*
X255000Y173000D03*
G54D31*G54D32*G54D33*G54D32*G54D33*G54D32*G54D33*G54D32*G54D34*G54D35*M02*
