G04 start of page 6 for group -4063 idx -4063 *
G04 Title: (unknown), componentmask *
G04 Creator: pcb 4.0.2 *
G04 CreationDate: Mon Feb 22 18:09:41 2021 UTC *
G04 For: ndholmes *
G04 Format: Gerber/RS-274X *
G04 PCB-Dimensions (mil): 3500.00 3200.00 *
G04 PCB-Coordinate-Origin: lower left *
%MOIN*%
%FSLAX25Y25*%
%LNTOPMASK*%
%ADD46C,0.1700*%
%ADD45C,0.1950*%
%ADD44C,0.2997*%
%ADD43C,0.0860*%
%ADD42C,0.0001*%
G54D42*G36*
X222200Y179300D02*Y170700D01*
X230800D01*
Y179300D01*
X222200D01*
G37*
G54D43*X226500Y195000D03*
G54D42*G36*
X222200Y219300D02*Y210700D01*
X230800D01*
Y219300D01*
X222200D01*
G37*
G54D43*X226500Y235000D03*
G54D44*X233000Y17000D03*
G54D42*G36*
X222200Y110300D02*Y101700D01*
X230800D01*
Y110300D01*
X222200D01*
G37*
G54D43*X226500Y126000D03*
Y146000D03*
G54D44*X233000Y303000D03*
G54D42*G36*
X69200Y191300D02*Y182700D01*
X77800D01*
Y191300D01*
X69200D01*
G37*
G54D43*X73500Y167000D03*
Y147000D03*
G54D42*G36*
X69200Y231300D02*Y222700D01*
X77800D01*
Y231300D01*
X69200D01*
G37*
G54D43*X73500Y207000D03*
G54D42*G36*
X69200Y115800D02*Y107200D01*
X77800D01*
Y115800D01*
X69200D01*
G37*
G54D43*X73500Y91500D03*
G54D42*G36*
X69200Y75800D02*Y67200D01*
X77800D01*
Y75800D01*
X69200D01*
G37*
G54D43*X73500Y51500D03*
G54D44*X67000Y17000D03*
Y303000D03*
G54D42*G36*
X69200Y278800D02*Y270200D01*
X77800D01*
Y278800D01*
X69200D01*
G37*
G54D43*X73500Y254500D03*
G54D45*X28000Y266000D03*
G54D46*Y290000D03*
X9000Y278000D03*
G54D42*G36*
X32748Y90902D02*Y85184D01*
X39252D01*
Y90902D01*
X32748D01*
G37*
G36*
Y83816D02*Y78098D01*
X39252D01*
Y83816D01*
X32748D01*
G37*
G36*
X42248Y90902D02*Y85184D01*
X48752D01*
Y90902D01*
X42248D01*
G37*
G36*
Y83816D02*Y78098D01*
X48752D01*
Y83816D01*
X42248D01*
G37*
G36*
X32316Y63752D02*X26598D01*
Y57248D01*
X32316D01*
Y63752D01*
G37*
G36*
X39402D02*X33684D01*
Y57248D01*
X39402D01*
Y63752D01*
G37*
G36*
X32316Y43252D02*X26598D01*
Y36748D01*
X32316D01*
Y43252D01*
G37*
G36*
X39402D02*X33684D01*
Y36748D01*
X39402D01*
Y43252D01*
G37*
G36*
X16649Y96887D02*Y93925D01*
X23351D01*
Y96887D01*
X16649D01*
G37*
G36*
X901Y103186D02*Y97862D01*
X8587D01*
Y103186D01*
X901D01*
G37*
G36*
X16649Y92950D02*Y89988D01*
X23351D01*
Y92950D01*
X16649D01*
G37*
G36*
Y89012D02*Y86050D01*
X23351D01*
Y89012D01*
X16649D01*
G37*
G36*
Y85075D02*Y82113D01*
X23351D01*
Y85075D01*
X16649D01*
G37*
G36*
X901Y81138D02*Y75814D01*
X8587D01*
Y81138D01*
X901D01*
G37*
G36*
X308950Y162400D02*X302850D01*
Y153500D01*
X308950D01*
Y162400D01*
G37*
G36*
X291150D02*X285050D01*
Y153500D01*
X291150D01*
Y162400D01*
G37*
G36*
X299316Y191752D02*X293598D01*
Y185248D01*
X299316D01*
Y191752D01*
G37*
G36*
Y181252D02*X293598D01*
Y174748D01*
X299316D01*
Y181252D01*
G37*
G36*
X306402D02*X300684D01*
Y174748D01*
X306402D01*
Y181252D01*
G37*
G36*
X299316Y170752D02*X293598D01*
Y164248D01*
X299316D01*
Y170752D01*
G37*
G36*
X306402D02*X300684D01*
Y164248D01*
X306402D01*
Y170752D01*
G37*
G36*
X308950Y126500D02*X302850D01*
Y117600D01*
X308950D01*
Y126500D01*
G37*
G36*
X291150D02*X285050D01*
Y117600D01*
X291150D01*
Y126500D01*
G37*
G36*
X308950Y104900D02*X302850D01*
Y96000D01*
X308950D01*
Y104900D01*
G37*
G36*
Y69000D02*X302850D01*
Y60100D01*
X308950D01*
Y69000D01*
G37*
G36*
X291150Y104900D02*X285050D01*
Y96000D01*
X291150D01*
Y104900D01*
G37*
G36*
Y69000D02*X285050D01*
Y60100D01*
X291150D01*
Y69000D01*
G37*
G36*
X308950Y49900D02*X302850D01*
Y41000D01*
X308950D01*
Y49900D01*
G37*
G36*
Y14000D02*X302850D01*
Y5100D01*
X308950D01*
Y14000D01*
G37*
G36*
X291150Y49900D02*X285050D01*
Y41000D01*
X291150D01*
Y49900D01*
G37*
G36*
Y14000D02*X285050D01*
Y5100D01*
X291150D01*
Y14000D01*
G37*
G36*
X280500Y189800D02*X277500D01*
Y185200D01*
X280500D01*
Y189800D01*
G37*
G36*
X276600D02*X273600D01*
Y185200D01*
X276600D01*
Y189800D01*
G37*
G36*
X272700D02*X269700D01*
Y185200D01*
X272700D01*
Y189800D01*
G37*
G36*
Y181600D02*X269700D01*
Y177000D01*
X272700D01*
Y181600D01*
G37*
G36*
X276600D02*X273600D01*
Y177000D01*
X276600D01*
Y181600D01*
G37*
G36*
X280500D02*X277500D01*
Y177000D01*
X280500D01*
Y181600D01*
G37*
G36*
X277445Y170752D02*X271727D01*
Y164248D01*
X277445D01*
Y170752D01*
G37*
G36*
X270359D02*X264641D01*
Y164248D01*
X270359D01*
Y170752D01*
G37*
G36*
X264902Y182252D02*X259184D01*
Y175748D01*
X264902D01*
Y182252D01*
G37*
G36*
Y160752D02*X259184D01*
Y154248D01*
X264902D01*
Y160752D01*
G37*
G36*
X257816Y182252D02*X252098D01*
Y175748D01*
X257816D01*
Y182252D01*
G37*
G36*
Y160752D02*X252098D01*
Y154248D01*
X257816D01*
Y160752D01*
G37*
G36*
X277902Y208752D02*X272184D01*
Y202248D01*
X277902D01*
Y208752D01*
G37*
G36*
X270816D02*X265098D01*
Y202248D01*
X270816D01*
Y208752D01*
G37*
G36*
X306402Y191752D02*X300684D01*
Y185248D01*
X306402D01*
Y191752D01*
G37*
G36*
X299273Y223752D02*X293555D01*
Y217248D01*
X299273D01*
Y223752D01*
G37*
G36*
X306359D02*X300641D01*
Y217248D01*
X306359D01*
Y223752D01*
G37*
G36*
Y208752D02*X300641D01*
Y202248D01*
X306359D01*
Y208752D01*
G37*
G36*
X299273D02*X293555D01*
Y202248D01*
X299273D01*
Y208752D01*
G37*
G36*
X293816Y308752D02*X288098D01*
Y302248D01*
X293816D01*
Y308752D01*
G37*
G36*
X300902D02*X295184D01*
Y302248D01*
X300902D01*
Y308752D01*
G37*
G36*
X328816D02*X323098D01*
Y302248D01*
X328816D01*
Y308752D01*
G37*
G36*
X335902D02*X330184D01*
Y302248D01*
X335902D01*
Y308752D01*
G37*
G36*
X316902Y290752D02*X311184D01*
Y284248D01*
X316902D01*
Y290752D01*
G37*
G36*
X299316Y274252D02*X293598D01*
Y267748D01*
X299316D01*
Y274252D01*
G37*
G36*
X299273Y249252D02*X293555D01*
Y242748D01*
X299273D01*
Y249252D01*
G37*
G36*
X299316Y260252D02*X293598D01*
Y253748D01*
X299316D01*
Y260252D01*
G37*
G36*
X277902Y299752D02*X272184D01*
Y293248D01*
X277902D01*
Y299752D01*
G37*
G36*
X270816D02*X265098D01*
Y293248D01*
X270816D01*
Y299752D01*
G37*
G36*
X277902Y290252D02*X272184D01*
Y283748D01*
X277902D01*
Y290252D01*
G37*
G36*
X270816D02*X265098D01*
Y283748D01*
X270816D01*
Y290252D01*
G37*
G36*
X309816Y290752D02*X304098D01*
Y284248D01*
X309816D01*
Y290752D01*
G37*
G36*
X306402Y274252D02*X300684D01*
Y267748D01*
X306402D01*
Y274252D01*
G37*
G36*
X306359Y249252D02*X300641D01*
Y242748D01*
X306359D01*
Y249252D01*
G37*
G36*
X306402Y260252D02*X300684D01*
Y253748D01*
X306402D01*
Y260252D01*
G37*
G36*
X270816Y234752D02*X265098D01*
Y228248D01*
X270816D01*
Y234752D01*
G37*
G36*
X277902D02*X272184D01*
Y228248D01*
X277902D01*
Y234752D01*
G37*
G36*
Y279752D02*X272184D01*
Y273248D01*
X277902D01*
Y279752D01*
G37*
G36*
X270816D02*X265098D01*
Y273248D01*
X270816D01*
Y279752D01*
G37*
G36*
Y257252D02*X265098D01*
Y250748D01*
X270816D01*
Y257252D01*
G37*
G36*
X277902D02*X272184D01*
Y250748D01*
X277902D01*
Y257252D01*
G37*
G36*
Y267252D02*X272184D01*
Y260748D01*
X277902D01*
Y267252D01*
G37*
G36*
X270816D02*X265098D01*
Y260748D01*
X270816D01*
Y267252D01*
G37*
G36*
X299359Y234752D02*X293641D01*
Y228248D01*
X299359D01*
Y234752D01*
G37*
G36*
X306445D02*X300727D01*
Y228248D01*
X306445D01*
Y234752D01*
G37*
M02*
