G04 start of page 7 for group -4062 idx -4062 *
G04 Title: (unknown), soldermask *
G04 Creator: pcb 4.0.2 *
G04 CreationDate: Mon Feb 22 18:09:41 2021 UTC *
G04 For: ndholmes *
G04 Format: Gerber/RS-274X *
G04 PCB-Dimensions (mil): 3500.00 3200.00 *
G04 PCB-Coordinate-Origin: lower left *
%MOIN*%
%FSLAX25Y25*%
%LNBOTTOMMASK*%
%ADD51C,0.1700*%
%ADD50C,0.1950*%
%ADD49C,0.2997*%
%ADD48C,0.0860*%
%ADD47C,0.0001*%
G54D47*G36*
X222200Y179300D02*Y170700D01*
X230800D01*
Y179300D01*
X222200D01*
G37*
G54D48*X226500Y195000D03*
G54D47*G36*
X222200Y219300D02*Y210700D01*
X230800D01*
Y219300D01*
X222200D01*
G37*
G54D48*X226500Y235000D03*
G54D49*X233000Y17000D03*
G54D47*G36*
X222200Y110300D02*Y101700D01*
X230800D01*
Y110300D01*
X222200D01*
G37*
G54D48*X226500Y126000D03*
Y146000D03*
G54D49*X233000Y303000D03*
G54D47*G36*
X69200Y191300D02*Y182700D01*
X77800D01*
Y191300D01*
X69200D01*
G37*
G54D48*X73500Y167000D03*
Y147000D03*
G54D47*G36*
X69200Y231300D02*Y222700D01*
X77800D01*
Y231300D01*
X69200D01*
G37*
G54D48*X73500Y207000D03*
G54D47*G36*
X69200Y115800D02*Y107200D01*
X77800D01*
Y115800D01*
X69200D01*
G37*
G54D48*X73500Y91500D03*
G54D47*G36*
X69200Y75800D02*Y67200D01*
X77800D01*
Y75800D01*
X69200D01*
G37*
G54D48*X73500Y51500D03*
G54D49*X67000Y17000D03*
Y303000D03*
G54D47*G36*
X69200Y278800D02*Y270200D01*
X77800D01*
Y278800D01*
X69200D01*
G37*
G54D48*X73500Y254500D03*
G54D50*X28000Y266000D03*
G54D51*Y290000D03*
X9000Y278000D03*
M02*
