G04 start of page 2 for group 0 idx 0 *
G04 Title: (unknown), component *
G04 Creator: pcb 4.0.2 *
G04 CreationDate: Mon Feb 22 18:09:41 2021 UTC *
G04 For: ndholmes *
G04 Format: Gerber/RS-274X *
G04 PCB-Dimensions (mil): 3500.00 3200.00 *
G04 PCB-Coordinate-Origin: lower left *
%MOIN*%
%FSLAX25Y25*%
%LNTOP*%
%ADD23C,0.1100*%
%ADD22C,0.1250*%
%ADD21C,0.1285*%
%ADD20C,0.0420*%
%ADD19C,0.0120*%
%ADD18C,0.0260*%
%ADD17C,0.1500*%
%ADD16C,0.1750*%
%ADD15C,0.2937*%
%ADD14C,0.0800*%
%ADD13C,0.0900*%
%ADD12C,0.0250*%
%ADD11C,0.0001*%
G54D11*G36*
X1500Y110000D02*X8500D01*
Y69000D01*
X1500D01*
Y110000D01*
G37*
G54D12*X226500Y216000D02*Y205500D01*
X249500Y246000D02*X246000Y249500D01*
X243500Y245500D02*X202000D01*
X257500Y231500D02*X243500Y245500D01*
X204000Y242000D02*X241000D01*
X226500Y235000D02*Y212000D01*
X237500Y205500D02*X213000D01*
X233000D02*X267957D01*
X248500Y195500D02*Y163957D01*
X255000Y178957D02*X254957Y179000D01*
X255000Y173000D02*Y178957D01*
X226500Y106000D02*X267500D01*
X226500Y126000D02*X260000D01*
X246000Y146000D02*X226500D01*
Y195000D02*Y175000D01*
X267957Y231500D02*X257500D01*
X241000Y242000D02*X260750Y222250D01*
X258500Y224500D02*X262500Y220500D01*
X208500Y201000D02*Y163000D01*
X167000Y151500D02*X163750Y148250D01*
X171500Y141000D02*X168500Y138000D01*
X171500Y141000D02*X166500Y136000D01*
X167000Y233000D02*Y151500D01*
X171500Y231500D02*Y141000D01*
X177000Y232000D02*Y127500D01*
X182000Y231500D02*Y120500D01*
X187500Y231000D02*Y87000D01*
X182000Y120500D02*X173000Y111500D01*
X193500Y78500D02*Y231500D01*
X162500Y147000D02*X167000Y151500D01*
X177000Y127500D02*X172500Y123000D01*
X182000Y120500D02*X178500Y117000D01*
X187500Y87000D02*X185000Y84500D01*
X171000Y121500D02*X177000Y127500D01*
X187500Y87000D02*X181000Y80500D01*
X186500Y71500D02*X193500Y78500D01*
X247000Y266000D02*X194000D01*
X253500Y262000D02*X196000D01*
X257500Y258000D02*X198000D01*
X267957Y254000D02*X199000D01*
X189500Y274000D02*X232500D01*
X241500Y270000D02*X192000D01*
X246000Y249500D02*X200000D01*
X213000Y205500D02*X208500Y201000D01*
X158000Y214500D02*X151500Y208000D01*
X162500Y207000D02*X158500Y203000D01*
X152500Y237000D02*X189500Y274000D01*
X158000Y236000D02*Y214500D01*
X192000Y270000D02*X158000Y236000D01*
X162500Y234500D02*Y207000D01*
X194000Y266000D02*X162500Y234500D01*
X196000Y262000D02*X167000Y233000D01*
X198000Y258000D02*X171500Y231500D01*
X199000Y254000D02*X177000Y232000D01*
X200000Y249500D02*X182000Y231500D01*
X202000Y245500D02*X187500Y231000D01*
X193500Y231500D02*X204000Y242000D01*
X157000Y213500D02*X150000Y206500D01*
X162500Y207000D02*X151500Y196000D01*
X208500Y163000D02*X212000Y159500D01*
X248500Y151000D02*X272000D01*
X240000Y159500D02*X248500Y151000D01*
X212000Y159500D02*X240000D01*
X248500Y163957D02*X254957Y157500D01*
X243000Y146000D02*X288100D01*
X262043Y157500D02*Y165957D01*
X275000Y167914D02*X275043Y167957D01*
X275000Y154000D02*Y167914D01*
X272000Y151000D02*X275000Y154000D01*
X275100Y168014D02*X274586Y167500D01*
X275100Y179300D02*Y168014D01*
X274629Y167543D02*X274586Y167500D01*
X262043Y165957D02*X255000Y173000D01*
X262043Y172957D02*X267500Y167500D01*
X296457Y167543D02*X274629D01*
X303543Y167500D02*X319000D01*
X296457D02*Y178000D01*
X271200Y177200D02*X268000Y174000D01*
X271200Y179300D02*Y177200D01*
X265500Y187500D02*X271200D01*
X262043Y184043D02*X265500Y187500D01*
X262043Y178000D02*Y184043D01*
Y179000D02*Y172957D01*
X275100Y195400D02*X275000Y195500D01*
X275100Y187500D02*Y195400D01*
X291457Y183500D02*X296457Y188500D01*
X279000Y183500D02*X291457D01*
X279000Y187500D02*Y179300D01*
X226500Y195500D02*X304500D01*
X271000Y106000D02*X263500D01*
X269000Y126000D02*X250500D01*
X288100Y106900D02*X269000Y126000D01*
X279000Y98000D02*X271000Y106000D01*
X279000Y49000D02*Y98000D01*
X288100Y101500D02*Y106900D01*
Y157950D02*Y122050D01*
Y100450D02*Y64550D01*
X282900Y45100D02*X279000Y49000D01*
X288100Y45100D02*X282900D01*
X288100Y45450D02*Y9550D01*
X305900Y157950D02*Y9550D01*
X314000Y157500D02*X305900D01*
X319000Y162500D02*X314000Y157500D01*
X319000Y192000D02*Y162500D01*
X303543Y188500D02*Y178000D01*
X315500Y195500D02*X319000Y192000D01*
X315500Y195500D02*X303500D01*
Y205500D02*Y195500D01*
X298043Y313457D02*X298000Y313500D01*
X298043Y305500D02*Y313457D01*
X293500Y287000D02*X298750Y292250D01*
X275043Y287000D02*X293500D01*
X287000Y296500D02*X275043D01*
X290957Y300457D02*X287000Y296500D01*
X290957Y305500D02*Y300457D01*
X272000Y313500D02*X312500D01*
X330500D02*X299500D01*
X333043Y310957D02*X330500Y313500D01*
X304500Y279500D02*X306000Y281000D01*
X288000Y279500D02*X304500D01*
X307000Y282000D01*
X310000Y271000D02*X303543D01*
X314043Y275043D02*X310000Y271000D01*
X314043Y287500D02*Y275043D01*
X301500Y295000D02*X294500Y288000D01*
X307000Y287457D02*X306957Y287500D01*
X307000Y282000D02*Y287457D01*
X314543Y287500D02*X314043Y287000D01*
X329500Y287500D02*X314543D01*
X333043Y291043D02*X329500Y287500D01*
X322500Y295000D02*X301500D01*
X325957Y298457D02*X322500Y295000D01*
X325957Y305500D02*Y298457D01*
X333043Y305543D02*Y291043D01*
Y305500D02*Y310957D01*
X232500Y274000D02*X272000Y313500D01*
X267957Y296457D02*X241500Y270000D01*
X267957Y296500D02*Y296457D01*
Y286957D02*X247000Y266000D01*
X267957Y287000D02*Y286957D01*
Y276457D02*X253500Y262000D01*
X267957Y276500D02*Y276457D01*
X263500Y264000D02*X257500Y258000D01*
X267957Y264000D02*X263500D01*
X285000Y276500D02*X288000Y279500D01*
X275043Y276500D02*X285000D01*
X284000Y264000D02*X275043D01*
X291000Y271000D02*X284000Y264000D01*
X296457Y271000D02*X291000D01*
X284500Y257000D02*X296457D01*
X296000Y261000D02*X297500Y262500D01*
X296000Y257000D02*Y261000D01*
X275043Y254000D02*X281500D01*
X282500Y246000D02*X249500D01*
X296500D02*X277500D01*
X307500D02*X303500D01*
X308500Y247000D02*X307500Y246000D01*
X296500Y251000D02*Y246086D01*
X297500Y262500D02*X307500D01*
X297000Y251500D02*X296500Y251000D01*
X302500Y251500D02*X297000D01*
X303586Y252586D02*X302500Y251500D01*
X303586Y257000D02*Y252586D01*
X281500Y254000D02*X284500Y257000D01*
X262500Y220500D02*X296500D01*
X296000Y231500D02*Y235500D01*
X296500Y220586D02*X296414Y220500D01*
X296500Y225500D02*Y220586D01*
X275000Y231500D02*X296500D01*
X295914Y205500D02*X275043D01*
X308500Y261500D02*Y247000D01*
X307500Y262500D02*X308500Y261500D01*
X297500Y237000D02*X307500D01*
X296000Y235500D02*X297500Y237000D01*
X297000Y226000D02*X296500Y225500D01*
X302500Y226000D02*X297000D01*
X303586Y227086D02*X302500Y226000D01*
X307500Y220500D02*X303500D01*
X308500Y221500D02*X307500Y220500D01*
X308500Y236000D02*Y221500D01*
X307500Y237000D02*X308500Y236000D01*
X303586Y231500D02*Y227086D01*
X62000Y237000D02*X152500D01*
X150000Y206500D02*X74000D01*
X65500Y227000D02*X73500D01*
X62000Y223500D02*X65500Y227000D01*
X56000Y231000D02*X62000Y237000D01*
X56000Y193000D02*Y231000D01*
X62000Y187000D02*X56000Y193000D01*
X73500Y187000D02*X62000D01*
X74000Y206500D02*X73500Y207000D01*
X62000Y200500D02*Y223500D01*
X66500Y196000D02*X62000Y200500D01*
X151500Y196000D02*X66500D01*
G54D13*X73500Y274500D02*X59000D01*
X50000Y265500D01*
X28000D01*
G54D12*X73500Y147000D02*X162500D01*
X166500Y136000D02*X66000D01*
X63500Y121500D02*X171000D01*
X66000Y167000D02*X73500D01*
X61000Y162000D02*X66000Y167000D01*
X61000Y141000D02*Y162000D01*
X66000Y136000D02*X61000Y141000D01*
X181000Y80500D02*X65000D01*
X73500Y71500D02*X186500D01*
X173000Y111500D02*X73500D01*
X20000Y87531D02*X24969D01*
X27500Y85000D02*Y79000D01*
X29000Y77500D01*
X20000Y95406D02*X12406D01*
X11500Y94500D01*
X73500Y91500D02*X64000D01*
X20500D02*X27000D01*
X30500Y88000D01*
X46000D01*
X24969Y87531D02*X27500Y85000D01*
X59500Y117500D02*X63500Y121500D01*
X59500Y96000D02*Y117500D01*
X64000Y91500D02*X59500Y96000D01*
Y75000D02*Y55500D01*
X65000Y80500D02*X59500Y75000D01*
X63500Y51500D02*X73500D01*
X59500Y55500D02*X63500Y51500D01*
X45500Y80957D02*Y43500D01*
X42000Y40000D01*
X36543D01*
X36000Y80957D02*Y61043D01*
X36543Y60500D01*
X29000Y77500D02*Y60957D01*
X29457Y60500D01*
X17000Y40000D02*X29457D01*
X11500Y94500D02*Y45500D01*
X17000Y40000D01*
G54D11*G36*
X222500Y179000D02*Y171000D01*
X230500D01*
Y179000D01*
X222500D01*
G37*
G54D14*X226500Y195000D03*
G54D11*G36*
X222500Y219000D02*Y211000D01*
X230500D01*
Y219000D01*
X222500D01*
G37*
G54D14*X226500Y235000D03*
G54D15*X233000Y17000D03*
G54D11*G36*
X222500Y110000D02*Y102000D01*
X230500D01*
Y110000D01*
X222500D01*
G37*
G54D14*X226500Y126000D03*
Y146000D03*
G54D15*X233000Y303000D03*
G54D11*G36*
X69500Y191000D02*Y183000D01*
X77500D01*
Y191000D01*
X69500D01*
G37*
G54D14*X73500Y167000D03*
Y147000D03*
G54D11*G36*
X69500Y231000D02*Y223000D01*
X77500D01*
Y231000D01*
X69500D01*
G37*
G54D14*X73500Y207000D03*
G54D11*G36*
X69500Y115500D02*Y107500D01*
X77500D01*
Y115500D01*
X69500D01*
G37*
G54D14*X73500Y91500D03*
G54D11*G36*
X69500Y75500D02*Y67500D01*
X77500D01*
Y75500D01*
X69500D01*
G37*
G54D14*X73500Y51500D03*
G54D15*X67000Y17000D03*
Y303000D03*
G54D11*G36*
X69500Y278500D02*Y270500D01*
X77500D01*
Y278500D01*
X69500D01*
G37*
G54D14*X73500Y254500D03*
G54D16*X28000Y266000D03*
G54D17*Y290000D03*
X9000Y278000D03*
G54D11*G36*
X33048Y90602D02*Y85484D01*
X38952D01*
Y90602D01*
X33048D01*
G37*
G36*
Y83516D02*Y78398D01*
X38952D01*
Y83516D01*
X33048D01*
G37*
G36*
X42548Y90602D02*Y85484D01*
X48452D01*
Y90602D01*
X42548D01*
G37*
G36*
Y83516D02*Y78398D01*
X48452D01*
Y83516D01*
X42548D01*
G37*
G36*
X32016Y63452D02*X26898D01*
Y57548D01*
X32016D01*
Y63452D01*
G37*
G36*
X39102D02*X33984D01*
Y57548D01*
X39102D01*
Y63452D01*
G37*
G36*
X32016Y42952D02*X26898D01*
Y37048D01*
X32016D01*
Y42952D01*
G37*
G36*
X39102D02*X33984D01*
Y37048D01*
X39102D01*
Y42952D01*
G37*
G36*
X16949Y96587D02*Y94225D01*
X23051D01*
Y96587D01*
X16949D01*
G37*
G36*
X1201Y102886D02*Y98162D01*
X8287D01*
Y102886D01*
X1201D01*
G37*
G36*
X16949Y92650D02*Y90288D01*
X23051D01*
Y92650D01*
X16949D01*
G37*
G36*
Y88712D02*Y86350D01*
X23051D01*
Y88712D01*
X16949D01*
G37*
G36*
Y84775D02*Y82413D01*
X23051D01*
Y84775D01*
X16949D01*
G37*
G36*
X1201Y80838D02*Y76114D01*
X8287D01*
Y80838D01*
X1201D01*
G37*
G36*
X308650Y162100D02*X303150D01*
Y153800D01*
X308650D01*
Y162100D01*
G37*
G36*
X290850D02*X285350D01*
Y153800D01*
X290850D01*
Y162100D01*
G37*
G36*
X299016Y191452D02*X293898D01*
Y185548D01*
X299016D01*
Y191452D01*
G37*
G36*
Y180952D02*X293898D01*
Y175048D01*
X299016D01*
Y180952D01*
G37*
G36*
X306102D02*X300984D01*
Y175048D01*
X306102D01*
Y180952D01*
G37*
G36*
X299016Y170452D02*X293898D01*
Y164548D01*
X299016D01*
Y170452D01*
G37*
G36*
X306102D02*X300984D01*
Y164548D01*
X306102D01*
Y170452D01*
G37*
G36*
X308650Y126200D02*X303150D01*
Y117900D01*
X308650D01*
Y126200D01*
G37*
G36*
X290850D02*X285350D01*
Y117900D01*
X290850D01*
Y126200D01*
G37*
G36*
X308650Y104600D02*X303150D01*
Y96300D01*
X308650D01*
Y104600D01*
G37*
G36*
Y68700D02*X303150D01*
Y60400D01*
X308650D01*
Y68700D01*
G37*
G36*
X290850Y104600D02*X285350D01*
Y96300D01*
X290850D01*
Y104600D01*
G37*
G36*
Y68700D02*X285350D01*
Y60400D01*
X290850D01*
Y68700D01*
G37*
G36*
X308650Y49600D02*X303150D01*
Y41300D01*
X308650D01*
Y49600D01*
G37*
G36*
Y13700D02*X303150D01*
Y5400D01*
X308650D01*
Y13700D01*
G37*
G36*
X290850Y49600D02*X285350D01*
Y41300D01*
X290850D01*
Y49600D01*
G37*
G36*
Y13700D02*X285350D01*
Y5400D01*
X290850D01*
Y13700D01*
G37*
G36*
X280200Y189500D02*X277800D01*
Y185500D01*
X280200D01*
Y189500D01*
G37*
G36*
X276300D02*X273900D01*
Y185500D01*
X276300D01*
Y189500D01*
G37*
G36*
X272400D02*X270000D01*
Y185500D01*
X272400D01*
Y189500D01*
G37*
G36*
Y181300D02*X270000D01*
Y177300D01*
X272400D01*
Y181300D01*
G37*
G36*
X276300D02*X273900D01*
Y177300D01*
X276300D01*
Y181300D01*
G37*
G36*
X280200D02*X277800D01*
Y177300D01*
X280200D01*
Y181300D01*
G37*
G36*
X277145Y170452D02*X272027D01*
Y164548D01*
X277145D01*
Y170452D01*
G37*
G36*
X270059D02*X264941D01*
Y164548D01*
X270059D01*
Y170452D01*
G37*
G36*
X264602Y181952D02*X259484D01*
Y176048D01*
X264602D01*
Y181952D01*
G37*
G36*
Y160452D02*X259484D01*
Y154548D01*
X264602D01*
Y160452D01*
G37*
G36*
X257516Y181952D02*X252398D01*
Y176048D01*
X257516D01*
Y181952D01*
G37*
G36*
Y160452D02*X252398D01*
Y154548D01*
X257516D01*
Y160452D01*
G37*
G36*
X277602Y208452D02*X272484D01*
Y202548D01*
X277602D01*
Y208452D01*
G37*
G36*
X270516D02*X265398D01*
Y202548D01*
X270516D01*
Y208452D01*
G37*
G36*
X306102Y191452D02*X300984D01*
Y185548D01*
X306102D01*
Y191452D01*
G37*
G36*
X298973Y223452D02*X293855D01*
Y217548D01*
X298973D01*
Y223452D01*
G37*
G36*
X306059D02*X300941D01*
Y217548D01*
X306059D01*
Y223452D01*
G37*
G36*
Y208452D02*X300941D01*
Y202548D01*
X306059D01*
Y208452D01*
G37*
G36*
X298973D02*X293855D01*
Y202548D01*
X298973D01*
Y208452D01*
G37*
G36*
X293516Y308452D02*X288398D01*
Y302548D01*
X293516D01*
Y308452D01*
G37*
G36*
X300602D02*X295484D01*
Y302548D01*
X300602D01*
Y308452D01*
G37*
G36*
X328516D02*X323398D01*
Y302548D01*
X328516D01*
Y308452D01*
G37*
G36*
X335602D02*X330484D01*
Y302548D01*
X335602D01*
Y308452D01*
G37*
G36*
X316602Y290452D02*X311484D01*
Y284548D01*
X316602D01*
Y290452D01*
G37*
G36*
X299016Y273952D02*X293898D01*
Y268048D01*
X299016D01*
Y273952D01*
G37*
G36*
X298973Y248952D02*X293855D01*
Y243048D01*
X298973D01*
Y248952D01*
G37*
G36*
X299016Y259952D02*X293898D01*
Y254048D01*
X299016D01*
Y259952D01*
G37*
G36*
X277602Y299452D02*X272484D01*
Y293548D01*
X277602D01*
Y299452D01*
G37*
G36*
X270516D02*X265398D01*
Y293548D01*
X270516D01*
Y299452D01*
G37*
G36*
X277602Y289952D02*X272484D01*
Y284048D01*
X277602D01*
Y289952D01*
G37*
G36*
X270516D02*X265398D01*
Y284048D01*
X270516D01*
Y289952D01*
G37*
G36*
X309516Y290452D02*X304398D01*
Y284548D01*
X309516D01*
Y290452D01*
G37*
G36*
X306102Y273952D02*X300984D01*
Y268048D01*
X306102D01*
Y273952D01*
G37*
G36*
X306059Y248952D02*X300941D01*
Y243048D01*
X306059D01*
Y248952D01*
G37*
G36*
X306102Y259952D02*X300984D01*
Y254048D01*
X306102D01*
Y259952D01*
G37*
G36*
X270516Y234452D02*X265398D01*
Y228548D01*
X270516D01*
Y234452D01*
G37*
G36*
X277602D02*X272484D01*
Y228548D01*
X277602D01*
Y234452D01*
G37*
G36*
Y279452D02*X272484D01*
Y273548D01*
X277602D01*
Y279452D01*
G37*
G36*
X270516D02*X265398D01*
Y273548D01*
X270516D01*
Y279452D01*
G37*
G36*
Y256952D02*X265398D01*
Y251048D01*
X270516D01*
Y256952D01*
G37*
G36*
X277602D02*X272484D01*
Y251048D01*
X277602D01*
Y256952D01*
G37*
G36*
Y266952D02*X272484D01*
Y261048D01*
X277602D01*
Y266952D01*
G37*
G36*
X270516D02*X265398D01*
Y261048D01*
X270516D01*
Y266952D01*
G37*
G36*
X299059Y234452D02*X293941D01*
Y228548D01*
X299059D01*
Y234452D01*
G37*
G36*
X306145D02*X301027D01*
Y228548D01*
X306145D01*
Y234452D01*
G37*
G54D18*X268000Y174000D03*
X255000Y173000D03*
G54D19*G54D20*G54D21*G54D20*G54D21*G54D20*G54D21*G54D20*G54D22*G54D23*M02*
