G04 start of page 10 for group -4015 idx -4015 *
G04 Title: (unknown), toppaste *
G04 Creator: pcb 4.0.2 *
G04 CreationDate: Mon Feb 22 18:09:41 2021 UTC *
G04 For: ndholmes *
G04 Format: Gerber/RS-274X *
G04 PCB-Dimensions (mil): 3500.00 3200.00 *
G04 PCB-Coordinate-Origin: lower left *
%MOIN*%
%FSLAX25Y25*%
%LNTOPPASTE*%
%ADD56C,0.0001*%
G54D56*G36*
X308650Y162100D02*X303150D01*
Y153800D01*
X308650D01*
Y162100D01*
G37*
G36*
Y126200D02*X303150D01*
Y117900D01*
X308650D01*
Y126200D01*
G37*
G36*
X290850Y162100D02*X285350D01*
Y153800D01*
X290850D01*
Y162100D01*
G37*
G36*
Y126200D02*X285350D01*
Y117900D01*
X290850D01*
Y126200D01*
G37*
G36*
X308650Y104600D02*X303150D01*
Y96300D01*
X308650D01*
Y104600D01*
G37*
G36*
Y68700D02*X303150D01*
Y60400D01*
X308650D01*
Y68700D01*
G37*
G36*
X290850Y104600D02*X285350D01*
Y96300D01*
X290850D01*
Y104600D01*
G37*
G36*
Y68700D02*X285350D01*
Y60400D01*
X290850D01*
Y68700D01*
G37*
G36*
X308650Y49600D02*X303150D01*
Y41300D01*
X308650D01*
Y49600D01*
G37*
G36*
Y13700D02*X303150D01*
Y5400D01*
X308650D01*
Y13700D01*
G37*
G36*
X290850Y49600D02*X285350D01*
Y41300D01*
X290850D01*
Y49600D01*
G37*
G36*
Y13700D02*X285350D01*
Y5400D01*
X290850D01*
Y13700D01*
G37*
G36*
X280200Y189500D02*X277800D01*
Y185500D01*
X280200D01*
Y189500D01*
G37*
G36*
X276300D02*X273900D01*
Y185500D01*
X276300D01*
Y189500D01*
G37*
G36*
X272400D02*X270000D01*
Y185500D01*
X272400D01*
Y189500D01*
G37*
G36*
Y181300D02*X270000D01*
Y177300D01*
X272400D01*
Y181300D01*
G37*
G36*
X276300D02*X273900D01*
Y177300D01*
X276300D01*
Y181300D01*
G37*
G36*
X280200D02*X277800D01*
Y177300D01*
X280200D01*
Y181300D01*
G37*
G36*
X277145Y170452D02*X272027D01*
Y164548D01*
X277145D01*
Y170452D01*
G37*
G36*
X270059D02*X264941D01*
Y164548D01*
X270059D01*
Y170452D01*
G37*
G36*
X264602Y181952D02*X259484D01*
Y176048D01*
X264602D01*
Y181952D01*
G37*
G36*
X257516D02*X252398D01*
Y176048D01*
X257516D01*
Y181952D01*
G37*
G36*
X264602Y160452D02*X259484D01*
Y154548D01*
X264602D01*
Y160452D01*
G37*
G36*
X257516D02*X252398D01*
Y154548D01*
X257516D01*
Y160452D01*
G37*
G36*
X299016Y191452D02*X293898D01*
Y185548D01*
X299016D01*
Y191452D01*
G37*
G36*
X306102D02*X300984D01*
Y185548D01*
X306102D01*
Y191452D01*
G37*
G36*
X299016Y180952D02*X293898D01*
Y175048D01*
X299016D01*
Y180952D01*
G37*
G36*
X306102D02*X300984D01*
Y175048D01*
X306102D01*
Y180952D01*
G37*
G36*
X299016Y170452D02*X293898D01*
Y164548D01*
X299016D01*
Y170452D01*
G37*
G36*
X306102D02*X300984D01*
Y164548D01*
X306102D01*
Y170452D01*
G37*
G36*
X328516Y308452D02*X323398D01*
Y302548D01*
X328516D01*
Y308452D01*
G37*
G36*
X335602D02*X330484D01*
Y302548D01*
X335602D01*
Y308452D01*
G37*
G36*
X309516Y290452D02*X304398D01*
Y284548D01*
X309516D01*
Y290452D01*
G37*
G36*
X316602D02*X311484D01*
Y284548D01*
X316602D01*
Y290452D01*
G37*
G36*
X293516Y308452D02*X288398D01*
Y302548D01*
X293516D01*
Y308452D01*
G37*
G36*
X300602D02*X295484D01*
Y302548D01*
X300602D01*
Y308452D01*
G37*
G36*
X299016Y273952D02*X293898D01*
Y268048D01*
X299016D01*
Y273952D01*
G37*
G36*
X306102D02*X300984D01*
Y268048D01*
X306102D01*
Y273952D01*
G37*
G36*
X277602Y299452D02*X272484D01*
Y293548D01*
X277602D01*
Y299452D01*
G37*
G36*
X270516D02*X265398D01*
Y293548D01*
X270516D01*
Y299452D01*
G37*
G36*
X277602Y289952D02*X272484D01*
Y284048D01*
X277602D01*
Y289952D01*
G37*
G36*
X270516D02*X265398D01*
Y284048D01*
X270516D01*
Y289952D01*
G37*
G36*
X277602Y279452D02*X272484D01*
Y273548D01*
X277602D01*
Y279452D01*
G37*
G36*
X270516D02*X265398D01*
Y273548D01*
X270516D01*
Y279452D01*
G37*
G36*
X298973Y223452D02*X293855D01*
Y217548D01*
X298973D01*
Y223452D01*
G37*
G36*
X306059D02*X300941D01*
Y217548D01*
X306059D01*
Y223452D01*
G37*
G36*
X298973Y248952D02*X293855D01*
Y243048D01*
X298973D01*
Y248952D01*
G37*
G36*
X306059D02*X300941D01*
Y243048D01*
X306059D01*
Y248952D01*
G37*
G36*
X299016Y259952D02*X293898D01*
Y254048D01*
X299016D01*
Y259952D01*
G37*
G36*
X306102D02*X300984D01*
Y254048D01*
X306102D01*
Y259952D01*
G37*
G36*
X270516Y234452D02*X265398D01*
Y228548D01*
X270516D01*
Y234452D01*
G37*
G36*
X277602D02*X272484D01*
Y228548D01*
X277602D01*
Y234452D01*
G37*
G36*
X270516Y256952D02*X265398D01*
Y251048D01*
X270516D01*
Y256952D01*
G37*
G36*
X277602D02*X272484D01*
Y251048D01*
X277602D01*
Y256952D01*
G37*
G36*
X306059Y208452D02*X300941D01*
Y202548D01*
X306059D01*
Y208452D01*
G37*
G36*
X298973D02*X293855D01*
Y202548D01*
X298973D01*
Y208452D01*
G37*
G36*
X277602D02*X272484D01*
Y202548D01*
X277602D01*
Y208452D01*
G37*
G36*
X270516D02*X265398D01*
Y202548D01*
X270516D01*
Y208452D01*
G37*
G36*
X299059Y234452D02*X293941D01*
Y228548D01*
X299059D01*
Y234452D01*
G37*
G36*
X306145D02*X301027D01*
Y228548D01*
X306145D01*
Y234452D01*
G37*
G36*
X277602Y266952D02*X272484D01*
Y261048D01*
X277602D01*
Y266952D01*
G37*
G36*
X270516D02*X265398D01*
Y261048D01*
X270516D01*
Y266952D01*
G37*
G36*
X33048Y90602D02*Y85484D01*
X38952D01*
Y90602D01*
X33048D01*
G37*
G36*
Y83516D02*Y78398D01*
X38952D01*
Y83516D01*
X33048D01*
G37*
G36*
X32016Y63452D02*X26898D01*
Y57548D01*
X32016D01*
Y63452D01*
G37*
G36*
X39102D02*X33984D01*
Y57548D01*
X39102D01*
Y63452D01*
G37*
G36*
X42548Y90602D02*Y85484D01*
X48452D01*
Y90602D01*
X42548D01*
G37*
G36*
Y83516D02*Y78398D01*
X48452D01*
Y83516D01*
X42548D01*
G37*
G36*
X32016Y42952D02*X26898D01*
Y37048D01*
X32016D01*
Y42952D01*
G37*
G36*
X39102D02*X33984D01*
Y37048D01*
X39102D01*
Y42952D01*
G37*
G36*
X16949Y96587D02*Y94225D01*
X23051D01*
Y96587D01*
X16949D01*
G37*
G36*
Y92650D02*Y90288D01*
X23051D01*
Y92650D01*
X16949D01*
G37*
G36*
Y88712D02*Y86350D01*
X23051D01*
Y88712D01*
X16949D01*
G37*
G36*
Y84775D02*Y82413D01*
X23051D01*
Y84775D01*
X16949D01*
G37*
G36*
X1201Y102886D02*Y98162D01*
X8287D01*
Y102886D01*
X1201D01*
G37*
G36*
Y80838D02*Y76114D01*
X8287D01*
Y80838D01*
X1201D01*
G37*
M02*
