G04 start of page 12 for group -3984 idx -3984 *
G04 Title: (unknown), fab *
G04 Creator: pcb 4.0.2 *
G04 CreationDate: Mon Feb 22 18:09:41 2021 UTC *
G04 For: ndholmes *
G04 Format: Gerber/RS-274X *
G04 PCB-Dimensions (mil): 3500.00 3200.00 *
G04 PCB-Coordinate-Origin: lower left *
%MOIN*%
%FSLAX25Y25*%
%LNFAB*%
%ADD59C,0.0100*%
%ADD58C,0.0060*%
%ADD57R,0.0080X0.0080*%
G54D57*X231400Y18600D02*X234600D01*
X231400D02*Y15400D01*
X234600D01*
Y18600D02*Y15400D01*
X231400Y304600D02*X234600D01*
X231400D02*Y301400D01*
X234600D01*
Y304600D02*Y301400D01*
X65400Y304600D02*X68600D01*
X65400D02*Y301400D01*
X68600D01*
Y304600D02*Y301400D01*
X65400Y18600D02*X68600D01*
X65400D02*Y15400D01*
X68600D01*
Y18600D02*Y15400D01*
X13400Y332850D02*X16600D01*
X13400D02*Y329650D01*
X16600D01*
Y332850D02*Y329650D01*
G54D58*X135000Y333500D02*Y332750D01*
X136500Y331250D01*
X138000Y332750D01*
Y333500D02*Y332750D01*
X136500Y331250D02*Y327500D01*
X139800Y330500D02*X142050D01*
X139800Y327500D02*X142800D01*
X139800Y333500D02*Y327500D01*
Y333500D02*X142800D01*
X147600D02*X148350Y332750D01*
X145350Y333500D02*X147600D01*
X144600Y332750D02*X145350Y333500D01*
X144600Y332750D02*Y331250D01*
X145350Y330500D01*
X147600D01*
X148350Y329750D01*
Y328250D01*
X147600Y327500D02*X148350Y328250D01*
X145350Y327500D02*X147600D01*
X144600Y328250D02*X145350Y327500D01*
X98000Y330500D02*X101000Y333500D01*
X98000Y330500D02*X101750D01*
X101000Y333500D02*Y327500D01*
X45000Y328250D02*X45750Y327500D01*
X45000Y332750D02*Y328250D01*
Y332750D02*X45750Y333500D01*
X47250D01*
X48000Y332750D01*
Y328250D01*
X47250Y327500D02*X48000Y328250D01*
X45750Y327500D02*X47250D01*
X45000Y329000D02*X48000Y332000D01*
X49800Y327500D02*X50550D01*
X53100D02*X54600D01*
X53850Y333500D02*Y327500D01*
X52350Y332000D02*X53850Y333500D01*
X56400Y332750D02*X57150Y333500D01*
X59400D01*
X60150Y332750D01*
Y331250D01*
X56400Y327500D02*X60150Y331250D01*
X56400Y327500D02*X60150D01*
X61950D02*X64950Y330500D01*
Y332750D02*Y330500D01*
X64200Y333500D02*X64950Y332750D01*
X62700Y333500D02*X64200D01*
X61950Y332750D02*X62700Y333500D01*
X61950Y332750D02*Y331250D01*
X62700Y330500D01*
X64950D01*
X27200Y266000D02*G75*G03X28800Y266000I800J0D01*G01*
G75*G03X27200Y266000I-800J0D01*G01*
X14200Y346250D02*G75*G03X15800Y346250I800J0D01*G01*
G75*G03X14200Y346250I-800J0D01*G01*
X135000Y348500D02*Y347750D01*
X136500Y346250D01*
X138000Y347750D01*
Y348500D02*Y347750D01*
X136500Y346250D02*Y342500D01*
X139800Y345500D02*X142050D01*
X139800Y342500D02*X142800D01*
X139800Y348500D02*Y342500D01*
Y348500D02*X142800D01*
X147600D02*X148350Y347750D01*
X145350Y348500D02*X147600D01*
X144600Y347750D02*X145350Y348500D01*
X144600Y347750D02*Y346250D01*
X145350Y345500D01*
X147600D01*
X148350Y344750D01*
Y343250D01*
X147600Y342500D02*X148350Y343250D01*
X145350Y342500D02*X147600D01*
X144600Y343250D02*X145350Y342500D01*
X98750D02*X100250D01*
X99500Y348500D02*Y342500D01*
X98000Y347000D02*X99500Y348500D01*
X45000Y343250D02*X45750Y342500D01*
X45000Y347750D02*Y343250D01*
Y347750D02*X45750Y348500D01*
X47250D01*
X48000Y347750D01*
Y343250D01*
X47250Y342500D02*X48000Y343250D01*
X45750Y342500D02*X47250D01*
X45000Y344000D02*X48000Y347000D01*
X49800Y342500D02*X50550D01*
X53100D02*X54600D01*
X53850Y348500D02*Y342500D01*
X52350Y347000D02*X53850Y348500D01*
X56400Y347750D02*X57150Y348500D01*
X59400D01*
X60150Y347750D01*
Y346250D01*
X56400Y342500D02*X60150Y346250D01*
X56400Y342500D02*X60150D01*
X61950Y348500D02*X64950D01*
X61950D02*Y345500D01*
X62700Y346250D01*
X64200D01*
X64950Y345500D01*
Y343250D01*
X64200Y342500D02*X64950Y343250D01*
X62700Y342500D02*X64200D01*
X61950Y343250D02*X62700Y342500D01*
X26800Y291200D02*X29200Y288800D01*
X26800D02*X29200Y291200D01*
X7800Y279200D02*X10200Y276800D01*
X7800D02*X10200Y279200D01*
X13800Y362450D02*X16200Y360050D01*
X13800D02*X16200Y362450D01*
X135000Y363500D02*Y362750D01*
X136500Y361250D01*
X138000Y362750D01*
Y363500D02*Y362750D01*
X136500Y361250D02*Y357500D01*
X139800Y360500D02*X142050D01*
X139800Y357500D02*X142800D01*
X139800Y363500D02*Y357500D01*
Y363500D02*X142800D01*
X147600D02*X148350Y362750D01*
X145350Y363500D02*X147600D01*
X144600Y362750D02*X145350Y363500D01*
X144600Y362750D02*Y361250D01*
X145350Y360500D01*
X147600D01*
X148350Y359750D01*
Y358250D01*
X147600Y357500D02*X148350Y358250D01*
X145350Y357500D02*X147600D01*
X144600Y358250D02*X145350Y357500D01*
X98000Y362750D02*X98750Y363500D01*
X101000D01*
X101750Y362750D01*
Y361250D01*
X98000Y357500D02*X101750Y361250D01*
X98000Y357500D02*X101750D01*
X45000Y358250D02*X45750Y357500D01*
X45000Y362750D02*Y358250D01*
Y362750D02*X45750Y363500D01*
X47250D01*
X48000Y362750D01*
Y358250D01*
X47250Y357500D02*X48000Y358250D01*
X45750Y357500D02*X47250D01*
X45000Y359000D02*X48000Y362000D01*
X49800Y357500D02*X50550D01*
X53100D02*X54600D01*
X53850Y363500D02*Y357500D01*
X52350Y362000D02*X53850Y363500D01*
X57150Y357500D02*X58650D01*
X57900Y363500D02*Y357500D01*
X56400Y362000D02*X57900Y363500D01*
X60450Y358250D02*X61200Y357500D01*
X60450Y362750D02*Y358250D01*
Y362750D02*X61200Y363500D01*
X62700D01*
X63450Y362750D01*
Y358250D01*
X62700Y357500D02*X63450Y358250D01*
X61200Y357500D02*X62700D01*
X60450Y359000D02*X63450Y362000D01*
X226500Y176600D02*Y173400D01*
X224900Y175000D02*X228100D01*
X226500Y196600D02*Y193400D01*
X224900Y195000D02*X228100D01*
X226500Y216600D02*Y213400D01*
X224900Y215000D02*X228100D01*
X226500Y236600D02*Y233400D01*
X224900Y235000D02*X228100D01*
X73500Y188600D02*Y185400D01*
X71900Y187000D02*X75100D01*
X73500Y168600D02*Y165400D01*
X71900Y167000D02*X75100D01*
X73500Y148600D02*Y145400D01*
X71900Y147000D02*X75100D01*
X73500Y113100D02*Y109900D01*
X71900Y111500D02*X75100D01*
X73500Y93100D02*Y89900D01*
X71900Y91500D02*X75100D01*
X73500Y73100D02*Y69900D01*
X71900Y71500D02*X75100D01*
X73500Y53100D02*Y49900D01*
X71900Y51500D02*X75100D01*
X226500Y107600D02*Y104400D01*
X224900Y106000D02*X228100D01*
X226500Y127600D02*Y124400D01*
X224900Y126000D02*X228100D01*
X226500Y147600D02*Y144400D01*
X224900Y146000D02*X228100D01*
X73500Y276100D02*Y272900D01*
X71900Y274500D02*X75100D01*
X73500Y256100D02*Y252900D01*
X71900Y254500D02*X75100D01*
X73500Y228600D02*Y225400D01*
X71900Y227000D02*X75100D01*
X73500Y208600D02*Y205400D01*
X71900Y207000D02*X75100D01*
X15000Y377850D02*Y374650D01*
X13400Y376250D02*X16600D01*
X135000Y378500D02*Y377750D01*
X136500Y376250D01*
X138000Y377750D01*
Y378500D02*Y377750D01*
X136500Y376250D02*Y372500D01*
X139800Y375500D02*X142050D01*
X139800Y372500D02*X142800D01*
X139800Y378500D02*Y372500D01*
Y378500D02*X142800D01*
X147600D02*X148350Y377750D01*
X145350Y378500D02*X147600D01*
X144600Y377750D02*X145350Y378500D01*
X144600Y377750D02*Y376250D01*
X145350Y375500D01*
X147600D01*
X148350Y374750D01*
Y373250D01*
X147600Y372500D02*X148350Y373250D01*
X145350Y372500D02*X147600D01*
X144600Y373250D02*X145350Y372500D01*
X98750D02*X100250D01*
X99500Y378500D02*Y372500D01*
X98000Y377000D02*X99500Y378500D01*
X102050Y373250D02*X102800Y372500D01*
X102050Y374750D02*Y373250D01*
Y374750D02*X102800Y375500D01*
X104300D01*
X105050Y374750D01*
Y373250D01*
X104300Y372500D02*X105050Y373250D01*
X102800Y372500D02*X104300D01*
X102050Y376250D02*X102800Y375500D01*
X102050Y377750D02*Y376250D01*
Y377750D02*X102800Y378500D01*
X104300D01*
X105050Y377750D01*
Y376250D01*
X104300Y375500D02*X105050Y376250D01*
X45000Y373250D02*X45750Y372500D01*
X45000Y377750D02*Y373250D01*
Y377750D02*X45750Y378500D01*
X47250D01*
X48000Y377750D01*
Y373250D01*
X47250Y372500D02*X48000Y373250D01*
X45750Y372500D02*X47250D01*
X45000Y374000D02*X48000Y377000D01*
X49800Y372500D02*X50550D01*
X52350Y373250D02*X53100Y372500D01*
X52350Y377750D02*Y373250D01*
Y377750D02*X53100Y378500D01*
X54600D01*
X55350Y377750D01*
Y373250D01*
X54600Y372500D02*X55350Y373250D01*
X53100Y372500D02*X54600D01*
X52350Y374000D02*X55350Y377000D01*
X57150Y375500D02*X60150Y378500D01*
X57150Y375500D02*X60900D01*
X60150Y378500D02*Y372500D01*
X62700Y377750D02*X63450Y378500D01*
X65700D01*
X66450Y377750D01*
Y376250D01*
X62700Y372500D02*X66450Y376250D01*
X62700Y372500D02*X66450D01*
X268000Y174000D02*Y172400D01*
Y174000D02*X269387Y174800D01*
X268000Y174000D02*X266613Y174800D01*
X255000Y173000D02*Y171400D01*
Y173000D02*X256387Y173800D01*
X255000Y173000D02*X253613Y173800D01*
X15000Y391250D02*Y389650D01*
Y391250D02*X16387Y392050D01*
X15000Y391250D02*X13613Y392050D01*
X135000Y393500D02*Y392750D01*
X136500Y391250D01*
X138000Y392750D01*
Y393500D02*Y392750D01*
X136500Y391250D02*Y387500D01*
X139800Y390500D02*X142050D01*
X139800Y387500D02*X142800D01*
X139800Y393500D02*Y387500D01*
Y393500D02*X142800D01*
X147600D02*X148350Y392750D01*
X145350Y393500D02*X147600D01*
X144600Y392750D02*X145350Y393500D01*
X144600Y392750D02*Y391250D01*
X145350Y390500D01*
X147600D01*
X148350Y389750D01*
Y388250D01*
X147600Y387500D02*X148350Y388250D01*
X145350Y387500D02*X147600D01*
X144600Y388250D02*X145350Y387500D01*
X98000Y392750D02*X98750Y393500D01*
X101000D01*
X101750Y392750D01*
Y391250D01*
X98000Y387500D02*X101750Y391250D01*
X98000Y387500D02*X101750D01*
X45000Y388250D02*X45750Y387500D01*
X45000Y392750D02*Y388250D01*
Y392750D02*X45750Y393500D01*
X47250D01*
X48000Y392750D01*
Y388250D01*
X47250Y387500D02*X48000Y388250D01*
X45750Y387500D02*X47250D01*
X45000Y389000D02*X48000Y392000D01*
X49800Y387500D02*X50550D01*
X52350Y388250D02*X53100Y387500D01*
X52350Y392750D02*Y388250D01*
Y392750D02*X53100Y393500D01*
X54600D01*
X55350Y392750D01*
Y388250D01*
X54600Y387500D02*X55350Y388250D01*
X53100Y387500D02*X54600D01*
X52350Y389000D02*X55350Y392000D01*
X57900Y387500D02*X59400D01*
X58650Y393500D02*Y387500D01*
X57150Y392000D02*X58650Y393500D01*
X61200Y392750D02*X61950Y393500D01*
X64200D01*
X64950Y392750D01*
Y391250D01*
X61200Y387500D02*X64950Y391250D01*
X61200Y387500D02*X64950D01*
X3000Y408500D02*X3750Y407750D01*
X750Y408500D02*X3000D01*
X0Y407750D02*X750Y408500D01*
X0Y407750D02*Y406250D01*
X750Y405500D01*
X3000D01*
X3750Y404750D01*
Y403250D01*
X3000Y402500D02*X3750Y403250D01*
X750Y402500D02*X3000D01*
X0Y403250D02*X750Y402500D01*
X5550Y405500D02*Y403250D01*
X6300Y402500D01*
X8550Y405500D02*Y401000D01*
X7800Y400250D02*X8550Y401000D01*
X6300Y400250D02*X7800D01*
X5550Y401000D02*X6300Y400250D01*
Y402500D02*X7800D01*
X8550Y403250D01*
X11100Y404750D02*Y402500D01*
Y404750D02*X11850Y405500D01*
X12600D01*
X13350Y404750D01*
Y402500D01*
Y404750D02*X14100Y405500D01*
X14850D01*
X15600Y404750D01*
Y402500D01*
X10350Y405500D02*X11100Y404750D01*
X17400Y408500D02*Y402500D01*
Y403250D02*X18150Y402500D01*
X19650D01*
X20400Y403250D01*
Y404750D02*Y403250D01*
X19650Y405500D02*X20400Y404750D01*
X18150Y405500D02*X19650D01*
X17400Y404750D02*X18150Y405500D01*
X22200Y404750D02*Y403250D01*
Y404750D02*X22950Y405500D01*
X24450D01*
X25200Y404750D01*
Y403250D01*
X24450Y402500D02*X25200Y403250D01*
X22950Y402500D02*X24450D01*
X22200Y403250D02*X22950Y402500D01*
X27000Y408500D02*Y403250D01*
X27750Y402500D01*
X0Y399250D02*X29250D01*
X41750Y408500D02*Y402500D01*
X44000Y408500D02*X44750Y407750D01*
Y403250D01*
X44000Y402500D02*X44750Y403250D01*
X41000Y402500D02*X44000D01*
X41000Y408500D02*X44000D01*
X46550Y407000D02*Y406250D01*
Y404750D02*Y402500D01*
X50300Y405500D02*X51050Y404750D01*
X48800Y405500D02*X50300D01*
X48050Y404750D02*X48800Y405500D01*
X48050Y404750D02*Y403250D01*
X48800Y402500D01*
X51050Y405500D02*Y403250D01*
X51800Y402500D01*
X48800D02*X50300D01*
X51050Y403250D01*
X54350Y404750D02*Y402500D01*
Y404750D02*X55100Y405500D01*
X55850D01*
X56600Y404750D01*
Y402500D01*
Y404750D02*X57350Y405500D01*
X58100D01*
X58850Y404750D01*
Y402500D01*
X53600Y405500D02*X54350Y404750D01*
X60650Y402500D02*X61400D01*
X65900Y403250D02*X66650Y402500D01*
X65900Y407750D02*X66650Y408500D01*
X65900Y407750D02*Y403250D01*
X68450Y408500D02*X69950D01*
X69200D02*Y402500D01*
X68450D02*X69950D01*
X72500Y404750D02*Y402500D01*
Y404750D02*X73250Y405500D01*
X74000D01*
X74750Y404750D01*
Y402500D01*
X71750Y405500D02*X72500Y404750D01*
X77300Y405500D02*X79550D01*
X76550Y404750D02*X77300Y405500D01*
X76550Y404750D02*Y403250D01*
X77300Y402500D01*
X79550D01*
X81350Y408500D02*Y402500D01*
Y404750D02*X82100Y405500D01*
X83600D01*
X84350Y404750D01*
Y402500D01*
X86150Y408500D02*X86900Y407750D01*
Y403250D01*
X86150Y402500D02*X86900Y403250D01*
X41000Y399250D02*X88700D01*
X95750Y402500D02*X98000D01*
X95000Y403250D02*X95750Y402500D01*
X95000Y407750D02*Y403250D01*
Y407750D02*X95750Y408500D01*
X98000D01*
X99800Y404750D02*Y403250D01*
Y404750D02*X100550Y405500D01*
X102050D01*
X102800Y404750D01*
Y403250D01*
X102050Y402500D02*X102800Y403250D01*
X100550Y402500D02*X102050D01*
X99800Y403250D02*X100550Y402500D01*
X104600Y405500D02*Y403250D01*
X105350Y402500D01*
X106850D01*
X107600Y403250D01*
Y405500D02*Y403250D01*
X110150Y404750D02*Y402500D01*
Y404750D02*X110900Y405500D01*
X111650D01*
X112400Y404750D01*
Y402500D01*
X109400Y405500D02*X110150Y404750D01*
X114950Y408500D02*Y403250D01*
X115700Y402500D01*
X114200Y406250D02*X115700D01*
X95000Y399250D02*X117200D01*
X130750Y408500D02*Y402500D01*
X130000Y408500D02*X133000D01*
X133750Y407750D01*
Y406250D01*
X133000Y405500D02*X133750Y406250D01*
X130750Y405500D02*X133000D01*
X135550Y408500D02*Y403250D01*
X136300Y402500D01*
X140050Y405500D02*X140800Y404750D01*
X138550Y405500D02*X140050D01*
X137800Y404750D02*X138550Y405500D01*
X137800Y404750D02*Y403250D01*
X138550Y402500D01*
X140800Y405500D02*Y403250D01*
X141550Y402500D01*
X138550D02*X140050D01*
X140800Y403250D01*
X144100Y408500D02*Y403250D01*
X144850Y402500D01*
X143350Y406250D02*X144850D01*
X147100Y402500D02*X149350D01*
X146350Y403250D02*X147100Y402500D01*
X146350Y404750D02*Y403250D01*
Y404750D02*X147100Y405500D01*
X148600D01*
X149350Y404750D01*
X146350Y404000D02*X149350D01*
Y404750D02*Y404000D01*
X154150Y408500D02*Y402500D01*
X153400D02*X154150Y403250D01*
X151900Y402500D02*X153400D01*
X151150Y403250D02*X151900Y402500D01*
X151150Y404750D02*Y403250D01*
Y404750D02*X151900Y405500D01*
X153400D01*
X154150Y404750D01*
X157450Y405500D02*Y404750D01*
Y403250D02*Y402500D01*
X155950Y407750D02*Y407000D01*
Y407750D02*X156700Y408500D01*
X158200D01*
X158950Y407750D01*
Y407000D01*
X157450Y405500D02*X158950Y407000D01*
X130000Y399250D02*X160750D01*
X0Y423500D02*X3000D01*
X1500D02*Y417500D01*
X4800Y423500D02*Y417500D01*
Y419750D02*X5550Y420500D01*
X7050D01*
X7800Y419750D01*
Y417500D01*
X10350D02*X12600D01*
X9600Y418250D02*X10350Y417500D01*
X9600Y419750D02*Y418250D01*
Y419750D02*X10350Y420500D01*
X11850D01*
X12600Y419750D01*
X9600Y419000D02*X12600D01*
Y419750D02*Y419000D01*
X15150Y419750D02*Y417500D01*
Y419750D02*X15900Y420500D01*
X17400D01*
X14400D02*X15150Y419750D01*
X19950Y417500D02*X22200D01*
X19200Y418250D02*X19950Y417500D01*
X19200Y419750D02*Y418250D01*
Y419750D02*X19950Y420500D01*
X21450D01*
X22200Y419750D01*
X19200Y419000D02*X22200D01*
Y419750D02*Y419000D01*
X28950Y420500D02*X29700Y419750D01*
X27450Y420500D02*X28950D01*
X26700Y419750D02*X27450Y420500D01*
X26700Y419750D02*Y418250D01*
X27450Y417500D01*
X29700Y420500D02*Y418250D01*
X30450Y417500D01*
X27450D02*X28950D01*
X29700Y418250D01*
X33000Y419750D02*Y417500D01*
Y419750D02*X33750Y420500D01*
X35250D01*
X32250D02*X33000Y419750D01*
X37800Y417500D02*X40050D01*
X37050Y418250D02*X37800Y417500D01*
X37050Y419750D02*Y418250D01*
Y419750D02*X37800Y420500D01*
X39300D01*
X40050Y419750D01*
X37050Y419000D02*X40050D01*
Y419750D02*Y419000D01*
X44550Y423500D02*X47550D01*
X44550D02*Y420500D01*
X45300Y421250D01*
X46800D01*
X47550Y420500D01*
Y418250D01*
X46800Y417500D02*X47550Y418250D01*
X45300Y417500D02*X46800D01*
X44550Y418250D02*X45300Y417500D01*
X55050Y423500D02*Y417500D01*
X54300D02*X55050Y418250D01*
X52800Y417500D02*X54300D01*
X52050Y418250D02*X52800Y417500D01*
X52050Y419750D02*Y418250D01*
Y419750D02*X52800Y420500D01*
X54300D01*
X55050Y419750D01*
X56850Y422000D02*Y421250D01*
Y419750D02*Y417500D01*
X59100Y422750D02*Y417500D01*
Y422750D02*X59850Y423500D01*
X60600D01*
X58350Y420500D02*X59850D01*
X62850Y422750D02*Y417500D01*
Y422750D02*X63600Y423500D01*
X64350D01*
X62100Y420500D02*X63600D01*
X66600Y417500D02*X68850D01*
X65850Y418250D02*X66600Y417500D01*
X65850Y419750D02*Y418250D01*
Y419750D02*X66600Y420500D01*
X68100D01*
X68850Y419750D01*
X65850Y419000D02*X68850D01*
Y419750D02*Y419000D01*
X71400Y419750D02*Y417500D01*
Y419750D02*X72150Y420500D01*
X73650D01*
X70650D02*X71400Y419750D01*
X76200Y417500D02*X78450D01*
X75450Y418250D02*X76200Y417500D01*
X75450Y419750D02*Y418250D01*
Y419750D02*X76200Y420500D01*
X77700D01*
X78450Y419750D01*
X75450Y419000D02*X78450D01*
Y419750D02*Y419000D01*
X81000Y419750D02*Y417500D01*
Y419750D02*X81750Y420500D01*
X82500D01*
X83250Y419750D01*
Y417500D01*
X80250Y420500D02*X81000Y419750D01*
X85800Y423500D02*Y418250D01*
X86550Y417500D01*
X85050Y421250D02*X86550D01*
X93750Y423500D02*Y417500D01*
X93000D02*X93750Y418250D01*
X91500Y417500D02*X93000D01*
X90750Y418250D02*X91500Y417500D01*
X90750Y419750D02*Y418250D01*
Y419750D02*X91500Y420500D01*
X93000D01*
X93750Y419750D01*
X96300D02*Y417500D01*
Y419750D02*X97050Y420500D01*
X98550D01*
X95550D02*X96300Y419750D01*
X100350Y422000D02*Y421250D01*
Y419750D02*Y417500D01*
X101850Y423500D02*Y418250D01*
X102600Y417500D01*
X104100Y423500D02*Y418250D01*
X104850Y417500D01*
X109800D02*X112050D01*
X112800Y418250D01*
X112050Y419000D02*X112800Y418250D01*
X109800Y419000D02*X112050D01*
X109050Y419750D02*X109800Y419000D01*
X109050Y419750D02*X109800Y420500D01*
X112050D01*
X112800Y419750D01*
X109050Y418250D02*X109800Y417500D01*
X114600Y422000D02*Y421250D01*
Y419750D02*Y417500D01*
X116100Y420500D02*X119100D01*
X116100Y417500D02*X119100Y420500D01*
X116100Y417500D02*X119100D01*
X121650D02*X123900D01*
X120900Y418250D02*X121650Y417500D01*
X120900Y419750D02*Y418250D01*
Y419750D02*X121650Y420500D01*
X123150D01*
X123900Y419750D01*
X120900Y419000D02*X123900D01*
Y419750D02*Y419000D01*
X126450Y417500D02*X128700D01*
X129450Y418250D01*
X128700Y419000D02*X129450Y418250D01*
X126450Y419000D02*X128700D01*
X125700Y419750D02*X126450Y419000D01*
X125700Y419750D02*X126450Y420500D01*
X128700D01*
X129450Y419750D01*
X125700Y418250D02*X126450Y417500D01*
X133950Y420500D02*Y418250D01*
X134700Y417500D01*
X136200D01*
X136950Y418250D01*
Y420500D02*Y418250D01*
X139500Y417500D02*X141750D01*
X142500Y418250D01*
X141750Y419000D02*X142500Y418250D01*
X139500Y419000D02*X141750D01*
X138750Y419750D02*X139500Y419000D01*
X138750Y419750D02*X139500Y420500D01*
X141750D01*
X142500Y419750D01*
X138750Y418250D02*X139500Y417500D01*
X145050D02*X147300D01*
X144300Y418250D02*X145050Y417500D01*
X144300Y419750D02*Y418250D01*
Y419750D02*X145050Y420500D01*
X146550D01*
X147300Y419750D01*
X144300Y419000D02*X147300D01*
Y419750D02*Y419000D01*
X152100Y423500D02*Y417500D01*
X151350D02*X152100Y418250D01*
X149850Y417500D02*X151350D01*
X149100Y418250D02*X149850Y417500D01*
X149100Y419750D02*Y418250D01*
Y419750D02*X149850Y420500D01*
X151350D01*
X152100Y419750D01*
X156600Y422000D02*Y421250D01*
Y419750D02*Y417500D01*
X158850Y419750D02*Y417500D01*
Y419750D02*X159600Y420500D01*
X160350D01*
X161100Y419750D01*
Y417500D01*
X158100Y420500D02*X158850Y419750D01*
X166350Y423500D02*Y418250D01*
X167100Y417500D01*
X165600Y421250D02*X167100D01*
X168600Y423500D02*Y417500D01*
Y419750D02*X169350Y420500D01*
X170850D01*
X171600Y419750D01*
Y417500D01*
X173400Y422000D02*Y421250D01*
Y419750D02*Y417500D01*
X175650D02*X177900D01*
X178650Y418250D01*
X177900Y419000D02*X178650Y418250D01*
X175650Y419000D02*X177900D01*
X174900Y419750D02*X175650Y419000D01*
X174900Y419750D02*X175650Y420500D01*
X177900D01*
X178650Y419750D01*
X174900Y418250D02*X175650Y417500D01*
X183150Y423500D02*Y418250D01*
X183900Y417500D01*
X187650Y420500D02*X188400Y419750D01*
X186150Y420500D02*X187650D01*
X185400Y419750D02*X186150Y420500D01*
X185400Y419750D02*Y418250D01*
X186150Y417500D01*
X188400Y420500D02*Y418250D01*
X189150Y417500D01*
X186150D02*X187650D01*
X188400Y418250D01*
X190950Y420500D02*Y418250D01*
X191700Y417500D01*
X193950Y420500D02*Y416000D01*
X193200Y415250D02*X193950Y416000D01*
X191700Y415250D02*X193200D01*
X190950Y416000D02*X191700Y415250D01*
Y417500D02*X193200D01*
X193950Y418250D01*
X195750Y419750D02*Y418250D01*
Y419750D02*X196500Y420500D01*
X198000D01*
X198750Y419750D01*
Y418250D01*
X198000Y417500D02*X198750Y418250D01*
X196500Y417500D02*X198000D01*
X195750Y418250D02*X196500Y417500D01*
X200550Y420500D02*Y418250D01*
X201300Y417500D01*
X202800D01*
X203550Y418250D01*
Y420500D02*Y418250D01*
X206100Y423500D02*Y418250D01*
X206850Y417500D01*
X205350Y421250D02*X206850D01*
X208350Y416000D02*X209850Y417500D01*
X214350Y422750D02*X215100Y423500D01*
X217350D01*
X218100Y422750D01*
Y421250D01*
X214350Y417500D02*X218100Y421250D01*
X214350Y417500D02*X218100D01*
X219900D02*X223650Y421250D01*
Y423500D02*Y421250D01*
X219900Y423500D02*X223650D01*
X228150D02*Y417500D01*
Y419750D02*X228900Y420500D01*
X230400D01*
X231150Y419750D01*
Y417500D01*
X232950Y419750D02*Y418250D01*
Y419750D02*X233700Y420500D01*
X235200D01*
X235950Y419750D01*
Y418250D01*
X235200Y417500D02*X235950Y418250D01*
X233700Y417500D02*X235200D01*
X232950Y418250D02*X233700Y417500D01*
X237750Y423500D02*Y418250D01*
X238500Y417500D01*
X240750D02*X243000D01*
X240000Y418250D02*X240750Y417500D01*
X240000Y419750D02*Y418250D01*
Y419750D02*X240750Y420500D01*
X242250D01*
X243000Y419750D01*
X240000Y419000D02*X243000D01*
Y419750D02*Y419000D01*
X245550Y417500D02*X247800D01*
X248550Y418250D01*
X247800Y419000D02*X248550Y418250D01*
X245550Y419000D02*X247800D01*
X244800Y419750D02*X245550Y419000D01*
X244800Y419750D02*X245550Y420500D01*
X247800D01*
X248550Y419750D01*
X244800Y418250D02*X245550Y417500D01*
X253800Y423500D02*Y418250D01*
X254550Y417500D01*
X253050Y421250D02*X254550D01*
X256050Y419750D02*Y418250D01*
Y419750D02*X256800Y420500D01*
X258300D01*
X259050Y419750D01*
Y418250D01*
X258300Y417500D02*X259050Y418250D01*
X256800Y417500D02*X258300D01*
X256050Y418250D02*X256800Y417500D01*
X261600Y423500D02*Y418250D01*
X262350Y417500D01*
X260850Y421250D02*X262350D01*
X266100Y420500D02*X266850Y419750D01*
X264600Y420500D02*X266100D01*
X263850Y419750D02*X264600Y420500D01*
X263850Y419750D02*Y418250D01*
X264600Y417500D01*
X266850Y420500D02*Y418250D01*
X267600Y417500D01*
X264600D02*X266100D01*
X266850Y418250D01*
X269400Y423500D02*Y418250D01*
X270150Y417500D01*
G54D59*X300000Y320000D02*X0D01*
Y0D02*X300000D01*
X0Y320000D02*Y0D01*
X299000Y320000D02*X350000D01*
Y0D01*
X287500D01*
G54D58*X88675Y-9500D02*X91675D01*
X92425Y-8750D01*
Y-7250D02*Y-8750D01*
X91675Y-6500D02*X92425Y-7250D01*
X89425Y-6500D02*X91675D01*
X89425Y-3500D02*Y-9500D01*
X88675Y-3500D02*X91675D01*
X92425Y-4250D01*
Y-5750D01*
X91675Y-6500D02*X92425Y-5750D01*
X94225Y-7250D02*Y-8750D01*
Y-7250D02*X94975Y-6500D01*
X96475D01*
X97225Y-7250D01*
Y-8750D01*
X96475Y-9500D02*X97225Y-8750D01*
X94975Y-9500D02*X96475D01*
X94225Y-8750D02*X94975Y-9500D01*
X101275Y-6500D02*X102025Y-7250D01*
X99775Y-6500D02*X101275D01*
X99025Y-7250D02*X99775Y-6500D01*
X99025Y-7250D02*Y-8750D01*
X99775Y-9500D01*
X102025Y-6500D02*Y-8750D01*
X102775Y-9500D01*
X99775D02*X101275D01*
X102025Y-8750D01*
X105325Y-7250D02*Y-9500D01*
Y-7250D02*X106075Y-6500D01*
X107575D01*
X104575D02*X105325Y-7250D01*
X112375Y-3500D02*Y-9500D01*
X111625D02*X112375Y-8750D01*
X110125Y-9500D02*X111625D01*
X109375Y-8750D02*X110125Y-9500D01*
X109375Y-7250D02*Y-8750D01*
Y-7250D02*X110125Y-6500D01*
X111625D01*
X112375Y-7250D01*
X116875D02*Y-8750D01*
Y-7250D02*X117625Y-6500D01*
X119125D01*
X119875Y-7250D01*
Y-8750D01*
X119125Y-9500D02*X119875Y-8750D01*
X117625Y-9500D02*X119125D01*
X116875Y-8750D02*X117625Y-9500D01*
X121675Y-6500D02*Y-8750D01*
X122425Y-9500D01*
X123925D01*
X124675Y-8750D01*
Y-6500D02*Y-8750D01*
X127225Y-3500D02*Y-8750D01*
X127975Y-9500D01*
X126475Y-5750D02*X127975D01*
X129475Y-3500D02*Y-8750D01*
X130225Y-9500D01*
X131725Y-5000D02*Y-5750D01*
Y-7250D02*Y-9500D01*
X133975Y-7250D02*Y-9500D01*
Y-7250D02*X134725Y-6500D01*
X135475D01*
X136225Y-7250D01*
Y-9500D01*
X133225Y-6500D02*X133975Y-7250D01*
X138775Y-9500D02*X141025D01*
X138025Y-8750D02*X138775Y-9500D01*
X138025Y-7250D02*Y-8750D01*
Y-7250D02*X138775Y-6500D01*
X140275D01*
X141025Y-7250D01*
X138025Y-8000D02*X141025D01*
Y-7250D02*Y-8000D01*
X145525Y-5000D02*Y-5750D01*
Y-7250D02*Y-9500D01*
X147775D02*X150025D01*
X150775Y-8750D01*
X150025Y-8000D02*X150775Y-8750D01*
X147775Y-8000D02*X150025D01*
X147025Y-7250D02*X147775Y-8000D01*
X147025Y-7250D02*X147775Y-6500D01*
X150025D01*
X150775Y-7250D01*
X147025Y-8750D02*X147775Y-9500D01*
X156025Y-3500D02*Y-8750D01*
X156775Y-9500D01*
X155275Y-5750D02*X156775D01*
X158275Y-3500D02*Y-9500D01*
Y-7250D02*X159025Y-6500D01*
X160525D01*
X161275Y-7250D01*
Y-9500D01*
X163825D02*X166075D01*
X163075Y-8750D02*X163825Y-9500D01*
X163075Y-7250D02*Y-8750D01*
Y-7250D02*X163825Y-6500D01*
X165325D01*
X166075Y-7250D01*
X163075Y-8000D02*X166075D01*
Y-7250D02*Y-8000D01*
X171325Y-6500D02*X173575D01*
X170575Y-7250D02*X171325Y-6500D01*
X170575Y-7250D02*Y-8750D01*
X171325Y-9500D01*
X173575D01*
X176125D02*X178375D01*
X175375Y-8750D02*X176125Y-9500D01*
X175375Y-7250D02*Y-8750D01*
Y-7250D02*X176125Y-6500D01*
X177625D01*
X178375Y-7250D01*
X175375Y-8000D02*X178375D01*
Y-7250D02*Y-8000D01*
X180925Y-7250D02*Y-9500D01*
Y-7250D02*X181675Y-6500D01*
X182425D01*
X183175Y-7250D01*
Y-9500D01*
X180175Y-6500D02*X180925Y-7250D01*
X185725Y-3500D02*Y-8750D01*
X186475Y-9500D01*
X184975Y-5750D02*X186475D01*
X188725Y-9500D02*X190975D01*
X187975Y-8750D02*X188725Y-9500D01*
X187975Y-7250D02*Y-8750D01*
Y-7250D02*X188725Y-6500D01*
X190225D01*
X190975Y-7250D01*
X187975Y-8000D02*X190975D01*
Y-7250D02*Y-8000D01*
X193525Y-7250D02*Y-9500D01*
Y-7250D02*X194275Y-6500D01*
X195775D01*
X192775D02*X193525Y-7250D01*
X197575Y-3500D02*Y-8750D01*
X198325Y-9500D01*
X199825Y-5000D02*Y-5750D01*
Y-7250D02*Y-9500D01*
X202075Y-7250D02*Y-9500D01*
Y-7250D02*X202825Y-6500D01*
X203575D01*
X204325Y-7250D01*
Y-9500D01*
X201325Y-6500D02*X202075Y-7250D01*
X206875Y-9500D02*X209125D01*
X206125Y-8750D02*X206875Y-9500D01*
X206125Y-7250D02*Y-8750D01*
Y-7250D02*X206875Y-6500D01*
X208375D01*
X209125Y-7250D01*
X206125Y-8000D02*X209125D01*
Y-7250D02*Y-8000D01*
X213625Y-7250D02*Y-8750D01*
Y-7250D02*X214375Y-6500D01*
X215875D01*
X216625Y-7250D01*
Y-8750D01*
X215875Y-9500D02*X216625Y-8750D01*
X214375Y-9500D02*X215875D01*
X213625Y-8750D02*X214375Y-9500D01*
X219175Y-4250D02*Y-9500D01*
Y-4250D02*X219925Y-3500D01*
X220675D01*
X218425Y-6500D02*X219925D01*
X225625Y-3500D02*Y-8750D01*
X226375Y-9500D01*
X224875Y-5750D02*X226375D01*
X227875Y-3500D02*Y-9500D01*
Y-7250D02*X228625Y-6500D01*
X230125D01*
X230875Y-7250D01*
Y-9500D01*
X232675Y-5000D02*Y-5750D01*
Y-7250D02*Y-9500D01*
X234925D02*X237175D01*
X237925Y-8750D01*
X237175Y-8000D02*X237925Y-8750D01*
X234925Y-8000D02*X237175D01*
X234175Y-7250D02*X234925Y-8000D01*
X234175Y-7250D02*X234925Y-6500D01*
X237175D01*
X237925Y-7250D01*
X234175Y-8750D02*X234925Y-9500D01*
X243175Y-7250D02*Y-11750D01*
X242425Y-6500D02*X243175Y-7250D01*
X243925Y-6500D01*
X245425D01*
X246175Y-7250D01*
Y-8750D01*
X245425Y-9500D02*X246175Y-8750D01*
X243925Y-9500D02*X245425D01*
X243175Y-8750D02*X243925Y-9500D01*
X250225Y-6500D02*X250975Y-7250D01*
X248725Y-6500D02*X250225D01*
X247975Y-7250D02*X248725Y-6500D01*
X247975Y-7250D02*Y-8750D01*
X248725Y-9500D01*
X250975Y-6500D02*Y-8750D01*
X251725Y-9500D01*
X248725D02*X250225D01*
X250975Y-8750D01*
X254275Y-3500D02*Y-8750D01*
X255025Y-9500D01*
X253525Y-5750D02*X255025D01*
X256525Y-3500D02*Y-9500D01*
Y-7250D02*X257275Y-6500D01*
X258775D01*
X259525Y-7250D01*
Y-9500D01*
X200750Y348500D02*Y342500D01*
X203000Y348500D02*X203750Y347750D01*
Y343250D01*
X203000Y342500D02*X203750Y343250D01*
X200000Y342500D02*X203000D01*
X200000Y348500D02*X203000D01*
X207800Y345500D02*X208550Y344750D01*
X206300Y345500D02*X207800D01*
X205550Y344750D02*X206300Y345500D01*
X205550Y344750D02*Y343250D01*
X206300Y342500D01*
X208550Y345500D02*Y343250D01*
X209300Y342500D01*
X206300D02*X207800D01*
X208550Y343250D01*
X211850Y348500D02*Y343250D01*
X212600Y342500D01*
X211100Y346250D02*X212600D01*
X214850Y342500D02*X217100D01*
X214100Y343250D02*X214850Y342500D01*
X214100Y344750D02*Y343250D01*
Y344750D02*X214850Y345500D01*
X216350D01*
X217100Y344750D01*
X214100Y344000D02*X217100D01*
Y344750D02*Y344000D01*
X218900Y346250D02*X219650D01*
X218900Y344750D02*X219650D01*
X224150Y348500D02*Y342500D01*
Y348500D02*X226400Y346250D01*
X228650Y348500D01*
Y342500D01*
X230450Y344750D02*Y343250D01*
Y344750D02*X231200Y345500D01*
X232700D01*
X233450Y344750D01*
Y343250D01*
X232700Y342500D02*X233450Y343250D01*
X231200Y342500D02*X232700D01*
X230450Y343250D02*X231200Y342500D01*
X236000Y344750D02*Y342500D01*
Y344750D02*X236750Y345500D01*
X237500D01*
X238250Y344750D01*
Y342500D01*
X235250Y345500D02*X236000Y344750D01*
X242750Y348500D02*Y342500D01*
Y348500D02*X245750D01*
X242750Y345500D02*X245000D01*
X248300Y342500D02*X250550D01*
X247550Y343250D02*X248300Y342500D01*
X247550Y344750D02*Y343250D01*
Y344750D02*X248300Y345500D01*
X249800D01*
X250550Y344750D01*
X247550Y344000D02*X250550D01*
Y344750D02*Y344000D01*
X252350Y348500D02*Y342500D01*
Y343250D02*X253100Y342500D01*
X254600D01*
X255350Y343250D01*
Y344750D02*Y343250D01*
X254600Y345500D02*X255350Y344750D01*
X253100Y345500D02*X254600D01*
X252350Y344750D02*X253100Y345500D01*
X259850Y347750D02*X260600Y348500D01*
X262850D01*
X263600Y347750D01*
Y346250D01*
X259850Y342500D02*X263600Y346250D01*
X259850Y342500D02*X263600D01*
X265400Y347750D02*X266150Y348500D01*
X268400D01*
X269150Y347750D01*
Y346250D01*
X265400Y342500D02*X269150Y346250D01*
X265400Y342500D02*X269150D01*
X274400D02*X275900D01*
X275150Y348500D02*Y342500D01*
X273650Y347000D02*X275150Y348500D01*
X277700Y343250D02*X278450Y342500D01*
X277700Y344750D02*Y343250D01*
Y344750D02*X278450Y345500D01*
X279950D01*
X280700Y344750D01*
Y343250D01*
X279950Y342500D02*X280700Y343250D01*
X278450Y342500D02*X279950D01*
X277700Y346250D02*X278450Y345500D01*
X277700Y347750D02*Y346250D01*
Y347750D02*X278450Y348500D01*
X279950D01*
X280700Y347750D01*
Y346250D01*
X279950Y345500D02*X280700Y346250D01*
X282500D02*X283250D01*
X282500Y344750D02*X283250D01*
X285050Y343250D02*X285800Y342500D01*
X285050Y347750D02*Y343250D01*
Y347750D02*X285800Y348500D01*
X287300D01*
X288050Y347750D01*
Y343250D01*
X287300Y342500D02*X288050Y343250D01*
X285800Y342500D02*X287300D01*
X285050Y344000D02*X288050Y347000D01*
X289850Y342500D02*X292850Y345500D01*
Y347750D02*Y345500D01*
X292100Y348500D02*X292850Y347750D01*
X290600Y348500D02*X292100D01*
X289850Y347750D02*X290600Y348500D01*
X289850Y347750D02*Y346250D01*
X290600Y345500D01*
X292850D01*
X294650Y346250D02*X295400D01*
X294650Y344750D02*X295400D01*
X297200Y345500D02*X300200Y348500D01*
X297200Y345500D02*X300950D01*
X300200Y348500D02*Y342500D01*
X303500D02*X305000D01*
X304250Y348500D02*Y342500D01*
X302750Y347000D02*X304250Y348500D01*
X309500Y347750D02*X310250Y348500D01*
X312500D01*
X313250Y347750D01*
Y346250D01*
X309500Y342500D02*X313250Y346250D01*
X309500Y342500D02*X313250D01*
X315050Y343250D02*X315800Y342500D01*
X315050Y347750D02*Y343250D01*
Y347750D02*X315800Y348500D01*
X317300D01*
X318050Y347750D01*
Y343250D01*
X317300Y342500D02*X318050Y343250D01*
X315800Y342500D02*X317300D01*
X315050Y344000D02*X318050Y347000D01*
X319850Y347750D02*X320600Y348500D01*
X322850D01*
X323600Y347750D01*
Y346250D01*
X319850Y342500D02*X323600Y346250D01*
X319850Y342500D02*X323600D01*
X326150D02*X327650D01*
X326900Y348500D02*Y342500D01*
X325400Y347000D02*X326900Y348500D01*
X332150D02*Y343250D01*
X332900Y342500D01*
X334400D01*
X335150Y343250D01*
Y348500D02*Y343250D01*
X336950Y348500D02*X339950D01*
X338450D02*Y342500D01*
X342500D02*X344750D01*
X341750Y343250D02*X342500Y342500D01*
X341750Y347750D02*Y343250D01*
Y347750D02*X342500Y348500D01*
X344750D01*
X200000Y362750D02*Y357500D01*
Y362750D02*X200750Y363500D01*
X203000D01*
X203750Y362750D01*
Y357500D01*
X200000Y360500D02*X203750D01*
X205550D02*Y358250D01*
X206300Y357500D01*
X207800D01*
X208550Y358250D01*
Y360500D02*Y358250D01*
X211100Y363500D02*Y358250D01*
X211850Y357500D01*
X210350Y361250D02*X211850D01*
X213350Y363500D02*Y357500D01*
Y359750D02*X214100Y360500D01*
X215600D01*
X216350Y359750D01*
Y357500D01*
X218150Y359750D02*Y358250D01*
Y359750D02*X218900Y360500D01*
X220400D01*
X221150Y359750D01*
Y358250D01*
X220400Y357500D02*X221150Y358250D01*
X218900Y357500D02*X220400D01*
X218150Y358250D02*X218900Y357500D01*
X223700Y359750D02*Y357500D01*
Y359750D02*X224450Y360500D01*
X225950D01*
X222950D02*X223700Y359750D01*
X227750Y361250D02*X228500D01*
X227750Y359750D02*X228500D01*
X233000Y363500D02*Y357500D01*
Y363500D02*Y362750D01*
X236750Y359000D01*
Y363500D02*Y357500D01*
X240800Y360500D02*X241550Y359750D01*
X239300Y360500D02*X240800D01*
X238550Y359750D02*X239300Y360500D01*
X238550Y359750D02*Y358250D01*
X239300Y357500D01*
X241550Y360500D02*Y358250D01*
X242300Y357500D01*
X239300D02*X240800D01*
X241550Y358250D01*
X244850Y363500D02*Y358250D01*
X245600Y357500D01*
X244100Y361250D02*X245600D01*
X247100Y363500D02*Y357500D01*
Y359750D02*X247850Y360500D01*
X249350D01*
X250100Y359750D01*
Y357500D01*
X254150Y360500D02*X254900Y359750D01*
X252650Y360500D02*X254150D01*
X251900Y359750D02*X252650Y360500D01*
X251900Y359750D02*Y358250D01*
X252650Y357500D01*
X254900Y360500D02*Y358250D01*
X255650Y357500D01*
X252650D02*X254150D01*
X254900Y358250D01*
X258200Y359750D02*Y357500D01*
Y359750D02*X258950Y360500D01*
X259700D01*
X260450Y359750D01*
Y357500D01*
X257450Y360500D02*X258200Y359750D01*
X265700Y363500D02*Y357500D01*
X267950Y363500D02*X268700Y362750D01*
Y358250D01*
X267950Y357500D02*X268700Y358250D01*
X264950Y357500D02*X267950D01*
X264950Y363500D02*X267950D01*
X270500Y357500D02*X271250D01*
X275750Y363500D02*Y357500D01*
X279500Y363500D02*Y357500D01*
X275750Y360500D02*X279500D01*
X281300Y359750D02*Y358250D01*
Y359750D02*X282050Y360500D01*
X283550D01*
X284300Y359750D01*
Y358250D01*
X283550Y357500D02*X284300Y358250D01*
X282050Y357500D02*X283550D01*
X281300Y358250D02*X282050Y357500D01*
X286100Y363500D02*Y358250D01*
X286850Y357500D01*
X289100Y359750D02*Y357500D01*
Y359750D02*X289850Y360500D01*
X290600D01*
X291350Y359750D01*
Y357500D01*
Y359750D02*X292100Y360500D01*
X292850D01*
X293600Y359750D01*
Y357500D01*
X288350Y360500D02*X289100Y359750D01*
X296150Y357500D02*X298400D01*
X295400Y358250D02*X296150Y357500D01*
X295400Y359750D02*Y358250D01*
Y359750D02*X296150Y360500D01*
X297650D01*
X298400Y359750D01*
X295400Y359000D02*X298400D01*
Y359750D02*Y359000D01*
X300950Y357500D02*X303200D01*
X303950Y358250D01*
X303200Y359000D02*X303950Y358250D01*
X300950Y359000D02*X303200D01*
X300200Y359750D02*X300950Y359000D01*
X300200Y359750D02*X300950Y360500D01*
X303200D01*
X303950Y359750D01*
X300200Y358250D02*X300950Y357500D01*
X200000Y378500D02*X203000D01*
X201500D02*Y372500D01*
X204800Y377000D02*Y376250D01*
Y374750D02*Y372500D01*
X207050Y378500D02*Y373250D01*
X207800Y372500D01*
X206300Y376250D02*X207800D01*
X209300Y378500D02*Y373250D01*
X210050Y372500D01*
X212300D02*X214550D01*
X211550Y373250D02*X212300Y372500D01*
X211550Y374750D02*Y373250D01*
Y374750D02*X212300Y375500D01*
X213800D01*
X214550Y374750D01*
X211550Y374000D02*X214550D01*
Y374750D02*Y374000D01*
X216350Y376250D02*X217100D01*
X216350Y374750D02*X217100D01*
X221600Y373250D02*X222350Y372500D01*
X221600Y377750D02*X222350Y378500D01*
X221600Y377750D02*Y373250D01*
X224150Y375500D02*Y373250D01*
X224900Y372500D01*
X226400D01*
X227150Y373250D01*
Y375500D02*Y373250D01*
X229700Y374750D02*Y372500D01*
Y374750D02*X230450Y375500D01*
X231200D01*
X231950Y374750D01*
Y372500D01*
X228950Y375500D02*X229700Y374750D01*
X233750Y378500D02*Y372500D01*
Y374750D02*X236000Y372500D01*
X233750Y374750D02*X235250Y376250D01*
X238550Y374750D02*Y372500D01*
Y374750D02*X239300Y375500D01*
X240050D01*
X240800Y374750D01*
Y372500D01*
X237800Y375500D02*X238550Y374750D01*
X242600D02*Y373250D01*
Y374750D02*X243350Y375500D01*
X244850D01*
X245600Y374750D01*
Y373250D01*
X244850Y372500D02*X245600Y373250D01*
X243350Y372500D02*X244850D01*
X242600Y373250D02*X243350Y372500D01*
X247400Y375500D02*Y373250D01*
X248150Y372500D01*
X248900D01*
X249650Y373250D01*
Y375500D02*Y373250D01*
X250400Y372500D01*
X251150D01*
X251900Y373250D01*
Y375500D02*Y373250D01*
X254450Y374750D02*Y372500D01*
Y374750D02*X255200Y375500D01*
X255950D01*
X256700Y374750D01*
Y372500D01*
X253700Y375500D02*X254450Y374750D01*
X258500Y378500D02*X259250Y377750D01*
Y373250D01*
X258500Y372500D02*X259250Y373250D01*
X263750Y375500D02*X266750D01*
X271250Y378500D02*Y372500D01*
Y378500D02*X274250D01*
X271250Y375500D02*X273500D01*
X278300D02*X279050Y374750D01*
X276800Y375500D02*X278300D01*
X276050Y374750D02*X276800Y375500D01*
X276050Y374750D02*Y373250D01*
X276800Y372500D01*
X279050Y375500D02*Y373250D01*
X279800Y372500D01*
X276800D02*X278300D01*
X279050Y373250D01*
X281600Y378500D02*Y372500D01*
Y373250D02*X282350Y372500D01*
X283850D01*
X284600Y373250D01*
Y374750D02*Y373250D01*
X283850Y375500D02*X284600Y374750D01*
X282350Y375500D02*X283850D01*
X281600Y374750D02*X282350Y375500D01*
X287150Y374750D02*Y372500D01*
Y374750D02*X287900Y375500D01*
X289400D01*
X286400D02*X287150Y374750D01*
X291200Y377000D02*Y376250D01*
Y374750D02*Y372500D01*
X293450Y375500D02*X295700D01*
X292700Y374750D02*X293450Y375500D01*
X292700Y374750D02*Y373250D01*
X293450Y372500D01*
X295700D01*
X299750Y375500D02*X300500Y374750D01*
X298250Y375500D02*X299750D01*
X297500Y374750D02*X298250Y375500D01*
X297500Y374750D02*Y373250D01*
X298250Y372500D01*
X300500Y375500D02*Y373250D01*
X301250Y372500D01*
X298250D02*X299750D01*
X300500Y373250D01*
X303800Y378500D02*Y373250D01*
X304550Y372500D01*
X303050Y376250D02*X304550D01*
X306050Y377000D02*Y376250D01*
Y374750D02*Y372500D01*
X307550Y374750D02*Y373250D01*
Y374750D02*X308300Y375500D01*
X309800D01*
X310550Y374750D01*
Y373250D01*
X309800Y372500D02*X310550Y373250D01*
X308300Y372500D02*X309800D01*
X307550Y373250D02*X308300Y372500D01*
X313100Y374750D02*Y372500D01*
Y374750D02*X313850Y375500D01*
X314600D01*
X315350Y374750D01*
Y372500D01*
X312350Y375500D02*X313100Y374750D01*
X320600Y378500D02*Y372500D01*
X322850Y378500D02*X323600Y377750D01*
Y373250D01*
X322850Y372500D02*X323600Y373250D01*
X319850Y372500D02*X322850D01*
X319850Y378500D02*X322850D01*
X326150Y374750D02*Y372500D01*
Y374750D02*X326900Y375500D01*
X328400D01*
X325400D02*X326150Y374750D01*
X332450Y375500D02*X333200Y374750D01*
X330950Y375500D02*X332450D01*
X330200Y374750D02*X330950Y375500D01*
X330200Y374750D02*Y373250D01*
X330950Y372500D01*
X333200Y375500D02*Y373250D01*
X333950Y372500D01*
X330950D02*X332450D01*
X333200Y373250D01*
X335750Y375500D02*Y373250D01*
X336500Y372500D01*
X337250D01*
X338000Y373250D01*
Y375500D02*Y373250D01*
X338750Y372500D01*
X339500D01*
X340250Y373250D01*
Y375500D02*Y373250D01*
X342050Y377000D02*Y376250D01*
Y374750D02*Y372500D01*
X344300Y374750D02*Y372500D01*
Y374750D02*X345050Y375500D01*
X345800D01*
X346550Y374750D01*
Y372500D01*
X343550Y375500D02*X344300Y374750D01*
X350600Y375500D02*X351350Y374750D01*
X349100Y375500D02*X350600D01*
X348350Y374750D02*X349100Y375500D01*
X348350Y374750D02*Y373250D01*
X349100Y372500D01*
X350600D01*
X351350Y373250D01*
X348350Y371000D02*X349100Y370250D01*
X350600D01*
X351350Y371000D01*
Y375500D02*Y371000D01*
M02*
