M48
INCH
T41C0.012
T40C0.110
T39C0.125
T38C0.129
T37C0.042
%
T41
X025500Y017300
X026800Y017400
T37
X007350Y027450
X007350Y025450
X007350Y022700
X007350Y020700
X007350Y018700
X007350Y016700
X007350Y014700
X007350Y011150
X007350Y009150
X007350Y007150
X007350Y005150
X022650Y023500
X022650Y021500
X022650Y019500
X022650Y017500
X022650Y014600
X022650Y012600
X022650Y010600
T40
X000900Y027800
X002800Y029000
T39
X002800Y026600
T38
X006700Y030300
X006700Y001700
X023300Y030300
X023300Y001700
M30
