M48
INCH
T33C0.012
T32C0.048
T31C0.129
%
T33
X004500Y011800
X004800Y019650
X004800Y017700
X004850Y011800
X006000Y011800
X006550Y026650
X006550Y026250
X006550Y025850
X006700Y021950
X006700Y021450
X006700Y020950
X006950Y002950
X008100Y015950
X008100Y014950
X008400Y013700
X008400Y012650
X008650Y014250
X008650Y010250
X008900Y014500
X008900Y009950
X009200Y014250
X009200Y010250
X009250Y028300
X009250Y027900
X009250Y027500
X009250Y027100
X009250Y026700
X009250Y026300
X009250Y025900
X009300Y018350
X009300Y017000
X009450Y013700
X009450Y011970
X009550Y017250
X009850Y017000
X009950Y002950
X010100Y019200
X010100Y018800
X010100Y018450
X010100Y017250
X010700Y014450
X010700Y014000
X011500Y014000
X011650Y020500
X011650Y008950
X011650Y007850
X011750Y014450
X011950Y019250
X012390Y019300
X012600Y025350
X012700Y016650
X012950Y002950
X013020Y020590
X013030Y019300
X013080Y012970
X013100Y025350
X013100Y022250
X013550Y011950
X013550Y009900
X013550Y008700
X013550Y008100
X013560Y012970
X014000Y019950
X017750Y025350
X017950Y016100
X018100Y025350
X019300Y016100
T32
X002350Y027450
X002350Y025450
X002350Y022700
X002350Y020700
X002350Y018700
X002350Y016700
X002350Y014700
X002350Y011150
X002350Y009150
X002350Y007150
X002350Y005150
X017650Y023500
X017650Y021500
X017650Y019500
X017650Y017500
X017650Y014600
X017650Y012600
X017650Y010600
T31
X001700Y030300
X001700Y001700
X018300Y030300
X018300Y001700
M30
