G04 start of page 3 for group 1 idx 1 *
G04 Title: (unknown), solder *
G04 Creator: pcb 4.0.2 *
G04 CreationDate: Mon Jan 25 18:11:42 2021 UTC *
G04 For: ndholmes *
G04 Format: Gerber/RS-274X *
G04 PCB-Dimensions (mil): 3000.00 3200.00 *
G04 PCB-Coordinate-Origin: lower left *
%MOIN*%
%FSLAX25Y25*%
%LNBOTTOM*%
%ADD29C,0.0480*%
%ADD28C,0.1285*%
%ADD27C,0.0120*%
%ADD26C,0.0260*%
%ADD25C,0.0800*%
%ADD24C,0.2937*%
%ADD23C,0.0100*%
%ADD22C,0.0001*%
G54D22*G36*
X186246Y287650D02*X187862Y288038D01*
X190142Y288982D01*
X192247Y290272D01*
X194124Y291876D01*
X195728Y293753D01*
X197018Y295858D01*
X197500Y297022D01*
Y22978D01*
X197018Y24142D01*
X195728Y26247D01*
X194124Y28124D01*
X192247Y29728D01*
X190142Y31018D01*
X187862Y31962D01*
X186246Y32350D01*
Y159500D01*
X191256D01*
X191369Y159369D01*
X191644Y159134D01*
X191953Y158944D01*
X192287Y158806D01*
X192639Y158721D01*
X193000Y158693D01*
X193361Y158721D01*
X193713Y158806D01*
X194047Y158944D01*
X194356Y159134D01*
X194631Y159369D01*
X194866Y159644D01*
X195056Y159953D01*
X195194Y160287D01*
X195279Y160639D01*
X195300Y161000D01*
X195279Y161361D01*
X195194Y161713D01*
X195056Y162047D01*
X194866Y162356D01*
X194631Y162631D01*
X194356Y162866D01*
X194047Y163056D01*
X193713Y163194D01*
X193361Y163279D01*
X193000Y163307D01*
X192639Y163279D01*
X192287Y163194D01*
X191953Y163056D01*
X191644Y162866D01*
X191369Y162631D01*
X191256Y162500D01*
X186246D01*
Y287650D01*
G37*
G36*
X176500Y2716D02*X177022Y2500D01*
X176500D01*
Y2716D01*
G37*
G36*
X181250Y159500D02*X186246D01*
Y32350D01*
X185461Y32539D01*
X183000Y32732D01*
X181250Y32595D01*
Y100700D01*
X181384Y100783D01*
X181564Y100936D01*
X181717Y101116D01*
X181841Y101317D01*
X181931Y101535D01*
X181986Y101765D01*
X182000Y102000D01*
X181986Y110235D01*
X181931Y110465D01*
X181841Y110683D01*
X181717Y110884D01*
X181564Y111064D01*
X181384Y111217D01*
X181250Y111300D01*
Y123225D01*
X181416Y123495D01*
X181747Y124295D01*
X181949Y125137D01*
X182000Y126000D01*
X181949Y126863D01*
X181747Y127705D01*
X181416Y128505D01*
X181250Y128775D01*
Y143225D01*
X181416Y143495D01*
X181747Y144295D01*
X181949Y145137D01*
X182000Y146000D01*
X181949Y146863D01*
X181747Y147705D01*
X181416Y148505D01*
X181250Y148775D01*
Y159500D01*
G37*
G36*
Y287405D02*X183000Y287268D01*
X185461Y287461D01*
X186246Y287650D01*
Y162500D01*
X181250D01*
Y171748D01*
X181368Y171757D01*
X181482Y171785D01*
X181592Y171830D01*
X181692Y171891D01*
X181782Y171968D01*
X181859Y172058D01*
X181920Y172158D01*
X181965Y172268D01*
X181993Y172382D01*
X182000Y172500D01*
Y177500D01*
X181993Y177618D01*
X181965Y177732D01*
X181920Y177842D01*
X181859Y177942D01*
X181782Y178032D01*
X181692Y178109D01*
X181592Y178170D01*
X181482Y178215D01*
X181368Y178243D01*
X181250Y178252D01*
Y192303D01*
X181269Y192319D01*
X181345Y192409D01*
X181405Y192511D01*
X181622Y192980D01*
X181789Y193469D01*
X181909Y193972D01*
X181982Y194484D01*
X182006Y195000D01*
X181982Y195516D01*
X181909Y196028D01*
X181789Y196531D01*
X181622Y197020D01*
X181410Y197492D01*
X181349Y197593D01*
X181272Y197684D01*
X181250Y197702D01*
Y209700D01*
X181384Y209783D01*
X181564Y209936D01*
X181717Y210116D01*
X181841Y210317D01*
X181931Y210535D01*
X181986Y210765D01*
X182000Y211000D01*
X181986Y219235D01*
X181931Y219465D01*
X181841Y219683D01*
X181717Y219884D01*
X181564Y220064D01*
X181384Y220217D01*
X181250Y220300D01*
Y232225D01*
X181416Y232495D01*
X181747Y233295D01*
X181949Y234137D01*
X182000Y235000D01*
X181949Y235863D01*
X181747Y236705D01*
X181416Y237505D01*
X181250Y237775D01*
Y287405D01*
G37*
G36*
Y220300D02*X181183Y220341D01*
X180965Y220431D01*
X180735Y220486D01*
X180500Y220500D01*
X176500Y220493D01*
Y229483D01*
X177363Y229551D01*
X178205Y229753D01*
X179005Y230084D01*
X179743Y230537D01*
X180401Y231099D01*
X180963Y231757D01*
X181250Y232225D01*
Y220300D01*
G37*
G36*
Y128775D02*X180963Y129243D01*
X180401Y129901D01*
X179743Y130463D01*
X179005Y130916D01*
X178205Y131247D01*
X177363Y131449D01*
X176500Y131517D01*
Y140483D01*
X177363Y140551D01*
X178205Y140753D01*
X179005Y141084D01*
X179743Y141537D01*
X180401Y142099D01*
X180963Y142757D01*
X181250Y143225D01*
Y128775D01*
G37*
G36*
Y111300D02*X181183Y111341D01*
X180965Y111431D01*
X180735Y111486D01*
X180500Y111500D01*
X176500Y111493D01*
Y120483D01*
X177363Y120551D01*
X178205Y120753D01*
X179005Y121084D01*
X179743Y121537D01*
X180401Y122099D01*
X180963Y122757D01*
X181250Y123225D01*
Y111300D01*
G37*
G36*
Y32595D02*X180539Y32539D01*
X178138Y31962D01*
X176500Y31284D01*
Y100507D01*
X180735Y100514D01*
X180965Y100569D01*
X181183Y100659D01*
X181250Y100700D01*
Y32595D01*
G37*
G36*
Y162500D02*X181244D01*
X181131Y162631D01*
X180856Y162866D01*
X180547Y163056D01*
X180213Y163194D01*
X179861Y163279D01*
X179500Y163307D01*
X179139Y163279D01*
X178787Y163194D01*
X178453Y163056D01*
X178144Y162866D01*
X177869Y162631D01*
X177634Y162356D01*
X177444Y162047D01*
X177306Y161713D01*
X177221Y161361D01*
X177193Y161000D01*
X177221Y160639D01*
X177306Y160287D01*
X177444Y159953D01*
X177634Y159644D01*
X177869Y159369D01*
X178144Y159134D01*
X178453Y158944D01*
X178787Y158806D01*
X179139Y158721D01*
X179500Y158693D01*
X179861Y158721D01*
X180213Y158806D01*
X180547Y158944D01*
X180856Y159134D01*
X181131Y159369D01*
X181244Y159500D01*
X181250D01*
Y148775D01*
X180963Y149243D01*
X180401Y149901D01*
X179743Y150463D01*
X179005Y150916D01*
X178205Y151247D01*
X177363Y151449D01*
X176500Y151517D01*
Y169500D01*
X179000D01*
X179118Y169507D01*
X179232Y169535D01*
X179342Y169580D01*
X179442Y169641D01*
X179532Y169718D01*
X179609Y169808D01*
X179670Y169908D01*
X179715Y170018D01*
X179743Y170132D01*
X179752Y170250D01*
X179743Y170368D01*
X179715Y170482D01*
X179670Y170592D01*
X179609Y170692D01*
X179532Y170782D01*
X179442Y170859D01*
X179342Y170920D01*
X179232Y170965D01*
X179118Y170993D01*
X179000Y171000D01*
X176500D01*
Y179000D01*
X179000D01*
X179118Y179007D01*
X179232Y179035D01*
X179342Y179080D01*
X179442Y179141D01*
X179532Y179218D01*
X179609Y179308D01*
X179670Y179408D01*
X179715Y179518D01*
X179743Y179632D01*
X179752Y179750D01*
X179743Y179868D01*
X179715Y179982D01*
X179670Y180092D01*
X179609Y180192D01*
X179532Y180282D01*
X179442Y180359D01*
X179342Y180420D01*
X179232Y180465D01*
X179118Y180493D01*
X179000Y180500D01*
X176500D01*
Y189494D01*
X177016Y189518D01*
X177528Y189591D01*
X178031Y189711D01*
X178520Y189878D01*
X178992Y190090D01*
X179093Y190151D01*
X179184Y190228D01*
X179261Y190318D01*
X179323Y190420D01*
X179369Y190529D01*
X179397Y190645D01*
X179406Y190763D01*
X179397Y190881D01*
X179370Y190997D01*
X179324Y191107D01*
X179262Y191208D01*
X179186Y191298D01*
X179095Y191376D01*
X178994Y191438D01*
X178885Y191484D01*
X178769Y191511D01*
X178651Y191521D01*
X178532Y191512D01*
X178417Y191484D01*
X178308Y191437D01*
X177968Y191279D01*
X177612Y191158D01*
X177247Y191070D01*
X176875Y191018D01*
X176500Y191000D01*
Y199000D01*
X176875Y198982D01*
X177247Y198930D01*
X177612Y198842D01*
X177968Y198721D01*
X178310Y198567D01*
X178418Y198520D01*
X178533Y198493D01*
X178651Y198483D01*
X178768Y198493D01*
X178883Y198521D01*
X178992Y198566D01*
X179093Y198628D01*
X179182Y198705D01*
X179259Y198795D01*
X179320Y198895D01*
X179365Y199004D01*
X179393Y199119D01*
X179402Y199237D01*
X179392Y199355D01*
X179365Y199469D01*
X179319Y199578D01*
X179257Y199679D01*
X179181Y199769D01*
X179091Y199845D01*
X178989Y199905D01*
X178520Y200122D01*
X178031Y200289D01*
X177528Y200409D01*
X177016Y200482D01*
X176500Y200506D01*
Y209507D01*
X180735Y209514D01*
X180965Y209569D01*
X181183Y209659D01*
X181250Y209700D01*
Y197702D01*
X181182Y197761D01*
X181080Y197823D01*
X180971Y197869D01*
X180855Y197897D01*
X180737Y197906D01*
X180619Y197897D01*
X180503Y197870D01*
X180393Y197824D01*
X180292Y197762D01*
X180202Y197686D01*
X180124Y197595D01*
X180062Y197494D01*
X180016Y197385D01*
X179989Y197269D01*
X179979Y197151D01*
X179988Y197032D01*
X180016Y196917D01*
X180063Y196808D01*
X180221Y196468D01*
X180342Y196112D01*
X180430Y195747D01*
X180482Y195375D01*
X180500Y195000D01*
X180482Y194625D01*
X180430Y194253D01*
X180342Y193888D01*
X180221Y193532D01*
X180067Y193190D01*
X180020Y193082D01*
X179993Y192967D01*
X179983Y192849D01*
X179993Y192732D01*
X180021Y192617D01*
X180066Y192508D01*
X180128Y192407D01*
X180205Y192318D01*
X180295Y192241D01*
X180395Y192180D01*
X180504Y192135D01*
X180619Y192107D01*
X180737Y192098D01*
X180855Y192108D01*
X180969Y192135D01*
X181078Y192181D01*
X181179Y192243D01*
X181250Y192303D01*
Y178252D01*
X181132Y178243D01*
X181018Y178215D01*
X180908Y178170D01*
X180808Y178109D01*
X180718Y178032D01*
X180641Y177942D01*
X180580Y177842D01*
X180535Y177732D01*
X180507Y177618D01*
X180500Y177500D01*
Y172500D01*
X180507Y172382D01*
X180535Y172268D01*
X180580Y172158D01*
X180641Y172058D01*
X180718Y171968D01*
X180808Y171891D01*
X180908Y171830D01*
X181018Y171785D01*
X181132Y171757D01*
X181250Y171748D01*
Y162500D01*
G37*
G36*
X176500Y288716D02*X178138Y288038D01*
X180539Y287461D01*
X181250Y287405D01*
Y237775D01*
X180963Y238243D01*
X180401Y238901D01*
X179743Y239463D01*
X179005Y239916D01*
X178205Y240247D01*
X177363Y240449D01*
X176500Y240517D01*
Y288716D01*
G37*
G36*
Y317500D02*X177022D01*
X176500Y317284D01*
Y317500D01*
G37*
G36*
X171750Y6023D02*X171876Y5876D01*
X173753Y4272D01*
X175858Y2982D01*
X176500Y2716D01*
Y2500D01*
X171750D01*
Y6023D01*
G37*
G36*
Y100700D02*X171817Y100659D01*
X172035Y100569D01*
X172265Y100514D01*
X172500Y100500D01*
X176500Y100507D01*
Y31284D01*
X175858Y31018D01*
X173753Y29728D01*
X171876Y28124D01*
X171750Y27977D01*
Y100700D01*
G37*
G36*
Y123225D02*X172037Y122757D01*
X172599Y122099D01*
X173257Y121537D01*
X173995Y121084D01*
X174795Y120753D01*
X175637Y120551D01*
X176500Y120483D01*
Y111493D01*
X172265Y111486D01*
X172035Y111431D01*
X171817Y111341D01*
X171750Y111300D01*
Y123225D01*
G37*
G36*
Y143225D02*X172037Y142757D01*
X172599Y142099D01*
X173257Y141537D01*
X173995Y141084D01*
X174795Y140753D01*
X175637Y140551D01*
X176500Y140483D01*
Y131517D01*
X175637Y131449D01*
X174795Y131247D01*
X173995Y130916D01*
X173257Y130463D01*
X172599Y129901D01*
X172037Y129243D01*
X171750Y128775D01*
Y143225D01*
G37*
G36*
Y209700D02*X171817Y209659D01*
X172035Y209569D01*
X172265Y209514D01*
X172500Y209500D01*
X176500Y209507D01*
Y200506D01*
X175984Y200482D01*
X175472Y200409D01*
X174969Y200289D01*
X174480Y200122D01*
X174008Y199910D01*
X173907Y199849D01*
X173816Y199772D01*
X173739Y199682D01*
X173677Y199580D01*
X173631Y199471D01*
X173603Y199355D01*
X173594Y199237D01*
X173603Y199119D01*
X173630Y199003D01*
X173676Y198893D01*
X173738Y198792D01*
X173814Y198702D01*
X173905Y198624D01*
X174006Y198562D01*
X174115Y198516D01*
X174231Y198489D01*
X174349Y198479D01*
X174468Y198488D01*
X174583Y198516D01*
X174692Y198563D01*
X175032Y198721D01*
X175388Y198842D01*
X175753Y198930D01*
X176125Y198982D01*
X176500Y199000D01*
Y191000D01*
X176125Y191018D01*
X175753Y191070D01*
X175388Y191158D01*
X175032Y191279D01*
X174690Y191433D01*
X174582Y191480D01*
X174467Y191507D01*
X174349Y191517D01*
X174232Y191507D01*
X174117Y191479D01*
X174008Y191434D01*
X173907Y191372D01*
X173818Y191295D01*
X173741Y191205D01*
X173680Y191105D01*
X173635Y190996D01*
X173607Y190881D01*
X173598Y190763D01*
X173608Y190645D01*
X173635Y190531D01*
X173681Y190422D01*
X173743Y190321D01*
X173819Y190231D01*
X173909Y190155D01*
X174011Y190095D01*
X174480Y189878D01*
X174969Y189711D01*
X175472Y189591D01*
X175984Y189518D01*
X176500Y189494D01*
Y180500D01*
X174000D01*
X173882Y180493D01*
X173768Y180465D01*
X173658Y180420D01*
X173558Y180359D01*
X173468Y180282D01*
X173391Y180192D01*
X173330Y180092D01*
X173285Y179982D01*
X173257Y179868D01*
X173248Y179750D01*
X173257Y179632D01*
X173285Y179518D01*
X173330Y179408D01*
X173391Y179308D01*
X173468Y179218D01*
X173558Y179141D01*
X173658Y179080D01*
X173768Y179035D01*
X173882Y179007D01*
X174000Y179000D01*
X176500D01*
Y171000D01*
X174000D01*
X173882Y170993D01*
X173768Y170965D01*
X173658Y170920D01*
X173558Y170859D01*
X173468Y170782D01*
X173391Y170692D01*
X173330Y170592D01*
X173285Y170482D01*
X173257Y170368D01*
X173248Y170250D01*
X173257Y170132D01*
X173285Y170018D01*
X173330Y169908D01*
X173391Y169808D01*
X173468Y169718D01*
X173558Y169641D01*
X173658Y169580D01*
X173768Y169535D01*
X173882Y169507D01*
X174000Y169500D01*
X176500D01*
Y151517D01*
X175637Y151449D01*
X174795Y151247D01*
X173995Y150916D01*
X173257Y150463D01*
X172599Y149901D01*
X172037Y149243D01*
X171750Y148775D01*
Y171748D01*
X171868Y171757D01*
X171982Y171785D01*
X172092Y171830D01*
X172192Y171891D01*
X172282Y171968D01*
X172359Y172058D01*
X172420Y172158D01*
X172465Y172268D01*
X172493Y172382D01*
X172500Y172500D01*
Y177500D01*
X172493Y177618D01*
X172465Y177732D01*
X172420Y177842D01*
X172359Y177942D01*
X172282Y178032D01*
X172192Y178109D01*
X172092Y178170D01*
X171982Y178215D01*
X171868Y178243D01*
X171750Y178252D01*
Y192298D01*
X171818Y192239D01*
X171920Y192177D01*
X172029Y192131D01*
X172145Y192103D01*
X172263Y192094D01*
X172381Y192103D01*
X172497Y192130D01*
X172607Y192176D01*
X172708Y192238D01*
X172798Y192314D01*
X172876Y192405D01*
X172938Y192506D01*
X172984Y192615D01*
X173011Y192731D01*
X173021Y192849D01*
X173012Y192968D01*
X172984Y193083D01*
X172937Y193192D01*
X172779Y193532D01*
X172658Y193888D01*
X172570Y194253D01*
X172518Y194625D01*
X172500Y195000D01*
X172518Y195375D01*
X172570Y195747D01*
X172658Y196112D01*
X172779Y196468D01*
X172933Y196810D01*
X172980Y196918D01*
X173007Y197033D01*
X173017Y197151D01*
X173007Y197268D01*
X172979Y197383D01*
X172934Y197492D01*
X172872Y197593D01*
X172795Y197682D01*
X172705Y197759D01*
X172605Y197820D01*
X172496Y197865D01*
X172381Y197893D01*
X172263Y197902D01*
X172145Y197892D01*
X172031Y197865D01*
X171922Y197819D01*
X171821Y197757D01*
X171750Y197697D01*
Y209700D01*
G37*
G36*
Y232225D02*X172037Y231757D01*
X172599Y231099D01*
X173257Y230537D01*
X173995Y230084D01*
X174795Y229753D01*
X175637Y229551D01*
X176500Y229483D01*
Y220493D01*
X172265Y220486D01*
X172035Y220431D01*
X171817Y220341D01*
X171750Y220300D01*
Y232225D01*
G37*
G36*
Y292023D02*X171876Y291876D01*
X173753Y290272D01*
X175858Y288982D01*
X176500Y288716D01*
Y240517D01*
X175637Y240449D01*
X174795Y240247D01*
X173995Y239916D01*
X173257Y239463D01*
X172599Y238901D01*
X172037Y238243D01*
X171750Y237775D01*
Y292023D01*
G37*
G36*
Y317500D02*X176500D01*
Y317284D01*
X175858Y317018D01*
X173753Y315728D01*
X171876Y314124D01*
X171750Y313977D01*
Y317500D01*
G37*
G36*
X135496D02*X171750D01*
Y313977D01*
X170272Y312247D01*
X168982Y310142D01*
X168038Y307862D01*
X167461Y305461D01*
X167268Y303000D01*
X167461Y300539D01*
X168038Y298138D01*
X168982Y295858D01*
X170272Y293753D01*
X171750Y292023D01*
Y237775D01*
X171584Y237505D01*
X171253Y236705D01*
X171051Y235863D01*
X170983Y235000D01*
X171051Y234137D01*
X171253Y233295D01*
X171584Y232495D01*
X171750Y232225D01*
Y220300D01*
X171616Y220217D01*
X171436Y220064D01*
X171283Y219884D01*
X171159Y219683D01*
X171069Y219465D01*
X171014Y219235D01*
X171000Y219000D01*
X171014Y210765D01*
X171069Y210535D01*
X171159Y210317D01*
X171283Y210116D01*
X171436Y209936D01*
X171616Y209783D01*
X171750Y209700D01*
Y197697D01*
X171731Y197681D01*
X171655Y197591D01*
X171595Y197489D01*
X171378Y197020D01*
X171211Y196531D01*
X171091Y196028D01*
X171018Y195516D01*
X170994Y195000D01*
X171018Y194484D01*
X171091Y193972D01*
X171211Y193469D01*
X171378Y192980D01*
X171590Y192508D01*
X171651Y192407D01*
X171728Y192316D01*
X171750Y192298D01*
Y178252D01*
X171632Y178243D01*
X171518Y178215D01*
X171408Y178170D01*
X171308Y178109D01*
X171218Y178032D01*
X171141Y177942D01*
X171080Y177842D01*
X171035Y177732D01*
X171007Y177618D01*
X171000Y177500D01*
Y172500D01*
X171007Y172382D01*
X171035Y172268D01*
X171080Y172158D01*
X171141Y172058D01*
X171218Y171968D01*
X171308Y171891D01*
X171408Y171830D01*
X171518Y171785D01*
X171632Y171757D01*
X171750Y171748D01*
Y148775D01*
X171584Y148505D01*
X171253Y147705D01*
X171051Y146863D01*
X170983Y146000D01*
X171051Y145137D01*
X171253Y144295D01*
X171584Y143495D01*
X171750Y143225D01*
Y128775D01*
X171584Y128505D01*
X171253Y127705D01*
X171051Y126863D01*
X170983Y126000D01*
X171051Y125137D01*
X171253Y124295D01*
X171584Y123495D01*
X171750Y123225D01*
Y111300D01*
X171616Y111217D01*
X171436Y111064D01*
X171283Y110884D01*
X171159Y110683D01*
X171069Y110465D01*
X171014Y110235D01*
X171000Y110000D01*
X171014Y101765D01*
X171069Y101535D01*
X171159Y101317D01*
X171283Y101116D01*
X171436Y100936D01*
X171616Y100783D01*
X171750Y100700D01*
Y27977D01*
X170272Y26247D01*
X168982Y24142D01*
X168038Y21862D01*
X167461Y19461D01*
X167268Y17000D01*
X167461Y14539D01*
X168038Y12138D01*
X168982Y9858D01*
X170272Y7753D01*
X171750Y6023D01*
Y2500D01*
X135496D01*
Y78693D01*
X135500Y78693D01*
X135861Y78721D01*
X136213Y78806D01*
X136547Y78944D01*
X136856Y79134D01*
X137131Y79369D01*
X137366Y79644D01*
X137556Y79953D01*
X137694Y80287D01*
X137779Y80639D01*
X137800Y81000D01*
X137779Y81361D01*
X137694Y81713D01*
X137556Y82047D01*
X137366Y82356D01*
X137131Y82631D01*
X137000Y82744D01*
Y85256D01*
X137131Y85369D01*
X137366Y85644D01*
X137556Y85953D01*
X137694Y86287D01*
X137779Y86639D01*
X137800Y87000D01*
X137779Y87361D01*
X137694Y87713D01*
X137556Y88047D01*
X137366Y88356D01*
X137131Y88631D01*
X136856Y88866D01*
X136547Y89056D01*
X136213Y89194D01*
X135861Y89279D01*
X135500Y89307D01*
X135496Y89307D01*
Y96693D01*
X135500Y96693D01*
X135861Y96721D01*
X136213Y96806D01*
X136547Y96944D01*
X136856Y97134D01*
X137131Y97369D01*
X137366Y97644D01*
X137556Y97953D01*
X137694Y98287D01*
X137779Y98639D01*
X137800Y99000D01*
X137779Y99361D01*
X137694Y99713D01*
X137556Y100047D01*
X137366Y100356D01*
X137131Y100631D01*
X137000Y100744D01*
Y117756D01*
X137131Y117869D01*
X137366Y118144D01*
X137556Y118453D01*
X137694Y118787D01*
X137779Y119139D01*
X137800Y119500D01*
X137779Y119861D01*
X137694Y120213D01*
X137556Y120547D01*
X137366Y120856D01*
X137131Y121131D01*
X136856Y121366D01*
X136547Y121556D01*
X136213Y121694D01*
X135861Y121779D01*
X135500Y121807D01*
X135496Y121807D01*
Y215882D01*
X138500Y212879D01*
Y201244D01*
X138369Y201131D01*
X138134Y200856D01*
X137944Y200547D01*
X137806Y200213D01*
X137721Y199861D01*
X137693Y199500D01*
X137721Y199139D01*
X137806Y198787D01*
X137944Y198453D01*
X138134Y198144D01*
X138369Y197869D01*
X138644Y197634D01*
X138953Y197444D01*
X139287Y197306D01*
X139639Y197221D01*
X140000Y197193D01*
X140361Y197221D01*
X140713Y197306D01*
X141047Y197444D01*
X141356Y197634D01*
X141631Y197869D01*
X141866Y198144D01*
X142056Y198453D01*
X142194Y198787D01*
X142279Y199139D01*
X142300Y199500D01*
X142279Y199861D01*
X142194Y200213D01*
X142056Y200547D01*
X141866Y200856D01*
X141631Y201131D01*
X141500Y201244D01*
Y213441D01*
X141505Y213500D01*
X141486Y213735D01*
X141431Y213965D01*
X141341Y214183D01*
X141217Y214384D01*
X141064Y214564D01*
X141019Y214602D01*
X135496Y220125D01*
Y317500D01*
G37*
G36*
X117996D02*X135496D01*
Y220125D01*
X133290Y222331D01*
X133300Y222500D01*
X133279Y222861D01*
X133194Y223213D01*
X133056Y223547D01*
X132866Y223856D01*
X132631Y224131D01*
X132356Y224366D01*
X132047Y224556D01*
X131713Y224694D01*
X131361Y224779D01*
X131000Y224807D01*
X130639Y224779D01*
X130287Y224694D01*
X129953Y224556D01*
X129644Y224366D01*
X129369Y224131D01*
X129134Y223856D01*
X128944Y223547D01*
X128806Y223213D01*
X128721Y222861D01*
X128693Y222500D01*
X128721Y222139D01*
X128806Y221787D01*
X128944Y221453D01*
X129134Y221144D01*
X129369Y220869D01*
X129644Y220634D01*
X129953Y220444D01*
X130287Y220306D01*
X130639Y220221D01*
X131000Y220193D01*
X131172Y220206D01*
X135496Y215882D01*
Y121807D01*
X135139Y121779D01*
X134787Y121694D01*
X134453Y121556D01*
X134144Y121366D01*
X133869Y121131D01*
X133634Y120856D01*
X133444Y120547D01*
X133306Y120213D01*
X133221Y119861D01*
X133193Y119500D01*
X133221Y119139D01*
X133306Y118787D01*
X133444Y118453D01*
X133634Y118144D01*
X133869Y117869D01*
X134000Y117756D01*
Y100744D01*
X133869Y100631D01*
X133634Y100356D01*
X133444Y100047D01*
X133306Y99713D01*
X133221Y99361D01*
X133193Y99000D01*
X133221Y98639D01*
X133306Y98287D01*
X133444Y97953D01*
X133634Y97644D01*
X133869Y97369D01*
X134144Y97134D01*
X134453Y96944D01*
X134787Y96806D01*
X135139Y96721D01*
X135496Y96693D01*
Y89307D01*
X135139Y89279D01*
X134787Y89194D01*
X134453Y89056D01*
X134144Y88866D01*
X133869Y88631D01*
X133634Y88356D01*
X133444Y88047D01*
X133306Y87713D01*
X133221Y87361D01*
X133193Y87000D01*
X133221Y86639D01*
X133306Y86287D01*
X133444Y85953D01*
X133634Y85644D01*
X133869Y85369D01*
X134000Y85256D01*
Y82744D01*
X133869Y82631D01*
X133634Y82356D01*
X133444Y82047D01*
X133306Y81713D01*
X133221Y81361D01*
X133193Y81000D01*
X133221Y80639D01*
X133306Y80287D01*
X133444Y79953D01*
X133634Y79644D01*
X133869Y79369D01*
X134144Y79134D01*
X134453Y78944D01*
X134787Y78806D01*
X135139Y78721D01*
X135496Y78693D01*
Y2500D01*
X117996D01*
Y142254D01*
X118213Y142306D01*
X118547Y142444D01*
X118856Y142634D01*
X119131Y142869D01*
X119366Y143144D01*
X119556Y143453D01*
X119694Y143787D01*
X119779Y144139D01*
X119800Y144500D01*
X119779Y144861D01*
X119694Y145213D01*
X119556Y145547D01*
X119366Y145856D01*
X119131Y146131D01*
X118856Y146366D01*
X118547Y146556D01*
X118213Y146694D01*
X117996Y146746D01*
Y190759D01*
X118144Y190634D01*
X118453Y190444D01*
X118787Y190306D01*
X119139Y190221D01*
X119500Y190193D01*
X119861Y190221D01*
X120213Y190306D01*
X120547Y190444D01*
X120856Y190634D01*
X121131Y190869D01*
X121366Y191144D01*
X121556Y191453D01*
X121694Y191787D01*
X121779Y192139D01*
X121800Y192500D01*
X121779Y192861D01*
X121694Y193213D01*
X121556Y193547D01*
X121366Y193856D01*
X121131Y194131D01*
X120856Y194366D01*
X120547Y194556D01*
X120213Y194694D01*
X119861Y194779D01*
X119500Y194807D01*
X119328Y194794D01*
X118000Y196121D01*
Y203256D01*
X118131Y203369D01*
X118366Y203644D01*
X118556Y203953D01*
X118694Y204287D01*
X118779Y204639D01*
X118800Y205000D01*
X118779Y205361D01*
X118694Y205713D01*
X118556Y206047D01*
X118366Y206356D01*
X118131Y206631D01*
X117996Y206747D01*
Y317500D01*
G37*
G36*
X96996D02*X117996D01*
Y206747D01*
X117856Y206866D01*
X117547Y207056D01*
X117213Y207194D01*
X116861Y207279D01*
X116500Y207307D01*
X116139Y207279D01*
X115787Y207194D01*
X115453Y207056D01*
X115144Y206866D01*
X114869Y206631D01*
X114634Y206356D01*
X114444Y206047D01*
X114306Y205713D01*
X114221Y205361D01*
X114193Y205000D01*
X114221Y204639D01*
X114306Y204287D01*
X114444Y203953D01*
X114634Y203644D01*
X114869Y203369D01*
X115000Y203256D01*
Y195559D01*
X114995Y195500D01*
X115014Y195265D01*
X115069Y195035D01*
X115159Y194817D01*
X115283Y194616D01*
X115436Y194436D01*
X115481Y194398D01*
X117206Y192672D01*
X117193Y192500D01*
X117221Y192139D01*
X117306Y191787D01*
X117444Y191453D01*
X117634Y191144D01*
X117869Y190869D01*
X117996Y190759D01*
Y146746D01*
X117861Y146779D01*
X117500Y146807D01*
X117139Y146779D01*
X116787Y146694D01*
X116453Y146556D01*
X116144Y146366D01*
X115869Y146131D01*
X115756Y146000D01*
X108744D01*
X108631Y146131D01*
X108356Y146366D01*
X108047Y146556D01*
X107713Y146694D01*
X107361Y146779D01*
X107000Y146807D01*
X106639Y146779D01*
X106287Y146694D01*
X105953Y146556D01*
X105644Y146366D01*
X105369Y146131D01*
X105134Y145856D01*
X104944Y145547D01*
X104806Y145213D01*
X104721Y144861D01*
X104693Y144500D01*
X104721Y144139D01*
X104806Y143787D01*
X104944Y143453D01*
X105134Y143144D01*
X105369Y142869D01*
X105644Y142634D01*
X105953Y142444D01*
X106287Y142306D01*
X106520Y142250D01*
X106287Y142194D01*
X105953Y142056D01*
X105644Y141866D01*
X105369Y141631D01*
X105134Y141356D01*
X104944Y141047D01*
X104806Y140713D01*
X104721Y140361D01*
X104693Y140000D01*
X104721Y139639D01*
X104806Y139287D01*
X104944Y138953D01*
X105134Y138644D01*
X105369Y138369D01*
X105644Y138134D01*
X105953Y137944D01*
X106287Y137806D01*
X106639Y137721D01*
X107000Y137693D01*
X107361Y137721D01*
X107713Y137806D01*
X108047Y137944D01*
X108356Y138134D01*
X108631Y138369D01*
X108744Y138500D01*
X113256D01*
X113369Y138369D01*
X113644Y138134D01*
X113953Y137944D01*
X114287Y137806D01*
X114639Y137721D01*
X115000Y137693D01*
X115361Y137721D01*
X115713Y137806D01*
X116047Y137944D01*
X116356Y138134D01*
X116631Y138369D01*
X116866Y138644D01*
X117056Y138953D01*
X117194Y139287D01*
X117279Y139639D01*
X117300Y140000D01*
X117279Y140361D01*
X117194Y140713D01*
X117056Y141047D01*
X116866Y141356D01*
X116631Y141631D01*
X116356Y141866D01*
X116047Y142056D01*
X115713Y142194D01*
X115361Y142279D01*
X115000Y142307D01*
X114639Y142279D01*
X114287Y142194D01*
X113953Y142056D01*
X113644Y141866D01*
X113369Y141631D01*
X113256Y141500D01*
X108744D01*
X108631Y141631D01*
X108356Y141866D01*
X108047Y142056D01*
X107713Y142194D01*
X107480Y142250D01*
X107713Y142306D01*
X108047Y142444D01*
X108356Y142634D01*
X108631Y142869D01*
X108744Y143000D01*
X115756D01*
X115869Y142869D01*
X116144Y142634D01*
X116453Y142444D01*
X116787Y142306D01*
X117139Y142221D01*
X117500Y142193D01*
X117861Y142221D01*
X117996Y142254D01*
Y2500D01*
X96996D01*
Y168259D01*
X97144Y168134D01*
X97453Y167944D01*
X97787Y167806D01*
X98139Y167721D01*
X98500Y167693D01*
X98861Y167721D01*
X99213Y167806D01*
X99547Y167944D01*
X99856Y168134D01*
X100131Y168369D01*
X100366Y168644D01*
X100556Y168953D01*
X100694Y169287D01*
X100779Y169639D01*
X100800Y170000D01*
X100788Y170210D01*
X101000Y170193D01*
X101361Y170221D01*
X101713Y170306D01*
X102047Y170444D01*
X102356Y170634D01*
X102631Y170869D01*
X102866Y171144D01*
X103056Y171453D01*
X103194Y171787D01*
X103279Y172139D01*
X103300Y172500D01*
X103279Y172861D01*
X103194Y173213D01*
X103056Y173547D01*
X102866Y173856D01*
X102631Y174131D01*
X102500Y174244D01*
Y182756D01*
X102631Y182869D01*
X102866Y183144D01*
X103056Y183453D01*
X103194Y183787D01*
X103279Y184139D01*
X103300Y184500D01*
X103279Y184861D01*
X103194Y185213D01*
X103056Y185547D01*
X102866Y185856D01*
X102631Y186131D01*
X102492Y186250D01*
X102631Y186369D01*
X102866Y186644D01*
X103056Y186953D01*
X103194Y187287D01*
X103279Y187639D01*
X103300Y188000D01*
X103279Y188361D01*
X103194Y188713D01*
X103056Y189047D01*
X102866Y189356D01*
X102631Y189631D01*
X102356Y189866D01*
X102138Y190000D01*
X102356Y190134D01*
X102631Y190369D01*
X102866Y190644D01*
X103056Y190953D01*
X103194Y191287D01*
X103279Y191639D01*
X103300Y192000D01*
X103279Y192361D01*
X103194Y192713D01*
X103056Y193047D01*
X102866Y193356D01*
X102631Y193631D01*
X102356Y193866D01*
X102047Y194056D01*
X101713Y194194D01*
X101361Y194279D01*
X101000Y194307D01*
X100639Y194279D01*
X100287Y194194D01*
X99953Y194056D01*
X99644Y193866D01*
X99369Y193631D01*
X99256Y193500D01*
X99059D01*
X99000Y193505D01*
X98765Y193486D01*
X98535Y193431D01*
X98317Y193341D01*
X98116Y193217D01*
X98115Y193217D01*
X97936Y193064D01*
X97898Y193019D01*
X96996Y192118D01*
Y317500D01*
G37*
G36*
X89246D02*X96996D01*
Y192118D01*
X94481Y189602D01*
X94436Y189564D01*
X94283Y189384D01*
X94159Y189183D01*
X94069Y188965D01*
X94014Y188735D01*
X94014Y188735D01*
X93995Y188500D01*
X94000Y188441D01*
Y185575D01*
X93713Y185694D01*
X93361Y185779D01*
X93000Y185807D01*
X92639Y185779D01*
X92287Y185694D01*
X91953Y185556D01*
X91644Y185366D01*
X91369Y185131D01*
X91134Y184856D01*
X90944Y184547D01*
X90806Y184213D01*
X90721Y183861D01*
X90693Y183500D01*
X90721Y183139D01*
X90806Y182787D01*
X90944Y182453D01*
X91134Y182144D01*
X91369Y181869D01*
X91500Y181756D01*
Y171744D01*
X91369Y171631D01*
X91134Y171356D01*
X90944Y171047D01*
X90806Y170713D01*
X90721Y170361D01*
X90693Y170000D01*
X90721Y169639D01*
X90806Y169287D01*
X90944Y168953D01*
X91134Y168644D01*
X91369Y168369D01*
X91644Y168134D01*
X91953Y167944D01*
X92287Y167806D01*
X92639Y167721D01*
X93000Y167693D01*
X93361Y167721D01*
X93713Y167806D01*
X94047Y167944D01*
X94356Y168134D01*
X94631Y168369D01*
X94866Y168644D01*
X95056Y168953D01*
X95194Y169287D01*
X95279Y169639D01*
X95300Y170000D01*
X95288Y170210D01*
X95500Y170193D01*
X95861Y170221D01*
X96213Y170306D01*
X96217Y170308D01*
X96193Y170000D01*
X96221Y169639D01*
X96306Y169287D01*
X96444Y168953D01*
X96634Y168644D01*
X96869Y168369D01*
X96996Y168259D01*
Y2500D01*
X89246D01*
Y97212D01*
X89361Y97221D01*
X89713Y97306D01*
X90047Y97444D01*
X90356Y97634D01*
X90631Y97869D01*
X90866Y98144D01*
X91056Y98453D01*
X91194Y98787D01*
X91279Y99139D01*
X91300Y99500D01*
X91279Y99861D01*
X91194Y100213D01*
X91128Y100372D01*
X91287Y100306D01*
X91639Y100221D01*
X92000Y100193D01*
X92361Y100221D01*
X92713Y100306D01*
X93047Y100444D01*
X93356Y100634D01*
X93631Y100869D01*
X93866Y101144D01*
X94056Y101453D01*
X94194Y101787D01*
X94279Y102139D01*
X94300Y102500D01*
X94279Y102861D01*
X94194Y103213D01*
X94056Y103547D01*
X93866Y103856D01*
X93631Y104131D01*
X93500Y104244D01*
Y117625D01*
X93787Y117506D01*
X94139Y117421D01*
X94500Y117393D01*
X94861Y117421D01*
X95213Y117506D01*
X95547Y117644D01*
X95856Y117834D01*
X96131Y118069D01*
X96366Y118344D01*
X96556Y118653D01*
X96694Y118987D01*
X96779Y119339D01*
X96800Y119700D01*
X96779Y120061D01*
X96694Y120413D01*
X96556Y120747D01*
X96366Y121056D01*
X96131Y121331D01*
X96000Y121444D01*
Y135256D01*
X96131Y135369D01*
X96366Y135644D01*
X96556Y135953D01*
X96694Y136287D01*
X96779Y136639D01*
X96800Y137000D01*
X96779Y137361D01*
X96694Y137713D01*
X96556Y138047D01*
X96366Y138356D01*
X96131Y138631D01*
X95856Y138866D01*
X95547Y139056D01*
X95213Y139194D01*
X94861Y139279D01*
X94500Y139307D01*
X94139Y139279D01*
X93787Y139194D01*
X93500Y139075D01*
Y140756D01*
X93631Y140869D01*
X93866Y141144D01*
X94056Y141453D01*
X94194Y141787D01*
X94279Y142139D01*
X94300Y142500D01*
X94279Y142861D01*
X94194Y143213D01*
X94056Y143547D01*
X93866Y143856D01*
X93631Y144131D01*
X93356Y144366D01*
X93047Y144556D01*
X92713Y144694D01*
X92361Y144779D01*
X92000Y144807D01*
X91639Y144779D01*
X91287Y144694D01*
X91282Y144692D01*
X91300Y145000D01*
X91279Y145361D01*
X91194Y145713D01*
X91056Y146047D01*
X90866Y146356D01*
X90631Y146631D01*
X90356Y146866D01*
X90047Y147056D01*
X89713Y147194D01*
X89361Y147279D01*
X89246Y147288D01*
Y317500D01*
G37*
G36*
X27993D02*X89246D01*
Y147288D01*
X89000Y147307D01*
X88639Y147279D01*
X88287Y147194D01*
X87953Y147056D01*
X87644Y146866D01*
X87369Y146631D01*
X87134Y146356D01*
X86944Y146047D01*
X86806Y145713D01*
X86721Y145361D01*
X86693Y145000D01*
X86709Y144791D01*
X86500Y144807D01*
X86139Y144779D01*
X85787Y144694D01*
X85453Y144556D01*
X85144Y144366D01*
X84869Y144131D01*
X84634Y143856D01*
X84444Y143547D01*
X84306Y143213D01*
X84221Y142861D01*
X84193Y142500D01*
X84221Y142139D01*
X84306Y141787D01*
X84444Y141453D01*
X84634Y141144D01*
X84869Y140869D01*
X85000Y140756D01*
Y139075D01*
X84713Y139194D01*
X84361Y139279D01*
X84000Y139307D01*
X83639Y139279D01*
X83287Y139194D01*
X82953Y139056D01*
X82644Y138866D01*
X82369Y138631D01*
X82134Y138356D01*
X81944Y138047D01*
X81806Y137713D01*
X81721Y137361D01*
X81693Y137000D01*
X81721Y136639D01*
X81806Y136287D01*
X81944Y135953D01*
X82134Y135644D01*
X82369Y135369D01*
X82500Y135256D01*
Y128244D01*
X82369Y128131D01*
X82134Y127856D01*
X81944Y127547D01*
X81806Y127213D01*
X81721Y126861D01*
X81693Y126500D01*
X81721Y126139D01*
X81806Y125787D01*
X81944Y125453D01*
X82134Y125144D01*
X82369Y124869D01*
X82644Y124634D01*
X82953Y124444D01*
X83287Y124306D01*
X83639Y124221D01*
X84000Y124193D01*
X84361Y124221D01*
X84713Y124306D01*
X85000Y124425D01*
Y104244D01*
X84869Y104131D01*
X84634Y103856D01*
X84444Y103547D01*
X84306Y103213D01*
X84221Y102861D01*
X84193Y102500D01*
X84221Y102139D01*
X84306Y101787D01*
X84444Y101453D01*
X84634Y101144D01*
X84869Y100869D01*
X85144Y100634D01*
X85453Y100444D01*
X85787Y100306D01*
X86139Y100221D01*
X86500Y100193D01*
X86808Y100217D01*
X86806Y100213D01*
X86721Y99861D01*
X86693Y99500D01*
X86721Y99139D01*
X86806Y98787D01*
X86944Y98453D01*
X87134Y98144D01*
X87369Y97869D01*
X87644Y97634D01*
X87953Y97444D01*
X88287Y97306D01*
X88639Y97221D01*
X89000Y97193D01*
X89246Y97212D01*
Y2500D01*
X27993D01*
Y5763D01*
X28124Y5876D01*
X29728Y7753D01*
X31018Y9858D01*
X31962Y12138D01*
X32539Y14539D01*
X32684Y17000D01*
X32539Y19461D01*
X31962Y21862D01*
X31018Y24142D01*
X29728Y26247D01*
X28124Y28124D01*
X27993Y28237D01*
Y48305D01*
X28416Y48995D01*
X28747Y49795D01*
X28949Y50637D01*
X29000Y51500D01*
X28949Y52363D01*
X28747Y53205D01*
X28416Y54005D01*
X27993Y54695D01*
Y66080D01*
X28183Y66159D01*
X28384Y66283D01*
X28564Y66436D01*
X28717Y66616D01*
X28841Y66817D01*
X28931Y67035D01*
X28986Y67265D01*
X29000Y67500D01*
X28986Y75735D01*
X28931Y75965D01*
X28841Y76183D01*
X28717Y76384D01*
X28564Y76564D01*
X28384Y76717D01*
X28183Y76841D01*
X27993Y76920D01*
Y88305D01*
X28416Y88995D01*
X28747Y89795D01*
X28949Y90637D01*
X29000Y91500D01*
X28949Y92363D01*
X28747Y93205D01*
X28416Y94005D01*
X27993Y94695D01*
Y106080D01*
X28183Y106159D01*
X28384Y106283D01*
X28564Y106436D01*
X28717Y106616D01*
X28841Y106817D01*
X28931Y107035D01*
X28986Y107265D01*
X29000Y107500D01*
X28986Y115735D01*
X28931Y115965D01*
X28841Y116183D01*
X28717Y116384D01*
X28564Y116564D01*
X28384Y116717D01*
X28183Y116841D01*
X27993Y116920D01*
Y143805D01*
X28416Y144495D01*
X28747Y145295D01*
X28949Y146137D01*
X29000Y147000D01*
X28949Y147863D01*
X28747Y148705D01*
X28416Y149505D01*
X27993Y150195D01*
Y163805D01*
X28416Y164495D01*
X28747Y165295D01*
X28949Y166137D01*
X29000Y167000D01*
X28949Y167863D01*
X28747Y168705D01*
X28416Y169505D01*
X27993Y170195D01*
Y181580D01*
X28183Y181659D01*
X28384Y181783D01*
X28564Y181936D01*
X28717Y182116D01*
X28841Y182317D01*
X28931Y182535D01*
X28986Y182765D01*
X29000Y183000D01*
X28986Y191235D01*
X28931Y191465D01*
X28841Y191683D01*
X28717Y191884D01*
X28564Y192064D01*
X28384Y192217D01*
X28183Y192341D01*
X27993Y192420D01*
Y203805D01*
X28416Y204495D01*
X28747Y205295D01*
X28949Y206137D01*
X29000Y207000D01*
X28949Y207863D01*
X28747Y208705D01*
X28416Y209505D01*
X27993Y210195D01*
Y221580D01*
X28183Y221659D01*
X28384Y221783D01*
X28564Y221936D01*
X28717Y222116D01*
X28841Y222317D01*
X28931Y222535D01*
X28986Y222765D01*
X29000Y223000D01*
X28986Y231235D01*
X28931Y231465D01*
X28841Y231683D01*
X28717Y231884D01*
X28564Y232064D01*
X28384Y232217D01*
X28183Y232341D01*
X27993Y232420D01*
Y251645D01*
X28078Y251681D01*
X28179Y251743D01*
X28269Y251819D01*
X28345Y251909D01*
X28405Y252011D01*
X28622Y252480D01*
X28789Y252969D01*
X28909Y253472D01*
X28982Y253984D01*
X29006Y254500D01*
X28982Y255016D01*
X28909Y255528D01*
X28789Y256031D01*
X28622Y256520D01*
X28410Y256992D01*
X28349Y257093D01*
X28272Y257184D01*
X28182Y257261D01*
X28080Y257323D01*
X27993Y257360D01*
Y269080D01*
X28183Y269159D01*
X28384Y269283D01*
X28564Y269436D01*
X28717Y269616D01*
X28841Y269817D01*
X28931Y270035D01*
X28986Y270265D01*
X29000Y270500D01*
X28986Y278735D01*
X28931Y278965D01*
X28841Y279183D01*
X28717Y279384D01*
X28564Y279564D01*
X28384Y279717D01*
X28183Y279841D01*
X27993Y279920D01*
Y291763D01*
X28124Y291876D01*
X29728Y293753D01*
X31018Y295858D01*
X31962Y298138D01*
X32539Y300539D01*
X32684Y303000D01*
X32539Y305461D01*
X31962Y307862D01*
X31018Y310142D01*
X29728Y312247D01*
X28124Y314124D01*
X27993Y314237D01*
Y317500D01*
G37*
G36*
Y279920D02*X27965Y279931D01*
X27735Y279986D01*
X27500Y280000D01*
X23500Y279993D01*
Y288716D01*
X24142Y288982D01*
X26247Y290272D01*
X27993Y291763D01*
Y279920D01*
G37*
G36*
Y232420D02*X27965Y232431D01*
X27735Y232486D01*
X27500Y232500D01*
X23500Y232493D01*
Y248994D01*
X24016Y249018D01*
X24528Y249091D01*
X25031Y249211D01*
X25520Y249378D01*
X25992Y249590D01*
X26093Y249651D01*
X26184Y249728D01*
X26261Y249818D01*
X26323Y249920D01*
X26369Y250029D01*
X26397Y250145D01*
X26406Y250263D01*
X26397Y250381D01*
X26370Y250497D01*
X26324Y250607D01*
X26262Y250708D01*
X26186Y250798D01*
X26095Y250876D01*
X25994Y250938D01*
X25885Y250984D01*
X25769Y251011D01*
X25651Y251021D01*
X25532Y251012D01*
X25417Y250984D01*
X25308Y250937D01*
X24968Y250779D01*
X24612Y250658D01*
X24247Y250570D01*
X23875Y250518D01*
X23500Y250500D01*
Y258500D01*
X23875Y258482D01*
X24247Y258430D01*
X24612Y258342D01*
X24968Y258221D01*
X25310Y258067D01*
X25418Y258020D01*
X25533Y257993D01*
X25651Y257983D01*
X25768Y257993D01*
X25883Y258021D01*
X25992Y258066D01*
X26093Y258128D01*
X26182Y258205D01*
X26259Y258295D01*
X26320Y258395D01*
X26365Y258504D01*
X26393Y258619D01*
X26402Y258737D01*
X26392Y258855D01*
X26365Y258969D01*
X26319Y259078D01*
X26257Y259179D01*
X26181Y259269D01*
X26091Y259345D01*
X25989Y259405D01*
X25520Y259622D01*
X25031Y259789D01*
X24528Y259909D01*
X24016Y259982D01*
X23500Y260006D01*
Y269007D01*
X27735Y269014D01*
X27965Y269069D01*
X27993Y269080D01*
Y257360D01*
X27971Y257369D01*
X27855Y257397D01*
X27737Y257406D01*
X27619Y257397D01*
X27503Y257370D01*
X27393Y257324D01*
X27292Y257262D01*
X27202Y257186D01*
X27124Y257095D01*
X27062Y256994D01*
X27016Y256885D01*
X26989Y256769D01*
X26979Y256651D01*
X26988Y256532D01*
X27016Y256417D01*
X27063Y256308D01*
X27221Y255968D01*
X27342Y255612D01*
X27430Y255247D01*
X27482Y254875D01*
X27500Y254500D01*
X27482Y254125D01*
X27430Y253753D01*
X27342Y253388D01*
X27221Y253032D01*
X27067Y252690D01*
X27020Y252582D01*
X26993Y252467D01*
X26983Y252349D01*
X26993Y252232D01*
X27021Y252117D01*
X27066Y252008D01*
X27128Y251907D01*
X27205Y251818D01*
X27295Y251741D01*
X27395Y251680D01*
X27504Y251635D01*
X27619Y251607D01*
X27737Y251598D01*
X27855Y251608D01*
X27969Y251635D01*
X27993Y251645D01*
Y232420D01*
G37*
G36*
Y210195D02*X27963Y210243D01*
X27401Y210901D01*
X26743Y211463D01*
X26005Y211916D01*
X25205Y212247D01*
X24363Y212449D01*
X23500Y212517D01*
Y221507D01*
X27735Y221514D01*
X27965Y221569D01*
X27993Y221580D01*
Y210195D01*
G37*
G36*
Y192420D02*X27965Y192431D01*
X27735Y192486D01*
X27500Y192500D01*
X23500Y192493D01*
Y201483D01*
X24363Y201551D01*
X25205Y201753D01*
X26005Y202084D01*
X26743Y202537D01*
X27401Y203099D01*
X27963Y203757D01*
X27993Y203805D01*
Y192420D01*
G37*
G36*
Y170195D02*X27963Y170243D01*
X27401Y170901D01*
X26743Y171463D01*
X26005Y171916D01*
X25205Y172247D01*
X24363Y172449D01*
X23500Y172517D01*
Y181507D01*
X27735Y181514D01*
X27965Y181569D01*
X27993Y181580D01*
Y170195D01*
G37*
G36*
Y150195D02*X27963Y150243D01*
X27401Y150901D01*
X26743Y151463D01*
X26005Y151916D01*
X25205Y152247D01*
X24363Y152449D01*
X23500Y152517D01*
Y161483D01*
X24363Y161551D01*
X25205Y161753D01*
X26005Y162084D01*
X26743Y162537D01*
X27401Y163099D01*
X27963Y163757D01*
X27993Y163805D01*
Y150195D01*
G37*
G36*
Y116920D02*X27965Y116931D01*
X27735Y116986D01*
X27500Y117000D01*
X23500Y116993D01*
Y141483D01*
X24363Y141551D01*
X25205Y141753D01*
X26005Y142084D01*
X26743Y142537D01*
X27401Y143099D01*
X27963Y143757D01*
X27993Y143805D01*
Y116920D01*
G37*
G36*
Y94695D02*X27963Y94743D01*
X27401Y95401D01*
X26743Y95963D01*
X26005Y96416D01*
X25205Y96747D01*
X24363Y96949D01*
X23500Y97017D01*
Y106007D01*
X27735Y106014D01*
X27965Y106069D01*
X27993Y106080D01*
Y94695D01*
G37*
G36*
Y76920D02*X27965Y76931D01*
X27735Y76986D01*
X27500Y77000D01*
X23500Y76993D01*
Y85983D01*
X24363Y86051D01*
X25205Y86253D01*
X26005Y86584D01*
X26743Y87037D01*
X27401Y87599D01*
X27963Y88257D01*
X27993Y88305D01*
Y76920D01*
G37*
G36*
Y54695D02*X27963Y54743D01*
X27401Y55401D01*
X26743Y55963D01*
X26005Y56416D01*
X25205Y56747D01*
X24363Y56949D01*
X23500Y57017D01*
Y66007D01*
X27735Y66014D01*
X27965Y66069D01*
X27993Y66080D01*
Y54695D01*
G37*
G36*
Y28237D02*X26247Y29728D01*
X24142Y31018D01*
X23500Y31284D01*
Y45983D01*
X24363Y46051D01*
X25205Y46253D01*
X26005Y46584D01*
X26743Y47037D01*
X27401Y47599D01*
X27963Y48257D01*
X27993Y48305D01*
Y28237D01*
G37*
G36*
Y2500D02*X23500D01*
Y2716D01*
X24142Y2982D01*
X26247Y4272D01*
X27993Y5763D01*
Y2500D01*
G37*
G36*
X23500Y317500D02*X27993D01*
Y314237D01*
X26247Y315728D01*
X24142Y317018D01*
X23500Y317284D01*
Y317500D01*
G37*
G36*
X19007Y66080D02*X19035Y66069D01*
X19265Y66014D01*
X19500Y66000D01*
X23500Y66007D01*
Y57017D01*
X22637Y56949D01*
X21795Y56747D01*
X20995Y56416D01*
X20257Y55963D01*
X19599Y55401D01*
X19037Y54743D01*
X19007Y54695D01*
Y66080D01*
G37*
G36*
Y88305D02*X19037Y88257D01*
X19599Y87599D01*
X20257Y87037D01*
X20995Y86584D01*
X21795Y86253D01*
X22637Y86051D01*
X23500Y85983D01*
Y76993D01*
X19265Y76986D01*
X19035Y76931D01*
X19007Y76920D01*
Y88305D01*
G37*
G36*
Y106080D02*X19035Y106069D01*
X19265Y106014D01*
X19500Y106000D01*
X23500Y106007D01*
Y97017D01*
X22637Y96949D01*
X21795Y96747D01*
X20995Y96416D01*
X20257Y95963D01*
X19599Y95401D01*
X19037Y94743D01*
X19007Y94695D01*
Y106080D01*
G37*
G36*
Y143805D02*X19037Y143757D01*
X19599Y143099D01*
X20257Y142537D01*
X20995Y142084D01*
X21795Y141753D01*
X22637Y141551D01*
X23500Y141483D01*
Y116993D01*
X19265Y116986D01*
X19035Y116931D01*
X19007Y116920D01*
Y143805D01*
G37*
G36*
Y163805D02*X19037Y163757D01*
X19599Y163099D01*
X20257Y162537D01*
X20995Y162084D01*
X21795Y161753D01*
X22637Y161551D01*
X23500Y161483D01*
Y152517D01*
X22637Y152449D01*
X21795Y152247D01*
X20995Y151916D01*
X20257Y151463D01*
X19599Y150901D01*
X19037Y150243D01*
X19007Y150195D01*
Y163805D01*
G37*
G36*
Y181580D02*X19035Y181569D01*
X19265Y181514D01*
X19500Y181500D01*
X23500Y181507D01*
Y172517D01*
X22637Y172449D01*
X21795Y172247D01*
X20995Y171916D01*
X20257Y171463D01*
X19599Y170901D01*
X19037Y170243D01*
X19007Y170195D01*
Y181580D01*
G37*
G36*
Y203805D02*X19037Y203757D01*
X19599Y203099D01*
X20257Y202537D01*
X20995Y202084D01*
X21795Y201753D01*
X22637Y201551D01*
X23500Y201483D01*
Y192493D01*
X19265Y192486D01*
X19035Y192431D01*
X19007Y192420D01*
Y203805D01*
G37*
G36*
Y221580D02*X19035Y221569D01*
X19265Y221514D01*
X19500Y221500D01*
X23500Y221507D01*
Y212517D01*
X22637Y212449D01*
X21795Y212247D01*
X20995Y211916D01*
X20257Y211463D01*
X19599Y210901D01*
X19037Y210243D01*
X19007Y210195D01*
Y221580D01*
G37*
G36*
Y269080D02*X19035Y269069D01*
X19265Y269014D01*
X19500Y269000D01*
X23500Y269007D01*
Y260006D01*
X23500D01*
X22984Y259982D01*
X22472Y259909D01*
X21969Y259789D01*
X21480Y259622D01*
X21008Y259410D01*
X20907Y259349D01*
X20816Y259272D01*
X20739Y259182D01*
X20677Y259080D01*
X20631Y258971D01*
X20603Y258855D01*
X20594Y258737D01*
X20603Y258619D01*
X20630Y258503D01*
X20676Y258393D01*
X20738Y258292D01*
X20814Y258202D01*
X20905Y258124D01*
X21006Y258062D01*
X21115Y258016D01*
X21231Y257989D01*
X21349Y257979D01*
X21468Y257988D01*
X21583Y258016D01*
X21692Y258063D01*
X22032Y258221D01*
X22388Y258342D01*
X22753Y258430D01*
X23125Y258482D01*
X23500Y258500D01*
Y250500D01*
X23125Y250518D01*
X22753Y250570D01*
X22388Y250658D01*
X22032Y250779D01*
X21690Y250933D01*
X21582Y250980D01*
X21467Y251007D01*
X21349Y251017D01*
X21232Y251007D01*
X21117Y250979D01*
X21008Y250934D01*
X20907Y250872D01*
X20818Y250795D01*
X20741Y250705D01*
X20680Y250605D01*
X20635Y250496D01*
X20607Y250381D01*
X20598Y250263D01*
X20608Y250145D01*
X20635Y250031D01*
X20681Y249922D01*
X20743Y249821D01*
X20819Y249731D01*
X20909Y249655D01*
X21011Y249595D01*
X21480Y249378D01*
X21969Y249211D01*
X22472Y249091D01*
X22984Y249018D01*
X23500Y248994D01*
X23500D01*
Y232493D01*
X19265Y232486D01*
X19035Y232431D01*
X19007Y232420D01*
Y251640D01*
X19029Y251631D01*
X19145Y251603D01*
X19263Y251594D01*
X19381Y251603D01*
X19497Y251630D01*
X19607Y251676D01*
X19708Y251738D01*
X19798Y251814D01*
X19876Y251905D01*
X19938Y252006D01*
X19984Y252115D01*
X20011Y252231D01*
X20021Y252349D01*
X20012Y252468D01*
X19984Y252583D01*
X19937Y252692D01*
X19779Y253032D01*
X19658Y253388D01*
X19570Y253753D01*
X19518Y254125D01*
X19500Y254500D01*
X19518Y254875D01*
X19570Y255247D01*
X19658Y255612D01*
X19779Y255968D01*
X19933Y256310D01*
X19980Y256418D01*
X20007Y256533D01*
X20017Y256651D01*
X20007Y256768D01*
X19979Y256883D01*
X19934Y256992D01*
X19872Y257093D01*
X19795Y257182D01*
X19705Y257259D01*
X19605Y257320D01*
X19496Y257365D01*
X19381Y257393D01*
X19263Y257402D01*
X19145Y257392D01*
X19031Y257365D01*
X19007Y257355D01*
Y269080D01*
G37*
G36*
Y287426D02*X19461Y287461D01*
X21862Y288038D01*
X23500Y288716D01*
Y279993D01*
X19265Y279986D01*
X19035Y279931D01*
X19007Y279920D01*
Y287426D01*
G37*
G36*
X23500Y31284D02*X21862Y31962D01*
X19461Y32539D01*
X19007Y32574D01*
Y48305D01*
X19037Y48257D01*
X19599Y47599D01*
X20257Y47037D01*
X20995Y46584D01*
X21795Y46253D01*
X22637Y46051D01*
X23500Y45983D01*
Y31284D01*
G37*
G36*
X19007Y32574D02*X17000Y32732D01*
X14539Y32539D01*
X12138Y31962D01*
X9858Y31018D01*
X7753Y29728D01*
X5876Y28124D01*
X4272Y26247D01*
X2982Y24142D01*
X2500Y22978D01*
Y297022D01*
X2982Y295858D01*
X4272Y293753D01*
X5876Y291876D01*
X7753Y290272D01*
X9858Y288982D01*
X12138Y288038D01*
X14539Y287461D01*
X17000Y287268D01*
X19007Y287426D01*
Y279920D01*
X18817Y279841D01*
X18616Y279717D01*
X18436Y279564D01*
X18283Y279384D01*
X18159Y279183D01*
X18069Y278965D01*
X18014Y278735D01*
X18000Y278500D01*
X18014Y270265D01*
X18069Y270035D01*
X18159Y269817D01*
X18283Y269616D01*
X18436Y269436D01*
X18616Y269283D01*
X18817Y269159D01*
X19007Y269080D01*
Y257355D01*
X18922Y257319D01*
X18821Y257257D01*
X18731Y257181D01*
X18655Y257091D01*
X18595Y256989D01*
X18378Y256520D01*
X18211Y256031D01*
X18091Y255528D01*
X18018Y255016D01*
X17994Y254500D01*
X18018Y253984D01*
X18091Y253472D01*
X18211Y252969D01*
X18378Y252480D01*
X18590Y252008D01*
X18651Y251907D01*
X18728Y251816D01*
X18818Y251739D01*
X18920Y251677D01*
X19007Y251640D01*
Y232420D01*
X18817Y232341D01*
X18616Y232217D01*
X18436Y232064D01*
X18283Y231884D01*
X18159Y231683D01*
X18069Y231465D01*
X18014Y231235D01*
X18000Y231000D01*
X18014Y222765D01*
X18069Y222535D01*
X18159Y222317D01*
X18283Y222116D01*
X18436Y221936D01*
X18616Y221783D01*
X18817Y221659D01*
X19007Y221580D01*
Y210195D01*
X18584Y209505D01*
X18253Y208705D01*
X18051Y207863D01*
X17983Y207000D01*
X18051Y206137D01*
X18253Y205295D01*
X18584Y204495D01*
X19007Y203805D01*
Y192420D01*
X18817Y192341D01*
X18616Y192217D01*
X18436Y192064D01*
X18283Y191884D01*
X18159Y191683D01*
X18069Y191465D01*
X18014Y191235D01*
X18000Y191000D01*
X18014Y182765D01*
X18069Y182535D01*
X18159Y182317D01*
X18283Y182116D01*
X18436Y181936D01*
X18616Y181783D01*
X18817Y181659D01*
X19007Y181580D01*
Y170195D01*
X18584Y169505D01*
X18253Y168705D01*
X18051Y167863D01*
X17983Y167000D01*
X18051Y166137D01*
X18253Y165295D01*
X18584Y164495D01*
X19007Y163805D01*
Y150195D01*
X18584Y149505D01*
X18253Y148705D01*
X18051Y147863D01*
X17983Y147000D01*
X18051Y146137D01*
X18253Y145295D01*
X18584Y144495D01*
X19007Y143805D01*
Y116920D01*
X18817Y116841D01*
X18616Y116717D01*
X18436Y116564D01*
X18283Y116384D01*
X18159Y116183D01*
X18069Y115965D01*
X18014Y115735D01*
X18000Y115500D01*
X18014Y107265D01*
X18069Y107035D01*
X18159Y106817D01*
X18283Y106616D01*
X18436Y106436D01*
X18616Y106283D01*
X18817Y106159D01*
X19007Y106080D01*
Y94695D01*
X18584Y94005D01*
X18253Y93205D01*
X18051Y92363D01*
X17983Y91500D01*
X18051Y90637D01*
X18253Y89795D01*
X18584Y88995D01*
X19007Y88305D01*
Y76920D01*
X18817Y76841D01*
X18616Y76717D01*
X18436Y76564D01*
X18283Y76384D01*
X18159Y76183D01*
X18069Y75965D01*
X18014Y75735D01*
X18000Y75500D01*
X18014Y67265D01*
X18069Y67035D01*
X18159Y66817D01*
X18283Y66616D01*
X18436Y66436D01*
X18616Y66283D01*
X18817Y66159D01*
X19007Y66080D01*
Y54695D01*
X18584Y54005D01*
X18253Y53205D01*
X18051Y52363D01*
X17983Y51500D01*
X18051Y50637D01*
X18253Y49795D01*
X18584Y48995D01*
X19007Y48305D01*
Y32574D01*
G37*
G36*
X23500Y2500D02*X22978D01*
X23500Y2716D01*
Y2500D01*
G37*
G36*
X22978Y317500D02*X23500D01*
Y317284D01*
X22978Y317500D01*
G37*
G54D23*X135500Y119500D02*Y99000D01*
Y81000D02*Y87000D01*
X107000Y144500D02*X117500D01*
X115000Y140000D02*X107000D01*
X84000Y137000D02*Y126500D01*
X86500Y102500D02*Y142500D01*
X89000Y99500D02*Y145000D01*
X92000Y102500D02*Y142500D01*
X94500Y137000D02*Y121000D01*
Y119700D02*Y122700D01*
X119500Y192500D02*X116500Y195500D01*
Y205000D01*
X140000Y199500D02*Y213500D01*
X131000Y222500D01*
X101000Y184500D02*Y172500D01*
X98500Y170000D02*Y185500D01*
X95500Y188500D02*Y172500D01*
X93000Y183500D02*Y170000D01*
X98500Y185500D02*X101000Y188000D01*
Y192000D02*X99000D01*
X95500Y188500D01*
X179500Y161000D02*X193000D01*
G54D24*X17000Y17000D03*
G54D22*G36*
X19500Y75500D02*Y67500D01*
X27500D01*
Y75500D01*
X19500D01*
G37*
G54D25*X23500Y51500D03*
G54D22*G36*
X172500Y110000D02*Y102000D01*
X180500D01*
Y110000D01*
X172500D01*
G37*
G54D25*X176500Y126000D03*
G54D24*X183000Y17000D03*
G54D22*G36*
X19500Y115500D02*Y107500D01*
X27500D01*
Y115500D01*
X19500D01*
G37*
G54D25*X23500Y91500D03*
G54D22*G36*
X19500Y191000D02*Y183000D01*
X27500D01*
Y191000D01*
X19500D01*
G37*
G54D25*X23500Y167000D03*
Y147000D03*
G54D22*G36*
X172500Y179000D02*Y171000D01*
X180500D01*
Y179000D01*
X172500D01*
G37*
G36*
X19500Y231000D02*Y223000D01*
X27500D01*
Y231000D01*
X19500D01*
G37*
G54D25*X23500Y207000D03*
G54D22*G36*
X19500Y278500D02*Y270500D01*
X27500D01*
Y278500D01*
X19500D01*
G37*
G54D25*X23500Y254500D03*
G54D24*X17000Y303000D03*
G54D25*X176500Y146000D03*
G54D24*X183000Y303000D03*
G54D22*G36*
X172500Y219000D02*Y211000D01*
X180500D01*
Y219000D01*
X172500D01*
G37*
G54D25*X176500Y235000D03*
Y195000D03*
G54D26*X67000Y219500D03*
Y214500D03*
Y209500D03*
X48000Y196500D03*
Y177000D03*
X48500Y118000D03*
X60000D03*
X45000D03*
X69500Y29500D03*
X92500Y267000D03*
Y271000D03*
Y259000D03*
Y263000D03*
Y283000D03*
Y279000D03*
Y275000D03*
X65500Y266500D03*
Y258500D03*
Y262500D03*
X116500Y89500D03*
Y78500D03*
X130800Y129700D03*
X135600D03*
X135500Y119500D03*
Y99000D03*
Y87000D03*
Y81000D03*
X129500Y29500D03*
X123900Y193000D03*
X130200Y205900D03*
X140000Y199500D03*
X130300Y193000D03*
X116500Y205000D03*
X126000Y253500D03*
X131000D03*
Y222500D03*
X177500Y253500D03*
X181000D03*
X127000Y166500D03*
X107000Y140000D03*
X115000D03*
X117500Y144500D03*
X107000D03*
X119500Y192500D03*
X101000Y188000D03*
Y192000D03*
Y184500D03*
Y172500D03*
X98500Y170000D03*
X95500Y172500D03*
X93000Y170000D03*
X193000Y161000D03*
X179500D03*
X93000Y183500D03*
X92000Y142500D03*
X94500Y137000D03*
X84000D03*
Y126500D03*
X86500Y142500D03*
Y102500D03*
X81000Y159500D03*
Y149500D03*
X89000Y145000D03*
Y99500D03*
X92000Y102500D03*
X94500Y119700D03*
X99500Y29500D03*
G54D27*G54D28*G54D29*G54D28*G54D29*G54D28*G54D29*G54D28*G54D29*M02*
