G04 start of page 2 for group 0 idx 0 *
G04 Title: (unknown), component *
G04 Creator: pcb 4.0.2 *
G04 CreationDate: Mon Jan 25 18:11:42 2021 UTC *
G04 For: ndholmes *
G04 Format: Gerber/RS-274X *
G04 PCB-Dimensions (mil): 3000.00 3200.00 *
G04 PCB-Coordinate-Origin: lower left *
%MOIN*%
%FSLAX25Y25*%
%LNTOP*%
%ADD21C,0.0480*%
%ADD20C,0.1285*%
%ADD19C,0.0120*%
%ADD18C,0.0260*%
%ADD17C,0.0800*%
%ADD16C,0.2937*%
%ADD15C,0.0100*%
%ADD14C,0.0250*%
%ADD13C,0.0400*%
%ADD12C,0.0600*%
%ADD11C,0.0001*%
G54D11*G36*
X116000Y282000D02*X103500D01*
Y313500D01*
X116000D01*
Y282000D01*
G37*
G36*
X121000Y313500D02*X132000D01*
Y278000D01*
X121000D01*
Y313500D01*
G37*
G36*
X121500D02*X160500D01*
Y261000D01*
X121500D01*
Y313500D01*
G37*
G36*
X142000Y286000D02*X160500D01*
Y208000D01*
X142000D01*
Y286000D01*
G37*
G36*
X181250Y243500D02*X184500D01*
Y206500D01*
X181250D01*
Y211748D01*
X181368Y211757D01*
X181482Y211785D01*
X181592Y211830D01*
X181692Y211891D01*
X181782Y211968D01*
X181859Y212058D01*
X181920Y212158D01*
X181965Y212268D01*
X181993Y212382D01*
X182000Y212500D01*
Y217500D01*
X181993Y217618D01*
X181965Y217732D01*
X181920Y217842D01*
X181859Y217942D01*
X181782Y218032D01*
X181692Y218109D01*
X181592Y218170D01*
X181482Y218215D01*
X181368Y218243D01*
X181250Y218252D01*
Y232303D01*
X181269Y232319D01*
X181345Y232409D01*
X181405Y232511D01*
X181622Y232980D01*
X181789Y233469D01*
X181909Y233972D01*
X181982Y234484D01*
X182006Y235000D01*
X181982Y235516D01*
X181909Y236028D01*
X181789Y236531D01*
X181622Y237020D01*
X181410Y237492D01*
X181349Y237593D01*
X181272Y237684D01*
X181250Y237702D01*
Y243500D01*
G37*
G36*
X176500D02*X181250D01*
Y237702D01*
X181182Y237761D01*
X181080Y237823D01*
X180971Y237869D01*
X180855Y237897D01*
X180737Y237906D01*
X180619Y237897D01*
X180503Y237870D01*
X180393Y237824D01*
X180292Y237762D01*
X180202Y237686D01*
X180124Y237595D01*
X180062Y237494D01*
X180016Y237385D01*
X179989Y237269D01*
X179979Y237151D01*
X179988Y237032D01*
X180016Y236917D01*
X180063Y236808D01*
X180221Y236468D01*
X180342Y236112D01*
X180430Y235747D01*
X180482Y235375D01*
X180500Y235000D01*
X180482Y234625D01*
X180430Y234253D01*
X180342Y233888D01*
X180221Y233532D01*
X180067Y233190D01*
X180020Y233082D01*
X179993Y232967D01*
X179983Y232849D01*
X179993Y232732D01*
X180021Y232617D01*
X180066Y232508D01*
X180128Y232407D01*
X180205Y232318D01*
X180295Y232241D01*
X180395Y232180D01*
X180504Y232135D01*
X180619Y232107D01*
X180737Y232098D01*
X180855Y232108D01*
X180969Y232135D01*
X181078Y232181D01*
X181179Y232243D01*
X181250Y232303D01*
Y218252D01*
X181132Y218243D01*
X181018Y218215D01*
X180908Y218170D01*
X180808Y218109D01*
X180718Y218032D01*
X180641Y217942D01*
X180580Y217842D01*
X180535Y217732D01*
X180507Y217618D01*
X180500Y217500D01*
Y212500D01*
X180507Y212382D01*
X180535Y212268D01*
X180580Y212158D01*
X180641Y212058D01*
X180718Y211968D01*
X180808Y211891D01*
X180908Y211830D01*
X181018Y211785D01*
X181132Y211757D01*
X181250Y211748D01*
Y206500D01*
X176500D01*
Y209500D01*
X179000D01*
X179118Y209507D01*
X179232Y209535D01*
X179342Y209580D01*
X179442Y209641D01*
X179532Y209718D01*
X179609Y209808D01*
X179670Y209908D01*
X179715Y210018D01*
X179743Y210132D01*
X179752Y210250D01*
X179743Y210368D01*
X179715Y210482D01*
X179670Y210592D01*
X179609Y210692D01*
X179532Y210782D01*
X179442Y210859D01*
X179342Y210920D01*
X179232Y210965D01*
X179118Y210993D01*
X179000Y211000D01*
X176500D01*
Y219000D01*
X179000D01*
X179118Y219007D01*
X179232Y219035D01*
X179342Y219080D01*
X179442Y219141D01*
X179532Y219218D01*
X179609Y219308D01*
X179670Y219408D01*
X179715Y219518D01*
X179743Y219632D01*
X179752Y219750D01*
X179743Y219868D01*
X179715Y219982D01*
X179670Y220092D01*
X179609Y220192D01*
X179532Y220282D01*
X179442Y220359D01*
X179342Y220420D01*
X179232Y220465D01*
X179118Y220493D01*
X179000Y220500D01*
X176500D01*
Y229494D01*
X177016Y229518D01*
X177528Y229591D01*
X178031Y229711D01*
X178520Y229878D01*
X178992Y230090D01*
X179093Y230151D01*
X179184Y230228D01*
X179261Y230318D01*
X179323Y230420D01*
X179369Y230529D01*
X179397Y230645D01*
X179406Y230763D01*
X179397Y230881D01*
X179370Y230997D01*
X179324Y231107D01*
X179262Y231208D01*
X179186Y231298D01*
X179095Y231376D01*
X178994Y231438D01*
X178885Y231484D01*
X178769Y231511D01*
X178651Y231521D01*
X178532Y231512D01*
X178417Y231484D01*
X178308Y231437D01*
X177968Y231279D01*
X177612Y231158D01*
X177247Y231070D01*
X176875Y231018D01*
X176500Y231000D01*
Y239000D01*
X176875Y238982D01*
X177247Y238930D01*
X177612Y238842D01*
X177968Y238721D01*
X178310Y238567D01*
X178418Y238520D01*
X178533Y238493D01*
X178651Y238483D01*
X178768Y238493D01*
X178883Y238521D01*
X178992Y238566D01*
X179093Y238628D01*
X179182Y238705D01*
X179259Y238795D01*
X179320Y238895D01*
X179365Y239004D01*
X179393Y239119D01*
X179402Y239237D01*
X179392Y239355D01*
X179365Y239469D01*
X179319Y239578D01*
X179257Y239679D01*
X179181Y239769D01*
X179091Y239845D01*
X178989Y239905D01*
X178520Y240122D01*
X178031Y240289D01*
X177528Y240409D01*
X177016Y240482D01*
X176500Y240506D01*
Y243500D01*
G37*
G36*
X171750D02*X176500D01*
Y240506D01*
X175984Y240482D01*
X175472Y240409D01*
X174969Y240289D01*
X174480Y240122D01*
X174008Y239910D01*
X173907Y239849D01*
X173816Y239772D01*
X173739Y239682D01*
X173677Y239580D01*
X173631Y239471D01*
X173603Y239355D01*
X173594Y239237D01*
X173603Y239119D01*
X173630Y239003D01*
X173676Y238893D01*
X173738Y238792D01*
X173814Y238702D01*
X173905Y238624D01*
X174006Y238562D01*
X174115Y238516D01*
X174231Y238489D01*
X174349Y238479D01*
X174468Y238488D01*
X174583Y238516D01*
X174692Y238563D01*
X175032Y238721D01*
X175388Y238842D01*
X175753Y238930D01*
X176125Y238982D01*
X176500Y239000D01*
Y231000D01*
X176125Y231018D01*
X175753Y231070D01*
X175388Y231158D01*
X175032Y231279D01*
X174690Y231433D01*
X174582Y231480D01*
X174467Y231507D01*
X174349Y231517D01*
X174232Y231507D01*
X174117Y231479D01*
X174008Y231434D01*
X173907Y231372D01*
X173818Y231295D01*
X173741Y231205D01*
X173680Y231105D01*
X173635Y230996D01*
X173607Y230881D01*
X173598Y230763D01*
X173608Y230645D01*
X173635Y230531D01*
X173681Y230422D01*
X173743Y230321D01*
X173819Y230231D01*
X173909Y230155D01*
X174011Y230095D01*
X174480Y229878D01*
X174969Y229711D01*
X175472Y229591D01*
X175984Y229518D01*
X176500Y229494D01*
Y220500D01*
X174000D01*
X173882Y220493D01*
X173768Y220465D01*
X173658Y220420D01*
X173558Y220359D01*
X173468Y220282D01*
X173391Y220192D01*
X173330Y220092D01*
X173285Y219982D01*
X173257Y219868D01*
X173248Y219750D01*
X173257Y219632D01*
X173285Y219518D01*
X173330Y219408D01*
X173391Y219308D01*
X173468Y219218D01*
X173558Y219141D01*
X173658Y219080D01*
X173768Y219035D01*
X173882Y219007D01*
X174000Y219000D01*
X176500D01*
Y211000D01*
X174000D01*
X173882Y210993D01*
X173768Y210965D01*
X173658Y210920D01*
X173558Y210859D01*
X173468Y210782D01*
X173391Y210692D01*
X173330Y210592D01*
X173285Y210482D01*
X173257Y210368D01*
X173248Y210250D01*
X173257Y210132D01*
X173285Y210018D01*
X173330Y209908D01*
X173391Y209808D01*
X173468Y209718D01*
X173558Y209641D01*
X173658Y209580D01*
X173768Y209535D01*
X173882Y209507D01*
X174000Y209500D01*
X176500D01*
Y206500D01*
X171750D01*
Y211748D01*
X171868Y211757D01*
X171982Y211785D01*
X172092Y211830D01*
X172192Y211891D01*
X172282Y211968D01*
X172359Y212058D01*
X172420Y212158D01*
X172465Y212268D01*
X172493Y212382D01*
X172500Y212500D01*
Y217500D01*
X172493Y217618D01*
X172465Y217732D01*
X172420Y217842D01*
X172359Y217942D01*
X172282Y218032D01*
X172192Y218109D01*
X172092Y218170D01*
X171982Y218215D01*
X171868Y218243D01*
X171750Y218252D01*
Y232298D01*
X171818Y232239D01*
X171920Y232177D01*
X172029Y232131D01*
X172145Y232103D01*
X172263Y232094D01*
X172381Y232103D01*
X172497Y232130D01*
X172607Y232176D01*
X172708Y232238D01*
X172798Y232314D01*
X172876Y232405D01*
X172938Y232506D01*
X172984Y232615D01*
X173011Y232731D01*
X173021Y232849D01*
X173012Y232968D01*
X172984Y233083D01*
X172937Y233192D01*
X172779Y233532D01*
X172658Y233888D01*
X172570Y234253D01*
X172518Y234625D01*
X172500Y235000D01*
X172518Y235375D01*
X172570Y235747D01*
X172658Y236112D01*
X172779Y236468D01*
X172933Y236810D01*
X172980Y236918D01*
X173007Y237033D01*
X173017Y237151D01*
X173007Y237268D01*
X172979Y237383D01*
X172934Y237492D01*
X172872Y237593D01*
X172795Y237682D01*
X172705Y237759D01*
X172605Y237820D01*
X172496Y237865D01*
X172381Y237893D01*
X172263Y237902D01*
X172145Y237892D01*
X172031Y237865D01*
X171922Y237819D01*
X171821Y237757D01*
X171750Y237697D01*
Y243500D01*
G37*
G36*
X142000D02*X171750D01*
Y237697D01*
X171731Y237681D01*
X171655Y237591D01*
X171595Y237489D01*
X171378Y237020D01*
X171211Y236531D01*
X171091Y236028D01*
X171018Y235516D01*
X170994Y235000D01*
X171018Y234484D01*
X171091Y233972D01*
X171211Y233469D01*
X171378Y232980D01*
X171590Y232508D01*
X171651Y232407D01*
X171728Y232316D01*
X171750Y232298D01*
Y218252D01*
X171632Y218243D01*
X171518Y218215D01*
X171408Y218170D01*
X171308Y218109D01*
X171218Y218032D01*
X171141Y217942D01*
X171080Y217842D01*
X171035Y217732D01*
X171007Y217618D01*
X171000Y217500D01*
Y212500D01*
X171007Y212382D01*
X171035Y212268D01*
X171080Y212158D01*
X171141Y212058D01*
X171218Y211968D01*
X171308Y211891D01*
X171408Y211830D01*
X171518Y211785D01*
X171632Y211757D01*
X171750Y211748D01*
Y206500D01*
X142000D01*
Y243500D01*
G37*
G36*
X188500Y282500D02*X200000D01*
Y248000D01*
X188500D01*
Y282500D01*
G37*
G36*
X183000Y251500D02*X174500D01*
Y258000D01*
X183000D01*
Y251500D01*
G37*
G36*
X153000Y284500D02*X171500D01*
Y237283D01*
X171378Y237020D01*
X171211Y236531D01*
X171091Y236028D01*
X171018Y235516D01*
X170994Y235000D01*
X171018Y234484D01*
X171091Y233972D01*
X171211Y233469D01*
X171378Y232980D01*
X171500Y232708D01*
Y218208D01*
X171408Y218170D01*
X171308Y218109D01*
X171218Y218032D01*
X171141Y217942D01*
X171080Y217842D01*
X171035Y217732D01*
X171007Y217618D01*
X171000Y217500D01*
Y212500D01*
X171007Y212382D01*
X171035Y212268D01*
X171080Y212158D01*
X171141Y212058D01*
X171218Y211968D01*
X171308Y211891D01*
X171408Y211830D01*
X171500Y211792D01*
Y206500D01*
X153000D01*
Y284500D01*
G37*
G36*
X101500Y307000D02*X111500D01*
Y282000D01*
X101500D01*
Y307000D01*
G37*
G36*
X98000Y313500D02*X111500D01*
Y300000D01*
X98000D01*
Y313500D01*
G37*
G36*
X53000Y311000D02*X83000D01*
Y276500D01*
X53000D01*
Y311000D01*
G37*
G36*
X46000Y156000D02*X58500D01*
Y148000D01*
X46000D01*
Y156000D01*
G37*
G36*
Y166000D02*X58500D01*
Y158000D01*
X46000D01*
Y166000D01*
G37*
G36*
Y216000D02*X58500D01*
Y208000D01*
X46000D01*
Y216000D01*
G37*
G36*
Y226000D02*X58500D01*
Y218000D01*
X46000D01*
Y226000D01*
G37*
G36*
X85000Y285500D02*X99000D01*
Y261000D01*
X85000D01*
Y285500D01*
G37*
G36*
X105500Y279500D02*X131500D01*
Y261000D01*
X105500D01*
Y279500D01*
G37*
G36*
X55000Y274000D02*X88000D01*
Y254000D01*
X55000D01*
Y274000D01*
G37*
G36*
X27993Y262000D02*X97000D01*
Y245500D01*
X27993D01*
Y251645D01*
X28078Y251681D01*
X28179Y251743D01*
X28269Y251819D01*
X28345Y251909D01*
X28405Y252011D01*
X28622Y252480D01*
X28789Y252969D01*
X28909Y253472D01*
X28982Y253984D01*
X29006Y254500D01*
X28982Y255016D01*
X28909Y255528D01*
X28789Y256031D01*
X28622Y256520D01*
X28410Y256992D01*
X28349Y257093D01*
X28272Y257184D01*
X28182Y257261D01*
X28080Y257323D01*
X27993Y257360D01*
Y262000D01*
G37*
G36*
X23502D02*X27993D01*
Y257360D01*
X27971Y257369D01*
X27855Y257397D01*
X27737Y257406D01*
X27619Y257397D01*
X27503Y257370D01*
X27393Y257324D01*
X27292Y257262D01*
X27202Y257186D01*
X27124Y257095D01*
X27062Y256994D01*
X27016Y256885D01*
X26989Y256769D01*
X26979Y256651D01*
X26988Y256532D01*
X27016Y256417D01*
X27063Y256308D01*
X27221Y255968D01*
X27342Y255612D01*
X27430Y255247D01*
X27482Y254875D01*
X27500Y254500D01*
X27482Y254125D01*
X27430Y253753D01*
X27342Y253388D01*
X27221Y253032D01*
X27067Y252690D01*
X27020Y252582D01*
X26993Y252467D01*
X26983Y252349D01*
X26993Y252232D01*
X27021Y252117D01*
X27066Y252008D01*
X27128Y251907D01*
X27205Y251818D01*
X27295Y251741D01*
X27395Y251680D01*
X27504Y251635D01*
X27619Y251607D01*
X27737Y251598D01*
X27855Y251608D01*
X27969Y251635D01*
X27993Y251645D01*
Y245500D01*
X23502D01*
Y248994D01*
X24016Y249018D01*
X24528Y249091D01*
X25031Y249211D01*
X25520Y249378D01*
X25992Y249590D01*
X26093Y249651D01*
X26184Y249728D01*
X26261Y249818D01*
X26323Y249920D01*
X26369Y250029D01*
X26397Y250145D01*
X26406Y250263D01*
X26397Y250381D01*
X26370Y250497D01*
X26324Y250607D01*
X26262Y250708D01*
X26186Y250798D01*
X26095Y250876D01*
X25994Y250938D01*
X25885Y250984D01*
X25769Y251011D01*
X25651Y251021D01*
X25532Y251012D01*
X25417Y250984D01*
X25308Y250937D01*
X24968Y250779D01*
X24612Y250658D01*
X24247Y250570D01*
X23875Y250518D01*
X23502Y250500D01*
Y258500D01*
X23875Y258482D01*
X24247Y258430D01*
X24612Y258342D01*
X24968Y258221D01*
X25310Y258067D01*
X25418Y258020D01*
X25533Y257993D01*
X25651Y257983D01*
X25768Y257993D01*
X25883Y258021D01*
X25992Y258066D01*
X26093Y258128D01*
X26182Y258205D01*
X26259Y258295D01*
X26320Y258395D01*
X26365Y258504D01*
X26393Y258619D01*
X26402Y258737D01*
X26392Y258855D01*
X26365Y258969D01*
X26319Y259078D01*
X26257Y259179D01*
X26181Y259269D01*
X26091Y259345D01*
X25989Y259405D01*
X25520Y259622D01*
X25031Y259789D01*
X24528Y259909D01*
X24016Y259982D01*
X23502Y260006D01*
Y262000D01*
G37*
G36*
X20167D02*X23502D01*
Y260006D01*
X23500Y260006D01*
X22984Y259982D01*
X22472Y259909D01*
X21969Y259789D01*
X21480Y259622D01*
X21008Y259410D01*
X20907Y259349D01*
X20816Y259272D01*
X20739Y259182D01*
X20677Y259080D01*
X20631Y258971D01*
X20603Y258855D01*
X20594Y258737D01*
X20603Y258619D01*
X20630Y258503D01*
X20676Y258393D01*
X20738Y258292D01*
X20814Y258202D01*
X20905Y258124D01*
X21006Y258062D01*
X21115Y258016D01*
X21231Y257989D01*
X21349Y257979D01*
X21468Y257988D01*
X21583Y258016D01*
X21692Y258063D01*
X22032Y258221D01*
X22388Y258342D01*
X22753Y258430D01*
X23125Y258482D01*
X23500Y258500D01*
X23502Y258500D01*
Y250500D01*
X23500Y250500D01*
X23125Y250518D01*
X22753Y250570D01*
X22388Y250658D01*
X22032Y250779D01*
X21690Y250933D01*
X21582Y250980D01*
X21467Y251007D01*
X21349Y251017D01*
X21232Y251007D01*
X21117Y250979D01*
X21008Y250934D01*
X20907Y250872D01*
X20818Y250795D01*
X20741Y250705D01*
X20680Y250605D01*
X20635Y250496D01*
X20607Y250381D01*
X20598Y250263D01*
X20608Y250145D01*
X20635Y250031D01*
X20681Y249922D01*
X20743Y249821D01*
X20819Y249731D01*
X20909Y249655D01*
X21011Y249595D01*
X21480Y249378D01*
X21969Y249211D01*
X22472Y249091D01*
X22984Y249018D01*
X23500Y248994D01*
X23502Y248994D01*
Y245500D01*
X19007D01*
Y251640D01*
X19029Y251631D01*
X19145Y251603D01*
X19263Y251594D01*
X19381Y251603D01*
X19497Y251630D01*
X19607Y251676D01*
X19708Y251738D01*
X19798Y251814D01*
X19876Y251905D01*
X19938Y252006D01*
X19984Y252115D01*
X20011Y252231D01*
X20021Y252349D01*
X20012Y252468D01*
X19984Y252583D01*
X19937Y252692D01*
X19779Y253032D01*
X19658Y253388D01*
X19570Y253753D01*
X19518Y254125D01*
X19500Y254500D01*
X19518Y254875D01*
X19570Y255247D01*
X19658Y255612D01*
X19779Y255968D01*
X19933Y256310D01*
X19980Y256418D01*
X20007Y256533D01*
X20017Y256651D01*
X20007Y256768D01*
X19979Y256883D01*
X19934Y256992D01*
X19872Y257093D01*
X19795Y257182D01*
X19705Y257259D01*
X19605Y257320D01*
X19496Y257365D01*
X19381Y257393D01*
X19263Y257402D01*
X19145Y257392D01*
X19031Y257365D01*
X19007Y257355D01*
Y260841D01*
X20167Y262000D01*
G37*
G36*
X19007Y245500D02*X17300D01*
Y259133D01*
X19007Y260841D01*
Y257355D01*
X18922Y257319D01*
X18821Y257257D01*
X18731Y257181D01*
X18655Y257091D01*
X18595Y256989D01*
X18378Y256520D01*
X18211Y256031D01*
X18091Y255528D01*
X18018Y255016D01*
X17994Y254500D01*
X18018Y253984D01*
X18091Y253472D01*
X18211Y252969D01*
X18378Y252480D01*
X18590Y252008D01*
X18651Y251907D01*
X18728Y251816D01*
X18818Y251739D01*
X18920Y251677D01*
X19007Y251640D01*
Y245500D01*
G37*
G54D12*X44500Y305500D02*Y288500D01*
X30500Y274500D01*
G54D13*X59800Y282843D02*X51343D01*
X35500Y267000D01*
G54D12*X30500Y274500D02*X23500D01*
G54D14*X97200Y293100D02*X104900D01*
G54D15*X92957Y301243D02*X97200Y297000D01*
G54D14*Y289200D02*Y283700D01*
G54D15*X92957Y309500D02*Y301243D01*
X89000Y297000D02*Y300500D01*
X87000Y302500D01*
Y313500D01*
X89000Y315500D01*
G54D14*Y293100D02*X79100D01*
X89000Y289200D02*X80700D01*
G54D15*X89000Y315500D02*X119000D01*
X123000Y311500D01*
G54D13*X23500Y207000D02*X28500Y212000D01*
X50500D01*
X28500Y222000D02*X50500D01*
X23500Y227000D02*X28500Y222000D01*
X14000Y191000D02*Y260000D01*
X35500Y267000D02*X20500D01*
X14000Y260500D01*
X121000Y215500D02*Y211043D01*
X120957Y211000D01*
G54D15*X116500Y216500D02*Y205000D01*
Y216500D02*Y214500D01*
X117626Y198779D02*Y195626D01*
Y198779D02*Y194626D01*
X114500Y195000D02*Y198755D01*
X111000Y217000D02*Y195000D01*
X111500Y221500D02*X116500Y216500D01*
X109000Y217000D02*Y194500D01*
X114500Y198755D02*X114476Y198779D01*
X111000Y192500D02*X109000Y194500D01*
X112000Y194000D02*X112750Y193250D01*
X111000Y195000D02*X112750Y193250D01*
X109000Y194500D02*X110000Y193500D01*
X116250Y193250D02*X117500Y194500D01*
X117626Y194626D02*X116250Y193250D01*
X118000Y191000D02*X119500Y192500D01*
X69500Y203500D02*X78000D01*
X79000Y202500D01*
Y198543D01*
X79043Y198500D01*
X65500Y206500D02*X83000D01*
X83500Y206000D01*
X70000Y203500D02*X63500D01*
X62000Y205000D01*
X64000Y223000D02*Y208000D01*
X65500Y206500D01*
X62000Y205000D02*Y227000D01*
Y225000D02*Y238000D01*
X64500Y240500D01*
X81500Y214500D02*X86000Y210000D01*
X88500Y218000D02*X84000Y222500D01*
X102500Y239500D02*X97500D01*
X95500Y237500D01*
Y221500D01*
X111500Y230760D02*Y221500D01*
X106500Y219500D02*X109000Y217000D01*
X95500Y221500D02*X97500Y219500D01*
X106500D01*
X101500Y231000D02*X105500D01*
X106500Y230000D01*
Y222500D01*
X64500Y240500D02*X91500D01*
X87500D02*X95000D01*
X98500Y244000D02*X95000Y240500D01*
X90500D01*
G54D14*X101500Y251500D02*Y256500D01*
X107500Y262500D01*
G54D15*X101500Y244000D02*X98500D01*
X101500Y239500D02*X107500D01*
X110500Y242500D01*
G54D13*X28500Y162000D02*X50500D01*
X23500Y167000D02*X28500Y162000D01*
G54D15*X48000Y196500D02*Y177000D01*
X54848Y191724D02*X58724D01*
X71957Y198500D02*X65500D01*
X58724Y191724D02*X65500Y198500D01*
X68000D01*
X54848Y188575D02*X71882D01*
X54848Y185425D02*X60075D01*
X67000Y178500D01*
X71957D01*
X60724Y182276D02*X62250Y180750D01*
X65000Y164500D02*X64000Y163500D01*
X54848Y182276D02*X60724D01*
X71882Y188575D02*X71957Y188500D01*
X79000Y138500D02*Y134500D01*
X78000Y146000D02*X79000Y145000D01*
Y137000D01*
X72000Y142000D02*Y134586D01*
X71914Y134500D01*
G54D13*X50000Y136500D02*X50043Y136543D01*
X52000Y136500D02*X53500Y135000D01*
G54D15*X74250Y164500D02*X65000D01*
X53750Y159500D02*X59000D01*
X60000Y158500D01*
X64000Y163500D02*Y147500D01*
X62250Y180750D02*Y146750D01*
X60000Y146000D02*Y158500D01*
X64000Y147500D02*X65500Y146000D01*
X62250Y146750D02*X65000Y144000D01*
X70000D01*
X72000Y142000D01*
X66500Y131000D02*Y139500D01*
X60000Y146000D01*
X65500D02*X78000D01*
G54D13*X14000Y192500D02*Y140500D01*
X18000Y136500D01*
X28500Y152000D02*X50500D01*
X23500Y147000D02*X28500Y152000D01*
X18000Y136500D02*X50000D01*
X23500Y187000D02*X14000D01*
X47500Y136500D02*X52000D01*
G54D14*X60000Y118000D02*X45000D01*
X46500Y129957D02*Y118500D01*
G54D13*X53500Y135000D02*Y124500D01*
X55000Y123000D01*
X62000D01*
G54D14*X55000Y113937D02*X34937D01*
X55000Y110000D02*X37000D01*
X55000Y106063D02*X39563D01*
X55000Y102126D02*X42126D01*
X39000Y99000D01*
G54D13*X62000Y123000D02*X64000Y121000D01*
Y103500D01*
X65500Y102000D01*
X65374Y102126D02*X64000Y103500D01*
X76000Y102126D02*X65374D01*
G54D15*X74500Y63450D02*X78450D01*
X64500D02*X68450D01*
X69500Y64500D01*
Y72000D01*
X72000Y74500D01*
X67800Y129700D02*X66500Y131000D01*
X73500Y126500D02*X70500Y123500D01*
Y111000D01*
X71500Y110000D01*
X76500D01*
G54D14*X34937Y113937D02*X32500Y111500D01*
X37000Y110000D02*X31500Y104500D01*
Y99500D01*
X39563Y106063D02*X35500Y102000D01*
X32500Y111500D02*X23500D01*
X31500Y99500D02*X23500Y91500D01*
X31500Y71500D02*X23500D01*
X35500Y102000D02*Y75500D01*
X31500Y71500D01*
X39000Y99000D02*Y67000D01*
X23500Y51500D01*
G54D15*X76000Y117874D02*X84374D01*
X86000Y114000D02*X76063D01*
X76000Y113937D01*
X84374Y117874D02*X85500Y119000D01*
X86200Y119700D02*X85000Y118500D01*
X76000Y110000D02*X84500D01*
X83000Y106000D02*X76063D01*
X76000Y106063D01*
X81500Y106000D02*X93000D01*
X95000Y104500D02*X93500Y106000D01*
X90500D01*
X102950Y119700D02*X86200D01*
X102950Y114700D02*X86700D01*
X86000Y114000D01*
X102950Y129700D02*X92700D01*
X95500D02*Y123500D01*
X97000Y122000D01*
X107000D01*
X106000D02*X107500D01*
X102950Y124700D02*X107700D01*
X84000Y137000D02*Y138500D01*
X85500Y140000D01*
X86500Y142500D02*Y153000D01*
X85500Y140000D02*X93500D01*
X100500Y145500D02*Y139000D01*
X98500Y137000D01*
X94500D01*
X86500Y153000D02*X95500Y162000D01*
Y172500D01*
X93000Y170000D02*Y164000D01*
X85250Y156250D01*
X98500Y170000D02*Y162000D01*
X101000Y161500D02*Y172500D01*
X98500Y162000D02*X89000Y152500D01*
X90500Y154000D01*
X92000Y152500D02*X101000Y161500D01*
X89000Y145000D02*Y152500D01*
X92000Y142500D02*Y152500D01*
G54D14*X123450Y94700D02*Y84093D01*
X123543Y84000D01*
X116500Y78500D02*Y89500D01*
G54D15*X108500Y91000D02*Y76000D01*
X110000Y74500D01*
X117000D01*
G54D14*X123450Y94700D02*X117300D01*
X118300D02*X113300D01*
X111500Y96500D01*
Y100500D01*
G54D15*X123450Y99700D02*X116300D01*
X118000Y102000D02*X134500D01*
X144652Y96724D02*Y104652D01*
X139000Y95000D02*Y101000D01*
X138000Y102000D01*
X131500D01*
X151348Y96724D02*Y85348D01*
X150000Y84000D01*
X123543D01*
X144652Y93575D02*X140425D01*
X139000Y95000D01*
X135500Y99000D02*Y92500D01*
X117300Y109700D02*X116000Y111000D01*
G54D14*X111500Y96500D02*Y145500D01*
G54D15*X116000Y134000D02*Y111000D01*
X116750Y110250D01*
X114250Y101750D02*Y135250D01*
X117000Y138000D01*
X129750Y107250D02*X118250D01*
X117000Y106000D01*
Y103000D01*
X107700Y124700D02*X108500Y125500D01*
Y138500D01*
X107500Y122000D02*X108500Y121000D01*
Y88500D01*
X116300Y99700D02*X114250Y101750D01*
X117000Y103000D02*X118000Y102000D01*
X102950Y99700D02*X97300D01*
X97000D02*X95800D01*
X95000Y100500D01*
Y104500D01*
X92000Y93500D02*Y102500D01*
X89000Y99500D02*Y77500D01*
X86500Y102500D02*Y82500D01*
Y76500D02*Y85500D01*
X92000Y94500D02*Y78000D01*
Y80000D02*Y72000D01*
X86500D02*X89000Y74500D01*
Y80000D01*
G54D14*X64500Y29550D02*X134500D01*
G54D15*X137500Y69500D02*X131000D01*
X129500Y68000D01*
Y64500D01*
X128500Y63500D01*
X124550D01*
X124500Y63450D01*
X118450D02*X119500Y64500D01*
Y68000D01*
X130500Y71250D02*X121250D01*
X119500Y69500D01*
Y66500D01*
X128500Y73000D02*X119000D01*
X117000Y71000D01*
X111500D01*
X109500Y69000D01*
Y65000D01*
Y64500D02*Y66500D01*
X114500Y63450D02*X118450D01*
X104500D02*X108450D01*
X109500Y64500D01*
X94500Y63450D02*Y55000D01*
X96000Y53500D01*
X119000D01*
X92000Y72000D02*X89500Y69500D01*
X84500Y63450D02*X88450D01*
X89500Y64500D01*
Y69500D01*
X90500Y70500D01*
X78450Y63450D02*X79500Y64500D01*
Y69500D01*
X82000Y72000D01*
X86500D01*
X72000Y74500D02*X84500D01*
X86500Y76500D01*
G54D14*X74250Y219500D02*X67000D01*
Y209500D01*
X74250D01*
G54D15*X65500Y224500D02*X64000Y223000D01*
X81500Y214500D02*X74250D01*
X65500Y224500D02*X82000D01*
X86500Y220000D01*
X79043Y188500D02*Y188543D01*
X83000Y188500D02*X79043D01*
X83500Y206000D02*Y189000D01*
X86000Y210000D02*Y176500D01*
X86500Y176000D01*
X88500Y179500D02*Y218000D01*
X83500Y189000D02*X83000Y188500D01*
X106646Y178500D02*X106721Y178425D01*
X111000Y173000D02*Y192500D01*
X106721Y168976D02*X109476D01*
X112750Y172250D02*Y193250D01*
X114500Y171000D02*Y196000D01*
X106500Y222500D02*X111000Y218000D01*
Y215000D01*
X79043Y178500D02*X84500D01*
X86000D02*X83000D01*
X87225Y175275D02*X86000Y176500D01*
X89500Y178500D02*X88500Y179500D01*
X106721Y184724D02*X101224D01*
X101000Y184500D01*
X106721Y187874D02*X101126D01*
X101000Y188000D01*
X106721Y191023D02*X101977D01*
X101000Y192000D01*
X106721Y175275D02*X87225D01*
X106646Y178500D02*X89500D01*
X106721Y181575D02*X94925D01*
X93000Y183500D01*
G54D14*X120775Y198779D02*Y210818D01*
X127075Y200000D02*Y173949D01*
X131000Y253500D02*X126000D01*
X136000D02*X122000D01*
X136000Y246500D02*Y234043D01*
Y226957D02*Y218000D01*
G54D15*X121500Y230760D02*X126260D01*
X129500Y234000D01*
X136000D01*
X131000Y222500D02*Y228500D01*
X127500Y232000D01*
X123925Y198779D02*Y193025D01*
X123900Y193000D01*
X130224Y198779D02*Y193024D01*
X130200Y193000D01*
G54D14*X120775Y210818D02*X120957Y211000D01*
G54D13*X123500Y218000D02*X121000Y215500D01*
G54D14*X127075Y198779D02*Y203425D01*
X125500Y205000D01*
X120775D01*
G54D15*X135500Y204500D02*X134000Y203000D01*
X136523Y198779D02*Y201023D01*
X138000Y202500D01*
G54D13*X146500Y218000D02*X123500D01*
G54D14*X130224Y198779D02*Y208819D01*
X128043Y211000D01*
G54D15*X133374Y198779D02*Y202374D01*
X135000Y204000D01*
X140000Y194000D02*Y199500D01*
X187500Y244000D02*Y206000D01*
X186000Y204500D01*
X185500Y180000D02*Y183000D01*
X187500Y244000D02*Y241500D01*
G54D14*X180000Y261031D02*X167000D01*
G54D15*X180000Y264969D02*X184031D01*
X185000Y264000D01*
Y246500D01*
X187500Y244000D01*
X186000Y204500D02*X135500D01*
X138000Y202500D02*X185500D01*
X184500D02*X188000D01*
X189500Y201000D01*
X187500Y185000D02*X184500Y188000D01*
X185500Y183000D02*X182500Y186000D01*
X184000Y188500D02*X187500Y185000D01*
X183500Y181500D02*X181000Y184000D01*
X181500Y183500D01*
X184000Y188500D02*X163000D01*
X162500Y186000D02*X182500D01*
X161000Y184000D02*X181000D01*
G54D14*X127075Y154032D02*X124543Y151500D01*
G54D15*X136500Y161197D02*X136524Y161221D01*
G54D14*X127075Y173949D02*X118813Y165687D01*
G54D15*X116250Y169750D02*Y193250D01*
G54D14*X117626Y162874D02*Y151669D01*
X117457Y151500D01*
X117626Y160126D02*Y164626D01*
X120775Y167649D02*X117626Y164500D01*
Y161221D01*
G54D15*X118000Y169000D02*Y191000D01*
X163000Y188500D02*X160500Y191000D01*
X160626Y187874D02*X162500Y186000D01*
X160500Y191000D02*X144303D01*
X144279Y187874D02*X160626D01*
X144303Y191000D02*X144279Y191024D01*
Y181575D02*X139425D01*
X138500Y182500D01*
Y192500D01*
X140000Y194000D01*
X144279Y178425D02*X153075D01*
X156500Y175000D01*
Y163500D01*
X159000Y161000D01*
X179500D01*
X189500Y201000D02*Y69500D01*
X185500Y181500D02*Y75000D01*
X187500Y73500D02*Y185000D01*
X183500Y77000D02*Y181500D01*
X185500Y73500D02*Y76500D01*
X183500Y75000D02*Y78500D01*
X189500Y68000D02*Y72500D01*
Y68000D02*Y70500D01*
X183500Y79000D02*Y77000D01*
X185000Y69500D02*X187500Y72000D01*
Y75500D01*
X191500Y65000D02*Y159500D01*
X193000Y161000D01*
X135500Y92500D02*X137500Y90500D01*
X117000Y74500D02*X120000Y77500D01*
X132000D01*
X135500Y81000D01*
X117000Y74500D02*X118500Y76000D01*
X137500Y90500D02*X144577D01*
X144652Y87276D02*X135776D01*
X135500Y87000D01*
X144577Y90500D02*X144652Y90425D01*
X135500Y69500D02*X185000D01*
X107500Y53500D02*X180000D01*
X191500Y65000D01*
X134500Y63450D02*X184950D01*
X189500Y68000D01*
X127750Y71250D02*X183250D01*
X126500Y73000D02*X181500D01*
X183250Y71250D02*X185500Y73500D01*
X181500Y73000D02*X183500Y75000D01*
X152000Y134000D02*X154500Y136500D01*
Y146000D01*
X152500Y138000D02*X150500Y136000D01*
X117750Y120750D02*Y132250D01*
X119500Y134000D01*
X127500D01*
X152500Y147500D02*Y138000D01*
X135500Y119500D02*Y124700D01*
X122500Y134000D02*X152000D01*
X150500Y136000D02*X118000D01*
X117000Y138000D02*X148500D01*
G54D14*X123450Y104700D02*X165700D01*
X123450Y114700D02*X165200D01*
G54D15*X132000D02*Y109500D01*
X129750Y107250D01*
X144652Y104652D02*X144700Y104700D01*
G54D14*X165700D02*X167000Y106000D01*
X176500D01*
X165200Y114700D02*X176500Y126000D01*
X155200Y124700D02*X176500Y146000D01*
X123450Y124700D02*X155200D01*
G54D15*X123450Y119700D02*X118800D01*
G54D14*X123450Y129700D02*X135700D01*
G54D15*X118800Y119700D02*X117750Y120750D01*
X123450Y109700D02*X117300D01*
X148500Y138000D02*X150500Y140000D01*
X115000D02*X134500D01*
X129500Y144500D02*X117500D01*
X134500Y140000D02*X136500Y142000D01*
G54D14*X127075Y161221D02*Y166425D01*
X127000Y166500D01*
X127075Y161925D02*Y154032D01*
G54D15*X136500Y142000D02*Y161197D01*
X133374Y161221D02*Y148374D01*
X129500Y144500D01*
X144279Y184725D02*X160275D01*
X161000Y184000D01*
X144279Y175276D02*X152724D01*
X154500Y173500D01*
X150500Y146500D02*Y168000D01*
X152500Y145500D02*Y171000D01*
X154500Y144500D02*Y167000D01*
X150500Y140000D02*Y155500D01*
X154500Y173500D02*Y164000D01*
X151374Y172126D02*X152500Y171000D01*
X152000Y171500D01*
X144279Y172126D02*X151374D01*
X150500Y168000D02*X149500Y169000D01*
X144302D01*
X144279Y168977D01*
G54D14*X117626Y151626D02*X111500Y145500D01*
G54D15*X118000Y136000D02*X116000Y134000D01*
X108500Y138500D02*X107000Y140000D01*
X104000Y144500D02*X107000D01*
X109000Y150500D02*X107000Y148500D01*
X103500D01*
X109500Y154500D02*X106000Y151000D01*
X111500Y153000D02*X107000Y148500D01*
X111000Y167500D02*X109500Y166000D01*
Y154500D01*
X112750Y166250D02*X111500Y165000D01*
Y153000D01*
X114477Y161221D02*Y165477D01*
X106721Y172126D02*X110126D01*
X111000Y173000D01*
X109476Y168976D02*X112750Y172250D01*
X110500Y167000D02*X114500Y171000D01*
X112500Y166000D02*X116250Y169750D01*
X114477Y165477D02*X118000Y169000D01*
G54D14*X81000Y159500D02*X74250D01*
X81000Y149500D02*X74250D01*
G54D15*X86000Y157000D02*X83500Y154500D01*
X74500D01*
X103000Y143500D02*X104000Y144500D01*
X103500Y148500D02*X100500Y145500D01*
X105000Y151000D02*X102500D01*
X79000Y134000D02*X101000D01*
X97000Y140000D02*X89500D01*
X101000Y134000D02*X103000Y136000D01*
Y143500D01*
X102500Y151000D02*X98000Y146500D01*
Y141000D01*
X97000Y140000D01*
X104000Y151000D02*X106000D01*
X93800Y129700D02*X67800D01*
X84000Y126500D02*X73500D01*
X72250Y125250D01*
X82500Y110000D02*X95000D01*
X96500Y108500D01*
X102950Y104700D02*X97800D01*
X96500Y106000D01*
Y108500D01*
X95500Y109500D01*
G54D16*X17000Y17000D03*
G54D11*G36*
X19500Y75500D02*Y67500D01*
X27500D01*
Y75500D01*
X19500D01*
G37*
G54D17*X23500Y51500D03*
G54D11*G36*
X172500Y110000D02*Y102000D01*
X180500D01*
Y110000D01*
X172500D01*
G37*
G54D17*X176500Y126000D03*
G54D16*X183000Y17000D03*
G54D11*G36*
X19500Y115500D02*Y107500D01*
X27500D01*
Y115500D01*
X19500D01*
G37*
G54D17*X23500Y91500D03*
G54D11*G36*
X19500Y191000D02*Y183000D01*
X27500D01*
Y191000D01*
X19500D01*
G37*
G54D17*X23500Y167000D03*
Y147000D03*
G54D11*G36*
X172500Y179000D02*Y171000D01*
X180500D01*
Y179000D01*
X172500D01*
G37*
G36*
X19500Y231000D02*Y223000D01*
X27500D01*
Y231000D01*
X19500D01*
G37*
G54D17*X23500Y207000D03*
G54D11*G36*
X19500Y278500D02*Y270500D01*
X27500D01*
Y278500D01*
X19500D01*
G37*
G54D17*X23500Y254500D03*
G54D16*X17000Y303000D03*
G54D17*X176500Y146000D03*
G54D16*X183000Y303000D03*
G54D11*G36*
X172500Y219000D02*Y211000D01*
X180500D01*
Y219000D01*
X172500D01*
G37*
G54D17*X176500Y235000D03*
Y195000D03*
G54D11*G36*
X123516Y213952D02*X118398D01*
Y208048D01*
X123516D01*
Y213952D01*
G37*
G36*
X130602D02*X125484D01*
Y208048D01*
X130602D01*
Y213952D01*
G37*
G36*
X104000Y238004D02*X99000D01*
Y223516D01*
X104000D01*
Y238004D01*
G37*
G36*
X114000D02*X109000D01*
Y223516D01*
X114000D01*
Y238004D01*
G37*
G36*
X133048Y249059D02*Y243941D01*
X138952D01*
Y249059D01*
X133048D01*
G37*
G36*
Y256145D02*Y251027D01*
X138952D01*
Y256145D01*
X133048D01*
G37*
G36*
Y236602D02*Y231484D01*
X138952D01*
Y236602D01*
X133048D01*
G37*
G36*
Y229516D02*Y224398D01*
X138952D01*
Y229516D01*
X133048D01*
G37*
G36*
X124000Y238004D02*X119000D01*
Y223516D01*
X124000D01*
Y238004D01*
G37*
G36*
Y255484D02*X119000D01*
Y240996D01*
X124000D01*
Y255484D01*
G37*
G36*
X114000D02*X109000D01*
Y240996D01*
X114000D01*
Y255484D01*
G37*
G36*
X104000D02*X99000D01*
Y240996D01*
X104000D01*
Y255484D01*
G37*
G36*
X62950Y289142D02*X56650D01*
Y276543D01*
X62950D01*
Y289142D01*
G37*
G36*
Y269457D02*X56650D01*
Y256858D01*
X62950D01*
Y269457D01*
G37*
G36*
X83016Y282452D02*X77898D01*
Y276548D01*
X83016D01*
Y282452D01*
G37*
G36*
X47250Y309250D02*X41750D01*
Y301750D01*
X47250D01*
Y309250D01*
G37*
G36*
X60250D02*X54750D01*
Y301750D01*
X60250D01*
Y309250D01*
G37*
G36*
X95516Y312452D02*X90398D01*
Y306548D01*
X95516D01*
Y312452D01*
G37*
G36*
X102602D02*X97484D01*
Y306548D01*
X102602D01*
Y312452D01*
G37*
G36*
X87000Y298200D02*Y295800D01*
X91000D01*
Y298200D01*
X87000D01*
G37*
G36*
Y294300D02*Y291900D01*
X91000D01*
Y294300D01*
X87000D01*
G37*
G36*
Y290400D02*Y288000D01*
X91000D01*
Y290400D01*
X87000D01*
G37*
G36*
X95200D02*Y288000D01*
X99200D01*
Y290400D01*
X95200D01*
G37*
G36*
Y294300D02*Y291900D01*
X99200D01*
Y294300D01*
X95200D01*
G37*
G36*
Y298200D02*Y295800D01*
X99200D01*
Y298200D01*
X95200D01*
G37*
G36*
X108950Y306350D02*X106650D01*
Y282650D01*
X108950D01*
Y306350D01*
G37*
G36*
X106650D02*Y304050D01*
X114550D01*
Y306350D01*
X106650D01*
G37*
G36*
X106950Y286950D02*Y282950D01*
X110950D01*
Y286950D01*
X106950D01*
G37*
G36*
Y306050D02*Y302050D01*
X110950D01*
Y306050D01*
X106950D01*
G37*
G36*
X108602Y276952D02*X103484D01*
Y271048D01*
X108602D01*
Y276952D01*
G37*
G36*
X101516D02*X96398D01*
Y271048D01*
X101516D01*
Y276952D01*
G37*
G36*
X90102Y282452D02*X84984D01*
Y276548D01*
X90102D01*
Y282452D01*
G37*
G36*
X108602Y267452D02*X103484D01*
Y261548D01*
X108602D01*
Y267452D01*
G37*
G36*
X101516D02*X96398D01*
Y261548D01*
X101516D01*
Y267452D01*
G37*
G36*
X106650Y284950D02*Y282650D01*
X114550D01*
Y284950D01*
X106650D01*
G37*
G36*
X130350Y306350D02*X128050D01*
Y282650D01*
X130350D01*
Y306350D01*
G37*
G36*
X122450Y284950D02*Y282650D01*
X130350D01*
Y284950D01*
X122450D01*
G37*
G36*
Y306350D02*Y304050D01*
X130350D01*
Y306350D01*
X122450D01*
G37*
G36*
X124577Y306171D02*X122456Y304050D01*
X128050Y298456D01*
X130171Y300577D01*
X124577Y306171D01*
G37*
G36*
X126050Y286950D02*Y282950D01*
X130050D01*
Y286950D01*
X126050D01*
G37*
G36*
Y306050D02*Y302050D01*
X130050D01*
Y306050D01*
X126050D01*
G37*
G36*
X108950Y290544D02*X106829Y288423D01*
X112423Y282829D01*
X114544Y284950D01*
X108950Y290544D01*
G37*
G36*
X114544Y304050D02*X112423Y306171D01*
X106829Y300577D01*
X108950Y298456D01*
X114544Y304050D01*
G37*
G36*
X130171Y288423D02*X128050Y290544D01*
X122456Y284950D01*
X124577Y282829D01*
X130171Y288423D01*
G37*
G36*
X176949Y258275D02*Y255913D01*
X183051D01*
Y258275D01*
X176949D01*
G37*
G36*
Y262212D02*Y259850D01*
X183051D01*
Y262212D01*
X176949D01*
G37*
G36*
Y266150D02*Y263788D01*
X183051D01*
Y266150D01*
X176949D01*
G37*
G36*
Y270087D02*Y267725D01*
X183051D01*
Y270087D01*
X176949D01*
G37*
G36*
X191713Y254338D02*Y249614D01*
X198799D01*
Y254338D01*
X191713D01*
G37*
G36*
Y276386D02*Y271662D01*
X198799D01*
Y276386D01*
X191713D01*
G37*
G36*
X119200Y95700D02*Y93700D01*
X127700D01*
Y95700D01*
X119200D01*
G37*
G36*
X126102Y86952D02*X120984D01*
Y81048D01*
X126102D01*
Y86952D01*
G37*
G36*
X119016D02*X113898D01*
Y81048D01*
X119016D01*
Y86952D01*
G37*
G36*
X119200Y100700D02*Y98700D01*
X127700D01*
Y100700D01*
X119200D01*
G37*
G36*
X98700Y120700D02*Y118700D01*
X107200D01*
Y120700D01*
X98700D01*
G37*
G36*
Y115700D02*Y113700D01*
X107200D01*
Y115700D01*
X98700D01*
G37*
G36*
Y110700D02*Y108700D01*
X107200D01*
Y110700D01*
X98700D01*
G37*
G36*
Y105700D02*Y103700D01*
X107200D01*
Y105700D01*
X98700D01*
G37*
G36*
Y100700D02*Y98700D01*
X107200D01*
Y100700D01*
X98700D01*
G37*
G36*
Y95700D02*Y93700D01*
X107200D01*
Y95700D01*
X98700D01*
G37*
G36*
X142880Y97560D02*Y95888D01*
X146424D01*
Y97560D01*
X142880D01*
G37*
G36*
Y94412D02*Y92738D01*
X146424D01*
Y94412D01*
X142880D01*
G37*
G36*
Y91262D02*Y89588D01*
X146424D01*
Y91262D01*
X142880D01*
G37*
G36*
Y88112D02*Y86440D01*
X146424D01*
Y88112D01*
X142880D01*
G37*
G36*
X149576D02*Y86440D01*
X153120D01*
Y88112D01*
X149576D01*
G37*
G36*
Y91262D02*Y89588D01*
X153120D01*
Y91262D01*
X149576D01*
G37*
G36*
Y94412D02*Y92738D01*
X153120D01*
Y94412D01*
X149576D01*
G37*
G36*
Y97560D02*Y95888D01*
X153120D01*
Y97560D01*
X149576D01*
G37*
G36*
X119200Y105700D02*Y103700D01*
X127700D01*
Y105700D01*
X119200D01*
G37*
G36*
Y110700D02*Y108700D01*
X127700D01*
Y110700D01*
X119200D01*
G37*
G36*
Y115700D02*Y113700D01*
X127700D01*
Y115700D01*
X119200D01*
G37*
G36*
Y120700D02*Y118700D01*
X127700D01*
Y120700D01*
X119200D01*
G37*
G36*
X120016Y154452D02*X114898D01*
Y148548D01*
X120016D01*
Y154452D01*
G37*
G36*
X127102D02*X121984D01*
Y148548D01*
X127102D01*
Y154452D01*
G37*
G36*
X119200Y125700D02*Y123700D01*
X127700D01*
Y125700D01*
X119200D01*
G37*
G36*
Y130700D02*Y128700D01*
X127700D01*
Y130700D01*
X119200D01*
G37*
G36*
X98700D02*Y128700D01*
X107200D01*
Y130700D01*
X98700D01*
G37*
G36*
Y125700D02*Y123700D01*
X107200D01*
Y125700D01*
X98700D01*
G37*
G36*
X115264Y164221D02*X113690D01*
Y158221D01*
X115264D01*
Y164221D01*
G37*
G36*
X118413D02*X116839D01*
Y158221D01*
X118413D01*
Y164221D01*
G37*
G36*
X121563D02*X119989D01*
Y158221D01*
X121563D01*
Y164221D01*
G37*
G36*
X124712D02*X123138D01*
Y158221D01*
X124712D01*
Y164221D01*
G37*
G36*
X127862D02*X126288D01*
Y158221D01*
X127862D01*
Y164221D01*
G37*
G36*
X131012D02*X129438D01*
Y158221D01*
X131012D01*
Y164221D01*
G37*
G36*
X134161D02*X132587D01*
Y158221D01*
X134161D01*
Y164221D01*
G37*
G36*
X137311D02*X135737D01*
Y158221D01*
X137311D01*
Y164221D01*
G37*
G36*
X70000Y150500D02*Y148500D01*
X78500D01*
Y150500D01*
X70000D01*
G37*
G36*
X74473Y137452D02*X69355D01*
Y131548D01*
X74473D01*
Y137452D01*
G37*
G36*
X81559D02*X76441D01*
Y131548D01*
X81559D01*
Y137452D01*
G37*
G36*
X49500Y150500D02*Y148500D01*
X58000D01*
Y150500D01*
X49500D01*
G37*
G36*
X56102Y133452D02*X50984D01*
Y127548D01*
X56102D01*
Y133452D01*
G37*
G36*
X49016D02*X43898D01*
Y127548D01*
X49016D01*
Y133452D01*
G37*
G36*
X73350Y103276D02*Y100976D01*
X78650D01*
Y103276D01*
X73350D01*
G37*
G36*
X52500Y103126D02*Y101126D01*
X57500D01*
Y103126D01*
X52500D01*
G37*
G36*
X73500Y107063D02*Y105063D01*
X78500D01*
Y107063D01*
X73500D01*
G37*
G36*
X52500D02*Y105063D01*
X57500D01*
Y107063D01*
X52500D01*
G37*
G36*
X73500Y111000D02*Y109000D01*
X78500D01*
Y111000D01*
X73500D01*
G37*
G36*
Y114937D02*Y112937D01*
X78500D01*
Y114937D01*
X73500D01*
G37*
G36*
Y118874D02*Y116874D01*
X78500D01*
Y118874D01*
X73500D01*
G37*
G36*
X52500D02*Y116874D01*
X57500D01*
Y118874D01*
X52500D01*
G37*
G36*
Y114937D02*Y112937D01*
X57500D01*
Y114937D01*
X52500D01*
G37*
G36*
Y111000D02*Y109000D01*
X57500D01*
Y111000D01*
X52500D01*
G37*
G36*
X70000Y210500D02*Y208500D01*
X78500D01*
Y210500D01*
X70000D01*
G37*
G36*
X74516Y201452D02*X69398D01*
Y195548D01*
X74516D01*
Y201452D01*
G37*
G36*
X81602D02*X76484D01*
Y195548D01*
X81602D01*
Y201452D01*
G37*
G36*
X70000Y215500D02*Y213500D01*
X78500D01*
Y215500D01*
X70000D01*
G37*
G36*
X49500D02*Y213500D01*
X58000D01*
Y215500D01*
X49500D01*
G37*
G36*
X70000Y220500D02*Y218500D01*
X78500D01*
Y220500D01*
X70000D01*
G37*
G36*
Y225500D02*Y223500D01*
X78500D01*
Y225500D01*
X70000D01*
G37*
G36*
X49500D02*Y223500D01*
X58000D01*
Y225500D01*
X49500D01*
G37*
G36*
Y220500D02*Y218500D01*
X58000D01*
Y220500D01*
X49500D01*
G37*
G36*
X74516Y191452D02*X69398D01*
Y185548D01*
X74516D01*
Y191452D01*
G37*
G36*
X81602D02*X76484D01*
Y185548D01*
X81602D01*
Y191452D01*
G37*
G36*
X49500Y210500D02*Y208500D01*
X58000D01*
Y210500D01*
X49500D01*
G37*
G36*
X46380Y183112D02*Y181440D01*
X49924D01*
Y183112D01*
X46380D01*
G37*
G36*
X53076D02*Y181440D01*
X56620D01*
Y183112D01*
X53076D01*
G37*
G36*
X46380Y192560D02*Y190888D01*
X49924D01*
Y192560D01*
X46380D01*
G37*
G36*
Y189412D02*Y187738D01*
X49924D01*
Y189412D01*
X46380D01*
G37*
G36*
Y186262D02*Y184588D01*
X49924D01*
Y186262D01*
X46380D01*
G37*
G36*
X53076D02*Y184588D01*
X56620D01*
Y186262D01*
X53076D01*
G37*
G36*
Y189412D02*Y187738D01*
X56620D01*
Y189412D01*
X53076D01*
G37*
G36*
Y192560D02*Y190888D01*
X56620D01*
Y192560D01*
X53076D01*
G37*
G36*
X137310Y201779D02*X135736D01*
Y195779D01*
X137310D01*
Y201779D01*
G37*
G36*
X134161D02*X132587D01*
Y195779D01*
X134161D01*
Y201779D01*
G37*
G36*
X131011D02*X129437D01*
Y195779D01*
X131011D01*
Y201779D01*
G37*
G36*
X127862D02*X126288D01*
Y195779D01*
X127862D01*
Y201779D01*
G37*
G36*
X124712D02*X123138D01*
Y195779D01*
X124712D01*
Y201779D01*
G37*
G36*
X121562D02*X119988D01*
Y195779D01*
X121562D01*
Y201779D01*
G37*
G36*
X118413D02*X116839D01*
Y195779D01*
X118413D01*
Y201779D01*
G37*
G36*
X115263D02*X113689D01*
Y195779D01*
X115263D01*
Y201779D01*
G37*
G36*
X103721Y191810D02*Y190236D01*
X109721D01*
Y191810D01*
X103721D01*
G37*
G36*
X141279Y191811D02*Y190237D01*
X147279D01*
Y191811D01*
X141279D01*
G37*
G36*
X103721Y188661D02*Y187087D01*
X109721D01*
Y188661D01*
X103721D01*
G37*
G36*
Y185511D02*Y183937D01*
X109721D01*
Y185511D01*
X103721D01*
G37*
G36*
Y182362D02*Y180788D01*
X109721D01*
Y182362D01*
X103721D01*
G37*
G36*
Y179212D02*Y177638D01*
X109721D01*
Y179212D01*
X103721D01*
G37*
G36*
Y176062D02*Y174488D01*
X109721D01*
Y176062D01*
X103721D01*
G37*
G36*
Y172913D02*Y171339D01*
X109721D01*
Y172913D01*
X103721D01*
G37*
G36*
Y169763D02*Y168189D01*
X109721D01*
Y169763D01*
X103721D01*
G37*
G36*
X141279Y169764D02*Y168190D01*
X147279D01*
Y169764D01*
X141279D01*
G37*
G36*
Y172913D02*Y171339D01*
X147279D01*
Y172913D01*
X141279D01*
G37*
G36*
Y176063D02*Y174489D01*
X147279D01*
Y176063D01*
X141279D01*
G37*
G36*
Y179212D02*Y177638D01*
X147279D01*
Y179212D01*
X141279D01*
G37*
G36*
Y182362D02*Y180788D01*
X147279D01*
Y182362D01*
X141279D01*
G37*
G36*
Y185512D02*Y183938D01*
X147279D01*
Y185512D01*
X141279D01*
G37*
G36*
Y188661D02*Y187087D01*
X147279D01*
Y188661D01*
X141279D01*
G37*
G36*
X49500Y165500D02*Y163500D01*
X58000D01*
Y165500D01*
X49500D01*
G37*
G36*
Y160500D02*Y158500D01*
X58000D01*
Y160500D01*
X49500D01*
G37*
G36*
Y155500D02*Y153500D01*
X58000D01*
Y155500D01*
X49500D01*
G37*
G36*
X70000D02*Y153500D01*
X78500D01*
Y155500D01*
X70000D01*
G37*
G36*
Y160500D02*Y158500D01*
X78500D01*
Y160500D01*
X70000D01*
G37*
G36*
Y165500D02*Y163500D01*
X78500D01*
Y165500D01*
X70000D01*
G37*
G36*
X74516Y181452D02*X69398D01*
Y175548D01*
X74516D01*
Y181452D01*
G37*
G36*
X81602D02*X76484D01*
Y175548D01*
X81602D01*
Y181452D01*
G37*
G36*
X66700Y34350D02*X62300D01*
Y24750D01*
X66700D01*
Y34350D01*
G37*
G36*
X76700D02*X72300D01*
Y24750D01*
X76700D01*
Y34350D01*
G37*
G36*
X86700D02*X82300D01*
Y24750D01*
X86700D01*
Y34350D01*
G37*
G36*
X96700D02*X92300D01*
Y24750D01*
X96700D01*
Y34350D01*
G37*
G36*
X106700D02*X102300D01*
Y24750D01*
X106700D01*
Y34350D01*
G37*
G36*
X116700D02*X112300D01*
Y24750D01*
X116700D01*
Y34350D01*
G37*
G36*
X126700D02*X122300D01*
Y24750D01*
X126700D01*
Y34350D01*
G37*
G36*
X136700D02*X132300D01*
Y24750D01*
X136700D01*
Y34350D01*
G37*
G36*
X66700Y68250D02*X62300D01*
Y58650D01*
X66700D01*
Y68250D01*
G37*
G36*
X76700D02*X72300D01*
Y58650D01*
X76700D01*
Y68250D01*
G37*
G36*
X86700D02*X82300D01*
Y58650D01*
X86700D01*
Y68250D01*
G37*
G36*
X96700D02*X92300D01*
Y58650D01*
X96700D01*
Y68250D01*
G37*
G36*
X106700D02*X102300D01*
Y58650D01*
X106700D01*
Y68250D01*
G37*
G36*
X116700D02*X112300D01*
Y58650D01*
X116700D01*
Y68250D01*
G37*
G36*
X126700D02*X122300D01*
Y58650D01*
X126700D01*
Y68250D01*
G37*
G36*
X136700D02*X132300D01*
Y58650D01*
X136700D01*
Y68250D01*
G37*
G54D18*X67000Y219500D03*
Y214500D03*
Y209500D03*
X48000Y196500D03*
Y177000D03*
X48500Y118000D03*
X60000D03*
X45000D03*
X69500Y29500D03*
X92500Y267000D03*
Y271000D03*
Y259000D03*
Y263000D03*
Y283000D03*
Y279000D03*
Y275000D03*
X65500Y266500D03*
Y258500D03*
Y262500D03*
X116500Y89500D03*
Y78500D03*
X130800Y129700D03*
X135600D03*
X135500Y119500D03*
Y99000D03*
Y87000D03*
Y81000D03*
X129500Y29500D03*
X123900Y193000D03*
X130200Y205900D03*
X140000Y199500D03*
X130300Y193000D03*
X116500Y205000D03*
X126000Y253500D03*
X131000D03*
Y222500D03*
X177500Y253500D03*
X181000D03*
X127000Y166500D03*
X107000Y140000D03*
X115000D03*
X117500Y144500D03*
X107000D03*
X119500Y192500D03*
X101000Y188000D03*
Y192000D03*
Y184500D03*
Y172500D03*
X98500Y170000D03*
X95500Y172500D03*
X93000Y170000D03*
X193000Y161000D03*
X179500D03*
X93000Y183500D03*
X92000Y142500D03*
X94500Y137000D03*
X84000D03*
Y126500D03*
X86500Y142500D03*
Y102500D03*
X81000Y159500D03*
Y149500D03*
X89000Y145000D03*
Y99500D03*
X92000Y102500D03*
X94500Y119700D03*
X99500Y29500D03*
G54D19*G54D20*G54D21*G54D20*G54D21*G54D20*G54D21*G54D20*G54D21*M02*
