G04 start of page 12 for group -3984 idx -3984 *
G04 Title: (unknown), fab *
G04 Creator: pcb 4.0.2 *
G04 CreationDate: Mon Jan 25 18:11:42 2021 UTC *
G04 For: ndholmes *
G04 Format: Gerber/RS-274X *
G04 PCB-Dimensions (mil): 3000.00 3200.00 *
G04 PCB-Coordinate-Origin: lower left *
%MOIN*%
%FSLAX25Y25*%
%LNFAB*%
%ADD47C,0.0100*%
%ADD46C,0.0060*%
%ADD45C,0.0001*%
G54D45*G36*
X15800Y18766D02*X18766Y15800D01*
X18200Y15234D01*
X15234Y18200D01*
X15800Y18766D01*
G37*
G36*
X15234Y15800D02*X18200Y18766D01*
X18766Y18200D01*
X15800Y15234D01*
X15234Y15800D01*
G37*
G36*
X15800Y304766D02*X18766Y301800D01*
X18200Y301234D01*
X15234Y304200D01*
X15800Y304766D01*
G37*
G36*
X15234Y301800D02*X18200Y304766D01*
X18766Y304200D01*
X15800Y301234D01*
X15234Y301800D01*
G37*
G36*
X181800Y304766D02*X184766Y301800D01*
X184200Y301234D01*
X181234Y304200D01*
X181800Y304766D01*
G37*
G36*
X181234Y301800D02*X184200Y304766D01*
X184766Y304200D01*
X181800Y301234D01*
X181234Y301800D01*
G37*
G36*
X181800Y18766D02*X184766Y15800D01*
X184200Y15234D01*
X181234Y18200D01*
X181800Y18766D01*
G37*
G36*
X181234Y15800D02*X184200Y18766D01*
X184766Y18200D01*
X181800Y15234D01*
X181234Y15800D01*
G37*
G36*
X13800Y348016D02*X16766Y345050D01*
X16200Y344484D01*
X13234Y347450D01*
X13800Y348016D01*
G37*
G36*
X13234Y345050D02*X16200Y348016D01*
X16766Y347450D01*
X13800Y344484D01*
X13234Y345050D01*
G37*
G54D46*X135000Y348500D02*Y347750D01*
X136500Y346250D01*
X138000Y347750D01*
Y348500D02*Y347750D01*
X136500Y346250D02*Y342500D01*
X139800Y345500D02*X142050D01*
X139800Y342500D02*X142800D01*
X139800Y348500D02*Y342500D01*
Y348500D02*X142800D01*
X147600D02*X148350Y347750D01*
X145350Y348500D02*X147600D01*
X144600Y347750D02*X145350Y348500D01*
X144600Y347750D02*Y346250D01*
X145350Y345500D01*
X147600D01*
X148350Y344750D01*
Y343250D01*
X147600Y342500D02*X148350Y343250D01*
X145350Y342500D02*X147600D01*
X144600Y343250D02*X145350Y342500D01*
X98000Y345500D02*X101000Y348500D01*
X98000Y345500D02*X101750D01*
X101000Y348500D02*Y342500D01*
X45000Y343250D02*X45750Y342500D01*
X45000Y347750D02*Y343250D01*
Y347750D02*X45750Y348500D01*
X47250D01*
X48000Y347750D01*
Y343250D01*
X47250Y342500D02*X48000Y343250D01*
X45750Y342500D02*X47250D01*
X45000Y344000D02*X48000Y347000D01*
X49800Y342500D02*X50550D01*
X53100D02*X54600D01*
X53850Y348500D02*Y342500D01*
X52350Y347000D02*X53850Y348500D01*
X56400Y347750D02*X57150Y348500D01*
X59400D01*
X60150Y347750D01*
Y346250D01*
X56400Y342500D02*X60150Y346250D01*
X56400Y342500D02*X60150D01*
X61950D02*X64950Y345500D01*
Y347750D02*Y345500D01*
X64200Y348500D02*X64950Y347750D01*
X62700Y348500D02*X64200D01*
X61950Y347750D02*X62700Y348500D01*
X61950Y347750D02*Y346250D01*
X62700Y345500D01*
X64950D01*
X23500Y228600D02*Y225400D01*
X21900Y227000D02*X25100D01*
X23500Y208600D02*Y205400D01*
X21900Y207000D02*X25100D01*
X23500Y276100D02*Y272900D01*
X21900Y274500D02*X25100D01*
X23500Y256100D02*Y252900D01*
X21900Y254500D02*X25100D01*
X176500Y107600D02*Y104400D01*
X174900Y106000D02*X178100D01*
X176500Y127600D02*Y124400D01*
X174900Y126000D02*X178100D01*
X176500Y147600D02*Y144400D01*
X174900Y146000D02*X178100D01*
X23500Y73100D02*Y69900D01*
X21900Y71500D02*X25100D01*
X23500Y53100D02*Y49900D01*
X21900Y51500D02*X25100D01*
X23500Y113100D02*Y109900D01*
X21900Y111500D02*X25100D01*
X23500Y93100D02*Y89900D01*
X21900Y91500D02*X25100D01*
X23500Y188600D02*Y185400D01*
X21900Y187000D02*X25100D01*
X23500Y168600D02*Y165400D01*
X21900Y167000D02*X25100D01*
X23500Y148600D02*Y145400D01*
X21900Y147000D02*X25100D01*
X176500Y216600D02*Y213400D01*
X174900Y215000D02*X178100D01*
X176500Y236600D02*Y233400D01*
X174900Y235000D02*X178100D01*
X176500Y176600D02*Y173400D01*
X174900Y175000D02*X178100D01*
X176500Y196600D02*Y193400D01*
X174900Y195000D02*X178100D01*
X15000Y362850D02*Y359650D01*
X13400Y361250D02*X16600D01*
X135000Y363500D02*Y362750D01*
X136500Y361250D01*
X138000Y362750D01*
Y363500D02*Y362750D01*
X136500Y361250D02*Y357500D01*
X139800Y360500D02*X142050D01*
X139800Y357500D02*X142800D01*
X139800Y363500D02*Y357500D01*
Y363500D02*X142800D01*
X147600D02*X148350Y362750D01*
X145350Y363500D02*X147600D01*
X144600Y362750D02*X145350Y363500D01*
X144600Y362750D02*Y361250D01*
X145350Y360500D01*
X147600D01*
X148350Y359750D01*
Y358250D01*
X147600Y357500D02*X148350Y358250D01*
X145350Y357500D02*X147600D01*
X144600Y358250D02*X145350Y357500D01*
X98750D02*X100250D01*
X99500Y363500D02*Y357500D01*
X98000Y362000D02*X99500Y363500D01*
X102050Y358250D02*X102800Y357500D01*
X102050Y359750D02*Y358250D01*
Y359750D02*X102800Y360500D01*
X104300D01*
X105050Y359750D01*
Y358250D01*
X104300Y357500D02*X105050Y358250D01*
X102800Y357500D02*X104300D01*
X102050Y361250D02*X102800Y360500D01*
X102050Y362750D02*Y361250D01*
Y362750D02*X102800Y363500D01*
X104300D01*
X105050Y362750D01*
Y361250D01*
X104300Y360500D02*X105050Y361250D01*
X45000Y358250D02*X45750Y357500D01*
X45000Y362750D02*Y358250D01*
Y362750D02*X45750Y363500D01*
X47250D01*
X48000Y362750D01*
Y358250D01*
X47250Y357500D02*X48000Y358250D01*
X45750Y357500D02*X47250D01*
X45000Y359000D02*X48000Y362000D01*
X49800Y357500D02*X50550D01*
X52350Y358250D02*X53100Y357500D01*
X52350Y362750D02*Y358250D01*
Y362750D02*X53100Y363500D01*
X54600D01*
X55350Y362750D01*
Y358250D01*
X54600Y357500D02*X55350Y358250D01*
X53100Y357500D02*X54600D01*
X52350Y359000D02*X55350Y362000D01*
X57150Y360500D02*X60150Y363500D01*
X57150Y360500D02*X60900D01*
X60150Y363500D02*Y357500D01*
X62700Y358250D02*X63450Y357500D01*
X62700Y359750D02*Y358250D01*
Y359750D02*X63450Y360500D01*
X64950D01*
X65700Y359750D01*
Y358250D01*
X64950Y357500D02*X65700Y358250D01*
X63450Y357500D02*X64950D01*
X62700Y361250D02*X63450Y360500D01*
X62700Y362750D02*Y361250D01*
Y362750D02*X63450Y363500D01*
X64950D01*
X65700Y362750D01*
Y361250D01*
X64950Y360500D02*X65700Y361250D01*
X92500Y283000D02*Y281400D01*
Y283000D02*X93887Y283800D01*
X92500Y283000D02*X91113Y283800D01*
X92500Y279000D02*Y277400D01*
Y279000D02*X93887Y279800D01*
X92500Y279000D02*X91113Y279800D01*
X92500Y275000D02*Y273400D01*
Y275000D02*X93887Y275800D01*
X92500Y275000D02*X91113Y275800D01*
X92500Y267000D02*Y265400D01*
Y267000D02*X93887Y267800D01*
X92500Y267000D02*X91113Y267800D01*
X92500Y271000D02*Y269400D01*
Y271000D02*X93887Y271800D01*
X92500Y271000D02*X91113Y271800D01*
X92500Y259000D02*Y257400D01*
Y259000D02*X93887Y259800D01*
X92500Y259000D02*X91113Y259800D01*
X92500Y263000D02*Y261400D01*
Y263000D02*X93887Y263800D01*
X92500Y263000D02*X91113Y263800D01*
X65500Y266500D02*Y264900D01*
Y266500D02*X66887Y267300D01*
X65500Y266500D02*X64113Y267300D01*
X65500Y258500D02*Y256900D01*
Y258500D02*X66887Y259300D01*
X65500Y258500D02*X64113Y259300D01*
X65500Y262500D02*Y260900D01*
Y262500D02*X66887Y263300D01*
X65500Y262500D02*X64113Y263300D01*
X67000Y219500D02*Y217900D01*
Y219500D02*X68387Y220300D01*
X67000Y219500D02*X65613Y220300D01*
X67000Y214500D02*Y212900D01*
Y214500D02*X68387Y215300D01*
X67000Y214500D02*X65613Y215300D01*
X67000Y209500D02*Y207900D01*
Y209500D02*X68387Y210300D01*
X67000Y209500D02*X65613Y210300D01*
X48000Y196500D02*Y194900D01*
Y196500D02*X49387Y197300D01*
X48000Y196500D02*X46613Y197300D01*
X48000Y177000D02*Y175400D01*
Y177000D02*X49387Y177800D01*
X48000Y177000D02*X46613Y177800D01*
X48500Y118000D02*Y116400D01*
Y118000D02*X49887Y118800D01*
X48500Y118000D02*X47113Y118800D01*
X60000Y118000D02*Y116400D01*
Y118000D02*X61387Y118800D01*
X60000Y118000D02*X58613Y118800D01*
X45000Y118000D02*Y116400D01*
Y118000D02*X46387Y118800D01*
X45000Y118000D02*X43613Y118800D01*
X123900Y193000D02*Y191400D01*
Y193000D02*X125287Y193800D01*
X123900Y193000D02*X122513Y193800D01*
X127000Y166500D02*Y164900D01*
Y166500D02*X128387Y167300D01*
X127000Y166500D02*X125613Y167300D01*
X130200Y205900D02*Y204300D01*
Y205900D02*X131587Y206700D01*
X130200Y205900D02*X128813Y206700D01*
X116500Y89500D02*Y87900D01*
Y89500D02*X117887Y90300D01*
X116500Y89500D02*X115113Y90300D01*
X116500Y78500D02*Y76900D01*
Y78500D02*X117887Y79300D01*
X116500Y78500D02*X115113Y79300D01*
X81000Y159500D02*Y157900D01*
Y159500D02*X82387Y160300D01*
X81000Y159500D02*X79613Y160300D01*
X81000Y149500D02*Y147900D01*
Y149500D02*X82387Y150300D01*
X81000Y149500D02*X79613Y150300D01*
X130800Y129700D02*Y128100D01*
Y129700D02*X132187Y130500D01*
X130800Y129700D02*X129413Y130500D01*
X135600Y129700D02*Y128100D01*
Y129700D02*X136987Y130500D01*
X135600Y129700D02*X134213Y130500D01*
X135500Y119500D02*Y117900D01*
Y119500D02*X136887Y120300D01*
X135500Y119500D02*X134113Y120300D01*
X135500Y99000D02*Y97400D01*
Y99000D02*X136887Y99800D01*
X135500Y99000D02*X134113Y99800D01*
X135500Y87000D02*Y85400D01*
Y87000D02*X136887Y87800D01*
X135500Y87000D02*X134113Y87800D01*
X135500Y81000D02*Y79400D01*
Y81000D02*X136887Y81800D01*
X135500Y81000D02*X134113Y81800D01*
X107000Y140000D02*Y138400D01*
Y140000D02*X108387Y140800D01*
X107000Y140000D02*X105613Y140800D01*
X115000Y140000D02*Y138400D01*
Y140000D02*X116387Y140800D01*
X115000Y140000D02*X113613Y140800D01*
X117500Y144500D02*Y142900D01*
Y144500D02*X118887Y145300D01*
X117500Y144500D02*X116113Y145300D01*
X107000Y144500D02*Y142900D01*
Y144500D02*X108387Y145300D01*
X107000Y144500D02*X105613Y145300D01*
X119500Y192500D02*Y190900D01*
Y192500D02*X120887Y193300D01*
X119500Y192500D02*X118113Y193300D01*
X116500Y205000D02*Y203400D01*
Y205000D02*X117887Y205800D01*
X116500Y205000D02*X115113Y205800D01*
X126000Y253500D02*Y251900D01*
Y253500D02*X127387Y254300D01*
X126000Y253500D02*X124613Y254300D01*
X131000Y253500D02*Y251900D01*
Y253500D02*X132387Y254300D01*
X131000Y253500D02*X129613Y254300D01*
X131000Y222500D02*Y220900D01*
Y222500D02*X132387Y223300D01*
X131000Y222500D02*X129613Y223300D01*
X140000Y199500D02*Y197900D01*
Y199500D02*X141387Y200300D01*
X140000Y199500D02*X138613Y200300D01*
X101000Y184500D02*Y182900D01*
Y184500D02*X102387Y185300D01*
X101000Y184500D02*X99613Y185300D01*
X101000Y188000D02*Y186400D01*
Y188000D02*X102387Y188800D01*
X101000Y188000D02*X99613Y188800D01*
X101000Y192000D02*Y190400D01*
Y192000D02*X102387Y192800D01*
X101000Y192000D02*X99613Y192800D01*
X101000Y172500D02*Y170900D01*
Y172500D02*X102387Y173300D01*
X101000Y172500D02*X99613Y173300D01*
X98500Y170000D02*Y168400D01*
Y170000D02*X99887Y170800D01*
X98500Y170000D02*X97113Y170800D01*
X95500Y172500D02*Y170900D01*
Y172500D02*X96887Y173300D01*
X95500Y172500D02*X94113Y173300D01*
X93000Y170000D02*Y168400D01*
Y170000D02*X94387Y170800D01*
X93000Y170000D02*X91613Y170800D01*
X93000Y183500D02*Y181900D01*
Y183500D02*X94387Y184300D01*
X93000Y183500D02*X91613Y184300D01*
X84000Y137000D02*Y135400D01*
Y137000D02*X85387Y137800D01*
X84000Y137000D02*X82613Y137800D01*
X84000Y126500D02*Y124900D01*
Y126500D02*X85387Y127300D01*
X84000Y126500D02*X82613Y127300D01*
X86500Y142500D02*Y140900D01*
Y142500D02*X87887Y143300D01*
X86500Y142500D02*X85113Y143300D01*
X86500Y102500D02*Y100900D01*
Y102500D02*X87887Y103300D01*
X86500Y102500D02*X85113Y103300D01*
X89000Y145000D02*Y143400D01*
Y145000D02*X90387Y145800D01*
X89000Y145000D02*X87613Y145800D01*
X92000Y142500D02*Y140900D01*
Y142500D02*X93387Y143300D01*
X92000Y142500D02*X90613Y143300D01*
X89000Y99500D02*Y97900D01*
Y99500D02*X90387Y100300D01*
X89000Y99500D02*X87613Y100300D01*
X92000Y102500D02*Y100900D01*
Y102500D02*X93387Y103300D01*
X92000Y102500D02*X90613Y103300D01*
X94500Y137000D02*Y135400D01*
Y137000D02*X95887Y137800D01*
X94500Y137000D02*X93113Y137800D01*
X94500Y119700D02*Y118100D01*
Y119700D02*X95887Y120500D01*
X94500Y119700D02*X93113Y120500D01*
X193000Y161000D02*Y159400D01*
Y161000D02*X194387Y161800D01*
X193000Y161000D02*X191613Y161800D01*
X179500Y161000D02*Y159400D01*
Y161000D02*X180887Y161800D01*
X179500Y161000D02*X178113Y161800D01*
X130300Y193000D02*Y191400D01*
Y193000D02*X131687Y193800D01*
X130300Y193000D02*X128913Y193800D01*
X177500Y253500D02*Y251900D01*
Y253500D02*X178887Y254300D01*
X177500Y253500D02*X176113Y254300D01*
X181000Y253500D02*Y251900D01*
Y253500D02*X182387Y254300D01*
X181000Y253500D02*X179613Y254300D01*
X69500Y29500D02*Y27900D01*
Y29500D02*X70887Y30300D01*
X69500Y29500D02*X68113Y30300D01*
X129500Y29500D02*Y27900D01*
Y29500D02*X130887Y30300D01*
X129500Y29500D02*X128113Y30300D01*
X99500Y29500D02*Y27900D01*
Y29500D02*X100887Y30300D01*
X99500Y29500D02*X98113Y30300D01*
X15000Y376250D02*Y374650D01*
Y376250D02*X16387Y377050D01*
X15000Y376250D02*X13613Y377050D01*
X135000Y378500D02*Y377750D01*
X136500Y376250D01*
X138000Y377750D01*
Y378500D02*Y377750D01*
X136500Y376250D02*Y372500D01*
X139800Y375500D02*X142050D01*
X139800Y372500D02*X142800D01*
X139800Y378500D02*Y372500D01*
Y378500D02*X142800D01*
X147600D02*X148350Y377750D01*
X145350Y378500D02*X147600D01*
X144600Y377750D02*X145350Y378500D01*
X144600Y377750D02*Y376250D01*
X145350Y375500D01*
X147600D01*
X148350Y374750D01*
Y373250D01*
X147600Y372500D02*X148350Y373250D01*
X145350Y372500D02*X147600D01*
X144600Y373250D02*X145350Y372500D01*
X100250Y378500D02*X101000Y377750D01*
X98750Y378500D02*X100250D01*
X98000Y377750D02*X98750Y378500D01*
X98000Y377750D02*Y373250D01*
X98750Y372500D01*
X100250Y375500D02*X101000Y374750D01*
X98000Y375500D02*X100250D01*
X98750Y372500D02*X100250D01*
X101000Y373250D01*
Y374750D02*Y373250D01*
X102800Y372500D02*X106550Y376250D01*
Y378500D02*Y376250D01*
X102800Y378500D02*X106550D01*
X45000Y373250D02*X45750Y372500D01*
X45000Y377750D02*Y373250D01*
Y377750D02*X45750Y378500D01*
X47250D01*
X48000Y377750D01*
Y373250D01*
X47250Y372500D02*X48000Y373250D01*
X45750Y372500D02*X47250D01*
X45000Y374000D02*X48000Y377000D01*
X49800Y372500D02*X50550D01*
X52350Y373250D02*X53100Y372500D01*
X52350Y377750D02*Y373250D01*
Y377750D02*X53100Y378500D01*
X54600D01*
X55350Y377750D01*
Y373250D01*
X54600Y372500D02*X55350Y373250D01*
X53100Y372500D02*X54600D01*
X52350Y374000D02*X55350Y377000D01*
X57900Y372500D02*X59400D01*
X58650Y378500D02*Y372500D01*
X57150Y377000D02*X58650Y378500D01*
X61200Y377750D02*X61950Y378500D01*
X64200D01*
X64950Y377750D01*
Y376250D01*
X61200Y372500D02*X64950Y376250D01*
X61200Y372500D02*X64950D01*
X3000Y393500D02*X3750Y392750D01*
X750Y393500D02*X3000D01*
X0Y392750D02*X750Y393500D01*
X0Y392750D02*Y391250D01*
X750Y390500D01*
X3000D01*
X3750Y389750D01*
Y388250D01*
X3000Y387500D02*X3750Y388250D01*
X750Y387500D02*X3000D01*
X0Y388250D02*X750Y387500D01*
X5550Y390500D02*Y388250D01*
X6300Y387500D01*
X8550Y390500D02*Y386000D01*
X7800Y385250D02*X8550Y386000D01*
X6300Y385250D02*X7800D01*
X5550Y386000D02*X6300Y385250D01*
Y387500D02*X7800D01*
X8550Y388250D01*
X11100Y389750D02*Y387500D01*
Y389750D02*X11850Y390500D01*
X12600D01*
X13350Y389750D01*
Y387500D01*
Y389750D02*X14100Y390500D01*
X14850D01*
X15600Y389750D01*
Y387500D01*
X10350Y390500D02*X11100Y389750D01*
X17400Y393500D02*Y387500D01*
Y388250D02*X18150Y387500D01*
X19650D01*
X20400Y388250D01*
Y389750D02*Y388250D01*
X19650Y390500D02*X20400Y389750D01*
X18150Y390500D02*X19650D01*
X17400Y389750D02*X18150Y390500D01*
X22200Y389750D02*Y388250D01*
Y389750D02*X22950Y390500D01*
X24450D01*
X25200Y389750D01*
Y388250D01*
X24450Y387500D02*X25200Y388250D01*
X22950Y387500D02*X24450D01*
X22200Y388250D02*X22950Y387500D01*
X27000Y393500D02*Y388250D01*
X27750Y387500D01*
X0Y384250D02*X29250D01*
X41750Y393500D02*Y387500D01*
X44000Y393500D02*X44750Y392750D01*
Y388250D01*
X44000Y387500D02*X44750Y388250D01*
X41000Y387500D02*X44000D01*
X41000Y393500D02*X44000D01*
X46550Y392000D02*Y391250D01*
Y389750D02*Y387500D01*
X50300Y390500D02*X51050Y389750D01*
X48800Y390500D02*X50300D01*
X48050Y389750D02*X48800Y390500D01*
X48050Y389750D02*Y388250D01*
X48800Y387500D01*
X51050Y390500D02*Y388250D01*
X51800Y387500D01*
X48800D02*X50300D01*
X51050Y388250D01*
X54350Y389750D02*Y387500D01*
Y389750D02*X55100Y390500D01*
X55850D01*
X56600Y389750D01*
Y387500D01*
Y389750D02*X57350Y390500D01*
X58100D01*
X58850Y389750D01*
Y387500D01*
X53600Y390500D02*X54350Y389750D01*
X60650Y387500D02*X61400D01*
X65900Y388250D02*X66650Y387500D01*
X65900Y392750D02*X66650Y393500D01*
X65900Y392750D02*Y388250D01*
X68450Y393500D02*X69950D01*
X69200D02*Y387500D01*
X68450D02*X69950D01*
X72500Y389750D02*Y387500D01*
Y389750D02*X73250Y390500D01*
X74000D01*
X74750Y389750D01*
Y387500D01*
X71750Y390500D02*X72500Y389750D01*
X77300Y390500D02*X79550D01*
X76550Y389750D02*X77300Y390500D01*
X76550Y389750D02*Y388250D01*
X77300Y387500D01*
X79550D01*
X81350Y393500D02*Y387500D01*
Y389750D02*X82100Y390500D01*
X83600D01*
X84350Y389750D01*
Y387500D01*
X86150Y393500D02*X86900Y392750D01*
Y388250D01*
X86150Y387500D02*X86900Y388250D01*
X41000Y384250D02*X88700D01*
X95750Y387500D02*X98000D01*
X95000Y388250D02*X95750Y387500D01*
X95000Y392750D02*Y388250D01*
Y392750D02*X95750Y393500D01*
X98000D01*
X99800Y389750D02*Y388250D01*
Y389750D02*X100550Y390500D01*
X102050D01*
X102800Y389750D01*
Y388250D01*
X102050Y387500D02*X102800Y388250D01*
X100550Y387500D02*X102050D01*
X99800Y388250D02*X100550Y387500D01*
X104600Y390500D02*Y388250D01*
X105350Y387500D01*
X106850D01*
X107600Y388250D01*
Y390500D02*Y388250D01*
X110150Y389750D02*Y387500D01*
Y389750D02*X110900Y390500D01*
X111650D01*
X112400Y389750D01*
Y387500D01*
X109400Y390500D02*X110150Y389750D01*
X114950Y393500D02*Y388250D01*
X115700Y387500D01*
X114200Y391250D02*X115700D01*
X95000Y384250D02*X117200D01*
X130750Y393500D02*Y387500D01*
X130000Y393500D02*X133000D01*
X133750Y392750D01*
Y391250D01*
X133000Y390500D02*X133750Y391250D01*
X130750Y390500D02*X133000D01*
X135550Y393500D02*Y388250D01*
X136300Y387500D01*
X140050Y390500D02*X140800Y389750D01*
X138550Y390500D02*X140050D01*
X137800Y389750D02*X138550Y390500D01*
X137800Y389750D02*Y388250D01*
X138550Y387500D01*
X140800Y390500D02*Y388250D01*
X141550Y387500D01*
X138550D02*X140050D01*
X140800Y388250D01*
X144100Y393500D02*Y388250D01*
X144850Y387500D01*
X143350Y391250D02*X144850D01*
X147100Y387500D02*X149350D01*
X146350Y388250D02*X147100Y387500D01*
X146350Y389750D02*Y388250D01*
Y389750D02*X147100Y390500D01*
X148600D01*
X149350Y389750D01*
X146350Y389000D02*X149350D01*
Y389750D02*Y389000D01*
X154150Y393500D02*Y387500D01*
X153400D02*X154150Y388250D01*
X151900Y387500D02*X153400D01*
X151150Y388250D02*X151900Y387500D01*
X151150Y389750D02*Y388250D01*
Y389750D02*X151900Y390500D01*
X153400D01*
X154150Y389750D01*
X157450Y390500D02*Y389750D01*
Y388250D02*Y387500D01*
X155950Y392750D02*Y392000D01*
Y392750D02*X156700Y393500D01*
X158200D01*
X158950Y392750D01*
Y392000D01*
X157450Y390500D02*X158950Y392000D01*
X130000Y384250D02*X160750D01*
X0Y408500D02*X3000D01*
X1500D02*Y402500D01*
X4800Y408500D02*Y402500D01*
Y404750D02*X5550Y405500D01*
X7050D01*
X7800Y404750D01*
Y402500D01*
X10350D02*X12600D01*
X9600Y403250D02*X10350Y402500D01*
X9600Y404750D02*Y403250D01*
Y404750D02*X10350Y405500D01*
X11850D01*
X12600Y404750D01*
X9600Y404000D02*X12600D01*
Y404750D02*Y404000D01*
X15150Y404750D02*Y402500D01*
Y404750D02*X15900Y405500D01*
X17400D01*
X14400D02*X15150Y404750D01*
X19950Y402500D02*X22200D01*
X19200Y403250D02*X19950Y402500D01*
X19200Y404750D02*Y403250D01*
Y404750D02*X19950Y405500D01*
X21450D01*
X22200Y404750D01*
X19200Y404000D02*X22200D01*
Y404750D02*Y404000D01*
X28950Y405500D02*X29700Y404750D01*
X27450Y405500D02*X28950D01*
X26700Y404750D02*X27450Y405500D01*
X26700Y404750D02*Y403250D01*
X27450Y402500D01*
X29700Y405500D02*Y403250D01*
X30450Y402500D01*
X27450D02*X28950D01*
X29700Y403250D01*
X33000Y404750D02*Y402500D01*
Y404750D02*X33750Y405500D01*
X35250D01*
X32250D02*X33000Y404750D01*
X37800Y402500D02*X40050D01*
X37050Y403250D02*X37800Y402500D01*
X37050Y404750D02*Y403250D01*
Y404750D02*X37800Y405500D01*
X39300D01*
X40050Y404750D01*
X37050Y404000D02*X40050D01*
Y404750D02*Y404000D01*
X44550Y407750D02*X45300Y408500D01*
X46800D01*
X47550Y407750D01*
Y403250D01*
X46800Y402500D02*X47550Y403250D01*
X45300Y402500D02*X46800D01*
X44550Y403250D02*X45300Y402500D01*
Y405500D02*X47550D01*
X55050Y408500D02*Y402500D01*
X54300D02*X55050Y403250D01*
X52800Y402500D02*X54300D01*
X52050Y403250D02*X52800Y402500D01*
X52050Y404750D02*Y403250D01*
Y404750D02*X52800Y405500D01*
X54300D01*
X55050Y404750D01*
X56850Y407000D02*Y406250D01*
Y404750D02*Y402500D01*
X59100Y407750D02*Y402500D01*
Y407750D02*X59850Y408500D01*
X60600D01*
X58350Y405500D02*X59850D01*
X62850Y407750D02*Y402500D01*
Y407750D02*X63600Y408500D01*
X64350D01*
X62100Y405500D02*X63600D01*
X66600Y402500D02*X68850D01*
X65850Y403250D02*X66600Y402500D01*
X65850Y404750D02*Y403250D01*
Y404750D02*X66600Y405500D01*
X68100D01*
X68850Y404750D01*
X65850Y404000D02*X68850D01*
Y404750D02*Y404000D01*
X71400Y404750D02*Y402500D01*
Y404750D02*X72150Y405500D01*
X73650D01*
X70650D02*X71400Y404750D01*
X76200Y402500D02*X78450D01*
X75450Y403250D02*X76200Y402500D01*
X75450Y404750D02*Y403250D01*
Y404750D02*X76200Y405500D01*
X77700D01*
X78450Y404750D01*
X75450Y404000D02*X78450D01*
Y404750D02*Y404000D01*
X81000Y404750D02*Y402500D01*
Y404750D02*X81750Y405500D01*
X82500D01*
X83250Y404750D01*
Y402500D01*
X80250Y405500D02*X81000Y404750D01*
X85800Y408500D02*Y403250D01*
X86550Y402500D01*
X85050Y406250D02*X86550D01*
X93750Y408500D02*Y402500D01*
X93000D02*X93750Y403250D01*
X91500Y402500D02*X93000D01*
X90750Y403250D02*X91500Y402500D01*
X90750Y404750D02*Y403250D01*
Y404750D02*X91500Y405500D01*
X93000D01*
X93750Y404750D01*
X96300D02*Y402500D01*
Y404750D02*X97050Y405500D01*
X98550D01*
X95550D02*X96300Y404750D01*
X100350Y407000D02*Y406250D01*
Y404750D02*Y402500D01*
X101850Y408500D02*Y403250D01*
X102600Y402500D01*
X104100Y408500D02*Y403250D01*
X104850Y402500D01*
X109800D02*X112050D01*
X112800Y403250D01*
X112050Y404000D02*X112800Y403250D01*
X109800Y404000D02*X112050D01*
X109050Y404750D02*X109800Y404000D01*
X109050Y404750D02*X109800Y405500D01*
X112050D01*
X112800Y404750D01*
X109050Y403250D02*X109800Y402500D01*
X114600Y407000D02*Y406250D01*
Y404750D02*Y402500D01*
X116100Y405500D02*X119100D01*
X116100Y402500D02*X119100Y405500D01*
X116100Y402500D02*X119100D01*
X121650D02*X123900D01*
X120900Y403250D02*X121650Y402500D01*
X120900Y404750D02*Y403250D01*
Y404750D02*X121650Y405500D01*
X123150D01*
X123900Y404750D01*
X120900Y404000D02*X123900D01*
Y404750D02*Y404000D01*
X126450Y402500D02*X128700D01*
X129450Y403250D01*
X128700Y404000D02*X129450Y403250D01*
X126450Y404000D02*X128700D01*
X125700Y404750D02*X126450Y404000D01*
X125700Y404750D02*X126450Y405500D01*
X128700D01*
X129450Y404750D01*
X125700Y403250D02*X126450Y402500D01*
X133950Y405500D02*Y403250D01*
X134700Y402500D01*
X136200D01*
X136950Y403250D01*
Y405500D02*Y403250D01*
X139500Y402500D02*X141750D01*
X142500Y403250D01*
X141750Y404000D02*X142500Y403250D01*
X139500Y404000D02*X141750D01*
X138750Y404750D02*X139500Y404000D01*
X138750Y404750D02*X139500Y405500D01*
X141750D01*
X142500Y404750D01*
X138750Y403250D02*X139500Y402500D01*
X145050D02*X147300D01*
X144300Y403250D02*X145050Y402500D01*
X144300Y404750D02*Y403250D01*
Y404750D02*X145050Y405500D01*
X146550D01*
X147300Y404750D01*
X144300Y404000D02*X147300D01*
Y404750D02*Y404000D01*
X152100Y408500D02*Y402500D01*
X151350D02*X152100Y403250D01*
X149850Y402500D02*X151350D01*
X149100Y403250D02*X149850Y402500D01*
X149100Y404750D02*Y403250D01*
Y404750D02*X149850Y405500D01*
X151350D01*
X152100Y404750D01*
X156600Y407000D02*Y406250D01*
Y404750D02*Y402500D01*
X158850Y404750D02*Y402500D01*
Y404750D02*X159600Y405500D01*
X160350D01*
X161100Y404750D01*
Y402500D01*
X158100Y405500D02*X158850Y404750D01*
X166350Y408500D02*Y403250D01*
X167100Y402500D01*
X165600Y406250D02*X167100D01*
X168600Y408500D02*Y402500D01*
Y404750D02*X169350Y405500D01*
X170850D01*
X171600Y404750D01*
Y402500D01*
X173400Y407000D02*Y406250D01*
Y404750D02*Y402500D01*
X175650D02*X177900D01*
X178650Y403250D01*
X177900Y404000D02*X178650Y403250D01*
X175650Y404000D02*X177900D01*
X174900Y404750D02*X175650Y404000D01*
X174900Y404750D02*X175650Y405500D01*
X177900D01*
X178650Y404750D01*
X174900Y403250D02*X175650Y402500D01*
X183150Y408500D02*Y403250D01*
X183900Y402500D01*
X187650Y405500D02*X188400Y404750D01*
X186150Y405500D02*X187650D01*
X185400Y404750D02*X186150Y405500D01*
X185400Y404750D02*Y403250D01*
X186150Y402500D01*
X188400Y405500D02*Y403250D01*
X189150Y402500D01*
X186150D02*X187650D01*
X188400Y403250D01*
X190950Y405500D02*Y403250D01*
X191700Y402500D01*
X193950Y405500D02*Y401000D01*
X193200Y400250D02*X193950Y401000D01*
X191700Y400250D02*X193200D01*
X190950Y401000D02*X191700Y400250D01*
Y402500D02*X193200D01*
X193950Y403250D01*
X195750Y404750D02*Y403250D01*
Y404750D02*X196500Y405500D01*
X198000D01*
X198750Y404750D01*
Y403250D01*
X198000Y402500D02*X198750Y403250D01*
X196500Y402500D02*X198000D01*
X195750Y403250D02*X196500Y402500D01*
X200550Y405500D02*Y403250D01*
X201300Y402500D01*
X202800D01*
X203550Y403250D01*
Y405500D02*Y403250D01*
X206100Y408500D02*Y403250D01*
X206850Y402500D01*
X205350Y406250D02*X206850D01*
X208350Y401000D02*X209850Y402500D01*
X214350Y403250D02*X215100Y402500D01*
X214350Y404750D02*Y403250D01*
Y404750D02*X215100Y405500D01*
X216600D01*
X217350Y404750D01*
Y403250D01*
X216600Y402500D02*X217350Y403250D01*
X215100Y402500D02*X216600D01*
X214350Y406250D02*X215100Y405500D01*
X214350Y407750D02*Y406250D01*
Y407750D02*X215100Y408500D01*
X216600D01*
X217350Y407750D01*
Y406250D01*
X216600Y405500D02*X217350Y406250D01*
X219150Y402500D02*X222150Y405500D01*
Y407750D02*Y405500D01*
X221400Y408500D02*X222150Y407750D01*
X219900Y408500D02*X221400D01*
X219150Y407750D02*X219900Y408500D01*
X219150Y407750D02*Y406250D01*
X219900Y405500D01*
X222150D01*
X226650Y408500D02*Y402500D01*
Y404750D02*X227400Y405500D01*
X228900D01*
X229650Y404750D01*
Y402500D01*
X231450Y404750D02*Y403250D01*
Y404750D02*X232200Y405500D01*
X233700D01*
X234450Y404750D01*
Y403250D01*
X233700Y402500D02*X234450Y403250D01*
X232200Y402500D02*X233700D01*
X231450Y403250D02*X232200Y402500D01*
X236250Y408500D02*Y403250D01*
X237000Y402500D01*
X239250D02*X241500D01*
X238500Y403250D02*X239250Y402500D01*
X238500Y404750D02*Y403250D01*
Y404750D02*X239250Y405500D01*
X240750D01*
X241500Y404750D01*
X238500Y404000D02*X241500D01*
Y404750D02*Y404000D01*
X244050Y402500D02*X246300D01*
X247050Y403250D01*
X246300Y404000D02*X247050Y403250D01*
X244050Y404000D02*X246300D01*
X243300Y404750D02*X244050Y404000D01*
X243300Y404750D02*X244050Y405500D01*
X246300D01*
X247050Y404750D01*
X243300Y403250D02*X244050Y402500D01*
X252300Y408500D02*Y403250D01*
X253050Y402500D01*
X251550Y406250D02*X253050D01*
X254550Y404750D02*Y403250D01*
Y404750D02*X255300Y405500D01*
X256800D01*
X257550Y404750D01*
Y403250D01*
X256800Y402500D02*X257550Y403250D01*
X255300Y402500D02*X256800D01*
X254550Y403250D02*X255300Y402500D01*
X260100Y408500D02*Y403250D01*
X260850Y402500D01*
X259350Y406250D02*X260850D01*
X264600Y405500D02*X265350Y404750D01*
X263100Y405500D02*X264600D01*
X262350Y404750D02*X263100Y405500D01*
X262350Y404750D02*Y403250D01*
X263100Y402500D01*
X265350Y405500D02*Y403250D01*
X266100Y402500D01*
X263100D02*X264600D01*
X265350Y403250D01*
X267900Y408500D02*Y403250D01*
X268650Y402500D01*
G54D47*X0Y0D02*X200000D01*
Y320000D01*
X0D01*
Y0D01*
G54D46*X63675Y-9500D02*X66675D01*
X67425Y-8750D01*
Y-7250D02*Y-8750D01*
X66675Y-6500D02*X67425Y-7250D01*
X64425Y-6500D02*X66675D01*
X64425Y-3500D02*Y-9500D01*
X63675Y-3500D02*X66675D01*
X67425Y-4250D01*
Y-5750D01*
X66675Y-6500D02*X67425Y-5750D01*
X69225Y-7250D02*Y-8750D01*
Y-7250D02*X69975Y-6500D01*
X71475D01*
X72225Y-7250D01*
Y-8750D01*
X71475Y-9500D02*X72225Y-8750D01*
X69975Y-9500D02*X71475D01*
X69225Y-8750D02*X69975Y-9500D01*
X76275Y-6500D02*X77025Y-7250D01*
X74775Y-6500D02*X76275D01*
X74025Y-7250D02*X74775Y-6500D01*
X74025Y-7250D02*Y-8750D01*
X74775Y-9500D01*
X77025Y-6500D02*Y-8750D01*
X77775Y-9500D01*
X74775D02*X76275D01*
X77025Y-8750D01*
X80325Y-7250D02*Y-9500D01*
Y-7250D02*X81075Y-6500D01*
X82575D01*
X79575D02*X80325Y-7250D01*
X87375Y-3500D02*Y-9500D01*
X86625D02*X87375Y-8750D01*
X85125Y-9500D02*X86625D01*
X84375Y-8750D02*X85125Y-9500D01*
X84375Y-7250D02*Y-8750D01*
Y-7250D02*X85125Y-6500D01*
X86625D01*
X87375Y-7250D01*
X91875D02*Y-8750D01*
Y-7250D02*X92625Y-6500D01*
X94125D01*
X94875Y-7250D01*
Y-8750D01*
X94125Y-9500D02*X94875Y-8750D01*
X92625Y-9500D02*X94125D01*
X91875Y-8750D02*X92625Y-9500D01*
X96675Y-6500D02*Y-8750D01*
X97425Y-9500D01*
X98925D01*
X99675Y-8750D01*
Y-6500D02*Y-8750D01*
X102225Y-3500D02*Y-8750D01*
X102975Y-9500D01*
X101475Y-5750D02*X102975D01*
X104475Y-3500D02*Y-8750D01*
X105225Y-9500D01*
X106725Y-5000D02*Y-5750D01*
Y-7250D02*Y-9500D01*
X108975Y-7250D02*Y-9500D01*
Y-7250D02*X109725Y-6500D01*
X110475D01*
X111225Y-7250D01*
Y-9500D01*
X108225Y-6500D02*X108975Y-7250D01*
X113775Y-9500D02*X116025D01*
X113025Y-8750D02*X113775Y-9500D01*
X113025Y-7250D02*Y-8750D01*
Y-7250D02*X113775Y-6500D01*
X115275D01*
X116025Y-7250D01*
X113025Y-8000D02*X116025D01*
Y-7250D02*Y-8000D01*
X120525Y-5000D02*Y-5750D01*
Y-7250D02*Y-9500D01*
X122775D02*X125025D01*
X125775Y-8750D01*
X125025Y-8000D02*X125775Y-8750D01*
X122775Y-8000D02*X125025D01*
X122025Y-7250D02*X122775Y-8000D01*
X122025Y-7250D02*X122775Y-6500D01*
X125025D01*
X125775Y-7250D01*
X122025Y-8750D02*X122775Y-9500D01*
X131025Y-3500D02*Y-8750D01*
X131775Y-9500D01*
X130275Y-5750D02*X131775D01*
X133275Y-3500D02*Y-9500D01*
Y-7250D02*X134025Y-6500D01*
X135525D01*
X136275Y-7250D01*
Y-9500D01*
X138825D02*X141075D01*
X138075Y-8750D02*X138825Y-9500D01*
X138075Y-7250D02*Y-8750D01*
Y-7250D02*X138825Y-6500D01*
X140325D01*
X141075Y-7250D01*
X138075Y-8000D02*X141075D01*
Y-7250D02*Y-8000D01*
X146325Y-6500D02*X148575D01*
X145575Y-7250D02*X146325Y-6500D01*
X145575Y-7250D02*Y-8750D01*
X146325Y-9500D01*
X148575D01*
X151125D02*X153375D01*
X150375Y-8750D02*X151125Y-9500D01*
X150375Y-7250D02*Y-8750D01*
Y-7250D02*X151125Y-6500D01*
X152625D01*
X153375Y-7250D01*
X150375Y-8000D02*X153375D01*
Y-7250D02*Y-8000D01*
X155925Y-7250D02*Y-9500D01*
Y-7250D02*X156675Y-6500D01*
X157425D01*
X158175Y-7250D01*
Y-9500D01*
X155175Y-6500D02*X155925Y-7250D01*
X160725Y-3500D02*Y-8750D01*
X161475Y-9500D01*
X159975Y-5750D02*X161475D01*
X163725Y-9500D02*X165975D01*
X162975Y-8750D02*X163725Y-9500D01*
X162975Y-7250D02*Y-8750D01*
Y-7250D02*X163725Y-6500D01*
X165225D01*
X165975Y-7250D01*
X162975Y-8000D02*X165975D01*
Y-7250D02*Y-8000D01*
X168525Y-7250D02*Y-9500D01*
Y-7250D02*X169275Y-6500D01*
X170775D01*
X167775D02*X168525Y-7250D01*
X172575Y-3500D02*Y-8750D01*
X173325Y-9500D01*
X174825Y-5000D02*Y-5750D01*
Y-7250D02*Y-9500D01*
X177075Y-7250D02*Y-9500D01*
Y-7250D02*X177825Y-6500D01*
X178575D01*
X179325Y-7250D01*
Y-9500D01*
X176325Y-6500D02*X177075Y-7250D01*
X181875Y-9500D02*X184125D01*
X181125Y-8750D02*X181875Y-9500D01*
X181125Y-7250D02*Y-8750D01*
Y-7250D02*X181875Y-6500D01*
X183375D01*
X184125Y-7250D01*
X181125Y-8000D02*X184125D01*
Y-7250D02*Y-8000D01*
X188625Y-7250D02*Y-8750D01*
Y-7250D02*X189375Y-6500D01*
X190875D01*
X191625Y-7250D01*
Y-8750D01*
X190875Y-9500D02*X191625Y-8750D01*
X189375Y-9500D02*X190875D01*
X188625Y-8750D02*X189375Y-9500D01*
X194175Y-4250D02*Y-9500D01*
Y-4250D02*X194925Y-3500D01*
X195675D01*
X193425Y-6500D02*X194925D01*
X200625Y-3500D02*Y-8750D01*
X201375Y-9500D01*
X199875Y-5750D02*X201375D01*
X202875Y-3500D02*Y-9500D01*
Y-7250D02*X203625Y-6500D01*
X205125D01*
X205875Y-7250D01*
Y-9500D01*
X207675Y-5000D02*Y-5750D01*
Y-7250D02*Y-9500D01*
X209925D02*X212175D01*
X212925Y-8750D01*
X212175Y-8000D02*X212925Y-8750D01*
X209925Y-8000D02*X212175D01*
X209175Y-7250D02*X209925Y-8000D01*
X209175Y-7250D02*X209925Y-6500D01*
X212175D01*
X212925Y-7250D01*
X209175Y-8750D02*X209925Y-9500D01*
X218175Y-7250D02*Y-11750D01*
X217425Y-6500D02*X218175Y-7250D01*
X218925Y-6500D01*
X220425D01*
X221175Y-7250D01*
Y-8750D01*
X220425Y-9500D02*X221175Y-8750D01*
X218925Y-9500D02*X220425D01*
X218175Y-8750D02*X218925Y-9500D01*
X225225Y-6500D02*X225975Y-7250D01*
X223725Y-6500D02*X225225D01*
X222975Y-7250D02*X223725Y-6500D01*
X222975Y-7250D02*Y-8750D01*
X223725Y-9500D01*
X225975Y-6500D02*Y-8750D01*
X226725Y-9500D01*
X223725D02*X225225D01*
X225975Y-8750D01*
X229275Y-3500D02*Y-8750D01*
X230025Y-9500D01*
X228525Y-5750D02*X230025D01*
X231525Y-3500D02*Y-9500D01*
Y-7250D02*X232275Y-6500D01*
X233775D01*
X234525Y-7250D01*
Y-9500D01*
X200750Y348500D02*Y342500D01*
X203000Y348500D02*X203750Y347750D01*
Y343250D01*
X203000Y342500D02*X203750Y343250D01*
X200000Y342500D02*X203000D01*
X200000Y348500D02*X203000D01*
X207800Y345500D02*X208550Y344750D01*
X206300Y345500D02*X207800D01*
X205550Y344750D02*X206300Y345500D01*
X205550Y344750D02*Y343250D01*
X206300Y342500D01*
X208550Y345500D02*Y343250D01*
X209300Y342500D01*
X206300D02*X207800D01*
X208550Y343250D01*
X211850Y348500D02*Y343250D01*
X212600Y342500D01*
X211100Y346250D02*X212600D01*
X214850Y342500D02*X217100D01*
X214100Y343250D02*X214850Y342500D01*
X214100Y344750D02*Y343250D01*
Y344750D02*X214850Y345500D01*
X216350D01*
X217100Y344750D01*
X214100Y344000D02*X217100D01*
Y344750D02*Y344000D01*
X218900Y346250D02*X219650D01*
X218900Y344750D02*X219650D01*
X224150Y348500D02*Y342500D01*
Y348500D02*X226400Y346250D01*
X228650Y348500D01*
Y342500D01*
X230450Y344750D02*Y343250D01*
Y344750D02*X231200Y345500D01*
X232700D01*
X233450Y344750D01*
Y343250D01*
X232700Y342500D02*X233450Y343250D01*
X231200Y342500D02*X232700D01*
X230450Y343250D02*X231200Y342500D01*
X236000Y344750D02*Y342500D01*
Y344750D02*X236750Y345500D01*
X237500D01*
X238250Y344750D01*
Y342500D01*
X235250Y345500D02*X236000Y344750D01*
X242750Y348500D02*X245000D01*
Y343250D01*
X244250Y342500D02*X245000Y343250D01*
X243500Y342500D02*X244250D01*
X242750Y343250D02*X243500Y342500D01*
X249050Y345500D02*X249800Y344750D01*
X247550Y345500D02*X249050D01*
X246800Y344750D02*X247550Y345500D01*
X246800Y344750D02*Y343250D01*
X247550Y342500D01*
X249800Y345500D02*Y343250D01*
X250550Y342500D01*
X247550D02*X249050D01*
X249800Y343250D01*
X253100Y344750D02*Y342500D01*
Y344750D02*X253850Y345500D01*
X254600D01*
X255350Y344750D01*
Y342500D01*
X252350Y345500D02*X253100Y344750D01*
X259850Y347750D02*X260600Y348500D01*
X262850D01*
X263600Y347750D01*
Y346250D01*
X259850Y342500D02*X263600Y346250D01*
X259850Y342500D02*X263600D01*
X265400Y348500D02*X268400D01*
X265400D02*Y345500D01*
X266150Y346250D01*
X267650D01*
X268400Y345500D01*
Y343250D01*
X267650Y342500D02*X268400Y343250D01*
X266150Y342500D02*X267650D01*
X265400Y343250D02*X266150Y342500D01*
X273650D02*X275150D01*
X274400Y348500D02*Y342500D01*
X272900Y347000D02*X274400Y348500D01*
X276950Y343250D02*X277700Y342500D01*
X276950Y344750D02*Y343250D01*
Y344750D02*X277700Y345500D01*
X279200D01*
X279950Y344750D01*
Y343250D01*
X279200Y342500D02*X279950Y343250D01*
X277700Y342500D02*X279200D01*
X276950Y346250D02*X277700Y345500D01*
X276950Y347750D02*Y346250D01*
Y347750D02*X277700Y348500D01*
X279200D01*
X279950Y347750D01*
Y346250D01*
X279200Y345500D02*X279950Y346250D01*
X281750D02*X282500D01*
X281750Y344750D02*X282500D01*
X285050Y342500D02*X286550D01*
X285800Y348500D02*Y342500D01*
X284300Y347000D02*X285800Y348500D01*
X289100Y342500D02*X290600D01*
X289850Y348500D02*Y342500D01*
X288350Y347000D02*X289850Y348500D01*
X292400Y346250D02*X293150D01*
X292400Y344750D02*X293150D01*
X294950Y345500D02*X297950Y348500D01*
X294950Y345500D02*X298700D01*
X297950Y348500D02*Y342500D01*
X300500Y347750D02*X301250Y348500D01*
X303500D01*
X304250Y347750D01*
Y346250D01*
X300500Y342500D02*X304250Y346250D01*
X300500Y342500D02*X304250D01*
X308750Y347750D02*X309500Y348500D01*
X311750D01*
X312500Y347750D01*
Y346250D01*
X308750Y342500D02*X312500Y346250D01*
X308750Y342500D02*X312500D01*
X314300Y343250D02*X315050Y342500D01*
X314300Y347750D02*Y343250D01*
Y347750D02*X315050Y348500D01*
X316550D01*
X317300Y347750D01*
Y343250D01*
X316550Y342500D02*X317300Y343250D01*
X315050Y342500D02*X316550D01*
X314300Y344000D02*X317300Y347000D01*
X319100Y347750D02*X319850Y348500D01*
X322100D01*
X322850Y347750D01*
Y346250D01*
X319100Y342500D02*X322850Y346250D01*
X319100Y342500D02*X322850D01*
X325400D02*X326900D01*
X326150Y348500D02*Y342500D01*
X324650Y347000D02*X326150Y348500D01*
X331400D02*Y343250D01*
X332150Y342500D01*
X333650D01*
X334400Y343250D01*
Y348500D02*Y343250D01*
X336200Y348500D02*X339200D01*
X337700D02*Y342500D01*
X341750D02*X344000D01*
X341000Y343250D02*X341750Y342500D01*
X341000Y347750D02*Y343250D01*
Y347750D02*X341750Y348500D01*
X344000D01*
X200000Y362750D02*Y357500D01*
Y362750D02*X200750Y363500D01*
X203000D01*
X203750Y362750D01*
Y357500D01*
X200000Y360500D02*X203750D01*
X205550D02*Y358250D01*
X206300Y357500D01*
X207800D01*
X208550Y358250D01*
Y360500D02*Y358250D01*
X211100Y363500D02*Y358250D01*
X211850Y357500D01*
X210350Y361250D02*X211850D01*
X213350Y363500D02*Y357500D01*
Y359750D02*X214100Y360500D01*
X215600D01*
X216350Y359750D01*
Y357500D01*
X218150Y359750D02*Y358250D01*
Y359750D02*X218900Y360500D01*
X220400D01*
X221150Y359750D01*
Y358250D01*
X220400Y357500D02*X221150Y358250D01*
X218900Y357500D02*X220400D01*
X218150Y358250D02*X218900Y357500D01*
X223700Y359750D02*Y357500D01*
Y359750D02*X224450Y360500D01*
X225950D01*
X222950D02*X223700Y359750D01*
X227750Y361250D02*X228500D01*
X227750Y359750D02*X228500D01*
X233000Y363500D02*Y357500D01*
Y363500D02*Y362750D01*
X236750Y359000D01*
Y363500D02*Y357500D01*
X240800Y360500D02*X241550Y359750D01*
X239300Y360500D02*X240800D01*
X238550Y359750D02*X239300Y360500D01*
X238550Y359750D02*Y358250D01*
X239300Y357500D01*
X241550Y360500D02*Y358250D01*
X242300Y357500D01*
X239300D02*X240800D01*
X241550Y358250D01*
X244850Y363500D02*Y358250D01*
X245600Y357500D01*
X244100Y361250D02*X245600D01*
X247100Y363500D02*Y357500D01*
Y359750D02*X247850Y360500D01*
X249350D01*
X250100Y359750D01*
Y357500D01*
X254150Y360500D02*X254900Y359750D01*
X252650Y360500D02*X254150D01*
X251900Y359750D02*X252650Y360500D01*
X251900Y359750D02*Y358250D01*
X252650Y357500D01*
X254900Y360500D02*Y358250D01*
X255650Y357500D01*
X252650D02*X254150D01*
X254900Y358250D01*
X258200Y359750D02*Y357500D01*
Y359750D02*X258950Y360500D01*
X259700D01*
X260450Y359750D01*
Y357500D01*
X257450Y360500D02*X258200Y359750D01*
X265700Y363500D02*Y357500D01*
X267950Y363500D02*X268700Y362750D01*
Y358250D01*
X267950Y357500D02*X268700Y358250D01*
X264950Y357500D02*X267950D01*
X264950Y363500D02*X267950D01*
X270500Y357500D02*X271250D01*
X275750Y363500D02*Y357500D01*
X279500Y363500D02*Y357500D01*
X275750Y360500D02*X279500D01*
X281300Y359750D02*Y358250D01*
Y359750D02*X282050Y360500D01*
X283550D01*
X284300Y359750D01*
Y358250D01*
X283550Y357500D02*X284300Y358250D01*
X282050Y357500D02*X283550D01*
X281300Y358250D02*X282050Y357500D01*
X286100Y363500D02*Y358250D01*
X286850Y357500D01*
X289100Y359750D02*Y357500D01*
Y359750D02*X289850Y360500D01*
X290600D01*
X291350Y359750D01*
Y357500D01*
Y359750D02*X292100Y360500D01*
X292850D01*
X293600Y359750D01*
Y357500D01*
X288350Y360500D02*X289100Y359750D01*
X296150Y357500D02*X298400D01*
X295400Y358250D02*X296150Y357500D01*
X295400Y359750D02*Y358250D01*
Y359750D02*X296150Y360500D01*
X297650D01*
X298400Y359750D01*
X295400Y359000D02*X298400D01*
Y359750D02*Y359000D01*
X300950Y357500D02*X303200D01*
X303950Y358250D01*
X303200Y359000D02*X303950Y358250D01*
X300950Y359000D02*X303200D01*
X300200Y359750D02*X300950Y359000D01*
X300200Y359750D02*X300950Y360500D01*
X303200D01*
X303950Y359750D01*
X300200Y358250D02*X300950Y357500D01*
X200000Y378500D02*X203000D01*
X201500D02*Y372500D01*
X204800Y377000D02*Y376250D01*
Y374750D02*Y372500D01*
X207050Y378500D02*Y373250D01*
X207800Y372500D01*
X206300Y376250D02*X207800D01*
X209300Y378500D02*Y373250D01*
X210050Y372500D01*
X212300D02*X214550D01*
X211550Y373250D02*X212300Y372500D01*
X211550Y374750D02*Y373250D01*
Y374750D02*X212300Y375500D01*
X213800D01*
X214550Y374750D01*
X211550Y374000D02*X214550D01*
Y374750D02*Y374000D01*
X216350Y376250D02*X217100D01*
X216350Y374750D02*X217100D01*
X221600Y373250D02*X222350Y372500D01*
X221600Y377750D02*X222350Y378500D01*
X221600Y377750D02*Y373250D01*
X224150Y375500D02*Y373250D01*
X224900Y372500D01*
X226400D01*
X227150Y373250D01*
Y375500D02*Y373250D01*
X229700Y374750D02*Y372500D01*
Y374750D02*X230450Y375500D01*
X231200D01*
X231950Y374750D01*
Y372500D01*
X228950Y375500D02*X229700Y374750D01*
X233750Y378500D02*Y372500D01*
Y374750D02*X236000Y372500D01*
X233750Y374750D02*X235250Y376250D01*
X238550Y374750D02*Y372500D01*
Y374750D02*X239300Y375500D01*
X240050D01*
X240800Y374750D01*
Y372500D01*
X237800Y375500D02*X238550Y374750D01*
X242600D02*Y373250D01*
Y374750D02*X243350Y375500D01*
X244850D01*
X245600Y374750D01*
Y373250D01*
X244850Y372500D02*X245600Y373250D01*
X243350Y372500D02*X244850D01*
X242600Y373250D02*X243350Y372500D01*
X247400Y375500D02*Y373250D01*
X248150Y372500D01*
X248900D01*
X249650Y373250D01*
Y375500D02*Y373250D01*
X250400Y372500D01*
X251150D01*
X251900Y373250D01*
Y375500D02*Y373250D01*
X254450Y374750D02*Y372500D01*
Y374750D02*X255200Y375500D01*
X255950D01*
X256700Y374750D01*
Y372500D01*
X253700Y375500D02*X254450Y374750D01*
X258500Y378500D02*X259250Y377750D01*
Y373250D01*
X258500Y372500D02*X259250Y373250D01*
X263750Y375500D02*X266750D01*
X271250Y378500D02*Y372500D01*
Y378500D02*X274250D01*
X271250Y375500D02*X273500D01*
X278300D02*X279050Y374750D01*
X276800Y375500D02*X278300D01*
X276050Y374750D02*X276800Y375500D01*
X276050Y374750D02*Y373250D01*
X276800Y372500D01*
X279050Y375500D02*Y373250D01*
X279800Y372500D01*
X276800D02*X278300D01*
X279050Y373250D01*
X281600Y378500D02*Y372500D01*
Y373250D02*X282350Y372500D01*
X283850D01*
X284600Y373250D01*
Y374750D02*Y373250D01*
X283850Y375500D02*X284600Y374750D01*
X282350Y375500D02*X283850D01*
X281600Y374750D02*X282350Y375500D01*
X287150Y374750D02*Y372500D01*
Y374750D02*X287900Y375500D01*
X289400D01*
X286400D02*X287150Y374750D01*
X291200Y377000D02*Y376250D01*
Y374750D02*Y372500D01*
X293450Y375500D02*X295700D01*
X292700Y374750D02*X293450Y375500D01*
X292700Y374750D02*Y373250D01*
X293450Y372500D01*
X295700D01*
X299750Y375500D02*X300500Y374750D01*
X298250Y375500D02*X299750D01*
X297500Y374750D02*X298250Y375500D01*
X297500Y374750D02*Y373250D01*
X298250Y372500D01*
X300500Y375500D02*Y373250D01*
X301250Y372500D01*
X298250D02*X299750D01*
X300500Y373250D01*
X303800Y378500D02*Y373250D01*
X304550Y372500D01*
X303050Y376250D02*X304550D01*
X306050Y377000D02*Y376250D01*
Y374750D02*Y372500D01*
X307550Y374750D02*Y373250D01*
Y374750D02*X308300Y375500D01*
X309800D01*
X310550Y374750D01*
Y373250D01*
X309800Y372500D02*X310550Y373250D01*
X308300Y372500D02*X309800D01*
X307550Y373250D02*X308300Y372500D01*
X313100Y374750D02*Y372500D01*
Y374750D02*X313850Y375500D01*
X314600D01*
X315350Y374750D01*
Y372500D01*
X312350Y375500D02*X313100Y374750D01*
X320600Y378500D02*Y372500D01*
X322850Y378500D02*X323600Y377750D01*
Y373250D01*
X322850Y372500D02*X323600Y373250D01*
X319850Y372500D02*X322850D01*
X319850Y378500D02*X322850D01*
X326150Y374750D02*Y372500D01*
Y374750D02*X326900Y375500D01*
X328400D01*
X325400D02*X326150Y374750D01*
X332450Y375500D02*X333200Y374750D01*
X330950Y375500D02*X332450D01*
X330200Y374750D02*X330950Y375500D01*
X330200Y374750D02*Y373250D01*
X330950Y372500D01*
X333200Y375500D02*Y373250D01*
X333950Y372500D01*
X330950D02*X332450D01*
X333200Y373250D01*
X335750Y375500D02*Y373250D01*
X336500Y372500D01*
X337250D01*
X338000Y373250D01*
Y375500D02*Y373250D01*
X338750Y372500D01*
X339500D01*
X340250Y373250D01*
Y375500D02*Y373250D01*
X342050Y377000D02*Y376250D01*
Y374750D02*Y372500D01*
X344300Y374750D02*Y372500D01*
Y374750D02*X345050Y375500D01*
X345800D01*
X346550Y374750D01*
Y372500D01*
X343550Y375500D02*X344300Y374750D01*
X350600Y375500D02*X351350Y374750D01*
X349100Y375500D02*X350600D01*
X348350Y374750D02*X349100Y375500D01*
X348350Y374750D02*Y373250D01*
X349100Y372500D01*
X350600D01*
X351350Y373250D01*
X348350Y371000D02*X349100Y370250D01*
X350600D01*
X351350Y371000D01*
Y375500D02*Y371000D01*
M02*
