G04 start of page 7 for group -4062 idx -4062 *
G04 Title: (unknown), soldermask *
G04 Creator: pcb 4.0.2 *
G04 CreationDate: Mon Jan 25 18:11:42 2021 UTC *
G04 For: ndholmes *
G04 Format: Gerber/RS-274X *
G04 PCB-Dimensions (mil): 3000.00 3200.00 *
G04 PCB-Coordinate-Origin: lower left *
%MOIN*%
%FSLAX25Y25*%
%LNBOTTOMMASK*%
%ADD39C,0.0860*%
%ADD38C,0.0001*%
%ADD37C,0.2997*%
G54D37*X17000Y17000D03*
G54D38*G36*
X19200Y75800D02*Y67200D01*
X27800D01*
Y75800D01*
X19200D01*
G37*
G54D39*X23500Y51500D03*
G54D38*G36*
X172200Y110300D02*Y101700D01*
X180800D01*
Y110300D01*
X172200D01*
G37*
G54D39*X176500Y126000D03*
G54D37*X183000Y17000D03*
G54D38*G36*
X19200Y115800D02*Y107200D01*
X27800D01*
Y115800D01*
X19200D01*
G37*
G54D39*X23500Y91500D03*
G54D38*G36*
X19200Y191300D02*Y182700D01*
X27800D01*
Y191300D01*
X19200D01*
G37*
G54D39*X23500Y167000D03*
Y147000D03*
G54D38*G36*
X172200Y179300D02*Y170700D01*
X180800D01*
Y179300D01*
X172200D01*
G37*
G36*
X19200Y231300D02*Y222700D01*
X27800D01*
Y231300D01*
X19200D01*
G37*
G54D39*X23500Y207000D03*
G54D38*G36*
X19200Y278800D02*Y270200D01*
X27800D01*
Y278800D01*
X19200D01*
G37*
G54D39*X23500Y254500D03*
G54D37*X17000Y303000D03*
G54D39*X176500Y146000D03*
G54D37*X183000Y303000D03*
G54D38*G36*
X172200Y219300D02*Y210700D01*
X180800D01*
Y219300D01*
X172200D01*
G37*
G54D39*X176500Y235000D03*
Y195000D03*
M02*
